<svg width="20" height="20" viewBox="0 0 20 20" fill="none" xmlns="http://www.w3.org/2000/svg">
<g id="Icon Start">
<path id="Icon" d="M6.17143 16.6747L6.57787 17.2341L6.17143 16.6747C5.97551 16.817 5.71189 16.6255 5.78672 16.3951L6.85629 13.1033C7.09057 12.3823 6.83392 11.5924 6.22057 11.1468L3.4204 9.11234L2.97956 9.71911L3.4204 9.11234C3.22447 8.97 3.32516 8.66009 3.56735 8.66009H7.02855C7.78669 8.66009 8.45861 8.17191 8.69289 7.45087L9.76246 4.15907C9.8373 3.92875 10.1632 3.92875 10.238 4.15907L11.3076 7.45087C11.5418 8.17191 12.2138 8.66009 12.9719 8.66009H16.4331C16.6753 8.66009 16.776 8.96999 16.5801 9.11235L13.7799 11.1468C13.1665 11.5924 12.9099 12.3823 13.1442 13.1033L14.2137 16.3951C14.2886 16.6255 14.025 16.817 13.829 16.6747L11.0289 14.6402C10.4155 14.1946 9.58496 14.1946 8.9716 14.6402L9.41244 15.247L8.9716 14.6402L6.17143 16.6747Z" fill="#8653E0" stroke="#8653E0" stroke-width="1.5"/>
</g>
</svg>
