<?xml version="1.0" standalone="no"?>
<!DOCTYPE svg PUBLIC "-//W3C//DTD SVG 1.1//EN" "http://www.w3.org/Graphics/SVG/1.1/DTD/svg11.dtd" >
<svg xmlns="http://www.w3.org/2000/svg">
<defs>
  <font id="iconly" horiz-adv-x="1024">
    <font-face font-family="iconly"
      units-per-em="1024" ascent="896"
      descent="128" />
    <missing-glyph horiz-adv-x="0" />
    <glyph glyph-name="zoom-out"
      unicode="&#xE000;"
      horiz-adv-x="1024" d="M873.387 -22.6130000000001L636.885 213.845Q547.371 138.667 426.6670000000001 138.667Q289.707 138.667 192.853 235.52Q96 332.3730000000001 96 469.333Q96 606.293 192.853 703.147Q289.707 800 426.667 800Q563.627 800 660.48 703.1469999999999Q757.333 606.293 757.333 469.333Q757.333 348.629 682.155 259.115L918.613 22.6130000000001Q928 13.27 928 0Q928 -13.27 918.613 -22.6130000000001Q909.27 -32 896 -32Q882.73 -32 873.387 -22.6130000000001zM693.333 469.333Q693.333 579.797 615.211 657.8770000000001Q537.13 736 426.668 736Q316.204 736 238.124 657.877Q160 579.797 160 469.333Q160 358.8690000000001 238.123 280.789Q316.203 202.666 426.6670000000001 202.666Q537.1310000000001 202.666 615.211 280.7879999999999Q693.3340000000001 358.868 693.3340000000001 469.3309999999999zM554.6669999999999 437.3330000000001H298.6669999999999Q285.397 437.3330000000001 276.053 446.7200000000001Q266.6669999999999 456.064 266.6669999999999 469.333Q266.6669999999999 482.603 276.053 491.947Q285.397 501.333 298.6669999999999 501.333H554.6669999999999Q567.9369999999999 501.333 577.28 491.947Q586.6669999999999 482.603 586.6669999999999 469.333Q586.6669999999999 456.063 577.28 446.7200000000001Q567.9359999999999 437.3330000000001 554.6669999999999 437.3330000000001z" />
    <glyph glyph-name="zoom-out-1"
      unicode="&#x7A;&#x6F;&#x6F;&#x6D;&#x5F;&#x6F;&#x75;&#x74;"
      horiz-adv-x="1024" d="M873.387 -22.6130000000001L636.885 213.845Q547.371 138.667 426.6670000000001 138.667Q289.707 138.667 192.853 235.52Q96 332.3730000000001 96 469.333Q96 606.293 192.853 703.147Q289.707 800 426.667 800Q563.627 800 660.48 703.1469999999999Q757.333 606.293 757.333 469.333Q757.333 348.629 682.155 259.115L918.613 22.6130000000001Q928 13.27 928 0Q928 -13.27 918.613 -22.6130000000001Q909.27 -32 896 -32Q882.73 -32 873.387 -22.6130000000001zM693.333 469.333Q693.333 579.797 615.211 657.8770000000001Q537.13 736 426.668 736Q316.204 736 238.124 657.877Q160 579.797 160 469.333Q160 358.8690000000001 238.123 280.789Q316.203 202.666 426.6670000000001 202.666Q537.1310000000001 202.666 615.211 280.7879999999999Q693.3340000000001 358.868 693.3340000000001 469.3309999999999zM554.6669999999999 437.3330000000001H298.6669999999999Q285.397 437.3330000000001 276.053 446.7200000000001Q266.6669999999999 456.064 266.6669999999999 469.333Q266.6669999999999 482.603 276.053 491.947Q285.397 501.333 298.6669999999999 501.333H554.6669999999999Q567.9369999999999 501.333 577.28 491.947Q586.6669999999999 482.603 586.6669999999999 469.333Q586.6669999999999 456.063 577.28 446.7200000000001Q567.9359999999999 437.3330000000001 554.6669999999999 437.3330000000001z" />
    <glyph glyph-name="zoom-in"
      unicode="&#xE001;"
      horiz-adv-x="1024" d="M873.387 -22.6130000000001L636.885 213.845Q547.371 138.667 426.6670000000001 138.667Q289.707 138.667 192.853 235.52Q96 332.3730000000001 96 469.333Q96 606.293 192.853 703.147Q289.707 800 426.667 800Q563.627 800 660.48 703.1469999999999Q757.333 606.293 757.333 469.333Q757.333 348.629 682.155 259.115L918.613 22.6130000000001Q928 13.27 928 0Q928 -13.27 918.613 -22.6130000000001Q909.27 -32 896 -32Q882.73 -32 873.387 -22.6130000000001zM693.333 469.333Q693.333 579.797 615.211 657.8770000000001Q537.13 736 426.668 736Q316.204 736 238.124 657.877Q160 579.797 160 469.333Q160 358.8690000000001 238.123 280.789Q316.203 202.666 426.6670000000001 202.666Q537.1310000000001 202.666 615.211 280.7879999999999Q693.3340000000001 358.868 693.3340000000001 469.3309999999999zM458.667 597.3330000000001V501.333H554.6669999999999Q567.9369999999999 501.333 577.28 491.947Q586.6669999999999 482.603 586.6669999999999 469.333Q586.6669999999999 456.063 577.28 446.7200000000001Q567.9359999999999 437.3330000000001 554.6669999999999 437.3330000000001H458.6669999999999V341.3330000000001Q458.6669999999999 328.0630000000001 449.2799999999999 318.7200000000001Q439.9359999999999 309.3330000000001 426.6669999999999 309.3330000000001Q413.397 309.3330000000001 404.053 318.7200000000001Q394.6669999999999 328.0640000000001 394.6669999999999 341.3330000000001V437.3330000000001H298.6669999999999Q285.397 437.3330000000001 276.053 446.7200000000001Q266.6669999999999 456.0640000000001 266.6669999999999 469.3330000000001Q266.6669999999999 482.6030000000001 276.053 491.9470000000001Q285.397 501.3330000000001 298.6669999999999 501.3330000000001H394.6669999999999V597.3330000000001Q394.6669999999999 610.6030000000001 404.053 619.9470000000001Q413.397 629.3330000000001 426.6669999999999 629.3330000000001Q439.9369999999999 629.3330000000001 449.2799999999999 619.9470000000001Q458.6669999999999 610.6030000000001 458.6669999999999 597.3330000000001z" />
    <glyph glyph-name="zoom-in-1"
      unicode="&#x7A;&#x6F;&#x6F;&#x6D;&#x5F;&#x69;&#x6E;"
      horiz-adv-x="1024" d="M873.387 -22.6130000000001L636.885 213.845Q547.371 138.667 426.6670000000001 138.667Q289.707 138.667 192.853 235.52Q96 332.3730000000001 96 469.333Q96 606.293 192.853 703.147Q289.707 800 426.667 800Q563.627 800 660.48 703.1469999999999Q757.333 606.293 757.333 469.333Q757.333 348.629 682.155 259.115L918.613 22.6130000000001Q928 13.27 928 0Q928 -13.27 918.613 -22.6130000000001Q909.27 -32 896 -32Q882.73 -32 873.387 -22.6130000000001zM693.333 469.333Q693.333 579.797 615.211 657.8770000000001Q537.13 736 426.668 736Q316.204 736 238.124 657.877Q160 579.797 160 469.333Q160 358.8690000000001 238.123 280.789Q316.203 202.666 426.6670000000001 202.666Q537.1310000000001 202.666 615.211 280.7879999999999Q693.3340000000001 358.868 693.3340000000001 469.3309999999999zM458.667 597.3330000000001V501.333H554.6669999999999Q567.9369999999999 501.333 577.28 491.947Q586.6669999999999 482.603 586.6669999999999 469.333Q586.6669999999999 456.063 577.28 446.7200000000001Q567.9359999999999 437.3330000000001 554.6669999999999 437.3330000000001H458.6669999999999V341.3330000000001Q458.6669999999999 328.0630000000001 449.2799999999999 318.7200000000001Q439.9359999999999 309.3330000000001 426.6669999999999 309.3330000000001Q413.397 309.3330000000001 404.053 318.7200000000001Q394.6669999999999 328.0640000000001 394.6669999999999 341.3330000000001V437.3330000000001H298.6669999999999Q285.397 437.3330000000001 276.053 446.7200000000001Q266.6669999999999 456.0640000000001 266.6669999999999 469.3330000000001Q266.6669999999999 482.6030000000001 276.053 491.9470000000001Q285.397 501.3330000000001 298.6669999999999 501.3330000000001H394.6669999999999V597.3330000000001Q394.6669999999999 610.6030000000001 404.053 619.9470000000001Q413.397 629.3330000000001 426.6669999999999 629.3330000000001Q439.9369999999999 629.3330000000001 449.2799999999999 619.9470000000001Q458.6669999999999 610.6030000000001 458.6669999999999 597.3330000000001z" />
    <glyph glyph-name="x"
      unicode="&#xE002;"
      horiz-adv-x="1024" d="M233.387 150.6130000000001L466.73 384L233.388 617.387Q224 626.73 224 640Q224 653.27 233.387 662.613Q242.73 672 256 672Q269.27 672 278.613 662.613L512 429.27L745.387 662.6129999999999Q754.73 672 768 672Q781.27 672 790.613 662.613Q800 653.27 800 640Q800 626.73 790.613 617.387L557.27 384L790.6129999999999 150.6130000000001Q800 141.27 800 128Q800 114.73 790.613 105.3869999999999Q781.27 96 768 96Q754.73 96 745.387 105.3869999999999L512 338.73L278.613 105.388Q269.27 96 256 96Q242.73 96 233.387 105.3869999999999Q224 114.73 224 128Q224 141.27 233.387 150.6130000000001z" />
    <glyph glyph-name="x-1"
      unicode="&#x78;"
      horiz-adv-x="1024" d="M233.387 150.6130000000001L466.73 384L233.388 617.387Q224 626.73 224 640Q224 653.27 233.387 662.613Q242.73 672 256 672Q269.27 672 278.613 662.613L512 429.27L745.387 662.6129999999999Q754.73 672 768 672Q781.27 672 790.613 662.613Q800 653.27 800 640Q800 626.73 790.613 617.387L557.27 384L790.6129999999999 150.6130000000001Q800 141.27 800 128Q800 114.73 790.613 105.3869999999999Q781.27 96 768 96Q754.73 96 745.387 105.3869999999999L512 338.73L278.613 105.388Q269.27 96 256 96Q242.73 96 233.387 105.3869999999999Q224 114.73 224 128Q224 141.27 233.387 150.6130000000001z" />
    <glyph glyph-name="x-circle"
      unicode="&#xE003;"
      horiz-adv-x="1024" d="M928 384Q928 211.67 806.144 89.856Q684.33 -32 512 -32Q339.67 -32 217.856 89.856Q96 211.67 96 384Q96 556.33 217.856 678.144Q339.67 800 512 800Q684.33 800 806.144 678.144Q928 556.3299999999999 928 384zM864 384Q864 529.792 760.917 632.917Q657.792 736 512 736T263.0830000000001 632.9169999999999Q160 529.7919999999999 160 384T263.083 135.083Q366.2080000000001 32 512 32T760.917 135.083Q864 238.208 864 384zM404.053 321.28L466.73 384L404.053 446.7200000000001Q394.667 456.064 394.667 469.333Q394.667 482.603 404.053 491.947Q413.397 501.333 426.667 501.333Q439.937 501.333 449.28 491.947L512 429.27L574.72 491.947Q584.0640000000001 501.333 597.3330000000001 501.333Q610.6030000000001 501.333 619.9470000000001 491.947Q629.3330000000001 482.603 629.3330000000001 469.333Q629.3330000000001 456.063 619.9470000000001 446.7200000000001L557.27 384L619.947 321.28Q629.333 311.9359999999999 629.333 298.6669999999999Q629.333 285.397 619.947 276.0529999999999Q610.603 266.6669999999999 597.333 266.6669999999999Q584.063 266.6669999999999 574.72 276.0529999999999L512 338.73L449.28 276.053Q439.936 266.6670000000001 426.667 266.6670000000001Q413.397 266.6670000000001 404.053 276.053Q394.667 285.3970000000001 394.667 298.6670000000001Q394.667 311.937 404.053 321.28z" />
    <glyph glyph-name="x-circle-1"
      unicode="&#x78;&#x5F;&#x63;&#x69;&#x72;&#x63;&#x6C;&#x65;"
      horiz-adv-x="1024" d="M928 384Q928 211.67 806.144 89.856Q684.33 -32 512 -32Q339.67 -32 217.856 89.856Q96 211.67 96 384Q96 556.33 217.856 678.144Q339.67 800 512 800Q684.33 800 806.144 678.144Q928 556.3299999999999 928 384zM864 384Q864 529.792 760.917 632.917Q657.792 736 512 736T263.0830000000001 632.9169999999999Q160 529.7919999999999 160 384T263.083 135.083Q366.2080000000001 32 512 32T760.917 135.083Q864 238.208 864 384zM404.053 321.28L466.73 384L404.053 446.7200000000001Q394.667 456.064 394.667 469.333Q394.667 482.603 404.053 491.947Q413.397 501.333 426.667 501.333Q439.937 501.333 449.28 491.947L512 429.27L574.72 491.947Q584.0640000000001 501.333 597.3330000000001 501.333Q610.6030000000001 501.333 619.9470000000001 491.947Q629.3330000000001 482.603 629.3330000000001 469.333Q629.3330000000001 456.063 619.9470000000001 446.7200000000001L557.27 384L619.947 321.28Q629.333 311.9359999999999 629.333 298.6669999999999Q629.333 285.397 619.947 276.0529999999999Q610.603 266.6669999999999 597.333 266.6669999999999Q584.063 266.6669999999999 574.72 276.0529999999999L512 338.73L449.28 276.053Q439.936 266.6670000000001 426.667 266.6670000000001Q413.397 266.6670000000001 404.053 276.053Q394.667 285.3970000000001 394.667 298.6670000000001Q394.667 311.937 404.053 321.28z" />
    <glyph glyph-name="wifi"
      unicode="&#xE004;"
      horiz-adv-x="1024" d="M36.82 517.845Q233.644 714.667 512 714.667Q790.357 714.667 987.18 517.845Q996.565 508.459 996.565 495.232Q996.565 481.962 987.179 472.576Q977.791 463.232 964.564 463.232Q951.294 463.232 941.9080000000002 472.576Q763.86 650.6659999999999 512 650.6659999999999Q260.18 650.6659999999999 82.09 472.576Q72.704 463.232 59.477 463.232Q46.207 463.232 36.821 472.576Q27.478 481.963 27.478 495.232Q27.478 508.459 36.822 517.845zM187.69 366.975Q322.006 501.334 512 501.334T836.352 366.977Q845.696 357.6329999999999 845.696 344.3640000000001Q845.696 331.0940000000001 836.352 321.75Q826.9649999999999 312.3630000000001 813.696 312.3630000000001Q800.469 312.3630000000001 791.0830000000001 321.749Q675.5 437.332 512 437.332Q348.544 437.332 232.917 321.7480000000001Q223.573 312.3610000000001 210.304 312.3610000000001Q197.034 312.3610000000001 187.691 321.7470000000001Q178.305 331.0900000000001 178.305 344.3600000000002T187.692 366.9730000000002zM323.457 218.71Q401.536 296.8300000000001 512 296.8300000000001Q622.4639999999999 296.8300000000001 700.587 218.707Q709.931 209.362 709.931 196.093Q709.931 182.823 700.5880000000001 173.48Q691.201 164.0930000000001 677.9320000000001 164.0930000000001Q664.7060000000001 164.0930000000001 655.3190000000002 173.48Q595.9690000000002 232.8300000000001 512.0020000000002 232.8300000000001Q428.0770000000002 232.8300000000001 368.6850000000002 173.48Q359.3410000000002 164.0930000000001 346.0710000000002 164.0930000000001Q332.8010000000002 164.0930000000001 323.4570000000002 173.48Q314.0700000000002 182.8240000000001 314.0700000000002 196.0930000000001Q314.0700000000002 209.3630000000001 323.4560000000003 218.7060000000001zM512 74.6660000000001H512.427Q525.697 74.6660000000001 535.083 65.279Q544.427 55.9349999999999 544.427 42.6659999999999Q544.427 29.396 535.083 20.0519999999999Q525.6959999999999 10.6659999999999 512.427 10.6659999999999H512Q498.773 10.6659999999999 489.387 20.0519999999999Q480 29.3970000000001 480 42.667Q480 55.937 489.387 65.28Q498.773 74.6669999999999 512 74.6669999999999z" />
    <glyph glyph-name="wifi-1"
      unicode="&#x77;&#x69;&#x66;&#x69;"
      horiz-adv-x="1024" d="M36.82 517.845Q233.644 714.667 512 714.667Q790.357 714.667 987.18 517.845Q996.565 508.459 996.565 495.232Q996.565 481.962 987.179 472.576Q977.791 463.232 964.564 463.232Q951.294 463.232 941.9080000000002 472.576Q763.86 650.6659999999999 512 650.6659999999999Q260.18 650.6659999999999 82.09 472.576Q72.704 463.232 59.477 463.232Q46.207 463.232 36.821 472.576Q27.478 481.963 27.478 495.232Q27.478 508.459 36.822 517.845zM187.69 366.975Q322.006 501.334 512 501.334T836.352 366.977Q845.696 357.6329999999999 845.696 344.3640000000001Q845.696 331.0940000000001 836.352 321.75Q826.9649999999999 312.3630000000001 813.696 312.3630000000001Q800.469 312.3630000000001 791.0830000000001 321.749Q675.5 437.332 512 437.332Q348.544 437.332 232.917 321.7480000000001Q223.573 312.3610000000001 210.304 312.3610000000001Q197.034 312.3610000000001 187.691 321.7470000000001Q178.305 331.0900000000001 178.305 344.3600000000002T187.692 366.9730000000002zM323.457 218.71Q401.536 296.8300000000001 512 296.8300000000001Q622.4639999999999 296.8300000000001 700.587 218.707Q709.931 209.362 709.931 196.093Q709.931 182.823 700.5880000000001 173.48Q691.201 164.0930000000001 677.9320000000001 164.0930000000001Q664.7060000000001 164.0930000000001 655.3190000000002 173.48Q595.9690000000002 232.8300000000001 512.0020000000002 232.8300000000001Q428.0770000000002 232.8300000000001 368.6850000000002 173.48Q359.3410000000002 164.0930000000001 346.0710000000002 164.0930000000001Q332.8010000000002 164.0930000000001 323.4570000000002 173.48Q314.0700000000002 182.8240000000001 314.0700000000002 196.0930000000001Q314.0700000000002 209.3630000000001 323.4560000000003 218.7060000000001zM512 74.6660000000001H512.427Q525.697 74.6660000000001 535.083 65.279Q544.427 55.9349999999999 544.427 42.6659999999999Q544.427 29.396 535.083 20.0519999999999Q525.6959999999999 10.6659999999999 512.427 10.6659999999999H512Q498.773 10.6659999999999 489.387 20.0519999999999Q480 29.3970000000001 480 42.667Q480 55.937 489.387 65.28Q498.773 74.6669999999999 512 74.6669999999999z" />
    <glyph glyph-name="volume-up"
      unicode="&#xE005;"
      horiz-adv-x="1024" d="M225.067 224H170.667Q139.733 224 117.887 245.8450000000001Q96 267.733 96 298.6670000000001V469.333Q96 544 170.667 544H225.067L416.555 735.4449999999999Q451.797 770.731 497.92 751.659Q544 732.543 544 682.6659999999999V85.3320000000001Q544 35.4550000000002 497.92 16.3400000000001Q451.797 -2.7299999999999 416.555 32.5120000000002L225.067 224zM238.337 288Q251.563 288 260.949 278.6130000000001L461.78 77.78Q466.816 72.747 473.4299999999999 75.477Q479.9999999999999 78.207 479.9999999999999 85.333V682.667Q479.9999999999999 689.792 473.4299999999999 692.523Q466.816 695.2529999999999 461.78 690.219L260.95 489.386Q251.562 480 238.335 480H170.665Q160 480 160 469.333V298.6670000000001Q160 288 170.667 288zM806.144 678.144Q928 556.3299999999999 928 384Q928 211.67 806.144 89.856Q796.8 80.4690000000001 783.531 80.4690000000001Q770.261 80.4690000000001 760.9179999999999 89.855Q751.5319999999999 99.1990000000001 751.5319999999999 112.4680000000001Q751.5319999999999 125.7380000000001 760.9189999999999 135.0810000000001Q864 238.208 864 384T760.917 632.9169999999999Q751.5310000000001 642.261 751.5310000000001 655.531Q751.5310000000001 668.8009999999999 760.9180000000001 678.145Q770.2620000000002 687.5319999999999 783.5320000000002 687.5319999999999Q796.8020000000001 687.5319999999999 806.1460000000002 678.146zM685.484 557.484Q757.3340000000001 485.6320000000001 757.3340000000001 384T685.484 210.5170000000001Q676.096 201.173 662.827 201.173Q649.6 201.173 640.213 210.5170000000001Q630.827 219.904 630.827 233.173Q630.827 246.4 640.213 255.7870000000001Q693.333 308.9070000000001 693.333 384Q693.333 459.093 640.213 512.213Q630.827 521.5999999999999 630.827 534.8689999999999Q630.869 548.095 640.213 557.482Q649.5999999999999 566.8679999999999 662.8689999999999 566.8679999999999Q676.0949999999999 566.8679999999999 685.482 557.481z" />
    <glyph glyph-name="volume-up-1"
      unicode="&#x76;&#x6F;&#x6C;&#x75;&#x6D;&#x65;&#x5F;&#x75;&#x70;"
      horiz-adv-x="1024" d="M225.067 224H170.667Q139.733 224 117.887 245.8450000000001Q96 267.733 96 298.6670000000001V469.333Q96 544 170.667 544H225.067L416.555 735.4449999999999Q451.797 770.731 497.92 751.659Q544 732.543 544 682.6659999999999V85.3320000000001Q544 35.4550000000002 497.92 16.3400000000001Q451.797 -2.7299999999999 416.555 32.5120000000002L225.067 224zM238.337 288Q251.563 288 260.949 278.6130000000001L461.78 77.78Q466.816 72.747 473.4299999999999 75.477Q479.9999999999999 78.207 479.9999999999999 85.333V682.667Q479.9999999999999 689.792 473.4299999999999 692.523Q466.816 695.2529999999999 461.78 690.219L260.95 489.386Q251.562 480 238.335 480H170.665Q160 480 160 469.333V298.6670000000001Q160 288 170.667 288zM806.144 678.144Q928 556.3299999999999 928 384Q928 211.67 806.144 89.856Q796.8 80.4690000000001 783.531 80.4690000000001Q770.261 80.4690000000001 760.9179999999999 89.855Q751.5319999999999 99.1990000000001 751.5319999999999 112.4680000000001Q751.5319999999999 125.7380000000001 760.9189999999999 135.0810000000001Q864 238.208 864 384T760.917 632.9169999999999Q751.5310000000001 642.261 751.5310000000001 655.531Q751.5310000000001 668.8009999999999 760.9180000000001 678.145Q770.2620000000002 687.5319999999999 783.5320000000002 687.5319999999999Q796.8020000000001 687.5319999999999 806.1460000000002 678.146zM685.484 557.484Q757.3340000000001 485.6320000000001 757.3340000000001 384T685.484 210.5170000000001Q676.096 201.173 662.827 201.173Q649.6 201.173 640.213 210.5170000000001Q630.827 219.904 630.827 233.173Q630.827 246.4 640.213 255.7870000000001Q693.333 308.9070000000001 693.333 384Q693.333 459.093 640.213 512.213Q630.827 521.5999999999999 630.827 534.8689999999999Q630.869 548.095 640.213 557.482Q649.5999999999999 566.8679999999999 662.8689999999999 566.8679999999999Q676.0949999999999 566.8679999999999 685.482 557.481z" />
    <glyph glyph-name="volume-off"
      unicode="&#xE006;"
      horiz-adv-x="1024" d="M225.067 224H170.667Q139.733 224 117.887 245.8450000000001Q96 267.733 96 298.6670000000001V469.333Q96 544 170.667 544H225.067L416.555 735.4449999999999Q451.797 770.731 497.92 751.659Q544 732.543 544 682.6659999999999V85.3320000000001Q544 35.4550000000002 497.92 16.3400000000001Q451.797 -2.7299999999999 416.555 32.5120000000002L225.067 224zM238.337 288Q251.563 288 260.949 278.6130000000001L461.78 77.78Q466.816 72.747 473.4299999999999 75.477Q479.9999999999999 78.207 479.9999999999999 85.333V682.667Q479.9999999999999 689.792 473.4299999999999 692.523Q466.816 695.2529999999999 461.78 690.219L260.95 489.386Q251.562 480 238.335 480H170.665Q160 480 160 469.333V298.6670000000001Q160 288 170.667 288zM702.72 321.28L765.397 384L702.72 446.7200000000001Q693.3330000000001 456.064 693.3330000000001 469.333Q693.3330000000001 482.603 702.72 491.947Q712.0640000000001 501.333 725.3330000000001 501.333Q738.6030000000001 501.333 747.9470000000001 491.947L810.6670000000001 429.269L873.3870000000002 491.946Q882.7310000000002 501.3320000000001 896.0000000000002 501.3320000000001Q909.2700000000002 501.3320000000001 918.6130000000002 491.946Q928 482.603 928 469.333Q928 456.063 918.613 446.7200000000001L855.936 384L918.613 321.28Q928 311.9360000000001 928 298.6670000000001Q928 285.3970000000001 918.613 276.053Q909.269 266.6670000000001 896 266.6670000000001Q882.73 266.6670000000001 873.387 276.053L810.6669999999999 338.731L747.9469999999999 276.054Q738.6029999999998 266.668 725.3329999999999 266.668Q712.0629999999999 266.668 702.7199999999998 276.054Q693.3329999999999 285.398 693.3329999999999 298.668Q693.3329999999999 311.938 702.7199999999998 321.281z" />
    <glyph glyph-name="volume-off-1"
      unicode="&#x76;&#x6F;&#x6C;&#x75;&#x6D;&#x65;&#x5F;&#x6F;&#x66;&#x66;"
      horiz-adv-x="1024" d="M225.067 224H170.667Q139.733 224 117.887 245.8450000000001Q96 267.733 96 298.6670000000001V469.333Q96 544 170.667 544H225.067L416.555 735.4449999999999Q451.797 770.731 497.92 751.659Q544 732.543 544 682.6659999999999V85.3320000000001Q544 35.4550000000002 497.92 16.3400000000001Q451.797 -2.7299999999999 416.555 32.5120000000002L225.067 224zM238.337 288Q251.563 288 260.949 278.6130000000001L461.78 77.78Q466.816 72.747 473.4299999999999 75.477Q479.9999999999999 78.207 479.9999999999999 85.333V682.667Q479.9999999999999 689.792 473.4299999999999 692.523Q466.816 695.2529999999999 461.78 690.219L260.95 489.386Q251.562 480 238.335 480H170.665Q160 480 160 469.333V298.6670000000001Q160 288 170.667 288zM702.72 321.28L765.397 384L702.72 446.7200000000001Q693.3330000000001 456.064 693.3330000000001 469.333Q693.3330000000001 482.603 702.72 491.947Q712.0640000000001 501.333 725.3330000000001 501.333Q738.6030000000001 501.333 747.9470000000001 491.947L810.6670000000001 429.269L873.3870000000002 491.946Q882.7310000000002 501.3320000000001 896.0000000000002 501.3320000000001Q909.2700000000002 501.3320000000001 918.6130000000002 491.946Q928 482.603 928 469.333Q928 456.063 918.613 446.7200000000001L855.936 384L918.613 321.28Q928 311.9360000000001 928 298.6670000000001Q928 285.3970000000001 918.613 276.053Q909.269 266.6670000000001 896 266.6670000000001Q882.73 266.6670000000001 873.387 276.053L810.6669999999999 338.731L747.9469999999999 276.054Q738.6029999999998 266.668 725.3329999999999 266.668Q712.0629999999999 266.668 702.7199999999998 276.054Q693.3329999999999 285.398 693.3329999999999 298.668Q693.3329999999999 311.938 702.7199999999998 321.281z" />
    <glyph glyph-name="view-list"
      unicode="&#xE007;"
      horiz-adv-x="1024" d="M170.667 501.333H853.3330000000001Q866.6030000000001 501.333 875.9470000000001 491.947Q885.3330000000001 482.603 885.3330000000001 469.333Q885.3330000000001 456.063 875.9470000000001 446.7200000000001Q866.6030000000001 437.3330000000001 853.3330000000001 437.3330000000001H170.667Q157.397 437.3330000000001 148.053 446.7200000000001Q138.667 456.064 138.667 469.333Q138.667 482.603 148.053 491.947Q157.397 501.333 170.667 501.333zM170.667 672H853.3330000000001Q866.6030000000001 672 875.9470000000001 662.613Q885.3330000000001 653.269 885.3330000000001 640Q885.3330000000001 626.73 875.9470000000001 617.3870000000001Q866.603 608 853.333 608H170.667Q157.397 608 148.053 617.387Q138.667 626.731 138.667 640Q138.667 653.27 148.053 662.613Q157.397 672 170.667 672zM170.667 330.6670000000001H853.3330000000001Q866.6030000000001 330.6670000000001 875.9470000000001 321.28Q885.3330000000001 311.9359999999999 885.3330000000001 298.6669999999999Q885.3330000000001 285.397 875.9470000000001 276.0529999999999Q866.6030000000001 266.6669999999999 853.3330000000001 266.6669999999999H170.667Q157.397 266.6669999999999 148.053 276.0529999999999Q138.667 285.397 138.667 298.6669999999999Q138.667 311.9369999999999 148.053 321.28Q157.397 330.6669999999999 170.667 330.6669999999999zM170.667 160H853.3330000000001Q866.6030000000001 160 875.9470000000001 150.6130000000001Q885.3330000000001 141.269 885.3330000000001 128Q885.3330000000001 114.73 875.9470000000001 105.3869999999999Q866.603 96 853.333 96H170.667Q157.397 96 148.053 105.3869999999999Q138.667 114.731 138.667 128Q138.667 141.27 148.053 150.6130000000001Q157.397 160 170.667 160z" />
    <glyph glyph-name="view-list-1"
      unicode="&#x76;&#x69;&#x65;&#x77;&#x5F;&#x6C;&#x69;&#x73;&#x74;"
      horiz-adv-x="1024" d="M170.667 501.333H853.3330000000001Q866.6030000000001 501.333 875.9470000000001 491.947Q885.3330000000001 482.603 885.3330000000001 469.333Q885.3330000000001 456.063 875.9470000000001 446.7200000000001Q866.6030000000001 437.3330000000001 853.3330000000001 437.3330000000001H170.667Q157.397 437.3330000000001 148.053 446.7200000000001Q138.667 456.064 138.667 469.333Q138.667 482.603 148.053 491.947Q157.397 501.333 170.667 501.333zM170.667 672H853.3330000000001Q866.6030000000001 672 875.9470000000001 662.613Q885.3330000000001 653.269 885.3330000000001 640Q885.3330000000001 626.73 875.9470000000001 617.3870000000001Q866.603 608 853.333 608H170.667Q157.397 608 148.053 617.387Q138.667 626.731 138.667 640Q138.667 653.27 148.053 662.613Q157.397 672 170.667 672zM170.667 330.6670000000001H853.3330000000001Q866.6030000000001 330.6670000000001 875.9470000000001 321.28Q885.3330000000001 311.9359999999999 885.3330000000001 298.6669999999999Q885.3330000000001 285.397 875.9470000000001 276.0529999999999Q866.6030000000001 266.6669999999999 853.3330000000001 266.6669999999999H170.667Q157.397 266.6669999999999 148.053 276.0529999999999Q138.667 285.397 138.667 298.6669999999999Q138.667 311.9369999999999 148.053 321.28Q157.397 330.6669999999999 170.667 330.6669999999999zM170.667 160H853.3330000000001Q866.6030000000001 160 875.9470000000001 150.6130000000001Q885.3330000000001 141.269 885.3330000000001 128Q885.3330000000001 114.73 875.9470000000001 105.3869999999999Q866.603 96 853.333 96H170.667Q157.397 96 148.053 105.3869999999999Q138.667 114.731 138.667 128Q138.667 141.27 148.053 150.6130000000001Q157.397 160 170.667 160z" />
    <glyph glyph-name="view-grid"
      unicode="&#xE008;"
      horiz-adv-x="1024" d="M138.667 640Q138.667 757.333 256 757.333H341.333Q389.931 757.333 424.32 722.987Q458.6669999999999 688.597 458.6669999999999 640V554.667Q458.6669999999999 506.069 424.32 471.6800000000001Q389.93 437.3330000000001 341.333 437.3330000000001H256Q138.667 437.3330000000001 138.667 554.6670000000001zM202.667 640V554.667Q202.667 501.333 256 501.333H341.333Q394.667 501.333 394.667 554.667V640Q394.667 693.333 341.333 693.333H256Q202.667 693.333 202.667 640zM565.333 640Q565.333 757.333 682.6669999999999 757.333H768Q885.333 757.333 885.333 640V554.667Q885.333 506.069 850.987 471.6800000000001Q816.597 437.3330000000001 768 437.3330000000001H682.667Q565.3330000000001 437.3330000000001 565.3330000000001 554.6670000000001zM629.333 640V554.667Q629.333 501.333 682.6669999999999 501.333H768Q821.333 501.333 821.333 554.667V640Q821.333 693.333 768 693.333H682.667Q660.565 693.333 644.9490000000001 677.717Q629.332 662.1 629.332 640zM138.667 213.333Q138.667 330.6669999999999 256 330.6669999999999H341.333Q389.931 330.6669999999999 424.32 296.32Q458.6669999999999 261.93 458.6669999999999 213.333V128Q458.6669999999999 10.667 341.3329999999999 10.667H256Q138.667 10.667 138.667 128zM202.667 213.333V128Q202.667 74.667 256 74.667H341.333Q394.667 74.667 394.667 128V213.333Q394.667 235.435 379.051 251.051Q363.436 266.6679999999999 341.334 266.6679999999999H256Q202.667 266.6679999999999 202.667 213.3339999999998zM565.333 213.333Q565.333 330.6669999999999 682.6669999999999 330.6669999999999H768Q885.333 330.6669999999999 885.333 213.3329999999999V128Q885.333 10.667 768 10.667H682.667Q565.3330000000001 10.667 565.3330000000001 128zM629.333 213.333V128Q629.333 74.667 682.6669999999999 74.667H768Q821.333 74.667 821.333 128V213.333Q821.333 235.435 805.717 251.051Q790.1 266.668 768 266.668H682.667Q629.3330000000001 266.668 629.3330000000001 213.3340000000001z" />
    <glyph glyph-name="view-grid-1"
      unicode="&#x76;&#x69;&#x65;&#x77;&#x5F;&#x67;&#x72;&#x69;&#x64;"
      horiz-adv-x="1024" d="M138.667 640Q138.667 757.333 256 757.333H341.333Q389.931 757.333 424.32 722.987Q458.6669999999999 688.597 458.6669999999999 640V554.667Q458.6669999999999 506.069 424.32 471.6800000000001Q389.93 437.3330000000001 341.333 437.3330000000001H256Q138.667 437.3330000000001 138.667 554.6670000000001zM202.667 640V554.667Q202.667 501.333 256 501.333H341.333Q394.667 501.333 394.667 554.667V640Q394.667 693.333 341.333 693.333H256Q202.667 693.333 202.667 640zM565.333 640Q565.333 757.333 682.6669999999999 757.333H768Q885.333 757.333 885.333 640V554.667Q885.333 506.069 850.987 471.6800000000001Q816.597 437.3330000000001 768 437.3330000000001H682.667Q565.3330000000001 437.3330000000001 565.3330000000001 554.6670000000001zM629.333 640V554.667Q629.333 501.333 682.6669999999999 501.333H768Q821.333 501.333 821.333 554.667V640Q821.333 693.333 768 693.333H682.667Q660.565 693.333 644.9490000000001 677.717Q629.332 662.1 629.332 640zM138.667 213.333Q138.667 330.6669999999999 256 330.6669999999999H341.333Q389.931 330.6669999999999 424.32 296.32Q458.6669999999999 261.93 458.6669999999999 213.333V128Q458.6669999999999 10.667 341.3329999999999 10.667H256Q138.667 10.667 138.667 128zM202.667 213.333V128Q202.667 74.667 256 74.667H341.333Q394.667 74.667 394.667 128V213.333Q394.667 235.435 379.051 251.051Q363.436 266.6679999999999 341.334 266.6679999999999H256Q202.667 266.6679999999999 202.667 213.3339999999998zM565.333 213.333Q565.333 330.6669999999999 682.6669999999999 330.6669999999999H768Q885.333 330.6669999999999 885.333 213.3329999999999V128Q885.333 10.667 768 10.667H682.667Q565.3330000000001 10.667 565.3330000000001 128zM629.333 213.333V128Q629.333 74.667 682.6669999999999 74.667H768Q821.333 74.667 821.333 128V213.333Q821.333 235.435 805.717 251.051Q790.1 266.668 768 266.668H682.667Q629.3330000000001 266.668 629.3330000000001 213.3340000000001z" />
    <glyph glyph-name="view-boards"
      unicode="&#xE009;"
      horiz-adv-x="1024" d="M384 687.8720000000001Q413.27 714.667 469.333 714.667H554.6669999999999Q610.7309999999999 714.667 639.9999999999999 687.8720000000001Q669.2699999999999 714.667 725.3329999999999 714.667H810.6669999999999Q928 714.667 928 597.3330000000001V170.667Q928 122.0690000000001 893.653 87.6800000000001Q859.263 53.3330000000001 810.667 53.3330000000001H725.3330000000001Q664.277 53.3330000000001 634.9650000000001 85.1200000000001Q601.3870000000002 53.3330000000001 554.6670000000001 53.3330000000001H469.3330000000001Q413.2690000000001 53.3330000000001 384.0000000000001 80.128Q354.7300000000002 53.3330000000001 298.6670000000002 53.3330000000001H213.3330000000002Q164.7360000000001 53.3330000000001 130.3470000000002 87.6800000000001Q96 122.0700000000001 96 170.667V597.3330000000001Q96 714.667 213.333 714.667H298.6670000000001Q354.7310000000001 714.667 384 687.8720000000001zM672 170.6669999999999Q672 117.3329999999999 725.333 117.3329999999999H810.6669999999999Q863.9999999999999 117.3329999999999 863.9999999999999 170.6669999999999V597.3330000000001Q863.9999999999999 619.435 848.3839999999999 635.051Q832.7679999999999 650.668 810.6669999999999 650.668H725.3329999999999Q672.0429999999999 650.668 671.9999999999999 597.4200000000001zM608 170.6669999999999V597.4200000000001Q607.957 650.667 554.667 650.667H469.333Q447.233 650.667 431.6160000000001 635.051Q416 619.4359999999999 416 597.3340000000001V170.668Q416 117.3340000000001 469.333 117.3340000000001H554.6669999999999Q607.9999999999999 117.3340000000001 607.9999999999999 170.6680000000001zM352 170.6669999999999V597.3330000000001Q352 650.667 298.6670000000001 650.667H213.333Q191.233 650.667 175.6160000000001 635.051Q160 619.4359999999999 160 597.3340000000001V170.668Q160 117.3340000000001 213.333 117.3340000000001H298.6670000000001Q352 117.3340000000001 352 170.6680000000001z" />
    <glyph glyph-name="view-boards-1"
      unicode="&#x76;&#x69;&#x65;&#x77;&#x5F;&#x62;&#x6F;&#x61;&#x72;&#x64;&#x73;"
      horiz-adv-x="1024" d="M384 687.8720000000001Q413.27 714.667 469.333 714.667H554.6669999999999Q610.7309999999999 714.667 639.9999999999999 687.8720000000001Q669.2699999999999 714.667 725.3329999999999 714.667H810.6669999999999Q928 714.667 928 597.3330000000001V170.667Q928 122.0690000000001 893.653 87.6800000000001Q859.263 53.3330000000001 810.667 53.3330000000001H725.3330000000001Q664.277 53.3330000000001 634.9650000000001 85.1200000000001Q601.3870000000002 53.3330000000001 554.6670000000001 53.3330000000001H469.3330000000001Q413.2690000000001 53.3330000000001 384.0000000000001 80.128Q354.7300000000002 53.3330000000001 298.6670000000002 53.3330000000001H213.3330000000002Q164.7360000000001 53.3330000000001 130.3470000000002 87.6800000000001Q96 122.0700000000001 96 170.667V597.3330000000001Q96 714.667 213.333 714.667H298.6670000000001Q354.7310000000001 714.667 384 687.8720000000001zM672 170.6669999999999Q672 117.3329999999999 725.333 117.3329999999999H810.6669999999999Q863.9999999999999 117.3329999999999 863.9999999999999 170.6669999999999V597.3330000000001Q863.9999999999999 619.435 848.3839999999999 635.051Q832.7679999999999 650.668 810.6669999999999 650.668H725.3329999999999Q672.0429999999999 650.668 671.9999999999999 597.4200000000001zM608 170.6669999999999V597.4200000000001Q607.957 650.667 554.667 650.667H469.333Q447.233 650.667 431.6160000000001 635.051Q416 619.4359999999999 416 597.3340000000001V170.668Q416 117.3340000000001 469.333 117.3340000000001H554.6669999999999Q607.9999999999999 117.3340000000001 607.9999999999999 170.6680000000001zM352 170.6669999999999V597.3330000000001Q352 650.667 298.6670000000001 650.667H213.333Q191.233 650.667 175.6160000000001 635.051Q160 619.4359999999999 160 597.3340000000001V170.668Q160 117.3340000000001 213.333 117.3340000000001H298.6670000000001Q352 117.3340000000001 352 170.6680000000001z" />
    <glyph glyph-name="video-camera"
      unicode="&#xE00A;"
      horiz-adv-x="1024" d="M213.333 96Q96 96 96 213.333V554.6669999999999Q96 672 213.333 672H554.667Q603.264 672 637.653 637.653Q672 603.2629999999999 672 554.6669999999999V521.131L819.925 595.073Q857.173 613.718 892.587 591.8299999999999Q928 569.94 928 528.3V239.7000000000001Q928 198.0600000000001 892.587 176.1700000000001Q857.173 154.2830000000001 819.925 172.9280000000001L672 246.8680000000001V213.3330000000001Q672 96 554.667 96zM213.333 160H554.667Q608 160 608 213.333V296.448Q607.83 298.838 608 301.184V466.816Q607.83 469.163 608 471.552V554.6669999999999Q608 608 554.667 608H213.333Q160 608 160 554.6669999999999V213.333Q160 160 213.333 160zM672 318.4640000000001L848.5550000000001 230.144Q853.888 227.499 858.9230000000001 230.6140000000001Q864 233.77 864 239.7000000000001V528.3Q864 534.23 858.923 537.387Q853.888 540.501 848.555 537.857L672 449.536V318.463z" />
    <glyph glyph-name="video-camera-1"
      unicode="&#x76;&#x69;&#x64;&#x65;&#x6F;&#x5F;&#x63;&#x61;&#x6D;&#x65;&#x72;&#x61;"
      horiz-adv-x="1024" d="M213.333 96Q96 96 96 213.333V554.6669999999999Q96 672 213.333 672H554.667Q603.264 672 637.653 637.653Q672 603.2629999999999 672 554.6669999999999V521.131L819.925 595.073Q857.173 613.718 892.587 591.8299999999999Q928 569.94 928 528.3V239.7000000000001Q928 198.0600000000001 892.587 176.1700000000001Q857.173 154.2830000000001 819.925 172.9280000000001L672 246.8680000000001V213.3330000000001Q672 96 554.667 96zM213.333 160H554.667Q608 160 608 213.333V296.448Q607.83 298.838 608 301.184V466.816Q607.83 469.163 608 471.552V554.6669999999999Q608 608 554.667 608H213.333Q160 608 160 554.6669999999999V213.333Q160 160 213.333 160zM672 318.4640000000001L848.5550000000001 230.144Q853.888 227.499 858.9230000000001 230.6140000000001Q864 233.77 864 239.7000000000001V528.3Q864 534.23 858.923 537.387Q853.888 540.501 848.555 537.857L672 449.536V318.463z" />
    <glyph glyph-name="variable"
      unicode="&#xE00B;"
      horiz-adv-x="1024" d="M384 544H437.163Q493.483 544 508.928 489.856L526.421 428.6720000000001L590.166 503.04Q625.28 544 679.253 544H682.667Q695.937 544 705.28 534.613Q714.6669999999999 525.269 714.6669999999999 512Q714.6669999999999 498.73 705.28 489.387Q695.936 480 682.667 480H679.253Q654.72 480 638.763 461.397L547.5 354.9L576.597 253.0560000000001Q578.817 245.3330000000001 586.837 245.3330000000001H640Q653.27 245.3330000000001 662.613 235.9470000000001Q672 226.603 672 213.333Q672 200.063 662.613 190.72Q653.269 181.3330000000001 640 181.3330000000001H586.837Q530.5169999999999 181.3330000000001 515.072 235.4770000000001L497.58 296.66L433.835 222.293Q398.72 181.333 344.747 181.333H341.333Q328.063 181.333 318.72 190.72Q309.333 200.0640000000001 309.333 213.3330000000001Q309.333 226.6030000000001 318.72 235.9470000000001Q328.064 245.3330000000001 341.333 245.3330000000001H344.747Q369.28 245.3330000000001 385.237 263.9360000000001L476.5 370.432L447.403 472.277Q445.183 480.0000000000001 437.163 480.0000000000001H384Q370.73 480.0000000000001 361.387 489.3870000000001Q352 498.73 352 512Q352 525.27 361.387 534.613Q370.73 544 384 544zM236.5 711.083Q160 557.183 160 384Q160 210.816 236.5 56.9169999999999Q242.39 45.0569999999999 238.165 32.4689999999999Q233.941 19.924 222.08 13.9939999999999Q210.22 8.1059999999999 197.632 12.3299999999999Q185.088 16.555 179.157 28.4159999999999Q96 195.7960000000001 96 384Q96 572.203 179.157 739.5840000000001Q185.087 751.444 197.632 755.669Q210.219 759.892 222.08 754.004Q233.94 748.0740000000001 238.165 735.53Q242.389 722.944 236.501 711.0830000000001zM781.995 56.9169999999999Q858.495 210.8169999999999 858.495 384Q858.495 557.184 781.995 711.0830000000001Q776.107 722.943 780.331 735.5310000000001Q784.556 748.076 796.417 754.0060000000001Q808.321 759.894 820.865 755.6700000000001Q833.409 751.445 839.34 739.5840000000001Q922.495 572.204 922.495 384Q922.495 195.797 839.338 28.4159999999999Q833.406 16.5559999999999 820.862 12.3309999999999Q808.318 8.1079999999999 796.414 13.9959999999999Q784.554 19.9259999999998 780.329 32.4699999999999Q776.106 45.0559999999999 781.9939999999999 56.9169999999999z" />
    <glyph glyph-name="variable-1"
      unicode="&#x76;&#x61;&#x72;&#x69;&#x61;&#x62;&#x6C;&#x65;"
      horiz-adv-x="1024" d="M384 544H437.163Q493.483 544 508.928 489.856L526.421 428.6720000000001L590.166 503.04Q625.28 544 679.253 544H682.667Q695.937 544 705.28 534.613Q714.6669999999999 525.269 714.6669999999999 512Q714.6669999999999 498.73 705.28 489.387Q695.936 480 682.667 480H679.253Q654.72 480 638.763 461.397L547.5 354.9L576.597 253.0560000000001Q578.817 245.3330000000001 586.837 245.3330000000001H640Q653.27 245.3330000000001 662.613 235.9470000000001Q672 226.603 672 213.333Q672 200.063 662.613 190.72Q653.269 181.3330000000001 640 181.3330000000001H586.837Q530.5169999999999 181.3330000000001 515.072 235.4770000000001L497.58 296.66L433.835 222.293Q398.72 181.333 344.747 181.333H341.333Q328.063 181.333 318.72 190.72Q309.333 200.0640000000001 309.333 213.3330000000001Q309.333 226.6030000000001 318.72 235.9470000000001Q328.064 245.3330000000001 341.333 245.3330000000001H344.747Q369.28 245.3330000000001 385.237 263.9360000000001L476.5 370.432L447.403 472.277Q445.183 480.0000000000001 437.163 480.0000000000001H384Q370.73 480.0000000000001 361.387 489.3870000000001Q352 498.73 352 512Q352 525.27 361.387 534.613Q370.73 544 384 544zM236.5 711.083Q160 557.183 160 384Q160 210.816 236.5 56.9169999999999Q242.39 45.0569999999999 238.165 32.4689999999999Q233.941 19.924 222.08 13.9939999999999Q210.22 8.1059999999999 197.632 12.3299999999999Q185.088 16.555 179.157 28.4159999999999Q96 195.7960000000001 96 384Q96 572.203 179.157 739.5840000000001Q185.087 751.444 197.632 755.669Q210.219 759.892 222.08 754.004Q233.94 748.0740000000001 238.165 735.53Q242.389 722.944 236.501 711.0830000000001zM781.995 56.9169999999999Q858.495 210.8169999999999 858.495 384Q858.495 557.184 781.995 711.0830000000001Q776.107 722.943 780.331 735.5310000000001Q784.556 748.076 796.417 754.0060000000001Q808.321 759.894 820.865 755.6700000000001Q833.409 751.445 839.34 739.5840000000001Q922.495 572.204 922.495 384Q922.495 195.797 839.338 28.4159999999999Q833.406 16.5559999999999 820.862 12.3309999999999Q808.318 8.1079999999999 796.414 13.9959999999999Q784.554 19.9259999999998 780.329 32.4699999999999Q776.106 45.0559999999999 781.9939999999999 56.9169999999999z" />
    <glyph glyph-name="users"
      unicode="&#xE00C;"
      horiz-adv-x="1024" d="M105.387 -22.6130000000001Q96 -13.27 96 0V42.667Q96 161.9630000000001 180.352 246.3150000000001Q264.704 330.6670000000001 384 330.6670000000001Q454.528 330.6670000000001 512.8530000000001 301.1840000000001Q572.33 330.6670000000001 640 330.6670000000001Q759.296 330.6670000000001 843.648 246.3150000000001Q928 161.963 928 42.667V0Q928 -13.27 918.613 -22.6130000000001Q909.27 -32 896 -32H128Q114.73 -32 105.387 -22.6130000000001zM511.829 439.937Q457.299 394.667 383.999 394.667Q300.031 394.667 240.682 454.017Q181.332 513.365 181.332 597.333T240.682 740.651Q300.033 800 384 800Q457.3 800 511.83 754.73Q565.716 800 640 800Q723.925 800 783.317 740.65Q842.667 681.3 842.667 597.333Q842.667 513.365 783.317 454.016Q723.925 394.666 640 394.666Q565.717 394.666 511.83 439.9359999999999zM491.007 240.127Q443.007 266.6669999999999 383.999 266.6669999999999Q291.199 266.6669999999999 225.6190000000001 201.045Q160 135.467 160 42.667V32H608V42.667Q608 135.467 542.38 201.0450000000001Q522.752 220.715 500.65 234.4950000000001Q495.19 236.5010000000001 491.008 240.1280000000002zM522.667 597.333Q522.667 647.04 504.831 678.9549999999999Q497.151 680.6189999999999 490.836 686.208Q480.896 694.9979999999999 480.042 708.2239999999999V708.48Q445.78 736 384 736Q245.333 736 245.333 597.333Q245.333 539.903 285.953 499.285Q326.57 458.667 384 458.667Q441.43 458.667 482.048 499.285Q484.48 501.717 486.741 504.192Q487.851 505.557 489.174 506.8799999999999Q522.668 545.1519999999999 522.668 597.333zM586.667 597.333Q586.667 535.851 554.837 487.553Q590.932 458.667 639.999 458.667Q697.429 458.667 738.047 499.285Q778.667 539.905 778.667 597.333Q778.667 736 640 736Q590.933 736 554.837 707.115Q586.667 658.815 586.667 597.3330000000001zM575.914 257.493Q581.8439999999999 252.117 587.6469999999999 246.315Q672 161.963 672 42.667V32H864V42.667Q864 135.467 798.38 201.0450000000001Q732.8 266.6670000000001 640 266.6670000000001Q606.677 266.6670000000001 575.915 257.4930000000001z" />
    <glyph glyph-name="users-1"
      unicode="&#x75;&#x73;&#x65;&#x72;&#x73;"
      horiz-adv-x="1024" d="M105.387 -22.6130000000001Q96 -13.27 96 0V42.667Q96 161.9630000000001 180.352 246.3150000000001Q264.704 330.6670000000001 384 330.6670000000001Q454.528 330.6670000000001 512.8530000000001 301.1840000000001Q572.33 330.6670000000001 640 330.6670000000001Q759.296 330.6670000000001 843.648 246.3150000000001Q928 161.963 928 42.667V0Q928 -13.27 918.613 -22.6130000000001Q909.27 -32 896 -32H128Q114.73 -32 105.387 -22.6130000000001zM511.829 439.937Q457.299 394.667 383.999 394.667Q300.031 394.667 240.682 454.017Q181.332 513.365 181.332 597.333T240.682 740.651Q300.033 800 384 800Q457.3 800 511.83 754.73Q565.716 800 640 800Q723.925 800 783.317 740.65Q842.667 681.3 842.667 597.333Q842.667 513.365 783.317 454.016Q723.925 394.666 640 394.666Q565.717 394.666 511.83 439.9359999999999zM491.007 240.127Q443.007 266.6669999999999 383.999 266.6669999999999Q291.199 266.6669999999999 225.6190000000001 201.045Q160 135.467 160 42.667V32H608V42.667Q608 135.467 542.38 201.0450000000001Q522.752 220.715 500.65 234.4950000000001Q495.19 236.5010000000001 491.008 240.1280000000002zM522.667 597.333Q522.667 647.04 504.831 678.9549999999999Q497.151 680.6189999999999 490.836 686.208Q480.896 694.9979999999999 480.042 708.2239999999999V708.48Q445.78 736 384 736Q245.333 736 245.333 597.333Q245.333 539.903 285.953 499.285Q326.57 458.667 384 458.667Q441.43 458.667 482.048 499.285Q484.48 501.717 486.741 504.192Q487.851 505.557 489.174 506.8799999999999Q522.668 545.1519999999999 522.668 597.333zM586.667 597.333Q586.667 535.851 554.837 487.553Q590.932 458.667 639.999 458.667Q697.429 458.667 738.047 499.285Q778.667 539.905 778.667 597.333Q778.667 736 640 736Q590.933 736 554.837 707.115Q586.667 658.815 586.667 597.3330000000001zM575.914 257.493Q581.8439999999999 252.117 587.6469999999999 246.315Q672 161.963 672 42.667V32H864V42.667Q864 135.467 798.38 201.0450000000001Q732.8 266.6670000000001 640 266.6670000000001Q606.677 266.6670000000001 575.915 257.4930000000001z" />
    <glyph glyph-name="user"
      unicode="&#xE00D;"
      horiz-adv-x="1024" d="M714.667 597.3330000000001Q714.667 513.365 655.317 454.016Q595.925 394.666 512 394.666Q428.032 394.666 368.683 454.016Q309.333 513.366 309.333 597.3330000000001Q309.333 681.301 368.683 740.6510000000001Q428.033 800 512 800Q595.925 800 655.317 740.65Q714.667 681.3 714.667 597.333zM650.667 597.3330000000001Q650.667 654.763 610.047 695.3810000000001Q569.43 736 512 736Q373.333 736 373.333 597.333Q373.333 458.667 512 458.667Q569.43 458.667 610.048 499.285Q650.668 539.905 650.668 597.333zM512 330.6670000000001Q648.96 330.6670000000001 745.813 233.813Q842.667 136.96 842.667 0Q842.667 -13.27 833.28 -22.6130000000001Q823.936 -32 810.667 -32H213.333Q200.063 -32 190.72 -22.6130000000001Q181.333 -13.269 181.333 0Q181.333 136.96 278.187 233.813Q375.04 330.6670000000001 512 330.6670000000001zM512 266.6670000000001Q401.536 266.6670000000001 323.456 188.544Q256.896 122.0270000000001 247.04 32H776.9599999999999Q767.1039999999999 122.0270000000001 700.5439999999999 188.544Q622.4639999999998 266.6670000000001 511.9999999999999 266.6670000000001z" />
    <glyph glyph-name="user-1"
      unicode="&#x75;&#x73;&#x65;&#x72;"
      horiz-adv-x="1024" d="M714.667 597.3330000000001Q714.667 513.365 655.317 454.016Q595.925 394.666 512 394.666Q428.032 394.666 368.683 454.016Q309.333 513.366 309.333 597.3330000000001Q309.333 681.301 368.683 740.6510000000001Q428.033 800 512 800Q595.925 800 655.317 740.65Q714.667 681.3 714.667 597.333zM650.667 597.3330000000001Q650.667 654.763 610.047 695.3810000000001Q569.43 736 512 736Q373.333 736 373.333 597.333Q373.333 458.667 512 458.667Q569.43 458.667 610.048 499.285Q650.668 539.905 650.668 597.333zM512 330.6670000000001Q648.96 330.6670000000001 745.813 233.813Q842.667 136.96 842.667 0Q842.667 -13.27 833.28 -22.6130000000001Q823.936 -32 810.667 -32H213.333Q200.063 -32 190.72 -22.6130000000001Q181.333 -13.269 181.333 0Q181.333 136.96 278.187 233.813Q375.04 330.6670000000001 512 330.6670000000001zM512 266.6670000000001Q401.536 266.6670000000001 323.456 188.544Q256.896 122.0270000000001 247.04 32H776.9599999999999Q767.1039999999999 122.0270000000001 700.5439999999999 188.544Q622.4639999999998 266.6670000000001 511.9999999999999 266.6670000000001z" />
    <glyph glyph-name="user-group"
      unicode="&#xE00E;"
      horiz-adv-x="1024" d="M298.667 10.667H85.333Q72.063 10.667 62.72 20.053Q53.333 29.3970000000001 53.333 42.667V128Q53.333 288 213.333 288Q265.429 288 304.213 260.523Q369.92 373.333 512 373.333T719.787 260.5229999999999Q758.57 288 810.667 288Q970.667 288 970.667 128V42.667Q970.667 29.3970000000001 961.28 20.053Q951.936 10.667 938.667 10.667H298.6669999999999zM672 597.3330000000001Q672 437.3330000000001 512 437.3330000000001T352 597.3330000000001Q352 757.3330000000001 512 757.3330000000001T672 597.3330000000001zM693.333 74.6669999999999V128Q693.333 161.963 681.259 193.1949999999999Q680.362 195.0719999999999 679.722 197.035Q633.9 309.333 512 309.333Q390.1 309.333 344.277 197.035Q343.637 195.072 342.741 193.1949999999999Q330.668 161.963 330.668 128V74.667H693.3340000000001zM330.667 469.333Q330.667 352 213.333 352Q96 352 96 469.333Q96 586.667 213.333 586.667Q330.6670000000001 586.667 330.6670000000001 469.333zM928 469.333Q928 352 810.667 352Q693.3330000000001 352 693.3330000000001 469.333Q693.3330000000001 586.6669999999999 810.6670000000001 586.6669999999999Q859.2640000000001 586.6669999999999 893.6530000000001 552.3199999999999Q928 517.9300000000001 928 469.333zM608 597.3330000000001Q608 693.3330000000001 512 693.3330000000001T416 597.3330000000001Q416 501.333 512 501.333T608 597.3330000000001zM277.3330000000001 199.808Q251.18 224 213.333 224Q117.333 224 117.333 128V74.667H266.6670000000001V128Q266.6670000000001 165.035 277.3330000000001 199.808zM746.667 199.808Q757.3330000000001 165.035 757.3330000000001 128V74.667H906.6670000000001V128Q906.6670000000001 224 810.6670000000001 224Q772.8210000000001 224 746.6670000000001 199.808zM266.6670000000001 469.333Q266.6670000000001 522.6669999999999 213.333 522.6669999999999Q160 522.6669999999999 160 469.333Q160 416 213.333 416Q266.6670000000001 416 266.6670000000001 469.333zM864 469.333Q864 522.6669999999999 810.667 522.6669999999999Q757.3330000000001 522.6669999999999 757.3330000000001 469.333Q757.3330000000001 416 810.6670000000001 416Q864 416 864 469.333z" />
    <glyph glyph-name="user-group-1"
      unicode="&#x75;&#x73;&#x65;&#x72;&#x5F;&#x67;&#x72;&#x6F;&#x75;&#x70;"
      horiz-adv-x="1024" d="M298.667 10.667H85.333Q72.063 10.667 62.72 20.053Q53.333 29.3970000000001 53.333 42.667V128Q53.333 288 213.333 288Q265.429 288 304.213 260.523Q369.92 373.333 512 373.333T719.787 260.5229999999999Q758.57 288 810.667 288Q970.667 288 970.667 128V42.667Q970.667 29.3970000000001 961.28 20.053Q951.936 10.667 938.667 10.667H298.6669999999999zM672 597.3330000000001Q672 437.3330000000001 512 437.3330000000001T352 597.3330000000001Q352 757.3330000000001 512 757.3330000000001T672 597.3330000000001zM693.333 74.6669999999999V128Q693.333 161.963 681.259 193.1949999999999Q680.362 195.0719999999999 679.722 197.035Q633.9 309.333 512 309.333Q390.1 309.333 344.277 197.035Q343.637 195.072 342.741 193.1949999999999Q330.668 161.963 330.668 128V74.667H693.3340000000001zM330.667 469.333Q330.667 352 213.333 352Q96 352 96 469.333Q96 586.667 213.333 586.667Q330.6670000000001 586.667 330.6670000000001 469.333zM928 469.333Q928 352 810.667 352Q693.3330000000001 352 693.3330000000001 469.333Q693.3330000000001 586.6669999999999 810.6670000000001 586.6669999999999Q859.2640000000001 586.6669999999999 893.6530000000001 552.3199999999999Q928 517.9300000000001 928 469.333zM608 597.3330000000001Q608 693.3330000000001 512 693.3330000000001T416 597.3330000000001Q416 501.333 512 501.333T608 597.3330000000001zM277.3330000000001 199.808Q251.18 224 213.333 224Q117.333 224 117.333 128V74.667H266.6670000000001V128Q266.6670000000001 165.035 277.3330000000001 199.808zM746.667 199.808Q757.3330000000001 165.035 757.3330000000001 128V74.667H906.6670000000001V128Q906.6670000000001 224 810.6670000000001 224Q772.8210000000001 224 746.6670000000001 199.808zM266.6670000000001 469.333Q266.6670000000001 522.6669999999999 213.333 522.6669999999999Q160 522.6669999999999 160 469.333Q160 416 213.333 416Q266.6670000000001 416 266.6670000000001 469.333zM864 469.333Q864 522.6669999999999 810.667 522.6669999999999Q757.3330000000001 522.6669999999999 757.3330000000001 469.333Q757.3330000000001 416 810.6670000000001 416Q864 416 864 469.333z" />
    <glyph glyph-name="user-circle"
      unicode="&#xE00F;"
      horiz-adv-x="1024" d="M928 384Q928 211.67 806.144 89.856Q684.33 -32 512 -32Q339.67 -32 217.856 89.856Q96 211.67 96 384Q96 556.33 217.856 678.144Q339.67 800 512 800Q684.33 800 806.144 678.144Q928 556.3299999999999 928 384zM864 384Q864 529.792 760.917 632.917Q657.792 736 512 736T263.0830000000001 632.9169999999999Q160 529.7919999999999 160 384Q160 266.752 226.688 177.11Q359.978 245.332 512 245.332Q664.02 245.332 797.312 177.108Q864 266.75 864 384zM672 469.333Q672 309.333 512 309.333T352 469.333Q352 629.333 512 629.333T672 469.333zM270.848 127.53Q371.628 32 512 32Q652.373 32 753.152 127.53Q640 181.334 512 181.334Q384 181.334 270.848 127.5319999999999zM608 469.334Q608 565.3340000000001 512 565.3340000000001T416 469.334Q416 373.3340000000001 512 373.3340000000001T608 469.3340000000001z" />
    <glyph glyph-name="user-circle-1"
      unicode="&#x75;&#x73;&#x65;&#x72;&#x5F;&#x63;&#x69;&#x72;&#x63;&#x6C;&#x65;"
      horiz-adv-x="1024" d="M928 384Q928 211.67 806.144 89.856Q684.33 -32 512 -32Q339.67 -32 217.856 89.856Q96 211.67 96 384Q96 556.33 217.856 678.144Q339.67 800 512 800Q684.33 800 806.144 678.144Q928 556.3299999999999 928 384zM864 384Q864 529.792 760.917 632.917Q657.792 736 512 736T263.0830000000001 632.9169999999999Q160 529.7919999999999 160 384Q160 266.752 226.688 177.11Q359.978 245.332 512 245.332Q664.02 245.332 797.312 177.108Q864 266.75 864 384zM672 469.333Q672 309.333 512 309.333T352 469.333Q352 629.333 512 629.333T672 469.333zM270.848 127.53Q371.628 32 512 32Q652.373 32 753.152 127.53Q640 181.334 512 181.334Q384 181.334 270.848 127.5319999999999zM608 469.334Q608 565.3340000000001 512 565.3340000000001T416 469.334Q416 373.3340000000001 512 373.3340000000001T608 469.3340000000001z" />
    <glyph glyph-name="user-add"
      unicode="&#xE010;"
      horiz-adv-x="1024" d="M96 42.667Q96 161.9630000000001 180.352 246.3150000000001Q264.704 330.6670000000001 384 330.6670000000001Q503.296 330.6670000000001 587.648 246.3150000000001Q672 161.963 672 42.667V0Q672 -13.27 662.613 -22.6130000000001Q653.27 -32 640 -32H128Q114.73 -32 105.387 -22.6130000000001Q96 -13.27 96 0zM586.6669999999999 597.3330000000001Q586.6669999999999 513.365 527.3169999999999 454.0160000000001Q467.9249999999999 394.6660000000001 383.9999999999999 394.6660000000001Q300.0319999999999 394.6660000000001 240.6829999999999 454.0160000000001Q181.3329999999999 513.3660000000001 181.3329999999999 597.3330000000001Q181.3329999999999 681.3010000000002 240.6829999999999 740.6510000000001Q300.033 800 384 800Q467.925 800 527.317 740.65Q586.667 681.3 586.667 597.333zM160 42.667V32H608V42.667Q608 135.467 542.38 201.0450000000001Q476.8 266.6670000000001 384 266.6670000000001T225.62 201.0450000000001Q160 135.467 160 42.667zM522.6669999999999 597.3330000000001Q522.667 736 384 736T245.333 597.3330000000001Q245.333 539.903 285.953 499.285Q326.57 458.667 384 458.667Q441.43 458.667 482.048 499.285Q522.668 539.905 522.668 597.333zM800 512V416H896Q909.27 416 918.613 406.613Q928 397.27 928 384Q928 370.73 918.613 361.387Q909.27 352 896 352H800V256Q800 242.73 790.613 233.387Q781.27 224 768 224Q754.73 224 745.387 233.387Q736 242.73 736 256V352H640Q626.73 352 617.387 361.387Q608 370.73 608 384Q608 397.27 617.387 406.613Q626.73 416 640 416H736V512Q736 525.27 745.387 534.613Q754.73 544 768 544Q781.27 544 790.613 534.613Q800 525.27 800 512z" />
    <glyph glyph-name="user-add-1"
      unicode="&#x75;&#x73;&#x65;&#x72;&#x5F;&#x61;&#x64;&#x64;"
      horiz-adv-x="1024" d="M96 42.667Q96 161.9630000000001 180.352 246.3150000000001Q264.704 330.6670000000001 384 330.6670000000001Q503.296 330.6670000000001 587.648 246.3150000000001Q672 161.963 672 42.667V0Q672 -13.27 662.613 -22.6130000000001Q653.27 -32 640 -32H128Q114.73 -32 105.387 -22.6130000000001Q96 -13.27 96 0zM586.6669999999999 597.3330000000001Q586.6669999999999 513.365 527.3169999999999 454.0160000000001Q467.9249999999999 394.6660000000001 383.9999999999999 394.6660000000001Q300.0319999999999 394.6660000000001 240.6829999999999 454.0160000000001Q181.3329999999999 513.3660000000001 181.3329999999999 597.3330000000001Q181.3329999999999 681.3010000000002 240.6829999999999 740.6510000000001Q300.033 800 384 800Q467.925 800 527.317 740.65Q586.667 681.3 586.667 597.333zM160 42.667V32H608V42.667Q608 135.467 542.38 201.0450000000001Q476.8 266.6670000000001 384 266.6670000000001T225.62 201.0450000000001Q160 135.467 160 42.667zM522.6669999999999 597.3330000000001Q522.667 736 384 736T245.333 597.3330000000001Q245.333 539.903 285.953 499.285Q326.57 458.667 384 458.667Q441.43 458.667 482.048 499.285Q522.668 539.905 522.668 597.333zM800 512V416H896Q909.27 416 918.613 406.613Q928 397.27 928 384Q928 370.73 918.613 361.387Q909.27 352 896 352H800V256Q800 242.73 790.613 233.387Q781.27 224 768 224Q754.73 224 745.387 233.387Q736 242.73 736 256V352H640Q626.73 352 617.387 361.387Q608 370.73 608 384Q608 397.27 617.387 406.613Q626.73 416 640 416H736V512Q736 525.27 745.387 534.613Q754.73 544 768 544Q781.27 544 790.613 534.613Q800 525.27 800 512z" />
    <glyph glyph-name="upload"
      unicode="&#xE011;"
      horiz-adv-x="1024" d="M660.053 532.053L544 648.063V213.333Q544 200.063 534.613 190.72Q525.269 181.3330000000001 512 181.3330000000001Q498.73 181.3330000000001 489.387 190.72Q480 200.064 480 213.333V648.063L363.947 532.053Q354.603 522.6669999999999 341.3330000000001 522.6669999999999Q328.0630000000001 522.6669999999999 318.7200000000001 532.053Q309.3330000000001 541.3969999999999 309.3330000000001 554.6669999999999Q309.3330000000001 567.9369999999999 318.7200000000001 577.28L489.3870000000001 747.947Q498.7310000000001 757.333 512 757.333Q523.605 757.333 532.224 750.165Q533.461 749.141 534.614 747.947H534.6560000000001L705.28 577.28Q714.6669999999999 567.9359999999999 714.6669999999999 554.6669999999999Q714.6669999999999 541.3969999999999 705.28 532.053Q695.9359999999999 522.6669999999999 682.6669999999999 522.6669999999999Q669.3969999999999 522.6669999999999 660.0529999999999 532.053zM202.667 213.333V170.6669999999999Q202.667 74.6669999999999 298.667 74.6669999999999H725.333Q821.333 74.6669999999999 821.333 170.6669999999999V213.3329999999999Q821.333 226.6029999999999 830.72 235.9469999999999Q840.0640000000001 245.3329999999999 853.3330000000001 245.3329999999999Q866.6030000000001 245.3329999999999 875.9470000000001 235.9469999999999Q885.3330000000001 226.6029999999999 885.3330000000001 213.3329999999999V170.6669999999999Q885.3330000000001 10.6669999999999 725.3330000000001 10.6669999999999H298.667Q138.667 10.6669999999999 138.667 170.6669999999999V213.3329999999999Q138.667 226.6029999999999 148.053 235.9469999999999Q157.397 245.3329999999999 170.667 245.3329999999999Q183.937 245.3329999999999 193.28 235.9469999999999Q202.667 226.6029999999999 202.667 213.3329999999999z" />
    <glyph glyph-name="upload-1"
      unicode="&#x75;&#x70;&#x6C;&#x6F;&#x61;&#x64;"
      horiz-adv-x="1024" d="M660.053 532.053L544 648.063V213.333Q544 200.063 534.613 190.72Q525.269 181.3330000000001 512 181.3330000000001Q498.73 181.3330000000001 489.387 190.72Q480 200.064 480 213.333V648.063L363.947 532.053Q354.603 522.6669999999999 341.3330000000001 522.6669999999999Q328.0630000000001 522.6669999999999 318.7200000000001 532.053Q309.3330000000001 541.3969999999999 309.3330000000001 554.6669999999999Q309.3330000000001 567.9369999999999 318.7200000000001 577.28L489.3870000000001 747.947Q498.7310000000001 757.333 512 757.333Q523.605 757.333 532.224 750.165Q533.461 749.141 534.614 747.947H534.6560000000001L705.28 577.28Q714.6669999999999 567.9359999999999 714.6669999999999 554.6669999999999Q714.6669999999999 541.3969999999999 705.28 532.053Q695.9359999999999 522.6669999999999 682.6669999999999 522.6669999999999Q669.3969999999999 522.6669999999999 660.0529999999999 532.053zM202.667 213.333V170.6669999999999Q202.667 74.6669999999999 298.667 74.6669999999999H725.333Q821.333 74.6669999999999 821.333 170.6669999999999V213.3329999999999Q821.333 226.6029999999999 830.72 235.9469999999999Q840.0640000000001 245.3329999999999 853.3330000000001 245.3329999999999Q866.6030000000001 245.3329999999999 875.9470000000001 235.9469999999999Q885.3330000000001 226.6029999999999 885.3330000000001 213.3329999999999V170.6669999999999Q885.3330000000001 10.6669999999999 725.3330000000001 10.6669999999999H298.667Q138.667 10.6669999999999 138.667 170.6669999999999V213.3329999999999Q138.667 226.6029999999999 148.053 235.9469999999999Q157.397 245.3329999999999 170.667 245.3329999999999Q183.937 245.3329999999999 193.28 235.9469999999999Q202.667 226.6029999999999 202.667 213.3329999999999z" />
    <glyph glyph-name="truck"
      unicode="&#xE012;"
      horiz-adv-x="1024" d="M586.667 628.65Q591.8720000000001 629.333 597.3330000000001 629.333H707.67Q738.603 629.333 760.448 607.4449999999999L906.112 461.78Q928 439.937 928 409.004V213.3340000000001Q928 182.4010000000001 906.112 160.5560000000001Q884.2669999999999 138.668 853.332 138.668H838.53Q830.765 110.1660000000001 808.322 87.681Q773.932 53.3340000000001 725.335 53.3340000000001Q625.282 53.3340000000001 610.562 138.6680000000001H597.335Q571.565 138.6680000000001 554.6690000000001 147.5850000000002Q537.7730000000001 138.6680000000001 512.0020000000001 138.6680000000001H411.86Q404.096 110.1660000000002 381.653 87.6810000000002Q347.2630000000001 53.3340000000002 298.6670000000001 53.3340000000002Q198.613 53.3340000000002 183.893 138.6680000000001H170.667Q96 138.667 96 213.333V640Q96 670.933 117.888 692.78Q139.733 714.667 170.668 714.667H512Q586.667 714.667 586.667 640V628.65zM522.667 213.333V640Q522.667 650.667 512 650.667H170.667Q160 650.667 160 640V213.3330000000001Q160 208.8960000000001 163.115 205.7810000000001Q166.229 202.668 170.667 202.668H183.893Q198.613 288 298.667 288Q398.72 288 413.44 202.667H512Q522.667 202.667 522.667 213.3330000000001zM586.667 213.333Q586.667 202.6669999999999 597.3330000000001 202.6669999999999H610.5600000000001Q625.28 288 725.333 288Q825.387 288 840.107 202.667H853.333Q864 202.667 864 213.3330000000001V409.0030000000001Q864 413.3970000000001 860.885 416.5550000000001L715.22 562.22Q712.0640000000001 565.3330000000001 707.6700000000001 565.3330000000001H597.332Q592.895 565.3330000000001 589.78 562.219Q586.6669999999999 559.1030000000001 586.6669999999999 554.666zM245.3330000000001 170.6669999999999Q245.3330000000001 117.3329999999999 298.6670000000001 117.3329999999999Q352 117.3329999999999 352 170.6669999999999Q352 224 298.667 224Q245.333 224 245.333 170.667zM672 170.6669999999999Q672 117.3329999999999 725.333 117.3329999999999Q778.6669999999999 117.3329999999999 778.6669999999999 170.6669999999999Q778.6669999999999 223.9999999999999 725.3329999999999 223.9999999999999Q672 224 672 170.667z" />
    <glyph glyph-name="truck-1"
      unicode="&#x74;&#x72;&#x75;&#x63;&#x6B;"
      horiz-adv-x="1024" d="M586.667 628.65Q591.8720000000001 629.333 597.3330000000001 629.333H707.67Q738.603 629.333 760.448 607.4449999999999L906.112 461.78Q928 439.937 928 409.004V213.3340000000001Q928 182.4010000000001 906.112 160.5560000000001Q884.2669999999999 138.668 853.332 138.668H838.53Q830.765 110.1660000000001 808.322 87.681Q773.932 53.3340000000001 725.335 53.3340000000001Q625.282 53.3340000000001 610.562 138.6680000000001H597.335Q571.565 138.6680000000001 554.6690000000001 147.5850000000002Q537.7730000000001 138.6680000000001 512.0020000000001 138.6680000000001H411.86Q404.096 110.1660000000002 381.653 87.6810000000002Q347.2630000000001 53.3340000000002 298.6670000000001 53.3340000000002Q198.613 53.3340000000002 183.893 138.6680000000001H170.667Q96 138.667 96 213.333V640Q96 670.933 117.888 692.78Q139.733 714.667 170.668 714.667H512Q586.667 714.667 586.667 640V628.65zM522.667 213.333V640Q522.667 650.667 512 650.667H170.667Q160 650.667 160 640V213.3330000000001Q160 208.8960000000001 163.115 205.7810000000001Q166.229 202.668 170.667 202.668H183.893Q198.613 288 298.667 288Q398.72 288 413.44 202.667H512Q522.667 202.667 522.667 213.3330000000001zM586.667 213.333Q586.667 202.6669999999999 597.3330000000001 202.6669999999999H610.5600000000001Q625.28 288 725.333 288Q825.387 288 840.107 202.667H853.333Q864 202.667 864 213.3330000000001V409.0030000000001Q864 413.3970000000001 860.885 416.5550000000001L715.22 562.22Q712.0640000000001 565.3330000000001 707.6700000000001 565.3330000000001H597.332Q592.895 565.3330000000001 589.78 562.219Q586.6669999999999 559.1030000000001 586.6669999999999 554.666zM245.3330000000001 170.6669999999999Q245.3330000000001 117.3329999999999 298.6670000000001 117.3329999999999Q352 117.3329999999999 352 170.6669999999999Q352 224 298.667 224Q245.333 224 245.333 170.667zM672 170.6669999999999Q672 117.3329999999999 725.333 117.3329999999999Q778.6669999999999 117.3329999999999 778.6669999999999 170.6669999999999Q778.6669999999999 223.9999999999999 725.3329999999999 223.9999999999999Q672 224 672 170.667z" />
    <glyph glyph-name="trending-up"
      unicode="&#xE013;"
      horiz-adv-x="1024" d="M554.667 629.3330000000001H896Q907.605 629.3330000000001 916.224 622.165Q917.461 621.1410000000001 918.614 619.947Q928 610.6030000000001 928 597.3330000000001V256Q928 242.73 918.613 233.387Q909.27 224 896 224Q882.73 224 873.387 233.387Q864 242.73 864 256V520.0640000000001L577.28 233.387Q567.936 224 554.667 224Q541.397 224 532.053 233.387L384 381.3970000000001L150.613 148.053Q141.269 138.667 128 138.667Q114.73 138.667 105.387 148.053Q96 157.3970000000001 96 170.667Q96 183.937 105.387 193.28L361.387 449.28Q370.731 458.667 384 458.667Q397.27 458.667 406.613 449.28L554.667 301.27L818.73 565.332H554.668Q541.398 565.332 532.054 574.719Q522.668 584.063 522.668 597.332Q522.668 610.602 532.054 619.9459999999999Q541.398 629.332 554.668 629.332z" />
    <glyph glyph-name="trending-up-1"
      unicode="&#x74;&#x72;&#x65;&#x6E;&#x64;&#x69;&#x6E;&#x67;&#x5F;&#x75;&#x70;"
      horiz-adv-x="1024" d="M554.667 629.3330000000001H896Q907.605 629.3330000000001 916.224 622.165Q917.461 621.1410000000001 918.614 619.947Q928 610.6030000000001 928 597.3330000000001V256Q928 242.73 918.613 233.387Q909.27 224 896 224Q882.73 224 873.387 233.387Q864 242.73 864 256V520.0640000000001L577.28 233.387Q567.936 224 554.667 224Q541.397 224 532.053 233.387L384 381.3970000000001L150.613 148.053Q141.269 138.667 128 138.667Q114.73 138.667 105.387 148.053Q96 157.3970000000001 96 170.667Q96 183.937 105.387 193.28L361.387 449.28Q370.731 458.667 384 458.667Q397.27 458.667 406.613 449.28L554.667 301.27L818.73 565.332H554.668Q541.398 565.332 532.054 574.719Q522.668 584.063 522.668 597.332Q522.668 610.602 532.054 619.9459999999999Q541.398 629.332 554.668 629.332z" />
    <glyph glyph-name="trending-down"
      unicode="&#xE014;"
      horiz-adv-x="1024" d="M554.667 202.667H818.73L554.668 466.73L406.613 318.7200000000001Q397.269 309.3330000000001 384 309.3330000000001Q370.73 309.3330000000001 361.387 318.7200000000001L105.387 574.72Q96 584.0640000000001 96 597.3330000000001Q96 610.6030000000001 105.387 619.947Q114.731 629.3330000000001 128 629.3330000000001Q141.27 629.3330000000001 150.613 619.947L384 386.603L532.053 534.613Q541.397 544 554.667 544Q567.937 544 577.28 534.613L864 247.9360000000001V512Q864 525.27 873.387 534.613Q882.73 544 896 544Q909.27 544 918.613 534.613Q928 525.27 928 512V170.6669999999999Q928 157.3969999999999 918.613 148.0529999999999Q909.269 138.6669999999999 896 138.6669999999999H554.667Q541.397 138.6669999999999 532.053 148.0529999999999Q522.667 157.3969999999999 522.667 170.6669999999999Q522.667 183.9369999999999 532.053 193.28Q541.397 202.6669999999999 554.667 202.6669999999999z" />
    <glyph glyph-name="trending-down-1"
      unicode="&#x74;&#x72;&#x65;&#x6E;&#x64;&#x69;&#x6E;&#x67;&#x5F;&#x64;&#x6F;&#x77;&#x6E;"
      horiz-adv-x="1024" d="M554.667 202.667H818.73L554.668 466.73L406.613 318.7200000000001Q397.269 309.3330000000001 384 309.3330000000001Q370.73 309.3330000000001 361.387 318.7200000000001L105.387 574.72Q96 584.0640000000001 96 597.3330000000001Q96 610.6030000000001 105.387 619.947Q114.731 629.3330000000001 128 629.3330000000001Q141.27 629.3330000000001 150.613 619.947L384 386.603L532.053 534.613Q541.397 544 554.667 544Q567.937 544 577.28 534.613L864 247.9360000000001V512Q864 525.27 873.387 534.613Q882.73 544 896 544Q909.27 544 918.613 534.613Q928 525.27 928 512V170.6669999999999Q928 157.3969999999999 918.613 148.0529999999999Q909.269 138.6669999999999 896 138.6669999999999H554.667Q541.397 138.6669999999999 532.053 148.0529999999999Q522.667 157.3969999999999 522.667 170.6669999999999Q522.667 183.9369999999999 532.053 193.28Q541.397 202.6669999999999 554.667 202.6669999999999z" />
    <glyph glyph-name="trash"
      unicode="&#xE015;"
      horiz-adv-x="1024" d="M170.667 629.3330000000001H212.737Q213.632 629.376 214.485 629.3330000000001H352V725.3330000000001Q352 800 426.667 800H597.333Q628.2669999999999 800 650.1129999999999 778.112Q672 756.267 672 725.332V629.332H809.515Q810.3679999999999 629.376 811.265 629.332H853.333Q866.603 629.332 875.947 619.947Q885.333 610.6030000000001 885.333 597.3330000000001Q885.333 584.0630000000001 875.947 574.72Q866.603 565.3330000000001 853.333 565.3330000000001H840.448L805.588 76.971Q797.782 -32 688.556 -32H335.4460000000001Q226.22 -32 218.41 76.97L183.552 565.3330000000001H170.667Q157.397 565.3330000000001 148.053 574.72Q138.667 584.0640000000001 138.667 597.3330000000001Q138.667 610.6030000000001 148.053 619.947Q157.397 629.3330000000001 170.667 629.3330000000001zM640 565.3330000000001H247.68L282.24 81.5360000000001Q285.78 32 335.445 32H688.5550000000001Q738.219 32 741.7600000000001 81.5360000000001L776.3200000000002 565.3330000000001H640zM416 629.3330000000001H608V725.3330000000001Q608 736 597.333 736H426.667Q422.229 736 419.115 732.885Q416 729.77 416 725.333V629.333zM458.667 426.6670000000001V170.667Q458.667 157.3970000000001 449.2800000000001 148.053Q439.9360000000001 138.667 426.6670000000001 138.667Q413.3970000000001 138.667 404.0530000000001 148.053Q394.6670000000001 157.3970000000001 394.6670000000001 170.667V426.6670000000001Q394.6670000000001 439.937 404.0530000000001 449.2800000000001Q413.3970000000001 458.667 426.6670000000001 458.667Q439.937 458.667 449.2800000000001 449.2800000000001Q458.667 439.9360000000001 458.667 426.6670000000001zM629.3330000000001 426.6670000000001V170.667Q629.3330000000001 157.3970000000001 619.9470000000001 148.053Q610.6030000000001 138.667 597.3330000000001 138.667Q584.0630000000001 138.667 574.72 148.053Q565.3330000000001 157.3970000000001 565.3330000000001 170.667V426.6670000000001Q565.3330000000001 439.937 574.72 449.2800000000001Q584.0640000000001 458.667 597.3330000000001 458.667Q610.6030000000001 458.667 619.9470000000001 449.2800000000001Q629.3330000000001 439.9360000000001 629.3330000000001 426.6670000000001z" />
    <glyph glyph-name="trash-1"
      unicode="&#x74;&#x72;&#x61;&#x73;&#x68;"
      horiz-adv-x="1024" d="M170.667 629.3330000000001H212.737Q213.632 629.376 214.485 629.3330000000001H352V725.3330000000001Q352 800 426.667 800H597.333Q628.2669999999999 800 650.1129999999999 778.112Q672 756.267 672 725.332V629.332H809.515Q810.3679999999999 629.376 811.265 629.332H853.333Q866.603 629.332 875.947 619.947Q885.333 610.6030000000001 885.333 597.3330000000001Q885.333 584.0630000000001 875.947 574.72Q866.603 565.3330000000001 853.333 565.3330000000001H840.448L805.588 76.971Q797.782 -32 688.556 -32H335.4460000000001Q226.22 -32 218.41 76.97L183.552 565.3330000000001H170.667Q157.397 565.3330000000001 148.053 574.72Q138.667 584.0640000000001 138.667 597.3330000000001Q138.667 610.6030000000001 148.053 619.947Q157.397 629.3330000000001 170.667 629.3330000000001zM640 565.3330000000001H247.68L282.24 81.5360000000001Q285.78 32 335.445 32H688.5550000000001Q738.219 32 741.7600000000001 81.5360000000001L776.3200000000002 565.3330000000001H640zM416 629.3330000000001H608V725.3330000000001Q608 736 597.333 736H426.667Q422.229 736 419.115 732.885Q416 729.77 416 725.333V629.333zM458.667 426.6670000000001V170.667Q458.667 157.3970000000001 449.2800000000001 148.053Q439.9360000000001 138.667 426.6670000000001 138.667Q413.3970000000001 138.667 404.0530000000001 148.053Q394.6670000000001 157.3970000000001 394.6670000000001 170.667V426.6670000000001Q394.6670000000001 439.937 404.0530000000001 449.2800000000001Q413.3970000000001 458.667 426.6670000000001 458.667Q439.937 458.667 449.2800000000001 449.2800000000001Q458.667 439.9360000000001 458.667 426.6670000000001zM629.3330000000001 426.6670000000001V170.667Q629.3330000000001 157.3970000000001 619.9470000000001 148.053Q610.6030000000001 138.667 597.3330000000001 138.667Q584.0630000000001 138.667 574.72 148.053Q565.3330000000001 157.3970000000001 565.3330000000001 170.667V426.6670000000001Q565.3330000000001 439.937 574.72 449.2800000000001Q584.0640000000001 458.667 597.3330000000001 458.667Q610.6030000000001 458.667 619.9470000000001 449.2800000000001Q629.3330000000001 439.9360000000001 629.3330000000001 426.6670000000001z" />
    <glyph glyph-name="translate"
      unicode="&#xE016;"
      horiz-adv-x="1024" d="M128 714.667H352V768Q352 781.27 361.387 790.613Q370.73 800 384 800Q397.27 800 406.613 790.613Q416 781.27 416 768V714.667H541.952Q543.659 714.752 545.365 714.667H640Q653.27 714.667 662.613 705.28Q672 695.936 672 682.667Q672 669.3969999999999 662.613 660.053Q653.269 650.667 640 650.667H570.752Q533.8019999999999 462.464 428.842 324.352Q439.979 311.765 451.755 299.562Q460.971 290.005 460.715 276.779Q460.501 263.509 450.945 254.2920000000001Q441.429 245.1190000000001 428.16 245.332Q414.89 245.588 405.717 255.102Q396.373 264.788 387.413 274.687Q288.7680000000001 166.655 142.251 93.823Q130.391 87.935 117.804 92.159Q105.26 96.383 99.329 108.244Q93.441 120.106 97.665 132.692Q101.889 145.236 113.75 151.167Q253.355 220.543 345.728 324.6500000000001Q284.0320000000001 405.0770000000001 244.096 499.5400000000001Q238.933 511.7440000000001 243.926 524.0320000000002Q248.9160000000001 536.3200000000002 261.12 541.4820000000001Q273.323 546.6450000000001 285.61 541.652Q297.9000000000001 536.662 303.06 524.4590000000001Q336.64 444.9270000000002 387.072 376.1910000000002Q472.32 494.2510000000001 505.429 650.6660000000002H128Q114.73 650.6660000000002 105.387 660.0520000000001Q96 669.3969999999999 96 682.667Q96 695.937 105.387 705.28Q114.731 714.667 128 714.667zM440.704 14.293L503.594 140.033Q504.448 142.251 505.684 144.299L654.037 440.959Q659.967 452.819 672.5550000000001 457.044Q685.1410000000001 461.226 696.96 455.294Q706.517 450.516 711.296 440.959L859.648 144.3Q860.885 142.25 861.738 140.0319999999999L924.628 14.2919999999999Q930.56 2.4749999999999 926.378 -10.1120000000001Q922.155 -22.6990000000001 910.293 -28.6290000000001Q898.475 -34.5590000000001 885.888 -30.3790000000001Q873.301 -26.1540000000001 867.371 -14.2920000000001L812.204 96H553.13L497.963 -14.293Q492.033 -26.155 479.4449999999999 -30.379Q466.8589999999999 -34.559 455.04 -28.629Q443.18 -22.6990000000001 438.955 -10.111Q434.773 2.476 440.705 14.294zM585.13 160H780.203L682.6669999999999 355.115L585.13 160z" />
    <glyph glyph-name="translate-1"
      unicode="&#x74;&#x72;&#x61;&#x6E;&#x73;&#x6C;&#x61;&#x74;&#x65;"
      horiz-adv-x="1024" d="M128 714.667H352V768Q352 781.27 361.387 790.613Q370.73 800 384 800Q397.27 800 406.613 790.613Q416 781.27 416 768V714.667H541.952Q543.659 714.752 545.365 714.667H640Q653.27 714.667 662.613 705.28Q672 695.936 672 682.667Q672 669.3969999999999 662.613 660.053Q653.269 650.667 640 650.667H570.752Q533.8019999999999 462.464 428.842 324.352Q439.979 311.765 451.755 299.562Q460.971 290.005 460.715 276.779Q460.501 263.509 450.945 254.2920000000001Q441.429 245.1190000000001 428.16 245.332Q414.89 245.588 405.717 255.102Q396.373 264.788 387.413 274.687Q288.7680000000001 166.655 142.251 93.823Q130.391 87.935 117.804 92.159Q105.26 96.383 99.329 108.244Q93.441 120.106 97.665 132.692Q101.889 145.236 113.75 151.167Q253.355 220.543 345.728 324.6500000000001Q284.0320000000001 405.0770000000001 244.096 499.5400000000001Q238.933 511.7440000000001 243.926 524.0320000000002Q248.9160000000001 536.3200000000002 261.12 541.4820000000001Q273.323 546.6450000000001 285.61 541.652Q297.9000000000001 536.662 303.06 524.4590000000001Q336.64 444.9270000000002 387.072 376.1910000000002Q472.32 494.2510000000001 505.429 650.6660000000002H128Q114.73 650.6660000000002 105.387 660.0520000000001Q96 669.3969999999999 96 682.667Q96 695.937 105.387 705.28Q114.731 714.667 128 714.667zM440.704 14.293L503.594 140.033Q504.448 142.251 505.684 144.299L654.037 440.959Q659.967 452.819 672.5550000000001 457.044Q685.1410000000001 461.226 696.96 455.294Q706.517 450.516 711.296 440.959L859.648 144.3Q860.885 142.25 861.738 140.0319999999999L924.628 14.2919999999999Q930.56 2.4749999999999 926.378 -10.1120000000001Q922.155 -22.6990000000001 910.293 -28.6290000000001Q898.475 -34.5590000000001 885.888 -30.3790000000001Q873.301 -26.1540000000001 867.371 -14.2920000000001L812.204 96H553.13L497.963 -14.293Q492.033 -26.155 479.4449999999999 -30.379Q466.8589999999999 -34.559 455.04 -28.629Q443.18 -22.6990000000001 438.955 -10.111Q434.773 2.476 440.705 14.294zM585.13 160H780.203L682.6669999999999 355.115L585.13 160z" />
    <glyph glyph-name="ticket"
      unicode="&#xE017;"
      horiz-adv-x="1024" d="M213.333 714.667H810.6669999999999Q928 714.667 928 597.3330000000001V469.333Q928 456.063 918.613 446.7200000000001Q909.269 437.3330000000001 896 437.3330000000001Q873.9 437.3330000000001 858.283 421.7170000000001Q842.667 406.1 842.667 384Q842.667 330.6670000000001 896 330.6670000000001Q909.27 330.6670000000001 918.613 321.28Q928 311.9360000000001 928 298.6670000000001V170.667Q928 122.0690000000001 893.653 87.6800000000001Q859.263 53.3330000000001 810.667 53.3330000000001H213.333Q96 53.333 96 170.667V298.6670000000001Q96 311.937 105.387 321.28Q114.731 330.6669999999999 128 330.6669999999999Q181.333 330.6669999999999 181.333 383.9999999999999T128 437.3330000000001Q114.73 437.3330000000001 105.387 446.7200000000001Q96 456.064 96 469.333V597.3330000000001Q96 714.667 213.333 714.667zM672 170.667V117.3330000000001H810.667Q864 117.3330000000001 864 170.6670000000002V269.2270000000001Q778.667 283.947 778.667 384T864 498.773V597.3330000000001Q864 619.435 848.384 635.051Q832.768 650.668 810.667 650.668H672V597.3340000000001Q672 584.0640000000001 662.613 574.721Q653.269 565.3340000000001 640 565.3340000000001Q626.73 565.3340000000001 617.387 574.721Q608 584.0640000000001 608 597.3330000000001V650.667H213.333Q160 650.667 160 597.3330000000001V498.773Q245.333 484.053 245.333 384T160 269.227V170.6669999999999Q160 117.3329999999999 213.333 117.3329999999999H608V170.6669999999999Q608 183.9369999999999 617.387 193.28Q626.731 202.6669999999999 640 202.6669999999999Q653.27 202.6669999999999 662.613 193.28Q672 183.936 672 170.667zM672 426.6670000000001V341.3330000000001Q672 328.0630000000001 662.613 318.7200000000001Q653.269 309.3330000000001 640 309.3330000000001Q626.73 309.3330000000001 617.387 318.7200000000001Q608 328.064 608 341.333V426.667Q608 439.937 617.387 449.28Q626.731 458.667 640 458.667Q653.27 458.667 662.613 449.28Q672 439.936 672 426.667z" />
    <glyph glyph-name="ticket-1"
      unicode="&#x74;&#x69;&#x63;&#x6B;&#x65;&#x74;"
      horiz-adv-x="1024" d="M213.333 714.667H810.6669999999999Q928 714.667 928 597.3330000000001V469.333Q928 456.063 918.613 446.7200000000001Q909.269 437.3330000000001 896 437.3330000000001Q873.9 437.3330000000001 858.283 421.7170000000001Q842.667 406.1 842.667 384Q842.667 330.6670000000001 896 330.6670000000001Q909.27 330.6670000000001 918.613 321.28Q928 311.9360000000001 928 298.6670000000001V170.667Q928 122.0690000000001 893.653 87.6800000000001Q859.263 53.3330000000001 810.667 53.3330000000001H213.333Q96 53.333 96 170.667V298.6670000000001Q96 311.937 105.387 321.28Q114.731 330.6669999999999 128 330.6669999999999Q181.333 330.6669999999999 181.333 383.9999999999999T128 437.3330000000001Q114.73 437.3330000000001 105.387 446.7200000000001Q96 456.064 96 469.333V597.3330000000001Q96 714.667 213.333 714.667zM672 170.667V117.3330000000001H810.667Q864 117.3330000000001 864 170.6670000000002V269.2270000000001Q778.667 283.947 778.667 384T864 498.773V597.3330000000001Q864 619.435 848.384 635.051Q832.768 650.668 810.667 650.668H672V597.3340000000001Q672 584.0640000000001 662.613 574.721Q653.269 565.3340000000001 640 565.3340000000001Q626.73 565.3340000000001 617.387 574.721Q608 584.0640000000001 608 597.3330000000001V650.667H213.333Q160 650.667 160 597.3330000000001V498.773Q245.333 484.053 245.333 384T160 269.227V170.6669999999999Q160 117.3329999999999 213.333 117.3329999999999H608V170.6669999999999Q608 183.9369999999999 617.387 193.28Q626.731 202.6669999999999 640 202.6669999999999Q653.27 202.6669999999999 662.613 193.28Q672 183.936 672 170.667zM672 426.6670000000001V341.3330000000001Q672 328.0630000000001 662.613 318.7200000000001Q653.269 309.3330000000001 640 309.3330000000001Q626.73 309.3330000000001 617.387 318.7200000000001Q608 328.064 608 341.333V426.667Q608 439.937 617.387 449.28Q626.731 458.667 640 458.667Q653.27 458.667 662.613 449.28Q672 439.936 672 426.667z" />
    <glyph glyph-name="thumb-up"
      unicode="&#xE018;"
      horiz-adv-x="1024" d="M294.74 10.667H213.333Q96 10.667 96 128V384Q96 501.333 213.333 501.333H309.973L416.7680000000001 661.547Q437.3330000000001 692.352 437.3330000000001 729.387Q437.3330000000001 800 507.947 800H512Q629.333 800 629.333 682.667V501.333H800.597Q866.005 501.333 900.395 445.696T905.557 331.52L756.224 32.853Q723.797 -32 651.264 -32H479.83Q465.408 -32 451.413 -28.5L294.74 10.6660000000001zM597.3330000000001 437.3330000000001H512Q498.73 437.3330000000001 489.387 446.7200000000001Q480 456.064 480 469.333Q480 482.603 489.387 491.947Q498.731 501.333 512 501.333H565.333V682.667Q565.333 736 512 736H507.947Q501.333 736 501.333 729.387Q501.333 672.981 470.016 626.005L330.666 416.98V67.6700000000001L466.901 33.58Q473.301 32 479.831 32H651.265Q684.2049999999999 32 698.965 61.483L848.3 360.15Q861.6099999999999 386.73 845.952 412.032Q830.336 437.332 800.597 437.332H597.333zM266.667 74.667V426.6670000000001Q266.667 432.257 268.459 437.3330000000001H213.3319999999999Q160 437.3330000000001 160 384V128Q160 74.667 213.333 74.667H266.6670000000001z" />
    <glyph glyph-name="thumb-up-1"
      unicode="&#x74;&#x68;&#x75;&#x6D;&#x62;&#x5F;&#x75;&#x70;"
      horiz-adv-x="1024" d="M294.74 10.667H213.333Q96 10.667 96 128V384Q96 501.333 213.333 501.333H309.973L416.7680000000001 661.547Q437.3330000000001 692.352 437.3330000000001 729.387Q437.3330000000001 800 507.947 800H512Q629.333 800 629.333 682.667V501.333H800.597Q866.005 501.333 900.395 445.696T905.557 331.52L756.224 32.853Q723.797 -32 651.264 -32H479.83Q465.408 -32 451.413 -28.5L294.74 10.6660000000001zM597.3330000000001 437.3330000000001H512Q498.73 437.3330000000001 489.387 446.7200000000001Q480 456.064 480 469.333Q480 482.603 489.387 491.947Q498.731 501.333 512 501.333H565.333V682.667Q565.333 736 512 736H507.947Q501.333 736 501.333 729.387Q501.333 672.981 470.016 626.005L330.666 416.98V67.6700000000001L466.901 33.58Q473.301 32 479.831 32H651.265Q684.2049999999999 32 698.965 61.483L848.3 360.15Q861.6099999999999 386.73 845.952 412.032Q830.336 437.332 800.597 437.332H597.333zM266.667 74.667V426.6670000000001Q266.667 432.257 268.459 437.3330000000001H213.3319999999999Q160 437.3330000000001 160 384V128Q160 74.667 213.333 74.667H266.6670000000001z" />
    <glyph glyph-name="thumb-down"
      unicode="&#xE019;"
      horiz-adv-x="1024" d="M714.027 266.6670000000001L607.232 106.453Q586.6669999999999 75.648 586.6669999999999 38.5709999999999Q586.6669999999999 9.3449999999999 565.973 -11.306Q545.323 -32 516.053 -32H512Q463.403 -32 429.0130000000001 2.347Q394.6670000000001 36.737 394.6670000000001 85.333V266.6670000000001H223.403Q157.995 266.6670000000001 123.605 322.3040000000001T118.443 436.4800000000001L267.776 735.147Q300.203 800 372.736 800H544.17Q558.592 800 572.63 796.5L729.26 757.333H810.667Q859.264 757.333 893.653 722.987Q928 688.597 928 640V384Q928 266.6670000000001 810.667 266.6670000000001H714.027zM426.6670000000001 330.6670000000001H512Q525.27 330.6670000000001 534.613 321.28Q544 311.9360000000001 544 298.6670000000001Q544 285.3970000000001 534.613 276.053Q525.269 266.6670000000001 512 266.6670000000001H458.667V85.3330000000001Q458.667 32 512 32H516.053Q522.667 32 522.667 38.5700000000001Q522.667 95.0200000000001 553.984 141.995L693.3340000000001 351.019V700.33L557.099 734.4200000000001Q550.739 736 544.1690000000001 736H372.737Q339.7970000000001 736 325.0370000000001 706.517L175.7 407.85Q162.39 381.27 178.048 355.9680000000001Q193.664 330.6680000000001 223.403 330.6680000000001H426.6670000000001zM757.3330000000001 693.3330000000001V341.3330000000001Q757.3330000000001 335.7430000000001 755.541 330.6670000000001H810.668Q864 330.6670000000001 864 384V640Q864 693.333 810.667 693.333H757.3330000000001z" />
    <glyph glyph-name="thumb-down-1"
      unicode="&#x74;&#x68;&#x75;&#x6D;&#x62;&#x5F;&#x64;&#x6F;&#x77;&#x6E;"
      horiz-adv-x="1024" d="M714.027 266.6670000000001L607.232 106.453Q586.6669999999999 75.648 586.6669999999999 38.5709999999999Q586.6669999999999 9.3449999999999 565.973 -11.306Q545.323 -32 516.053 -32H512Q463.403 -32 429.0130000000001 2.347Q394.6670000000001 36.737 394.6670000000001 85.333V266.6670000000001H223.403Q157.995 266.6670000000001 123.605 322.3040000000001T118.443 436.4800000000001L267.776 735.147Q300.203 800 372.736 800H544.17Q558.592 800 572.63 796.5L729.26 757.333H810.667Q859.264 757.333 893.653 722.987Q928 688.597 928 640V384Q928 266.6670000000001 810.667 266.6670000000001H714.027zM426.6670000000001 330.6670000000001H512Q525.27 330.6670000000001 534.613 321.28Q544 311.9360000000001 544 298.6670000000001Q544 285.3970000000001 534.613 276.053Q525.269 266.6670000000001 512 266.6670000000001H458.667V85.3330000000001Q458.667 32 512 32H516.053Q522.667 32 522.667 38.5700000000001Q522.667 95.0200000000001 553.984 141.995L693.3340000000001 351.019V700.33L557.099 734.4200000000001Q550.739 736 544.1690000000001 736H372.737Q339.7970000000001 736 325.0370000000001 706.517L175.7 407.85Q162.39 381.27 178.048 355.9680000000001Q193.664 330.6680000000001 223.403 330.6680000000001H426.6670000000001zM757.3330000000001 693.3330000000001V341.3330000000001Q757.3330000000001 335.7430000000001 755.541 330.6670000000001H810.668Q864 330.6670000000001 864 384V640Q864 693.333 810.667 693.333H757.3330000000001z" />
    <glyph glyph-name="terminal"
      unicode="&#xE01A;"
      horiz-adv-x="1024" d="M213.333 10.667Q96 10.667 96 128V640Q96 757.333 213.333 757.333H810.6669999999999Q928 757.333 928 640V128Q928 79.403 893.653 45.013Q859.263 10.667 810.667 10.667zM213.333 74.667H810.6669999999999Q864 74.667 864 128V640Q864 693.333 810.667 693.333H213.333Q160 693.333 160 640V128Q160 74.667 213.333 74.667zM363.947 534.613L491.947 406.6130000000001Q501.333 397.2690000000001 501.333 384.0000000000001Q501.333 370.73 491.947 361.3870000000001L363.947 233.3870000000001Q354.603 224 341.3330000000001 224Q328.0630000000001 224 318.7200000000001 233.387Q309.3330000000001 242.731 309.3330000000001 256Q309.3330000000001 269.27 318.7200000000001 278.6130000000001L424.064 384L318.7200000000001 489.387Q309.3330000000001 498.731 309.3330000000001 512Q309.3330000000001 525.27 318.7200000000001 534.613Q328.064 544 341.3330000000001 544Q354.603 544 363.947 534.613zM554.667 288H682.667Q695.937 288 705.28 278.6130000000001Q714.6669999999999 269.269 714.6669999999999 256Q714.6669999999999 242.73 705.28 233.387Q695.936 224 682.667 224H554.667Q541.397 224 532.053 233.387Q522.667 242.731 522.667 256Q522.667 269.27 532.053 278.6130000000001Q541.397 288 554.667 288z" />
    <glyph glyph-name="terminal-1"
      unicode="&#x74;&#x65;&#x72;&#x6D;&#x69;&#x6E;&#x61;&#x6C;"
      horiz-adv-x="1024" d="M213.333 10.667Q96 10.667 96 128V640Q96 757.333 213.333 757.333H810.6669999999999Q928 757.333 928 640V128Q928 79.403 893.653 45.013Q859.263 10.667 810.667 10.667zM213.333 74.667H810.6669999999999Q864 74.667 864 128V640Q864 693.333 810.667 693.333H213.333Q160 693.333 160 640V128Q160 74.667 213.333 74.667zM363.947 534.613L491.947 406.6130000000001Q501.333 397.2690000000001 501.333 384.0000000000001Q501.333 370.73 491.947 361.3870000000001L363.947 233.3870000000001Q354.603 224 341.3330000000001 224Q328.0630000000001 224 318.7200000000001 233.387Q309.3330000000001 242.731 309.3330000000001 256Q309.3330000000001 269.27 318.7200000000001 278.6130000000001L424.064 384L318.7200000000001 489.387Q309.3330000000001 498.731 309.3330000000001 512Q309.3330000000001 525.27 318.7200000000001 534.613Q328.064 544 341.3330000000001 544Q354.603 544 363.947 534.613zM554.667 288H682.667Q695.937 288 705.28 278.6130000000001Q714.6669999999999 269.269 714.6669999999999 256Q714.6669999999999 242.73 705.28 233.387Q695.936 224 682.667 224H554.667Q541.397 224 532.053 233.387Q522.667 242.731 522.667 256Q522.667 269.27 532.053 278.6130000000001Q541.397 288 554.667 288z" />
    <glyph glyph-name="template"
      unicode="&#xE01B;"
      horiz-adv-x="1024" d="M138.667 682.667Q138.667 757.333 213.333 757.333H810.6669999999999Q885.3329999999999 757.333 885.3329999999999 682.667V597.333Q885.3329999999999 522.6669999999999 810.6669999999999 522.6669999999999H213.333Q138.667 522.6669999999999 138.667 597.333zM202.667 682.667V597.333Q202.667 586.6669999999999 213.333 586.6669999999999H810.6669999999999Q821.333 586.6669999999999 821.333 597.333V682.6669999999999Q821.333 693.333 810.6669999999999 693.333H213.333Q202.667 693.333 202.667 682.6669999999999zM138.667 341.333Q138.667 416 213.333 416H469.333Q544 416 544 341.333V85.333Q544 10.6669999999999 469.333 10.6669999999999H213.333Q138.667 10.6669999999999 138.667 85.3329999999999zM202.667 341.333V85.333Q202.667 74.6669999999999 213.333 74.6669999999999H469.333Q479.9999999999999 74.6669999999999 479.9999999999999 85.333V341.333Q479.9999999999999 345.771 476.8849999999999 348.885Q473.77 352 469.333 352H213.333Q202.667 352 202.667 341.333zM650.667 341.333Q650.667 416 725.3330000000001 416H810.6670000000001Q885.3330000000001 416 885.3330000000001 341.333V85.333Q885.3330000000001 10.6669999999999 810.6670000000001 10.6669999999999H725.3330000000001Q694.4000000000001 10.6669999999999 672.5550000000001 32.555Q650.667 54.4 650.667 85.333zM714.667 341.333V85.333Q714.667 74.6669999999999 725.3330000000001 74.6669999999999H810.6670000000001Q821.3330000000002 74.6669999999999 821.3330000000002 85.333V341.333Q821.3330000000002 345.771 818.2190000000002 348.885Q815.1030000000002 352 810.6660000000002 352H725.3320000000001Q714.666 352 714.666 341.333z" />
    <glyph glyph-name="template-1"
      unicode="&#x74;&#x65;&#x6D;&#x70;&#x6C;&#x61;&#x74;&#x65;"
      horiz-adv-x="1024" d="M138.667 682.667Q138.667 757.333 213.333 757.333H810.6669999999999Q885.3329999999999 757.333 885.3329999999999 682.667V597.333Q885.3329999999999 522.6669999999999 810.6669999999999 522.6669999999999H213.333Q138.667 522.6669999999999 138.667 597.333zM202.667 682.667V597.333Q202.667 586.6669999999999 213.333 586.6669999999999H810.6669999999999Q821.333 586.6669999999999 821.333 597.333V682.6669999999999Q821.333 693.333 810.6669999999999 693.333H213.333Q202.667 693.333 202.667 682.6669999999999zM138.667 341.333Q138.667 416 213.333 416H469.333Q544 416 544 341.333V85.333Q544 10.6669999999999 469.333 10.6669999999999H213.333Q138.667 10.6669999999999 138.667 85.3329999999999zM202.667 341.333V85.333Q202.667 74.6669999999999 213.333 74.6669999999999H469.333Q479.9999999999999 74.6669999999999 479.9999999999999 85.333V341.333Q479.9999999999999 345.771 476.8849999999999 348.885Q473.77 352 469.333 352H213.333Q202.667 352 202.667 341.333zM650.667 341.333Q650.667 416 725.3330000000001 416H810.6670000000001Q885.3330000000001 416 885.3330000000001 341.333V85.333Q885.3330000000001 10.6669999999999 810.6670000000001 10.6669999999999H725.3330000000001Q694.4000000000001 10.6669999999999 672.5550000000001 32.555Q650.667 54.4 650.667 85.333zM714.667 341.333V85.333Q714.667 74.6669999999999 725.3330000000001 74.6669999999999H810.6670000000001Q821.3330000000002 74.6669999999999 821.3330000000002 85.333V341.333Q821.3330000000002 345.771 818.2190000000002 348.885Q815.1030000000002 352 810.6660000000002 352H725.3320000000001Q714.666 352 714.666 341.333z" />
    <glyph glyph-name="tag"
      unicode="&#xE01C;"
      horiz-adv-x="1024" d="M576 739.115L552.02 717.952C552.448 717.44 552.917 716.972 553.387 716.502L576 739.114zM867.115 320L845.952 343.98C845.44 343.552 844.972 343.083 844.502 342.6130000000001L867.114 320zM874.667 440.448L898.645 461.611C898.2189999999999 462.124 897.749 462.593 897.28 463.061L874.6669999999999 440.449zM455.552 21.333L432.94 -1.28C433.408 -1.75 433.877 -2.22 434.39 -2.645L455.552 21.333zM568.448 21.333L589.611 -2.645C590.124 -2.2189999999999 590.593 -1.749 591.061 -1.28L568.4490000000001 21.3330000000001zM156.885 320L179.499 342.6130000000001L178.815 343.3390000000001L178.047 343.9790000000001L156.885 320zM298.6670000000001 629.3330000000001C281.0030000000001 629.3330000000001 266.6670000000001 614.9970000000001 266.6670000000001 597.3330000000001S281.0030000000001 565.3330000000001 298.6670000000001 565.3330000000001V629.3330000000001zM299.093 565.3330000000001C316.757 565.3330000000001 331.093 579.6690000000001 331.093 597.3330000000001S316.757 629.3330000000001 299.093 629.3330000000001V565.3330000000001zM160 597.3330000000001C160 673.92 222.08 736 298.667 736V800C186.752 800 96 709.248 96 597.3330000000001H160zM160 384V597.3330000000001H96V384H160zM298.6670000000001 736H512V800H298.667V736zM512 736C527.915 736 542.208 729.045 552.02 717.952L599.98 760.277C578.516 784.597 547.07 800 512 800V736zM864 384C864 368.0850000000001 857.045 353.7920000000001 845.952 343.98L888.277 296.02C912.597 317.4840000000001 928 348.93 928 384H864zM850.688 419.285C859.008 409.855 864 397.568 864 384H928C928 413.74 916.907 440.96 898.645 461.61L850.688 419.2850000000001zM512 32C498.432 32 486.144 36.992 476.715 45.312L434.389 -2.645C455.04 -20.907 482.26 -32 512 -32V32zM547.285 45.312C537.855 36.992 525.568 32 512 32V-32C541.74 -32 568.96 -20.907 589.61 -2.645L547.285 45.312zM178.048 343.98C166.955 353.79 160 368.084 160 384H96C96 348.928 111.403 317.483 135.723 296.02L178.048 343.98zM553.3879999999999 716.5L852.0529999999999 417.835L897.2799999999999 463.061L598.613 761.73L553.387 716.5zM478.1649999999999 43.947L179.5 342.6130000000001L134.272 297.3870000000001L432.94 -1.28L478.165 43.947zM844.5 342.6130000000001L545.836 43.947L591.062 -1.28L889.73 297.387L844.5 342.6130000000001zM298.6670000000001 565.3330000000001H299.093V629.3330000000001H298.6670000000001V565.3330000000001z" />
    <glyph glyph-name="tag-1"
      unicode="&#x74;&#x61;&#x67;"
      horiz-adv-x="1024" d="M576 739.115L552.02 717.952C552.448 717.44 552.917 716.972 553.387 716.502L576 739.114zM867.115 320L845.952 343.98C845.44 343.552 844.972 343.083 844.502 342.6130000000001L867.114 320zM874.667 440.448L898.645 461.611C898.2189999999999 462.124 897.749 462.593 897.28 463.061L874.6669999999999 440.449zM455.552 21.333L432.94 -1.28C433.408 -1.75 433.877 -2.22 434.39 -2.645L455.552 21.333zM568.448 21.333L589.611 -2.645C590.124 -2.2189999999999 590.593 -1.749 591.061 -1.28L568.4490000000001 21.3330000000001zM156.885 320L179.499 342.6130000000001L178.815 343.3390000000001L178.047 343.9790000000001L156.885 320zM298.6670000000001 629.3330000000001C281.0030000000001 629.3330000000001 266.6670000000001 614.9970000000001 266.6670000000001 597.3330000000001S281.0030000000001 565.3330000000001 298.6670000000001 565.3330000000001V629.3330000000001zM299.093 565.3330000000001C316.757 565.3330000000001 331.093 579.6690000000001 331.093 597.3330000000001S316.757 629.3330000000001 299.093 629.3330000000001V565.3330000000001zM160 597.3330000000001C160 673.92 222.08 736 298.667 736V800C186.752 800 96 709.248 96 597.3330000000001H160zM160 384V597.3330000000001H96V384H160zM298.6670000000001 736H512V800H298.667V736zM512 736C527.915 736 542.208 729.045 552.02 717.952L599.98 760.277C578.516 784.597 547.07 800 512 800V736zM864 384C864 368.0850000000001 857.045 353.7920000000001 845.952 343.98L888.277 296.02C912.597 317.4840000000001 928 348.93 928 384H864zM850.688 419.285C859.008 409.855 864 397.568 864 384H928C928 413.74 916.907 440.96 898.645 461.61L850.688 419.2850000000001zM512 32C498.432 32 486.144 36.992 476.715 45.312L434.389 -2.645C455.04 -20.907 482.26 -32 512 -32V32zM547.285 45.312C537.855 36.992 525.568 32 512 32V-32C541.74 -32 568.96 -20.907 589.61 -2.645L547.285 45.312zM178.048 343.98C166.955 353.79 160 368.084 160 384H96C96 348.928 111.403 317.483 135.723 296.02L178.048 343.98zM553.3879999999999 716.5L852.0529999999999 417.835L897.2799999999999 463.061L598.613 761.73L553.387 716.5zM478.1649999999999 43.947L179.5 342.6130000000001L134.272 297.3870000000001L432.94 -1.28L478.165 43.947zM844.5 342.6130000000001L545.836 43.947L591.062 -1.28L889.73 297.387L844.5 342.6130000000001zM298.6670000000001 565.3330000000001H299.093V629.3330000000001H298.6670000000001V565.3330000000001z" />
    <glyph glyph-name="table"
      unicode="&#xE01D;"
      horiz-adv-x="1024" d="M213.333 96Q96 96 96 213.333V554.6669999999999Q96 672 213.333 672H810.6669999999999Q859.2639999999999 672 893.6529999999999 637.653Q928 603.2629999999999 928 554.6669999999999V213.333Q928 164.736 893.653 130.347Q859.263 96 810.667 96zM160 501.333H864V554.667Q864 576.767 848.384 592.384Q832.768 608 810.667 608H213.333Q160 608 160 554.6669999999999V501.333zM544 330.6670000000001H864V437.3330000000001H544V330.6670000000001zM480 437.3330000000001H160V330.6670000000001H480V437.3330000000001zM213.333 160H480V266.6670000000001H160V213.3330000000001Q160 160 213.333 160zM544 160H810.6669999999999Q864 160 864 213.333V266.6669999999999H544V160z" />
    <glyph glyph-name="table-1"
      unicode="&#x74;&#x61;&#x62;&#x6C;&#x65;"
      horiz-adv-x="1024" d="M213.333 96Q96 96 96 213.333V554.6669999999999Q96 672 213.333 672H810.6669999999999Q859.2639999999999 672 893.6529999999999 637.653Q928 603.2629999999999 928 554.6669999999999V213.333Q928 164.736 893.653 130.347Q859.263 96 810.667 96zM160 501.333H864V554.667Q864 576.767 848.384 592.384Q832.768 608 810.667 608H213.333Q160 608 160 554.6669999999999V501.333zM544 330.6670000000001H864V437.3330000000001H544V330.6670000000001zM480 437.3330000000001H160V330.6670000000001H480V437.3330000000001zM213.333 160H480V266.6670000000001H160V213.3330000000001Q160 160 213.333 160zM544 160H810.6669999999999Q864 160 864 213.333V266.6669999999999H544V160z" />
    <glyph glyph-name="switch-vertical"
      unicode="&#xE01E;"
      horiz-adv-x="1024" d="M757.333 554.6669999999999V119.9369999999999L873.387 235.9469999999999Q882.731 245.3329999999999 896 245.3329999999999Q909.27 245.3329999999999 918.613 235.9469999999999Q928 226.603 928 213.333Q928 200.063 918.613 190.72L747.947 20.053Q738.603 10.667 725.333 10.667Q713.728 10.667 705.1089999999999 17.835Q703.8709999999999 18.859 702.7189999999999 20.053L532.053 190.72Q522.667 200.0640000000001 522.667 213.3330000000001Q522.667 226.6030000000001 532.053 235.9470000000001Q541.397 245.3330000000001 554.667 245.3330000000001Q567.937 245.3330000000001 577.28 235.9470000000001L693.333 119.9370000000001V554.6670000000001Q693.333 567.9370000000001 702.72 577.2800000000002Q712.0640000000001 586.6670000000001 725.3330000000001 586.6670000000001Q738.6030000000001 586.6670000000001 747.9470000000001 577.2800000000002Q757.3330000000001 567.9360000000001 757.3330000000001 554.6670000000001zM266.667 213.333V648.063L150.613 532.053Q141.269 522.6669999999999 128 522.6669999999999Q114.73 522.6669999999999 105.387 532.053Q96 541.3969999999999 96 554.6669999999999Q96 567.9369999999999 105.387 577.28L276.053 747.947Q285.397 757.333 298.667 757.333Q310.272 757.333 318.891 750.165Q320.129 749.141 321.281 747.947L491.947 577.28Q501.333 567.9359999999999 501.333 554.6669999999999Q501.333 541.3969999999999 491.947 532.053Q482.603 522.6669999999999 469.333 522.6669999999999Q456.063 522.6669999999999 446.7200000000001 532.053L330.6670000000001 648.063V213.333Q330.6670000000001 200.063 321.2800000000001 190.72Q311.9360000000001 181.3330000000001 298.6670000000001 181.3330000000001Q285.3970000000001 181.3330000000001 276.0530000000001 190.72Q266.6670000000001 200.0640000000001 266.6670000000001 213.3330000000001z" />
    </font>
</defs>
</svg>
