<svg width="58" height="59" viewBox="0 0 58 59" fill="none" xmlns="http://www.w3.org/2000/svg">
<g id="main-shape">
<g id="vectors">
<path id="Vector" d="M51.2498 0.679688H31.1888C30.0986 0.679688 29.2148 1.56348 29.2148 2.65369V13.0277C29.2148 14.1179 30.0986 15.0017 31.1888 15.0017H51.2498C52.3401 15.0017 53.2238 14.1179 53.2238 13.0277V2.65369C53.2238 1.56348 52.3401 0.679688 51.2498 0.679688Z" fill="white" stroke="#000062" stroke-miterlimit="10"/>
<path id="Vector_2" d="M44.1666 15.002H38.2686V23.006H44.1666V15.002Z" fill="white" stroke="#000062" stroke-miterlimit="10"/>
<g id="Vector_3">
<path d="M9.62558 34.6818V28.3818H3.51758V57.0768C3.51719 57.2502 3.55094 57.4219 3.61691 57.5822C3.68288 57.7425 3.77978 57.8882 3.90208 58.0111C4.02437 58.134 4.16967 58.2315 4.32967 58.2982C4.48967 58.3649 4.66124 58.3994 4.83458 58.3998H8.30858C8.65787 58.3998 8.99285 58.2611 9.23984 58.0141C9.48682 57.7671 9.62558 57.4321 9.62558 57.0828V40.9848" fill="white"/>
<path d="M9.62558 34.6818V28.3818H3.51758V57.0768C3.51719 57.2502 3.55094 57.4219 3.61691 57.5822C3.68288 57.7425 3.77978 57.8882 3.90208 58.0111C4.02437 58.134 4.16967 58.2315 4.32967 58.2982C4.48967 58.3649 4.66124 58.3994 4.83458 58.3998H8.30858C8.65787 58.3998 8.99285 58.2611 9.23984 58.0141C9.48682 57.7671 9.62558 57.4321 9.62558 57.0828V40.9848" stroke="#000062" stroke-miterlimit="10"/>
</g>
<path id="Vector_4" d="M32.7935 28.376H54.6935V57.5C54.6935 57.7387 54.5986 57.9676 54.4298 58.1364C54.2611 58.3052 54.0322 58.4 53.7935 58.4H33.6935C33.4548 58.4 33.2258 58.3052 33.0571 58.1364C32.8883 57.9676 32.7935 57.7387 32.7935 57.5V28.376Z" fill="white" stroke="#000062" stroke-miterlimit="10"/>
<path id="Vector_5" d="M32.7935 43.3818H54.6965" stroke="#000062" stroke-miterlimit="10"/>
<path id="Vector_6" d="M29.2148 10.5259H53.2238" stroke="#000062" stroke-miterlimit="10"/>
<path id="Vector_7" d="M19.3398 19.0039H7.44178C6.96129 19.0039 6.57178 19.3934 6.57178 19.8739V22.1359C6.57178 22.6164 6.96129 23.0059 7.44178 23.0059H19.3398C19.8203 23.0059 20.2098 22.6164 20.2098 22.1359V19.8739C20.2098 19.3934 19.8203 19.0039 19.3398 19.0039Z" fill="white" stroke="#000062" stroke-miterlimit="10"/>
<path id="Vector_8" d="M16.1825 15.002H4.28455C3.80406 15.002 3.41455 15.3915 3.41455 15.872V18.134C3.41455 18.6144 3.80406 19.004 4.28455 19.004H16.1825C16.663 19.004 17.0525 18.6144 17.0525 18.134V15.872C17.0525 15.3915 16.663 15.002 16.1825 15.002Z" fill="white" stroke="#000062" stroke-miterlimit="10"/>
<path id="Vector_9" d="M43.7427 37.9581C44.9058 37.9581 45.8487 37.0152 45.8487 35.8521C45.8487 34.689 44.9058 33.7461 43.7427 33.7461C42.5796 33.7461 41.6367 34.689 41.6367 35.8521C41.6367 37.0152 42.5796 37.9581 43.7427 37.9581Z" fill="white" stroke="#000062" stroke-miterlimit="10"/>
<path id="Vector_10" d="M43.7427 52.9097C44.9058 52.9097 45.8487 51.9669 45.8487 50.8037C45.8487 49.6406 44.9058 48.6978 43.7427 48.6978C42.5796 48.6978 41.6367 49.6406 41.6367 50.8037C41.6367 51.9669 42.5796 52.9097 43.7427 52.9097Z" fill="white" stroke="#000062" stroke-miterlimit="10"/>
<path id="Vector_11" d="M55.8931 23.0029H2.53209C1.91408 23.0029 1.41309 23.5039 1.41309 24.1219V27.2539C1.41309 27.8719 1.91408 28.3729 2.53209 28.3729H55.8931C56.5111 28.3729 57.0121 27.8719 57.0121 27.2539V24.1219C57.0121 23.5039 56.5111 23.0029 55.8931 23.0029Z" fill="white" stroke="#000062" stroke-miterlimit="10"/>
<path id="Vector_12" d="M37.6147 28.376V35.852" stroke="#000062" stroke-miterlimit="10"/>
<path id="Vector_13" d="M37.6147 37.4058V39.9558" stroke="#000062" stroke-miterlimit="10"/>
<path id="Vector_14" d="M34.4648 0.679688V5.83069" stroke="#000062" stroke-miterlimit="10"/>
<path id="Vector_15" d="M34.4648 6.88086V7.84086" stroke="#000062" stroke-miterlimit="10"/>
<path id="Vector_16" d="M9.62803 38.8581C10.1251 38.8581 10.528 38.4552 10.528 37.9581C10.528 37.461 10.1251 37.0581 9.62803 37.0581C9.13097 37.0581 8.72803 37.461 8.72803 37.9581C8.72803 38.4552 9.13097 38.8581 9.62803 38.8581Z" fill="#000062"/>
</g>
</g>
</svg>
