<svg width="56" height="56" viewBox="0 0 56 56" fill="none" xmlns="http://www.w3.org/2000/svg">
<path d="M12.8511 11.2383H4.62109V19.4683H12.8511V11.2383Z" fill="white"/>
<path d="M13.449 20.0667H4.021V10.6367H13.449V20.0667ZM5.219 18.8667H12.249V11.8367H5.221L5.219 18.8667Z" fill="#000062"/>
<path d="M28.5469 11.2383H20.3169V19.4683H28.5469V11.2383Z" fill="white"/>
<path d="M29.147 20.0667H19.717V10.6367H29.147V20.0667ZM20.917 18.8667H27.947V11.8367H20.917V18.8667Z" fill="#000062"/>
<path d="M44.2429 41.6367H36.0129V49.8667H44.2429V41.6367Z" fill="white"/>
<path d="M44.8371 50.4691H35.4131V41.0391H44.8371V50.4691ZM36.6071 49.2691H43.6371V42.2391H36.6131L36.6071 49.2691Z" fill="#000062"/>
<path d="M28.5469 41.6367H20.3169V49.8667H28.5469V41.6367Z" fill="white"/>
<path d="M29.147 50.4691H19.717V41.0391H29.147V50.4691ZM20.917 49.2691H27.947V42.2391H20.917V49.2691Z" fill="#000062"/>
<path d="M36.0129 24.9443V15.3523V11.2383H44.2429V34.7183H40.1289H36.0129V27.6863" fill="white"/>
<path d="M44.8431 35.3167H35.4131V27.6847H36.6131V34.1167H43.6431V11.8367H36.6131V24.9427H35.4131V10.6367H44.8431V35.3167Z" fill="#000062"/>
<path d="M20.3149 14.7539H12.8489V15.9539H20.3149V14.7539Z" fill="#000062"/>
<path d="M36.0109 14.7539H28.5449V15.9539H36.0109V14.7539Z" fill="#000062"/>
<path d="M36.0129 45.1523H28.5469V46.3523H36.0129V45.1523Z" fill="#000062"/>
<path d="M40.7291 34.7188H39.5291V41.6367H40.7291V34.7188Z" fill="#000062"/>
<path d="M40.7291 11.7539H39.5291V17.2539H40.7291V11.7539Z" fill="#000062"/>
<path d="M40.7291 18.9531H39.5291V21.5531H40.7291V18.9531Z" fill="#000062"/>
<path d="M36.0131 26.8181C36.3091 26.8181 36.549 26.5781 36.549 26.2821C36.549 25.9861 36.3091 25.7461 36.0131 25.7461C35.717 25.7461 35.4771 25.9861 35.4771 26.2821C35.4771 26.5781 35.717 26.8181 36.0131 26.8181Z" fill="#000062"/>
</svg>
