<svg width="59" height="45" viewBox="0 0 59 45" fill="none" xmlns="http://www.w3.org/2000/svg">
<g id="main-shape">
<g id="vectors">
<g id="Vector">
<path d="M6.481 39.4508H3.328C2.71058 39.4508 2.11844 39.2055 1.68186 38.769C1.24527 38.3324 1 37.7402 1 37.1228V7.1858C1 6.56838 1.24527 5.97624 1.68186 5.53966C2.11844 5.10307 2.71058 4.8578 3.328 4.8578H6.481" fill="white"/>
<path d="M6.481 39.4508H3.328C2.71058 39.4508 2.11844 39.2055 1.68186 38.769C1.24527 38.3324 1 37.7402 1 37.1228V7.1858C1 6.56838 1.24527 5.97624 1.68186 5.53966C2.11844 5.10307 2.71058 4.8578 3.328 4.8578H6.481" stroke="#000062" stroke-miterlimit="10"/>
</g>
<g id="Vector_2">
<path d="M16.792 4.8578H55.876C56.4934 4.8578 57.0856 5.10307 57.5221 5.53966C57.9587 5.97624 58.204 6.56838 58.204 7.1858V37.1228C58.204 37.7402 57.9587 38.3324 57.5221 38.769C57.0856 39.2055 56.4934 39.4508 55.876 39.4508H16.792" fill="white"/>
<path d="M16.792 4.8578H55.876C56.4934 4.8578 57.0856 5.10307 57.5221 5.53966C57.9587 5.97624 58.204 6.56838 58.204 7.1858V37.1228C58.204 37.7402 57.9587 38.3324 57.5221 38.769C57.0856 39.2055 56.4934 39.4508 55.876 39.4508H16.792" stroke="#000062" stroke-miterlimit="10"/>
</g>
<path id="Vector_3" d="M13.4659 0.699997H9.80893C7.97148 0.699997 6.48193 2.18955 6.48193 4.027V40.282C6.48193 42.1194 7.97148 43.609 9.80893 43.609H13.4659C15.3034 43.609 16.7929 42.1194 16.7929 40.282V4.027C16.7929 2.18955 15.3034 0.699997 13.4659 0.699997Z" fill="white" stroke="#000062" stroke-miterlimit="10"/>
<g id="Vector_4">
<path d="M33.7479 19.8279H24.0549C23.9419 19.8279 23.8336 19.7831 23.7537 19.7032C23.6738 19.6233 23.6289 19.5149 23.6289 19.4019V10.4409C23.6285 10.3849 23.6393 10.3293 23.6605 10.2775C23.6818 10.2256 23.7132 10.1785 23.7528 10.1388C23.7924 10.0992 23.8396 10.0678 23.8914 10.0466C23.9433 10.0253 23.9989 10.0146 24.0549 10.0149H50.5779C50.6337 10.0149 50.689 10.026 50.7405 10.0474C50.792 10.0689 50.8388 10.1003 50.8781 10.1399C50.9174 10.1795 50.9485 10.2265 50.9696 10.2782C50.9907 10.3298 51.0013 10.3851 51.0009 10.4409V19.4019C51.0009 19.5144 50.9564 19.6223 50.8772 19.7021C50.798 19.7819 50.6904 19.8272 50.5779 19.8279H40.4499" fill="white"/>
<path d="M33.7479 19.8279H24.0549C23.9419 19.8279 23.8336 19.7831 23.7537 19.7032C23.6738 19.6233 23.6289 19.5149 23.6289 19.4019V10.4409C23.6285 10.3849 23.6393 10.3293 23.6605 10.2775C23.6818 10.2256 23.7132 10.1785 23.7528 10.1388C23.7924 10.0992 23.8396 10.0678 23.8914 10.0466C23.9433 10.0253 23.9989 10.0146 24.0549 10.0149H50.5779C50.6337 10.0149 50.689 10.026 50.7405 10.0474C50.792 10.0689 50.8388 10.1003 50.8781 10.1399C50.9174 10.1795 50.9485 10.2265 50.9696 10.2782C50.9907 10.3298 51.0013 10.3851 51.0009 10.4409V19.4019C51.0009 19.5144 50.9564 19.6223 50.8772 19.7021C50.798 19.7819 50.6904 19.8272 50.5779 19.8279H40.4499" stroke="#000062" stroke-miterlimit="10"/>
</g>
<path id="Vector_5" d="M25.2678 23.6529H21.9528C21.7408 23.6529 21.5688 23.8248 21.5688 24.0369V27.3519C21.5688 27.564 21.7408 27.7359 21.9528 27.7359H25.2678C25.4799 27.7359 25.6518 27.564 25.6518 27.3519V24.0369C25.6518 23.8248 25.4799 23.6529 25.2678 23.6529Z" fill="white" stroke="#000062" stroke-miterlimit="10"/>
<path id="Vector_6" d="M34.406 23.6529H31.091C30.879 23.6529 30.707 23.8248 30.707 24.0369V27.3519C30.707 27.564 30.879 27.7359 31.091 27.7359H34.406C34.6181 27.7359 34.79 27.564 34.79 27.3519V24.0369C34.79 23.8248 34.6181 23.6529 34.406 23.6529Z" fill="white" stroke="#000062" stroke-miterlimit="10"/>
<path id="Vector_7" d="M43.5398 23.6529H40.2248C40.0127 23.6529 39.8408 23.8248 39.8408 24.0369V27.3519C39.8408 27.564 40.0127 27.7359 40.2248 27.7359H43.5398C43.7519 27.7359 43.9238 27.564 43.9238 27.3519V24.0369C43.9238 23.8248 43.7519 23.6529 43.5398 23.6529Z" fill="white" stroke="#000062" stroke-miterlimit="10"/>
<path id="Vector_8" d="M52.6756 23.6529H49.3606C49.1485 23.6529 48.9766 23.8248 48.9766 24.0369V27.3519C48.9766 27.564 49.1485 27.7359 49.3606 27.7359H52.6756C52.8876 27.7359 53.0596 27.564 53.0596 27.3519V24.0369C53.0596 23.8248 52.8876 23.6529 52.6756 23.6529Z" fill="white" stroke="#000062" stroke-miterlimit="10"/>
<path id="Vector_9" d="M25.2678 31.0179H21.9528C21.7408 31.0179 21.5688 31.1898 21.5688 31.4019V34.7169C21.5688 34.9289 21.7408 35.1009 21.9528 35.1009H25.2678C25.4799 35.1009 25.6518 34.9289 25.6518 34.7169V31.4019C25.6518 31.1898 25.4799 31.0179 25.2678 31.0179Z" fill="white" stroke="#000062" stroke-miterlimit="10"/>
<path id="Vector_10" d="M34.406 31.0179H31.091C30.879 31.0179 30.707 31.1898 30.707 31.4019V34.7169C30.707 34.9289 30.879 35.1009 31.091 35.1009H34.406C34.6181 35.1009 34.79 34.9289 34.79 34.7169V31.4019C34.79 31.1898 34.6181 31.0179 34.406 31.0179Z" fill="white" stroke="#000062" stroke-miterlimit="10"/>
<path id="Vector_11" d="M43.5398 31.0179H40.2248C40.0127 31.0179 39.8408 31.1898 39.8408 31.4019V34.7169C39.8408 34.9289 40.0127 35.1009 40.2248 35.1009H43.5398C43.7519 35.1009 43.9238 34.9289 43.9238 34.7169V31.4019C43.9238 31.1898 43.7519 31.0179 43.5398 31.0179Z" fill="white" stroke="#000062" stroke-miterlimit="10"/>
<path id="Vector_12" d="M52.6756 31.0179H49.3606C49.1485 31.0179 48.9766 31.1898 48.9766 31.4019V34.7169C48.9766 34.9289 49.1485 35.1009 49.3606 35.1009H52.6756C52.8876 35.1009 53.0596 34.9289 53.0596 34.7169V31.4019C53.0596 31.1898 52.8876 31.0179 52.6756 31.0179Z" fill="white" stroke="#000062" stroke-miterlimit="10"/>
<path id="Vector_13" d="M23.6289 14.0049H35.9169" stroke="#000062" stroke-miterlimit="10"/>
<path id="Vector_14" d="M37.314 14.0049H39.519" stroke="#000062" stroke-miterlimit="10"/>
<path id="Vector_15" d="M10.6396 0.699997V18.412" stroke="#000062" stroke-miterlimit="10"/>
<path id="Vector_16" d="M10.6396 20.4068V22.4858" stroke="#000062" stroke-miterlimit="10"/>
<path id="Vector_17" d="M37.3141 20.7279C37.8111 20.7279 38.2141 20.325 38.2141 19.8279C38.2141 19.3309 37.8111 18.9279 37.3141 18.9279C36.817 18.9279 36.4141 19.3309 36.4141 19.8279C36.4141 20.325 36.817 20.7279 37.3141 20.7279Z" fill="#000062"/>
</g>
</g>
</svg>
