<svg width="85" height="84" viewBox="0 0 85 84" fill="none" xmlns="http://www.w3.org/2000/svg">
<path d="M55.2554 35.2723C55.8605 32.9918 55.9582 30.6064 55.5414 28.2842C55.1247 25.9619 54.2037 23.7593 52.8434 21.8316C51.483 19.9039 49.7165 18.298 47.6682 17.1271C45.6199 15.9562 43.3397 15.2488 40.9883 15.0547C38.637 14.8606 36.2717 15.1846 34.0591 16.0038C31.8466 16.823 29.8406 18.1175 28.1826 19.796C26.5246 21.4746 25.2549 23.4964 24.463 25.7189C23.6711 27.9413 23.3763 30.3105 23.5994 32.6593C20.0172 32.7683 16.5268 33.8182 13.4789 35.7033C10.431 37.5885 7.93281 40.2426 6.23544 43.399C4.53807 46.5554 3.70125 50.1029 3.80905 53.6851C3.91685 57.2673 4.96547 60.758 6.84958 63.8066C8.73368 66.8552 11.3869 69.3543 14.5427 71.0528C17.6985 72.7512 21.2456 73.5893 24.8279 73.4828C28.4101 73.3762 31.9012 72.3288 34.9505 70.4458C37.9998 68.5628 40.4998 65.9104 42.1994 62.7553C43.7235 66.3937 46.2686 69.5131 49.5271 71.7365C52.7857 73.9598 56.6183 75.1921 60.5621 75.2844C64.5058 75.3768 68.3919 74.3252 71.751 72.2567C75.11 70.1883 77.7983 67.1914 79.491 63.6282C81.1837 60.065 81.8085 56.0879 81.2898 52.1774C80.7712 48.2668 79.1313 44.59 76.5683 41.5913C74.0053 38.5925 70.6288 36.4 66.8467 35.2787C63.0646 34.1573 59.0387 34.1551 55.2554 35.2723Z" fill="#DFE4FF"/>
<path d="M48.4741 58.7168L12.8881 58.7168V51.2168C12.8881 48.576 13.9372 46.0434 15.8045 44.1761C17.6718 42.3088 20.2044 41.2598 22.8451 41.2598H38.5171C41.1579 41.2598 43.6905 42.3088 45.5578 44.1761C47.4251 46.0434 48.4741 48.576 48.4741 51.2168V58.7168Z" fill="white"/>
<path d="M30.6006 41.1517L30.6726 41.2357L32.5116 43.3177L34.0116 45.0007C34.1221 45.1258 34.2742 45.2065 34.4396 45.228C34.6051 45.2495 34.7728 45.2104 34.9116 45.1177L39.0516 42.3517C39.1401 42.293 39.2138 42.2147 39.2671 42.1228C39.3203 42.0309 39.3517 41.928 39.3586 41.8221C39.3656 41.7161 39.348 41.61 39.3072 41.5119C39.2665 41.4139 39.2036 41.3265 39.1236 41.2567L36.7236 39.1567" fill="white"/>
<path d="M30.6006 41.1517L30.6726 41.2357L32.5116 43.3177L34.0116 45.0007C34.1221 45.1258 34.2742 45.2065 34.4396 45.228C34.6051 45.2495 34.7728 45.2104 34.9116 45.1177L39.0516 42.3517C39.1401 42.293 39.2138 42.2147 39.2671 42.1228C39.3203 42.0309 39.3516 41.928 39.3586 41.8221C39.3656 41.7161 39.348 41.61 39.3072 41.5119C39.2665 41.4139 39.2036 41.3265 39.1236 41.2567L36.7236 39.1567" stroke="#000062" stroke-miterlimit="10"/>
<path d="M30.5983 41.1517L30.5263 41.2357L28.6873 43.3177L27.1873 45.0007C27.0768 45.1258 26.9247 45.2065 26.7593 45.228C26.5938 45.2495 26.4261 45.2104 26.2873 45.1177L22.1503 42.3517C22.0618 42.293 21.9881 42.2147 21.9348 42.1228C21.8816 42.0309 21.8503 41.928 21.8433 41.8221C21.8363 41.7161 21.8539 41.61 21.8947 41.5119C21.9354 41.4139 21.9983 41.3265 22.0783 41.2567L24.4783 39.1567" fill="white"/>
<path d="M30.5983 41.1517L30.5263 41.2357L28.6873 43.3177L27.1873 45.0007C27.0768 45.1258 26.9247 45.2065 26.7593 45.228C26.5938 45.2495 26.4261 45.2104 26.2873 45.1177L22.1503 42.3517C22.0618 42.293 21.9881 42.2147 21.9348 42.1228C21.8816 42.0309 21.8503 41.928 21.8433 41.8221C21.8363 41.7161 21.8539 41.61 21.8947 41.5119C21.9354 41.4139 21.9983 41.3265 22.0783 41.2567L24.4783 39.1567" stroke="#000062" stroke-miterlimit="10"/>
<path d="M32.5125 43.3208L32.2785 44.4188C32.0285 45.6029 32.0937 46.8318 32.4675 47.9828L34.0035 52.7198C34.4798 54.1884 34.3591 55.7854 33.6675 57.1658L32.8995 58.7018H28.2975L27.5295 57.1658C26.8378 55.7854 26.7171 54.1884 27.1935 52.7198L28.7295 47.9828C29.1032 46.8318 29.1684 45.6029 28.9185 44.4188L28.6845 43.3208L30.0285 41.9108C30.1102 41.8255 30.2087 41.758 30.3177 41.7127C30.4268 41.6674 30.5441 41.6451 30.6622 41.6474C30.7803 41.6496 30.8967 41.6763 31.0039 41.7258C31.1112 41.7753 31.2071 41.8464 31.2855 41.9348L32.5125 43.3208Z" fill="white" stroke="#000062" stroke-miterlimit="10"/>
<path d="M30.5971 41.2388H30.6001C36.1224 41.2388 40.5991 36.7621 40.5991 31.2398V24.0368C40.5991 18.5145 36.1224 14.0378 30.6001 14.0378H30.5971C25.0748 14.0378 20.5981 18.5145 20.5981 24.0368L20.5981 31.2398C20.5981 36.7621 25.0748 41.2388 30.5971 41.2388Z" fill="white" stroke="#000062" stroke-miterlimit="10"/>
<path d="M40.6025 27.6519C40.6025 27.6519 37.3205 25.3779 35.6165 23.6619C35.3183 23.3581 34.9189 23.1743 34.4942 23.1456C34.0694 23.1168 33.6489 23.245 33.3125 23.5059C30.5675 25.6569 24.2645 29.9349 20.6045 27.1059" stroke="#000062" stroke-miterlimit="10"/>
<path d="M30.5254 41.2388H30.5284H30.6724H30.6754" stroke="#000062" stroke-miterlimit="10"/>
<path d="M42.5718 58.7047H12.7998V51.2047C12.7993 48.681 13.7571 46.2512 15.4797 44.4067C17.2022 42.5622 19.5609 41.4406 22.0788 41.2687" stroke="#000062" stroke-miterlimit="10"/>
<path d="M39.1201 41.2629C41.1174 41.3927 43.0284 42.1249 44.6011 43.3629" stroke="#000062" stroke-miterlimit="10"/>
<path d="M32.6478 48.5408H28.5498" stroke="#000062" stroke-miterlimit="10"/>
<path d="M43.3438 53.4548V58.3568" stroke="#000062" stroke-miterlimit="10"/>
<path d="M17.8555 53.4548V58.7048" stroke="#000062" stroke-miterlimit="10"/>
<path d="M72.6992 75.0938H37.0982V67.5937C37.0982 64.953 38.1473 62.4204 40.0146 60.5531C41.8819 58.6858 44.4145 57.6367 47.0552 57.6367H62.7422C65.383 57.6367 67.9156 58.6858 69.7829 60.5531C71.6502 62.4204 72.6992 64.953 72.6992 67.5937V75.0938Z" fill="white" stroke="#000062" stroke-miterlimit="10"/>
<path d="M54.8208 56.6466L54.8928 56.7306L56.7318 58.8126L58.2318 60.4956C58.3423 60.6206 58.4944 60.7013 58.6599 60.7228C58.8253 60.7444 58.993 60.7052 59.1318 60.6126L63.2718 57.8466C63.3603 57.7878 63.434 57.7095 63.4873 57.6176C63.5405 57.5258 63.5719 57.4228 63.5788 57.3169C63.5858 57.2109 63.5682 57.1048 63.5274 57.0067C63.4867 56.9087 63.4238 56.8213 63.3438 56.7516L60.9438 54.6516" fill="white"/>
<path d="M54.8208 56.6466L54.8928 56.7306L56.7318 58.8126L58.2318 60.4956C58.3423 60.6206 58.4944 60.7013 58.6599 60.7228C58.8253 60.7444 58.993 60.7052 59.1318 60.6126L63.2718 57.8466C63.3603 57.7878 63.434 57.7095 63.4873 57.6176C63.5405 57.5258 63.5719 57.4228 63.5788 57.3169C63.5858 57.2109 63.5682 57.1048 63.5274 57.0067C63.4867 56.9087 63.4238 56.8213 63.3438 56.7516L60.9438 54.6516" stroke="#000062" stroke-miterlimit="10"/>
<path d="M54.819 56.6466L54.747 56.7306L52.908 58.8126L51.408 60.4956C51.2975 60.6206 51.1454 60.7013 50.98 60.7228C50.8145 60.7444 50.6468 60.7052 50.508 60.6126L46.371 57.8466C46.2825 57.7878 46.2088 57.7095 46.1555 57.6176C46.1023 57.5258 46.071 57.4228 46.064 57.3169C46.057 57.2109 46.0746 57.1048 46.1154 57.0067C46.1561 56.9087 46.219 56.8213 46.299 56.7516L48.699 54.6516" fill="white"/>
<path d="M54.819 56.6466L54.747 56.7306L52.908 58.8126L51.408 60.4956C51.2975 60.6206 51.1454 60.7013 50.98 60.7228C50.8145 60.7444 50.6468 60.7052 50.508 60.6126L46.371 57.8466C46.2825 57.7878 46.2088 57.7095 46.1555 57.6176C46.1023 57.5258 46.071 57.4228 46.064 57.3169C46.057 57.2109 46.0746 57.1048 46.1154 57.0067C46.1561 56.9087 46.219 56.8213 46.299 56.7516L48.699 54.6516" stroke="#000062" stroke-miterlimit="10"/>
<path d="M56.7327 58.8157L56.4987 59.9137C56.2487 61.0977 56.3139 62.3267 56.6877 63.4777L58.2237 68.2147C58.7 69.6833 58.5793 71.2803 57.8877 72.6607L57.1197 74.1967H52.5177L51.7497 72.6607C51.058 71.2803 50.9373 69.6833 51.4137 68.2147L52.9497 63.4777C53.3234 62.3267 53.3886 61.0977 53.1387 59.9137L52.9047 58.8157L54.2487 57.4057C54.3304 57.3203 54.4289 57.2529 54.538 57.2076C54.647 57.1622 54.7643 57.14 54.8824 57.1422C55.0005 57.1445 55.1169 57.1712 55.2241 57.2207C55.3314 57.2701 55.4273 57.3413 55.5057 57.4297L56.7327 58.8157Z" fill="white" stroke="#000062" stroke-miterlimit="10"/>
<path d="M41.8623 69.8557V75.1057" stroke="#000062" stroke-miterlimit="10"/>
<path d="M54.6601 56.7515H54.6631C60.1854 56.7515 64.6621 52.2748 64.6621 46.7525V39.5495C64.6621 34.0272 60.1854 29.5505 54.6631 29.5505H54.6601C49.1378 29.5505 44.6611 34.0272 44.6611 39.5495V46.7525C44.6611 52.2748 49.1378 56.7515 54.6601 56.7515Z" fill="white" stroke="#000062" stroke-miterlimit="10"/>
<path d="M44.5611 41.7621C44.5611 41.7621 47.8431 39.4881 49.5471 37.7721C49.8453 37.4683 50.2447 37.2846 50.6694 37.2558C51.0941 37.227 51.5147 37.3553 51.8511 37.6161C54.5961 39.7671 60.8991 44.0451 64.5591 41.2161" stroke="#000062" stroke-miterlimit="10"/>
<path d="M72.6987 75.0938H37.0977V67.5938C37.0977 64.953 38.1468 62.4204 40.0141 60.5531C41.8814 58.6858 44.414 57.6368 47.0547 57.6368H62.7417C65.3825 57.6368 67.9151 58.6858 69.7824 60.5531C71.6497 62.4204 72.6987 64.953 72.6987 67.5938V75.0938Z" fill="white" stroke="#7F92FF" stroke-miterlimit="10"/>
<path d="M54.8203 56.6466L54.8923 56.7306L56.7313 58.8126L58.2313 60.4956C58.3418 60.6206 58.4939 60.7014 58.6594 60.7229C58.8248 60.7444 58.9925 60.7052 59.1313 60.6126L63.2713 57.8466C63.3598 57.7879 63.4335 57.7096 63.4868 57.6177C63.54 57.5258 63.5714 57.4229 63.5783 57.3169C63.5853 57.211 63.5677 57.1048 63.527 57.0068C63.4862 56.9087 63.4233 56.8214 63.3433 56.7516L60.9433 54.6516" fill="white"/>
<path d="M54.8203 56.6466L54.8923 56.7306L56.7313 58.8126L58.2313 60.4956C58.3418 60.6206 58.4939 60.7014 58.6594 60.7229C58.8248 60.7444 58.9925 60.7052 59.1313 60.6126L63.2713 57.8466C63.3598 57.7879 63.4335 57.7096 63.4868 57.6177C63.54 57.5258 63.5714 57.4229 63.5783 57.3169C63.5853 57.211 63.5677 57.1048 63.527 57.0068C63.4862 56.9087 63.4233 56.8214 63.3433 56.7516L60.9433 54.6516" stroke="#7F92FF" stroke-miterlimit="10"/>
<path d="M54.8185 56.6466L54.7465 56.7306L52.9075 58.8126L51.4075 60.4956C51.297 60.6206 51.1449 60.7014 50.9795 60.7229C50.814 60.7444 50.6463 60.7052 50.5075 60.6126L46.3705 57.8466C46.282 57.7879 46.2083 57.7096 46.155 57.6177C46.1018 57.5258 46.0705 57.4229 46.0635 57.3169C46.0565 57.211 46.0741 57.1048 46.1149 57.0068C46.1556 56.9087 46.2185 56.8214 46.2985 56.7516L48.6985 54.6516" fill="white"/>
<path d="M54.8185 56.6466L54.7465 56.7306L52.9075 58.8126L51.4075 60.4956C51.297 60.6206 51.1449 60.7014 50.9795 60.7229C50.814 60.7444 50.6463 60.7052 50.5075 60.6126L46.3705 57.8466C46.282 57.7879 46.2083 57.7096 46.155 57.6177C46.1018 57.5258 46.0705 57.4229 46.0635 57.3169C46.0565 57.211 46.0741 57.1048 46.1149 57.0068C46.1556 56.9087 46.2185 56.8214 46.2985 56.7516L48.6985 54.6516" stroke="#7F92FF" stroke-miterlimit="10"/>
<path d="M56.7327 58.8157L56.4987 59.9137C56.2487 61.0978 56.3139 62.3267 56.6877 63.4777L58.2237 68.2147C58.7 69.6833 58.5793 71.2804 57.8877 72.6607L57.1197 74.1967H52.5177L51.7497 72.6607C51.058 71.2804 50.9373 69.6833 51.4137 68.2147L52.9497 63.4777C53.3234 62.3267 53.3886 61.0978 53.1387 59.9137L52.9047 58.8157L54.2487 57.4057C54.3304 57.3204 54.4289 57.253 54.538 57.2076C54.647 57.1623 54.7643 57.1401 54.8824 57.1423C55.0005 57.1446 55.1169 57.1713 55.2241 57.2207C55.3314 57.2702 55.4273 57.3414 55.5057 57.4297L56.7327 58.8157Z" fill="white" stroke="#7F92FF" stroke-miterlimit="10"/>
<path d="M41.8618 69.8558V75.1058" stroke="#7F92FF" stroke-miterlimit="10"/>
<path d="M54.6601 56.7516H54.6631C60.1854 56.7516 64.6621 52.2749 64.6621 46.7526V39.5496C64.6621 34.0273 60.1854 29.5506 54.6631 29.5506H54.6601C49.1378 29.5506 44.6611 34.0273 44.6611 39.5496V46.7526C44.6611 52.2749 49.1378 56.7516 54.6601 56.7516Z" fill="white" stroke="#7F92FF" stroke-miterlimit="10"/>
<path d="M44.5606 41.7622C44.5606 41.7622 47.8426 39.4882 49.5466 37.7722C49.8448 37.4684 50.2442 37.2846 50.6689 37.2559C51.0937 37.2271 51.5142 37.3553 51.8506 37.6162C54.5956 39.7672 60.8986 44.0452 64.5586 41.2162" stroke="#7F92FF" stroke-miterlimit="10"/>
<path d="M17.1383 13.038H16.6103V12.51C16.6103 12.3378 16.5419 12.1726 16.4201 12.0508C16.2983 11.929 16.133 11.8605 15.9608 11.8605C15.7885 11.8605 15.6233 11.929 15.5015 12.0508C15.3797 12.1726 15.3113 12.3378 15.3113 12.51V13.038H14.7833C14.611 13.038 14.4458 13.1065 14.324 13.2283C14.2022 13.3501 14.1338 13.5153 14.1338 13.6875C14.1338 13.8598 14.2022 14.025 14.324 14.1468C14.4458 14.2686 14.611 14.337 14.7833 14.337H15.3113V14.865C15.3113 15.0373 15.3797 15.2025 15.5015 15.3243C15.6233 15.4461 15.7885 15.5145 15.9608 15.5145C16.133 15.5145 16.2983 15.4461 16.4201 15.3243C16.5419 15.2025 16.6103 15.0373 16.6103 14.865V14.337H17.1383C17.3105 14.337 17.4758 14.2686 17.5976 14.1468C17.7194 14.025 17.7878 13.8598 17.7878 13.6875C17.7878 13.5153 17.7194 13.3501 17.5976 13.2283C17.4758 13.1065 17.3105 13.038 17.1383 13.038Z" fill="#5E1AD5"/>
<path d="M75.1788 39.477H74.6508V38.949C74.6508 38.7767 74.5824 38.6115 74.4606 38.4897C74.3388 38.3679 74.1736 38.2995 74.0013 38.2995C73.8291 38.2995 73.6639 38.3679 73.5421 38.4897C73.4203 38.6115 73.3518 38.7767 73.3518 38.949V39.477H72.8238C72.6516 39.477 72.4864 39.5454 72.3646 39.6672C72.2427 39.789 72.1743 39.9542 72.1743 40.1265C72.1743 40.2988 72.2427 40.464 72.3646 40.5858C72.4864 40.7076 72.6516 40.776 72.8238 40.776H73.3518V41.304C73.3518 41.4763 73.4203 41.6415 73.5421 41.7633C73.6639 41.8851 73.8291 41.9535 74.0013 41.9535C74.1736 41.9535 74.3388 41.8851 74.4606 41.7633C74.5824 41.6415 74.6508 41.4763 74.6508 41.304V40.776H75.1788C75.3511 40.776 75.5163 40.7076 75.6381 40.5858C75.7599 40.464 75.8283 40.2988 75.8283 40.1265C75.8283 39.9542 75.7599 39.789 75.6381 39.6672C75.5163 39.5454 75.3511 39.477 75.1788 39.477Z" fill="#5E1AD5"/>
<path d="M28.1016 65.6197H27.5766V65.0857C27.5611 64.9254 27.4865 64.7766 27.3672 64.6683C27.248 64.56 27.0927 64.5 26.9316 64.5C26.7705 64.5 26.6152 64.56 26.496 64.6683C26.3767 64.7766 26.3021 64.9254 26.2866 65.0857V65.6137H25.7496C25.5773 65.6137 25.4121 65.6821 25.2903 65.804C25.1685 65.9258 25.1001 66.091 25.1001 66.2632C25.1001 66.4355 25.1685 66.6007 25.2903 66.7225C25.4121 66.8443 25.5773 66.9127 25.7496 66.9127H26.2866V67.4407C26.2866 67.613 26.355 67.7782 26.4768 67.9C26.5986 68.0218 26.7638 68.0902 26.9361 68.0902C27.1084 68.0902 27.2736 68.0218 27.3954 67.9C27.5172 67.7782 27.5856 67.613 27.5856 67.4407V66.9187H28.1136C28.2859 66.9187 28.4511 66.8503 28.5729 66.7285C28.6947 66.6067 28.7631 66.4415 28.7631 66.2692C28.7631 66.097 28.6947 65.9318 28.5729 65.81C28.4511 65.6881 28.2859 65.6197 28.1136 65.6197H28.1016Z" fill="#5E1AD5"/>
</svg>
