<svg width="67" height="47" viewBox="0 0 67 47" fill="none" xmlns="http://www.w3.org/2000/svg">
<g id="main-shape">
<g id="vectors">
<path id="Vector" d="M55.6639 17.9067H2.2459C1.77867 17.9067 1.3999 18.2855 1.3999 18.7527V45.2157C1.3999 45.683 1.77867 46.0617 2.2459 46.0617H55.6639C56.1311 46.0617 56.5099 45.683 56.5099 45.2157V18.7527C56.5099 18.2855 56.1311 17.9067 55.6639 17.9067Z" fill="white"/>
<path id="Vector_2" d="M49.6033 25.4161H49.2163C49.1323 25.4161 49.0513 25.4161 48.9673 25.4161H48.8683L48.6703 25.3891H48.6493H48.6193H48.6013C48.5001 25.3706 48.4 25.3465 48.3013 25.3171H48.2833C48.2053 25.2931 48.1273 25.2631 48.0554 25.2331L47.9953 25.2061C47.9354 25.1791 47.8783 25.1491 47.8214 25.1191L47.7733 25.0921C47.7153 25.0573 47.6592 25.0192 47.6054 24.9781L47.5783 24.9601L47.5273 24.9151L47.4583 24.8491L47.4103 24.8011C47.3803 24.7678 47.3523 24.7327 47.3263 24.6961L47.2963 24.6481C47.2765 24.6172 47.2585 24.5851 47.2423 24.5521L47.2273 24.5221C47.2097 24.4794 47.1956 24.4352 47.1853 24.3901V24.3541C47.1758 24.3067 47.1708 24.2585 47.1703 24.2101C47.173 24.1672 47.173 24.1241 47.1703 24.0811C47.1576 24.0137 47.1365 23.9482 47.1073 23.8861V23.8651C47.1073 23.8411 47.0803 23.8141 47.0653 23.7901L47.0443 23.7571L46.9993 23.6941L46.9663 23.6521L46.9183 23.5981L46.8643 23.5441L46.8223 23.5051L46.7294 23.4301C46.6874 23.4001 46.6453 23.3701 46.6003 23.3431C46.5042 23.2866 46.4039 23.2374 46.3003 23.1961H46.2794L46.1413 23.1451H46.1023L45.9493 23.0461H45.9013L45.7693 23.0161H45.7183L45.5833 22.9951H45.5263H45.3943C45.3043 22.9951 45.2143 22.9951 45.1243 22.9951H12.7993C12.6133 22.9956 12.4277 23.0116 12.2443 23.0431C12.1371 23.0613 12.0309 23.0853 11.9263 23.1151C11.6019 23.2005 11.3039 23.3655 11.0593 23.5951L10.9873 23.6791C10.9663 23.7061 10.9453 23.7361 10.9273 23.7631C10.9087 23.7922 10.8917 23.8222 10.8763 23.8531C10.844 23.9197 10.8208 23.9903 10.8073 24.0631C10.8048 24.1051 10.8048 24.1472 10.8073 24.1891C10.807 24.2375 10.8019 24.2857 10.7923 24.3331V24.3661C10.7813 24.4123 10.7663 24.4575 10.7473 24.5011V24.5191C10.729 24.5585 10.7079 24.5966 10.6843 24.6331L10.6633 24.6661C10.6349 24.7071 10.6039 24.7462 10.5703 24.7831L10.5463 24.8101C10.5131 24.8449 10.478 24.878 10.4413 24.9091L10.4203 24.9271L10.3573 24.9721L10.2313 25.0591L10.1413 25.1101L9.94935 25.1461L9.82635 25.2001L9.72735 25.2361L9.58635 25.2841H9.56835L9.43935 25.3171C9.39135 25.3171 9.34335 25.3441 9.28935 25.3501H9.23835L9.04035 25.3771H8.94135C8.86035 25.3771 8.77635 25.3771 8.69235 25.3771H8.31135C8.01519 25.3762 7.72035 25.4166 7.43535 25.4971C6.73935 25.6951 6.25635 26.1211 6.25635 26.6191V37.2781C6.25635 37.9621 7.17735 38.5201 8.31135 38.5201H8.69835C8.78235 38.5201 8.86335 38.5201 8.94735 38.5201H9.04635L9.24435 38.5471H9.27135H9.30135H9.31935C9.42058 38.5657 9.52073 38.5897 9.61935 38.6191H9.63735C9.71535 38.6431 9.79335 38.6731 9.86535 38.7031L9.92535 38.7301C9.98535 38.7571 10.0423 38.7871 10.0993 38.8171L10.1473 38.8441C10.2054 38.879 10.2615 38.9171 10.3153 38.9581L10.3423 38.9761L10.3933 39.0211L10.4623 39.0871L10.5103 39.1351C10.5404 39.1684 10.5684 39.2035 10.5943 39.2401L10.6243 39.2881C10.6442 39.319 10.6622 39.3511 10.6783 39.3841L10.6933 39.4141C10.7111 39.4569 10.7251 39.501 10.7353 39.5461V39.5821C10.7449 39.6295 10.7499 39.6778 10.7503 39.7261C10.7477 39.7691 10.7477 39.8122 10.7503 39.8551C10.7631 39.9225 10.7842 39.988 10.8133 40.0501V40.0711C10.8133 40.0951 10.8403 40.1221 10.8553 40.1461L10.8763 40.1791L10.9213 40.2421L10.9543 40.2841L11.0023 40.3381L11.0563 40.3921L11.0983 40.4311L11.1913 40.5061C11.2333 40.5361 11.2753 40.5661 11.3203 40.5931C11.4165 40.6497 11.5168 40.6988 11.6203 40.7401H11.6413L11.7793 40.7911H11.8153L11.9473 40.8301H11.9953L12.1273 40.8601H12.1783L12.3133 40.8811H12.3703H12.5023C12.5893 40.8811 12.6793 40.8811 12.7723 40.8811H45.1124C45.2984 40.8806 45.484 40.8646 45.6673 40.8331C45.7746 40.815 45.8807 40.7909 45.9853 40.7611C46.3098 40.6757 46.6078 40.5108 46.8523 40.2811L46.9243 40.1971C46.9453 40.1701 46.9663 40.1401 46.9843 40.1131C47.003 40.0841 47.02 40.054 47.0353 40.0231C47.0677 39.9566 47.0909 39.8859 47.1044 39.8131C47.1069 39.7712 47.1069 39.7291 47.1044 39.6871C47.1047 39.6387 47.1098 39.5905 47.1193 39.5431V39.5101C47.1304 39.4639 47.1454 39.4187 47.1643 39.3751V39.3571C47.1827 39.3177 47.2038 39.2796 47.2273 39.2431L47.2483 39.2101C47.2768 39.1691 47.3078 39.1301 47.3413 39.0931L47.3653 39.0661C47.3986 39.0313 47.4337 38.9983 47.4704 38.9671L47.4913 38.9491L47.5544 38.9041L47.6833 38.8171L47.7733 38.7661L47.8874 38.7091L48.0103 38.6551L48.1063 38.6191L48.2473 38.5711H48.2654L48.3913 38.5381C48.4394 38.5381 48.4903 38.5111 48.5413 38.5051H48.5923L48.7903 38.4781H48.8894C48.9703 38.4781 49.0544 38.4781 49.1384 38.4781H49.5253C49.8215 38.479 50.1163 38.4386 50.4013 38.3581C51.0973 38.1601 51.5803 37.7311 51.5803 37.2361V26.6461C51.6493 25.9711 50.7493 25.4161 49.6033 25.4161Z" fill="white"/>
<path id="Vector_3" d="M10.6399 17.9972H2.1499C2.05198 17.9956 1.95472 18.0135 1.8638 18.0499C1.77287 18.0862 1.69009 18.1403 1.62028 18.209C1.55048 18.2777 1.49504 18.3596 1.4572 18.4499C1.41937 18.5403 1.39989 18.6372 1.3999 18.7352V45.4112C1.40029 45.5088 1.42006 45.6055 1.45807 45.6955C1.49609 45.7854 1.55158 45.867 1.62135 45.9354C1.69111 46.0037 1.77376 46.0576 1.86449 46.0938C1.95522 46.1299 2.05223 46.1478 2.1499 46.1462H10.8499" stroke="#000062" stroke-miterlimit="10"/>
<path id="Vector_4" d="M56.5097 29.0459V45.4019C56.5097 45.5976 56.432 45.7853 56.2936 45.9237C56.1551 46.0621 55.9674 46.1399 55.7717 46.1399H15.1997" stroke="#000062" stroke-miterlimit="10"/>
<path id="Vector_5" d="M51.6499 29.0457V37.3917C51.6499 37.8867 51.1669 38.3157 50.4709 38.5137C50.1859 38.594 49.8911 38.6344 49.5949 38.6337H49.2079C49.1239 38.6337 49.0429 38.6337 48.9589 38.6337H48.8629L48.6649 38.6607H48.6139L48.4639 38.6937L48.3379 38.7237H48.3199L48.1819 38.7717L48.0859 38.8077C48.0438 38.823 48.0027 38.841 47.9629 38.8617L47.8489 38.9187L47.7589 38.9697L47.6299 39.0567L47.5669 39.1047L47.5489 39.1197C47.5111 39.1506 47.475 39.1837 47.4409 39.2187L47.4169 39.2457C47.3831 39.2824 47.352 39.3215 47.3239 39.3627L47.3029 39.3927C47.2794 39.4292 47.2584 39.4673 47.2399 39.5067V39.5247C47.2201 39.5679 47.2051 39.6132 47.1949 39.6597V39.6927C47.1859 39.7402 47.1809 39.7883 47.1799 39.8367C47.1825 39.8786 47.1825 39.9207 47.1799 39.9627C47.1674 40.0366 47.1441 40.1084 47.1109 40.1757C47.096 40.2078 47.079 40.2388 47.0599 40.2687C47.0414 40.2977 47.0214 40.3257 46.9999 40.3527C46.9759 40.3827 46.9519 40.4097 46.9279 40.4367C46.6835 40.6665 46.3854 40.8315 46.0609 40.9167C45.9564 40.9468 45.8502 40.9708 45.7429 40.9887C45.5595 41.0198 45.3739 41.0359 45.1879 41.0367H12.7999C12.7069 41.0367 12.6199 41.0367 12.5299 41.0367H12.3949H12.3409C12.2956 41.0322 12.2505 41.0252 12.2059 41.0157H12.1549L12.0199 40.9857H11.9719L11.8399 40.9467H11.8039L11.6659 40.8957H11.6419C11.5385 40.8527 11.4383 40.8026 11.3419 40.7457C11.2969 40.7197 11.2538 40.6907 11.2129 40.6587H11.1979L11.1049 40.5837L11.0629 40.5477L11.0119 40.4937L10.9639 40.4427L10.9309 40.4007L10.8859 40.3377L10.8649 40.3047C10.8649 40.2807 10.8349 40.2537 10.8259 40.2327V40.2117C10.7973 40.1483 10.7762 40.0819 10.7629 40.0137C10.7603 39.9717 10.7603 39.9296 10.7629 39.8877C10.7632 39.8393 10.7582 39.791 10.7479 39.7437V39.7077C10.7375 39.6626 10.7235 39.6184 10.7059 39.5757L10.6909 39.5457C10.6759 39.5127 10.6579 39.4797 10.6399 39.4497L10.6099 39.4017C10.585 39.3643 10.5569 39.3292 10.5259 39.2967L10.4809 39.2487L10.4089 39.1827L10.3579 39.1377L10.3309 39.1197C10.2774 39.0781 10.2213 39.04 10.1629 39.0057L10.1119 38.9757L9.93791 38.8887L9.87791 38.8617C9.80591 38.8317 9.73091 38.8047 9.64991 38.7777H9.63491C9.54191 38.7507 9.44591 38.7267 9.33491 38.7057H9.31991H9.28991H9.25991C9.19691 38.7057 9.13091 38.6847 9.06191 38.6787H8.96291C8.88191 38.6787 8.80091 38.6787 8.71691 38.6787H8.30891C7.17791 38.6787 6.25391 38.1237 6.25391 37.4367V26.7417C6.25391 26.2467 6.73691 25.8207 7.43291 25.6197C7.71791 25.5391 8.01275 25.4988 8.30891 25.4997H8.69591C8.77991 25.4997 8.86091 25.4997 8.94191 25.4997H9.03791C9.10691 25.4997 9.17291 25.4847 9.23591 25.4697H9.28691C9.33748 25.4615 9.38756 25.4504 9.43691 25.4367L9.56591 25.4067H9.58091C9.63191 25.4067 9.67391 25.3767 9.72191 25.3587L9.81791 25.3227L9.93791 25.2717L10.0519 25.2147L10.1419 25.1637C10.1865 25.1371 10.2296 25.1081 10.2709 25.0767L10.3339 25.0317L10.3519 25.0137C10.3897 24.9827 10.4258 24.9497 10.4599 24.9147L10.4869 24.8877C10.5209 24.8522 10.552 24.8141 10.5799 24.7737L10.6009 24.7407C10.6134 24.7215 10.6244 24.7015 10.6339 24.6807" stroke="#000062" stroke-miterlimit="10"/>
<path id="Vector_6" d="M28.9531 41.1267V37.8867V32.0157V29.0547" stroke="#000062" stroke-miterlimit="10"/>
<path id="Vector_7" d="M16.1821 41.1267V29.0547" stroke="#000062" stroke-miterlimit="10"/>
<path id="Vector_8" d="M41.729 41.1267V29.0547" stroke="#000062" stroke-miterlimit="10"/>
<path id="Vector_9" d="M64.9032 0.899902H11.4852C11.0179 0.899902 10.6392 1.27867 10.6392 1.7459V28.2089C10.6392 28.6761 11.0179 29.0549 11.4852 29.0549H64.9032C65.3704 29.0549 65.7492 28.6761 65.7492 28.2089V1.7459C65.7492 1.27867 65.3704 0.899902 64.9032 0.899902Z" fill="white" stroke="#000062" stroke-miterlimit="10"/>
<path id="Vector_10" d="M58.8487 8.40593H58.4617C58.3777 8.40593 58.2967 8.40593 58.2127 8.40593H58.1137L57.9157 8.37893H57.8887H57.8587H57.8407C57.7394 8.36038 57.6393 8.33634 57.5407 8.30693H57.5227C57.4447 8.28293 57.3667 8.25293 57.2947 8.22293L57.2347 8.19593C57.1747 8.16893 57.1177 8.13893 57.0607 8.10893L57.0127 8.08193C56.9546 8.04707 56.8985 8.00902 56.8447 7.96793L56.8177 7.94993L56.7667 7.90493L56.6977 7.83893L56.6497 7.79093C56.6196 7.75761 56.5916 7.72255 56.5657 7.68593L56.5357 7.63793C56.5158 7.60701 56.4978 7.57495 56.4817 7.54193L56.4667 7.51193C56.449 7.46919 56.4349 7.42503 56.4247 7.37993V7.34393C56.4151 7.29651 56.4101 7.2483 56.4097 7.19993C56.4123 7.15697 56.4123 7.11389 56.4097 7.07093C56.3969 7.00354 56.3758 6.93802 56.3467 6.87593V6.85493C56.3467 6.83093 56.3197 6.80393 56.3047 6.77993L56.2837 6.74693L56.2387 6.68393L56.2057 6.64193L56.1487 6.54593L56.0947 6.49193L56.0527 6.45293L55.9597 6.37793C55.9177 6.34793 55.8757 6.31793 55.8307 6.29093C55.7346 6.23438 55.6343 6.18524 55.5307 6.14393H55.5097L55.3717 6.09293H55.3327L55.2007 6.05393H55.1527L55.0207 6.02393H54.9697L54.8347 6.00293H54.7777H54.6457C54.5557 6.00293 54.4657 6.00293 54.3757 6.00293H22.0387C21.8527 6.0034 21.667 6.01946 21.4837 6.05093C21.3764 6.06908 21.2703 6.09312 21.1657 6.12293C20.8412 6.2083 20.5432 6.37328 20.2987 6.60293L20.2267 6.68693C20.2057 6.71393 20.1847 6.74393 20.1667 6.77093C20.148 6.79998 20.131 6.83002 20.1157 6.86093C20.0833 6.9275 20.0601 6.99814 20.0467 7.07093C20.0442 7.11289 20.0442 7.15497 20.0467 7.19693C20.0463 7.2453 20.0413 7.29352 20.0317 7.34093V7.37393C20.0206 7.42015 20.0056 7.46533 19.9867 7.50893V7.52693C19.9683 7.56633 19.9473 7.60442 19.9237 7.64093L19.9027 7.67393C19.8743 7.71491 19.8432 7.754 19.8097 7.79093L19.7857 7.81793C19.7524 7.85273 19.7174 7.88578 19.6807 7.91693L19.6597 7.93493L19.5967 7.97993L19.4707 8.06693L19.3807 8.11793L19.2667 8.17493L19.1437 8.22893L19.0447 8.26493L18.9037 8.31293H18.8857L18.7567 8.34593C18.7087 8.34593 18.6607 8.37293 18.6067 8.37893H18.5557L18.3577 8.40593H18.2587C18.1777 8.40593 18.0937 8.40593 18.0097 8.40593H17.5477C17.2515 8.40502 16.9567 8.44541 16.6717 8.52593C15.9757 8.72393 15.4927 9.14993 15.4927 9.64793V20.3069C15.4927 20.9909 16.4137 21.5489 17.5477 21.5489H17.9347C18.0187 21.5489 18.0997 21.5489 18.1837 21.5489H18.2827L18.4807 21.5759H18.5077H18.5377H18.5557C18.6569 21.5945 18.7571 21.6185 18.8557 21.6479H18.8737C18.9517 21.6719 19.0297 21.7019 19.1017 21.7319L19.1617 21.7589C19.2217 21.7859 19.2787 21.8159 19.3357 21.8459L19.3837 21.8729C19.4417 21.9078 19.4978 21.9459 19.5517 21.9869L19.5787 22.0049L19.6297 22.0499L19.6987 22.1159L19.7467 22.1639C19.7767 22.1973 19.8048 22.2323 19.8307 22.2689L19.8607 22.3169C19.8805 22.3479 19.8986 22.3799 19.9147 22.4129L19.9297 22.4429C19.9474 22.4857 19.9614 22.5298 19.9717 22.5749V22.6109C19.9812 22.6583 19.9862 22.7066 19.9867 22.7549C19.984 22.7979 19.984 22.841 19.9867 22.8839C19.9994 22.9513 20.0206 23.0168 20.0497 23.0789V23.0999C20.0497 23.1239 20.0767 23.1509 20.0917 23.1749L20.1127 23.2079L20.1577 23.2709L20.1907 23.3129L20.2387 23.3669L20.2927 23.4209L20.3347 23.4599L20.4277 23.5349C20.4697 23.5649 20.5117 23.5949 20.5567 23.6219C20.6528 23.6785 20.7531 23.7276 20.8567 23.7689H20.8777L21.0157 23.8199H21.0517L21.1837 23.8589H21.2317L21.3637 23.8889H21.4147L21.5497 23.9099H21.6067H21.7387C21.8257 23.9099 21.9157 23.9099 22.0087 23.9099H54.3487C54.5347 23.9095 54.7203 23.8934 54.9037 23.8619C55.0109 23.8438 55.1171 23.8197 55.2217 23.7899C55.5461 23.7046 55.8441 23.5396 56.0887 23.3099L56.1607 23.2259C56.1817 23.1989 56.2027 23.1689 56.2207 23.1419C56.2393 23.1129 56.2563 23.0828 56.2717 23.0519C56.3041 22.9854 56.3273 22.9147 56.3407 22.8419C56.3432 22.8 56.3432 22.7579 56.3407 22.7159C56.3411 22.6676 56.3461 22.6193 56.3557 22.5719V22.5389C56.3667 22.4927 56.3818 22.4475 56.4007 22.4039V22.3859C56.419 22.3465 56.4401 22.3084 56.4637 22.2719L56.4847 22.2389C56.5131 22.1979 56.5442 22.1589 56.5777 22.1219L56.6017 22.0949C56.6349 22.0601 56.67 22.0271 56.7067 21.9959L56.7277 21.9779L56.7907 21.9329L56.9197 21.8459L57.0097 21.7949L57.1237 21.7379L57.2467 21.6839L57.3427 21.6479L57.4837 21.5999H57.5017L57.6277 21.5669C57.6757 21.5669 57.7267 21.5399 57.7777 21.5339H57.8287L58.0267 21.5069H58.1257C58.2067 21.5069 58.2907 21.5069 58.3747 21.5069H58.8487C59.1448 21.5078 59.4397 21.4675 59.7247 21.3869C60.4207 21.1889 60.9037 20.7599 60.9037 20.2649V9.64793C60.8947 8.96093 59.9737 8.40593 58.8487 8.40593Z" fill="white" stroke="#000062" stroke-miterlimit="10"/>
<path id="Vector_11" d="M38.1943 5.92188V9.15887V20.7929V24.0299" stroke="#000062" stroke-miterlimit="10"/>
<path id="Vector_12" d="M25.4233 5.92188V24.0299" stroke="#000062" stroke-miterlimit="10"/>
<path id="Vector_13" d="M50.9653 5.92188V24.0299" stroke="#000062" stroke-miterlimit="10"/>
<path id="Vector_14" d="M13.0232 46.8687C13.4209 46.8687 13.7432 46.5464 13.7432 46.1487C13.7432 45.7511 13.4209 45.4287 13.0232 45.4287C12.6256 45.4287 12.3032 45.7511 12.3032 46.1487C12.3032 46.5464 12.6256 46.8687 13.0232 46.8687Z" fill="#000062"/>
<path id="Vector_15" d="M29.9468 5.92188V11.9939" stroke="#000062" stroke-miterlimit="10"/>
<path id="Vector_16" d="M29.9468 13.293V14.745" stroke="#000062" stroke-miterlimit="10"/>
</g>
</g>
</svg>
