<svg width="64" height="55" viewBox="0 0 64 55" fill="none" xmlns="http://www.w3.org/2000/svg">
<g id="main-shape">
<g id="vectors">
<g id="Vector">
<path d="M18.8821 12.1118L15.5941 14.8868L14.8501 15.5168V53.9228H24.4501V17.0168" fill="white"/>
<path d="M18.8821 12.1118L15.5941 14.8868L14.8501 15.5168V53.9228H24.4501V17.0168" stroke="#000062" stroke-miterlimit="10"/>
</g>
<g id="Vector_2">
<path d="M5.25 23.9472V53.9231H14.85V15.9312" fill="white"/>
<path d="M5.25 23.9472V53.9231H14.85V15.9312" stroke="#000062" stroke-miterlimit="10"/>
</g>
<g id="Vector_3">
<path d="M53.2499 41.2391V12.2891L43.6499 20.4311V53.9231H53.2499V45.5621" fill="white"/>
<path d="M53.2499 41.2391V12.2891L43.6499 20.4311V53.9231H53.2499V45.5621" stroke="#000062" stroke-miterlimit="10"/>
</g>
<g id="Vector_4">
<path d="M24.4502 17.416V53.923H34.0502V28.405" fill="white"/>
<path d="M24.4502 17.416V53.923H34.0502V28.405" stroke="#000062" stroke-miterlimit="10"/>
</g>
<g id="Vector_5">
<path d="M34.0498 28.405V53.923H43.6498V20.209" fill="white"/>
<path d="M34.0498 28.405V53.923H43.6498V20.209" stroke="#000062" stroke-miterlimit="10"/>
</g>
<g id="Vector_6">
<path d="M53.2499 45.505V53.923H43.6499V20.209" fill="white"/>
<path d="M53.2499 45.505V53.923H43.6499V20.209" stroke="#000062" stroke-miterlimit="10"/>
</g>
<path id="Vector_7" d="M10.0498 42.4302V53.9232" stroke="#000062" stroke-miterlimit="10"/>
<path id="Vector_8" d="M14.8501 15.9311L5.2501 23.9471L2.4271 26.3051C2.3312 26.3848 2.2146 26.4356 2.09092 26.4515C1.96723 26.4674 1.84157 26.4478 1.72863 26.3949C1.61568 26.3421 1.52011 26.2581 1.45308 26.153C1.38605 26.0478 1.35033 25.9258 1.3501 25.8011V20.8931C1.34991 20.7971 1.37076 20.7022 1.41119 20.6151C1.45162 20.528 1.51064 20.4509 1.5841 20.3891L5.2501 17.3291L11.7241 11.9291L19.2961 5.59907C19.3905 5.51997 19.5122 5.48101 19.635 5.49054C19.7578 5.50007 19.872 5.55734 19.9531 5.65007L25.4341 11.9231L33.6241 21.2981C33.7381 21.428 33.8987 21.5078 34.071 21.5201C34.2434 21.5325 34.4138 21.4764 34.5451 21.3641L43.6531 13.5881L45.6061 11.9201L53.4511 5.22407C53.5755 5.1174 53.6555 4.96812 53.6755 4.8055C53.6954 4.64288 53.6539 4.47867 53.5591 4.34507L52.3891 2.70107C52.3253 2.60738 52.2868 2.49877 52.2773 2.3858C52.2679 2.27282 52.2878 2.15933 52.3353 2.05635C52.3827 1.95337 52.4559 1.86442 52.5479 1.79813C52.6399 1.73184 52.7474 1.69048 52.8601 1.67807L62.2471 0.778069C62.3617 0.767693 62.4769 0.78758 62.5814 0.835738C62.6859 0.883896 62.7759 0.958637 62.8424 1.05249C62.9089 1.14634 62.9496 1.25601 62.9604 1.37053C62.9713 1.48505 62.9518 1.60041 62.9041 1.70507L58.9771 10.2821C58.929 10.3866 58.8544 10.4766 58.7606 10.5432C58.6668 10.6098 58.5572 10.6506 58.4427 10.6615C58.3282 10.6725 58.2128 10.6531 58.1081 10.6055C58.0034 10.5579 57.9131 10.4836 57.8461 10.3901L57.2461 9.54407C57.1933 9.46999 57.1258 9.40768 57.0477 9.36107C56.9696 9.31446 56.8827 9.28456 56.7924 9.27328C56.7022 9.262 56.6106 9.26958 56.5234 9.29554C56.4363 9.32149 56.3555 9.36526 56.2861 9.42407L53.2501 12.0161L43.6501 20.2121L34.5421 27.9881C34.4108 28.1004 34.2404 28.1565 34.0681 28.1441C33.8957 28.1318 33.7351 28.052 33.6211 27.9221L24.4471 17.4221L19.9471 12.2771C19.866 12.1843 19.7518 12.1271 19.629 12.1175C19.5062 12.108 19.3845 12.147 19.2901 12.2261L15.5941 15.3101L14.8501 15.9311Z" fill="white" stroke="#000062" stroke-miterlimit="10"/>
<path id="Vector_9" d="M25.4346 11.9229L33.3846 21.0248" stroke="#000062" stroke-miterlimit="10"/>
<path id="Vector_10" d="M43.6508 13.5913L34.8188 21.1303" stroke="#000062" stroke-miterlimit="10"/>
<path id="Vector_11" d="M53.25 41.1552V12.0132" stroke="#000062" stroke-miterlimit="10"/>
<path id="Vector_12" d="M0 53.9229H60.3" stroke="#000062" stroke-miterlimit="10"/>
<path id="Vector_13" d="M10.0498 35.6709V39.9549" stroke="#000062" stroke-miterlimit="10"/>
<path id="Vector_14" d="M53.2503 44.044C53.6479 44.044 53.9703 43.7217 53.9703 43.324C53.9703 42.9264 53.6479 42.604 53.2503 42.604C52.8526 42.604 52.5303 42.9264 52.5303 43.324C52.5303 43.7217 52.8526 44.044 53.2503 44.044Z" fill="#000062"/>
</g>
</g>
</svg>
