<svg width="56" height="56" viewBox="0 0 56 56" fill="none" xmlns="http://www.w3.org/2000/svg">
<g id="HR/Folder">
<g id="main-shape">
<g id="vectors">
<path id="Vector" d="M37.5743 9.25586H16.6883C15.8577 9.25586 15.1843 9.92922 15.1843 10.7599V35.3599C15.1843 36.1905 15.8577 36.8639 16.6883 36.8639H37.5743C38.405 36.8639 39.0783 36.1905 39.0783 35.3599V10.7599C39.0783 9.92922 38.405 9.25586 37.5743 9.25586Z" fill="white"/>
<path id="Vector_2" d="M43.9571 14.5H23.0711C22.2405 14.5 21.5671 15.1734 21.5671 16.004V40.604C21.5671 41.4346 22.2405 42.108 23.0711 42.108H43.9571C44.7878 42.108 45.4611 41.4346 45.4611 40.604V16.004C45.4611 15.1734 44.7878 14.5 43.9571 14.5Z" fill="white"/>
<path id="Vector_3" d="M21.2529 25.034V16.034C21.2522 15.8328 21.2911 15.6335 21.3675 15.4474C21.444 15.2613 21.5564 15.0922 21.6984 14.9497C21.8403 14.8071 22.009 14.694 22.1948 14.6169C22.3806 14.5397 22.5798 14.5 22.7809 14.5H43.9329C44.3382 14.5 44.7268 14.661 45.0134 14.9475C45.3 15.2341 45.4609 15.6227 45.4609 16.028V26.606" stroke="#000062" stroke-miterlimit="10"/>
<path id="Vector_4" d="M42.901 18.314H27.967" stroke="#000062" stroke-miterlimit="10"/>
<path id="Vector_5" d="M42.9018 22.3081H34.1858" stroke="#000062" stroke-miterlimit="10"/>
<path id="Vector_6" d="M31.8858 22.3081H24.9858" stroke="#000062" stroke-miterlimit="10"/>
<g id="Vector_7">
<path d="M42.1329 47.166H45.7929C46.0216 47.1662 46.248 47.1214 46.4594 47.0341C46.6707 46.9468 46.8628 46.8186 47.0245 46.657C47.1863 46.4954 47.3147 46.3035 47.4022 46.0923C47.4898 45.8811 47.5349 45.6546 47.5349 45.426V28.346C47.5349 28.1173 47.4898 27.8909 47.4022 27.6796C47.3147 27.4684 47.1863 27.2765 47.0245 27.1149C46.8628 26.9533 46.6707 26.8252 46.4594 26.7378C46.248 26.6505 46.0216 26.6057 45.7929 26.606H23.1649C22.8599 26.6054 22.5604 26.525 22.2962 26.3727C22.032 26.2204 21.8122 26.0016 21.6589 25.738L21.2589 25.034L17.8589 19.182C17.706 18.918 17.4864 18.6988 17.222 18.5464C16.9577 18.3941 16.658 18.3139 16.3529 18.314H10.1529C9.69088 18.314 9.2478 18.4975 8.92111 18.8242C8.59442 19.1509 8.41089 19.594 8.41089 20.056V45.426C8.41089 45.6546 8.45596 45.8811 8.54353 46.0923C8.6311 46.3035 8.75944 46.4954 8.92123 46.657C9.08302 46.8186 9.27507 46.9468 9.48641 47.0341C9.69774 47.1214 9.92422 47.1662 10.1529 47.166H39.2349" fill="white"/>
<path d="M42.1329 47.166H45.7929C46.0216 47.1662 46.248 47.1214 46.4594 47.0341C46.6707 46.9468 46.8628 46.8186 47.0245 46.657C47.1863 46.4954 47.3147 46.3035 47.4022 46.0923C47.4898 45.8811 47.5349 45.6546 47.5349 45.426V28.346C47.5349 28.1173 47.4898 27.8909 47.4022 27.6796C47.3147 27.4684 47.1863 27.2765 47.0245 27.1149C46.8628 26.9533 46.6707 26.8252 46.4594 26.7378C46.248 26.6505 46.0216 26.6057 45.7929 26.606H23.1649C22.8599 26.6054 22.5604 26.525 22.2962 26.3727C22.032 26.2204 21.8122 26.0016 21.6589 25.738L21.2589 25.034L17.8589 19.182C17.706 18.918 17.4864 18.6988 17.222 18.5464C16.9577 18.3941 16.658 18.3139 16.3529 18.314H10.1529C9.69088 18.314 9.2478 18.4975 8.92111 18.8242C8.59442 19.1509 8.41089 19.594 8.41089 20.056V45.426C8.41089 45.6546 8.45596 45.8811 8.54353 46.0923C8.6311 46.3035 8.75944 46.4954 8.92123 46.657C9.08302 46.8186 9.27507 46.9468 9.48641 47.0341C9.69774 47.1214 9.92422 47.1662 10.1529 47.166H39.2349" stroke="#000062" stroke-miterlimit="10"/>
</g>
<path id="Vector_8" d="M15.0281 18.314V10.528C15.0281 10.1227 15.1891 9.7341 15.4756 9.44754C15.7622 9.16099 16.1508 9 16.5561 9H37.7081C38.1133 9 38.502 9.16099 38.7885 9.44754C39.0751 9.7341 39.2361 10.1227 39.2361 10.528V14.5" stroke="#000062" stroke-miterlimit="10"/>
<path id="Vector_9" d="M40.6091 47.6942C40.9007 47.6942 41.1371 47.4578 41.1371 47.1662C41.1371 46.8746 40.9007 46.6382 40.6091 46.6382C40.3174 46.6382 40.0811 46.8746 40.0811 47.1662C40.0811 47.4578 40.3174 47.6942 40.6091 47.6942Z" fill="#000062"/>
<path id="Vector_10" d="M8.3999 38.0078H38.5439L47.5339 44.9078" stroke="#000062" stroke-miterlimit="10"/>
<path id="Vector_11" d="M8.40137 32.7402H19.7014" stroke="#000062" stroke-miterlimit="10"/>
<path id="Vector_12" d="M21.5671 32.7402H23.6351" stroke="#000062" stroke-miterlimit="10"/>
</g>
</g>
</g>
</svg>
