<svg width="63" height="55" viewBox="0 0 63 55" fill="none" xmlns="http://www.w3.org/2000/svg">
<g id="main-shape">
<g id="vectors">
<g id="Vector">
<path d="M28.27 18.8296H6.205C5.75993 18.8495 5.33313 19.0123 4.98785 19.2939C4.64256 19.5754 4.39715 19.9607 4.288 20.3926L1.378 29.8936C1.25695 30.2947 1.23244 30.7188 1.30647 31.1312C1.3805 31.5436 1.55098 31.9326 1.804 32.2666L18.472 52.9306C18.6449 53.1621 18.8694 53.3501 19.1277 53.4797C19.3861 53.6092 19.671 53.6766 19.96 53.6766C20.249 53.6766 20.5339 53.6092 20.7923 53.4797C21.0506 53.3501 21.2751 53.1621 21.448 52.9306L38.113 32.2666C38.2874 32.0482 38.4233 31.8016 38.515 31.5376" fill="white"/>
<path d="M28.27 18.8296H6.205C5.75993 18.8495 5.33313 19.0123 4.98785 19.2939C4.64256 19.5754 4.39715 19.9607 4.288 20.3926L1.378 29.8936C1.25695 30.2947 1.23244 30.7188 1.30647 31.1312C1.3805 31.5436 1.55098 31.9326 1.804 32.2666L18.472 52.9306C18.6449 53.1621 18.8694 53.3501 19.1277 53.4797C19.3861 53.6092 19.671 53.6766 19.96 53.6766C20.249 53.6766 20.5339 53.6092 20.7923 53.4797C21.0506 53.3501 21.2751 53.1621 21.448 52.9306L38.113 32.2666C38.2874 32.0482 38.4233 31.8016 38.515 31.5376" stroke="#000062" stroke-miterlimit="10"/>
</g>
<path id="Vector_2" d="M15.258 18.8296L12.543 31.1236L19.959 53.6746" stroke="#000062" stroke-miterlimit="10"/>
<path id="Vector_3" d="M24.6625 18.8296L27.3745 31.1236L19.9585 53.6746" stroke="#000062" stroke-miterlimit="10"/>
<path id="Vector_4" d="M1.26709 30.5986H12.6611H17.8181" stroke="#000062" stroke-miterlimit="10"/>
<path id="Vector_5" d="M22.1055 30.5986H27.2595H27.2625H37.7625" stroke="#000062" stroke-miterlimit="10"/>
<path id="Vector_6" d="M58.8775 2.96876C58.7683 2.53683 58.5229 2.15156 58.1777 1.87003C57.8324 1.58851 57.4056 1.42571 56.9605 1.40576H29.4535C29.009 1.42634 28.5828 1.58942 28.2382 1.8709C27.8935 2.15238 27.6485 2.5373 27.5395 2.96876L24.6295 12.4698C24.5051 12.8707 24.4792 13.2956 24.5539 13.7087C24.6286 14.1218 24.8017 14.5108 25.0585 14.8428L41.7235 35.5038C41.8963 35.7359 42.121 35.9244 42.3796 36.0543C42.6382 36.1841 42.9236 36.2518 43.213 36.2518C43.5024 36.2518 43.7878 36.1841 44.0464 36.0543C44.305 35.9244 44.5297 35.7359 44.7025 35.5038L61.3675 14.8428C61.6244 14.5108 61.7974 14.1218 61.8721 13.7087C61.9468 13.2956 61.9209 12.8707 61.7965 12.4698L58.8775 2.96876Z" fill="white" stroke="#000062" stroke-miterlimit="10"/>
<path id="Vector_7" d="M38.505 1.40576L35.793 13.6998L43.206 36.2538" stroke="#000062" stroke-miterlimit="10"/>
<path id="Vector_8" d="M47.9101 1.40576L50.6221 13.6998L43.2061 36.2538" stroke="#000062" stroke-miterlimit="10"/>
<path id="Vector_9" d="M24.5122 13.1748H61.9042" stroke="#000062" stroke-miterlimit="10"/>
<path id="Vector_10" d="M19.9596 31.3548C20.3771 31.3548 20.7156 31.0163 20.7156 30.5988C20.7156 30.1812 20.3771 29.8428 19.9596 29.8428C19.5421 29.8428 19.2036 30.1812 19.2036 30.5988C19.2036 31.0163 19.5421 31.3548 19.9596 31.3548Z" fill="#000062"/>
<path id="Vector_11" d="M9.06006 18.8296V24.0556" stroke="#000062" stroke-miterlimit="10"/>
<path id="Vector_12" d="M9.06006 25.106V26.207" stroke="#000062" stroke-miterlimit="10"/>
</g>
</g>
</svg>
