<svg width="46" height="42" viewBox="0 0 46 42" fill="none" xmlns="http://www.w3.org/2000/svg">
<g id="main-shape">
<g id="vectors">
<path id="Vector" d="M40.28 0.800783H8.94405C8.69615 0.800251 8.45817 0.898082 8.28232 1.07281C8.10646 1.24754 8.00711 1.48489 8.00605 1.73278L7.98405 5.69078H5.58405C5.40996 5.68999 5.23743 5.72369 5.07644 5.78995C4.91544 5.8562 4.76917 5.9537 4.64607 6.0768C4.52297 6.19991 4.42547 6.34618 4.35921 6.50717C4.29296 6.66817 4.25925 6.84069 4.26005 7.01478V10.5808H2.11805C1.76849 10.5808 1.43326 10.7196 1.18608 10.9668C0.938909 11.214 0.800049 11.5492 0.800049 11.8988V37.0288C0.802032 38.0807 1.19625 39.0941 1.90565 39.8708C2.61505 40.6475 3.58862 41.1317 4.63605 41.2288H4.55405C4.63805 41.2288 4.72405 41.2388 4.81005 41.2388H40.28C40.4031 41.239 40.5251 41.215 40.6389 41.1681C40.7526 41.1212 40.8561 41.0523 40.9432 40.9653C41.0303 40.8784 41.0994 40.7751 41.1466 40.6614C41.1938 40.5477 41.218 40.4259 41.218 40.3028V1.73878C41.218 1.49001 41.1192 1.25143 40.9433 1.07552C40.7674 0.899608 40.5288 0.800783 40.28 0.800783Z" fill="white"/>
<path id="Vector_2" d="M45.1885 27.7148V28.5588H45.1205C45.0138 28.5497 44.9145 28.5004 44.8428 28.4208C44.7712 28.3413 44.7324 28.2374 44.7345 28.1304C44.7365 28.0233 44.7792 27.921 44.8538 27.8442C44.9284 27.7674 45.0295 27.7219 45.1365 27.7168L45.1885 27.7148Z" fill="white"/>
<path id="Vector_3" d="M4.40405 10.6808H1.73605C1.48832 10.6813 1.25085 10.7798 1.07549 10.9548C0.900124 11.1298 0.801107 11.3671 0.800051 11.6148V37.7488C0.799525 38.2093 0.889851 38.6655 1.06586 39.0911C1.24186 39.5167 1.50009 39.9034 1.82576 40.2291C2.15143 40.5547 2.53814 40.813 2.96374 40.989C3.38935 41.165 3.84549 41.2553 4.30605 41.2548C4.39005 41.2548 4.47205 41.2548 4.55405 41.2448C5.43562 41.1828 6.26119 40.7899 6.86536 40.1449C7.46953 39.5 7.80767 38.6505 7.81205 37.7668L8.01205 1.73278C8.01311 1.48489 8.11247 1.24754 8.28832 1.07281C8.46417 0.898082 8.70215 0.800251 8.95005 0.800783H40.2801C40.5288 0.800783 40.7674 0.899608 40.9433 1.07552C41.1192 1.25143 41.2181 1.49001 41.2181 1.73878V40.3188C41.2181 40.4419 41.1938 40.5638 41.1466 40.6774C41.0994 40.7911 41.0303 40.8944 40.9432 40.9813C40.8561 41.0683 40.7526 41.1372 40.6389 41.1841C40.5251 41.231 40.4031 41.255 40.2801 41.2548H4.11605" stroke="#000062" stroke-miterlimit="10"/>
<path id="Vector_4" d="M4.26099 37.1468V6.57081C4.26099 6.32204 4.35981 6.08346 4.53572 5.90755C4.71163 5.73164 4.95021 5.63281 5.19899 5.63281H7.98299" stroke="#000062" stroke-miterlimit="10"/>
<g id="Vector_5">
<path d="M26.0263 4.91016H37.0003C37.0574 4.9099 37.1141 4.92093 37.167 4.94262C37.2198 4.96431 37.2679 4.99624 37.3084 5.03657C37.349 5.07689 37.3811 5.12483 37.403 5.17761C37.425 5.2304 37.4363 5.287 37.4363 5.34416V9.95816C37.4363 10.0727 37.3908 10.1826 37.3097 10.2636C37.2287 10.3446 37.1188 10.3902 37.0043 10.3902H12.2043C12.0895 10.3902 11.9794 10.3447 11.8981 10.2638C11.8168 10.1828 11.7708 10.0729 11.7703 9.95816V5.34416C11.7703 5.22906 11.816 5.11867 11.8974 5.03728C11.9788 4.95589 12.0892 4.91016 12.2043 4.91016H23.1783" fill="white"/>
<path d="M26.0263 4.91016H37.0003C37.0574 4.9099 37.1141 4.92093 37.167 4.94262C37.2198 4.96431 37.2679 4.99624 37.3084 5.03657C37.349 5.07689 37.3811 5.12483 37.403 5.17761C37.425 5.2304 37.4363 5.287 37.4363 5.34416V9.95816C37.4363 10.0727 37.3908 10.1826 37.3097 10.2636C37.2287 10.3446 37.1188 10.3902 37.0043 10.3902H12.2043C12.0895 10.3902 11.9794 10.3447 11.8981 10.2638C11.8168 10.1828 11.7708 10.0729 11.7703 9.95816V5.34416C11.7703 5.22906 11.816 5.11867 11.8974 5.03728C11.9788 4.95589 12.0892 4.91016 12.2043 4.91016H23.1783" stroke="#000062" stroke-miterlimit="10"/>
</g>
<path id="Vector_6" d="M21.0078 15.0918H38.1878" stroke="#000062" stroke-miterlimit="10"/>
<path id="Vector_7" d="M28.6345 19.4453H38.1885" stroke="#000062" stroke-miterlimit="10"/>
<path id="Vector_8" d="M21.0078 23.7988H38.1878" stroke="#000062" stroke-miterlimit="10"/>
<path id="Vector_9" d="M31.6438 28.1504H38.1878" stroke="#000062" stroke-miterlimit="10"/>
<path id="Vector_10" d="M20.4141 32.5039H38.1881" stroke="#000062" stroke-miterlimit="10"/>
<path id="Vector_11" d="M12.9141 36.8574H38.1881" stroke="#000062" stroke-miterlimit="10"/>
<path id="Vector_12" d="M26.8318 19.4447L13.8125 19.4805" stroke="#000062" stroke-miterlimit="10"/>
<path id="Vector_13" d="M28.6341 28.1504H12.9141" stroke="#000062" stroke-miterlimit="10"/>
<path id="Vector_14" d="M18.5381 32.5039H12.9141" stroke="#000062" stroke-miterlimit="10"/>
<path id="Vector_15" d="M24.5963 5.41425C24.8746 5.41425 25.1003 5.1886 25.1003 4.91025C25.1003 4.6319 24.8746 4.40625 24.5963 4.40625C24.3179 4.40625 24.0923 4.6319 24.0923 4.91025C24.0923 5.1886 24.3179 5.41425 24.5963 5.41425Z" fill="#000062"/>
</g>
</g>
</svg>
