<svg width="58" height="50" viewBox="0 0 58 50" fill="none" xmlns="http://www.w3.org/2000/svg">
<g id="Layer 2">
<g id="Layer 1">
<path id="Vector" d="M7.82812 42.0139V49.4678H50.6681V8.81476C50.6681 8.43408 50.5142 8.06899 50.2402 7.7998C49.9662 7.53062 49.5946 7.37939 49.2071 7.37939H9.28912C8.90164 7.37939 8.53003 7.53062 8.25604 7.7998C7.98205 8.06899 7.82813 8.43408 7.82812 8.81476V34.4569" stroke="#000062" stroke-miterlimit="10"/>
<path id="Vector_2" d="M17.521 0.532715H40.867C41.4725 0.532715 42.0532 0.701351 42.4813 1.00152C42.9095 1.3017 43.15 1.70882 43.15 2.13333V7.31166H15.25V2.13123C15.2508 1.70853 15.49 1.30322 15.9155 1.00374C16.341 0.704263 16.9181 0.534936 17.521 0.532715Z" stroke="#000062" stroke-miterlimit="10"/>
<path id="Vector_3" d="M29.2483 39.9507C30.5324 39.9507 31.764 40.4519 32.6721 41.344C33.5801 42.2361 34.0903 43.4461 34.0903 44.7077V49.4648H24.4062V44.7077C24.4063 43.4461 24.9164 42.2361 25.8244 41.344C26.7325 40.4519 27.9641 39.9507 29.2483 39.9507Z" stroke="#000062" stroke-miterlimit="10"/>
<path id="Vector_4" d="M17.4579 22.1133H13.1289V26.3663H17.4579V22.1133Z" stroke="#000062" stroke-miterlimit="10"/>
<path id="Vector_5" d="M17.4579 11.9624H13.1289V16.2155H17.4579V11.9624Z" stroke="#000062" stroke-miterlimit="10"/>
<path id="Vector_6" d="M26.7611 11.9624H22.4321V16.2155H26.7611V11.9624Z" stroke="#000062" stroke-miterlimit="10"/>
<path id="Vector_7" d="M36.0673 11.9624H31.7383V16.2155H36.0673V11.9624Z" stroke="#000062" stroke-miterlimit="10"/>
<path id="Vector_8" d="M45.37 11.9624H41.041V16.2155H45.37V11.9624Z" stroke="#000062" stroke-miterlimit="10"/>
<path id="Vector_9" d="M26.7611 22.1133H22.4321V26.3663H26.7611V22.1133Z" stroke="#000062" stroke-miterlimit="10"/>
<path id="Vector_10" d="M26.7611 32.2642H22.4321V36.5172H26.7611V32.2642Z" stroke="#000062" stroke-miterlimit="10"/>
<path id="Vector_11" d="M36.0673 32.2642H31.7383V36.5172H36.0673V32.2642Z" stroke="#000062" stroke-miterlimit="10"/>
<path id="Vector_12" d="M36.0673 22.1133H31.7383V26.3663H36.0673V22.1133Z" stroke="#000062" stroke-miterlimit="10"/>
<path id="Vector_13" d="M45.37 22.1133H41.041V26.3663H45.37V22.1133Z" stroke="#000062" stroke-miterlimit="10"/>
<path id="Vector_14" d="M17.4579 32.2642H13.1289V36.5172H17.4579V32.2642Z" stroke="#000062" stroke-miterlimit="10"/>
<path id="Vector_15" d="M45.37 32.2642H41.041V36.5172H45.37V32.2642Z" stroke="#000062" stroke-miterlimit="10"/>
<path id="Vector_16" d="M29.248 39.9507V49.4677" stroke="#000062" stroke-miterlimit="10"/>
<path id="Vector_17" d="M0.850098 49.4678H57.6491" stroke="#000062" stroke-miterlimit="10"/>
<path id="Vector_18" d="M7.82831 39.1786C8.37341 39.1786 8.81531 38.7445 8.81531 38.2089C8.81531 37.6734 8.37341 37.2393 7.82831 37.2393C7.2832 37.2393 6.84131 37.6734 6.84131 38.2089C6.84131 38.7445 7.2832 39.1786 7.82831 39.1786Z" fill="#000062"/>
<path id="Vector_19" d="M50.6682 43.6353H44.3862" stroke="#000062" stroke-miterlimit="10"/>
<path id="Vector_20" d="M39.5112 43.6353H42.2862" stroke="#000062" stroke-miterlimit="10"/>
</g>
</g>
</svg>
