<svg width="84" height="85" viewBox="0 0 84 85" fill="none" xmlns="http://www.w3.org/2000/svg">
<path d="M59.3672 47.5219C60.2879 46.2279 60.9011 44.7408 61.1602 43.174C61.4193 41.6072 61.3174 40.0019 60.8623 38.4804C60.4072 36.959 59.6109 35.5614 58.5341 34.3941C57.4572 33.2269 56.1282 32.3208 54.6482 31.7449C55.2774 28.8461 55.2049 25.839 54.4367 22.9739C53.6684 20.1089 52.2268 17.4688 50.2317 15.2737C48.2367 13.0786 45.746 11.392 42.9672 10.3542C40.1884 9.31651 37.2019 8.95777 34.2563 9.30788C31.3108 9.658 28.4916 10.7068 26.0335 12.367C23.5753 14.0272 21.5495 16.2508 20.1246 18.8524C18.6997 21.454 17.9171 24.3584 17.8419 27.3237C17.7667 30.289 18.4011 33.2294 19.6922 35.8999C16.2882 39.0091 14.1588 43.2707 13.7164 47.8597C13.2739 52.4487 14.5498 57.0387 17.297 60.741C20.0443 64.4433 24.0675 66.9947 28.5878 67.9012C33.1081 68.8076 37.8039 68.0047 41.7662 65.6479C42.7098 67.5886 44.1069 69.2736 45.8395 70.56C47.5721 71.8465 49.5891 72.6966 51.7198 73.0385C53.8506 73.3804 56.0323 73.2039 58.0804 72.5241C60.1285 71.8442 61.9826 70.681 63.486 69.1328C64.9893 67.5846 66.0975 65.6971 66.7169 63.6299C67.3363 61.5627 67.4485 59.3767 67.0442 57.257C66.6398 55.1372 65.7308 53.1461 64.394 51.452C63.0571 49.758 61.3319 48.411 59.3642 47.5249L59.3672 47.5219Z" fill="#DFE4FF"/>
<path d="M38.0349 16.772H23.5209C23.3083 16.7716 23.0977 16.8131 22.9012 16.8942C22.7046 16.9753 22.526 17.0943 22.3755 17.2445C22.2251 17.3947 22.1057 17.5731 22.0243 17.7695C21.9428 17.9659 21.9009 18.1764 21.9009 18.389V73.646C21.9009 73.8586 21.9428 74.0691 22.0243 74.2655C22.1057 74.4618 22.2251 74.6402 22.3755 74.7904C22.526 74.9406 22.7046 75.0597 22.9012 75.1407C23.0977 75.2218 23.3083 75.2634 23.5209 75.263H59.2749C59.4875 75.2634 59.6981 75.2218 59.8946 75.1407C60.0911 75.0597 60.2697 74.9406 60.4202 74.7904C60.5707 74.6402 60.6901 74.4618 60.7715 74.2655C60.853 74.0691 60.8949 73.8586 60.8949 73.646V18.389C60.8949 18.1764 60.853 17.9659 60.7715 17.7695C60.6901 17.5731 60.5707 17.3947 60.4202 17.2445C60.2697 17.0943 60.0911 16.9753 59.8946 16.8942C59.6981 16.8131 59.4875 16.7716 59.2749 16.772H44.7729" fill="white"/>
<path d="M38.0349 16.8501H23.5209C23.3083 16.8497 23.0977 16.8912 22.9012 16.9723C22.7046 17.0534 22.526 17.1725 22.3755 17.3226C22.2251 17.4728 22.1057 17.6512 22.0243 17.8476C21.9428 18.044 21.9009 18.2545 21.9009 18.4671V73.7331C21.9009 73.9457 21.9428 74.1562 22.0243 74.3526C22.1057 74.549 22.2251 74.7274 22.3755 74.8776C22.526 75.0277 22.7046 75.1468 22.9012 75.2279C23.0977 75.309 23.3083 75.3505 23.5209 75.3501H59.2749C59.4875 75.3505 59.6981 75.309 59.8946 75.2279C60.0911 75.1468 60.2697 75.0277 60.4202 74.8776C60.5707 74.7274 60.6901 74.549 60.7715 74.3526C60.853 74.1562 60.8949 73.9457 60.8949 73.7331V31.6251" stroke="#000062" stroke-miterlimit="10"/>
<path d="M60.8954 27.2749V18.4759C60.8954 18.2633 60.8535 18.0528 60.7721 17.8564C60.6906 17.66 60.5712 17.4816 60.4208 17.3314C60.2703 17.1812 60.0917 17.0622 59.8952 16.9811C59.6986 16.9 59.488 16.8585 59.2754 16.8589H44.7734" stroke="#000062" stroke-miterlimit="10"/>
<path d="M41.3971 46.6283C47.269 46.6283 52.0291 41.8681 52.0291 35.9963C52.0291 30.1244 47.269 25.3643 41.3971 25.3643C35.5252 25.3643 30.7651 30.1244 30.7651 35.9963C30.7651 41.8681 35.5252 46.6283 41.3971 46.6283Z" fill="white" stroke="#000062" stroke-miterlimit="10"/>
<path d="M41.3973 40.3762C44.0748 40.3762 46.2453 38.2057 46.2453 35.5282C46.2453 32.8507 44.0748 30.6802 41.3973 30.6802C38.7198 30.6802 36.5493 32.8507 36.5493 35.5282C36.5493 38.2057 38.7198 40.3762 41.3973 40.3762Z" stroke="#000062" stroke-miterlimit="10"/>
<path d="M47.7178 44.543C47.5963 43.3991 47.0559 42.3406 46.2008 41.5713C45.3456 40.802 44.236 40.3762 43.0858 40.376H39.7078C38.5569 40.3755 37.4467 40.8009 36.5909 41.5703C35.7351 42.3397 35.1943 43.3986 35.0728 44.543" stroke="#000062" stroke-miterlimit="10"/>
<path d="M42.8758 9.2002H39.9178C38.8756 9.2002 38.0308 10.045 38.0308 11.0872V19.1512C38.0308 20.1934 38.8756 21.0382 39.9178 21.0382H42.8758C43.9179 21.0382 44.7628 20.1934 44.7628 19.1512V11.0872C44.7628 10.045 43.9179 9.2002 42.8758 9.2002Z" fill="white" stroke="#000062" stroke-miterlimit="10"/>
<path d="M53.3329 50.4561H29.4649C29.0375 50.4561 28.6909 50.8026 28.6909 51.2301V53.8611C28.6909 54.2885 29.0375 54.6351 29.4649 54.6351H53.3329C53.7604 54.6351 54.1069 54.2885 54.1069 53.8611V51.2301C54.1069 50.8026 53.7604 50.4561 53.3329 50.4561Z" fill="white" stroke="#000062" stroke-miterlimit="10"/>
<path d="M28.6909 58.9883H54.1069" stroke="#000062" stroke-miterlimit="10"/>
<path d="M28.6909 64.208H38.7889" stroke="#000062" stroke-miterlimit="10"/>
<path d="M40.7891 64.208H54.1061" stroke="#000062" stroke-miterlimit="10"/>
<path d="M60.8936 30.2632C61.331 30.2632 61.6856 29.9086 61.6856 29.4712C61.6856 29.0338 61.331 28.6792 60.8936 28.6792C60.4562 28.6792 60.1016 29.0338 60.1016 29.4712C60.1016 29.9086 60.4562 30.2632 60.8936 30.2632Z" fill="#000062"/>
<path d="M55.897 16.8589V24.6499" stroke="#000062" stroke-miterlimit="10"/>
<path d="M55.897 26.8491V30.6801" stroke="#000062" stroke-miterlimit="10"/>
<path d="M41.3971 46.6283C47.269 46.6283 52.0291 41.8681 52.0291 35.9963C52.0291 30.1244 47.269 25.3643 41.3971 25.3643C35.5252 25.3643 30.7651 30.1244 30.7651 35.9963C30.7651 41.8681 35.5252 46.6283 41.3971 46.6283Z" fill="white" stroke="#7F92FF" stroke-miterlimit="10"/>
<path d="M41.3973 40.3762C44.0748 40.3762 46.2453 38.2057 46.2453 35.5282C46.2453 32.8507 44.0748 30.6802 41.3973 30.6802C38.7198 30.6802 36.5493 32.8507 36.5493 35.5282C36.5493 38.2057 38.7198 40.3762 41.3973 40.3762Z" stroke="#7F92FF" stroke-miterlimit="10"/>
<path d="M47.7178 44.5435C47.5963 43.3996 47.0559 42.3411 46.2008 41.5718C45.3456 40.8025 44.236 40.3767 43.0858 40.3765H39.7078C38.5569 40.376 37.4467 40.8014 36.5909 41.5708C35.7351 42.3402 35.1943 43.3991 35.0728 44.5435" stroke="#7F92FF" stroke-miterlimit="10"/>
<path d="M14.1001 20.5371H13.5751V20.0001C13.5751 19.8278 13.5067 19.6626 13.3849 19.5408C13.2631 19.419 13.0979 19.3506 12.9256 19.3506C12.7534 19.3506 12.5882 19.419 12.4664 19.5408C12.3446 19.6626 12.2761 19.8278 12.2761 20.0001V20.5281H11.7481C11.5759 20.5281 11.4107 20.5965 11.2889 20.7183C11.1671 20.8401 11.0986 21.0053 11.0986 21.1776C11.0986 21.3498 11.1671 21.515 11.2889 21.6369C11.4107 21.7587 11.5759 21.8271 11.7481 21.8271H12.2761V22.3551C12.2761 22.5273 12.3446 22.6925 12.4664 22.8144C12.5882 22.9362 12.7534 23.0046 12.9256 23.0046C13.0979 23.0046 13.2631 22.9362 13.3849 22.8144C13.5067 22.6925 13.5751 22.5273 13.5751 22.3551V21.8361H14.1001C14.2724 21.8361 14.4376 21.7677 14.5594 21.6459C14.6812 21.524 14.7496 21.3588 14.7496 21.1866C14.7496 21.0143 14.6812 20.8491 14.5594 20.7273C14.4376 20.6055 14.2724 20.5371 14.1001 20.5371Z" fill="#5E1AD5"/>
<path d="M71.9532 54.1342H71.4252V53.6002C71.4252 53.4279 71.3567 53.2627 71.2349 53.1409C71.1131 53.0191 70.9479 52.9507 70.7757 52.9507C70.6034 52.9507 70.4382 53.0191 70.3164 53.1409C70.1946 53.2627 70.1262 53.4279 70.1262 53.6002V54.1282H69.6012C69.4289 54.1282 69.2637 54.1966 69.1419 54.3184C69.0201 54.4402 68.9517 54.6054 68.9517 54.7777C68.9517 54.9499 69.0201 55.1151 69.1419 55.2369C69.2637 55.3588 69.4289 55.4272 69.6012 55.4272H70.1292V55.9552C70.1292 56.1274 70.1976 56.2926 70.3194 56.4145C70.4412 56.5363 70.6064 56.6047 70.7787 56.6047C70.9509 56.6047 71.1161 56.5363 71.2379 56.4145C71.3597 56.2926 71.4282 56.1274 71.4282 55.9552V55.4272H71.9562C72.1284 55.4272 72.2936 55.3588 72.4154 55.2369C72.5372 55.1151 72.6057 54.9499 72.6057 54.7777C72.6057 54.6054 72.5372 54.4402 72.4154 54.3184C72.2936 54.1966 72.1284 54.1282 71.9562 54.1282L71.9532 54.1342Z" fill="#5E1AD5"/>
<path d="M14.1001 63.1008H13.5751V62.5728C13.5751 62.4006 13.5067 62.2354 13.3849 62.1136C13.2631 61.9918 13.0979 61.9233 12.9256 61.9233C12.7534 61.9233 12.5882 61.9918 12.4664 62.1136C12.3446 62.2354 12.2761 62.4006 12.2761 62.5728V63.1008H11.7481C11.5759 63.1008 11.4107 63.1693 11.2889 63.2911C11.1671 63.4129 11.0986 63.5781 11.0986 63.7503C11.0986 63.9226 11.1671 64.0878 11.2889 64.2096C11.4107 64.3314 11.5759 64.3998 11.7481 64.3998H12.2761V64.9278C12.2761 65.1001 12.3446 65.2653 12.4664 65.3871C12.5882 65.5089 12.7534 65.5773 12.9256 65.5773C13.0979 65.5773 13.2631 65.5089 13.3849 65.3871C13.5067 65.2653 13.5751 65.1001 13.5751 64.9278V64.3998H14.1001C14.2724 64.3998 14.4376 64.3314 14.5594 64.2096C14.6812 64.0878 14.7496 63.9226 14.7496 63.7503C14.7496 63.5781 14.6812 63.4129 14.5594 63.2911C14.4376 63.1693 14.2724 63.1008 14.1001 63.1008Z" fill="#5E1AD5"/>
</svg>
