<svg width="60" height="67" viewBox="0 0 60 67" fill="none" xmlns="http://www.w3.org/2000/svg">
<g id="main-shape">
<g id="vectors">
<path id="Vector" d="M9.04834 47.4761V6.28914C9.04827 6.12831 9.11091 5.97379 9.22294 5.85839C9.33497 5.743 9.48758 5.67583 9.64834 5.67114H44.2203L54.7593 16.3151V60.6851C54.7593 60.8443 54.6961 60.9969 54.5836 61.1094C54.4711 61.2219 54.3185 61.2851 54.1593 61.2851H19.3593" fill="white"/>
<g id="Vector_2">
<path d="M13.7944 43.1081V1.91805C13.7944 1.75722 13.857 1.60269 13.969 1.4873C14.0811 1.37191 14.2337 1.30473 14.3944 1.30005H48.9664L59.5054 11.947V56.3141C59.5054 56.4732 59.4422 56.6258 59.3297 56.7383C59.2172 56.8508 59.0646 56.9141 58.9054 56.9141H24.0784" fill="white"/>
<path d="M13.7944 43.1081V1.91805C13.7944 1.75722 13.857 1.60269 13.969 1.4873C14.0811 1.37191 14.2337 1.30473 14.3944 1.30005H48.9664L59.5054 11.947V56.3141C59.5054 56.4732 59.4422 56.6258 59.3297 56.7383C59.2172 56.8508 59.0646 56.9141 58.9054 56.9141H24.0784" stroke="#000062" stroke-miterlimit="10"/>
</g>
<path id="Vector_3" d="M9.02979 43.7291V6.28914C9.02972 6.12831 9.09235 5.97379 9.20438 5.85839C9.31642 5.743 9.46902 5.67583 9.62979 5.67114H13.7938" stroke="#000062" stroke-miterlimit="10"/>
<path id="Vector_4" d="M54.7399 56.929V60.685C54.7419 60.765 54.7279 60.8446 54.6986 60.9192C54.6694 60.9937 54.6255 61.0616 54.5696 61.119C54.5137 61.1763 54.4469 61.2218 54.3731 61.2529C54.2993 61.284 54.22 61.3 54.1399 61.3H42.4399" stroke="#000062" stroke-miterlimit="10"/>
<path id="Vector_5" d="M59.5044 11.947H48.9624V1.30298" stroke="#000062" stroke-miterlimit="10"/>
<path id="Vector_6" d="M19.3726 11.0352H40.2076" stroke="#000062" stroke-miterlimit="10"/>
<path id="Vector_7" d="M19.3726 17.5933H28.1866" stroke="#000062" stroke-miterlimit="10"/>
<path id="Vector_8" d="M19.3726 24.1481H44.4316" stroke="#000062" stroke-miterlimit="10"/>
<path id="Vector_9" d="M19.3726 30.7062H29.2786" stroke="#000062" stroke-miterlimit="10"/>
<path id="Vector_10" d="M30.2266 17.5933H40.2076" stroke="#000062" stroke-miterlimit="10"/>
<path id="Vector_11" d="M33.9414 46.897L40.2144 44.371C40.8684 44.107 41.6754 44.32 41.9874 44.839L42.1254 45.07C42.5274 45.739 43.6944 45.856 44.3004 45.286C44.9514 44.686 46.2084 44.86 46.5324 45.61L46.9944 46.684C47.2284 47.227 47.9934 47.509 48.6804 47.308L53.9244 45.781" stroke="#000062" stroke-miterlimit="10"/>
<path id="Vector_12" d="M33.9414 50.665H53.9274" stroke="#000062" stroke-miterlimit="10"/>
<path id="Vector_13" d="M12.8639 65.9981C19.1947 65.9981 24.3269 60.866 24.3269 54.5351C24.3269 48.2043 19.1947 43.0721 12.8639 43.0721C6.53304 43.0721 1.40088 48.2043 1.40088 54.5351C1.40088 60.866 6.53304 65.9981 12.8639 65.9981Z" fill="white" stroke="#000062" stroke-miterlimit="10"/>
<path id="Vector_14" d="M12.8643 59.26C15.7522 59.26 18.0933 56.9189 18.0933 54.031C18.0933 51.1431 15.7522 48.802 12.8643 48.802C9.97636 48.802 7.63525 51.1431 7.63525 54.031C7.63525 56.9189 9.97636 59.26 12.8643 59.26Z" stroke="#000062" stroke-miterlimit="10"/>
<path id="Vector_15" d="M19.6803 63.751C19.5506 62.5164 18.9685 61.3735 18.0462 60.5426C17.1239 59.7117 15.9267 59.2516 14.6853 59.251H11.0463C9.80444 59.2509 8.60648 59.7106 7.68355 60.5416C6.76061 61.3726 6.17809 62.5159 6.04834 63.751" stroke="#000062" stroke-miterlimit="10"/>
<path id="Vector_16" d="M53.0972 11.9471V22.8731" stroke="#000062" stroke-miterlimit="10"/>
<path id="Vector_17" d="M53.0972 25.8251V29.1161" stroke="#000062" stroke-miterlimit="10"/>
</g>
</g>
</svg>
