<svg width="67" height="48" viewBox="0 0 67 48" fill="none" xmlns="http://www.w3.org/2000/svg">
<g id="main-shape">
<g id="vectors">
<g id="Vector">
<path d="M11.2326 8.08771H4.98802C3.95829 8.08858 2.9709 8.4964 2.24215 9.22182C1.5134 9.94724 1.10273 10.9311 1.1001 11.9579V43.0647C1.1001 44.0932 1.50961 45.0796 2.23864 45.8072C2.96767 46.5347 3.95657 46.9439 4.98802 46.9448H62.0904C63.1224 46.9448 64.1122 46.536 64.8419 45.8084C65.5716 45.0807 65.9816 44.0938 65.9816 43.0647V11.9579C65.9781 10.9308 65.5667 9.94694 64.8374 9.22162C64.1082 8.49629 63.1204 8.08858 62.0904 8.08771H37.2017" fill="white"/>
<path d="M11.2326 8.08771H4.98802C3.95829 8.08858 2.9709 8.4964 2.24215 9.22182C1.5134 9.94724 1.10273 10.9311 1.1001 11.9579V43.0647C1.1001 44.0932 1.50961 45.0796 2.23864 45.8072C2.96767 46.5347 3.95657 46.9439 4.98802 46.9448H62.0904C63.1224 46.9448 64.1122 46.536 64.8419 45.8084C65.5717 45.0807 65.9816 44.0938 65.9816 43.0647V11.9579C65.9781 10.9308 65.5667 9.94694 64.8374 9.22162C64.1082 8.49629 63.1204 8.08858 62.0904 8.08771H37.2017" stroke="#000062" stroke-miterlimit="10"/>
</g>
<path id="Vector_2" d="M29.8772 8.07776H18.2002" stroke="#000062" stroke-miterlimit="10"/>
<g id="Vector_3">
<path d="M37.2033 12.5297H38.5523C39.5898 12.5297 40.425 13.5741 40.425 14.8664C40.434 15.4634 40.2401 16.0458 39.8748 16.5189C39.7202 16.7256 39.5206 16.8946 39.2909 17.0131C39.0612 17.1316 38.8075 17.1966 38.549 17.203H28.5292C27.4918 17.203 26.6565 16.1586 26.6565 14.8664C26.6476 14.2694 26.8415 13.687 27.2068 13.2139C27.3613 13.0071 27.561 12.8381 27.7907 12.7196C28.0204 12.6011 28.274 12.5362 28.5326 12.5297H29.8816" fill="white"/>
<path d="M37.2033 12.5297H38.5523C39.5898 12.5297 40.425 13.5741 40.425 14.8664C40.434 15.4634 40.2401 16.0458 39.8748 16.5189C39.7202 16.7256 39.5206 16.8946 39.2909 17.0131C39.0612 17.1316 38.8075 17.1966 38.549 17.203H28.5292C27.4918 17.203 26.6565 16.1586 26.6565 14.8664C26.6476 14.2694 26.8415 13.687 27.2068 13.2139C27.3613 13.0071 27.561 12.8381 27.7907 12.7196C28.0204 12.6011 28.274 12.5362 28.5326 12.5297H29.8816" stroke="#000062" stroke-miterlimit="10"/>
</g>
<path id="Vector_4" d="M30.8552 1.20001H36.2247C36.484 1.20001 36.7327 1.30273 36.9161 1.48558C37.0994 1.66842 37.2025 1.91641 37.2025 2.17499V11.0985C37.2042 11.7592 36.9432 12.3936 36.4765 12.8626C36.0099 13.3316 35.3758 13.5969 34.7133 13.6004H32.3931C31.7294 13.6004 31.0929 13.3375 30.6236 12.8696C30.1543 12.4016 29.8906 11.7669 29.8906 11.1051V2.1816C29.8889 1.92415 29.9893 1.67645 30.17 1.49256C30.3507 1.30866 30.597 1.2035 30.8552 1.20001Z" fill="white" stroke="#000062" stroke-miterlimit="10"/>
<path id="Vector_5" d="M24.9353 21.5323H10.9679C10.5909 21.5323 10.2852 21.8372 10.2852 22.2132V36.1405C10.2852 36.5165 10.5909 36.8214 10.9679 36.8214H24.9353C25.3124 36.8214 25.6181 36.5165 25.6181 36.1405V22.2132C25.6181 21.8372 25.3124 21.5323 24.9353 21.5323Z" fill="white" stroke="#000062" stroke-miterlimit="10"/>
<path id="Vector_6" d="M35.0259 24.421H59.0958" stroke="#000062" stroke-miterlimit="10"/>
<path id="Vector_7" d="M35.0259 30.0267H45.7351" stroke="#000062" stroke-miterlimit="10"/>
<path id="Vector_8" d="M48.3828 30.0267H59.0953" stroke="#000062" stroke-miterlimit="10"/>
<path id="Vector_9" d="M35.0259 35.6318H49.9942" stroke="#000062" stroke-miterlimit="10"/>
<path id="Vector_10" d="M17.9507 31.3847C19.7391 31.3847 21.189 29.939 21.189 28.1557C21.189 26.3724 19.7391 24.9267 17.9507 24.9267C16.1622 24.9267 14.7124 26.3724 14.7124 28.1557C14.7124 29.939 16.1622 31.3847 17.9507 31.3847Z" stroke="#000062" stroke-miterlimit="10"/>
<path id="Vector_11" d="M17.9513 32.915C18.7425 32.915 19.5012 33.2284 20.0607 33.7863C20.6201 34.3441 20.9344 35.1007 20.9344 35.8896V36.815H14.9683V35.8896C14.9683 35.1007 15.2825 34.3441 15.842 33.7863C16.4014 33.2284 17.1602 32.915 17.9513 32.915Z" stroke="#000062" stroke-miterlimit="10"/>
<path id="Vector_12" d="M65.9831 14.8664H40.4282" stroke="#000062" stroke-miterlimit="10"/>
<path id="Vector_13" d="M26.655 14.8664H1.1001" stroke="#000062" stroke-miterlimit="10"/>
<path id="Vector_14" d="M14.7168 9.10571C15.2861 9.10571 15.7477 8.64552 15.7477 8.07785C15.7477 7.51018 15.2861 7.04999 14.7168 7.04999C14.1475 7.04999 13.686 7.51018 13.686 8.07785C13.686 8.64552 14.1475 9.10571 14.7168 9.10571Z" fill="#000062"/>
<path id="Vector_15" d="M1.1001 42.0932H29.8767" stroke="#000062" stroke-miterlimit="10"/>
<path id="Vector_16" d="M31.5103 42.0932H36.482" stroke="#000062" stroke-miterlimit="10"/>
</g>
</g>
</svg>
