<svg width="69" height="69" viewBox="0 0 69 69" fill="none" xmlns="http://www.w3.org/2000/svg">
<g id="main-shape">
<g id="vectors">
<path id="Vector" d="M34.2237 47.9084C41.7276 47.9084 47.8107 41.8253 47.8107 34.3214C47.8107 26.8175 41.7276 20.7344 34.2237 20.7344C26.7198 20.7344 20.6367 26.8175 20.6367 34.3214C20.6367 41.8253 26.7198 47.9084 34.2237 47.9084Z" fill="white" stroke="#000062" stroke-miterlimit="10"/>
<path id="Vector_2" d="M4.61035 30.5504C5.27335 25.2648 7.34573 20.2548 10.6104 16.0454" stroke="#000062" stroke-miterlimit="10"/>
<path id="Vector_3" d="M37.9805 4.71143C43.2661 5.37442 48.276 7.44681 52.4855 10.7114" stroke="#000062" stroke-miterlimit="10"/>
<path id="Vector_4" d="M57.8228 52.5974C61.0879 48.3871 63.1603 43.376 63.8228 38.0894" stroke="#000062" stroke-miterlimit="10"/>
<path id="Vector_5" d="M15.9492 57.9224C20.1587 61.1888 25.1702 63.2613 30.4572 63.9224" stroke="#000062" stroke-miterlimit="10"/>
<path id="Vector_6" d="M4.61035 38.0894C5.27139 43.3764 7.34395 48.3878 10.6104 52.5974" stroke="#000062" stroke-miterlimit="10"/>
<path id="Vector_7" d="M37.9805 63.9312C43.2661 63.2682 48.276 61.1958 52.4855 57.9312" stroke="#000062" stroke-miterlimit="10"/>
<path id="Vector_8" d="M57.8228 16.0513C61.0874 20.2607 63.1598 25.2707 63.8228 30.5563" stroke="#000062" stroke-miterlimit="10"/>
<path id="Vector_9" d="M15.9492 10.7231C20.1595 7.45803 25.1706 5.38562 30.4572 4.72314" stroke="#000062" stroke-miterlimit="10"/>
<path id="Vector_10" d="M34.2238 39.9193C37.6452 39.9193 40.4188 37.1457 40.4188 33.7243C40.4188 30.3029 37.6452 27.5293 34.2238 27.5293C30.8024 27.5293 28.0288 30.3029 28.0288 33.7243C28.0288 37.1457 30.8024 39.9193 34.2238 39.9193Z" stroke="#000062" stroke-miterlimit="10"/>
<path id="Vector_11" d="M42.3001 45.2503C42.1445 43.7882 41.4536 42.4353 40.3602 41.4522C39.2669 40.4691 37.8484 39.9252 36.3781 39.9253H32.0671C30.5962 39.9244 29.1771 40.468 28.0831 41.4512C26.9891 42.4344 26.2977 43.7877 26.1421 45.2503" stroke="#000062" stroke-miterlimit="10"/>
<path id="Vector_12" d="M34.2242 8.24819C36.3085 8.24819 37.9982 6.55852 37.9982 4.4742C37.9982 2.38987 36.3085 0.700195 34.2242 0.700195C32.1399 0.700195 30.4502 2.38987 30.4502 4.4742C30.4502 6.55852 32.1399 8.24819 34.2242 8.24819Z" fill="white" stroke="#000062" stroke-miterlimit="10"/>
<path id="Vector_13" d="M34.2242 67.9455C36.3085 67.9455 37.9982 66.2558 37.9982 64.1715C37.9982 62.0871 36.3085 60.3975 34.2242 60.3975C32.1399 60.3975 30.4502 62.0871 30.4502 64.1715C30.4502 66.2558 32.1399 67.9455 34.2242 67.9455Z" fill="white" stroke="#000062" stroke-miterlimit="10"/>
<path id="Vector_14" d="M64.0718 38.0954C66.1562 38.0954 67.8458 36.4057 67.8458 34.3214C67.8458 32.237 66.1562 30.5474 64.0718 30.5474C61.9875 30.5474 60.2979 32.237 60.2979 34.3214C60.2979 36.4057 61.9875 38.0954 64.0718 38.0954Z" fill="white" stroke="#000062" stroke-miterlimit="10"/>
<path id="Vector_15" d="M4.3741 38.0954C6.45842 38.0954 8.1481 36.4057 8.1481 34.3214C8.1481 32.237 6.45842 30.5474 4.3741 30.5474C2.28977 30.5474 0.600098 32.237 0.600098 34.3214C0.600098 36.4057 2.28977 38.0954 4.3741 38.0954Z" fill="white" stroke="#000062" stroke-miterlimit="10"/>
<path id="Vector_16" d="M57.9956 58.0959C59.4694 56.622 59.4694 54.2325 57.9956 52.7586C56.5218 51.2848 54.1322 51.2848 52.6584 52.7586C51.1845 54.2325 51.1845 56.622 52.6584 58.0959C54.1322 59.5697 56.5218 59.5697 57.9956 58.0959Z" fill="white" stroke="#000062" stroke-miterlimit="10"/>
<path id="Vector_17" d="M15.7827 15.8849C17.2566 14.4111 17.2566 12.0215 15.7827 10.5477C14.3089 9.07385 11.9193 9.07385 10.4455 10.5477C8.97164 12.0215 8.97164 14.4111 10.4455 15.8849C11.9193 17.3588 14.3089 17.3588 15.7827 15.8849Z" fill="white" stroke="#000062" stroke-miterlimit="10"/>
<path id="Vector_18" d="M15.7827 58.0949C17.2566 56.6211 17.2566 54.2315 15.7827 52.7576C14.3089 51.2838 11.9193 51.2838 10.4455 52.7576C8.97164 54.2315 8.97164 56.6211 10.4455 58.0949C11.9193 59.5687 14.3089 59.5687 15.7827 58.0949Z" fill="white" stroke="#000062" stroke-miterlimit="10"/>
<path id="Vector_19" d="M57.998 15.883C59.4719 14.4091 59.4719 12.0196 57.998 10.5457C56.5242 9.0719 54.1346 9.0719 52.6608 10.5457C51.187 12.0196 51.187 14.4091 52.6608 15.883C54.1346 17.3568 56.5242 17.3568 57.998 15.883Z" fill="white" stroke="#000062" stroke-miterlimit="10"/>
<path id="Vector_20" d="M34.2212 60.3942V47.9082" stroke="#000062" stroke-miterlimit="10"/>
<path id="Vector_21" d="M34.2212 20.734V8.24805" stroke="#000062" stroke-miterlimit="10"/>
<path id="Vector_22" d="M12.2204 34.3242H8.14941" stroke="#000062" stroke-miterlimit="10"/>
<path id="Vector_23" d="M20.6369 34.3242H16.5659" stroke="#000062" stroke-miterlimit="10"/>
<path id="Vector_24" d="M60.2971 34.3242H47.8081" stroke="#000062" stroke-miterlimit="10"/>
<path id="Vector_25" d="M24.6142 24.7152L15.7852 15.8862" stroke="#000062" stroke-miterlimit="10"/>
<path id="Vector_26" d="M52.6596 52.7592L43.8306 43.9302" stroke="#000062" stroke-miterlimit="10"/>
<path id="Vector_27" d="M52.6596 15.8862L43.8306 24.7152" stroke="#000062" stroke-miterlimit="10"/>
<path id="Vector_28" d="M24.6142 43.9302L15.7852 52.7592" stroke="#000062" stroke-miterlimit="10"/>
<path id="Vector_29" d="M14.395 35.1162C14.8324 35.1162 15.187 34.7616 15.187 34.3242C15.187 33.8868 14.8324 33.5322 14.395 33.5322C13.9576 33.5322 13.603 33.8868 13.603 34.3242C13.603 34.7616 13.9576 35.1162 14.395 35.1162Z" fill="#000062"/>
</g>
</g>
</svg>
