<svg width="66" height="58" viewBox="0 0 66 58" fill="none" xmlns="http://www.w3.org/2000/svg">
<g id="main-shape">
<g id="vectors">
<g id="Vector">
<path d="M9.4499 42.6278H4.1969C3.76385 42.6281 3.335 42.543 2.93486 42.3774C2.53473 42.2118 2.17115 41.969 1.86494 41.6628C1.55873 41.3566 1.31591 40.993 1.15032 40.5929C0.984725 40.1927 0.899631 39.7639 0.899903 39.3308V4.48882C0.899942 4.05601 0.985237 3.62744 1.15098 3.22762C1.31672 2.82779 1.55963 2.46455 1.86582 2.15864C2.17201 1.85273 2.53547 1.61016 2.93545 1.44478C3.33542 1.27941 3.76408 1.19447 4.1969 1.19483H61.8779C62.7514 1.19524 63.589 1.54242 64.2066 2.16007C64.8243 2.77773 65.1715 3.61533 65.1719 4.48882V39.3308C65.1721 40.2048 64.8252 41.0431 64.2075 41.6613C63.5898 42.2796 62.7519 42.6272 61.8779 42.6278H35.2769" fill="white"/>
<path d="M9.4499 42.6278H4.1969C3.76386 42.6281 3.335 42.543 2.93486 42.3774C2.53473 42.2118 2.17115 41.969 1.86494 41.6628C1.55873 41.3566 1.31591 40.993 1.15032 40.5929C0.984725 40.1927 0.899631 39.7639 0.899903 39.3308V4.48882C0.899942 4.05601 0.985237 3.62744 1.15098 3.22762C1.31672 2.82779 1.55963 2.46455 1.86582 2.15864C2.17201 1.85273 2.53547 1.61016 2.93545 1.44478C3.33542 1.27941 3.76408 1.19447 4.1969 1.19483H61.8779C62.7514 1.19524 63.589 1.54242 64.2066 2.16007C64.8243 2.77773 65.1715 3.61533 65.1719 4.48882V39.3308C65.1721 40.2048 64.8252 41.0431 64.2075 41.6613C63.5898 42.2796 62.7519 42.6272 61.8779 42.6278H35.2769" stroke="#000062" stroke-miterlimit="10"/>
</g>
<path id="Vector_2" d="M35.8368 22.9302H30.2368V42.4377H35.8368V22.9302Z" fill="white"/>
<path id="Vector_3" d="M30.7955 42.6277H30.6816H30.6636H13.8726" stroke="#000062" stroke-miterlimit="10"/>
<path id="Vector_4" d="M0.899902 9.55444H65.1722" stroke="#000062" stroke-miterlimit="10"/>
<path id="Vector_5" d="M7.33376 6.75911C8.04073 6.75911 8.61382 6.18601 8.61382 5.47904C8.61382 4.77208 8.04073 4.19897 7.33376 4.19897C6.6268 4.19897 6.05371 4.77208 6.05371 5.47904C6.05371 6.18601 6.6268 6.75911 7.33376 6.75911Z" fill="#000062"/>
<path id="Vector_6" d="M14.2831 6.75911C14.99 6.75911 15.5631 6.18601 15.5631 5.47904C15.5631 4.77208 14.99 4.19897 14.2831 4.19897C13.5761 4.19897 13.0029 4.77208 13.0029 5.47904C13.0029 6.18601 13.5761 6.75911 14.2831 6.75911Z" fill="#000062"/>
<path id="Vector_7" d="M21.2322 6.75911C21.9392 6.75911 22.5123 6.18601 22.5123 5.47904C22.5123 4.77208 21.9392 4.19897 21.2322 4.19897C20.5252 4.19897 19.9521 4.77208 19.9521 5.47904C19.9521 6.18601 20.5252 6.75911 21.2322 6.75911Z" fill="#000062"/>
<path id="Vector_8" d="M33.0378 37.5014C39.7055 37.5014 45.1107 32.0961 45.1107 25.4284C45.1107 18.7607 39.7055 13.3555 33.0378 13.3555C26.3701 13.3555 20.9648 18.7607 20.9648 25.4284C20.9648 32.0961 26.3701 37.5014 33.0378 37.5014Z" fill="white" stroke="#000062" stroke-miterlimit="10"/>
<path id="Vector_9" d="M30.6821 42.6994V42.6271V37.2727" stroke="#000062" stroke-miterlimit="10"/>
<path id="Vector_10" d="M35.3906 37.2727V42.6271V42.6994" stroke="#000062" stroke-miterlimit="10"/>
<path id="Vector_11" d="M33.2238 42.0037H32.8503C30.5563 42.0037 28.6968 43.8633 28.6968 46.1572V52.8906C28.6968 55.1846 30.5563 57.0442 32.8503 57.0442H33.2238C35.5177 57.0442 37.3774 55.1846 37.3774 52.8906V46.1572C37.3774 43.8633 35.5177 42.0037 33.2238 42.0037Z" fill="white" stroke="#000062" stroke-miterlimit="10"/>
<path id="Vector_12" d="M33.0376 18.6458C34.5854 18.6458 36.0699 19.2606 37.1644 20.3551C38.2589 21.4496 38.8738 22.9341 38.8738 24.4819V24.9458" stroke="#000062" stroke-miterlimit="10"/>
<path id="Vector_13" d="M11.6779 43.3108C12.0553 43.3108 12.3611 43.0049 12.3611 42.6276C12.3611 42.2502 12.0553 41.9443 11.6779 41.9443C11.3006 41.9443 10.9946 42.2502 10.9946 42.6276C10.9946 43.0049 11.3006 43.3108 11.6779 43.3108Z" fill="#000062"/>
</g>
</g>
</svg>
