<svg width="56" height="56" viewBox="0 0 56 56" fill="none" xmlns="http://www.w3.org/2000/svg">
<path d="M16.478 37.7593L16.982 39.0233C17.0527 39.2003 17.1666 39.3567 17.3134 39.4783C17.4601 39.5999 17.635 39.6828 17.822 39.7193C17.987 39.7515 18.1571 39.7467 18.3201 39.7054C18.483 39.6641 18.6348 39.5873 18.7646 39.4805C18.8944 39.3736 18.9989 39.2394 19.0707 39.0874C19.1426 38.9354 19.1799 38.7694 19.18 38.6013V33.9453H16.478V37.7593Z" fill="white"/>
<path d="M18.5999 21.5378L28.3199 14.9038C29.1439 14.3438 30.1719 15.0458 30.1719 16.1678V40.5078C30.1719 41.6318 29.1439 42.3338 28.3199 41.7698L18.5999 35.1378" fill="white"/>
<path d="M18.5999 21.5378L28.3199 14.9038C29.1439 14.3438 30.1719 15.0458 30.1719 16.1678V40.5078C30.1719 41.6318 29.1439 42.3338 28.3199 41.7698L18.5999 35.1378" stroke="#000062" stroke-miterlimit="10"/>
<path d="M12.497 35.2169L9.18099 41.0329C9.08731 41.1976 9.02845 41.3798 9.00805 41.5682C8.98764 41.7566 9.00614 41.9471 9.06239 42.1281C9.11864 42.309 9.21145 42.4765 9.33505 42.6201C9.45866 42.7637 9.61044 42.8804 9.78099 42.9629L11.595 43.8429C11.9134 43.9981 12.2792 44.0252 12.617 43.9188C12.9548 43.8124 13.239 43.5805 13.411 43.2709L17.889 35.2109" fill="white"/>
<path d="M12.497 35.2169L9.18099 41.0329C9.08731 41.1976 9.02845 41.3798 9.00805 41.5682C8.98764 41.7566 9.00614 41.9471 9.06239 42.1281C9.11864 42.309 9.21145 42.4765 9.33505 42.6201C9.45866 42.7637 9.61044 42.8804 9.78099 42.9629L11.595 43.8429C11.9134 43.9981 12.2792 44.0252 12.617 43.9188C12.9548 43.8124 13.239 43.5805 13.411 43.2709L17.889 35.2109" stroke="#000062" stroke-miterlimit="10"/>
<path d="M16.478 37.7592L16.982 39.0232C17.0527 39.2001 17.1666 39.3566 17.3134 39.4782C17.4601 39.5997 17.635 39.6826 17.822 39.7192C17.987 39.7513 18.1571 39.7466 18.3201 39.7053C18.483 39.664 18.6348 39.5872 18.7646 39.4803C18.8944 39.3735 18.9989 39.2392 19.0707 39.0872C19.1426 38.9353 19.1799 38.7693 19.18 38.6012V35.5352" stroke="#000062" stroke-miterlimit="10"/>
<path d="M12.2659 21.4609H18.5999V35.2169H12.2659C12.0209 35.2169 11.7782 35.1687 11.5518 35.0749C11.3254 34.9811 11.1197 34.8437 10.9464 34.6704C10.7732 34.4971 10.6357 34.2914 10.5419 34.065C10.4482 33.8386 10.3999 33.596 10.3999 33.3509V23.3269C10.3999 22.832 10.5965 22.3574 10.9464 22.0075C11.2964 21.6575 11.771 21.4609 12.2659 21.4609Z" fill="white" stroke="#000062" stroke-miterlimit="10"/>
<path d="M7.06595 23.9844H10.39V32.6924H7.06595C6.57106 32.6924 6.09643 32.4958 5.74649 32.1458C5.39655 31.7959 5.19995 31.3213 5.19995 30.8264V25.8424C5.20207 25.3489 5.3996 24.8763 5.74931 24.5281C6.09902 24.1799 6.57244 23.9844 7.06595 23.9844Z" fill="white" stroke="#000062" stroke-miterlimit="10"/>
<path d="M13.1077 21.4609V35.2169" stroke="#000062" stroke-miterlimit="10"/>
<path d="M26.842 40.484V29.668" stroke="#000062" stroke-miterlimit="10"/>
<path d="M26.842 26.7282V15.9122V15.9102" stroke="#000062" stroke-miterlimit="10"/>
<path d="M48.2402 12.1992H35.9182C34.8622 12.1992 34.0062 13.1992 34.0062 14.4432V19.6292C34.0066 19.8839 33.9695 20.1373 33.8962 20.3812L32.8122 23.9532C32.5102 24.9532 33.3622 25.8912 34.1922 25.4772L36.0362 24.5552C36.2688 24.4376 36.5256 24.3759 36.7862 24.3752H48.2422C49.2982 24.3752 50.1542 23.3752 50.1542 22.1312V14.4412C50.1522 13.2032 49.2962 12.1992 48.2402 12.1992Z" fill="white" stroke="#000062" stroke-miterlimit="10"/>
<path d="M37.553 14.7617H43.261" stroke="#000062" stroke-miterlimit="10"/>
<path d="M37.553 18.2227H47.731" stroke="#000062" stroke-miterlimit="10"/>
<path d="M37.553 21.6836H43.261" stroke="#000062" stroke-miterlimit="10"/>
<path d="M44.3 14.7617H46.954" stroke="#000062" stroke-miterlimit="10"/>
<path d="M22.9578 18.8867V27.0867" stroke="#000062" stroke-miterlimit="10"/>
<path d="M22.9578 28.3359V29.6859" stroke="#000062" stroke-miterlimit="10"/>
<path d="M26.842 28.724C27.1336 28.724 27.37 28.4876 27.37 28.196C27.37 27.9044 27.1336 27.668 26.842 27.668C26.5504 27.668 26.314 27.9044 26.314 28.196C26.314 28.4876 26.5504 28.724 26.842 28.724Z" fill="#000062"/>
</svg>
