<svg width="44" height="37" viewBox="0 0 44 37" fill="none" xmlns="http://www.w3.org/2000/svg">
<g id="main-shape">
<g id="vectors">
<g id="Vector">
<path d="M6.29961 29.0854H2.79761C2.50891 29.0856 2.22301 29.0288 1.95625 28.9184C1.68949 28.808 1.44711 28.6461 1.24297 28.442C1.03883 28.2379 0.876949 27.9955 0.766553 27.7287C0.656158 27.462 0.599428 27.1761 0.59961 26.8874V3.65938C0.599636 3.37084 0.656499 3.08512 0.766993 2.81858C0.877486 2.55203 1.03943 2.30986 1.24356 2.10592C1.44768 1.90199 1.68999 1.74027 1.95664 1.63002C2.22329 1.51977 2.50906 1.46314 2.79761 1.46338H41.2516C41.8339 1.46366 42.3923 1.69511 42.8041 2.10688C43.2159 2.51865 43.4473 3.07705 43.4476 3.65938V26.8874C43.4477 27.47 43.2165 28.0289 42.8047 28.441C42.3929 28.8532 41.8343 29.085 41.2516 29.0854H9.29961" fill="white"/>
<path d="M6.29961 29.0854H2.79761C2.50891 29.0856 2.22301 29.0288 1.95625 28.9184C1.68949 28.808 1.44711 28.6461 1.24297 28.442C1.03883 28.2379 0.876949 27.9955 0.766553 27.7287C0.656158 27.462 0.599428 27.1761 0.59961 26.8874V3.65938C0.599636 3.37084 0.656499 3.08512 0.766993 2.81858C0.877486 2.55203 1.03943 2.30986 1.24356 2.10592C1.44768 1.90199 1.68999 1.74027 1.95664 1.63002C2.22329 1.51977 2.50906 1.46314 2.79761 1.46338H41.2516C41.8339 1.46366 42.3923 1.69511 42.8041 2.10688C43.2159 2.51865 43.4473 3.07705 43.4476 3.65938V26.8874C43.4477 27.47 43.2165 28.0289 42.8047 28.441C42.3929 28.8532 41.8343 29.085 41.2516 29.0854H9.29961" stroke="#000062" stroke-miterlimit="10"/>
</g>
<path id="Vector_2" d="M0.599609 7.03662H43.4478" stroke="#000062" stroke-miterlimit="10"/>
<path id="Vector_3" d="M4.88853 5.17307C5.35983 5.17307 5.74189 4.791 5.74189 4.31969C5.74189 3.84838 5.35983 3.46631 4.88853 3.46631C4.41722 3.46631 4.03516 3.84838 4.03516 4.31969C4.03516 4.791 4.41722 5.17307 4.88853 5.17307Z" fill="#000062"/>
<path id="Vector_4" d="M9.52139 5.17307C9.9927 5.17307 10.3748 4.791 10.3748 4.31969C10.3748 3.84838 9.9927 3.46631 9.52139 3.46631C9.05008 3.46631 8.66797 3.84838 8.66797 4.31969C8.66797 4.791 9.05008 5.17307 9.52139 5.17307Z" fill="#000062"/>
<path id="Vector_5" d="M14.1542 5.17307C14.6255 5.17307 15.0075 4.791 15.0075 4.31969C15.0075 3.84838 14.6255 3.46631 14.1542 3.46631C13.6828 3.46631 13.3008 3.84838 13.3008 4.31969C13.3008 4.791 13.6828 5.17307 14.1542 5.17307Z" fill="#000062"/>
<path id="Vector_6" d="M7.7856 29.5409C8.03716 29.5409 8.24107 29.3369 8.24107 29.0854C8.24107 28.8338 8.03716 28.6299 7.7856 28.6299C7.53403 28.6299 7.33008 28.8338 7.33008 29.0854C7.33008 29.3369 7.53403 29.5409 7.7856 29.5409Z" fill="#000062"/>
<path id="Vector_7" d="M31.9992 25.5313V23.4678C31.9992 23.1523 31.8742 22.8497 31.6515 22.6262C31.4288 22.4026 31.1266 22.2765 30.8111 22.2753H30.0931C29.8444 22.2753 29.6019 22.1974 29.3996 22.0527C29.1974 21.9079 29.0455 21.7035 28.9653 21.468C28.8396 21.0953 28.6904 20.7309 28.5187 20.3771C28.4085 20.1541 28.3708 19.9023 28.4108 19.6568C28.4509 19.4114 28.5667 19.1846 28.742 19.0082L29.2478 18.5012C29.4713 18.2776 29.5969 17.9744 29.5969 17.6582C29.5969 17.3421 29.4713 17.0388 29.2478 16.8152L27.7839 15.3558C27.5603 15.1323 27.257 15.0068 26.9409 15.0068C26.6247 15.0068 26.3214 15.1323 26.0978 15.3558L25.5908 15.8628C25.4144 16.0381 25.1876 16.1539 24.9421 16.1939C24.6967 16.234 24.4448 16.1962 24.2218 16.0861C23.868 15.9143 23.5036 15.7651 23.1309 15.6394C22.8962 15.5592 22.6924 15.4078 22.5478 15.2063C22.4033 15.0047 22.3253 14.7631 22.3247 14.515V13.7926C22.3247 13.636 22.2938 13.4809 22.2339 13.3363C22.174 13.1916 22.0861 13.0601 21.9754 12.9494C21.8646 12.8386 21.7332 12.7508 21.5885 12.6909C21.4438 12.6309 21.2887 12.6001 21.1321 12.6001H19.0674C18.7512 12.6001 18.4478 12.7257 18.2242 12.9494C18.0005 13.173 17.8749 13.4763 17.8749 13.7926V14.515C17.8749 14.7638 17.797 15.0062 17.6522 15.2085C17.5075 15.4107 17.303 15.5626 17.0675 15.6428C16.6948 15.7685 16.3304 15.9176 15.9766 16.0894C15.7536 16.1996 15.5018 16.2373 15.2563 16.1973C15.0108 16.1572 14.784 16.0414 14.6076 15.8661L14.1006 15.3592C13.877 15.1357 13.5738 15.0101 13.2576 15.0101C12.9414 15.0101 12.6382 15.1357 12.4145 15.3592L10.9551 16.8152C10.7316 17.0388 10.606 17.3421 10.606 17.6582C10.606 17.9744 10.7316 18.2776 10.9551 18.5012L11.462 19.0082C11.6374 19.1846 11.7532 19.4114 11.7932 19.6568C11.8332 19.9023 11.7955 20.1541 11.6854 20.3771C11.5136 20.7309 11.3644 21.0953 11.2387 21.468C11.1585 21.7035 11.0066 21.9079 10.8044 22.0527C10.6021 22.1974 10.3596 22.2753 10.1109 22.2753H9.39179C9.23518 22.2753 9.0801 22.3061 8.93541 22.3661C8.79072 22.426 8.65925 22.5138 8.54851 22.6246C8.43777 22.7353 8.34993 22.8668 8.29 23.0115C8.23007 23.1561 8.19922 23.3112 8.19922 23.4678V25.5324C8.19922 25.8487 8.32486 26.152 8.54851 26.3756C8.77216 26.5993 9.0755 26.7249 9.39179 26.7249H10.1098C10.3585 26.7249 10.601 26.8027 10.8033 26.9475C11.0055 27.0923 11.1574 27.2967 11.2376 27.5322C11.3633 27.9049 11.5125 28.2693 11.6842 28.6231C11.7944 28.8461 11.8321 29.0979 11.7921 29.3434C11.752 29.5888 11.6362 29.8156 11.4609 29.992L10.954 30.4989C10.7304 30.7226 10.6049 31.0258 10.6049 31.342C10.6049 31.6581 10.7304 31.9614 10.954 32.185L12.4134 33.6444C12.637 33.8679 12.9403 33.9934 13.2565 33.9934C13.5727 33.9934 13.8759 33.8679 14.0995 33.6444L14.6065 33.1374C14.7829 32.9621 15.0097 32.8463 15.2552 32.8063C15.5006 32.7662 15.7525 32.8039 15.9755 32.9141C16.3293 33.0859 16.6937 33.2351 17.0664 33.3608C17.3019 33.4409 17.5063 33.5928 17.6511 33.795C17.7959 33.9973 17.8738 34.2398 17.8738 34.4885V35.2065C17.8736 35.3633 17.9044 35.5185 17.9643 35.6634C18.0243 35.8083 18.1122 35.9399 18.2231 36.0508C18.3339 36.1617 18.4656 36.2496 18.6105 36.3095C18.7554 36.3695 18.9106 36.4002 19.0674 36.4001H21.1321C21.2888 36.4001 21.444 36.3692 21.5887 36.3092C21.7335 36.2492 21.865 36.1613 21.9758 36.0504C22.0865 35.9396 22.1744 35.808 22.2342 35.6632C22.2941 35.5184 22.3248 35.3632 22.3247 35.2065V34.4885C22.3247 34.2398 22.4025 33.9973 22.5473 33.795C22.6921 33.5928 22.8966 33.4409 23.132 33.3608C23.5047 33.2351 23.8691 33.0859 24.223 32.9141C24.4459 32.8039 24.6978 32.7662 24.9433 32.8063C25.1887 32.8463 25.4155 32.9621 25.592 33.1374L26.0989 33.6444C26.3225 33.8679 26.6258 33.9934 26.942 33.9934C27.2582 33.9934 27.5614 33.8679 27.785 33.6444L29.2478 32.1839C29.4713 31.9603 29.5969 31.657 29.5969 31.3409C29.5969 31.0247 29.4713 30.7215 29.2478 30.4978L28.7409 29.9909C28.5655 29.8145 28.4497 29.5877 28.4097 29.3422C28.3697 29.0968 28.4074 28.8449 28.5175 28.622C28.6893 28.2681 28.8385 27.9038 28.9642 27.5311C29.0444 27.2956 29.1963 27.0912 29.3985 26.9464C29.6008 26.8016 29.8433 26.7238 30.092 26.7238H30.8111C31.1266 26.7226 31.4288 26.5964 31.6515 26.3729C31.8742 26.1494 31.9992 25.8468 31.9992 25.5313Z" fill="white" stroke="#000062" stroke-miterlimit="10"/>
<path id="Vector_8" d="M20.1 30.5999C23.4689 30.5999 26.2 27.8688 26.2 24.4999C26.2 21.131 23.4689 18.3999 20.1 18.3999C16.7311 18.3999 14 21.131 14 24.4999C14 27.8688 16.7311 30.5999 20.1 30.5999Z" fill="white" stroke="#000062" stroke-miterlimit="10"/>
</g>
</g>
</svg>
