<svg width="56" height="56" viewBox="0 0 56 56" fill="none" xmlns="http://www.w3.org/2000/svg">
<path d="M41.5747 11.8633H17.0387C16.3572 11.8633 15.8047 12.4158 15.8047 13.0973V45.8553C15.8047 46.5368 16.3572 47.0893 17.0387 47.0893H41.5747C42.2562 47.0893 42.8087 46.5368 42.8087 45.8553V13.0973C42.8087 12.4158 42.2562 11.8633 41.5747 11.8633Z" fill="white"/>
<path d="M38.1699 8.80078H13.6339C12.9524 8.80078 12.3999 9.35326 12.3999 10.0348V42.7928C12.3999 43.4743 12.9524 44.0268 13.6339 44.0268H38.1699C38.8514 44.0268 39.4039 43.4743 39.4039 42.7928V10.0348C39.4039 9.35326 38.8514 8.80078 38.1699 8.80078Z" fill="white" stroke="#000062" stroke-miterlimit="10"/>
<path d="M42.8087 26.0078V45.1258C42.8087 45.3828 42.758 45.6374 42.6596 45.8748C42.5612 46.1122 42.4169 46.328 42.2351 46.5096C42.0532 46.6913 41.8374 46.8353 41.5998 46.9335C41.3623 47.0317 41.1077 47.0821 40.8507 47.0818H17.0367C16.7099 47.0818 16.3966 46.952 16.1655 46.721C15.9345 46.4899 15.8047 46.1766 15.8047 45.8498V44.0198" stroke="#000062" stroke-miterlimit="10"/>
<path d="M39.4048 11.8633H41.5748C41.9021 11.8633 42.2159 11.9933 42.4474 12.2247C42.6788 12.4561 42.8088 12.77 42.8088 13.0973V21.5473" stroke="#000062" stroke-miterlimit="10"/>
<path d="M17.1826 15.4375H34.6246" stroke="#000062" stroke-miterlimit="10"/>
<path d="M17.1826 20.7969H34.6246" stroke="#000062" stroke-miterlimit="10"/>
<path d="M17.1826 26.1562H26.2586" stroke="#000062" stroke-miterlimit="10"/>
<path d="M17.1826 31.5156H29.8326" stroke="#000062" stroke-miterlimit="10"/>
<path d="M27.9185 26.1562H34.6245" stroke="#000062" stroke-miterlimit="10"/>
<path d="M31.5562 31.5156H34.6242" stroke="#000062" stroke-miterlimit="10"/>
<path d="M27.9829 38.0812L30.7049 36.7812C31.0091 36.6362 31.3487 36.582 31.6829 36.6253C32.0171 36.6686 32.3317 36.8075 32.5889 37.0252C32.9273 37.3118 33.3619 37.4592 33.8048 37.4376C34.2477 37.4161 34.6659 37.2272 34.9749 36.9092L36.1509 35.6992" stroke="#000062" stroke-miterlimit="10"/>
<path d="M27.9185 40.6211H36.5125" stroke="#000062" stroke-miterlimit="10"/>
<path d="M42.8095 24.4578C43.1408 24.4578 43.4095 24.1892 43.4095 23.8578C43.4095 23.5264 43.1408 23.2578 42.8095 23.2578C42.4781 23.2578 42.2095 23.5264 42.2095 23.8578C42.2095 24.1892 42.4781 24.4578 42.8095 24.4578Z" fill="#000062"/>
<path d="M12.3999 11.8633H24.1339" stroke="#000062" stroke-miterlimit="10"/>
<path d="M25.5342 11.8633H27.2662" stroke="#000062" stroke-miterlimit="10"/>
</svg>
