<svg width="37" height="43" viewBox="0 0 37 43" fill="none" xmlns="http://www.w3.org/2000/svg">
<g id="main-shape">
<g id="shape">
<path id="Vector" d="M33.374 41.9439H6.17404C5.62185 41.9439 5.09229 41.7245 4.70184 41.3341C4.31139 40.9436 4.09204 40.414 4.09204 39.8619V11.0619L11.328 3.75586H33.602C34.0959 3.75586 34.5695 3.95203 34.9187 4.30123C35.2679 4.65042 35.464 5.12403 35.464 5.61786V39.8639C35.4638 40.1378 35.4095 40.409 35.3042 40.6618C35.199 40.9147 35.0448 41.1444 34.8507 41.3376C34.6565 41.5308 34.4262 41.6838 34.1728 41.7879C33.9194 41.8919 33.648 41.9449 33.374 41.9439Z" fill="white"/>
<path id="Vector_2" d="M30.4939 39.5884H3.28195C2.72976 39.5884 2.2002 39.369 1.80975 38.9786C1.4193 38.5881 1.19995 38.0586 1.19995 37.5064V8.70639L8.43595 1.40039H30.714C31.2078 1.40039 31.6814 1.59657 32.0306 1.94576C32.3798 2.29495 32.576 2.76856 32.576 3.26239V37.5064C32.576 38.0586 32.3566 38.5881 31.9661 38.9786C31.5757 39.369 31.0461 39.5884 30.4939 39.5884Z" fill="white" stroke="#000062" stroke-miterlimit="10"/>
<path id="Vector_3" d="M35.464 17.4902V39.8422C35.4638 40.1162 35.4095 40.3873 35.3042 40.6402C35.199 40.8931 35.0448 41.1227 34.8507 41.316C34.6565 41.5092 34.4262 41.6622 34.1728 41.7662C33.9194 41.8703 33.648 41.9233 33.374 41.9222H6.17404C5.6222 41.9222 5.09294 41.7032 4.70255 41.3131C4.31216 40.9231 4.09257 40.3941 4.09204 39.8422V39.5882" stroke="#000062" stroke-miterlimit="10"/>
<path id="Vector_4" d="M32.5735 3.74219H33.6015C33.8459 3.74193 34.088 3.78984 34.3139 3.8832C34.5398 3.97655 34.7451 4.11352 34.918 4.28626C35.0909 4.45901 35.2281 4.66413 35.3217 4.88993C35.4153 5.11573 35.4635 5.35776 35.4635 5.60219V11.5402" stroke="#000062" stroke-miterlimit="10"/>
<path id="Vector_5" d="M1.19995 8.71225H8.43595V1.40625" stroke="#000062" stroke-miterlimit="10"/>
<path id="Vector_6" d="M9.46696 12.5059H6.60496C6.23713 12.5059 5.93896 12.804 5.93896 13.1719V16.0339C5.93896 16.4017 6.23713 16.6999 6.60496 16.6999H9.46696C9.83478 16.6999 10.133 16.4017 10.133 16.0339V13.1719C10.133 12.804 9.83478 12.5059 9.46696 12.5059Z" fill="white" stroke="#000062" stroke-miterlimit="10"/>
<path id="Vector_7" d="M9.46696 22.0098H6.60496C6.23713 22.0098 5.93896 22.3079 5.93896 22.6758V25.5378C5.93896 25.9056 6.23713 26.2038 6.60496 26.2038H9.46696C9.83478 26.2038 10.133 25.9056 10.133 25.5378V22.6758C10.133 22.3079 9.83478 22.0098 9.46696 22.0098Z" fill="white" stroke="#000062" stroke-miterlimit="10"/>
<path id="Vector_8" d="M9.46696 31.5117H6.60496C6.23713 31.5117 5.93896 31.8099 5.93896 32.1777V35.0397C5.93896 35.4075 6.23713 35.7057 6.60496 35.7057H9.46696C9.83478 35.7057 10.133 35.4075 10.133 35.0397V32.1777C10.133 31.8099 9.83478 31.5117 9.46696 31.5117Z" fill="white" stroke="#000062" stroke-miterlimit="10"/>
<path id="Vector_9" d="M13.6296 13.4043H29.3296" stroke="#000062" stroke-miterlimit="10"/>
<path id="Vector_10" d="M13.6296 15.9551H21.4796" stroke="#000062" stroke-miterlimit="10"/>
<path id="Vector_11" d="M13.6296 22.832H29.3296" stroke="#000062" stroke-miterlimit="10"/>
<path id="Vector_12" d="M13.6296 25.3828H21.4796" stroke="#000062" stroke-miterlimit="10"/>
<path id="Vector_13" d="M13.6296 32.2598H29.3296" stroke="#000062" stroke-miterlimit="10"/>
<path id="Vector_14" d="M13.6296 34.8105H21.4796" stroke="#000062" stroke-miterlimit="10"/>
<path id="Vector_15" d="M22.8296 15.9551H25.5296" stroke="#000062" stroke-miterlimit="10"/>
<path id="Vector_16" d="M22.8296 25.3828H25.5296" stroke="#000062" stroke-miterlimit="10"/>
<path id="Vector_17" d="M22.8296 34.8105H25.5296" stroke="#000062" stroke-miterlimit="10"/>
<path id="Vector_18" d="M35.4639 15.1919C35.8383 15.1919 36.1419 14.8884 36.1419 14.5139C36.1419 14.1395 35.8383 13.8359 35.4639 13.8359C35.0894 13.8359 34.7859 14.1395 34.7859 14.5139C34.7859 14.8884 35.0894 15.1919 35.4639 15.1919Z" fill="#000062"/>
<path id="Vector_19" d="M32.5736 5.80469H19.1296" stroke="#000062" stroke-miterlimit="10"/>
<path id="Vector_20" d="M14.9968 5.80469H17.5548" stroke="#000062" stroke-miterlimit="10"/>
</g>
</g>
</svg>
