<svg width="42" height="46" viewBox="0 0 42 46" fill="none" xmlns="http://www.w3.org/2000/svg">
<g id="main-shape">
<g id="vectors">
<path id="Vector" d="M37.2004 13.9312V11.8677C37.2004 11.5522 37.0754 11.2496 36.8527 11.0261C36.63 10.8025 36.3278 10.6764 36.0123 10.6752H35.2943C35.0456 10.6752 34.8031 10.5974 34.6008 10.4526C34.3986 10.3078 34.2467 10.1034 34.1665 9.86791C34.0408 9.49521 33.8916 9.13084 33.7198 8.77701C33.6097 8.55404 33.5719 8.3022 33.612 8.05674C33.652 7.81128 33.7678 7.58448 33.9432 7.40808L34.449 6.90115C34.6725 6.67753 34.7981 6.3743 34.7981 6.05813C34.7981 5.74196 34.6725 5.43873 34.449 5.21511L32.9851 3.75573C32.7615 3.53222 32.4582 3.40666 32.142 3.40666C31.8258 3.40666 31.5226 3.53222 31.299 3.75573L30.792 4.26266C30.6156 4.43798 30.3888 4.55377 30.1433 4.59381C29.8978 4.63386 29.646 4.59615 29.423 4.48598C29.0692 4.3142 28.7048 4.16502 28.3321 4.03934C28.0974 3.95915 27.8935 3.80772 27.749 3.60615C27.6045 3.40459 27.5265 3.16296 27.5258 2.91494V2.19251C27.5258 2.03591 27.495 1.88084 27.4351 1.73616C27.3751 1.59148 27.2873 1.46001 27.1766 1.34928C27.0658 1.23854 26.9343 1.1507 26.7897 1.09077C26.645 1.03085 26.4899 1 26.3333 1H24.2686C23.9523 1 23.649 1.12564 23.4253 1.34928C23.2017 1.57292 23.0761 1.87624 23.0761 2.19251V2.91494C23.076 3.16367 22.9982 3.40615 22.8534 3.6084C22.7086 3.81064 22.5042 3.9625 22.2687 4.04269C21.896 4.16837 21.5316 4.31755 21.1778 4.48933C20.9548 4.5995 20.7029 4.63721 20.4575 4.59716C20.212 4.55712 19.9852 4.44133 19.8088 4.26601L19.3018 3.75908C19.0782 3.53557 18.7749 3.41001 18.4588 3.41001C18.1426 3.41001 17.8393 3.53557 17.6157 3.75908L16.1563 5.21511C15.9327 5.43873 15.8072 5.74196 15.8072 6.05813C15.8072 6.3743 15.9327 6.67753 16.1563 6.90115L16.6632 7.40808C16.8385 7.58448 16.9543 7.81128 16.9944 8.05674C17.0344 8.3022 16.9967 8.55404 16.8865 8.77701C16.7147 9.13084 16.5656 9.49521 16.4399 9.86791C16.3597 10.1034 16.2078 10.3078 16.0056 10.4526C15.8033 10.5974 15.5608 10.6752 15.3121 10.6752H14.593C14.4363 10.6752 14.2813 10.706 14.1366 10.766C13.9919 10.8259 13.8604 10.9137 13.7497 11.0245C13.6389 11.1352 13.5511 11.2667 13.4912 11.4114C13.4312 11.556 13.4004 11.7111 13.4004 11.8677V13.9323C13.4004 14.2486 13.526 14.5519 13.7497 14.7755C13.9733 14.9992 14.2767 15.1248 14.593 15.1248H15.311C15.5597 15.1248 15.8022 15.2026 16.0044 15.3474C16.2067 15.4922 16.3586 15.6966 16.4388 15.9321C16.5644 16.3048 16.7136 16.6692 16.8854 17.023C16.9956 17.246 17.0333 17.4978 16.9933 17.7433C16.9532 17.9887 16.8374 18.2155 16.6621 18.3919L16.1551 18.8988C15.9316 19.1225 15.8061 19.4257 15.8061 19.7419C15.8061 20.058 15.9316 20.3613 16.1551 20.5849L17.6146 22.0443C17.8382 22.2678 18.1415 22.3933 18.4576 22.3933C18.7738 22.3933 19.0771 22.2678 19.3007 22.0443L19.8077 21.5373C19.9841 21.362 20.2109 21.2462 20.4563 21.2062C20.7018 21.1661 20.9537 21.2038 21.1767 21.314C21.5305 21.4858 21.8949 21.635 22.2676 21.7607C22.5031 21.8408 22.7075 21.9927 22.8523 22.195C22.9971 22.3972 23.0749 22.6397 23.0749 22.8884V23.6064C23.0748 23.7632 23.1056 23.9184 23.1655 24.0633C23.2254 24.2082 23.3134 24.3399 23.4242 24.4507C23.5351 24.5616 23.6667 24.6495 23.8116 24.7094C23.9565 24.7694 24.1118 24.8001 24.2686 24.8H26.3333C26.49 24.8 26.6452 24.7691 26.7899 24.7091C26.9347 24.6491 27.0662 24.5612 27.1769 24.4503C27.2877 24.3395 27.3755 24.2079 27.4354 24.0631C27.4953 23.9183 27.526 23.7631 27.5258 23.6064V22.8884C27.5259 22.6397 27.6037 22.3972 27.7485 22.195C27.8933 21.9927 28.0977 21.8408 28.3332 21.7607C28.7059 21.635 29.0703 21.4858 29.4241 21.314C29.6471 21.2038 29.899 21.1661 30.1444 21.2062C30.3899 21.2462 30.6167 21.362 30.7931 21.5373L31.3001 22.0443C31.5237 22.2678 31.827 22.3933 32.1431 22.3933C32.4593 22.3933 32.7626 22.2678 32.9862 22.0443L34.449 20.5838C34.6725 20.3602 34.7981 20.0569 34.7981 19.7408C34.7981 19.4246 34.6725 19.1214 34.449 18.8977L33.942 18.3908C33.7667 18.2144 33.6509 17.9876 33.6109 17.7421C33.5708 17.4967 33.6085 17.2448 33.7187 17.0219C33.8905 16.668 34.0397 16.3037 34.1654 15.931C34.2456 15.6955 34.3974 15.4911 34.5997 15.3463C34.8019 15.2015 35.0444 15.1237 35.2932 15.1237H36.0123C36.3278 15.1225 36.63 14.9963 36.8527 14.7728C37.0754 14.5493 37.2004 14.2467 37.2004 13.9312Z" fill="white" stroke="#000062" stroke-miterlimit="10"/>
<path id="Vector_2" d="M25.2992 18.9998C28.6682 18.9998 31.3992 16.2687 31.3992 12.8998C31.3992 9.53087 28.6682 6.7998 25.2992 6.7998C21.9303 6.7998 19.1992 9.53087 19.1992 12.8998C19.1992 16.2687 21.9303 18.9998 25.2992 18.9998Z" fill="white" stroke="#000062" stroke-miterlimit="10"/>
<path id="Vector_3" d="M24.7832 40.5444H1.0592V35.5444C1.0592 33.7839 1.75856 32.0955 3.00343 30.8507C4.2483 29.6058 5.9367 28.9064 7.6972 28.9064H18.1452C19.9057 28.9064 21.5941 29.6058 22.839 30.8507C24.0838 32.0955 24.7832 33.7839 24.7832 35.5444V40.5444Z" fill="white"/>
<g id="Vector_4">
<path d="M12.8672 28.8344L12.9152 28.8904L14.1412 30.2784L15.1412 31.4004C15.2149 31.4837 15.3162 31.5376 15.4266 31.5519C15.5369 31.5663 15.6487 31.5401 15.7412 31.4784L18.5012 29.6344C18.5602 29.5953 18.6093 29.543 18.6448 29.4818C18.6803 29.4205 18.7012 29.3519 18.7059 29.2813C18.7105 29.2106 18.6988 29.1399 18.6716 29.0745C18.6444 29.0091 18.6025 28.9509 18.5492 28.9044L16.9492 27.5044" fill="white"/>
<path d="M12.8672 28.8344L12.9152 28.8904L14.1412 30.2784L15.1412 31.4004C15.2149 31.4837 15.3162 31.5376 15.4266 31.5519C15.5369 31.5663 15.6487 31.5401 15.7412 31.4784L18.5012 29.6344C18.5602 29.5953 18.6093 29.543 18.6448 29.4818C18.6803 29.4205 18.7012 29.3519 18.7059 29.2813C18.7105 29.2106 18.6988 29.1399 18.6716 29.0745C18.6444 29.0091 18.6025 28.9509 18.5492 28.9044L16.9492 27.5044" stroke="#000062" stroke-miterlimit="10"/>
</g>
<g id="Vector_5">
<path d="M12.865 28.8344L12.817 28.8904L11.591 30.2784L10.591 31.4004C10.5173 31.4837 10.416 31.5376 10.3056 31.5519C10.1953 31.5663 10.0836 31.5401 9.99102 31.4784L7.23302 29.6344C7.17403 29.5953 7.12487 29.543 7.08937 29.4818C7.05387 29.4205 7.03298 29.3519 7.02833 29.2813C7.02369 29.2106 7.03541 29.1399 7.06259 29.0745C7.08977 29.0091 7.13166 28.9509 7.18502 28.9044L8.78502 27.5044" fill="white"/>
<path d="M12.865 28.8344L12.817 28.8904L11.591 30.2784L10.591 31.4004C10.5173 31.4837 10.416 31.5376 10.3056 31.5519C10.1953 31.5663 10.0836 31.5401 9.99102 31.4784L7.23302 29.6344C7.17403 29.5953 7.12487 29.543 7.08937 29.4818C7.05387 29.4205 7.03298 29.3519 7.02833 29.2813C7.02369 29.2106 7.03541 29.1399 7.06259 29.0745C7.08977 29.0091 7.13166 28.9509 7.18502 28.9044L8.78502 27.5044" stroke="#000062" stroke-miterlimit="10"/>
</g>
<path id="Vector_6" d="M14.1414 30.2807L13.9854 31.0127C13.8188 31.8021 13.8623 32.6214 14.1114 33.3887L15.1354 36.5467C15.453 37.5258 15.3725 38.5905 14.9114 39.5107L14.3994 40.5347H11.3314L10.8194 39.5107C10.3583 38.5905 10.2779 37.5258 10.5954 36.5467L11.6194 33.3887C11.8686 32.6214 11.9121 31.8021 11.7454 31.0127L11.5894 30.2807L12.4854 29.3407C12.5399 29.2839 12.6056 29.2389 12.6783 29.2087C12.751 29.1785 12.8292 29.1636 12.9079 29.1651C12.9867 29.1666 13.0642 29.1844 13.1358 29.2174C13.2073 29.2504 13.2712 29.2978 13.3234 29.3567L14.1414 30.2807Z" fill="white" stroke="#000062" stroke-miterlimit="10"/>
<path id="Vector_7" d="M12.8652 28.8926H12.8672C16.5487 28.8926 19.5332 25.9081 19.5332 22.2266V17.4246C19.5332 13.743 16.5487 10.7586 12.8672 10.7586H12.8652C9.18367 10.7586 6.1992 13.743 6.1992 17.4246L6.1992 22.2266C6.1992 25.9081 9.18367 28.8926 12.8652 28.8926Z" fill="white" stroke="#000062" stroke-miterlimit="10"/>
<path id="Vector_8" d="M19.5351 19.8345C19.5351 19.8345 17.3471 18.3185 16.2111 17.1745C16.0123 16.9719 15.7461 16.8495 15.4629 16.8303C15.1798 16.8111 14.8994 16.8966 14.6751 17.0705C12.8451 18.5045 8.64312 21.3565 6.20312 19.4705" stroke="#000062" stroke-miterlimit="10"/>
<path id="Vector_9" d="M12.8164 28.8926H12.8184H12.9144H12.9164" stroke="#000062" stroke-miterlimit="10"/>
<path id="Vector_10" d="M20.848 40.5366H1V35.5366C0.999644 33.8541 1.63821 32.2342 2.78657 31.0046C3.93493 29.7749 5.5074 29.0272 7.186 28.9126" stroke="#000062" stroke-miterlimit="10"/>
<path id="Vector_11" d="M18.5469 28.9087C19.8784 28.9953 23.2 30.4001 24.3 31.6001" stroke="#000062" stroke-miterlimit="10"/>
<path id="Vector_12" d="M14.232 33.7607H11.5" stroke="#000062" stroke-miterlimit="10"/>
<path id="Vector_13" d="M21.3633 37.0366V40.3046" stroke="#000062" stroke-miterlimit="10"/>
<path id="Vector_14" d="M4.37109 37.0366V40.5366" stroke="#000062" stroke-miterlimit="10"/>
<path id="Vector_15" d="M40.9336 45.0625H17.1996V40.0625C17.1996 38.302 17.899 36.6136 19.1438 35.3687C20.3887 34.1239 22.0771 33.4245 23.8376 33.4245H34.2956C36.0561 33.4245 37.7445 34.1239 38.9894 35.3687C40.2342 36.6136 40.9336 38.302 40.9336 40.0625V45.0625Z" fill="white" stroke="#000062" stroke-miterlimit="10"/>
<g id="Vector_16">
<path d="M29.0137 32.7646L29.0617 32.8206L30.2877 34.2086L31.2877 35.3306C31.3613 35.4139 31.4627 35.4678 31.573 35.4821C31.6834 35.4964 31.7951 35.4703 31.8877 35.4086L34.6477 33.5646C34.7067 33.5254 34.7558 33.4732 34.7913 33.412C34.8268 33.3507 34.8477 33.2821 34.8524 33.2115C34.857 33.1408 34.8453 33.0701 34.8181 33.0047C34.7909 32.9393 34.749 32.8811 34.6957 32.8346L33.0957 31.4346" fill="white"/>
<path d="M29.0137 32.7646L29.0617 32.8206L30.2877 34.2086L31.2877 35.3306C31.3613 35.4139 31.4627 35.4678 31.573 35.4821C31.6834 35.4964 31.7951 35.4703 31.8877 35.4086L34.6477 33.5646C34.7067 33.5254 34.7558 33.4732 34.7913 33.412C34.8268 33.3507 34.8477 33.2821 34.8524 33.2115C34.857 33.1408 34.8453 33.0701 34.8181 33.0047C34.7909 32.9393 34.749 32.8811 34.6957 32.8346L33.0957 31.4346" stroke="#000062" stroke-miterlimit="10"/>
</g>
<g id="Vector_17">
<path d="M29.0135 32.7646L28.9655 32.8206L27.7395 34.2086L26.7395 35.3306C26.6658 35.4139 26.5644 35.4678 26.4541 35.4821C26.3438 35.4964 26.232 35.4703 26.1395 35.4086L23.3815 33.5646C23.3225 33.5254 23.2733 33.4732 23.2378 33.412C23.2023 33.3507 23.1814 33.2821 23.1768 33.2115C23.1721 33.1408 23.1839 33.0701 23.211 33.0047C23.2382 32.9393 23.2801 32.8811 23.3335 32.8346L24.9335 31.4346" fill="white"/>
<path d="M29.0135 32.7646L28.9655 32.8206L27.7395 34.2086L26.7395 35.3306C26.6658 35.4139 26.5644 35.4678 26.4541 35.4821C26.3438 35.4964 26.232 35.4703 26.1395 35.4086L23.3815 33.5646C23.3225 33.5254 23.2733 33.4732 23.2378 33.412C23.2023 33.3507 23.1814 33.2821 23.1768 33.2115C23.1721 33.1408 23.1839 33.0701 23.211 33.0047C23.2382 32.9393 23.2801 32.8811 23.3335 32.8346L24.9335 31.4346" stroke="#000062" stroke-miterlimit="10"/>
</g>
<path id="Vector_18" d="M30.2879 34.2104L30.1319 34.9424C29.9653 35.7318 30.0087 36.5511 30.2579 37.3184L31.2819 40.4764C31.5995 41.4555 31.519 42.5202 31.0579 43.4404L30.5459 44.4644H27.4779L26.9659 43.4404C26.5048 42.5202 26.4244 41.4555 26.7419 40.4764L27.7659 37.3184C28.0151 36.5511 28.0586 35.7318 27.8919 34.9424L27.7359 34.2104L28.6319 33.2704C28.6864 33.2136 28.7521 33.1686 28.8248 33.1384C28.8975 33.1082 28.9757 33.0933 29.0544 33.0948C29.1332 33.0963 29.2107 33.1141 29.2822 33.1471C29.3538 33.1801 29.4177 33.2275 29.4699 33.2864L30.2879 34.2104Z" fill="white" stroke="#000062" stroke-miterlimit="10"/>
<path id="Vector_19" d="M20.375 41.5703V45.0703" stroke="#000062" stroke-miterlimit="10"/>
<path id="Vector_20" d="M28.9062 32.8345H28.9082C32.5897 32.8345 35.5742 29.85 35.5742 26.1685V21.3665C35.5742 17.6849 32.5897 14.7005 28.9082 14.7005H28.9062C25.2247 14.7005 22.2402 17.6849 22.2402 21.3665V26.1685C22.2402 29.85 25.2247 32.8345 28.9062 32.8345Z" fill="white" stroke="#000062" stroke-miterlimit="10"/>
<path id="Vector_21" d="M22.1739 22.8413C22.1739 22.8413 24.3619 21.3253 25.4979 20.1813C25.6967 19.9788 25.9629 19.8563 26.2461 19.8371C26.5292 19.8179 26.8096 19.9034 27.0339 20.0773C28.8639 21.5113 33.0659 24.3633 35.5059 22.4773" stroke="#000062" stroke-miterlimit="10"/>
</g>
</g>
</svg>
