<svg width="63" height="60" viewBox="0 0 63 60" fill="none" xmlns="http://www.w3.org/2000/svg">
<g id="Layer 2">
<g id="Layer 1">
<path id="Vector" d="M41.9156 40.5603H6.35059C4.9582 40.5603 3.62284 41.1037 2.63828 42.071C1.65371 43.0383 1.10059 44.3502 1.10059 45.7181V48.9603H45.4406C45.7444 48.9603 46.0452 48.9008 46.3254 48.7855C46.6055 48.6701 46.8596 48.5011 47.0726 48.2883L61.8806 33.4925C62.1131 33.26 62.2809 32.9728 62.3681 32.6584C62.4553 32.344 62.4588 32.0128 62.3784 31.6967C62.2981 31.3805 62.1364 31.0899 61.909 30.8526C61.6816 30.6154 61.396 30.4395 61.0796 30.3417L60.2216 30.0765C58.9363 29.679 57.5674 29.6195 56.2514 29.9039C54.9355 30.1883 53.7184 30.8068 52.7216 31.6975L43.4516 39.9767C43.031 40.3517 42.4835 40.5597 41.9156 40.5603Z" stroke="#000062" stroke-miterlimit="10"/>
<path id="Vector_2" d="M10.5508 48.9604H6.05078V58.672H10.5508V48.9604Z" stroke="#000062" stroke-miterlimit="10"/>
<path id="Vector_3" d="M42.0508 48.9604H37.5508V58.672H42.0508V48.9604Z" stroke="#000062" stroke-miterlimit="10"/>
<path id="Vector_4" d="M0.350586 58.6748H46.8506" stroke="#000062" stroke-miterlimit="10"/>
<path id="Vector_5" d="M22.1997 58.672V48.9604" stroke="#000062" stroke-miterlimit="10"/>
<path id="Vector_6" d="M22.1997 26.9701V20.9692" stroke="#000062" stroke-miterlimit="10"/>
<path id="Vector_7" d="M22.1997 40.5606V34.5361" stroke="#000062" stroke-miterlimit="10"/>
<path id="Vector_8" d="M20.6455 1.26318H23.7565C29.077 1.26318 34.1796 3.33967 37.9417 7.03583C41.7039 10.732 43.8175 15.7451 43.8175 20.9722H0.584473C0.584473 15.7451 2.69804 10.732 6.4602 7.03583C10.2224 3.33967 15.325 1.26318 20.6455 1.26318Z" stroke="#000062" stroke-miterlimit="10"/>
<path id="Vector_9" d="M20.1928 1.28955C20.1928 1.28955 10.6078 12.0917 10.0078 20.9721" stroke="#000062" stroke-miterlimit="10"/>
<path id="Vector_10" d="M24.2095 1.28955C24.2095 1.28955 33.7915 12.0887 34.3915 20.9721" stroke="#000062" stroke-miterlimit="10"/>
<path id="Vector_11" d="M22.1994 31.724C22.7445 31.724 23.1864 31.2899 23.1864 30.7544C23.1864 30.2188 22.7445 29.7847 22.1994 29.7847C21.6543 29.7847 21.2124 30.2188 21.2124 30.7544C21.2124 31.2899 21.6543 31.724 22.1994 31.724Z" fill="#000062"/>
<path id="Vector_12" d="M18.9023 20.9694V13.937" stroke="#000062" stroke-miterlimit="10"/>
<path id="Vector_13" d="M18.9023 11.1309V12.7814" stroke="#000062" stroke-miterlimit="10"/>
</g>
</g>
</svg>
