<svg width="64" height="60" viewBox="0 0 64 60" fill="none" xmlns="http://www.w3.org/2000/svg">
<g id="main-shape">
<g id="vectors">
<g id="Vector">
<path d="M3.33203 18.1618V2.18975C3.33203 1.96538 3.42116 1.75019 3.57982 1.59154C3.73847 1.43288 3.95366 1.34375 4.17803 1.34375H56.378C56.6024 1.34375 56.8176 1.43288 56.9762 1.59154C57.1349 1.75019 57.224 1.96538 57.224 2.18975V18.1618" fill="white"/>
<path d="M3.33203 18.1618V2.18975C3.33203 1.96538 3.42116 1.75019 3.57982 1.59154C3.73847 1.43288 3.95366 1.34375 4.17803 1.34375H56.378C56.6024 1.34375 56.8176 1.43288 56.9762 1.59154C57.1349 1.75019 57.224 1.96538 57.224 2.18975V18.1618" stroke="#000062" stroke-miterlimit="10"/>
</g>
<g id="Vector_2">
<path d="M52.4776 18.1616V9.89965C52.4776 9.22765 51.5776 8.69965 50.4706 8.69965H50.0896C50.0086 8.69965 49.9276 8.69965 49.8496 8.69965H49.7536C49.6881 8.694 49.6231 8.68499 49.5586 8.67265H49.5286H49.5016H49.4836C49.3883 8.65397 49.2941 8.62993 49.2016 8.60065C49.1236 8.57665 49.0486 8.54965 48.9766 8.51965L48.9196 8.49265C48.8596 8.46565 48.8026 8.43865 48.7486 8.40865L48.7006 8.37865C48.6433 8.34514 48.5882 8.30806 48.5356 8.26765L48.5116 8.24965L48.4606 8.20465L48.3916 8.14165L48.3466 8.09665C48.3177 8.06312 48.2907 8.02807 48.2656 7.99165L48.2356 7.94665C48.2154 7.91699 48.1973 7.88591 48.1816 7.85365C48.1778 7.84212 48.1728 7.83105 48.1666 7.82065C48.1495 7.77974 48.1354 7.73762 48.1246 7.69465C48.1231 7.68269 48.1231 7.6706 48.1246 7.65865C48.12 7.61176 48.12 7.56453 48.1246 7.51765C48.1277 7.4767 48.1277 7.43559 48.1246 7.39465C48.1118 7.3286 48.0917 7.2642 48.0646 7.20265V7.18165C48.0646 7.15765 48.0376 7.13365 48.0226 7.10965L48.0046 7.07665L47.9596 7.01365L47.9266 6.97465L47.8816 6.92065L47.8276 6.86965L47.7886 6.83365C47.7599 6.80704 47.7299 6.782 47.6986 6.75865H47.6836C47.6433 6.72725 47.6012 6.6982 47.5576 6.67165C47.4614 6.6161 47.3611 6.56796 47.2576 6.52765H47.2366L47.1016 6.47665H47.0626L46.9336 6.44065H46.8886L46.7596 6.41065H46.7086L46.5766 6.38965H46.5196H46.3906C46.3026 6.38509 46.2145 6.38509 46.1266 6.38965H14.4796C14.2986 6.38909 14.1179 6.40415 13.9396 6.43465C13.8316 6.45565 13.7266 6.47965 13.6396 6.50665C13.323 6.59133 13.0323 6.75315 12.7936 6.97765C12.7681 7.0033 12.7441 7.03034 12.7216 7.05865C12.6999 7.0854 12.6798 7.11345 12.6616 7.14265L12.6136 7.22965C12.5826 7.29547 12.5604 7.36506 12.5476 7.43665C12.5446 7.47759 12.5446 7.5187 12.5476 7.55965C12.5521 7.60653 12.5521 7.65376 12.5476 7.70065V7.73365C12.5381 7.77897 12.5241 7.8232 12.5056 7.86565V7.88365C12.4875 7.92224 12.4664 7.95935 12.4426 7.99465L12.4246 8.02765C12.3946 8.06665 12.3646 8.10565 12.3316 8.14165L12.3076 8.16865C12.2747 8.20292 12.2396 8.23499 12.2026 8.26465L12.1846 8.28265L12.1216 8.32765L11.9986 8.41165L11.9086 8.45965L11.7976 8.51665C11.759 8.53768 11.7189 8.55573 11.6776 8.57065L11.5816 8.60665L11.4466 8.65165H11.4286L11.3026 8.68165L11.1586 8.71465H11.1106L10.9156 8.74165H10.8196C10.7376 8.74165 10.6566 8.74165 10.5766 8.74165H10.0906C9.80036 8.74135 9.51155 8.78175 9.23257 8.86165C8.55157 9.05665 8.08057 9.46165 8.08057 9.95665V18.1616" fill="white"/>
<path d="M52.4776 18.1616V9.89965C52.4776 9.22765 51.5776 8.69965 50.4706 8.69965H50.0896C50.0086 8.69965 49.9276 8.69965 49.8496 8.69965H49.7536C49.6881 8.694 49.6231 8.68499 49.5586 8.67265H49.5286H49.5016H49.4836C49.3883 8.65397 49.2941 8.62993 49.2016 8.60065C49.1236 8.57665 49.0486 8.54965 48.9766 8.51965L48.9196 8.49265C48.8596 8.46565 48.8026 8.43865 48.7486 8.40865L48.7006 8.37865C48.6433 8.34514 48.5882 8.30806 48.5356 8.26765L48.5116 8.24965L48.4606 8.20465L48.3916 8.14165L48.3466 8.09665C48.3177 8.06312 48.2907 8.02807 48.2656 7.99165L48.2356 7.94665C48.2154 7.91699 48.1973 7.88591 48.1816 7.85365C48.1778 7.84212 48.1728 7.83105 48.1666 7.82065C48.1495 7.77974 48.1354 7.73762 48.1246 7.69465C48.1231 7.68269 48.1231 7.6706 48.1246 7.65865C48.12 7.61176 48.12 7.56453 48.1246 7.51765C48.1277 7.4767 48.1277 7.43559 48.1246 7.39465C48.1118 7.3286 48.0917 7.2642 48.0646 7.20265V7.18165C48.0646 7.15765 48.0376 7.13365 48.0226 7.10965L48.0046 7.07665L47.9596 7.01365L47.9266 6.97465L47.8816 6.92065L47.8276 6.86965L47.7886 6.83365C47.7599 6.80704 47.7299 6.782 47.6986 6.75865H47.6836C47.6433 6.72725 47.6012 6.6982 47.5576 6.67165C47.4614 6.6161 47.3611 6.56796 47.2576 6.52765H47.2366L47.1016 6.47665H47.0626L46.9336 6.44065H46.8886L46.7596 6.41065H46.7086L46.5766 6.38965H46.5196H46.3906C46.3026 6.38509 46.2145 6.38509 46.1266 6.38965H14.4796C14.2986 6.38909 14.1179 6.40415 13.9396 6.43465C13.8316 6.45565 13.7266 6.47965 13.6396 6.50665C13.323 6.59133 13.0323 6.75315 12.7936 6.97765C12.7681 7.0033 12.7441 7.03034 12.7216 7.05865C12.6999 7.0854 12.6798 7.11345 12.6616 7.14265L12.6136 7.22965C12.5826 7.29547 12.5604 7.36506 12.5476 7.43665C12.5446 7.47759 12.5446 7.5187 12.5476 7.55965C12.5521 7.60653 12.5521 7.65376 12.5476 7.70065V7.73365C12.5381 7.77897 12.5241 7.8232 12.5056 7.86565V7.88365C12.4875 7.92224 12.4664 7.95935 12.4426 7.99465L12.4246 8.02765C12.3946 8.06665 12.3646 8.10565 12.3316 8.14165L12.3076 8.16865C12.2747 8.20292 12.2396 8.23499 12.2026 8.26465L12.1846 8.28265L12.1216 8.32765L11.9986 8.41165L11.9086 8.45965L11.7976 8.51665C11.759 8.53768 11.7189 8.55573 11.6776 8.57065L11.5816 8.60665L11.4466 8.65165H11.4286L11.3026 8.68165L11.1586 8.71465H11.1106L10.9156 8.74165H10.8196C10.7376 8.74165 10.6566 8.74165 10.5766 8.74165H10.0906C9.80036 8.74135 9.51155 8.78175 9.23257 8.86165C8.55157 9.05665 8.08057 9.46165 8.08057 9.95665V18.1616" stroke="#000062" stroke-miterlimit="10"/>
</g>
<path id="Vector_3" d="M30.2803 6.25781V9.42281V15.0568V18.1618" stroke="#000062" stroke-miterlimit="10"/>
<path id="Vector_4" d="M17.7881 18.1618V6.25781" stroke="#000062" stroke-miterlimit="10"/>
<path id="Vector_5" d="M42.77 18.1618V6.25781" stroke="#000062" stroke-miterlimit="10"/>
<g id="Vector_6">
<path d="M59.6807 43.8749V57.8369C59.6807 58.2347 59.5226 58.6163 59.2413 58.8976C58.96 59.1789 58.5785 59.3369 58.1807 59.3369H2.36865C1.97083 59.3369 1.5893 59.1789 1.30799 58.8976C1.02669 58.6163 0.868652 58.2347 0.868652 57.8369V19.6499C0.868652 19.2521 1.02669 18.8705 1.30799 18.5892C1.5893 18.3079 1.97083 18.1499 2.36865 18.1499H58.1897C58.5875 18.1499 58.969 18.3079 59.2503 18.5892C59.5316 18.8705 59.6897 19.2521 59.6897 19.6499V33.6119" fill="white"/>
<path d="M59.6807 43.8749V57.8369C59.6807 58.2347 59.5226 58.6163 59.2413 58.8976C58.96 59.1789 58.5785 59.3369 58.1807 59.3369H2.36865C1.97083 59.3369 1.5893 59.1789 1.30799 58.8976C1.02669 58.6163 0.868652 58.2347 0.868652 57.8369V19.6499C0.868652 19.2521 1.02669 18.8705 1.30799 18.5892C1.5893 18.3079 1.97083 18.1499 2.36865 18.1499H58.1897C58.5875 18.1499 58.969 18.3079 59.2503 18.5892C59.5316 18.8705 59.6897 19.2521 59.6897 19.6499V33.6119" stroke="#000062" stroke-miterlimit="10"/>
</g>
<path id="Vector_7" d="M62.3748 33.6147H44.6298C44.32 33.6147 44.0688 33.8659 44.0688 34.1757V43.3167C44.0688 43.6266 44.32 43.8777 44.6298 43.8777H62.3748C62.6847 43.8777 62.9359 43.6266 62.9359 43.3167V34.1757C62.9359 33.8659 62.6847 33.6147 62.3748 33.6147Z" fill="white" stroke="#000062" stroke-miterlimit="10"/>
<path id="Vector_8" d="M48.7997 39.9296C49.4542 39.9296 49.9847 39.399 49.9847 38.7446C49.9847 38.0901 49.4542 37.5596 48.7997 37.5596C48.1453 37.5596 47.6147 38.0901 47.6147 38.7446C47.6147 39.399 48.1453 39.9296 48.7997 39.9296Z" fill="#000062"/>
<path id="Vector_9" d="M0.880371 24.2188H59.6804" stroke="#000062" stroke-miterlimit="10"/>
<path id="Vector_10" d="M59.6772 53.2739H12.4302" stroke="#000062" stroke-miterlimit="10"/>
<path id="Vector_11" d="M8.08037 53.2739H0.880371" stroke="#000062" stroke-miterlimit="10"/>
<path id="Vector_12" d="M10.3308 53.9937C10.7285 53.9937 11.0508 53.6714 11.0508 53.2737C11.0508 52.8761 10.7285 52.5537 10.3308 52.5537C9.9332 52.5537 9.61084 52.8761 9.61084 53.2737C9.61084 53.6714 9.9332 53.9937 10.3308 53.9937Z" fill="#000062"/>
<path id="Vector_13" d="M26.3779 24.2188V42.1168" stroke="#000062" stroke-miterlimit="10"/>
<path id="Vector_14" d="M26.3779 43.8779V46.9169" stroke="#000062" stroke-miterlimit="10"/>
</g>
</g>
</svg>
