<svg width="64" height="48" viewBox="0 0 64 48" fill="none" xmlns="http://www.w3.org/2000/svg">
<g id="main-shape">
<g id="vectors">
<path id="Vector" d="M8.95874 6.01856H55.3927C55.663 6.01777 55.9307 6.07037 56.1805 6.17332C56.4304 6.27628 56.6574 6.42757 56.8487 6.61852C57.0399 6.80946 57.1915 7.03629 57.2948 7.28599C57.3982 7.53569 57.4511 7.80333 57.4507 8.07357V39.1626H6.90674V8.07357C6.90635 7.80384 6.95913 7.53668 7.06208 7.28738C7.16502 7.03807 7.31611 6.81151 7.5067 6.62064C7.69728 6.42978 7.92362 6.27836 8.17278 6.17505C8.42194 6.07174 8.68902 6.01856 8.95874 6.01856Z" fill="white"/>
<g id="Vector_2">
<path d="M22.1437 27.4175H23.5087C24.2227 27.4155 24.93 27.5544 25.5902 27.8263C26.2503 28.0981 26.8504 28.4976 27.3559 29.0017C27.8615 29.5059 28.2625 30.1048 28.5362 30.7642C28.8099 31.4236 28.9508 32.1306 28.9507 32.8445V39.1625H10.9688V32.8445C10.9689 31.6185 11.3841 30.4287 12.1467 29.4689C12.9094 28.509 13.9745 27.8357 15.1687 27.5585C15.5719 27.4642 15.9847 27.4169 16.3987 27.4175H17.4217" fill="white"/>
<path d="M22.1437 27.4175H23.5087C24.2227 27.4155 24.93 27.5544 25.5902 27.8263C26.2503 28.0981 26.8504 28.4976 27.3559 29.0017C27.8615 29.5059 28.2625 30.1048 28.5362 30.7642C28.8099 31.4236 28.9508 32.1306 28.9507 32.8445V39.1625H10.9688V32.8445C10.9689 31.6185 11.3841 30.4287 12.1467 29.4689C12.9094 28.509 13.9745 27.8357 15.1687 27.5585C15.5719 27.4642 15.9847 27.4169 16.3987 27.4175H17.4217" stroke="#000062" stroke-miterlimit="10"/>
</g>
<g id="plus - shape">
<path d="M17.1841 24.9785V27.3455L19.7401 29.3195L22.0801 27.3455V24.9785" fill="white"/>
<path d="M17.1841 24.9785V27.3455L19.7401 29.3195L22.0801 27.3455V24.9785" stroke="#000062" stroke-miterlimit="10"/>
</g>
<path id="Vector_3" d="M53.1007 6.01856H54.9007C55.2353 6.01777 55.5668 6.08299 55.8761 6.21049C56.1855 6.33798 56.4666 6.52525 56.7035 6.76156C56.9404 6.99787 57.1283 7.27859 57.2565 7.58763C57.3847 7.89667 57.4507 8.22797 57.4507 8.56256V39.1836H6.90674V8.56256C6.90674 7.88785 7.17477 7.24077 7.65186 6.76368C8.12895 6.28659 8.77603 6.01856 9.45074 6.01856H31.1857" stroke="#000062" stroke-miterlimit="10"/>
<g id="Vector_4">
<path d="M49.1938 46.0231H63.2938V42.4231C63.295 41.9958 63.212 41.5724 63.0494 41.1772C62.8869 40.782 62.6481 40.4227 62.3466 40.1199C62.0452 39.817 61.687 39.5766 61.2925 39.4122C60.8981 39.2479 60.4751 39.1629 60.0478 39.1621H4.30182C3.874 39.1621 3.45039 39.2465 3.05525 39.4105C2.66011 39.5745 2.30121 39.8148 1.99912 40.1178C1.69702 40.4207 1.45767 40.7803 1.29477 41.1759C1.13187 41.5714 1.04863 41.9953 1.04982 42.4231V46.0231H40.2688" fill="white"/>
<path d="M49.1938 46.0231H63.2938V42.4231C63.295 41.9958 63.212 41.5724 63.0494 41.1772C62.8869 40.782 62.6481 40.4227 62.3466 40.1199C62.0452 39.817 61.687 39.5766 61.2925 39.4122C60.8981 39.2479 60.4751 39.1629 60.0478 39.1621H4.30182C3.874 39.1621 3.45039 39.2465 3.05525 39.4105C2.66011 39.5745 2.30121 39.8148 1.99912 40.1178C1.69702 40.4207 1.45767 40.7803 1.29477 41.1759C1.13187 41.5714 1.04863 41.9953 1.04982 42.4231V46.0231H40.2688" stroke="#000062" stroke-miterlimit="10"/>
</g>
<path id="Vector_5" d="M15.5163 10.8726H23.5683C24.0067 10.8726 24.4271 11.0467 24.7371 11.3567C25.0471 11.6667 25.2213 12.0872 25.2213 12.5256V19.9626C25.2213 21.3868 24.6555 22.7527 23.6484 23.7597C22.6414 24.7668 21.2755 25.3326 19.8513 25.3326H19.2303C17.8066 25.3318 16.4415 24.7656 15.4351 23.7587C14.4286 22.7517 13.8633 21.3863 13.8633 19.9626V12.5256C13.8633 12.0872 14.0374 11.6667 14.3474 11.3567C14.6574 11.0467 15.0779 10.8726 15.5163 10.8726Z" fill="white" stroke="#000062" stroke-miterlimit="10"/>
<path id="Vector_6" d="M14.3105 11.3975C14.3105 11.3975 17.9105 17.0225 25.2185 16.8845" stroke="#000062" stroke-miterlimit="10"/>
<path id="Vector_7" d="M17.5503 14.5625C17.5503 14.5625 16.7313 16.6955 13.8633 16.8785" stroke="#000062" stroke-miterlimit="10"/>
<path id="Vector_8" d="M21.2409 30.5583L20.0079 29.3193H19.8969L18.6639 30.5583L18.2529 39.1713H19.8969H20.0079H21.6519L21.2409 30.5583Z" stroke="#000062" stroke-miterlimit="10"/>
<path id="Vector_9" d="M32.7636 1.20034H51.5226C51.9411 1.20034 52.3424 1.36659 52.6384 1.66252C52.9343 1.95845 53.1006 2.35982 53.1006 2.77834V15.8943C53.1006 16.3128 52.9343 16.7142 52.6384 17.0101C52.3424 17.3061 51.9411 17.4723 51.5226 17.4723H41.6226C41.4153 17.4723 41.2101 17.5131 41.0186 17.5923C40.8271 17.6716 40.6531 17.7878 40.5066 17.9343L37.0206 21.4203C36.8002 21.6432 36.5185 21.7953 36.2113 21.8575C35.9041 21.9196 35.5854 21.8888 35.2958 21.7691C35.0061 21.6494 34.7587 21.4461 34.585 21.1853C34.4113 20.9244 34.3193 20.6177 34.3206 20.3043V19.0473C34.3206 18.8401 34.2797 18.6349 34.2004 18.4435C34.1211 18.252 34.0049 18.0781 33.8584 17.9315C33.7118 17.785 33.5379 17.6688 33.3464 17.5895C33.155 17.5102 32.9498 17.4693 32.7426 17.4693C32.324 17.4693 31.9227 17.3031 31.6267 17.0071C31.3308 16.7112 31.1646 16.3098 31.1646 15.8913V2.77533C31.1649 2.56658 31.2067 2.35998 31.2875 2.16749C31.3683 1.97501 31.4865 1.80047 31.6352 1.65398C31.7839 1.50749 31.9602 1.39196 32.1539 1.31409C32.3476 1.23622 32.5548 1.19756 32.7636 1.20034Z" fill="white" stroke="#000062" stroke-miterlimit="10"/>
<path id="Vector_10" d="M35.0928 6.45654H49.1928" stroke="#000062" stroke-miterlimit="10"/>
<path id="Vector_11" d="M37.4106 11.5415H46.8756" stroke="#000062" stroke-miterlimit="10"/>
<path id="Vector_12" d="M44.8402 47.0403C45.4019 47.0403 45.8572 46.585 45.8572 46.0233C45.8572 45.4617 45.4019 45.0063 44.8402 45.0063C44.2786 45.0063 43.8232 45.4617 43.8232 46.0233C43.8232 46.585 44.2786 47.0403 44.8402 47.0403Z" fill="#000062"/>
<path id="Vector_13" d="M51.5483 25.9834V39.2824" stroke="#000062" stroke-miterlimit="10"/>
<path id="Vector_14" d="M51.5483 22.6025V24.9785" stroke="#000062" stroke-miterlimit="10"/>
</g>
</g>
</svg>
