<svg width="84" height="84" viewBox="0 0 84 84" fill="none" xmlns="http://www.w3.org/2000/svg">
<path d="M58.2878 16.8867H37.7738C37.5758 16.8867 37.3748 16.8867 37.1738 16.8867C33.8689 17.0426 30.7513 18.4661 28.469 20.8613C26.1866 23.2566 24.9151 26.4392 24.9188 29.7477V38.0127C24.916 39.7029 25.2466 41.377 25.8916 42.9393C26.5365 44.5015 27.4833 45.9213 28.6775 47.1172C29.8718 48.3132 31.2902 49.2619 32.8516 49.909C34.413 50.5562 36.0866 50.8891 37.7768 50.8887H51.3518C53.128 50.8875 54.8842 51.2637 56.5041 51.9924C58.1239 52.7211 59.5704 53.7858 60.7478 55.1157L63.3548 58.0617C63.6042 58.3495 63.9563 58.5282 64.3358 58.5597H64.3568C64.5622 58.5737 64.7682 58.5453 64.9622 58.4762C65.1561 58.4071 65.3337 58.2988 65.484 58.1581C65.6343 58.0174 65.754 57.8473 65.8357 57.6583C65.9174 57.4693 65.9593 57.2656 65.9588 57.0597V53.4237C65.949 50.6855 66.8432 48.0207 68.5028 45.8427C69.0563 45.1209 69.532 44.3426 69.9218 43.5207C70.7391 41.8 71.1595 39.9177 71.1518 38.0127V29.7477C71.1518 28.0585 70.819 26.3859 70.1725 24.8253C69.526 23.2648 68.5784 21.8469 67.3838 20.6526C66.1893 19.4583 64.7711 18.511 63.2104 17.8648C61.6497 17.2187 59.977 16.8863 58.2878 16.8867Z" fill="white"/>
<path d="M46.272 26.2383H25.758C25.638 26.2383 25.521 26.2383 25.404 26.2383H25.158C21.8527 26.3934 18.7343 27.8166 16.4513 30.2119C14.1683 32.6072 12.8964 35.7903 12.9 39.0993V47.3643C12.8996 49.0535 13.232 50.7262 13.8782 52.2869C14.5243 53.8476 15.4716 55.2658 16.6659 56.4603C17.8602 57.6549 19.2781 58.6025 20.8386 59.249C22.3992 59.8955 24.0718 60.2283 25.761 60.2283H39.324C41.1 60.2284 42.8558 60.6052 44.4755 61.3338C46.0951 62.0625 47.5418 63.1264 48.72 64.4553L51.33 67.4013C51.533 67.6208 51.797 67.7747 52.0881 67.8431C52.3791 67.9115 52.684 67.8914 52.9635 67.7853C53.2431 67.6793 53.4845 67.4921 53.6569 67.2478C53.8293 67.0035 53.9248 66.7132 53.931 66.4143V62.7753C53.9212 60.0371 54.8155 57.3723 56.475 55.1943C57.0306 54.4733 57.5074 53.6949 57.897 52.8723L57.951 52.7553C58.7418 51.0649 59.1514 49.2215 59.151 47.3553V39.0993C59.151 37.4088 58.8178 35.735 58.1703 34.1734C57.5229 32.6119 56.5739 31.1933 55.3778 29.9988C54.1816 28.8043 52.7617 27.8574 51.1992 27.2121C49.6368 26.5668 47.9625 26.2359 46.272 26.2383Z" fill="white" stroke="#000062" stroke-miterlimit="10"/>
<path d="M53.0883 16.8867H58.0533C59.7421 16.8867 61.4144 17.2194 62.9746 17.8658C64.5348 18.5121 65.9523 19.4595 67.1464 20.6538C68.3404 21.8481 69.2874 23.2659 69.9334 24.8263C70.5794 26.3866 70.9117 28.0589 70.9113 29.7477V38.0157C70.9152 40.8473 69.9816 43.6005 68.2563 45.8457C66.5947 48.0218 65.6982 50.6858 65.7063 53.4237V57.0627C65.6995 57.361 65.6038 57.6505 65.4316 57.8941C65.2593 58.1377 65.0183 58.3244 64.7394 58.4304C64.4605 58.5364 64.1563 58.5567 63.8658 58.4889C63.5752 58.4211 63.3115 58.2682 63.1083 58.0497L60.4983 55.1037C59.737 54.2447 58.8619 53.4938 57.8973 52.8717" stroke="#000062" stroke-miterlimit="10"/>
<path d="M25.1602 26.2497C25.9237 23.552 27.5475 21.1774 29.7845 19.4873C32.0216 17.7972 34.7494 16.884 37.5532 16.8867H42.9832" stroke="#000062" stroke-miterlimit="10"/>
<path d="M48.0331 17.8744C48.5782 17.8744 49.0201 17.4325 49.0201 16.8874C49.0201 16.3423 48.5782 15.9004 48.0331 15.9004C47.488 15.9004 47.0461 16.3423 47.0461 16.8874C47.0461 17.4325 47.488 17.8744 48.0331 17.8744Z" fill="#000062"/>
<path d="M23.8125 30.7617H23.4915C22.7061 30.7617 21.9284 30.9165 21.2028 31.2171C20.4772 31.5178 19.8179 31.9585 19.2627 32.514C18.7074 33.0695 18.2671 33.729 17.9668 34.4547C17.6665 35.1805 17.5121 35.9583 17.5125 36.7437" stroke="#000062" stroke-miterlimit="10"/>
<path d="M27.6165 21.5703H48.0345" stroke="#000062" stroke-miterlimit="10"/>
<path d="M49.9125 21.5703H51.5625" stroke="#000062" stroke-miterlimit="10"/>
</svg>
