<svg width="630" height="120" viewBox="0 0 630 120" fill="none" xmlns="http://www.w3.org/2000/svg">
<path d="M591 67L598 60L591 53" stroke="#E2E8F0" stroke-width="2" stroke-linecap="round" stroke-linejoin="round"/>
<rect x="404.667" width="177.333" height="120" rx="8.53846" fill="white"/>
<rect x="457.333" width="72" height="72" rx="36" fill="#E2E8F0"/>
<rect x="464.533" y="7.19995" width="57.6" height="57.6" rx="28.8" fill="white"/>
<rect x="483.333" y="32" width="20" height="8" rx="4" fill="#E2E8F0"/>
<rect x="443.333" y="88" width="100" height="8" rx="4" fill="#E2E8F0"/>
<rect x="463.333" y="112" width="60" height="8" rx="4" fill="#E2E8F0"/>
<rect x="403.667" y="15.3075" width="1" height="89.385" fill="#E2E8F0"/>
<rect x="226.333" width="177.333" height="120" rx="8.53846" fill="white"/>
<rect x="279" width="72" height="72" rx="36" fill="#E2E8F0"/>
<rect x="286.2" y="7.19995" width="57.6" height="57.6" rx="28.8" fill="white"/>
<rect x="305" y="32" width="20" height="8" rx="4" fill="#E2E8F0"/>
<rect x="265" y="88" width="100" height="8" rx="4" fill="#E2E8F0"/>
<rect x="285" y="112" width="60" height="8" rx="4" fill="#E2E8F0"/>
<rect x="225.333" y="15.3075" width="1" height="89.385" fill="#E2E8F0"/>
<rect x="48" width="177.333" height="120" rx="8.53846" fill="white"/>
<rect x="100.667" width="72" height="72" rx="36" fill="#E2E8F0"/>
<rect x="107.867" y="7.19995" width="57.6" height="57.6" rx="28.8" fill="white"/>
<rect x="126.667" y="32" width="20" height="8" rx="4" fill="#E2E8F0"/>
<rect x="86.6665" y="88" width="100" height="8" rx="4" fill="#E2E8F0"/>
<rect x="106.667" y="112" width="60" height="8" rx="4" fill="#E2E8F0"/>
<path d="M39 53L32 60L39 67" stroke="#CBD5E1" stroke-width="2" stroke-linecap="round" stroke-linejoin="round"/>
</svg>
