<svg width="300" height="428" viewBox="0 0 300 428" fill="none" xmlns="http://www.w3.org/2000/svg">
<g filter="url(#filter0_d_6863_235752)">
<rect x="2" y="1" width="296" height="136" rx="8" fill="white"/>
<rect x="2.5" y="1.5" width="295" height="135" rx="7.5" stroke="#E2E8F0" stroke-linecap="round"/>
<rect x="26" y="25" width="16" height="16" rx="4" fill="#E2E8F0"/>
<rect x="102" y="23" width="140" height="20" rx="10" fill="#E2E8F0"/>
<rect x="250" y="17" width="32" height="32" rx="16" fill="#E2E8F0"/>
<rect x="102" y="61" width="140" height="8" rx="4" fill="#E2E8F0"/>
<rect x="102" y="81" width="140" height="8" rx="4" fill="#E2E8F0"/>
<rect x="102" y="101" width="140" height="8" rx="4" fill="#E2E8F0"/>
</g>
<g filter="url(#filter1_d_6863_235752)">
<rect x="2" y="145" width="296" height="136" rx="8" fill="white"/>
<rect x="2.5" y="145.5" width="295" height="135" rx="7.5" stroke="#E2E8F0" stroke-linecap="round"/>
<rect x="26" y="169" width="16" height="16" rx="4" fill="#E2E8F0"/>
<rect x="102" y="167" width="140" height="20" rx="10" fill="#E2E8F0"/>
<rect x="250" y="161" width="32" height="32" rx="16" fill="#E2E8F0"/>
<rect x="102" y="205" width="140" height="8" rx="4" fill="#E2E8F0"/>
<rect x="102" y="225" width="140" height="8" rx="4" fill="#E2E8F0"/>
<rect x="102" y="245" width="140" height="8" rx="4" fill="#E2E8F0"/>
</g>
<g filter="url(#filter2_d_6863_235752)">
<rect x="2" y="289" width="296" height="136" rx="8" fill="white"/>
<rect x="2.5" y="289.5" width="295" height="135" rx="7.5" stroke="#E2E8F0" stroke-linecap="round"/>
<rect x="26" y="313" width="16" height="16" rx="4" fill="#E2E8F0"/>
<rect x="102" y="311" width="140" height="20" rx="10" fill="#E2E8F0"/>
<rect x="250" y="305" width="32" height="32" rx="16" fill="#E2E8F0"/>
<rect x="102" y="349" width="140" height="8" rx="4" fill="#E2E8F0"/>
<rect x="102" y="369" width="140" height="8" rx="4" fill="#E2E8F0"/>
<rect x="102" y="389" width="140" height="8" rx="4" fill="#E2E8F0"/>
</g>
<defs>
<filter id="filter0_d_6863_235752" x="0" y="0" width="300" height="140" filterUnits="userSpaceOnUse" color-interpolation-filters="sRGB">
<feFlood flood-opacity="0" result="BackgroundImageFix"/>
<feColorMatrix in="SourceAlpha" type="matrix" values="0 0 0 0 0 0 0 0 0 0 0 0 0 0 0 0 0 0 127 0" result="hardAlpha"/>
<feOffset dy="1"/>
<feGaussianBlur stdDeviation="1"/>
<feColorMatrix type="matrix" values="0 0 0 0 0 0 0 0 0 0 0 0 0 0 0 0 0 0 0.05 0"/>
<feBlend mode="normal" in2="BackgroundImageFix" result="effect1_dropShadow_6863_235752"/>
<feBlend mode="normal" in="SourceGraphic" in2="effect1_dropShadow_6863_235752" result="shape"/>
</filter>
<filter id="filter1_d_6863_235752" x="0" y="144" width="300" height="140" filterUnits="userSpaceOnUse" color-interpolation-filters="sRGB">
<feFlood flood-opacity="0" result="BackgroundImageFix"/>
<feColorMatrix in="SourceAlpha" type="matrix" values="0 0 0 0 0 0 0 0 0 0 0 0 0 0 0 0 0 0 127 0" result="hardAlpha"/>
<feOffset dy="1"/>
<feGaussianBlur stdDeviation="1"/>
<feColorMatrix type="matrix" values="0 0 0 0 0 0 0 0 0 0 0 0 0 0 0 0 0 0 0.05 0"/>
<feBlend mode="normal" in2="BackgroundImageFix" result="effect1_dropShadow_6863_235752"/>
<feBlend mode="normal" in="SourceGraphic" in2="effect1_dropShadow_6863_235752" result="shape"/>
</filter>
<filter id="filter2_d_6863_235752" x="0" y="288" width="300" height="140" filterUnits="userSpaceOnUse" color-interpolation-filters="sRGB">
<feFlood flood-opacity="0" result="BackgroundImageFix"/>
<feColorMatrix in="SourceAlpha" type="matrix" values="0 0 0 0 0 0 0 0 0 0 0 0 0 0 0 0 0 0 127 0" result="hardAlpha"/>
<feOffset dy="1"/>
<feGaussianBlur stdDeviation="1"/>
<feColorMatrix type="matrix" values="0 0 0 0 0 0 0 0 0 0 0 0 0 0 0 0 0 0 0.05 0"/>
<feBlend mode="normal" in2="BackgroundImageFix" result="effect1_dropShadow_6863_235752"/>
<feBlend mode="normal" in="SourceGraphic" in2="effect1_dropShadow_6863_235752" result="shape"/>
</filter>
</defs>
</svg>
