<svg width="465" height="336" viewBox="0 0 465 336" fill="none" xmlns="http://www.w3.org/2000/svg">
<rect x="49.25" y="0.5" width="367" height="51" rx="25.5" stroke="#E2E8F0"/>
<rect x="76.999" y="12" width="25.6333" height="12" rx="6" fill="#E2E8F0"/>
<rect x="72.75" y="32" width="34.1318" height="8" rx="4" fill="#E2E8F0"/>
<rect x="133.396" y="3" width="1" height="46" fill="#E2E8F0"/>
<rect x="160.911" y="12" width="88.9047" height="12" rx="6" fill="#E2E8F0"/>
<rect x="190.546" y="32" width="59.2698" height="8" rx="4" fill="#E2E8F0"/>
<rect x="276.331" y="3" width="1" height="46" fill="#E2E8F0"/>
<rect x="303.846" y="12" width="88.9047" height="12" rx="6" fill="#E2E8F0"/>
<rect x="333.48" y="32" width="59.2698" height="8" rx="4" fill="#E2E8F0"/>
<rect x="48.75" y="84" width="180" height="60" rx="30" fill="#E2E8F0"/>
<rect x="115.846" y="96" width="88.9047" height="12" rx="6" fill="#F8FAFC"/>
<rect x="145.48" y="124" width="59.2698" height="8" rx="4" fill="#F8FAFC"/>
<rect x="236.75" y="84" width="180" height="60" rx="30" fill="#E2E8F0"/>
<rect x="303.846" y="96" width="88.9047" height="12" rx="6" fill="#F8FAFC"/>
<rect x="333.48" y="124" width="59.2698" height="8" rx="4" fill="#F8FAFC"/>
<rect x="48.75" y="176" width="180" height="60" rx="30" fill="#E2E8F0"/>
<rect x="115.846" y="188" width="88.9047" height="12" rx="6" fill="#F8FAFC"/>
<rect x="145.48" y="216" width="59.2698" height="8" rx="4" fill="#F8FAFC"/>
<rect x="236.75" y="176" width="180" height="60" rx="30" fill="#E2E8F0"/>
<rect x="303.846" y="188" width="88.9047" height="12" rx="6" fill="#F8FAFC"/>
<rect x="333.48" y="216" width="59.2698" height="8" rx="4" fill="#F8FAFC"/>
<rect x="38.417" y="268" width="272.419" height="32" rx="16" fill="#E2E8F0"/>
<rect x="104.135" y="279.009" width="77.965" height="10.5234" rx="5.2617" fill="#E2E8F0"/>
<rect x="261.815" y="268" width="165.266" height="32" rx="16" fill="#F1F5F9"/>
<rect x="104.64" y="324" width="256.221" height="12" rx="6" fill="#E2E8F0"/>
</svg>
