<svg width="1328" height="354" viewBox="0 0 1328 354" fill="none" xmlns="http://www.w3.org/2000/svg">
<g filter="url(#filter0_d_6863_235752)">
<mask id="path-1-inside-1_6863_235752" fill="none">
<path d="M16 22C16 15.3726 21.3726 10 28 10H1300C1306.63 10 1312 15.3726 1312 22V100C1312 106.627 1306.63 112 1300 112H28C21.3726 112 16 106.627 16 100V22Z"/>
</mask>
<path d="M16 22C16 15.3726 21.3726 10 28 10H1300C1306.63 10 1312 15.3726 1312 22V100C1312 106.627 1306.63 112 1300 112H28C21.3726 112 16 106.627 16 100V22Z" fill="none" shape-rendering="crispEdges"/>
<path d="M16 10H1312H16ZM1312 100C1312 107.18 1306.18 113 1299 113H29C21.8203 113 16 107.18 16 100C16 106.075 21.3726 111 28 111H1300C1306.63 111 1312 106.075 1312 100ZM16 112V10V112ZM1312 10V112V10Z" fill="#E2E8F0" mask="url(#path-1-inside-1_6863_235752)"/>
<rect x="160" y="22" width="996" height="8" rx="4" fill="#E2E8F0"/>
<rect x="1082" y="42" width="74" height="8" rx="4" fill="#E2E8F0"/>
<rect x="160" y="62" width="996" height="8" rx="4" fill="#E2E8F0"/>
<rect x="160" y="82" width="996" height="8" rx="4" fill="#E2E8F0"/>
<rect x="1172" y="22" width="128" height="78" rx="6" fill="#E2E8F0"/>
</g>
<g filter="url(#filter1_d_6863_235752)">
<mask id="path-11-inside-2_6863_235752" fill="white">
<path d="M16 132C16 125.373 21.3726 120 28 120H1300C1306.63 120 1312 125.373 1312 132V210C1312 216.627 1306.63 222 1300 222H28C21.3726 222 16 216.627 16 210V132Z"/>
</mask>
<path d="M16 132C16 125.373 21.3726 120 28 120H1300C1306.63 120 1312 125.373 1312 132V210C1312 216.627 1306.63 222 1300 222H28C21.3726 222 16 216.627 16 210V132Z" fill="none" shape-rendering="crispEdges"/>
<rect x="160" y="132" width="996" height="8" rx="4" fill="#E2E8F0"/>
<rect x="1082" y="152" width="74" height="8" rx="4" fill="#E2E8F0"/>
<rect x="160" y="172" width="996" height="8" rx="4" fill="#E2E8F0"/>
<rect x="160" y="192" width="996" height="8" rx="4" fill="#E2E8F0"/>
<rect x="1172" y="132" width="128" height="78" rx="6" fill="#E2E8F0"/>
</g>
<g filter="url(#filter2_d_6863_235752)">
<mask id="path-21-inside-3_6863_235752" fill="white">
<path d="M16 242C16 235.373 21.3726 230 28 230H1300C1306.63 230 1312 235.373 1312 242V320C1312 326.627 1306.63 332 1300 332H28C21.3726 332 16 326.627 16 320V242Z"/>
</mask>
<path d="M16 242C16 235.373 21.3726 230 28 230H1300C1306.63 230 1312 235.373 1312 242V320C1312 326.627 1306.63 332 1300 332H28C21.3726 332 16 326.627 16 320V242Z" fill="none" shape-rendering="crispEdges"/>
<rect x="160" y="242" width="996" height="8" rx="4" fill="#E2E8F0"/>
<rect x="1082" y="262" width="74" height="8" rx="4" fill="#E2E8F0"/>
<rect x="160" y="282" width="996" height="8" rx="4" fill="#E2E8F0"/>
<rect x="160" y="302" width="996" height="8" rx="4" fill="#E2E8F0"/>
<rect x="1172" y="242" width="128" height="78" rx="6" fill="#E2E8F0"/>
</g>
<defs>
<filter id="filter0_d_6863_235752" x="0" y="0" width="1328" height="134" filterUnits="userSpaceOnUse" color-interpolation-filters="sRGB">
<feFlood flood-opacity="0" result="BackgroundImageFix"/>
<feColorMatrix in="SourceAlpha" type="matrix" values="0 0 0 0 0 0 0 0 0 0 0 0 0 0 0 0 0 0 127 0" result="hardAlpha"/>
<feOffset dy="6"/>
<feGaussianBlur stdDeviation="8"/>
<feComposite in2="hardAlpha" operator="out"/>
<feColorMatrix type="matrix" values="0 0 0 0 0 0 0 0 0 0 0 0 0 0 0 0 0 0 0.04 0"/>
<feBlend mode="normal" in2="BackgroundImageFix" result="effect1_dropShadow_6863_235752"/>
<feBlend mode="normal" in="SourceGraphic" in2="effect1_dropShadow_6863_235752" result="shape"/>
</filter>
<filter id="filter1_d_6863_235752" x="0" y="110" width="1328" height="134" filterUnits="userSpaceOnUse" color-interpolation-filters="sRGB">
<feFlood flood-opacity="0" result="BackgroundImageFix"/>
<feColorMatrix in="SourceAlpha" type="matrix" values="0 0 0 0 0 0 0 0 0 0 0 0 0 0 0 0 0 0 127 0" result="hardAlpha"/>
<feOffset dy="6"/>
<feGaussianBlur stdDeviation="8"/>
<feComposite in2="hardAlpha" operator="out"/>
<feColorMatrix type="matrix" values="0 0 0 0 0 0 0 0 0 0 0 0 0 0 0 0 0 0 0.04 0"/>
<feBlend mode="normal" in2="BackgroundImageFix" result="effect1_dropShadow_6863_235752"/>
<feBlend mode="normal" in="SourceGraphic" in2="effect1_dropShadow_6863_235752" result="shape"/>
</filter>
<filter id="filter2_d_6863_235752" x="0" y="220" width="1328" height="134" filterUnits="userSpaceOnUse" color-interpolation-filters="sRGB">
<feFlood flood-opacity="0" result="BackgroundImageFix"/>
<feColorMatrix in="SourceAlpha" type="matrix" values="0 0 0 0 0 0 0 0 0 0 0 0 0 0 0 0 0 0 127 0" result="hardAlpha"/>
<feOffset dy="6"/>
<feGaussianBlur stdDeviation="8"/>
<feComposite in2="hardAlpha" operator="out"/>
<feColorMatrix type="matrix" values="0 0 0 0 0 0 0 0 0 0 0 0 0 0 0 0 0 0 0.04 0"/>
<feBlend mode="normal" in2="BackgroundImageFix" result="effect1_dropShadow_6863_235752"/>
<feBlend mode="normal" in="SourceGraphic" in2="effect1_dropShadow_6863_235752" result="shape"/>
</filter>
</defs>
</svg>
