<svg width="110" height="70" viewBox="0 0 110 70" fill="#ccc" xmlns="http://www.w3.org/2000/svg">
<g id="TheKey Logo" clip-path="url(#clip0_8966_37310)">
<path id="Vector" d="M54.2913 54.5802C54.3317 54.6166 54.3965 54.6126 54.4369 54.5721L55.1653 53.7426C55.2017 53.7022 55.1976 53.6415 55.1612 53.601L54.7606 53.2085C54.7242 53.1721 54.6595 53.1681 54.6231 53.2085L53.7936 53.953C53.7936 53.953 53.7895 53.9571 53.7855 53.9611C53.745 54.0016 53.7491 54.0663 53.7895 54.1068L54.2913 54.5843V54.5802Z" fill="#ccc"/>
<path id="Vector_2" d="M56.7069 55.0613L56.4722 54.8428C56.4277 54.8024 56.3589 54.8024 56.3144 54.8428L55.4971 55.5995C55.4526 55.644 55.4485 55.7168 55.4971 55.7654L55.7884 56.0648C55.7884 56.0648 55.7884 56.0648 55.7925 56.0689C55.841 56.1134 55.9138 56.1093 55.9584 56.0608L56.7231 55.2232C56.7635 55.1746 56.7636 55.1018 56.715 55.0613H56.7069Z" fill="#ccc"/>
<path id="Vector_3" d="M58.1554 56.3922C58.0502 56.287 57.8317 56.3274 57.6699 56.4893L57.0346 57.1205C56.9901 57.165 56.9901 57.2378 57.0346 57.2823L57.3178 57.5696C57.3623 57.6141 57.4352 57.6141 57.4837 57.5696L58.119 56.9384C58.2808 56.7766 58.3254 56.5581 58.2201 56.4529L58.1595 56.3922H58.1554Z" fill="#ccc"/>
<path id="Vector_4" d="M53.2876 55.5871L52.7171 54.9317C52.6847 54.8952 52.6281 54.8871 52.5876 54.9155L51.6125 55.6236C51.6125 55.6236 51.6125 55.6236 51.6084 55.6276C51.568 55.664 51.5639 55.7247 51.5963 55.7652L52.2275 56.5097C52.2639 56.5502 52.3246 56.5542 52.3651 56.5178L53.2795 55.7207C53.32 55.6843 53.324 55.6236 53.2876 55.5831V55.5871Z" fill="#ccc"/>
<path id="Vector_5" d="M59.9721 58.1728L59.5998 57.7965C59.5594 57.7561 59.4906 57.752 59.4501 57.7965L58.5721 58.6422C58.5316 58.6827 58.5316 58.7514 58.5721 58.796L58.9889 59.2127C59.0334 59.2532 59.1022 59.2491 59.1426 59.2046L59.9761 58.3225C60.0166 58.2821 60.0166 58.2133 59.9761 58.1728H59.9721Z" fill="#ccc"/>
<path id="Vector_6" d="M53.5832 58.1726C53.5832 58.1726 53.6277 58.1968 53.6479 58.1806L54.7282 57.3188C54.7282 57.3188 54.7525 57.2743 54.7363 57.2541L54.2508 56.6431C54.2346 56.6228 54.2063 56.6188 54.186 56.635L53.1057 57.4968C53.1057 57.4968 53.0814 57.5413 53.0976 57.5616L53.5832 58.1726Z" fill="#ccc"/>
<path id="Vector_7" d="M55.5918 58.3031L54.5512 59.1463C54.5078 59.1814 54.5012 59.2451 54.5363 59.2886L54.9312 59.7758C54.9664 59.8192 55.0301 59.8259 55.0735 59.7907L56.114 58.9475C56.1574 58.9123 56.1641 58.8486 56.1289 58.8052L55.7341 58.318C55.6989 58.2746 55.6352 58.2679 55.5918 58.3031Z" fill="#ccc"/>
<path id="Vector_8" d="M50.1682 58.0995C50.1925 58.136 50.241 58.1441 50.2774 58.1157L51.2404 57.4238C51.2769 57.3995 51.2849 57.351 51.2607 57.3146L50.5971 56.3839C50.5728 56.3516 50.5324 56.3435 50.4959 56.3597L49.4803 56.918C49.4803 56.918 49.4803 56.918 49.4763 56.918C49.4399 56.9423 49.4318 56.9909 49.452 57.0273L50.1641 58.0915L50.1682 58.0995Z" fill="#ccc"/>
<path id="Vector_9" d="M57.0425 59.9281L55.9364 60.8634C55.904 60.8909 55.8999 60.9394 55.9273 60.9718L56.4629 61.6052C56.4904 61.6376 56.5389 61.6416 56.5713 61.6142L57.6774 60.6788C57.7098 60.6514 57.7138 60.6029 57.6864 60.5705L57.1508 59.9371C57.1234 59.9047 57.0749 59.9007 57.0425 59.9281Z" fill="#ccc"/>
<path id="Vector_10" d="M51.3009 59.7911C51.3454 59.8518 51.4304 59.868 51.4911 59.8275L52.446 59.172C52.446 59.172 52.446 59.172 52.45 59.172C52.5107 59.1275 52.5229 59.0426 52.4784 58.9819L51.9888 58.3264C51.9483 58.2697 51.8714 58.2535 51.8107 58.29L50.8396 58.8524C50.8396 58.8524 50.8356 58.8524 50.8315 58.8564C50.7668 58.8969 50.7506 58.9819 50.7951 59.0466L51.3009 59.7952V59.7911Z" fill="#ccc"/>
<path id="Vector_11" d="M47.8009 59.4919C47.8252 59.5364 47.8778 59.5486 47.9223 59.5283L48.8975 58.9861C48.9379 58.9619 48.9541 58.9052 48.9298 58.8647L48.2379 57.6711C48.2137 57.6306 48.1651 57.6145 48.1246 57.6347L47.1778 58.096C47.1333 58.1202 47.1171 58.1728 47.1414 58.2133L47.805 59.4879L47.8009 59.4919Z" fill="#ccc"/>
<path id="Vector_12" d="M53.7815 60.8269L53.2514 60.0217C53.2393 60.0015 53.211 59.9934 53.1907 60.0096L52.0173 60.7784C51.9971 60.7905 51.989 60.8188 52.0052 60.8391L52.5352 61.6443C52.5474 61.6645 52.5757 61.6726 52.5959 61.6564L53.7693 60.8876C53.7896 60.8755 53.7977 60.8472 53.7815 60.8269Z" fill="#ccc"/>
<path id="Vector_13" d="M48.756 61.3126C48.7924 61.3773 48.8733 61.3976 48.938 61.3611L49.9253 60.8108C49.9901 60.7744 50.0103 60.6935 49.9739 60.6288L49.4195 59.69C49.3872 59.6334 49.3143 59.6091 49.2536 59.6334L48.2502 60.0582C48.2502 60.0582 48.2421 60.0583 48.238 60.0623C48.1733 60.0987 48.149 60.1796 48.1854 60.2444L48.7519 61.3126H48.756Z" fill="#ccc"/>
<path id="Vector_14" d="M54.5986 61.8873C54.5662 61.8428 54.5096 61.8307 54.4651 61.859L53.2795 62.5752C53.231 62.6075 53.2188 62.6723 53.2512 62.7168L53.8339 63.5827C53.8662 63.6312 53.931 63.6393 53.9755 63.611L55.1327 62.7977C55.1772 62.7653 55.1894 62.7006 55.157 62.6561L54.6027 61.8833L54.5986 61.8873Z" fill="#ccc"/>
<path id="Vector_15" d="M45.3205 60.5637C45.3529 60.6406 45.4419 60.677 45.5188 60.6406L46.5506 60.1955C46.6275 60.1591 46.6599 60.0701 46.6234 59.9932L46.0448 58.747C46.0125 58.6741 45.9234 58.6377 45.8506 58.6701L44.8755 59.0869C44.7986 59.1192 44.7622 59.2042 44.7945 59.2811L45.3165 60.5556L45.3205 60.5637Z" fill="#ccc"/>
<path id="Vector_16" d="M50.4177 61.5314L49.2936 62.1321C49.2404 62.1605 49.2203 62.2267 49.2488 62.2799L49.7675 63.2506C49.7959 63.3038 49.8621 63.3239 49.9153 63.2955L51.0394 62.6947C51.0927 62.6663 51.1127 62.6001 51.0843 62.5469L50.5656 61.5762C50.5371 61.523 50.471 61.5029 50.4177 61.5314Z" fill="#ccc"/>
<path id="Vector_17" d="M46.0774 62.5464C46.0976 62.5949 46.1502 62.6152 46.1988 62.599L47.4774 62.0649C47.526 62.0447 47.5462 61.988 47.5219 61.9395L46.9312 60.6527C46.9109 60.6082 46.8624 60.588 46.8179 60.6001L45.5716 61.0007C45.5716 61.0007 45.5716 61.0007 45.5676 61.0007C45.519 61.021 45.4947 61.0736 45.515 61.1221L46.0734 62.5423L46.0774 62.5464Z" fill="#ccc"/>
<path id="Vector_18" d="M43.6657 59.5446L42.4316 59.9209C42.379 59.9371 42.3466 59.9937 42.3628 60.0463L43.2935 63.4411C43.3097 63.4937 43.3663 63.5261 43.4189 63.5099L44.8796 63.085C44.8796 63.085 44.8796 63.085 44.8836 63.085C44.9362 63.0648 44.9646 63.0082 44.9443 62.9556L43.7831 59.6093C43.7669 59.5567 43.7102 59.5284 43.6576 59.5446H43.6657Z" fill="#ccc"/>
<path id="Vector_19" d="M51.6974 63.5502C51.6813 63.5219 51.6489 63.5138 51.6206 63.526L50.2893 64.137C50.261 64.1531 50.2489 64.1896 50.2651 64.2179L50.9246 65.4439C50.9408 65.4722 50.9772 65.4843 51.0055 65.4682L52.3165 64.7196C52.3448 64.7034 52.357 64.667 52.3408 64.6387L51.7015 63.5462L51.6974 63.5502Z" fill="#ccc"/>
<path id="Vector_20" d="M48.3998 64.0849C48.4484 64.0646 48.4686 64.008 48.4484 63.9594L47.9021 62.7334C47.8819 62.6889 47.8334 62.6646 47.7848 62.6808L46.4212 63.1299C46.4212 63.1299 46.4212 63.1299 46.4172 63.1299C46.3686 63.1502 46.3443 63.2028 46.3646 63.2554L46.8906 64.6149C46.9108 64.6635 46.9675 64.6878 47.016 64.6675L48.3998 64.0849Z" fill="#ccc"/>
<path id="Vector_21" d="M42.7715 66.0432C42.8282 66.0311 42.8606 65.9744 42.8484 65.9178L41.4808 60.2814C41.4687 60.2288 41.412 60.1924 41.3594 60.2045L39.9473 60.5039C39.8906 60.5161 39.8542 60.5687 39.8663 60.6253L40.8374 66.3386C40.8496 66.3953 40.9022 66.4317 40.9588 66.4195L42.7715 66.0432Z" fill="#ccc"/>
<path id="Vector_22" d="M38.9802 60.6572L37.4305 60.815C37.3617 60.8231 37.3091 60.8838 37.3172 60.9526L37.8999 69.3971C37.8999 69.3971 37.8999 69.4012 37.8999 69.4052C37.908 69.474 37.9727 69.5266 38.0456 69.5144L40.2265 69.2434C40.2953 69.2353 40.3438 69.1665 40.3357 69.0977L39.1178 60.7705C39.1097 60.7017 39.049 60.6532 38.9802 60.6613V60.6572Z" fill="#ccc"/>
<path id="Vector_23" d="M48.8773 64.853C48.857 64.8045 48.8004 64.7842 48.7518 64.8004L47.279 65.3386C47.2304 65.3588 47.2021 65.4154 47.2264 65.468L47.7929 66.9085C47.8131 66.9571 47.8738 66.9813 47.9223 66.9611L49.4316 66.3056C49.4801 66.2813 49.5044 66.2247 49.4801 66.1761L48.8773 64.853Z" fill="#ccc"/>
<path id="Vector_24" d="M45.6121 65.2009C45.6687 65.1806 45.6971 65.1199 45.6809 65.0633L45.1832 63.5783C45.167 63.5257 45.1104 63.4933 45.0578 63.5055L43.5202 63.8494C43.4635 63.8656 43.4271 63.9263 43.4433 63.9829L43.9005 65.6338C43.9005 65.6338 43.9005 65.6338 43.9005 65.6378C43.9208 65.6945 43.9774 65.7269 44.0341 65.7066L45.6121 65.2009Z" fill="#ccc"/>
<path id="Vector_25" d="M45.8426 65.78L44.1756 66.2089C44.1149 66.2251 44.0785 66.2858 44.0947 66.3465L44.5559 68.0702C44.5559 68.0702 44.5559 68.0702 44.5559 68.0742C44.5762 68.1349 44.6409 68.1633 44.6976 68.1471L46.4294 67.5806C46.486 67.5604 46.5184 67.4997 46.5022 67.439L45.9802 65.8529C45.964 65.7962 45.9033 65.7638 45.8426 65.776V65.78Z" fill="#ccc"/>
<path id="Vector_26" d="M42.897 66.4554L40.9953 66.7387C40.9386 66.7468 40.9022 66.8034 40.9103 66.86L41.2583 68.9236C41.2583 68.9236 41.2583 68.9277 41.2583 68.9317C41.2704 68.9884 41.3271 69.0207 41.3837 69.0086L43.3785 68.5473C43.4352 68.5352 43.4675 68.4785 43.4554 68.4219L43.0103 66.5363C42.9982 66.4837 42.9496 66.4514 42.897 66.4554Z" fill="#ccc"/>
<path id="Vector_27" d="M36.5484 60.8758C32.5709 61.0538 28.7675 60.3619 25.1339 58.792C15.8074 54.7619 9.75013 45.6457 9.41025 35.5382C9.22008 26.2845 13.8288 17.7793 21.642 12.9319C28.638 8.5862 37.5155 7.76077 45.1588 10.9735C48.1004 12.2116 50.7264 13.9191 52.9559 15.9989L59.353 10.059C55.9623 6.79371 51.8553 4.17984 47.1981 2.43995C35.1363 -2.06756 21.2698 0.756717 11.838 9.49256C5.65938 15.2139 1.7669 22.9585 0.880776 31.4191C-0.17934 42.259 3.97615 53.3012 12.0444 60.5116C19.1051 66.8238 27.416 69.8544 36.9773 69.6035C36.9813 69.6035 36.9854 69.6035 36.9854 69.5995C37.1068 69.5955 37.1958 69.4902 37.1877 69.3729L36.686 61.0053C36.6819 60.9163 36.6374 60.8717 36.5484 60.8758ZM4.43742 33.3735V33.3654L4.44551 33.3613C4.44551 33.3654 4.43742 33.3694 4.43742 33.3735Z" fill="#ccc"/>
<path id="Vector_28" d="M104.465 18.1511L106.035 18.143C106.31 18.143 106.536 17.9164 106.532 17.6413L106.524 16.1442C106.524 15.869 106.298 15.6465 106.023 15.6465L104.453 15.6546C104.177 15.6546 103.951 15.8812 103.955 16.1563L103.963 17.6534C103.963 17.9286 104.19 18.1511 104.465 18.1511Z" fill="#ccc"/>
<path id="Vector_29" d="M53.9674 26.3368H55.3067C55.5698 26.3368 55.7842 26.1223 55.7842 25.8634V24.5281C55.7842 24.2651 55.5698 24.0547 55.3067 24.0547H53.9674C53.7044 24.0547 53.49 24.2691 53.49 24.5281V25.8634C53.49 26.1264 53.7044 26.3368 53.9674 26.3368Z" fill="#ccc"/>
<path id="Vector_30" d="M55.3002 27.7649L53.9731 27.7719C53.7049 27.7733 53.4887 27.9918 53.4901 28.26L53.497 29.575C53.4984 29.8431 53.7169 30.0594 53.9851 30.058L55.3122 30.051C55.5804 30.0496 55.7966 29.8311 55.7952 29.5629L55.7883 28.2479C55.7869 27.9798 55.5684 27.7635 55.3002 27.7649Z" fill="#ccc"/>
<path id="Vector_31" d="M59.6687 38.3021C58.4306 38.1483 57.241 38.3628 56.104 38.9454C56.0716 38.9616 56.0555 38.9535 56.0555 38.9171V35.0003C56.0555 34.6362 55.8734 34.4541 55.5052 34.4541H53.7572C53.5306 34.4541 53.3445 34.6362 53.3445 34.8628V49.3362C53.3445 49.5992 53.5589 49.8136 53.826 49.8136H55.5416C55.8248 49.8136 56.0555 49.583 56.0555 49.2998V41.3165C56.0555 41.2761 56.0716 41.2477 56.1081 41.2275C57.0751 40.661 59.6728 39.8316 59.9358 41.6524C59.9803 41.9558 60.0046 42.2634 60.0046 42.5709C60.0248 44.8691 60.041 47.135 60.041 49.3645C60.041 49.6113 60.2393 49.8096 60.4861 49.8096H62.23C62.5052 49.8096 62.7318 49.5871 62.7358 49.3119C62.7601 47.0946 62.756 44.857 62.7237 42.6032C62.6953 40.4547 62.1046 38.6015 59.6687 38.298V38.3021Z" fill="#ccc"/>
<path id="Vector_32" d="M51.0138 34.7939H41.234C41.0074 34.7939 40.8213 34.976 40.8213 35.2026V36.7726C40.8213 36.9991 41.0074 37.1812 41.234 37.1812H44.6976C44.7421 37.1812 44.7664 37.2055 44.7664 37.25V49.3685C44.7664 49.6153 44.9646 49.8136 45.2115 49.8136H47.1172C47.3924 49.8136 47.6149 49.5911 47.6149 49.32V37.2541C47.6149 37.2096 47.6392 37.1853 47.6837 37.1853H51.0826C51.3496 37.1853 51.5641 36.9708 51.5641 36.7078V35.3442C51.5641 34.9801 51.382 34.798 51.0138 34.798V34.7939Z" fill="#ccc"/>
<path id="Vector_33" d="M88.0855 35.2835C88.126 35.235 88.1462 35.1743 88.1462 35.1096C88.1462 34.9517 88.0167 34.8263 87.863 34.8263H85.3341C85.156 34.8263 84.9861 34.9113 84.8768 35.0529L80.078 41.4622C80.0294 41.5269 80.0052 41.5188 80.0052 41.4379V35.2674C80.0052 35.0205 79.8028 34.8223 79.5601 34.8223H77.5531C77.3346 34.8223 77.1606 35.0003 77.1606 35.2148V49.2795C77.1606 49.6315 77.3387 49.8096 77.6907 49.8096H79.5439C79.7988 49.8096 80.0052 49.6032 80.0052 49.3483V42.8824C80.0052 42.8176 80.0254 42.8136 80.0618 42.8662C81.563 45.0512 83.0439 47.2483 84.5127 49.4535C84.6664 49.6882 84.8161 49.8096 85.0872 49.8136C86.0341 49.8176 86.9606 49.8136 87.867 49.8055C87.9196 49.8055 87.9682 49.7893 88.0127 49.7569C88.126 49.676 88.1543 49.5182 88.0693 49.409L82.8578 42.1338C82.8254 42.0893 82.8254 42.0489 82.8578 42.0084L88.0855 35.2795V35.2835Z" fill="#ccc"/>
<path id="Vector_34" d="M71.0951 38.3903C69.0478 37.9452 66.7171 38.5805 65.6691 40.4256C65.3293 41.0285 65.1067 41.8741 65.0055 42.9666C64.9084 43.9782 64.9165 44.9169 65.0217 45.7788C65.2645 47.7371 66.2235 49.0158 67.8986 49.6146C68.5865 49.8614 69.4888 49.9747 70.6015 49.9585C71.6899 49.9423 72.7743 49.8331 73.8466 49.6267C74.146 49.5701 74.2674 49.4689 74.2715 49.1614C74.2755 48.7325 74.2755 48.3077 74.2715 47.8747C74.2674 47.5874 74.1217 47.3892 73.8223 47.4215C72.4911 47.5591 71.2449 47.6279 70.0836 47.6238C68.546 47.6198 67.6275 46.6608 67.7084 45.0788C67.7084 45.0464 67.7287 45.0343 67.757 45.0343H74.409C74.4535 45.0343 74.498 45.0181 74.5264 44.9857C74.6113 44.8926 74.6599 44.7632 74.668 44.5932C74.7894 41.8094 74.231 39.0741 71.0911 38.3944L71.0951 38.3903ZM71.9691 43.0799C71.9691 43.1082 71.9489 43.1285 71.9206 43.1285L67.7691 43.1204C67.7408 43.1204 67.7206 43.1001 67.7206 43.0718V42.7886C67.7206 41.5747 68.6512 40.5915 69.7963 40.5955H69.9056C71.0466 40.5955 71.9732 41.5828 71.9691 42.7967V43.0799Z" fill="#ccc"/>
<path id="Vector_35" d="M90.5293 39.0868C89.2952 39.9243 88.668 41.5105 88.6276 42.9185C88.5993 43.8856 88.5386 45.3746 88.7611 46.3579C89.1293 48.0006 90.0721 49.0931 91.5854 49.6313C92.2732 49.874 93.1756 49.9873 94.2883 49.963C95.3767 49.9428 96.4571 49.8295 97.5293 49.6232C97.7802 49.5746 97.9056 49.4451 97.9137 49.1943C97.9299 48.7209 97.9137 48.2434 97.8773 47.7659C97.8571 47.5191 97.7316 47.4058 97.505 47.4261C96.1495 47.5394 94.9923 47.6081 94.0415 47.6324C92.3906 47.6688 91.2738 46.9243 91.3467 45.0954C91.3467 45.059 91.3669 45.0388 91.4073 45.0388H97.9906C98.1565 45.0388 98.2941 44.9052 98.2941 44.7394C98.3224 43.0602 98.3831 41.6197 97.3998 40.0983C96.0322 37.9943 92.512 37.7474 90.5334 39.0908L90.5293 39.0868ZM95.5386 43.1168L91.4073 43.1249C91.379 43.1249 91.3507 43.1006 91.3507 43.0683V42.7769C91.3507 41.5711 92.2773 40.592 93.4264 40.5879H93.5073C94.6565 40.5879 95.5912 41.563 95.5912 42.7688V43.0602C95.5912 43.0885 95.5669 43.1168 95.5386 43.1168Z" fill="#ccc"/>
<path id="Vector_36" d="M109.344 38.4111H107.362C107.082 38.4111 106.913 38.5447 106.844 38.8158L104.707 47.2886C104.691 47.3574 104.634 47.414 104.566 47.4302C104.461 47.4585 104.351 47.3938 104.327 47.2886L102.203 38.7874C102.15 38.5689 101.952 38.4152 101.725 38.4152H99.6414C99.6131 38.4152 99.5848 38.4152 99.5605 38.4273C99.3946 38.4718 99.3015 38.6418 99.3461 38.8077C100.171 41.7048 101.001 44.5897 101.834 47.4626C102.243 48.8707 102.421 49.8296 103.987 49.8377C104.032 49.8377 104.052 49.862 104.044 49.9065C103.87 50.8574 103.522 51.7435 102.344 51.6707C101.539 51.6221 100.758 51.5817 100.01 51.5493C100.006 51.5493 100.002 51.5493 99.9934 51.5493C99.779 51.5493 99.605 51.7192 99.601 51.9296C99.601 52.31 99.601 52.6822 99.601 53.0464C99.605 53.4834 99.779 53.5239 100.151 53.6007C101.321 53.8476 102.421 53.8921 103.457 53.7383C105.347 53.4551 105.881 52.2452 106.35 50.6065C107.475 46.6938 108.596 42.7932 109.713 38.9048C109.721 38.8724 109.729 38.836 109.729 38.7996C109.729 38.5892 109.559 38.4192 109.348 38.4192L109.344 38.4111Z" fill="#ccc"/>
<path id="Vector_37" d="M90.7478 20.4453C90.7478 20.4453 90.7275 20.4453 90.7154 20.4413C90.6749 20.4251 90.6507 20.3806 90.6669 20.3361C90.8368 19.8546 91.1403 19.2031 91.5692 18.3777C92.1275 17.3095 92.69 16.2413 93.2564 15.1771C93.3374 15.0233 93.3495 14.8858 93.2888 14.7684C93.2524 14.7037 93.1877 14.6632 93.1108 14.6592C92.52 14.6592 91.9374 14.6592 91.3628 14.6592C90.9582 14.6592 90.7801 14.7806 90.5981 15.1124C90.1894 15.8488 89.7888 16.5892 89.3963 17.3337C88.3605 19.2921 87.7495 20.2916 87.7981 22.165C87.8062 22.4765 87.8223 22.8528 88.1784 22.8528C89.7807 22.8488 91.383 22.8569 92.9853 22.8811C93.5235 22.8892 93.9929 22.9418 94.3975 23.039C96.6189 23.5771 96.7524 25.2968 96.5744 27.243C96.5663 27.3401 96.5137 27.3846 96.4166 27.3846C84.6056 27.3846 72.8593 27.3846 61.1859 27.3846C60.7085 27.3846 60.3322 27.2794 60.3443 26.7372C60.3969 24.7627 60.3969 22.9904 60.3362 21.4124C60.2877 20.1499 59.4379 19.9517 58.309 19.9436C56.0796 19.9274 53.8541 20.0083 51.6327 20.1823C51.1998 20.2147 50.4877 20.332 50.0669 20.5788C48.8975 21.2627 48.8247 22.2014 48.8247 23.5771C48.8247 24.9326 48.8044 26.2921 48.7559 27.6517C48.7559 27.6962 48.7316 27.7245 48.683 27.7285C45.8628 28.0806 43.0992 27.8864 42.8969 24.3054C42.8119 22.8447 42.82 21.643 42.9131 20.7043C42.9374 20.4696 42.8645 20.2592 42.6056 20.2511C42.3709 20.243 41.8489 20.243 41.0478 20.2511C40.7929 20.2511 40.631 20.3361 40.5825 20.5869C40.3559 21.8048 40.2709 23.0228 40.3275 24.2447C40.3801 25.3898 40.5137 26.2881 40.7241 26.9395C41.4767 29.2459 43.5767 30.2655 46.0004 30.3707C47.5744 30.4395 49.1888 30.3546 50.8397 30.1158C51.1715 30.0673 51.3414 29.8609 51.3495 29.4968C51.4061 26.9314 51.4385 25.2442 51.4507 24.443C51.4588 23.8684 51.5842 23.0754 52.1385 22.9337C52.6888 22.7962 53.4212 22.695 54.3356 22.6303C55.2501 22.5655 56.1686 22.521 57.083 22.4927C57.52 22.4806 57.7385 22.6991 57.7345 23.1482C57.7304 24.6494 57.7345 26.1546 57.7588 27.6557C57.779 29.3106 58.6287 30.0106 60.2715 30.0106C71.9732 30.0106 83.6709 30.0025 95.3726 29.9863C96.4732 29.9863 97.5697 29.954 98.6663 29.8933C98.9495 29.8771 99.1033 29.7355 99.1316 29.4684C99.2732 28.1291 99.3056 26.7858 99.2287 25.4424C98.9333 20.3158 94.6888 20.1985 90.7397 20.4372L90.7478 20.4453Z" fill="#ccc"/>
<path id="Vector_38" d="M101.96 30.0227C104.319 30.0227 106.694 30.0227 109.089 30.0227C109.36 30.0227 109.652 29.9459 109.672 29.6505C109.765 28.4123 109.757 26.8748 109.644 25.0378C109.474 22.3025 107.932 20.3199 105.047 20.1823C104.08 20.1378 103.214 20.1661 102.449 20.2753C102.195 20.3118 101.984 20.4534 101.976 20.7123C101.96 21.1979 101.96 21.7037 101.968 22.2216C101.968 22.2297 101.968 22.2337 101.968 22.2418C101.98 22.4077 102.13 22.5332 102.296 22.521C104.177 22.3673 106.625 22.3956 107.046 24.7667C107.155 25.3979 107.196 26.2557 107.159 27.3401C107.159 27.3765 107.139 27.3967 107.103 27.3967H101.927C101.681 27.3967 101.482 27.595 101.482 27.8418V29.5534C101.482 29.8123 101.697 30.0268 101.956 30.0268L101.96 30.0227Z" fill="#ccc"/>
</g>
<defs>
<clipPath id="clip0_8966_37310">
<rect width="109.653" height="70" fill="#ccc" transform="translate(0.34668)"/>
</clipPath>
</defs>
</svg>
