<svg width="32" height="32" viewBox="0 0 32 32" fill="none" xmlns="http://www.w3.org/2000/svg">
<path d="M23.3285 0H5.42847C4.32847 0 3.42847 0.9 3.42847 2V30C3.42847 31.1 4.32847 32 5.42847 32H27.4285C28.5285 32 29.4285 31.1 29.4285 30V5.55L23.3285 0ZM23.9285 3.25L25.8285 5H23.9285V3.25ZM5.42847 30V2H21.9285V7H27.4285V30H5.42847Z" fill="#8080FF"/>
<g clip-path="url(#clip0_16339_111702)">
<path d="M15.4289 6.28516C15.3648 6.28554 15.3009 6.2924 15.2382 6.30562L15.2373 6.30469L10.5052 7.25149L10.4903 7.25428L10.4893 7.25521C10.2716 7.29654 10.0751 7.4125 9.93373 7.58312C9.79231 7.75373 9.71482 7.96832 9.7146 8.18992V15.809C9.71465 16.0309 9.79217 16.2458 9.93379 16.4166C10.0754 16.5874 10.2722 16.7034 10.4903 16.7446L15.2336 17.6933L15.2373 17.6942C15.3003 17.7072 15.3645 17.7137 15.4289 17.7137C15.6815 17.7137 15.9237 17.6134 16.1023 17.4348C16.2809 17.2562 16.3813 17.0139 16.3813 16.7613V7.23754C16.3813 6.98495 16.2809 6.74271 16.1023 6.5641C15.9237 6.3855 15.6815 6.28516 15.4289 6.28516ZM17.3336 7.23754V8.66611H19.2384C19.5013 8.66611 19.7146 8.87944 19.7146 9.1423C19.7146 9.40516 19.5013 9.61849 19.2384 9.61849H17.3336V10.5709H19.2384C19.5013 10.5709 19.7146 10.7842 19.7146 11.0471C19.7146 11.3099 19.5013 11.5233 19.2384 11.5233H17.3336V12.4756H19.2384C19.5013 12.4756 19.7146 12.689 19.7146 12.9518C19.7146 13.2147 19.5013 13.428 19.2384 13.428H17.3336V14.3804H19.2384C19.5013 14.3804 19.7146 14.5937 19.7146 14.8566C19.7146 15.1194 19.5013 15.3328 19.2384 15.3328H17.3336V16.7613H20.1908C20.717 16.7613 21.1432 16.3352 21.1432 15.809V8.18992C21.1432 7.66373 20.717 7.23754 20.1908 7.23754H17.3336ZM10.7925 9.61849H11.678L12.1253 12.777H12.1672L12.7038 9.61849H13.3874L13.9436 12.777H13.9854L14.4244 9.61849H15.3033L14.4272 14.3804H13.6274L13.0665 11.4628H13.0247L12.4741 14.3804H11.6687L10.7925 9.61849Z" fill="#8080FF"/>
</g>
<path d="M7.52147 27L6.29297 22.71H7.72297L8.32747 25.947L9.00347 22.71H10.1735L10.882 25.9275L11.4735 22.71H12.8515L11.623 27H10.193L9.77697 25.167L9.60147 24.0945H9.58197L9.40647 25.167L8.99047 27H7.52147ZM15.1277 22.645C15.574 22.645 15.9554 22.7338 16.2717 22.9115C16.5924 23.0848 16.8372 23.3362 17.0062 23.6655C17.1795 23.9948 17.2662 24.3913 17.2662 24.855C17.2662 25.3187 17.1795 25.7152 17.0062 26.0445C16.8372 26.3738 16.5924 26.6273 16.2717 26.805C15.9554 26.9783 15.574 27.065 15.1277 27.065C14.6857 27.065 14.3022 26.9783 13.9772 26.805C13.6565 26.6273 13.4095 26.3738 13.2362 26.0445C13.0629 25.7152 12.9762 25.3187 12.9762 24.855C12.9762 24.3913 13.0629 23.9948 13.2362 23.6655C13.4095 23.3362 13.6565 23.0848 13.9772 22.9115C14.3022 22.7338 14.6857 22.645 15.1277 22.645ZM15.1277 23.659C14.95 23.659 14.8027 23.7045 14.6857 23.7955C14.573 23.8822 14.4864 24.0122 14.4257 24.1855C14.3694 24.3588 14.3412 24.582 14.3412 24.855C14.3412 25.1237 14.3694 25.3468 14.4257 25.5245C14.4864 25.6978 14.573 25.83 14.6857 25.921C14.8027 26.0077 14.95 26.051 15.1277 26.051C15.301 26.051 15.4462 26.0077 15.5632 25.921C15.6802 25.83 15.7669 25.6978 15.8232 25.5245C15.8795 25.3468 15.9077 25.1237 15.9077 24.855C15.9077 24.582 15.8795 24.3588 15.8232 24.1855C15.7669 24.0122 15.6802 23.8822 15.5632 23.7955C15.4462 23.7045 15.301 23.659 15.1277 23.659ZM20.1028 22.71C20.6358 22.71 21.0474 22.8335 21.3378 23.0805C21.6324 23.3232 21.7798 23.6482 21.7798 24.0555C21.7798 24.5105 21.6368 24.855 21.3508 25.089C21.0648 25.323 20.6531 25.44 20.1158 25.44L19.9858 25.5115H19.2058V27H17.9058V22.71H20.1028ZM19.8883 24.608C20.0746 24.608 20.2133 24.5733 20.3043 24.504C20.3996 24.4303 20.4473 24.3112 20.4473 24.1465C20.4473 23.9818 20.3996 23.8627 20.3043 23.789C20.2133 23.7153 20.0746 23.6785 19.8883 23.6785H19.2058V24.608H19.8883ZM20.6748 24.8875L22.0268 27H20.5773L19.5308 25.1215L20.6748 24.8875ZM24.4139 22.71C25.0855 22.71 25.5969 22.8963 25.9479 23.269C26.2989 23.6417 26.4744 24.1703 26.4744 24.855C26.4744 25.5353 26.2989 26.064 25.9479 26.441C25.5969 26.8137 25.0855 27 24.4139 27H22.4444V22.71H24.4139ZM24.2514 26.0315C24.572 26.0315 24.7952 25.9362 24.9209 25.7455C25.0465 25.5505 25.1094 25.2537 25.1094 24.855C25.1094 24.4563 25.0465 24.1617 24.9209 23.971C24.7952 23.776 24.572 23.6785 24.2514 23.6785H23.7704V26.0315H24.2514Z" fill="#8080FF"/>
<defs>
<clipPath id="clip0_16339_111702">
<rect width="12.5714" height="12.5714" fill="white" transform="translate(9.14282 5.71484)"/>
</clipPath>
</defs>
</svg>
