<svg width="32" height="32" viewBox="0 0 32 32" fill="none" xmlns="http://www.w3.org/2000/svg">
<path d="M23.3285 0H5.42847C4.32847 0 3.42847 0.9 3.42847 2V30C3.42847 31.1 4.32847 32 5.42847 32H27.4285C28.5285 32 29.4285 31.1 29.4285 30V5.55L23.3285 0ZM23.9285 3.25L25.8285 5H23.9285V3.25ZM5.42847 30V2H21.9285V7H27.4285V30H5.42847Z" fill="#8080FF"/>
<g clip-path="url(#clip0_16339_111695)">
<path d="M21.3948 8.22593C19.828 6.65906 17.2784 6.65906 15.7115 8.22593L10.8398 13.0976C9.72066 14.2168 9.72073 16.038 10.84 17.1572C11.3996 17.7168 12.1345 17.9966 12.8697 17.9965C13.6047 17.9965 14.3399 17.7167 14.8995 17.1572L19.3651 12.6915C20.0367 12.0201 20.0367 10.9274 19.3651 10.2557C18.6936 9.58419 17.6008 9.58422 16.9294 10.2558L14.0091 13.176C13.7849 13.4002 13.7849 13.7637 14.009 13.9879C14.2333 14.2121 14.5967 14.2121 14.821 13.9879L17.7413 11.0677C17.9651 10.8438 18.3294 10.8438 18.5532 11.0676C18.7771 11.2915 18.7771 11.6557 18.5532 11.8795L14.0876 16.3452C13.416 17.0167 12.3234 17.0168 11.6519 16.3453C10.9803 15.6737 10.9803 14.581 11.6517 13.9095L16.5234 9.03785C17.6426 7.91872 19.4637 7.91867 20.583 9.0379C21.1252 9.58004 21.4238 10.3009 21.4237 11.0677C21.4237 11.8344 21.1252 12.5553 20.5829 13.0975L15.7114 17.9692C15.4872 18.1934 15.4872 18.5569 15.7114 18.7811C15.7647 18.8345 15.8279 18.8768 15.8976 18.9057C15.9673 18.9345 16.042 18.9493 16.1174 18.9492C16.1928 18.9493 16.2674 18.9345 16.3371 18.9057C16.4068 18.8768 16.4701 18.8345 16.5233 18.7811L21.3948 13.9094C22.1539 13.1504 22.5719 12.1412 22.5719 11.0677C22.572 9.99416 22.1539 8.98496 21.3948 8.22593Z" fill="#8080FF"/>
</g>
<path d="M12.0519 23.3737H9.43592V24.2937H11.5319V25.5177H9.43592V27.4297H7.80392V22.1497H12.0519V23.3737ZM14.3422 22.1497V27.4297H12.7102V22.1497H14.3422ZM16.9515 26.2057H19.4635V27.4297H15.3195V22.1497H16.9515V26.2057ZM20.1477 27.4297V22.1497H24.4037V23.3737H21.7797V24.2297H23.8757V25.3657H21.7797V26.2057H24.5077V27.4297H20.1477Z" fill="#8080FF"/>
<defs>
<clipPath id="clip0_16339_111695">
<rect width="12.5714" height="12.5714" fill="white" transform="translate(10 6.71484)"/>
</clipPath>
</defs>
</svg>
