<svg width="33" height="32" viewBox="0 0 33 32" fill="none" xmlns="http://www.w3.org/2000/svg">
<path d="M23.8285 0H5.92847C4.82847 0 3.92847 0.9 3.92847 2V30C3.92847 31.1 4.82847 32 5.92847 32H27.9285C29.0285 32 29.9285 31.1 29.9285 30V5.55L23.8285 0ZM24.4285 3.25L26.3285 5H24.4285V3.25ZM5.92847 30V2H22.4285V7H27.9285V30H5.92847Z" fill="#8080FF"/>
<path d="M12.4933 7.8129L14.465 9.7846H11.0498C11.1195 9.36597 11.2864 8.96953 11.537 8.6271C11.7877 8.28467 12.1152 8.0058 12.4933 7.8129ZM15.1434 7.50781H13.7409C13.6544 7.50781 13.5679 7.51237 13.4814 7.51692L15.7491 9.7846H17.4202L15.1434 7.50781ZM18.2945 7.50781H16.4366L18.7134 9.7846H20.9857C20.879 9.14804 20.55 8.56994 20.0573 8.15306C19.5645 7.73619 18.9399 7.50756 18.2945 7.50781ZM15.3265 15.0786L17.6033 13.8263C17.6747 13.787 17.7342 13.7293 17.7757 13.6591C17.8171 13.589 17.839 13.509 17.839 13.4275C17.839 13.346 17.8171 13.2659 17.7757 13.1958C17.7342 13.1256 17.6747 13.0679 17.6033 13.0286L15.3265 11.7763C15.2572 11.7382 15.1791 11.7188 15.1 11.72C15.0208 11.7212 14.9434 11.743 14.8753 11.7833C14.8072 11.8236 14.7507 11.8809 14.7115 11.9496C14.6723 12.0183 14.6517 12.0961 14.6516 12.1752V14.6797C14.6517 14.7588 14.6723 14.8366 14.7115 14.9053C14.7507 14.974 14.8072 15.0313 14.8753 15.0716C14.9434 15.1119 15.0208 15.1337 15.1 15.1349C15.1791 15.1361 15.2572 15.1167 15.3265 15.0786ZM21.0266 10.6953V14.7935C21.026 15.518 20.738 16.2125 20.2258 16.7248C19.7135 17.237 19.0189 17.5251 18.2945 17.5257H13.7409C13.0165 17.5251 12.3219 17.237 11.8097 16.7248C11.2974 16.2125 11.0094 15.518 11.0088 14.7935V10.6953H21.0266Z" fill="#8080FF"/>
<path d="M15.4046 22.1497L13.5806 27.4297H11.6446L9.82061 22.1497H11.5246L12.3726 25.1817L12.6446 26.2137L12.9006 25.1977L13.7566 22.1497H15.4046ZM17.5189 22.1497V27.4297H15.8869V22.1497H17.5189ZM20.9203 22.1497C21.747 22.1497 22.3763 22.379 22.8083 22.8377C23.2403 23.2964 23.4563 23.947 23.4563 24.7897C23.4563 25.627 23.2403 26.2777 22.8083 26.7417C22.3763 27.2004 21.747 27.4297 20.9203 27.4297H18.4963V22.1497H20.9203ZM20.7203 26.2377C21.115 26.2377 21.3896 26.1204 21.5443 25.8857C21.699 25.6457 21.7763 25.2804 21.7763 24.7897C21.7763 24.299 21.699 23.9364 21.5443 23.7017C21.3896 23.4617 21.115 23.3417 20.7203 23.3417H20.1283V26.2377H20.7203Z" fill="#8080FF"/>
</svg>
