<svg width="151" height="151" viewBox="0 0 151 151" fill="none" xmlns="http://www.w3.org/2000/svg">
<g clip-path="url(#clip0_10452_42934)">
<g clip-path="url(#clip1_10452_42934)">
<path d="M150.5 0.683594H0.5V150.684H150.5V0.683594Z" fill="white"/>
<path d="M56.2252 13.6602H51.9502V17.9352H56.2252V13.6602Z" fill="#E2E8F0"/>
<path d="M81.8751 13.6602H77.6001V17.9352H81.8751V13.6602Z" fill="#E2E8F0"/>
<path d="M90.4249 13.6602H86.1499V17.9352H90.4249V13.6602Z" fill="#E2E8F0"/>
<path d="M51.9498 17.9336H47.6748V22.2086H51.9498V17.9336Z" fill="#E2E8F0"/>
<path d="M56.2252 17.9336H51.9502V22.2086H56.2252V17.9336Z" fill="#E2E8F0"/>
<path d="M64.775 17.9336H60.5V22.2086H64.775V17.9336Z" fill="#E2E8F0"/>
<path d="M69.0499 17.9336H64.7749V22.2086H69.0499V17.9336Z" fill="#E2E8F0"/>
<path d="M73.3248 17.9336H69.0498V22.2086H73.3248V17.9336Z" fill="#E2E8F0"/>
<path d="M77.6002 17.9336H73.3252V22.2086H77.6002V17.9336Z" fill="#E2E8F0"/>
<path d="M81.8751 17.9336H77.6001V22.2086H81.8751V17.9336Z" fill="#E2E8F0"/>
<path d="M56.2252 22.207H51.9502V26.482H56.2252V22.207Z" fill="#E2E8F0"/>
<path d="M60.5001 22.207H56.2251V26.482H60.5001V22.207Z" fill="#E2E8F0"/>
<path d="M64.775 22.207H60.5V26.482H64.775V22.207Z" fill="#E2E8F0"/>
<path d="M90.4249 22.207H86.1499V26.482H90.4249V22.207Z" fill="#E2E8F0"/>
<path d="M51.9498 26.4844H47.6748V30.7594H51.9498V26.4844Z" fill="#E2E8F0"/>
<path d="M56.2252 26.4844H51.9502V30.7594H56.2252V26.4844Z" fill="#E2E8F0"/>
<path d="M64.775 26.4844H60.5V30.7594H64.775V26.4844Z" fill="#E2E8F0"/>
<path d="M77.6002 26.4844H73.3252V30.7594H77.6002V26.4844Z" fill="#E2E8F0"/>
<path d="M81.8751 26.4844H77.6001V30.7594H81.8751V26.4844Z" fill="#E2E8F0"/>
<path d="M86.15 26.4844H81.875V30.7594H86.15V26.4844Z" fill="#E2E8F0"/>
<path d="M94.6998 26.4844H90.4248V30.7594H94.6998V26.4844Z" fill="#E2E8F0"/>
<path d="M98.9752 26.4844H94.7002V30.7594H98.9752V26.4844Z" fill="#E2E8F0"/>
<path d="M103.25 26.4844H98.9751V30.7594H103.25V26.4844Z" fill="#E2E8F0"/>
<path d="M60.5001 30.7578H56.2251V35.0328H60.5001V30.7578Z" fill="#E2E8F0"/>
<path d="M69.0499 30.7578H64.7749V35.0328H69.0499V30.7578Z" fill="#E2E8F0"/>
<path d="M90.4249 30.7578H86.1499V35.0328H90.4249V30.7578Z" fill="#E2E8F0"/>
<path d="M94.6998 30.7578H90.4248V35.0328H94.6998V30.7578Z" fill="#E2E8F0"/>
<path d="M51.9498 35.0352H47.6748V39.3102H51.9498V35.0352Z" fill="#E2E8F0"/>
<path d="M60.5001 35.0352H56.2251V39.3102H60.5001V35.0352Z" fill="#E2E8F0"/>
<path d="M73.3248 35.0352H69.0498V39.3102H73.3248V35.0352Z" fill="#E2E8F0"/>
<path d="M77.6002 35.0352H73.3252V39.3102H77.6002V35.0352Z" fill="#E2E8F0"/>
<path d="M81.8751 35.0352H77.6001V39.3102H81.8751V35.0352Z" fill="#E2E8F0"/>
<path d="M86.15 35.0352H81.875V39.3102H86.15V35.0352Z" fill="#E2E8F0"/>
<path d="M90.4249 35.0352H86.1499V39.3102H90.4249V35.0352Z" fill="#E2E8F0"/>
<path d="M94.6998 35.0352H90.4248V39.3102H94.6998V35.0352Z" fill="#E2E8F0"/>
<path d="M98.9752 35.0352H94.7002V39.3102H98.9752V35.0352Z" fill="#E2E8F0"/>
<path d="M103.25 35.0352H98.9751V39.3102H103.25V35.0352Z" fill="#E2E8F0"/>
<path d="M51.9498 39.3086H47.6748V43.5836H51.9498V39.3086Z" fill="#E2E8F0"/>
<path d="M60.5001 39.3086H56.2251V43.5836H60.5001V39.3086Z" fill="#E2E8F0"/>
<path d="M69.0499 39.3086H64.7749V43.5836H69.0499V39.3086Z" fill="#E2E8F0"/>
<path d="M77.6002 39.3086H73.3252V43.5836H77.6002V39.3086Z" fill="#E2E8F0"/>
<path d="M86.15 39.3086H81.875V43.5836H86.15V39.3086Z" fill="#E2E8F0"/>
<path d="M94.6998 39.3086H90.4248V43.5836H94.6998V39.3086Z" fill="#E2E8F0"/>
<path d="M103.25 39.3086H98.9751V43.5836H103.25V39.3086Z" fill="#E2E8F0"/>
<path d="M69.0499 43.582H64.7749V47.857H69.0499V43.582Z" fill="#E2E8F0"/>
<path d="M73.3248 43.582H69.0498V47.857H73.3248V43.582Z" fill="#E2E8F0"/>
<path d="M86.15 43.582H81.875V47.857H86.15V43.582Z" fill="#E2E8F0"/>
<path d="M90.4249 43.582H86.1499V47.857H90.4249V43.582Z" fill="#E2E8F0"/>
<path d="M94.6998 43.582H90.4248V47.857H94.6998V43.582Z" fill="#E2E8F0"/>
<path d="M103.25 43.582H98.9751V47.857H103.25V43.582Z" fill="#E2E8F0"/>
<path d="M17.7501 47.8594H13.4751V52.1344H17.7501V47.8594Z" fill="#E2E8F0"/>
<path d="M22.025 47.8594H17.75V52.1344H22.025V47.8594Z" fill="#E2E8F0"/>
<path d="M26.2999 47.8594H22.0249V52.1344H26.2999V47.8594Z" fill="#E2E8F0"/>
<path d="M30.5748 47.8594H26.2998V52.1344H30.5748V47.8594Z" fill="#E2E8F0"/>
<path d="M34.8502 47.8594H30.5752V52.1344H34.8502V47.8594Z" fill="#E2E8F0"/>
<path d="M43.4 47.8594H39.125V52.1344H43.4V47.8594Z" fill="#E2E8F0"/>
<path d="M47.6749 47.8594H43.3999V52.1344H47.6749V47.8594Z" fill="#E2E8F0"/>
<path d="M51.9498 47.8594H47.6748V52.1344H51.9498V47.8594Z" fill="#E2E8F0"/>
<path d="M56.2252 47.8594H51.9502V52.1344H56.2252V47.8594Z" fill="#E2E8F0"/>
<path d="M60.5001 47.8594H56.2251V52.1344H60.5001V47.8594Z" fill="#E2E8F0"/>
<path d="M69.0499 47.8594H64.7749V52.1344H69.0499V47.8594Z" fill="#E2E8F0"/>
<path d="M81.8751 47.8594H77.6001V52.1344H81.8751V47.8594Z" fill="#E2E8F0"/>
<path d="M86.15 47.8594H81.875V52.1344H86.15V47.8594Z" fill="#E2E8F0"/>
<path d="M94.6998 47.8594H90.4248V52.1344H94.6998V47.8594Z" fill="#E2E8F0"/>
<path d="M98.9752 47.8594H94.7002V52.1344H98.9752V47.8594Z" fill="#E2E8F0"/>
<path d="M107.525 47.8594H103.25V52.1344H107.525V47.8594Z" fill="#E2E8F0"/>
<path d="M116.075 47.8594H111.8V52.1344H116.075V47.8594Z" fill="#E2E8F0"/>
<path d="M124.625 47.8594H120.35V52.1344H124.625V47.8594Z" fill="#E2E8F0"/>
<path d="M133.175 47.8594H128.9V52.1344H133.175V47.8594Z" fill="#E2E8F0"/>
<path d="M22.025 52.1328H17.75V56.4078H22.025V52.1328Z" fill="#E2E8F0"/>
<path d="M26.2999 52.1328H22.0249V56.4078H26.2999V52.1328Z" fill="#E2E8F0"/>
<path d="M30.5748 52.1328H26.2998V56.4078H30.5748V52.1328Z" fill="#E2E8F0"/>
<path d="M34.8502 52.1328H30.5752V56.4078H34.8502V52.1328Z" fill="#E2E8F0"/>
<path d="M47.6749 52.1328H43.3999V56.4078H47.6749V52.1328Z" fill="#E2E8F0"/>
<path d="M56.2252 52.1328H51.9502V56.4078H56.2252V52.1328Z" fill="#E2E8F0"/>
<path d="M77.6002 52.1328H73.3252V56.4078H77.6002V52.1328Z" fill="#E2E8F0"/>
<path d="M81.8751 52.1328H77.6001V56.4078H81.8751V52.1328Z" fill="#E2E8F0"/>
<path d="M98.9752 52.1328H94.7002V56.4078H98.9752V52.1328Z" fill="#E2E8F0"/>
<path d="M107.525 52.1328H103.25V56.4078H107.525V52.1328Z" fill="#E2E8F0"/>
<path d="M124.625 52.1328H120.35V56.4078H124.625V52.1328Z" fill="#E2E8F0"/>
<path d="M128.9 52.1328H124.625V56.4078H128.9V52.1328Z" fill="#E2E8F0"/>
<path d="M137.45 52.1328H133.175V56.4078H137.45V52.1328Z" fill="#E2E8F0"/>
<path d="M17.7501 56.4102H13.4751V60.6852H17.7501V56.4102Z" fill="#E2E8F0"/>
<path d="M26.2999 56.4102H22.0249V60.6852H26.2999V56.4102Z" fill="#E2E8F0"/>
<path d="M30.5748 56.4102H26.2998V60.6852H30.5748V56.4102Z" fill="#E2E8F0"/>
<path d="M43.4 56.4102H39.125V60.6852H43.4V56.4102Z" fill="#E2E8F0"/>
<path d="M51.9498 56.4102H47.6748V60.6852H51.9498V56.4102Z" fill="#E2E8F0"/>
<path d="M56.2252 56.4102H51.9502V60.6852H56.2252V56.4102Z" fill="#E2E8F0"/>
<path d="M64.775 56.4102H60.5V60.6852H64.775V56.4102Z" fill="#E2E8F0"/>
<path d="M69.0499 56.4102H64.7749V60.6852H69.0499V56.4102Z" fill="#E2E8F0"/>
<path d="M73.3248 56.4102H69.0498V60.6852H73.3248V56.4102Z" fill="#E2E8F0"/>
<path d="M77.6002 56.4102H73.3252V60.6852H77.6002V56.4102Z" fill="#E2E8F0"/>
<path d="M94.6998 56.4102H90.4248V60.6852H94.6998V56.4102Z" fill="#E2E8F0"/>
<path d="M107.525 56.4102H103.25V60.6852H107.525V56.4102Z" fill="#E2E8F0"/>
<path d="M111.8 56.4102H107.525V60.6852H111.8V56.4102Z" fill="#E2E8F0"/>
<path d="M116.075 56.4102H111.8V60.6852H116.075V56.4102Z" fill="#E2E8F0"/>
<path d="M120.35 56.4102H116.075V60.6852H120.35V56.4102Z" fill="#E2E8F0"/>
<path d="M124.625 56.4102H120.35V60.6852H124.625V56.4102Z" fill="#E2E8F0"/>
<path d="M30.5748 60.6836H26.2998V64.9586H30.5748V60.6836Z" fill="#E2E8F0"/>
<path d="M34.8502 60.6836H30.5752V64.9586H34.8502V60.6836Z" fill="#E2E8F0"/>
<path d="M47.6749 60.6836H43.3999V64.9586H47.6749V60.6836Z" fill="#E2E8F0"/>
<path d="M56.2252 60.6836H51.9502V64.9586H56.2252V60.6836Z" fill="#E2E8F0"/>
<path d="M60.5001 60.6836H56.2251V64.9586H60.5001V60.6836Z" fill="#E2E8F0"/>
<path d="M64.775 60.6836H60.5V64.9586H64.775V60.6836Z" fill="#E2E8F0"/>
<path d="M77.6002 60.6836H73.3252V64.9586H77.6002V60.6836Z" fill="#E2E8F0"/>
<path d="M86.15 60.6836H81.875V64.9586H86.15V60.6836Z" fill="#E2E8F0"/>
<path d="M90.4249 60.6836H86.1499V64.9586H90.4249V60.6836Z" fill="#E2E8F0"/>
<path d="M94.6998 60.6836H90.4248V64.9586H94.6998V60.6836Z" fill="#E2E8F0"/>
<path d="M107.525 60.6836H103.25V64.9586H107.525V60.6836Z" fill="#E2E8F0"/>
<path d="M111.8 60.6836H107.525V64.9586H111.8V60.6836Z" fill="#E2E8F0"/>
<path d="M116.075 60.6836H111.8V64.9586H116.075V60.6836Z" fill="#E2E8F0"/>
<path d="M128.9 60.6836H124.625V64.9586H128.9V60.6836Z" fill="#E2E8F0"/>
<path d="M133.175 60.6836H128.9V64.9586H133.175V60.6836Z" fill="#E2E8F0"/>
<path d="M137.45 60.6836H133.175V64.9586H137.45V60.6836Z" fill="#E2E8F0"/>
<path d="M17.7501 64.957H13.4751V69.232H17.7501V64.957Z" fill="#E2E8F0"/>
<path d="M22.025 64.957H17.75V69.232H22.025V64.957Z" fill="#E2E8F0"/>
<path d="M34.8502 64.957H30.5752V69.232H34.8502V64.957Z" fill="#E2E8F0"/>
<path d="M43.4 64.957H39.125V69.232H43.4V64.957Z" fill="#E2E8F0"/>
<path d="M51.9498 64.957H47.6748V69.232H51.9498V64.957Z" fill="#E2E8F0"/>
<path d="M56.2252 64.957H51.9502V69.232H56.2252V64.957Z" fill="#E2E8F0"/>
<path d="M64.775 64.957H60.5V69.232H64.775V64.957Z" fill="#E2E8F0"/>
<path d="M73.3248 64.957H69.0498V69.232H73.3248V64.957Z" fill="#E2E8F0"/>
<path d="M81.8751 64.957H77.6001V69.232H81.8751V64.957Z" fill="#E2E8F0"/>
<path d="M90.4249 64.957H86.1499V69.232H90.4249V64.957Z" fill="#E2E8F0"/>
<path d="M94.6998 64.957H90.4248V69.232H94.6998V64.957Z" fill="#E2E8F0"/>
<path d="M98.9752 64.957H94.7002V69.232H98.9752V64.957Z" fill="#E2E8F0"/>
<path d="M103.25 64.957H98.9751V69.232H103.25V64.957Z" fill="#E2E8F0"/>
<path d="M107.525 64.957H103.25V69.232H107.525V64.957Z" fill="#E2E8F0"/>
<path d="M111.8 64.957H107.525V69.232H111.8V64.957Z" fill="#E2E8F0"/>
<path d="M116.075 64.957H111.8V69.232H116.075V64.957Z" fill="#E2E8F0"/>
<path d="M120.35 64.957H116.075V69.232H120.35V64.957Z" fill="#E2E8F0"/>
<path d="M124.625 64.957H120.35V69.232H124.625V64.957Z" fill="#E2E8F0"/>
<path d="M133.175 64.957H128.9V69.232H133.175V64.957Z" fill="#E2E8F0"/>
<path d="M137.45 64.957H133.175V69.232H137.45V64.957Z" fill="#E2E8F0"/>
<path d="M17.7501 69.2344H13.4751V73.5094H17.7501V69.2344Z" fill="#E2E8F0"/>
<path d="M26.2999 69.2344H22.0249V73.5094H26.2999V69.2344Z" fill="#E2E8F0"/>
<path d="M30.5748 69.2344H26.2998V73.5094H30.5748V69.2344Z" fill="#E2E8F0"/>
<path d="M39.1251 69.2344H34.8501V73.5094H39.1251V69.2344Z" fill="#E2E8F0"/>
<path d="M47.6749 69.2344H43.3999V73.5094H47.6749V69.2344Z" fill="#E2E8F0"/>
<path d="M56.2252 69.2344H51.9502V73.5094H56.2252V69.2344Z" fill="#E2E8F0"/>
<path d="M60.5001 69.2344H56.2251V73.5094H60.5001V69.2344Z" fill="#E2E8F0"/>
<path d="M69.0499 69.2344H64.7749V73.5094H69.0499V69.2344Z" fill="#E2E8F0"/>
<path d="M77.6002 69.2344H73.3252V73.5094H77.6002V69.2344Z" fill="#E2E8F0"/>
<path d="M81.8751 69.2344H77.6001V73.5094H81.8751V69.2344Z" fill="#E2E8F0"/>
<path d="M94.6998 69.2344H90.4248V73.5094H94.6998V69.2344Z" fill="#E2E8F0"/>
<path d="M116.075 69.2344H111.8V73.5094H116.075V69.2344Z" fill="#E2E8F0"/>
<path d="M120.35 69.2344H116.075V73.5094H120.35V69.2344Z" fill="#E2E8F0"/>
<path d="M128.9 69.2344H124.625V73.5094H128.9V69.2344Z" fill="#E2E8F0"/>
<path d="M133.175 69.2344H128.9V73.5094H133.175V69.2344Z" fill="#E2E8F0"/>
<path d="M22.025 73.5078H17.75V77.7828H22.025V73.5078Z" fill="#E2E8F0"/>
<path d="M30.5748 73.5078H26.2998V77.7828H30.5748V73.5078Z" fill="#E2E8F0"/>
<path d="M43.4 73.5078H39.125V77.7828H43.4V73.5078Z" fill="#E2E8F0"/>
<path d="M47.6749 73.5078H43.3999V77.7828H47.6749V73.5078Z" fill="#E2E8F0"/>
<path d="M51.9498 73.5078H47.6748V77.7828H51.9498V73.5078Z" fill="#E2E8F0"/>
<path d="M73.3248 73.5078H69.0498V77.7828H73.3248V73.5078Z" fill="#E2E8F0"/>
<path d="M77.6002 73.5078H73.3252V77.7828H77.6002V73.5078Z" fill="#E2E8F0"/>
<path d="M81.8751 73.5078H77.6001V77.7828H81.8751V73.5078Z" fill="#E2E8F0"/>
<path d="M98.9752 73.5078H94.7002V77.7828H98.9752V73.5078Z" fill="#E2E8F0"/>
<path d="M103.25 73.5078H98.9751V77.7828H103.25V73.5078Z" fill="#E2E8F0"/>
<path d="M107.525 73.5078H103.25V77.7828H107.525V73.5078Z" fill="#E2E8F0"/>
<path d="M120.35 73.5078H116.075V77.7828H120.35V73.5078Z" fill="#E2E8F0"/>
<path d="M133.175 73.5078H128.9V77.7828H133.175V73.5078Z" fill="#E2E8F0"/>
<path d="M137.45 73.5078H133.175V77.7828H137.45V73.5078Z" fill="#E2E8F0"/>
<path d="M17.7501 77.7852H13.4751V82.0602H17.7501V77.7852Z" fill="#E2E8F0"/>
<path d="M26.2999 77.7852H22.0249V82.0602H26.2999V77.7852Z" fill="#E2E8F0"/>
<path d="M34.8502 77.7852H30.5752V82.0602H34.8502V77.7852Z" fill="#E2E8F0"/>
<path d="M39.1251 77.7852H34.8501V82.0602H39.1251V77.7852Z" fill="#E2E8F0"/>
<path d="M69.0499 77.7852H64.7749V82.0602H69.0499V77.7852Z" fill="#E2E8F0"/>
<path d="M103.25 77.7852H98.9751V82.0602H103.25V77.7852Z" fill="#E2E8F0"/>
<path d="M107.525 77.7852H103.25V82.0602H107.525V77.7852Z" fill="#E2E8F0"/>
<path d="M111.8 77.7852H107.525V82.0602H111.8V77.7852Z" fill="#E2E8F0"/>
<path d="M124.625 77.7852H120.35V82.0602H124.625V77.7852Z" fill="#E2E8F0"/>
<path d="M22.025 82.0586H17.75V86.3336H22.025V82.0586Z" fill="#E2E8F0"/>
<path d="M39.1251 82.0586H34.8501V86.3336H39.1251V82.0586Z" fill="#E2E8F0"/>
<path d="M43.4 82.0586H39.125V86.3336H43.4V82.0586Z" fill="#E2E8F0"/>
<path d="M56.2252 82.0586H51.9502V86.3336H56.2252V82.0586Z" fill="#E2E8F0"/>
<path d="M69.0499 82.0586H64.7749V86.3336H69.0499V82.0586Z" fill="#E2E8F0"/>
<path d="M81.8751 82.0586H77.6001V86.3336H81.8751V82.0586Z" fill="#E2E8F0"/>
<path d="M86.15 82.0586H81.875V86.3336H86.15V82.0586Z" fill="#E2E8F0"/>
<path d="M90.4249 82.0586H86.1499V86.3336H90.4249V82.0586Z" fill="#E2E8F0"/>
<path d="M94.6998 82.0586H90.4248V86.3336H94.6998V82.0586Z" fill="#E2E8F0"/>
<path d="M98.9752 82.0586H94.7002V86.3336H98.9752V82.0586Z" fill="#E2E8F0"/>
<path d="M107.525 82.0586H103.25V86.3336H107.525V82.0586Z" fill="#E2E8F0"/>
<path d="M116.075 82.0586H111.8V86.3336H116.075V82.0586Z" fill="#E2E8F0"/>
<path d="M120.35 82.0586H116.075V86.3336H120.35V82.0586Z" fill="#E2E8F0"/>
<path d="M137.45 82.0586H133.175V86.3336H137.45V82.0586Z" fill="#E2E8F0"/>
<path d="M17.7501 86.332H13.4751V90.607H17.7501V86.332Z" fill="#E2E8F0"/>
<path d="M22.025 86.332H17.75V90.607H22.025V86.332Z" fill="#E2E8F0"/>
<path d="M30.5748 86.332H26.2998V90.607H30.5748V86.332Z" fill="#E2E8F0"/>
<path d="M39.1251 86.332H34.8501V90.607H39.1251V86.332Z" fill="#E2E8F0"/>
<path d="M56.2252 86.332H51.9502V90.607H56.2252V86.332Z" fill="#E2E8F0"/>
<path d="M77.6002 86.332H73.3252V90.607H77.6002V86.332Z" fill="#E2E8F0"/>
<path d="M81.8751 86.332H77.6001V90.607H81.8751V86.332Z" fill="#E2E8F0"/>
<path d="M86.15 86.332H81.875V90.607H86.15V86.332Z" fill="#E2E8F0"/>
<path d="M107.525 86.332H103.25V90.607H107.525V86.332Z" fill="#E2E8F0"/>
<path d="M124.625 86.332H120.35V90.607H124.625V86.332Z" fill="#E2E8F0"/>
<path d="M128.9 86.332H124.625V90.607H128.9V86.332Z" fill="#E2E8F0"/>
<path d="M137.45 86.332H133.175V90.607H137.45V86.332Z" fill="#E2E8F0"/>
<path d="M17.7501 90.6094H13.4751V94.8844H17.7501V90.6094Z" fill="#E2E8F0"/>
<path d="M34.8502 90.6094H30.5752V94.8844H34.8502V90.6094Z" fill="#E2E8F0"/>
<path d="M43.4 90.6094H39.125V94.8844H43.4V90.6094Z" fill="#E2E8F0"/>
<path d="M60.5001 90.6094H56.2251V94.8844H60.5001V90.6094Z" fill="#E2E8F0"/>
<path d="M64.775 90.6094H60.5V94.8844H64.775V90.6094Z" fill="#E2E8F0"/>
<path d="M69.0499 90.6094H64.7749V94.8844H69.0499V90.6094Z" fill="#E2E8F0"/>
<path d="M73.3248 90.6094H69.0498V94.8844H73.3248V90.6094Z" fill="#E2E8F0"/>
<path d="M77.6002 90.6094H73.3252V94.8844H77.6002V90.6094Z" fill="#E2E8F0"/>
<path d="M81.8751 90.6094H77.6001V94.8844H81.8751V90.6094Z" fill="#E2E8F0"/>
<path d="M90.4249 90.6094H86.1499V94.8844H90.4249V90.6094Z" fill="#E2E8F0"/>
<path d="M98.9752 90.6094H94.7002V94.8844H98.9752V90.6094Z" fill="#E2E8F0"/>
<path d="M111.8 90.6094H107.525V94.8844H111.8V90.6094Z" fill="#E2E8F0"/>
<path d="M116.075 90.6094H111.8V94.8844H116.075V90.6094Z" fill="#E2E8F0"/>
<path d="M120.35 90.6094H116.075V94.8844H120.35V90.6094Z" fill="#E2E8F0"/>
<path d="M124.625 90.6094H120.35V94.8844H124.625V90.6094Z" fill="#E2E8F0"/>
<path d="M133.175 90.6094H128.9V94.8844H133.175V90.6094Z" fill="#E2E8F0"/>
<path d="M137.45 90.6094H133.175V94.8844H137.45V90.6094Z" fill="#E2E8F0"/>
<path d="M17.7501 94.8828H13.4751V99.1578H17.7501V94.8828Z" fill="#E2E8F0"/>
<path d="M30.5748 94.8828H26.2998V99.1578H30.5748V94.8828Z" fill="#E2E8F0"/>
<path d="M39.1251 94.8828H34.8501V99.1578H39.1251V94.8828Z" fill="#E2E8F0"/>
<path d="M47.6749 94.8828H43.3999V99.1578H47.6749V94.8828Z" fill="#E2E8F0"/>
<path d="M60.5001 94.8828H56.2251V99.1578H60.5001V94.8828Z" fill="#E2E8F0"/>
<path d="M64.775 94.8828H60.5V99.1578H64.775V94.8828Z" fill="#E2E8F0"/>
<path d="M86.15 94.8828H81.875V99.1578H86.15V94.8828Z" fill="#E2E8F0"/>
<path d="M94.6998 94.8828H90.4248V99.1578H94.6998V94.8828Z" fill="#E2E8F0"/>
<path d="M116.075 94.8828H111.8V99.1578H116.075V94.8828Z" fill="#E2E8F0"/>
<path d="M128.9 94.8828H124.625V99.1578H128.9V94.8828Z" fill="#E2E8F0"/>
<path d="M133.175 94.8828H128.9V99.1578H133.175V94.8828Z" fill="#E2E8F0"/>
<path d="M137.45 94.8828H133.175V99.1578H137.45V94.8828Z" fill="#E2E8F0"/>
<path d="M17.7501 99.1602H13.4751V103.435H17.7501V99.1602Z" fill="#E2E8F0"/>
<path d="M26.2999 99.1602H22.0249V103.435H26.2999V99.1602Z" fill="#E2E8F0"/>
<path d="M43.4 99.1602H39.125V103.435H43.4V99.1602Z" fill="#E2E8F0"/>
<path d="M51.9498 99.1602H47.6748V103.435H51.9498V99.1602Z" fill="#E2E8F0"/>
<path d="M64.775 99.1602H60.5V103.435H64.775V99.1602Z" fill="#E2E8F0"/>
<path d="M69.0499 99.1602H64.7749V103.435H69.0499V99.1602Z" fill="#E2E8F0"/>
<path d="M73.3248 99.1602H69.0498V103.435H73.3248V99.1602Z" fill="#E2E8F0"/>
<path d="M81.8751 99.1602H77.6001V103.435H81.8751V99.1602Z" fill="#E2E8F0"/>
<path d="M86.15 99.1602H81.875V103.435H86.15V99.1602Z" fill="#E2E8F0"/>
<path d="M98.9752 99.1602H94.7002V103.435H98.9752V99.1602Z" fill="#E2E8F0"/>
<path d="M103.25 99.1602H98.9751V103.435H103.25V99.1602Z" fill="#E2E8F0"/>
<path d="M107.525 99.1602H103.25V103.435H107.525V99.1602Z" fill="#E2E8F0"/>
<path d="M111.8 99.1602H107.525V103.435H111.8V99.1602Z" fill="#E2E8F0"/>
<path d="M116.075 99.1602H111.8V103.435H116.075V99.1602Z" fill="#E2E8F0"/>
<path d="M120.35 99.1602H116.075V103.435H120.35V99.1602Z" fill="#E2E8F0"/>
<path d="M133.175 99.1602H128.9V103.435H133.175V99.1602Z" fill="#E2E8F0"/>
<path d="M51.9498 103.434H47.6748V107.709H51.9498V103.434Z" fill="#E2E8F0"/>
<path d="M60.5001 103.434H56.2251V107.709H60.5001V103.434Z" fill="#E2E8F0"/>
<path d="M69.0499 103.434H64.7749V107.709H69.0499V103.434Z" fill="#E2E8F0"/>
<path d="M98.9752 103.434H94.7002V107.709H98.9752V103.434Z" fill="#E2E8F0"/>
<path d="M103.25 103.434H98.9751V107.709H103.25V103.434Z" fill="#E2E8F0"/>
<path d="M120.35 103.434H116.075V107.709H120.35V103.434Z" fill="#E2E8F0"/>
<path d="M128.9 103.434H124.625V107.709H128.9V103.434Z" fill="#E2E8F0"/>
<path d="M133.175 103.434H128.9V107.709H133.175V103.434Z" fill="#E2E8F0"/>
<path d="M51.9498 107.707H47.6748V111.982H51.9498V107.707Z" fill="#E2E8F0"/>
<path d="M56.2252 107.707H51.9502V111.982H56.2252V107.707Z" fill="#E2E8F0"/>
<path d="M60.5001 107.707H56.2251V111.982H60.5001V107.707Z" fill="#E2E8F0"/>
<path d="M69.0499 107.707H64.7749V111.982H69.0499V107.707Z" fill="#E2E8F0"/>
<path d="M73.3248 107.707H69.0498V111.982H73.3248V107.707Z" fill="#E2E8F0"/>
<path d="M77.6002 107.707H73.3252V111.982H77.6002V107.707Z" fill="#E2E8F0"/>
<path d="M81.8751 107.707H77.6001V111.982H81.8751V107.707Z" fill="#E2E8F0"/>
<path d="M90.4249 107.707H86.1499V111.982H90.4249V107.707Z" fill="#E2E8F0"/>
<path d="M103.25 107.707H98.9751V111.982H103.25V107.707Z" fill="#E2E8F0"/>
<path d="M111.8 107.707H107.525V111.982H111.8V107.707Z" fill="#E2E8F0"/>
<path d="M120.35 107.707H116.075V111.982H120.35V107.707Z" fill="#E2E8F0"/>
<path d="M128.9 107.707H124.625V111.982H128.9V107.707Z" fill="#E2E8F0"/>
<path d="M56.2252 111.984H51.9502V116.259H56.2252V111.984Z" fill="#E2E8F0"/>
<path d="M60.5001 111.984H56.2251V116.259H60.5001V111.984Z" fill="#E2E8F0"/>
<path d="M69.0499 111.984H64.7749V116.259H69.0499V111.984Z" fill="#E2E8F0"/>
<path d="M73.3248 111.984H69.0498V116.259H73.3248V111.984Z" fill="#E2E8F0"/>
<path d="M86.15 111.984H81.875V116.259H86.15V111.984Z" fill="#E2E8F0"/>
<path d="M103.25 111.984H98.9751V116.259H103.25V111.984Z" fill="#E2E8F0"/>
<path d="M120.35 111.984H116.075V116.259H120.35V111.984Z" fill="#E2E8F0"/>
<path d="M124.625 111.984H120.35V116.259H124.625V111.984Z" fill="#E2E8F0"/>
<path d="M128.9 111.984H124.625V116.259H128.9V111.984Z" fill="#E2E8F0"/>
<path d="M133.175 111.984H128.9V116.259H133.175V111.984Z" fill="#E2E8F0"/>
<path d="M137.45 111.984H133.175V116.259H137.45V111.984Z" fill="#E2E8F0"/>
<path d="M51.9498 116.258H47.6748V120.533H51.9498V116.258Z" fill="#E2E8F0"/>
<path d="M60.5001 116.258H56.2251V120.533H60.5001V116.258Z" fill="#E2E8F0"/>
<path d="M69.0499 116.258H64.7749V120.533H69.0499V116.258Z" fill="#E2E8F0"/>
<path d="M77.6002 116.258H73.3252V120.533H77.6002V116.258Z" fill="#E2E8F0"/>
<path d="M81.8751 116.258H77.6001V120.533H81.8751V116.258Z" fill="#E2E8F0"/>
<path d="M86.15 116.258H81.875V120.533H86.15V116.258Z" fill="#E2E8F0"/>
<path d="M90.4249 116.258H86.1499V120.533H90.4249V116.258Z" fill="#E2E8F0"/>
<path d="M94.6998 116.258H90.4248V120.533H94.6998V116.258Z" fill="#E2E8F0"/>
<path d="M98.9752 116.258H94.7002V120.533H98.9752V116.258Z" fill="#E2E8F0"/>
<path d="M103.25 116.258H98.9751V120.533H103.25V116.258Z" fill="#E2E8F0"/>
<path d="M107.525 116.258H103.25V120.533H107.525V116.258Z" fill="#E2E8F0"/>
<path d="M111.8 116.258H107.525V120.533H111.8V116.258Z" fill="#E2E8F0"/>
<path d="M116.075 116.258H111.8V120.533H116.075V116.258Z" fill="#E2E8F0"/>
<path d="M120.35 116.258H116.075V120.533H120.35V116.258Z" fill="#E2E8F0"/>
<path d="M128.9 116.258H124.625V120.533H128.9V116.258Z" fill="#E2E8F0"/>
<path d="M133.175 116.258H128.9V120.533H133.175V116.258Z" fill="#E2E8F0"/>
<path d="M137.45 116.258H133.175V120.533H137.45V116.258Z" fill="#E2E8F0"/>
<path d="M51.9498 120.535H47.6748V124.81H51.9498V120.535Z" fill="#E2E8F0"/>
<path d="M81.8751 120.535H77.6001V124.81H81.8751V120.535Z" fill="#E2E8F0"/>
<path d="M94.6998 120.535H90.4248V124.81H94.6998V120.535Z" fill="#E2E8F0"/>
<path d="M98.9752 120.535H94.7002V124.81H98.9752V120.535Z" fill="#E2E8F0"/>
<path d="M107.525 120.535H103.25V124.81H107.525V120.535Z" fill="#E2E8F0"/>
<path d="M111.8 120.535H107.525V124.81H111.8V120.535Z" fill="#E2E8F0"/>
<path d="M116.075 120.535H111.8V124.81H116.075V120.535Z" fill="#E2E8F0"/>
<path d="M124.625 120.535H120.35V124.81H124.625V120.535Z" fill="#E2E8F0"/>
<path d="M128.9 120.535H124.625V124.81H128.9V120.535Z" fill="#E2E8F0"/>
<path d="M51.9498 124.809H47.6748V129.084H51.9498V124.809Z" fill="#E2E8F0"/>
<path d="M56.2252 124.809H51.9502V129.084H56.2252V124.809Z" fill="#E2E8F0"/>
<path d="M60.5001 124.809H56.2251V129.084H60.5001V124.809Z" fill="#E2E8F0"/>
<path d="M69.0499 124.809H64.7749V129.084H69.0499V124.809Z" fill="#E2E8F0"/>
<path d="M73.3248 124.809H69.0498V129.084H73.3248V124.809Z" fill="#E2E8F0"/>
<path d="M77.6002 124.809H73.3252V129.084H77.6002V124.809Z" fill="#E2E8F0"/>
<path d="M90.4249 124.809H86.1499V129.084H90.4249V124.809Z" fill="#E2E8F0"/>
<path d="M98.9752 124.809H94.7002V129.084H98.9752V124.809Z" fill="#E2E8F0"/>
<path d="M103.25 124.809H98.9751V129.084H103.25V124.809Z" fill="#E2E8F0"/>
<path d="M116.075 124.809H111.8V129.084H116.075V124.809Z" fill="#E2E8F0"/>
<path d="M124.625 124.809H120.35V129.084H124.625V124.809Z" fill="#E2E8F0"/>
<path d="M133.175 124.809H128.9V129.084H133.175V124.809Z" fill="#E2E8F0"/>
<path d="M51.9498 129.082H47.6748V133.357H51.9498V129.082Z" fill="#E2E8F0"/>
<path d="M64.775 129.082H60.5V133.357H64.775V129.082Z" fill="#E2E8F0"/>
<path d="M86.15 129.082H81.875V133.357H86.15V129.082Z" fill="#E2E8F0"/>
<path d="M98.9752 129.082H94.7002V133.357H98.9752V129.082Z" fill="#E2E8F0"/>
<path d="M107.525 129.082H103.25V133.357H107.525V129.082Z" fill="#E2E8F0"/>
<path d="M111.8 129.082H107.525V133.357H111.8V129.082Z" fill="#E2E8F0"/>
<path d="M128.9 129.082H124.625V133.357H128.9V129.082Z" fill="#E2E8F0"/>
<path d="M137.45 129.082H133.175V133.357H137.45V129.082Z" fill="#E2E8F0"/>
<path d="M51.9498 133.359H47.6748V137.634H51.9498V133.359Z" fill="#E2E8F0"/>
<path d="M77.6002 133.359H73.3252V137.634H77.6002V133.359Z" fill="#E2E8F0"/>
<path d="M81.8751 133.359H77.6001V137.634H81.8751V133.359Z" fill="#E2E8F0"/>
<path d="M90.4249 133.359H86.1499V137.634H90.4249V133.359Z" fill="#E2E8F0"/>
<path d="M98.9752 133.359H94.7002V137.634H98.9752V133.359Z" fill="#E2E8F0"/>
<path d="M107.525 133.359H103.25V137.634H107.525V133.359Z" fill="#E2E8F0"/>
<g clip-path="url(#clip2_10452_42934)">
<path d="M39.1681 13.6602H34.893H30.6181H30.618H26.3431H22.0681H17.7931H13.5181V17.9351V22.2101V26.4851V30.7601V35.0351V39.3101V43.5851H17.7931H22.0681H26.3431H30.618H30.6181H34.893H39.1681H43.4431V39.3101V35.0351V30.7601V26.4851V22.2101V17.9351V13.6602H39.1681ZM39.1681 22.2101V26.4851V30.7601V35.0351V39.3101H34.893H30.6181H30.618H26.3431H22.0681H17.7931V35.0351V30.7601V26.4851V22.2101V17.9351H22.0681H26.3431H30.618H30.6181H34.893H39.1681V22.2101Z" fill="#E2E8F0"/>
</g>
<path d="M30.5754 22.2109H30.5753H26.3004H22.0254V26.4859V30.761V35.0359H26.3004H30.5753H30.5754H34.8503V30.761V26.4859V22.2109H30.5754Z" fill="#E2E8F0"/>
<g clip-path="url(#clip3_10452_42934)">
<path d="M133.218 13.6602H128.943H124.668H124.668H120.393H116.118H111.843H107.568V17.9351V22.2101V26.4851V30.7601V35.0351V39.3101V43.5851H111.843H116.118H120.393H124.668H124.668H128.943H133.218H137.493V39.3101V35.0351V30.7601V26.4851V22.2101V17.9351V13.6602H133.218ZM133.218 22.2101V26.4851V30.7601V35.0351V39.3101H128.943H124.668H124.668H120.393H116.118H111.843V35.0351V30.7601V26.4851V22.2101V17.9351H116.118H120.393H124.668H124.668H128.943H133.218V22.2101Z" fill="#E2E8F0"/>
</g>
<path d="M124.625 22.2109H124.625H120.35H116.075V26.4859V30.761V35.0359H120.35H124.625H124.625H128.9V30.761V26.4859V22.2109H124.625Z" fill="#E2E8F0"/>
<g clip-path="url(#clip4_10452_42934)">
<path d="M39.1681 107.707H34.893H30.6181H30.618H26.3431H22.0681H17.7931H13.5181V111.982V116.257V120.532V124.807V129.082V133.357V137.632H17.7931H22.0681H26.3431H30.618H30.6181H34.893H39.1681H43.4431V133.357V129.082V124.807V120.532V116.257V111.982V107.707H39.1681ZM39.1681 116.257V120.532V124.807V129.082V133.357H34.893H30.6181H30.618H26.3431H22.0681H17.7931V129.082V124.807V120.532V116.257V111.982H22.0681H26.3431H30.618H30.6181H34.893H39.1681V116.257Z" fill="#E2E8F0"/>
</g>
<path d="M30.5754 116.258H30.5753H26.3004H22.0254V120.533V124.808V129.083H26.3004H30.5753H30.5754H34.8503V124.808V120.533V116.258H30.5754Z" fill="#E2E8F0"/>
</g>
</g>
<defs>
<clipPath id="clip0_10452_42934">
<rect width="150" height="150" fill="white" transform="translate(0.5 0.683594)"/>
</clipPath>
<clipPath id="clip1_10452_42934">
<rect width="150" height="150" fill="white" transform="translate(0.5 0.683594)"/>
</clipPath>
<clipPath id="clip2_10452_42934">
<rect width="29.925" height="29.925" fill="white" transform="translate(13.4751 13.6602)"/>
</clipPath>
<clipPath id="clip3_10452_42934">
<rect width="29.925" height="29.925" fill="white" transform="translate(107.525 13.6602)"/>
</clipPath>
<clipPath id="clip4_10452_42934">
<rect width="29.925" height="29.925" fill="white" transform="translate(13.4751 107.707)"/>
</clipPath>
</defs>
</svg>
