<svg xmlns="http://www.w3.org/2000/svg" width="20" height="20" viewBox="0 0 20 20" fill="none">
  <path d="M6.66659 5.83333V12.5C6.66659 13.4205 7.41278 14.1667 8.33325 14.1667H13.3333M6.66659 5.83333V4.16667C6.66659 3.24619 7.41278 2.5 8.33325 2.5H12.1547C12.3758 2.5 12.5877 2.5878 12.744 2.74408L16.4225 6.42259C16.5788 6.57887 16.6666 6.79083 16.6666 7.01184V12.5C16.6666 13.4205 15.9204 14.1667 14.9999 14.1667H13.3333M6.66659 5.83333H5.33325C4.22868 5.83333 3.33325 6.72876 3.33325 7.83333V15.8333C3.33325 16.7538 4.07944 17.5 4.99992 17.5H11.3333C12.4378 17.5 13.3333 16.6046 13.3333 15.5V14.1667" stroke="#1E293B" stroke-width="2" stroke-linecap="round" stroke-linejoin="round"/>
</svg>