                  <svg
                    xmlns="http://www.w3.org/2000/svg"
                    width="33"
                    height="32"
                    viewBox="0 0 33 32"
                    fill="none"
                  >
                    <path
                      d="M23.2917 26.6673H29.9584V24.0006C29.9584 21.7915 28.1676 20.0007 25.9584 20.0007C24.6843 20.0007 23.5493 20.5964 22.8168 21.5245M23.2917 26.6673H9.95841M23.2917 26.6673V24.0006C23.2917 23.1257 23.1232 22.29 22.8168 21.5245M9.95841 26.6673H3.29175V24.0006C3.29175 21.7915 5.08261 20.0007 7.29175 20.0007C8.56589 20.0007 9.70089 20.5964 10.4334 21.5245M9.95841 26.6673V24.0006C9.95841 23.1257 10.127 22.29 10.4334 21.5245M10.4334 21.5245C11.4164 19.0687 13.8182 17.334 16.6251 17.334C19.432 17.334 21.8337 19.0687 22.8168 21.5245M20.6251 9.33398C20.6251 11.5431 18.8342 13.334 16.6251 13.334C14.4159 13.334 12.6251 11.5431 12.6251 9.33398C12.6251 7.12485 14.4159 5.33398 16.6251 5.33398C18.8342 5.33398 20.6251 7.12485 20.6251 9.33398ZM28.6251 13.334C28.6251 14.8067 27.4312 16.0007 25.9584 16.0007C24.4857 16.0007 23.2917 14.8067 23.2917 13.334C23.2917 11.8612 24.4857 10.6673 25.9584 10.6673C27.4312 10.6673 28.6251 11.8612 28.6251 13.334ZM9.95841 13.334C9.95841 14.8067 8.76451 16.0007 7.29175 16.0007C5.81899 16.0007 4.62508 14.8067 4.62508 13.334C4.62508 11.8612 5.81899 10.6673 7.29175 10.6673C8.76451 10.6673 9.95841 11.8612 9.95841 13.334Z"
                      stroke="#8080FF"
                      stroke-width="2"
                      stroke-linecap="round"
                      stroke-linejoin="round"
                    />
                  </svg>
