                  <svg
                    xmlns="http://www.w3.org/2000/svg"
                    width="24"
                    height="24"
                    viewBox="0 0 24 24"
                    fill="none"
                  >
                    <path
                      d="M17.175 0H3.75C2.925 0 2.25 0.675 2.25 1.5V22.5C2.25 23.325 2.925 24 3.75 24H20.25C21.075 24 21.75 23.325 21.75 22.5V4.1625L17.175 0ZM17.625 2.4375L19.05 3.75H17.625V2.4375ZM3.75 22.5V1.5H16.125V5.25H20.25V22.5H3.75Z"
                      fill="#8080FF"
                    />
                    <path
                      d="M8.06255 13.3129C8.21255 13.3129 8.40005 13.2754 8.55005 13.2004C8.92505 13.0504 9.52505 12.6004 10.6125 10.4629C10.95 10.3504 11.3625 10.2754 11.775 10.1629C12.3 10.0504 12.825 9.97539 13.3125 9.93789C14.325 10.9879 14.7375 11.2504 15.3 11.4004C15.4875 11.4379 15.6375 11.4754 15.7875 11.4754C16.5 11.4754 16.875 11.0254 16.95 10.7629C17.1 10.4254 17.1375 9.71289 16.425 9.26289C15.9375 8.96289 15.075 8.77539 14.1 8.77539C13.9875 8.77539 13.875 8.77539 13.7625 8.77539C13.65 8.62539 13.5 8.47539 13.35 8.32539C12.8625 7.80039 12.4875 7.35039 12.1875 6.90039C12.6 5.77539 12.675 5.21289 12.6375 4.72539C12.6 3.41289 11.775 3.15039 11.4375 3.15039C10.9875 3.15039 10.275 3.52539 10.2375 4.53789C10.2 5.36289 10.3125 6.07539 10.875 7.05039C10.725 7.42539 10.5375 7.83789 10.35 8.28789C10.1625 8.73789 9.97505 9.11289 9.78755 9.48789C8.32505 9.97539 7.76255 10.5754 7.46255 10.9129C6.75005 11.6629 6.86255 12.3379 7.05005 12.6754C7.23755 12.9754 7.53755 13.3129 8.06255 13.3129ZM15.8625 10.2379C15.9375 10.2754 15.9375 10.3129 15.9375 10.3504C15.9 10.3879 15.75 10.3879 15.6 10.3504C15.45 10.3129 15.3 10.2754 14.9625 9.97539C15.4875 10.0504 15.75 10.2004 15.8625 10.2379ZM11.4 4.61289C11.4 4.53789 11.4 4.42539 11.4375 4.38789C11.475 4.46289 11.5125 4.61289 11.55 4.83789C11.55 4.98789 11.55 5.17539 11.475 5.47539C11.4 5.17539 11.4 4.87539 11.4 4.61289ZM11.2875 9.07539C11.325 9.00039 11.3625 8.88789 11.4 8.81289C11.475 8.62539 11.5875 8.43789 11.6625 8.25039V8.28789L11.7 8.21289C11.8875 8.43789 12.075 8.66289 12.3 8.92539H12.2625L12.3 8.96289C12.0375 9.00039 11.775 9.03789 11.5125 9.11289C11.4 9.11289 11.325 9.15039 11.25 9.18789L11.2875 9.07539ZM8.28755 11.7379C8.40005 11.6254 8.58755 11.4379 8.88755 11.2129C8.36255 12.0379 8.13755 12.1504 8.10005 12.1504H8.06255L7.98755 12.0379C8.02505 12.0754 8.17505 11.8879 8.28755 11.7379Z"
                      fill="#8080FF"
                    />
                    <path
                      d="M9.5624 16.05C9.4124 15.9375 9.2249 15.8625 9.0374 15.825C8.8499 15.7875 8.6249 15.75 8.3999 15.75H6.7124V20.2875H7.6874V18.4875H8.3999C8.9249 18.4875 9.3374 18.375 9.5999 18.15C9.8999 17.925 10.0499 17.5875 10.0499 17.1375C10.0499 16.875 10.0124 16.6875 9.9374 16.5C9.8624 16.3125 9.7124 16.1625 9.5624 16.05ZM8.9999 17.4C8.9624 17.475 8.8874 17.5125 8.8499 17.55C8.7749 17.5875 8.6999 17.625 8.6249 17.625C8.5499 17.625 8.4374 17.6625 8.3624 17.6625H7.7249V16.575H8.3624C8.6249 16.575 8.8124 16.6125 8.9249 16.6875C8.9624 16.725 9.0374 16.8 9.0374 16.8375C9.0749 16.9125 9.0749 16.9875 9.0749 17.1C9.0749 17.2125 9.0374 17.3625 8.9999 17.4Z"
                      fill="#8080FF"
                    />
                    <path
                      d="M13.6126 16.3875C13.4251 16.2 13.2376 16.05 12.9751 15.9375C12.7126 15.7875 12.3751 15.75 12.0376 15.75H10.5376V20.2875H12.0376C12.7126 20.2875 13.2376 20.1 13.5751 19.6875C13.7626 19.5 13.8751 19.2375 13.9876 18.975C14.0626 18.7125 14.1001 18.375 14.1001 18C14.1001 17.6625 14.0626 17.325 13.9876 17.0625C13.9126 16.8 13.8001 16.575 13.6126 16.3875ZM13.0876 18.5625C13.0501 18.75 13.0126 18.9 12.9001 19.0125C12.8251 19.1625 12.7126 19.2375 12.5626 19.3125C12.4126 19.3875 12.2251 19.425 12.0001 19.425H11.5126V16.5375H12.0376C12.4126 16.5375 12.7126 16.65 12.8626 16.9125C12.9376 17.025 13.0126 17.175 13.0501 17.3625C13.0876 17.55 13.1251 17.7375 13.1251 18C13.1251 18.225 13.1251 18.4125 13.0876 18.5625Z"
                      fill="#8080FF"
                    />
                    <path
                      d="M17.5875 16.575V15.75H14.625V20.2875H15.6V18.3375H17.1L17.0625 17.5125H15.6V16.575H17.5875Z"
                      fill="#8080FF"
                    />
                  </svg>
