<svg width="84" height="84" viewBox="0 0 84 84" fill="none" xmlns="http://www.w3.org/2000/svg">
<path d="M30.3189 57.4737C32.0839 56.6336 33.6905 55.4948 35.0679 54.1077C34.9916 58.0024 36.0339 61.8372 38.071 65.1575C40.1082 68.4778 43.0548 71.1443 46.5614 72.8407C50.068 74.5371 53.9876 75.1923 57.8553 74.7286C61.723 74.2649 65.3767 72.7018 68.3829 70.2246C71.3892 67.7474 73.622 64.46 74.8166 60.7523C76.0112 57.0446 76.1175 53.0721 75.1228 49.3058C74.1281 45.5395 72.0742 42.1375 69.2047 39.5031C66.3351 36.8687 62.7703 35.1125 58.9329 34.4427C60.4033 32.2037 61.324 29.649 61.6201 26.9867C61.9161 24.3244 61.5791 21.6298 60.6365 19.1224C59.6939 16.6151 58.1723 14.3658 56.1957 12.5579C54.2191 10.7499 51.8435 9.43448 49.2622 8.71863C46.6809 8.00278 43.967 7.90679 41.3416 8.43847C38.7162 8.97016 36.2535 10.1145 34.1541 11.7782C32.0548 13.442 30.3781 15.5781 29.2607 18.0126C28.1432 20.4471 27.6167 23.1112 27.7239 25.7877C25.0785 25.0234 22.2871 24.913 19.5896 25.4659C16.8921 26.0188 14.3692 27.2186 12.2379 28.962C10.1065 30.7054 8.43045 32.9404 7.35376 35.4748C6.27708 38.0091 5.83198 40.7671 6.05674 43.5115C6.2815 46.2559 7.16939 48.9046 8.64408 51.23C10.1188 53.5555 12.1361 55.488 14.5227 56.8614C16.9094 58.2348 19.5938 59.0081 22.3453 59.1148C25.0969 59.2214 27.8331 58.6583 30.3189 57.4737Z" fill="#DFE4FF"/>
<path d="M18.4499 55.6278H13.1969C12.7639 55.6281 12.335 55.543 11.9349 55.3774C11.5347 55.2118 11.1712 54.969 10.8649 54.6628C10.5587 54.3566 10.3159 53.993 10.1503 53.5929C9.98472 53.1927 9.89963 52.7639 9.8999 52.3308V17.4888C9.89994 17.056 9.98524 16.6274 10.151 16.2276C10.3167 15.8278 10.5596 15.4645 10.8658 15.1586C11.172 14.8527 11.5355 14.6102 11.9354 14.4448C12.3354 14.2794 12.7641 14.1945 13.1969 14.1948H70.8779C71.7514 14.1952 72.589 14.5424 73.2066 15.1601C73.8243 15.7777 74.1715 16.6153 74.1719 17.4888V52.3308C74.1721 53.2048 73.8252 54.0431 73.2075 54.6613C72.5898 55.2796 71.7519 55.6272 70.8779 55.6278H44.2769" fill="white"/>
<path d="M18.4499 55.6278H13.1969C12.7639 55.6281 12.335 55.543 11.9349 55.3774C11.5347 55.2118 11.1712 54.969 10.8649 54.6628C10.5587 54.3566 10.3159 53.993 10.1503 53.5929C9.98472 53.1927 9.89963 52.7639 9.8999 52.3308V17.4888C9.89994 17.056 9.98524 16.6274 10.151 16.2276C10.3167 15.8278 10.5596 15.4645 10.8658 15.1586C11.172 14.8527 11.5355 14.6102 11.9354 14.4448C12.3354 14.2794 12.7641 14.1945 13.1969 14.1948H70.8779C71.7514 14.1952 72.589 14.5424 73.2066 15.1601C73.8243 15.7777 74.1715 16.6153 74.1719 17.4888V52.3308C74.1721 53.2048 73.8252 54.0431 73.2075 54.6613C72.5898 55.2796 71.7519 55.6272 70.8779 55.6278H44.2769" stroke="#000062" stroke-miterlimit="10"/>
<path d="M44.8368 35.9302H39.2368V55.4377H44.8368V35.9302Z" fill="white"/>
<path d="M39.7955 55.6277H39.6816H39.6636H22.8726" stroke="#000062" stroke-miterlimit="10"/>
<path d="M9.8999 22.5544H74.1722" stroke="#000062" stroke-miterlimit="10"/>
<path d="M16.3338 19.7591C17.0407 19.7591 17.6138 19.186 17.6138 18.479C17.6138 17.7721 17.0407 17.199 16.3338 17.199C15.6268 17.199 15.0537 17.7721 15.0537 18.479C15.0537 19.186 15.6268 19.7591 16.3338 19.7591Z" fill="#000062"/>
<path d="M23.2831 19.7591C23.99 19.7591 24.5631 19.186 24.5631 18.479C24.5631 17.7721 23.99 17.199 23.2831 17.199C22.5761 17.199 22.0029 17.7721 22.0029 18.479C22.0029 19.186 22.5761 19.7591 23.2831 19.7591Z" fill="#000062"/>
<path d="M30.2322 19.7591C30.9392 19.7591 31.5123 19.186 31.5123 18.479C31.5123 17.7721 30.9392 17.199 30.2322 17.199C29.5252 17.199 28.9521 17.7721 28.9521 18.479C28.9521 19.186 29.5252 19.7591 30.2322 19.7591Z" fill="#000062"/>
<path d="M42.0378 50.5014C48.7055 50.5014 54.1107 45.0961 54.1107 38.4284C54.1107 31.7607 48.7055 26.3555 42.0378 26.3555C35.3701 26.3555 29.9648 31.7607 29.9648 38.4284C29.9648 45.0961 35.3701 50.5014 42.0378 50.5014Z" fill="white" stroke="#000062" stroke-miterlimit="10"/>
<path d="M39.6821 55.6994V55.6271V50.2727" stroke="#000062" stroke-miterlimit="10"/>
<path d="M44.3906 50.2727V55.6271V55.6994" stroke="#000062" stroke-miterlimit="10"/>
<path d="M42.2238 55.0037H41.8503C39.5563 55.0037 37.6968 56.8633 37.6968 59.1572V65.8906C37.6968 68.1846 39.5563 70.0442 41.8503 70.0442H42.2238C44.5177 70.0442 46.3774 68.1846 46.3774 65.8906V59.1572C46.3774 56.8633 44.5177 55.0037 42.2238 55.0037Z" fill="white" stroke="#000062" stroke-miterlimit="10"/>
<path d="M42.0376 31.6458C43.5854 31.6458 45.0699 32.2606 46.1644 33.3551C47.2589 34.4496 47.8738 35.9341 47.8738 37.4819V37.9458" stroke="#000062" stroke-miterlimit="10"/>
<path d="M20.6779 56.3108C21.0553 56.3108 21.3611 56.0049 21.3611 55.6276C21.3611 55.2502 21.0553 54.9443 20.6779 54.9443C20.3006 54.9443 19.9946 55.2502 19.9946 55.6276C19.9946 56.0049 20.3006 56.3108 20.6779 56.3108Z" fill="#000062"/>
<path d="M42.0378 50.5014C48.7055 50.5014 54.1107 45.0961 54.1107 38.4284C54.1107 31.7607 48.7055 26.3555 42.0378 26.3555C35.3701 26.3555 29.9648 31.7607 29.9648 38.4284C29.9648 45.0961 35.3701 50.5014 42.0378 50.5014Z" fill="white" stroke="#7F92FF" stroke-miterlimit="10"/>
<path d="M42.0376 31.646C43.5854 31.646 45.0699 32.2609 46.1644 33.3554C47.2589 34.4499 47.8738 35.9343 47.8738 37.4821V37.946" stroke="#7F92FF" stroke-miterlimit="10"/>
<path d="M19.2056 68.2137H18.5006V67.5057C18.5006 67.275 18.409 67.0537 18.2458 66.8906C18.0826 66.7274 17.8614 66.6357 17.6306 66.6357C17.3999 66.6357 17.1786 66.7274 17.0154 66.8906C16.8523 67.0537 16.7606 67.275 16.7606 67.5057V68.2137H16.0526C15.8219 68.2137 15.6006 68.3054 15.4374 68.4686C15.2743 68.6317 15.1826 68.853 15.1826 69.0837C15.1826 69.3145 15.2743 69.5358 15.4374 69.6989C15.6006 69.8621 15.8219 69.9537 16.0526 69.9537H16.7606V70.6617C16.7606 70.8925 16.8523 71.1138 17.0154 71.2769C17.1786 71.4401 17.3999 71.5317 17.6306 71.5317C17.8614 71.5317 18.0826 71.4401 18.2458 71.2769C18.409 71.1138 18.5006 70.8925 18.5006 70.6617V69.9537H19.2086C19.4394 69.9537 19.6606 69.8621 19.8238 69.6989C19.987 69.5358 20.0786 69.3145 20.0786 69.0837C20.0786 68.853 19.987 68.6317 19.8238 68.4686C19.6606 68.3054 19.4394 68.2137 19.2086 68.2137H19.2056Z" fill="#5E1AD5"/>
<path d="M67.5553 6.92949H66.8473V6.22449C66.8473 5.99375 66.7556 5.77247 66.5925 5.60931C66.4293 5.44615 66.208 5.35449 65.9773 5.35449C65.7466 5.35449 65.5253 5.44615 65.3621 5.60931C65.199 5.77247 65.1073 5.99375 65.1073 6.22449V6.92949H64.3993C64.1686 6.92949 63.9473 7.02115 63.7841 7.18431C63.621 7.34747 63.5293 7.56875 63.5293 7.79949C63.5293 8.03023 63.621 8.25152 63.7841 8.41467C63.9473 8.57783 64.1686 8.66949 64.3993 8.66949H65.1073V9.37749C65.1073 9.60823 65.199 9.82952 65.3621 9.99268C65.5253 10.1558 65.7466 10.2475 65.9773 10.2475C66.208 10.2475 66.4293 10.1558 66.5925 9.99268C66.7556 9.82952 66.8473 9.60823 66.8473 9.37749V8.67249H67.5553C67.786 8.67249 68.0073 8.58083 68.1705 8.41768C68.3336 8.25452 68.4253 8.03323 68.4253 7.80249C68.4253 7.57175 68.3336 7.35047 68.1705 7.18731C68.0073 7.02415 67.786 6.93249 67.5553 6.93249V6.92949Z" fill="#5E1AD5"/>
<path d="M61.6406 66.6779H60.9176V65.9699C60.9176 65.7391 60.8259 65.5178 60.6628 65.3547C60.4996 65.1915 60.2784 65.0999 60.0476 65.0999C59.8169 65.0999 59.5956 65.1915 59.4324 65.3547C59.2693 65.5178 59.1776 65.7391 59.1776 65.9699V66.6779H58.4696C58.2389 66.6779 58.0176 66.7695 57.8544 66.9327C57.6913 67.0958 57.5996 67.3171 57.5996 67.5479C57.5996 67.7786 57.6913 67.9999 57.8544 68.163C58.0176 68.3262 58.2389 68.4179 58.4696 68.4179H59.1776V69.1259C59.1776 69.3566 59.2693 69.5779 59.4324 69.741C59.5956 69.9042 59.8169 69.9959 60.0476 69.9959C60.2784 69.9959 60.4996 69.9042 60.6628 69.741C60.8259 69.5779 60.9176 69.3566 60.9176 69.1259V68.4149H61.6256C61.8563 68.4149 62.0776 68.3232 62.2408 68.16C62.404 67.9969 62.4956 67.7756 62.4956 67.5449C62.4956 67.3141 62.404 67.0928 62.2408 66.9297C62.0776 66.7665 61.8563 66.6749 61.6256 66.6749L61.6406 66.6779Z" fill="#5E1AD5"/>
</svg>
