<svg width="33" height="32" viewBox="0 0 33 32" fill="none" xmlns="http://www.w3.org/2000/svg">
<path d="M23.8285 0H5.92847C4.82847 0 3.92847 0.9 3.92847 2V30C3.92847 31.1 4.82847 32 5.92847 32H27.9285C29.0285 32 29.9285 31.1 29.9285 30V5.55L23.8285 0ZM24.4285 3.25L26.3285 5H24.4285V3.25ZM5.92847 30V2H22.4285V7H27.9285V30H5.92847Z" fill="#8080FF"/>
<g clip-path="url(#clip0_16339_111687)">
<path d="M13.7744 16.9273C13.3642 16.9265 12.9647 16.7972 12.6318 16.5575C12.299 16.3178 12.0497 15.9798 11.9191 15.591L11.9007 15.5308C11.842 15.3472 11.8115 15.1557 11.8101 14.963V11.3917L10.5393 15.6335C10.4616 15.9353 10.5054 16.2556 10.6613 16.5255C10.8173 16.7953 11.0729 16.9932 11.3732 17.0766L19.4729 19.2457C19.574 19.2718 19.6751 19.2844 19.7746 19.2844C20.2963 19.2844 20.773 18.9382 20.9066 18.428L21.3785 16.9273H13.7744ZM15.2149 11.4273C15.7926 11.4273 16.2625 10.9574 16.2625 10.3797C16.2625 9.80189 15.7926 9.33203 15.2149 9.33203C14.6371 9.33203 14.1672 9.80189 14.1672 10.3797C14.1672 10.9574 14.6371 11.4273 15.2149 11.4273Z" fill="#8080FF"/>
<path d="M21.7626 7.76172H13.9055C13.5583 7.76213 13.2255 7.90024 12.98 8.14573C12.7345 8.39122 12.5964 8.72406 12.5959 9.07124V14.8331C12.5959 15.555 13.1837 16.1427 13.9055 16.1427H21.7626C22.4844 16.1427 23.0721 15.555 23.0721 14.8331V9.07124C23.0721 8.34943 22.4844 7.76172 21.7626 7.76172ZM13.9055 8.80934H21.7626C21.8321 8.80934 21.8987 8.83693 21.9478 8.88605C21.9969 8.93516 22.0245 9.00178 22.0245 9.07124V12.7898L20.3698 10.859C20.2823 10.7585 20.1744 10.6778 20.0533 10.6222C19.9322 10.5667 19.8006 10.5376 19.6674 10.5369C19.5337 10.5376 19.4018 10.5675 19.2809 10.6246C19.16 10.6817 19.053 10.7646 18.9676 10.8674L17.0221 13.2025L16.3883 12.5703C16.216 12.3982 15.9824 12.3015 15.7388 12.3015C15.4952 12.3015 15.2616 12.3982 15.0893 12.5703L13.6436 14.0155V9.07124C13.6436 9.00178 13.6712 8.93516 13.7203 8.88605C13.7694 8.83693 13.836 8.80934 13.9055 8.80934Z" fill="#8080FF"/>
</g>
<path d="M10.7094 22.1497V27.4297H9.07736V22.1497H10.7094ZM18.1587 22.1497V27.4297H16.7187V25.3177L16.7507 23.6137H16.7347L15.5747 27.4297H14.2627L13.1187 23.6137H13.0947L13.1267 25.3177V27.4297H11.6867V22.1497H13.9907L14.7027 24.6537L14.9667 25.7017H14.9827L15.2467 24.6537L15.9587 22.1497H18.1587ZM21.3322 27.5097C20.8682 27.5097 20.4549 27.4084 20.0922 27.2057C19.7296 27.003 19.4442 26.699 19.2362 26.2937C19.0282 25.8884 18.9242 25.3924 18.9242 24.8057C18.9242 24.2297 19.0309 23.739 19.2442 23.3337C19.4629 22.923 19.7749 22.611 20.1802 22.3977C20.5856 22.179 21.0656 22.0697 21.6202 22.0697C22.2442 22.0697 22.7456 22.1817 23.1242 22.4057C23.5082 22.6297 23.8042 22.9844 24.0122 23.4697L22.4922 24.0377C22.4389 23.7764 22.3376 23.5924 22.1882 23.4857C22.0389 23.3737 21.8522 23.3177 21.6282 23.3177C21.3989 23.3177 21.2069 23.3737 21.0522 23.4857C20.9029 23.5924 20.7909 23.755 20.7162 23.9737C20.6416 24.1924 20.6042 24.4644 20.6042 24.7897C20.6042 25.1417 20.6442 25.4297 20.7242 25.6537C20.8096 25.8777 20.9376 26.043 21.1082 26.1497C21.2789 26.251 21.4896 26.3017 21.7402 26.3017C21.8682 26.3017 21.9856 26.2884 22.0922 26.2617C22.1989 26.2297 22.2922 26.1844 22.3722 26.1257C22.4576 26.067 22.5216 25.995 22.5642 25.9097C22.6069 25.819 22.6282 25.715 22.6282 25.5977V25.5577H21.5882V24.5097H24.0042V27.4297H22.9082L22.7802 26.0937L23.0362 26.3497C22.9402 26.723 22.7482 27.011 22.4602 27.2137C22.1722 27.411 21.7962 27.5097 21.3322 27.5097Z" fill="#8080FF"/>
<defs>
<clipPath id="clip0_16339_111687">
<rect width="12.5714" height="12.5714" fill="white" transform="translate(10.5 6.71484)"/>
</clipPath>
</defs>
</svg>
