<svg width="32" height="32" viewBox="0 0 32 32" fill="none" xmlns="http://www.w3.org/2000/svg">
<g id="pdf-outline 1">
<g id="Group">
<path id="Vector" d="M22.9 0H5C3.9 0 3 0.9 3 2V30C3 31.1 3.9 32 5 32H27C28.1 32 29 31.1 29 30V5.55L22.9 0ZM23.5 3.25L25.4 5H23.5V3.25ZM5 30V2H21.5V7H27V30H5Z" fill="#8080FF"/>
<path id="Vector_2" d="M10.7501 17.7492C10.9501 17.7492 11.2001 17.6992 11.4001 17.5992C11.9001 17.3992 12.7001 16.7992 14.1501 13.9492C14.6001 13.7992 15.1501 13.6992 15.7001 13.5492C16.4001 13.3992 17.1001 13.2992 17.7501 13.2492C19.1001 14.6492 19.6501 14.9992 20.4001 15.1992C20.6501 15.2492 20.8501 15.2992 21.0501 15.2992C22.0001 15.2992 22.5001 14.6992 22.6001 14.3492C22.8001 13.8992 22.8501 12.9492 21.9001 12.3492C21.2501 11.9492 20.1001 11.6992 18.8001 11.6992C18.6501 11.6992 18.5001 11.6992 18.3501 11.6992C18.2001 11.4992 18.0001 11.2992 17.8001 11.0992C17.1501 10.3992 16.6501 9.79922 16.2501 9.19922C16.8001 7.69922 16.9001 6.94922 16.8501 6.29922C16.8001 4.54922 15.7001 4.19922 15.2501 4.19922C14.6501 4.19922 13.7001 4.69922 13.6501 6.04922C13.6001 7.14922 13.7501 8.09922 14.5001 9.39922C14.3001 9.89922 14.0501 10.4492 13.8001 11.0492C13.5501 11.6492 13.3001 12.1492 13.0501 12.6492C11.1001 13.2992 10.3501 14.0992 9.95006 14.5492C9.00006 15.5492 9.15006 16.4492 9.40006 16.8992C9.65006 17.2992 10.0501 17.7492 10.7501 17.7492ZM21.1501 13.6492C21.2501 13.6992 21.2501 13.7492 21.2501 13.7992C21.2001 13.8492 21.0001 13.8492 20.8001 13.7992C20.6001 13.7492 20.4001 13.6992 19.9501 13.2992C20.6501 13.3992 21.0001 13.5992 21.1501 13.6492ZM15.2001 6.14922C15.2001 6.04922 15.2001 5.89922 15.2501 5.84922C15.3001 5.94922 15.3501 6.14922 15.4001 6.44922C15.4001 6.64922 15.4001 6.89922 15.3001 7.29922C15.2001 6.89922 15.2001 6.49922 15.2001 6.14922ZM15.0501 12.0992C15.1001 11.9992 15.1501 11.8492 15.2001 11.7492C15.3001 11.4992 15.4501 11.2492 15.5501 10.9992V11.0492L15.6001 10.9492C15.8501 11.2492 16.1001 11.5492 16.4001 11.8992H16.3501L16.4001 11.9492C16.0501 11.9992 15.7001 12.0492 15.3501 12.1492C15.2001 12.1492 15.1001 12.1992 15.0001 12.2492L15.0501 12.0992ZM11.0501 15.6492C11.2001 15.4992 11.4501 15.2492 11.8501 14.9492C11.1501 16.0492 10.8501 16.1992 10.8001 16.1992H10.7501L10.6501 16.0492C10.7001 16.0992 10.9001 15.8492 11.0501 15.6492Z" fill="#8080FF"/>
<path id="Vector_3" d="M12.75 21.4C12.55 21.25 12.3 21.15 12.05 21.1C11.8 21.05 11.5 21 11.2 21H8.94995V27.05H10.25V24.65H11.2C11.9 24.65 12.45 24.5 12.8 24.2C13.2 23.9 13.4 23.45 13.4 22.85C13.4 22.5 13.35 22.25 13.25 22C13.15 21.75 12.95 21.55 12.75 21.4ZM12 23.2C11.95 23.3 11.85 23.35 11.8 23.4C11.7 23.45 11.6 23.5 11.5 23.5C11.4 23.5 11.25 23.55 11.15 23.55H10.3V22.1H11.15C11.5 22.1 11.75 22.15 11.9 22.25C11.95 22.3 12.05 22.4 12.05 22.45C12.1 22.55 12.1 22.65 12.1 22.8C12.1 22.95 12.05 23.15 12 23.2Z" fill="#8080FF"/>
<path id="Vector_4" d="M18.15 21.85C17.9 21.6 17.65 21.4 17.3 21.25C16.95 21.05 16.5 21 16.05 21H14.05V27.05H16.05C16.95 27.05 17.65 26.8 18.1 26.25C18.35 26 18.5 25.65 18.65 25.3C18.75 24.95 18.8 24.5 18.8 24C18.8 23.55 18.75 23.1 18.65 22.75C18.55 22.4 18.4 22.1 18.15 21.85ZM17.45 24.75C17.4 25 17.35 25.2 17.2 25.35C17.1 25.55 16.95 25.65 16.75 25.75C16.55 25.85 16.3 25.9 16 25.9H15.35V22.05H16.05C16.55 22.05 16.95 22.2 17.15 22.55C17.25 22.7 17.35 22.9 17.4 23.15C17.45 23.4 17.5 23.65 17.5 24C17.5 24.3 17.5 24.55 17.45 24.75Z" fill="#8080FF"/>
<path id="Vector_5" d="M23.45 22.1V21H19.5V27.05H20.8V24.45H22.8L22.75 23.35H20.8V22.1H23.45Z" fill="#8080FF"/>
</g>
</g>
</svg>
