<svg width="160" height="161" viewBox="0 0 160 161" fill="none" xmlns="http://www.w3.org/2000/svg">
<g id="Search">
<g id="Group">
<g id="Layer 2">
<g id="Layer 1">
<path id="plus - shape" d="M136.669 62.1582H135.32V60.8153C135.32 60.3758 135.145 59.9543 134.835 59.6436C134.524 59.3328 134.102 59.1582 133.663 59.1582C133.223 59.1582 132.802 59.3328 132.491 59.6436C132.18 59.9543 132.006 60.3758 132.006 60.8153V62.1582H130.657C130.218 62.1582 129.796 62.3328 129.485 62.6436C129.175 62.9543 129 63.3758 129 63.8153C129 64.2548 129.175 64.6763 129.485 64.9871C129.796 65.2979 130.218 65.4725 130.657 65.4725H132.006V66.8211C132.006 67.2606 132.18 67.6821 132.491 67.9928C132.802 68.3036 133.223 68.4782 133.663 68.4782C134.102 68.4782 134.524 68.3036 134.835 67.9928C135.145 67.6821 135.32 67.2606 135.32 66.8211V65.4782H136.669C137.108 65.4782 137.53 65.3036 137.84 64.9928C138.151 64.6821 138.326 64.2606 138.326 63.8211C138.326 63.3816 138.151 62.9601 137.84 62.6493C137.53 62.3385 137.108 62.1639 136.669 62.1639V62.1582Z" fill="white"/>
<path id="plus - shape_2" d="M65.6629 53.1582H64.3143V51.8153C64.3143 51.3758 64.1397 50.9543 63.8289 50.6436C63.5181 50.3328 63.0966 50.1582 62.6571 50.1582C62.2176 50.1582 61.7961 50.3328 61.4854 50.6436C61.1746 50.9543 61 51.3758 61 51.8153V53.1639H59.6571C59.2176 53.1639 58.7961 53.3385 58.4854 53.6493C58.1746 53.9601 58 54.3816 58 54.8211C58 55.2606 58.1746 55.6821 58.4854 55.9928C58.7961 56.3036 59.2176 56.4782 59.6571 56.4782H61.0057V57.8096C61.0057 58.2491 61.1803 58.6706 61.4911 58.9814C61.8019 59.2922 62.2234 59.4668 62.6629 59.4668C63.1024 59.4668 63.5239 59.2922 63.8346 58.9814C64.1454 58.6706 64.32 58.2491 64.32 57.8096V56.4782H65.6686C66.1081 56.4782 66.5296 56.3036 66.8403 55.9928C67.1511 55.6821 67.3257 55.2606 67.3257 54.8211C67.3257 54.3816 67.1511 53.9601 66.8403 53.6493C66.5296 53.3385 66.1081 53.1639 65.6686 53.1639L65.6629 53.1582Z" fill="white"/>
<path id="plus - shape_3" d="M107.674 131.164H106.32V129.815C106.32 129.376 106.145 128.954 105.835 128.644C105.524 128.333 105.102 128.158 104.663 128.158C104.223 128.158 103.802 128.333 103.491 128.644C103.18 128.954 103.006 129.376 103.006 129.815V131.164H101.657C101.218 131.164 100.796 131.339 100.485 131.649C100.175 131.96 100 132.382 100 132.821C100 133.261 100.175 133.682 100.485 133.993C100.796 134.304 101.218 134.478 101.657 134.478H103.006V135.827C103.006 136.266 103.18 136.688 103.491 136.999C103.802 137.309 104.223 137.484 104.663 137.484C105.102 137.484 105.524 137.309 105.835 136.999C106.145 136.688 106.32 136.266 106.32 135.827V134.478H107.674C108.114 134.478 108.535 134.304 108.846 133.993C109.157 133.682 109.331 133.261 109.331 132.821C109.331 132.382 109.157 131.96 108.846 131.649C108.535 131.339 108.114 131.164 107.674 131.164Z" fill="white"/>
<path id="Vector" d="M73.5321 99.8281H31.0635V103.257H73.5321V99.8281Z" fill="white"/>
<path id="Vector_2" d="M22.4461 103.256H18.7261C16.9519 103.254 15.2508 102.549 13.9962 101.294C12.7417 100.039 12.0362 98.3384 12.0347 96.5642V79.0899C12.0362 77.3157 12.7417 75.6145 13.9962 74.36C15.2508 73.1054 16.9519 72.4 18.7261 72.3984H72.3432V75.827H18.7261C17.8612 75.8285 17.0322 76.1728 16.4206 76.7843C15.809 77.3959 15.4648 78.225 15.4632 79.0899V96.5642C15.4648 97.4291 15.809 98.2581 16.4206 98.8697C17.0322 99.4812 17.8612 99.8255 18.7261 99.827H22.4461V103.256Z" fill="white"/>
<path id="Vector_3" d="M95.366 114.885C92.0117 114.885 88.6848 114.283 85.5431 113.108C81.7837 111.711 78.372 109.516 75.5431 106.673C71.6176 102.753 68.9434 97.7553 67.8586 92.3141C66.7739 86.8729 67.3274 81.2322 69.4492 76.1056C71.571 70.9791 75.1656 66.5971 79.7784 63.5139C84.3912 60.4308 89.8148 58.7852 95.3631 58.7852C100.911 58.7852 106.335 60.4308 110.948 63.5139C115.561 66.5971 119.155 70.9791 121.277 76.1056C123.399 81.2322 123.952 86.8729 122.868 92.3141C121.783 97.7553 119.109 102.753 115.183 106.673C114.217 107.637 113.184 108.531 112.092 109.348C109.978 110.924 107.649 112.19 105.177 113.108C102.039 114.282 98.7164 114.884 95.366 114.885ZM95.366 62.2735C91.778 62.2895 88.237 63.0911 84.992 64.622C81.7469 66.1529 78.8765 68.3759 76.5825 71.1348C74.2885 73.8937 72.6265 77.1215 71.7133 80.5914C70.8002 84.0613 70.6581 87.689 71.2969 91.2197C71.9358 94.7504 73.3402 98.0984 75.4113 101.028C77.4825 103.958 80.1701 106.399 83.2855 108.179C86.4008 109.959 89.8682 111.035 93.4439 111.332C97.0197 111.629 100.617 111.139 103.983 109.896C106.149 109.091 108.188 107.981 110.04 106.599C111.002 105.88 111.911 105.093 112.76 104.245C113.608 103.398 114.393 102.491 115.109 101.531C117.836 97.8741 119.492 93.5304 119.891 88.9861C120.289 84.4418 119.415 79.8762 117.366 75.8007C115.316 71.7251 112.173 68.3006 108.287 65.9104C104.402 63.5203 99.9277 62.259 95.366 62.2678V62.2735Z" fill="#7F92FF"/>
<path id="Vector_4" d="M111.989 107.304L109.565 109.729L118.866 119.03L121.291 116.606L111.989 107.304Z" fill="#7F92FF"/>
<path id="Vector_5" d="M117.697 101.337L115.273 103.762L124.574 113.063L126.999 110.639L117.697 101.337Z" fill="#7F92FF"/>
<path id="Vector_6" d="M145.178 145.364C144.11 145.366 143.053 145.157 142.066 144.749C141.08 144.341 140.183 143.742 139.429 142.986L120.749 124.306C119.225 122.782 118.369 120.714 118.369 118.558C118.369 116.402 119.225 114.334 120.749 112.809L121.321 112.238C122.845 110.714 124.913 109.857 127.069 109.857C129.225 109.857 131.293 110.714 132.818 112.238L151.498 130.918C152.253 131.672 152.852 132.569 153.261 133.555C153.67 134.541 153.88 135.599 153.88 136.666C153.88 137.734 153.67 138.791 153.261 139.778C152.852 140.764 152.253 141.66 151.498 142.415L150.926 142.986C150.172 143.742 149.276 144.341 148.289 144.749C147.303 145.157 146.245 145.366 145.178 145.364ZM127.08 113.278C126.727 113.279 126.374 113.319 126.029 113.398C125.163 113.591 124.37 114.027 123.743 114.655L123.172 115.226C122.292 116.108 121.797 117.303 121.797 118.549C121.797 119.795 122.292 120.99 123.172 121.872L141.852 140.552C142.288 140.99 142.806 141.337 143.377 141.574C143.948 141.81 144.56 141.931 145.178 141.929C145.795 141.931 146.406 141.81 146.976 141.573C147.546 141.337 148.063 140.99 148.498 140.552L149.069 139.981C149.949 139.099 150.444 137.904 150.444 136.658C150.444 135.412 149.949 134.217 149.069 133.335L130.389 114.655C129.955 114.219 129.44 113.873 128.872 113.637C128.304 113.4 127.695 113.278 127.08 113.278Z" fill="#7F92FF"/>
<path id="Vector_7" d="M132.736 116.4L123.087 126.049L125.512 128.473L135.161 118.824L132.736 116.4Z" fill="#7F92FF"/>
<path id="Vector_8" d="M27.6739 102.462C28.1827 101.953 28.1827 101.129 27.6739 100.62C27.1651 100.111 26.3402 100.111 25.8314 100.62C25.3226 101.129 25.3226 101.953 25.8314 102.462C26.3402 102.971 27.1651 102.971 27.6739 102.462Z" fill="white"/>
<path id="Vector_9" d="M89.0403 66.5352H76.7603V69.9637H89.0403V66.5352Z" fill="#7F92FF"/>
<path id="Vector_10" d="M97.4173 66.5352H92.3716V69.9637H97.4173V66.5352Z" fill="#7F92FF"/>
</g>
</g>
</g>
</g>
</svg>
