<svg width="72" height="73" viewBox="0 0 72 73" fill="none" xmlns="http://www.w3.org/2000/svg">
<path d="M30.5029 58.6256H61.3218C61.7665 58.6235 62.2027 58.5034 62.5858 58.2775C62.9689 58.0517 63.2852 57.7282 63.5023 57.3401C63.7195 56.952 63.8297 56.5132 63.8218 56.0686C63.8138 55.6239 63.688 55.1894 63.4571 54.8093L38.0359 13.6941C37.8112 13.3297 37.4971 13.0288 37.1233 12.8202C36.7495 12.6115 36.3286 12.502 35.9005 12.502C35.4724 12.502 35.0515 12.6115 34.6777 12.8202C34.3039 13.0288 33.9898 13.3297 33.7651 13.6941L8.34754 54.8093C8.11193 55.1897 7.98224 55.6262 7.97187 56.0736C7.96149 56.521 8.07082 56.9631 8.28853 57.354C8.50625 57.745 8.82445 58.0708 9.21024 58.2976C9.59603 58.5243 10.0354 58.644 10.4829 58.6441H15.1711" fill="white"/>
<path d="M30.5029 58.6256H61.3218C61.7665 58.6235 62.2027 58.5034 62.5858 58.2776C62.9689 58.0517 63.2852 57.7282 63.5023 57.3401C63.7195 56.952 63.8297 56.5132 63.8218 56.0686C63.8138 55.6239 63.688 55.1894 63.4571 54.8093L38.0359 13.6941C37.8112 13.3297 37.4971 13.0288 37.1233 12.8202C36.7495 12.6115 36.3286 12.502 35.9005 12.502C35.4724 12.502 35.0515 12.6115 34.6777 12.8202C34.3039 13.0288 33.9898 13.3297 33.7651 13.6941L8.34754 54.8093C8.11193 55.1897 7.98224 55.6262 7.97187 56.0736C7.96149 56.521 8.07082 56.9631 8.28853 57.354C8.50625 57.745 8.82445 58.0708 9.21024 58.2976C9.59603 58.5243 10.0354 58.644 10.4829 58.6441H15.1711" stroke="#000062" stroke-miterlimit="10" stroke-linecap="round"/>
<path d="M37.4606 27.0376C37.4606 26.1765 36.7634 25.4785 35.9034 25.4785C35.0434 25.4785 34.3462 26.1765 34.3462 27.0376V43.9543C34.3462 44.8153 35.0434 45.5133 35.9034 45.5133C36.7634 45.5133 37.4606 44.8153 37.4606 43.9543V27.0376Z" fill="#000062"/>
<path d="M35.9052 51.6884C36.7663 51.6884 37.4643 50.9904 37.4643 50.1294C37.4643 49.2683 36.7663 48.5703 35.9052 48.5703C35.0442 48.5703 34.3462 49.2683 34.3462 50.1294C34.3462 50.9904 35.0442 51.6884 35.9052 51.6884Z" fill="#000062"/>
<path d="M22.9297 60.5478C23.9914 60.5478 24.852 59.6872 24.852 58.6255C24.852 57.5638 23.9914 56.7031 22.9297 56.7031C21.868 56.7031 21.0073 57.5638 21.0073 58.6255C21.0073 59.6872 21.868 60.5478 22.9297 60.5478Z" stroke="#000062" stroke-linecap="round"/>
<path d="M61.7478 53.2578H48.7324" stroke="#000062" stroke-miterlimit="10" stroke-linecap="round"/>
<path d="M43.7119 53.2578H47.1292" stroke="#000062" stroke-miterlimit="10" stroke-linecap="round" stroke-linejoin="round"/>
<path d="M37.4567 27.0376C37.4567 26.1765 36.7595 25.4785 35.8995 25.4785C35.0395 25.4785 34.3423 26.1765 34.3423 27.0376V43.9543C34.3423 44.8153 35.0395 45.5133 35.8995 45.5133C36.7595 45.5133 37.4567 44.8153 37.4567 43.9543V27.0376Z" fill="#7F92FF"/>
<path d="M35.9013 51.6864C36.7624 51.6864 37.4604 50.9884 37.4604 50.1274C37.4604 49.2664 36.7624 48.5684 35.9013 48.5684C35.0403 48.5684 34.3423 49.2664 34.3423 50.1274C34.3423 50.9884 35.0403 51.6864 35.9013 51.6864Z" fill="#7F92FF"/>
<path d="M21.8215 13.8084H20.7929V12.7798C20.8038 12.6013 20.745 12.4254 20.629 12.2893C20.5129 12.1531 20.3486 12.0672 20.1706 12.0495C20.0795 12.0413 19.9878 12.0522 19.9011 12.0814C19.8145 12.1106 19.7349 12.1576 19.6674 12.2193C19.5999 12.2809 19.546 12.356 19.5091 12.4397C19.4722 12.5234 19.4532 12.6138 19.4532 12.7053V13.7955H18.4246C18.2539 13.7908 18.0875 13.8494 17.9575 13.96C17.8274 14.0707 17.7428 14.2255 17.72 14.3947C17.7085 14.4856 17.7162 14.578 17.7424 14.6659C17.7687 14.7537 17.813 14.8351 17.8726 14.9048C17.9321 14.9746 18.0056 15.0311 18.0883 15.0707C18.1709 15.1104 18.261 15.1324 18.3526 15.1353H19.4403V16.1638C19.4328 16.3394 19.4924 16.5113 19.607 16.6446C19.7216 16.7778 19.8827 16.8625 20.0575 16.8813C20.1485 16.8895 20.2403 16.8786 20.327 16.8494C20.4136 16.8202 20.4932 16.7732 20.5607 16.7115C20.6282 16.6498 20.6821 16.5748 20.719 16.4911C20.7559 16.4074 20.7749 16.317 20.7749 16.2255V15.1353H21.8575C21.9509 15.1372 22.0438 15.1193 22.1298 15.0826C22.2158 15.0459 22.293 14.9913 22.3562 14.9225C22.4195 14.8536 22.4673 14.7721 22.4966 14.6833C22.5259 14.5945 22.5359 14.5005 22.526 14.4075C22.5033 14.2383 22.4187 14.0835 22.2886 13.9729C22.1585 13.8623 21.9922 13.8037 21.8215 13.8084Z" fill="#5E1AD5"/>
<path d="M54.7382 16.81H53.7096V15.7815C53.7143 15.6108 53.6557 15.4444 53.5451 15.3143C53.4345 15.1842 53.2797 15.0997 53.1105 15.0769C53.0194 15.0687 52.9276 15.0795 52.841 15.1087C52.7543 15.138 52.6747 15.1849 52.6072 15.2466C52.5397 15.3083 52.4858 15.3834 52.4489 15.467C52.4121 15.5507 52.393 15.6412 52.393 15.7326V16.8203H51.3645C51.1938 16.8156 51.0274 16.8742 50.8973 16.9848C50.7672 17.0954 50.6827 17.2502 50.6599 17.4195C50.6517 17.5105 50.6625 17.6023 50.6917 17.689C50.721 17.7756 50.7679 17.8552 50.8296 17.9227C50.8913 17.9902 50.9664 18.0441 51.05 18.081C51.1337 18.1179 51.2242 18.1369 51.3156 18.1369H52.4033V19.1655C52.3986 19.3361 52.4572 19.5025 52.5678 19.6326C52.6784 19.7627 52.8332 19.8472 53.0025 19.87C53.0935 19.8782 53.1853 19.8674 53.272 19.8382C53.3586 19.809 53.4382 19.762 53.5057 19.7003C53.5732 19.6386 53.6271 19.5635 53.664 19.4799C53.7009 19.3962 53.7199 19.3058 53.7199 19.2143V18.1395H54.8076C54.899 18.1395 54.9895 18.1204 55.0732 18.0836C55.1568 18.0467 55.2319 17.9928 55.2936 17.9253C55.3553 17.8578 55.4022 17.7782 55.4315 17.6915C55.4607 17.6049 55.4715 17.5131 55.4633 17.422C55.4433 17.2468 55.357 17.0858 55.2222 16.9721C55.0874 16.8583 54.9143 16.8004 54.7382 16.81Z" fill="#5E1AD5"/>
<path d="M56.7898 63.3859H56.1263V62.707C56.1292 62.5983 56.0915 62.4923 56.0208 62.4097C55.95 62.327 55.8511 62.2736 55.7432 62.2596C55.685 62.2542 55.6263 62.2611 55.5709 62.2797C55.5155 62.2983 55.4647 62.3284 55.4216 62.3678C55.3785 62.4073 55.3441 62.4554 55.3207 62.5089C55.2972 62.5624 55.2852 62.6203 55.2855 62.6787V63.3705H54.6221C54.5133 63.3676 54.4073 63.4053 54.3247 63.476C54.2421 63.5468 54.1886 63.6457 54.1746 63.7536C54.1693 63.8118 54.1761 63.8705 54.1947 63.9259C54.2134 63.9813 54.2434 64.0321 54.2829 64.0752C54.3224 64.1183 54.3704 64.1527 54.4239 64.1761C54.4775 64.1996 54.5353 64.2116 54.5938 64.2113H55.2855V64.8747C55.2827 64.9835 55.3203 65.0895 55.3911 65.1721C55.4618 65.2547 55.5607 65.3082 55.6686 65.3222C55.7268 65.3275 55.7855 65.3207 55.8409 65.3021C55.8963 65.2834 55.9472 65.2534 55.9903 65.2139C56.0334 65.1745 56.0677 65.1264 56.0912 65.0729C56.1146 65.0193 56.1266 64.9615 56.1263 64.903V64.2113H56.8283C56.8868 64.2116 56.9446 64.1996 56.9982 64.1761C57.0517 64.1527 57.0998 64.1183 57.1392 64.0752C57.1787 64.0321 57.2087 63.9813 57.2274 63.9259C57.246 63.8705 57.2529 63.8118 57.2475 63.7536C57.2299 63.6467 57.1735 63.55 57.089 63.4822C57.0045 63.4143 56.898 63.38 56.7898 63.3859Z" fill="#5E1AD5"/>
</svg>
