<svg width="43" height="42" viewBox="0 0 43 42" fill="none" xmlns="http://www.w3.org/2000/svg">
<g id="Group">
<path id="Vector" d="M21.5358 7.5C18.8612 7.5 16.2466 8.29176 14.0228 9.77516C11.7989 11.2586 10.0656 13.367 9.0421 15.8338C8.01857 18.3006 7.75075 21.015 8.27254 23.6337C8.79433 26.2525 10.0823 28.6579 11.9735 30.5459C13.8648 32.4339 16.2744 33.7197 18.8976 34.2406C21.5208 34.7615 24.2399 34.4942 26.7109 33.4724C29.1819 32.4506 31.2939 30.7203 32.7799 28.5002C34.2658 26.2801 35.0589 23.67 35.0589 21C35.0589 17.4196 33.6342 13.9858 31.0981 11.4541C28.562 8.92232 25.1224 7.5 21.5358 7.5ZM21.5358 33C19.1584 33 16.8343 32.2962 14.8576 30.9776C12.8808 29.6591 11.3401 27.7849 10.4303 25.5922C9.52047 23.3995 9.28243 20.9867 9.74624 18.6589C10.2101 16.3311 11.3549 14.193 13.036 12.5147C14.7171 10.8365 16.859 9.6936 19.1907 9.23058C21.5225 8.76755 23.9394 9.00519 26.1359 9.91344C28.3323 10.8217 30.2097 12.3598 31.5305 14.3332C32.8514 16.3065 33.5564 18.6266 33.5564 21C33.5564 24.1826 32.2899 27.2348 30.0356 29.4853C27.7813 31.7357 24.7239 33 21.5358 33Z" fill="white"/>
<circle id="Ellipse 2639" cx="21.5368" cy="21.1198" r="9.80538" fill="white"/>
<path id="Vector_2" d="M21.536 6C21.7352 6 21.9263 5.92098 22.0672 5.78033C22.2081 5.63968 22.2872 5.44891 22.2872 5.25V0.75C22.2872 0.551088 22.2081 0.360322 22.0672 0.219669C21.9263 0.0790171 21.7352 0 21.536 0C21.3367 0 21.1456 0.0790171 21.0047 0.219669C20.8638 0.360322 20.7847 0.551088 20.7847 0.75V5.25C20.7847 5.44891 20.8638 5.63968 21.0047 5.78033C21.1456 5.92098 21.3367 6 21.536 6Z" fill="white"/>
<path id="Vector_3" d="M12.9933 7.73297C13.0929 7.90602 13.2573 8.03249 13.4503 8.08453C13.6434 8.13657 13.8492 8.10993 14.0225 8.01047C14.1959 7.91102 14.3226 7.74689 14.3747 7.5542C14.4268 7.3615 14.4001 7.15602 14.3005 6.98297L12.0466 3.09048C11.9973 3.00479 11.9316 2.92964 11.8531 2.86932C11.7747 2.809 11.6852 2.76469 11.5896 2.73892C11.494 2.71315 11.3943 2.70643 11.2961 2.71914C11.1979 2.73184 11.1032 2.76373 11.0174 2.81297C10.9316 2.86222 10.8563 2.92786 10.7959 3.00615C10.7354 3.08444 10.691 3.17384 10.6652 3.26925C10.6394 3.36466 10.6327 3.46422 10.6454 3.56223C10.6581 3.66024 10.6901 3.75479 10.7394 3.84048L12.9933 7.73297Z" fill="white"/>
<path id="Vector_4" d="M3.59502 11.5281L7.49418 13.7781C7.66753 13.8776 7.87336 13.9042 8.06638 13.8522C8.16196 13.8264 8.25151 13.7821 8.32993 13.7218C8.40835 13.6615 8.47411 13.5863 8.52344 13.5006C8.57277 13.4149 8.60471 13.3204 8.61744 13.2224C8.63017 13.1244 8.62344 13.0248 8.59763 12.9294C8.57182 12.834 8.52744 12.7446 8.46701 12.6663C8.40659 12.588 8.3313 12.5224 8.24547 12.4731L4.3463 10.2231C4.17295 10.1237 3.96713 10.097 3.7741 10.1491C3.58108 10.2011 3.41667 10.3276 3.31705 10.5006C3.21742 10.6737 3.19075 10.8792 3.24288 11.0719C3.29501 11.2645 3.42167 11.4287 3.59502 11.5281Z" fill="white"/>
<path id="Vector_5" d="M6.51027 21C6.51027 20.8011 6.43111 20.6103 6.29021 20.4697C6.14932 20.329 5.95824 20.25 5.75899 20.25H1.25128C1.05203 20.25 0.86095 20.329 0.720057 20.4697C0.579164 20.6103 0.5 20.8011 0.5 21C0.5 21.1989 0.579164 21.3897 0.720057 21.5303C0.86095 21.671 1.05203 21.75 1.25128 21.75H5.75899C5.95824 21.75 6.14932 21.671 6.29021 21.5303C6.43111 21.3897 6.51027 21.1989 6.51027 21Z" fill="white"/>
<path id="Vector_6" d="M7.49418 28.2231L3.59502 30.4731C3.42167 30.5726 3.29501 30.7367 3.24288 30.9294C3.19075 31.1221 3.21742 31.3276 3.31705 31.5006C3.41667 31.6737 3.58108 31.8001 3.7741 31.8522C3.96713 31.9042 4.17295 31.8776 4.3463 31.7781L8.24547 29.5281C8.3313 29.4789 8.40659 29.4132 8.46701 29.335C8.52744 29.2567 8.57182 29.1673 8.59763 29.0719C8.62344 28.9764 8.63017 28.8769 8.61744 28.7789C8.60471 28.6809 8.57277 28.5863 8.52344 28.5006C8.47411 28.4149 8.40835 28.3398 8.32993 28.2795C8.25151 28.2192 8.16196 28.1748 8.06638 28.1491C7.87336 28.097 7.66753 28.1237 7.49418 28.2231Z" fill="white"/>
<path id="Vector_7" d="M14.0225 33.9897C13.9368 33.9401 13.8421 33.908 13.7438 33.8951C13.6456 33.8822 13.5457 33.8888 13.4501 33.9146C13.3544 33.9404 13.2648 33.9848 13.1864 34.0453C13.108 34.1059 13.0424 34.1813 12.9933 34.2672L10.7394 38.1597C10.6398 38.3328 10.6131 38.5382 10.6652 38.7309C10.7174 38.9236 10.844 39.0877 11.0174 39.1872C11.1907 39.2867 11.3966 39.3133 11.5896 39.2613C11.7826 39.2092 11.947 39.0828 12.0467 38.9097L14.3005 35.0172C14.3502 34.9316 14.3824 34.837 14.3953 34.739C14.4082 34.6409 14.4016 34.5412 14.3757 34.4457C14.3499 34.3502 14.3054 34.2607 14.2448 34.1825C14.1842 34.1042 14.1086 34.0387 14.0225 33.9897Z" fill="white"/>
<path id="Vector_8" d="M29.8793 33.8628C29.9651 33.8132 30.0598 33.781 30.158 33.7681C30.2563 33.7552 30.3561 33.7619 30.4518 33.7877C30.5475 33.8135 30.6371 33.8579 30.7155 33.9184C30.7939 33.9789 30.8595 34.0543 30.9086 34.1403L33.1624 38.0328C33.2621 38.2058 33.2888 38.4113 33.2366 38.604C33.1845 38.7967 33.0578 38.9608 32.8845 39.0602C32.7111 39.1597 32.5053 39.1863 32.3123 39.1343C32.1192 39.0823 31.9548 38.9558 31.8552 38.7828L29.6014 34.8902C29.5517 34.8046 29.5195 34.7101 29.5065 34.612C29.4936 34.5139 29.5003 34.4142 29.5261 34.3187C29.552 34.2232 29.5965 34.1338 29.6571 34.0555C29.7177 33.9773 29.7932 33.9118 29.8793 33.8628Z" fill="white"/>
<path id="Vector_9" d="M21.536 36C21.3367 36 21.1456 36.079 21.0047 36.2197C20.8638 36.3603 20.7847 36.5511 20.7847 36.75V41.25C20.7847 41.4489 20.8638 41.6397 21.0047 41.7803C21.1456 41.921 21.3367 42 21.536 42C21.7352 42 21.9263 41.921 22.0672 41.7803C22.2081 41.6397 22.2872 41.4489 22.2872 41.25V36.75C22.2872 36.5511 22.2081 36.3603 22.0672 36.2197C21.9263 36.079 21.7352 36 21.536 36Z" fill="white"/>
<path id="Vector_10" d="M34.826 29.5281L38.7252 31.7781C38.8985 31.8776 39.1043 31.9042 39.2973 31.8522C39.4904 31.8001 39.6548 31.6737 39.7544 31.5006C39.854 31.3276 39.8807 31.1221 39.8286 30.9294C39.7764 30.7367 39.6498 30.5726 39.4764 30.4731L35.5773 28.2231C35.4914 28.1739 35.3967 28.142 35.2985 28.1293C35.2004 28.1166 35.1006 28.1233 35.0051 28.1491C34.9095 28.1748 34.8199 28.2192 34.7415 28.2795C34.6631 28.3398 34.5973 28.4149 34.548 28.5006C34.4987 28.5863 34.4667 28.6809 34.454 28.7789C34.4413 28.8769 34.448 28.9764 34.4738 29.0719C34.4996 29.1673 34.544 29.2567 34.6044 29.335C34.6649 29.4132 34.7402 29.4789 34.826 29.5281Z" fill="white"/>
<path id="Vector_11" d="M36.5615 21C36.5615 21.1989 36.6407 21.3897 36.7816 21.5303C36.9225 21.671 37.1136 21.75 37.3128 21.75H41.8205C42.0198 21.75 42.2108 21.671 42.3517 21.5303C42.4926 21.3897 42.5718 21.1989 42.5718 21C42.5718 20.8011 42.4926 20.6103 42.3517 20.4697C42.2108 20.329 42.0198 20.25 41.8205 20.25H37.3128C37.1136 20.25 36.9225 20.329 36.7816 20.4697C36.6407 20.6103 36.5615 20.8011 36.5615 21Z" fill="white"/>
<path id="Vector_12" d="M35.2014 13.8756C35.333 13.8765 35.4625 13.8429 35.577 13.7781L39.4762 11.5281C39.6495 11.4287 39.7762 11.2645 39.8283 11.0719C39.8804 10.8792 39.8538 10.6737 39.7541 10.5006C39.6545 10.3276 39.4901 10.2011 39.2971 10.1491C39.1041 10.097 38.8982 10.1237 38.7249 10.2231L34.8257 12.4731C34.681 12.555 34.5676 12.6825 34.5032 12.8357C34.4389 12.9888 34.4274 13.1589 34.4703 13.3194C34.5133 13.4798 34.6084 13.6215 34.7407 13.7221C34.873 13.8228 35.035 13.8768 35.2014 13.8756Z" fill="white"/>
<path id="Vector_13" d="M29.0486 8.01047C29.1344 8.06006 29.2291 8.09223 29.3273 8.10512C29.4256 8.118 29.5254 8.11136 29.6211 8.08556C29.7168 8.05977 29.8064 8.01534 29.8848 7.95483C29.9632 7.89431 30.0288 7.81891 30.0779 7.73297L32.3317 3.84047C32.3811 3.75479 32.413 3.66024 32.4257 3.56223C32.4384 3.46422 32.4317 3.36466 32.4059 3.26925C32.3801 3.17384 32.3357 3.08444 32.2753 3.00615C32.2149 2.92786 32.1396 2.86222 32.0537 2.81297C31.9679 2.76373 31.8732 2.73184 31.775 2.71914C31.6768 2.70643 31.5771 2.71315 31.4816 2.73892C31.386 2.76469 31.2964 2.809 31.218 2.86932C31.1396 2.92964 31.0738 3.00479 31.0245 3.09047L28.7706 6.98297C28.721 7.06857 28.6887 7.16314 28.6758 7.26122C28.6629 7.35931 28.6696 7.45897 28.6954 7.55448C28.7213 7.64998 28.7658 7.73944 28.8264 7.8177C28.887 7.89596 28.9625 7.96148 29.0486 8.01047Z" fill="white"/>
</g>
</svg>
