<svg width="33" height="33" viewBox="0 0 33 33" fill="none" xmlns="http://www.w3.org/2000/svg">
<rect x="0.5" y="0.239258" width="32" height="32" rx="16" fill="#E0F2FE"/>
<path d="M19.0002 20.4059H23.1668L21.9961 19.2352C21.6785 18.9176 21.5002 18.487 21.5002 18.038V15.4059C21.5002 13.2289 20.1088 11.3768 18.1668 10.6904V10.4059C18.1668 9.48545 17.4206 8.73926 16.5002 8.73926C15.5797 8.73926 14.8335 9.48545 14.8335 10.4059V10.6904C12.8915 11.3768 11.5002 13.2289 11.5002 15.4059V18.038C11.5002 18.487 11.3218 18.9176 11.0043 19.2352L9.8335 20.4059H14.0002M19.0002 20.4059V21.2393C19.0002 22.62 17.8809 23.7393 16.5002 23.7393C15.1195 23.7393 14.0002 22.62 14.0002 21.2393V20.4059M19.0002 20.4059H14.0002" stroke="#38BDF8" stroke-width="1.5" stroke-linecap="round" stroke-linejoin="round"/>
</svg>
