<svg width="33" height="33" viewBox="0 0 33 33" fill="none" xmlns="http://www.w3.org/2000/svg">
<rect x="0.5" y="0.158203" width="32" height="32" rx="16" fill="#E0F2FE"/>
<path d="M19.0002 20.3249H23.1668L21.9961 19.1541C21.6785 18.8366 21.5002 18.4059 21.5002 17.9569V15.3249C21.5002 13.1478 20.1088 11.2958 18.1668 10.6094V10.3249C18.1668 9.4044 17.4206 8.6582 16.5002 8.6582C15.5797 8.6582 14.8335 9.4044 14.8335 10.3249V10.6094C12.8915 11.2958 11.5002 13.1478 11.5002 15.3249V17.9569C11.5002 18.4059 11.3218 18.8366 11.0043 19.1541L9.8335 20.3249H14.0002M19.0002 20.3249V21.1582C19.0002 22.5389 17.8809 23.6582 16.5002 23.6582C15.1195 23.6582 14.0002 22.5389 14.0002 21.1582V20.3249M19.0002 20.3249H14.0002" stroke="#38BDF8" stroke-width="1.5" stroke-linecap="round" stroke-linejoin="round"/>
</svg>
