<svg width="51" height="50" viewBox="0 0 51 50" fill="none" xmlns="http://www.w3.org/2000/svg">
<g clip-path="url(#clip0_18392_74917)">
<path d="M49.6382 25V47.4138H34.1209V23.2759L49.6382 25ZM16.8795 23.2759V47.4138H1.3623V25L16.8795 23.2759Z" fill="#BFBFFF"/>
<path d="M15.1553 23.2759H35.8449V47.4138H15.1553V23.2759Z" fill="#8080FF"/>
<path d="M22.9138 34.4824H28.0862C28.3149 34.4824 28.5341 34.5732 28.6958 34.7349C28.8575 34.8966 28.9483 35.1159 28.9483 35.3445V45.6893H22.0518V35.3445C22.0518 35.1159 22.1426 34.8966 22.3043 34.7349C22.4659 34.5732 22.6852 34.4824 22.9138 34.4824Z" fill="url(#paint0_linear_18392_74917)"/>
<path d="M22.914 31.0342C22.6854 31.0342 22.4661 30.9434 22.3044 30.7817C22.1427 30.6201 22.0519 30.4008 22.0519 30.1721V28.448C22.0519 28.2194 22.1427 28.0001 22.3044 27.8384C22.4661 27.6768 22.6854 27.5859 22.914 27.5859C23.1426 27.5859 23.3619 27.6768 23.5236 27.8384C23.6852 28.0001 23.7761 28.2194 23.7761 28.448V30.1721C23.7761 30.4008 23.6852 30.6201 23.5236 30.7817C23.3619 30.9434 23.1426 31.0342 22.914 31.0342ZM10.845 31.8963C10.6164 31.8963 10.3971 31.8055 10.2355 31.6438C10.0738 31.4821 9.98296 31.2628 9.98296 31.0342V29.3101C9.98296 29.0814 10.0738 28.8622 10.2355 28.7005C10.3971 28.5388 10.6164 28.448 10.845 28.448C11.0737 28.448 11.2929 28.5388 11.4546 28.7005C11.6163 28.8622 11.7071 29.0814 11.7071 29.3101V31.0342C11.7071 31.2628 11.6163 31.4821 11.4546 31.6438C11.2929 31.8055 11.0737 31.8963 10.845 31.8963ZM5.67262 31.8963C5.44398 31.8963 5.22471 31.8055 5.06304 31.6438C4.90137 31.4821 4.81055 31.2628 4.81055 31.0342V29.3101C4.81055 29.0814 4.90137 28.8622 5.06304 28.7005C5.22471 28.5388 5.44398 28.448 5.67262 28.448C5.90125 28.448 6.12052 28.5388 6.28219 28.7005C6.44386 28.8622 6.53468 29.0814 6.53468 29.3101V31.0342C6.53468 31.2628 6.44386 31.4821 6.28219 31.6438C6.12052 31.8055 5.90125 31.8963 5.67262 31.8963ZM10.845 37.0687C10.6164 37.0687 10.3971 36.9779 10.2355 36.8162C10.0738 36.6545 9.98296 36.4353 9.98296 36.2066V34.4825C9.98296 34.2539 10.0738 34.0346 10.2355 33.8729C10.3971 33.7112 10.6164 33.6204 10.845 33.6204C11.0737 33.6204 11.2929 33.7112 11.4546 33.8729C11.6163 34.0346 11.7071 34.2539 11.7071 34.4825V36.2066C11.7071 36.4353 11.6163 36.6545 11.4546 36.8162C11.2929 36.9779 11.0737 37.0687 10.845 37.0687ZM5.67262 37.0687C5.44398 37.0687 5.22471 36.9779 5.06304 36.8162C4.90137 36.6545 4.81055 36.4353 4.81055 36.2066V34.4825C4.81055 34.2539 4.90137 34.0346 5.06304 33.8729C5.22471 33.7112 5.44398 33.6204 5.67262 33.6204C5.90125 33.6204 6.12052 33.7112 6.28219 33.8729C6.44386 34.0346 6.53468 34.2539 6.53468 34.4825V36.2066C6.53468 36.4353 6.44386 36.6545 6.28219 36.8162C6.12052 36.9779 5.90125 37.0687 5.67262 37.0687ZM10.845 42.2411C10.6164 42.2411 10.3971 42.1503 10.2355 41.9886C10.0738 41.8269 9.98296 41.6077 9.98296 41.379V39.6549C9.98296 39.4263 10.0738 39.207 10.2355 39.0453C10.3971 38.8837 10.6164 38.7928 10.845 38.7928C11.0737 38.7928 11.2929 38.8837 11.4546 39.0453C11.6163 39.207 11.7071 39.4263 11.7071 39.6549V41.379C11.7071 41.6077 11.6163 41.8269 11.4546 41.9886C11.2929 42.1503 11.0737 42.2411 10.845 42.2411ZM5.67262 42.2411C5.44398 42.2411 5.22471 42.1503 5.06304 41.9886C4.90137 41.8269 4.81055 41.6077 4.81055 41.379V39.6549C4.81055 39.4263 4.90137 39.207 5.06304 39.0453C5.22471 38.8837 5.44398 38.7928 5.67262 38.7928C5.90125 38.7928 6.12052 38.8837 6.28219 39.0453C6.44386 39.207 6.53468 39.4263 6.53468 39.6549V41.379C6.53468 41.6077 6.44386 41.8269 6.28219 41.9886C6.12052 42.1503 5.90125 42.2411 5.67262 42.2411ZM45.3278 31.8963C45.0992 31.8963 44.8799 31.8055 44.7182 31.6438C44.5565 31.4821 44.4657 31.2628 44.4657 31.0342V29.3101C44.4657 29.0814 44.5565 28.8622 44.7182 28.7005C44.8799 28.5388 45.0992 28.448 45.3278 28.448C45.5564 28.448 45.7757 28.5388 45.9374 28.7005C46.099 28.8622 46.1899 29.0814 46.1899 29.3101V31.0342C46.1899 31.2628 46.099 31.4821 45.9374 31.6438C45.7757 31.8055 45.5564 31.8963 45.3278 31.8963ZM40.1554 31.8963C39.9267 31.8963 39.7075 31.8055 39.5458 31.6438C39.3841 31.4821 39.2933 31.2628 39.2933 31.0342V29.3101C39.2933 29.0814 39.3841 28.8622 39.5458 28.7005C39.7075 28.5388 39.9267 28.448 40.1554 28.448C40.384 28.448 40.6033 28.5388 40.7649 28.7005C40.9266 28.8622 41.0174 29.0814 41.0174 29.3101V31.0342C41.0174 31.2628 40.9266 31.4821 40.7649 31.6438C40.6033 31.8055 40.384 31.8963 40.1554 31.8963ZM45.3278 37.0687C45.0992 37.0687 44.8799 36.9779 44.7182 36.8162C44.5565 36.6545 44.4657 36.4353 44.4657 36.2066V34.4825C44.4657 34.2539 44.5565 34.0346 44.7182 33.8729C44.8799 33.7112 45.0992 33.6204 45.3278 33.6204C45.5564 33.6204 45.7757 33.7112 45.9374 33.8729C46.099 34.0346 46.1899 34.2539 46.1899 34.4825V36.2066C46.1899 36.4353 46.099 36.6545 45.9374 36.8162C45.7757 36.9779 45.5564 37.0687 45.3278 37.0687ZM40.1554 37.0687C39.9267 37.0687 39.7075 36.9779 39.5458 36.8162C39.3841 36.6545 39.2933 36.4353 39.2933 36.2066V34.4825C39.2933 34.2539 39.3841 34.0346 39.5458 33.8729C39.7075 33.7112 39.9267 33.6204 40.1554 33.6204C40.384 33.6204 40.6033 33.7112 40.7649 33.8729C40.9266 34.0346 41.0174 34.2539 41.0174 34.4825V36.2066C41.0174 36.4353 40.9266 36.6545 40.7649 36.8162C40.6033 36.9779 40.384 37.0687 40.1554 37.0687ZM45.3278 42.2411C45.0992 42.2411 44.8799 42.1503 44.7182 41.9886C44.5565 41.8269 44.4657 41.6077 44.4657 41.379V39.6549C44.4657 39.4263 44.5565 39.207 44.7182 39.0453C44.8799 38.8837 45.0992 38.7928 45.3278 38.7928C45.5564 38.7928 45.7757 38.8837 45.9374 39.0453C46.099 39.207 46.1899 39.4263 46.1899 39.6549V41.379C46.1899 41.6077 46.099 41.8269 45.9374 41.9886C45.7757 42.1503 45.5564 42.2411 45.3278 42.2411ZM40.1554 42.2411C39.9267 42.2411 39.7075 42.1503 39.5458 41.9886C39.3841 41.8269 39.2933 41.6077 39.2933 41.379V39.6549C39.2933 39.4263 39.3841 39.207 39.5458 39.0453C39.7075 38.8837 39.9267 38.7928 40.1554 38.7928C40.384 38.7928 40.6033 38.8837 40.7649 39.0453C40.9266 39.207 41.0174 39.4263 41.0174 39.6549V41.379C41.0174 41.6077 40.9266 41.8269 40.7649 41.9886C40.6033 42.1503 40.384 42.2411 40.1554 42.2411ZM28.0864 31.0342C27.8578 31.0342 27.6385 30.9434 27.4768 30.7817C27.3152 30.6201 27.2243 30.4008 27.2243 30.1721V28.448C27.2243 28.2194 27.3152 28.0001 27.4768 27.8384C27.6385 27.6768 27.8578 27.5859 28.0864 27.5859C28.315 27.5859 28.5343 27.6768 28.696 27.8384C28.8577 28.0001 28.9485 28.2194 28.9485 28.448V30.1721C28.9485 30.4008 28.8577 30.6201 28.696 30.7817C28.5343 30.9434 28.315 31.0342 28.0864 31.0342Z" fill="#8653E0"/>
<path d="M49.6379 45.6895H1.36207C1.13343 45.6895 0.914163 45.7803 0.752494 45.9419C0.590825 46.1036 0.5 46.3229 0.5 46.5515L0.5 48.2757C0.5 48.5043 0.590825 48.7236 0.752494 48.8852C0.914163 49.0469 1.13343 49.1377 1.36207 49.1377H13.431C13.431 49.3664 13.5219 49.5856 13.6835 49.7473C13.8452 49.909 14.0645 49.9998 14.2931 49.9998H36.7069C36.9355 49.9998 37.1548 49.909 37.3165 49.7473C37.4781 49.5856 37.569 49.3664 37.569 49.1377H49.6379C49.8666 49.1377 50.0858 49.0469 50.2475 48.8852C50.4092 48.7236 50.5 48.5043 50.5 48.2757V46.5515C50.5 46.3229 50.4092 46.1036 50.2475 45.9419C50.0858 45.7803 49.8666 45.6895 49.6379 45.6895Z" fill="#7F92FF"/>
<path d="M37.5686 45.6895V49.1377C37.5686 49.3664 37.4778 49.5856 37.3161 49.7473C37.1544 49.909 36.9352 49.9998 36.7065 49.9998H14.2927C14.0641 49.9998 13.8448 49.909 13.6832 49.7473C13.5215 49.5856 13.4307 49.3664 13.4307 49.1377V45.6895H37.5686Z" fill="#BFBFFF"/>
<path d="M33.2594 3.98291V14.6553H17.7422V3.98291L25.2853 6.97601C25.4245 7.0269 25.5772 7.0269 25.7163 6.97601L33.2594 3.98291Z" fill="#000062"/>
<path d="M47.5261 20.7846C47.3834 20.4974 47.1633 20.2556 46.8907 20.0866C46.6181 19.9175 46.3038 19.8279 45.983 19.8277H39.2933V18.1036L34.6295 13.4398C34.469 13.2787 34.2782 13.1508 34.0681 13.0635C33.8581 12.9763 33.6329 12.9313 33.4054 12.9312H16.8278C16.5744 12.9299 16.3238 12.9849 16.0942 13.0922C15.8646 13.1995 15.6617 13.3565 15.5002 13.5519L11.7071 18.1036V19.8277H5.01748C4.69671 19.8279 4.38236 19.9175 4.10976 20.0866C3.83715 20.2556 3.61711 20.4974 3.47437 20.7846L1.3623 25.0001H49.6382L47.5261 20.7846Z" fill="url(#paint1_linear_18392_74917)"/>
<path d="M39.2923 18.103V20.6892C39.2923 20.9179 39.2014 21.1371 39.0398 21.2988C38.8781 21.4605 38.6588 21.5513 38.4302 21.5513H12.5681C12.3395 21.5513 12.1202 21.4605 11.9585 21.2988C11.7969 21.1371 11.7061 20.9179 11.7061 20.6892V18.103H39.2923Z" fill="url(#paint2_linear_18392_74917)"/>
<path d="M13.4307 21.5518H37.5686V25H13.4307V21.5518Z" fill="url(#paint3_linear_18392_74917)"/>
<path d="M37.5685 3.87931C37.5738 4.07062 37.5134 4.25796 37.3973 4.41012C37.2812 4.56227 37.1165 4.67006 36.9306 4.71552L35.8444 5.00862L33.2582 5.7069L25.7151 7.73276C25.5737 7.76724 25.4254 7.76724 25.284 7.73276L17.7409 5.7069L14.0685 4.71552C13.8821 4.6688 13.7167 4.56114 13.5984 4.40964C13.4802 4.25814 13.416 4.07148 13.416 3.87931C13.416 3.68714 13.4802 3.50048 13.5984 3.34898C13.7167 3.19748 13.8821 3.08982 14.0685 3.0431L25.284 0.0258621C25.4254 -0.00862069 25.5737 -0.00862069 25.7151 0.0258621L35.8444 2.75L36.9306 3.0431C37.1165 3.08856 37.2812 3.19635 37.3973 3.3485C37.5134 3.50066 37.5738 3.688 37.5685 3.87931Z" fill="url(#paint4_linear_18392_74917)"/>
<path d="M38.2154 9.95649C38.1373 10.0751 38.0312 10.1725 37.9063 10.2402C37.7815 10.3079 37.6419 10.3437 37.4999 10.3444C37.3304 10.3464 37.1646 10.2952 37.0258 10.1979C36.6621 9.95812 36.3637 9.63168 36.1575 9.24794C35.9514 8.8642 35.8439 8.43521 35.8447 7.9996V5.00822L36.9309 4.71511C37.1168 4.66966 37.2816 4.56187 37.3976 4.40971C37.5137 4.25755 37.5741 4.07021 37.5689 3.87891V7.9996C37.5689 8.30908 37.724 8.59701 37.9827 8.76684C38.0767 8.8291 38.1575 8.90945 38.2202 9.0032C38.2829 9.09696 38.3264 9.20225 38.348 9.31295C38.3697 9.42365 38.3691 9.53756 38.3463 9.64804C38.3236 9.75852 38.2791 9.86337 38.2154 9.95649Z" fill="url(#paint5_linear_18392_74917)"/>
</g>
<defs>
<linearGradient id="paint0_linear_18392_74917" x1="25.5" y1="34.4824" x2="25.5" y2="45.6893" gradientUnits="userSpaceOnUse">
<stop stop-color="#370FA6"/>
<stop offset="1" stop-color="#010063"/>
</linearGradient>
<linearGradient id="paint1_linear_18392_74917" x1="1.3623" y1="16.4248" x2="49.6382" y2="16.4248" gradientUnits="userSpaceOnUse">
<stop stop-color="#381C98"/>
<stop offset="1" stop-color="#16B2F6"/>
</linearGradient>
<linearGradient id="paint2_linear_18392_74917" x1="37.662" y1="20.0096" x2="14.0144" y2="19.2393" gradientUnits="userSpaceOnUse">
<stop stop-color="#000062"/>
<stop offset="1" stop-color="#5E1AD5"/>
</linearGradient>
<linearGradient id="paint3_linear_18392_74917" x1="36.1421" y1="23.4584" x2="15.4454" y2="22.8685" gradientUnits="userSpaceOnUse">
<stop stop-color="#000062"/>
<stop offset="1" stop-color="#5E1AD5"/>
</linearGradient>
<linearGradient id="paint4_linear_18392_74917" x1="13.416" y1="2.24592" x2="37.5688" y2="2.24592" gradientUnits="userSpaceOnUse">
<stop stop-color="#381C98"/>
<stop offset="1" stop-color="#16B2F6"/>
</linearGradient>
<linearGradient id="paint5_linear_18392_74917" x1="35.8447" y1="5.75052" x2="38.3639" y2="5.75052" gradientUnits="userSpaceOnUse">
<stop stop-color="#381C98"/>
<stop offset="1" stop-color="#16B2F6"/>
</linearGradient>
<clipPath id="clip0_18392_74917">
<rect width="50" height="50" fill="white" transform="translate(0.5)"/>
</clipPath>
</defs>
</svg>
