<svg width="41" height="48" viewBox="0 0 41 48" fill="none" xmlns="http://www.w3.org/2000/svg">
<path d="M28.6071 28.2702H11.5961C10.4675 28.2702 9.3805 27.7951 8.61381 26.967C7.84712 26.1388 7.4572 25.0181 7.54421 23.8928L9.10387 3.75036C9.26651 1.64737 11.046 0 13.1557 0H27.0474C29.1571 0 30.9366 1.64737 31.0992 3.75036L32.6589 23.8928C32.7459 25.0181 32.356 26.1388 31.5893 26.967C30.8226 27.7951 29.7356 28.2702 28.6071 28.2702ZM13.1557 1.45455C11.8013 1.45455 10.6586 2.51207 10.5542 3.86257L8.99449 24.005C8.93767 24.7383 9.18164 25.4393 9.68128 25.979C10.1806 26.5185 10.8606 26.8157 11.5961 26.8157H28.6071C29.3425 26.8157 30.0225 26.5185 30.5218 25.979C31.0215 25.4393 31.2654 24.7383 31.2086 24.005L29.649 3.86257C29.5446 2.51207 28.4018 1.45455 27.0474 1.45455H13.1557Z" fill="#1E293B"/>
<path d="M32.3086 30.8904H7.8956C6.13956 30.8904 4.71094 29.4618 4.71094 27.7058V21.6433C4.71094 21.2417 5.03658 20.916 5.43821 20.916C5.83984 20.916 6.16548 21.2417 6.16548 21.6433V27.7058C6.16548 28.6596 6.94176 29.4359 7.8956 29.4359H32.3086C33.2624 29.4359 34.0387 28.6596 34.0387 27.7058V21.6433C34.0387 21.2417 34.3643 20.916 34.766 20.916C35.1676 20.916 35.4933 21.2417 35.4933 21.6433V27.7058C35.4933 29.4618 34.0646 30.8904 32.3086 30.8904Z" fill="#1E293B"/>
<path d="M32.3086 34.4959H7.8956C6.13956 34.4959 4.71094 33.0673 4.71094 31.3109V25.2488C4.71094 24.8471 5.03658 24.5215 5.43821 24.5215C5.83984 24.5215 6.16548 24.8471 6.16548 25.2488V31.3109C6.16548 32.2651 6.94176 33.0414 7.8956 33.0414H32.3086C33.2624 33.0414 34.0387 32.2651 34.0387 31.3109V25.2488C34.0387 24.8471 34.3643 24.5215 34.766 24.5215C35.1676 24.5215 35.4933 24.8471 35.4933 25.2488V31.3109C35.4933 33.0673 34.0646 34.4959 32.3086 34.4959Z" fill="#1E293B"/>
<path d="M5.43785 24.0906H1.99716C0.895952 24.0906 0 23.1946 0 22.0934V21.2741C0 20.1729 0.895952 19.2773 1.99716 19.2773H4.16797C5.26918 19.2773 6.16513 20.1729 6.16513 21.2741V23.3633C6.16513 23.7649 5.83949 24.0906 5.43785 24.0906ZM1.99716 20.7319C1.6978 20.7319 1.45455 20.9751 1.45455 21.2741V22.0934C1.45455 22.3928 1.6978 22.636 1.99716 22.636H4.71058V21.2741C4.71058 20.9751 4.46733 20.7319 4.16797 20.7319H1.99716Z" fill="#1E293B"/>
<path d="M38.2074 24.0906H34.7663C34.3647 24.0906 34.0391 23.7649 34.0391 23.3633V21.2741C34.0391 20.1729 34.935 19.2773 36.0362 19.2773H38.2074C39.3086 19.2773 40.2042 20.1729 40.2042 21.2741V22.0934C40.2042 23.1946 39.3086 24.0906 38.2074 24.0906ZM35.4936 22.636H38.2074C38.5064 22.636 38.7496 22.3928 38.7496 22.0934V21.2741C38.7496 20.9751 38.5064 20.7319 38.2074 20.7319H36.0362C35.7369 20.7319 35.4936 20.9751 35.4936 21.2741V22.636Z" fill="#1E293B"/>
<path d="M21.8223 30.8924C21.4206 30.8924 21.095 30.5668 21.095 30.1651V28.271H19.1088V30.1651C19.1088 30.5668 18.7832 30.8924 18.3816 30.8924C17.9799 30.8924 17.6543 30.5668 17.6543 30.1651V27.5437C17.6543 27.142 17.9799 26.8164 18.3816 26.8164H21.8223C22.2239 26.8164 22.5495 27.142 22.5495 27.5437V30.1651C22.5495 30.5668 22.2239 30.8924 21.8223 30.8924Z" fill="#1E293B"/>
<path d="M9.34641 44.8921C8.94478 44.8921 8.61914 44.5665 8.61914 44.1648V42.6591C8.61914 42.3459 8.81942 42.0682 9.1163 41.9692L19.8716 38.3839C20.2548 38.255 20.665 38.4631 20.7917 38.8438C20.9189 39.2248 20.7129 39.6368 20.3319 39.7639L10.0737 43.1833V44.1648C10.0737 44.5665 9.74805 44.8921 9.34641 44.8921Z" fill="#1E293B"/>
<path d="M20.1023 43.6392C19.7006 43.6392 19.375 43.3136 19.375 42.9119V33.7702C19.375 33.3686 19.7006 33.043 20.1023 33.043C20.5039 33.043 20.8295 33.3686 20.8295 33.7702V42.9119C20.8295 43.3136 20.5039 43.6392 20.1023 43.6392Z" fill="#1E293B"/>
<path d="M9.34597 48.0009C8.08851 48.0009 7.06543 46.9778 7.06543 45.72C7.06543 44.4625 8.08851 43.4395 9.34597 43.4395C10.6038 43.4395 11.6269 44.4625 11.6269 45.72C11.6269 46.9778 10.6038 48.0009 9.34597 48.0009ZM9.34597 44.894C8.89036 44.894 8.51998 45.2644 8.51998 45.72C8.51998 46.1756 8.89036 46.5463 9.34597 46.5463C9.80158 46.5463 10.1723 46.1756 10.1723 45.72C10.1723 45.2644 9.80158 44.894 9.34597 44.894Z" fill="#1E293B"/>
<path d="M9.34641 44.8921C8.94478 44.8921 8.61914 44.5665 8.61914 44.1648V42.6591C8.61914 42.3459 8.81942 42.0682 9.1163 41.9692L19.8716 38.3839C20.2548 38.255 20.665 38.4631 20.7917 38.8438C20.9189 39.2248 20.7129 39.6368 20.3319 39.7639L10.0737 43.1833V44.1648C10.0737 44.5665 9.74805 44.8921 9.34641 44.8921Z" fill="#1E293B"/>
<path d="M9.34597 48.0009C8.08851 48.0009 7.06543 46.9778 7.06543 45.72C7.06543 44.4625 8.08851 43.4395 9.34597 43.4395C10.6038 43.4395 11.6269 44.4625 11.6269 45.72C11.6269 46.9778 10.6038 48.0009 9.34597 48.0009ZM9.34597 44.894C8.89036 44.894 8.51998 45.2644 8.51998 45.72C8.51998 46.1756 8.89036 46.5463 9.34597 46.5463C9.80158 46.5463 10.1723 46.1756 10.1723 45.72C10.1723 45.2644 9.80158 44.894 9.34597 44.894Z" fill="#1E293B"/>
<path d="M20.1022 46.7434C18.8444 46.7434 17.8213 45.7203 17.8213 44.4625C17.8213 43.2047 18.8444 42.1816 20.1022 42.1816C21.3596 42.1816 22.3827 43.2047 22.3827 44.4625C22.3827 45.7203 21.3596 46.7434 20.1022 46.7434ZM20.1022 43.6362C19.6466 43.6362 19.2758 44.0069 19.2758 44.4625C19.2758 44.9181 19.6466 45.2889 20.1022 45.2889C20.5578 45.2889 20.9282 44.9181 20.9282 44.4625C20.9282 44.0069 20.5578 43.6362 20.1022 43.6362Z" fill="#1E293B"/>
<path d="M20.1022 46.7434C18.8444 46.7434 17.8213 45.7203 17.8213 44.4625C17.8213 43.2047 18.8444 42.1816 20.1022 42.1816C21.3596 42.1816 22.3827 43.2047 22.3827 44.4625C22.3827 45.7203 21.3596 46.7434 20.1022 46.7434ZM20.1022 43.6362C19.6466 43.6362 19.2758 44.0069 19.2758 44.4625C19.2758 44.9181 19.6466 45.2889 20.1022 45.2889C20.5578 45.2889 20.9282 44.9181 20.9282 44.4625C20.9282 44.0069 20.5578 43.6362 20.1022 43.6362Z" fill="#1E293B"/>
<path d="M30.8566 44.8921C30.4549 44.8921 30.1293 44.5665 30.1293 44.1648V43.1833L19.8715 39.7639C19.4904 39.6368 19.2845 39.2248 19.4116 38.8438C19.5384 38.4631 19.9485 38.255 20.3317 38.3839L31.0867 41.9692C31.3835 42.0682 31.5838 42.3459 31.5838 42.6591V44.1648C31.5838 44.5665 31.2582 44.8921 30.8566 44.8921Z" fill="#1E293B"/>
<path d="M30.8571 48.0009C29.5993 48.0009 28.5762 46.9778 28.5762 45.72C28.5762 44.4625 29.5993 43.4395 30.8571 43.4395C32.1145 43.4395 33.1376 44.4625 33.1376 45.72C33.1376 46.9778 32.1145 48.0009 30.8571 48.0009ZM30.8571 44.894C30.4015 44.894 30.0307 45.2644 30.0307 45.72C30.0307 46.1756 30.4015 46.5463 30.8571 46.5463C31.3127 46.5463 31.6831 46.1756 31.6831 45.72C31.6831 45.2644 31.3127 44.894 30.8571 44.894Z" fill="#1E293B"/>
</svg>
