<svg width="20" height="20" viewBox="0 0 20 20" fill="none" xmlns="http://www.w3.org/2000/svg">
<g id="Icon/Outline/clipboard-list">
<path id="Icon" d="M7.50008 4.16667H5.83341C4.91294 4.16667 4.16675 4.91286 4.16675 5.83333V15.8333C4.16675 16.7538 4.91294 17.5 5.83341 17.5H14.1667C15.0872 17.5 15.8334 16.7538 15.8334 15.8333V5.83333C15.8334 4.91286 15.0872 4.16667 14.1667 4.16667H12.5001M7.50008 4.16667C7.50008 5.08714 8.24627 5.83333 9.16675 5.83333H10.8334C11.7539 5.83333 12.5001 5.08714 12.5001 4.16667M7.50008 4.16667C7.50008 3.24619 8.24627 2.5 9.16675 2.5H10.8334C11.7539 2.5 12.5001 3.24619 12.5001 4.16667M10.0001 10H12.5001M10.0001 13.3333H12.5001M7.50008 10H7.50841M7.50008 13.3333H7.50841" stroke="white" stroke-width="1.5" stroke-linecap="round"/>
</g>
</svg>
