<svg width="24" height="25" viewBox="0 0 24 25" fill="none" xmlns="http://www.w3.org/2000/svg">
<g opacity="0.8">
<path d="M19 11.2383H5M19 11.2383C20.1046 11.2383 21 12.1337 21 13.2383V19.2383C21 20.3429 20.1046 21.2383 19 21.2383H5C3.89543 21.2383 3 20.3429 3 19.2383V13.2383C3 12.1337 3.89543 11.2383 5 11.2383M19 11.2383V9.23828C19 8.13371 18.1046 7.23828 17 7.23828M5 11.2383V9.23828C5 8.13371 5.89543 7.23828 7 7.23828M7 7.23828V5.23828C7 4.13371 7.89543 3.23828 9 3.23828H15C16.1046 3.23828 17 4.13371 17 5.23828V7.23828M7 7.23828H17" stroke="#1E293B" stroke-width="2" stroke-linecap="round" stroke-linejoin="round"/>
</g>
</svg>
