<svg width="64" height="65" viewBox="0 0 64 65" fill="none" xmlns="http://www.w3.org/2000/svg">
<g clip-path="url(#clip0_1414_34992)">
<path d="M64 41.3008H0V47.0151C0 47.9244 0.361224 48.7964 1.00421 49.4394C1.64719 50.0824 2.51926 50.4436 3.42857 50.4436H60.5714C61.4807 50.4436 62.3528 50.0824 62.9958 49.4394C63.6388 48.7964 64 47.9244 64 47.0151V41.3008ZM32 49.3008C31.3219 49.3008 30.659 49.0997 30.0952 48.723C29.5314 48.3462 29.0919 47.8108 28.8324 47.1843C28.5729 46.5578 28.505 45.8684 28.6373 45.2033C28.7696 44.5383 29.0961 43.9273 29.5756 43.4478C30.0551 42.9684 30.666 42.6418 31.3311 42.5095C31.9962 42.3772 32.6856 42.4451 33.3121 42.7046C33.9385 42.9641 34.474 43.4036 34.8508 43.9674C35.2275 44.5312 35.4286 45.1941 35.4286 45.8722C35.4286 46.7815 35.0673 47.6536 34.4244 48.2966C33.7814 48.9396 32.9093 49.3008 32 49.3008Z" fill="#8080FF"/>
<path d="M31.9998 47.0162C32.631 47.0162 33.1426 46.5045 33.1426 45.8733C33.1426 45.2421 32.631 44.7305 31.9998 44.7305C31.3686 44.7305 30.8569 45.2421 30.8569 45.8733C30.8569 46.5045 31.3686 47.0162 31.9998 47.0162Z" fill="#8080FF"/>
<path d="M48 63.0159C48 62.7128 47.8796 62.4221 47.6653 62.2078C47.4509 61.9935 47.1602 61.873 46.8571 61.873H17.1429C16.8398 61.873 16.5491 61.9935 16.3347 62.2078C16.1204 62.4221 16 62.7128 16 63.0159V64.1588H48V63.0159Z" fill="#0000FF"/>
<path d="M64 3.58677C64 2.67746 63.6388 1.80539 62.9958 1.16241C62.3528 0.519427 61.4807 0.158203 60.5714 0.158203H3.42857C2.51926 0.158203 1.64719 0.519427 1.00421 1.16241C0.361224 1.80539 0 2.67746 0 3.58677V39.0153H64V3.58677Z" fill="#0000FF"/>
<path d="M24.7921 52.7305L22.2207 59.5876H41.7796L39.2081 52.7305H24.7921Z" fill="#0000FF"/>
</g>
<defs>
<clipPath id="clip0_1414_34992">
<rect width="64" height="64" fill="white" transform="translate(0 0.158203)"/>
</clipPath>
</defs>
</svg>
