<svg width="84" height="84" viewBox="0 0 84 84" fill="none" xmlns="http://www.w3.org/2000/svg">
<path d="M54.6296 30.5216C55.2346 28.241 55.332 25.8555 54.9149 23.5332C54.4979 21.2109 53.5765 19.0083 52.2159 17.0807C50.8552 15.1531 49.0883 13.5474 47.0397 12.3768C44.9911 11.2061 42.7107 10.4991 40.3592 10.3054C38.0077 10.1118 35.6423 10.4362 33.4298 11.2559C31.2173 12.0756 29.2115 13.3706 27.5538 15.0497C25.8961 16.7287 24.6268 18.7509 23.8355 20.9737C23.0441 23.1965 22.7499 25.5658 22.9736 27.9146C19.3915 28.0237 15.9011 29.0736 12.8532 30.9587C9.80522 32.8439 7.30708 35.498 5.60971 38.6544C3.91234 41.8108 3.07551 45.3582 3.18331 48.9404C3.29112 52.5227 4.33974 56.0134 6.22384 59.062C8.10794 62.1106 10.7612 64.6097 13.9169 66.3082C17.0727 68.0066 20.6199 68.8447 24.2022 68.7382C27.7844 68.6316 31.2755 67.5842 34.3248 65.7012C37.374 63.8182 39.874 61.1658 41.5736 58.0106C43.0977 61.6483 45.6424 64.767 48.9002 66.9901C52.1581 69.2131 55.9899 70.4455 59.9328 70.5384C63.8758 70.6312 67.7614 69.5806 71.1203 67.5134C74.4792 65.4462 77.1678 62.4508 78.8615 58.8889C80.5552 55.327 81.1815 51.3509 80.6648 47.4409C80.148 43.5308 78.5104 39.8539 75.9496 36.8542C73.3888 33.8546 70.0144 31.6604 66.2338 30.5367C62.4532 29.4129 58.4281 29.4077 54.6446 30.5216H54.6296Z" fill="#DFE4FF"/>
<path d="M42.2702 33.3291H20.2052C19.7602 33.349 19.3334 33.5118 18.9881 33.7934C18.6428 34.0749 18.3974 34.4602 18.2882 34.8921L15.3782 44.3931C15.2572 44.7942 15.2327 45.2183 15.3067 45.6307C15.3807 46.0431 15.5512 46.4321 15.8042 46.7661L32.4722 67.4301C32.6451 67.6617 32.8697 67.8497 33.128 67.9792C33.3863 68.1087 33.6713 68.1761 33.9602 68.1761C34.2492 68.1761 34.5342 68.1087 34.7925 67.9792C35.0508 67.8497 35.2754 67.6617 35.4482 67.4301L52.1132 46.7661C52.2876 46.5477 52.4236 46.3012 52.5152 46.0371" fill="white"/>
<path d="M42.2702 33.3291H20.2052C19.7602 33.349 19.3334 33.5118 18.9881 33.7934C18.6428 34.0749 18.3974 34.4602 18.2882 34.8921L15.3782 44.3931C15.2572 44.7942 15.2327 45.2183 15.3067 45.6307C15.3807 46.0431 15.5512 46.4321 15.8042 46.7661L32.4722 67.4301C32.6451 67.6617 32.8697 67.8497 33.128 67.9792C33.3863 68.1087 33.6713 68.1761 33.9602 68.1761C34.2492 68.1761 34.5342 68.1087 34.7925 67.9792C35.0508 67.8497 35.2754 67.6617 35.4482 67.4301L52.1132 46.7661C52.2876 46.5477 52.4236 46.3012 52.5152 46.0371" stroke="#000062" stroke-width="1.5" stroke-miterlimit="10"/>
<path d="M29.258 33.3291L26.543 45.6231L33.959 68.1741" stroke="#000062" stroke-width="1.5" stroke-miterlimit="10"/>
<path d="M38.6627 33.3291L41.3747 45.6231L33.9587 68.1741" stroke="#000062" stroke-width="1.5" stroke-miterlimit="10"/>
<path d="M15.2673 45.0986H26.6613H31.8183" stroke="#000062" stroke-width="1.5" stroke-miterlimit="10"/>
<path d="M36.1055 45.0986H41.2595H41.2625H51.7625" stroke="#000062" stroke-width="1.5" stroke-miterlimit="10"/>
<path d="M72.8778 17.4683C72.7686 17.0363 72.5232 16.6511 72.1779 16.3695C71.8326 16.088 71.4058 15.9252 70.9608 15.9053H43.4537C43.0092 15.9258 42.5831 16.0889 42.2384 16.3704C41.8937 16.6519 41.6488 17.0368 41.5397 17.4683L38.6297 26.9693C38.5054 27.3702 38.4795 27.7952 38.5541 28.2082C38.6288 28.6213 38.8019 29.0103 39.0587 29.3423L55.7237 50.0033C55.8966 50.2354 56.1212 50.4239 56.3799 50.5538C56.6385 50.6837 56.9239 50.7513 57.2132 50.7513C57.5026 50.7513 57.788 50.6837 58.0466 50.5538C58.3052 50.4239 58.5299 50.2354 58.7027 50.0033L75.3677 29.3423C75.6246 29.0103 75.7977 28.6213 75.8724 28.2082C75.947 27.7952 75.9211 27.3702 75.7967 26.9693L72.8778 17.4683Z" fill="white" stroke="#000062" stroke-width="1.5" stroke-miterlimit="10"/>
<path d="M52.505 15.9053L49.793 28.1993L57.206 50.7533" stroke="#000062" stroke-width="1.5" stroke-miterlimit="10"/>
<path d="M61.9103 15.9053L64.6223 28.1993L57.2063 50.7533" stroke="#000062" stroke-width="1.5" stroke-miterlimit="10"/>
<path d="M38.5125 27.6738H75.9045" stroke="#000062" stroke-width="1.5" stroke-miterlimit="10"/>
<path d="M33.9599 45.8538C34.3774 45.8538 34.7159 45.5153 34.7159 45.0978C34.7159 44.6803 34.3774 44.3418 33.9599 44.3418C33.5423 44.3418 33.2039 44.6803 33.2039 45.0978C33.2039 45.5153 33.5423 45.8538 33.9599 45.8538Z" fill="#000062"/>
<path d="M23.0603 33.3291V38.5551" stroke="#000062" stroke-width="1.5" stroke-miterlimit="10"/>
<path d="M23.0603 39.6055V40.7065" stroke="#000062" stroke-width="1.5" stroke-miterlimit="10"/>
<path d="M72.8778 17.4683C72.7686 17.0363 72.5232 16.6511 72.1779 16.3695C71.8326 16.088 71.4058 15.9252 70.9608 15.9053H43.4537C43.0092 15.9258 42.5831 16.0889 42.2384 16.3704C41.8937 16.6519 41.6488 17.0368 41.5397 17.4683L38.6297 26.9693C38.5054 27.3702 38.4795 27.7952 38.5541 28.2082C38.6288 28.6213 38.8019 29.0103 39.0587 29.3423L55.7237 50.0033C55.8966 50.2354 56.1212 50.4239 56.3799 50.5538C56.6385 50.6837 56.9239 50.7513 57.2132 50.7513C57.5026 50.7513 57.788 50.6837 58.0466 50.5538C58.3052 50.4239 58.5299 50.2354 58.7027 50.0033L75.3677 29.3423C75.6246 29.0103 75.7977 28.6213 75.8724 28.2082C75.947 27.7952 75.9211 27.3702 75.7967 26.9693L72.8778 17.4683Z" fill="white" stroke="#7F92FF" stroke-width="1.5" stroke-miterlimit="10"/>
<path d="M52.505 15.9053L49.793 28.1993L57.206 50.7533" stroke="#7F92FF" stroke-width="1.5" stroke-miterlimit="10"/>
<path d="M61.9103 15.9053L64.6223 28.1993L57.2063 50.7533" stroke="#7F92FF" stroke-width="1.5" stroke-miterlimit="10"/>
<path d="M38.5125 27.6738H75.9045" stroke="#7F92FF" stroke-width="1.5" stroke-miterlimit="10"/>
<path d="M21.6918 12.3954H21.1788V11.8824C21.1819 11.7145 21.1183 11.5523 21.0018 11.4313C20.8854 11.3103 20.7256 11.2406 20.5578 11.2374C20.3899 11.2342 20.2276 11.2979 20.1066 11.4143C19.9857 11.5308 19.9159 11.6905 19.9128 11.8584V12.3714L19.3998 12.3504C19.3166 12.3488 19.234 12.3637 19.1566 12.394C19.0792 12.4244 19.0085 12.4697 18.9486 12.5273C18.8887 12.585 18.8408 12.6539 18.8075 12.7301C18.7743 12.8063 18.7563 12.8883 18.7548 12.9714C18.7532 13.0545 18.768 13.1372 18.7983 13.2146C18.8287 13.292 18.874 13.3626 18.9317 13.4225C18.9893 13.4824 19.0582 13.5304 19.1344 13.5636C19.2106 13.5969 19.2926 13.6148 19.3758 13.6164H19.8888V14.1294C19.9093 14.2792 19.9828 14.4166 20.0958 14.5169C20.2089 14.6172 20.3541 14.6737 20.5052 14.6763C20.6564 14.6788 20.8034 14.6272 20.9198 14.5307C21.0362 14.4343 21.1142 14.2994 21.1398 14.1504V13.6374H21.6528C21.8206 13.6406 21.9829 13.577 22.1039 13.4605C22.2248 13.344 22.2946 13.1843 22.2978 13.0164C22.3009 12.8485 22.2373 12.6863 22.1208 12.5653C22.0044 12.4443 21.8446 12.3746 21.6768 12.3714L21.6918 12.3954Z" fill="#5E1AD5"/>
<path d="M62.0724 64.6972H61.5594V64.1842C61.5626 64.0163 61.4989 63.854 61.3825 63.7331C61.266 63.6121 61.1063 63.5424 60.9384 63.5392C60.7705 63.536 60.6082 63.5996 60.4873 63.7161C60.3663 63.8326 60.2966 63.9923 60.2934 64.1602V64.6732H59.7804C59.6972 64.6716 59.6146 64.6864 59.5372 64.7168C59.4598 64.7471 59.3892 64.7924 59.3293 64.8501C59.2083 64.9666 59.1386 65.1263 59.1354 65.2942C59.1322 65.4621 59.1958 65.6243 59.3123 65.7453C59.4287 65.8662 59.5885 65.936 59.7564 65.9392H60.2694V66.4522C60.2678 66.5353 60.2826 66.6179 60.313 66.6953C60.3433 66.7727 60.3886 66.8434 60.4463 66.9033C60.5627 67.0242 60.7225 67.094 60.8904 67.0972C61.0583 67.1004 61.2205 67.0367 61.3415 66.9203C61.4624 66.8038 61.5322 66.6441 61.5354 66.4762V65.9632H62.0484C62.2163 65.9664 62.3785 65.9027 62.4995 65.7863C62.6204 65.6698 62.6902 65.5101 62.6934 65.3422C62.6966 65.1743 62.6329 65.012 62.5165 64.8911C62.4 64.7701 62.2403 64.7004 62.0724 64.6972Z" fill="#5E1AD5"/>
<path d="M16.4371 71.6581H15.9241V71.1451C15.9273 70.9772 15.8637 70.815 15.7472 70.694C15.6307 70.573 15.471 70.5033 15.3031 70.5001C15.1352 70.4969 14.973 70.5606 14.852 70.677C14.731 70.7935 14.6613 70.9532 14.6581 71.1211V71.6341H14.1451C13.9772 71.6309 13.815 71.6946 13.694 71.811C13.573 71.9275 13.5033 72.0872 13.5001 72.2551C13.4969 72.423 13.5606 72.5853 13.677 72.7062C13.7935 72.8272 13.9532 72.8969 14.1211 72.9001H14.6341V73.4131C14.6309 73.581 14.6946 73.7433 14.811 73.8642C14.9275 73.9852 15.0872 74.0549 15.2551 74.0581C15.423 74.0613 15.5853 73.9977 15.7062 73.8812C15.8272 73.7647 15.8969 73.605 15.9001 73.4371V72.9241H16.4131C16.581 72.9273 16.7433 72.8637 16.8642 72.7472C16.9852 72.6307 17.0549 72.471 17.0581 72.3031C17.0613 72.1352 16.9977 71.973 16.8812 71.852C16.7647 71.731 16.605 71.6613 16.4371 71.6581Z" fill="#5E1AD5"/>
</svg>
