<svg width="24" height="25" viewBox="0 0 24 25" fill="none" xmlns="http://www.w3.org/2000/svg">
<path d="M5 12.9453H5.01M12 12.9453H12.01M19 12.9453H19.01M6 12.9453C6 13.4976 5.55228 13.9453 5 13.9453C4.44772 13.9453 4 13.4976 4 12.9453C4 12.393 4.44772 11.9453 5 11.9453C5.55228 11.9453 6 12.393 6 12.9453ZM13 12.9453C13 13.4976 12.5523 13.9453 12 13.9453C11.4477 13.9453 11 13.4976 11 12.9453C11 12.393 11.4477 11.9453 12 11.9453C12.5523 11.9453 13 12.393 13 12.9453ZM20 12.9453C20 13.4976 19.5523 13.9453 19 13.9453C18.4477 13.9453 18 13.4976 18 12.9453C18 12.393 18.4477 11.9453 19 11.9453C19.5523 11.9453 20 12.393 20 12.9453Z" stroke="#0F172A" stroke-width="2" stroke-linecap="round" stroke-linejoin="round"/>
</svg>
