<svg width="49" height="49" viewBox="0 0 49 49" fill="none" xmlns="http://www.w3.org/2000/svg">
<g id="Group">
<path id="Vector" d="M24.5 10.7383C21.83 10.7383 19.2199 11.53 16.9998 13.0134C14.7797 14.4968 13.0494 16.6052 12.0276 19.0721C11.0058 21.5389 10.7385 24.2533 11.2594 26.872C11.7803 29.4907 13.0661 31.8962 14.9541 33.7842C16.8421 35.6722 19.2475 36.958 21.8663 37.4789C24.485 37.9998 27.1994 37.7324 29.6662 36.7107C32.133 35.6889 34.2414 33.9585 35.7248 31.7385C37.2082 29.5184 38 26.9083 38 24.2383C38 20.6579 36.5777 17.2241 34.0459 14.6923C31.5142 12.1606 28.0804 10.7383 24.5 10.7383ZM24.5 36.2383C22.1266 36.2383 19.8065 35.5345 17.8332 34.2159C15.8598 32.8973 14.3217 31.0232 13.4134 28.8305C12.5052 26.6378 12.2676 24.225 12.7306 21.8972C13.1936 19.5694 14.3365 17.4312 16.0147 15.753C17.693 14.0748 19.8311 12.9319 22.1589 12.4689C24.4867 12.0058 26.8995 12.2435 29.0922 13.1517C31.2849 14.06 33.1591 15.598 34.4776 17.5714C35.7962 19.5448 36.5 21.8649 36.5 24.2383C36.5 27.4209 35.2357 30.4731 32.9853 32.7236C30.7348 34.974 27.6826 36.2383 24.5 36.2383Z" fill="white"/>
<circle id="Ellipse 2638" cx="24.4992" cy="24.239" r="9.80538" fill="white"/>
<path id="Vector_2" d="M24.5 9.23828C24.6989 9.23828 24.8897 9.15926 25.0303 9.01861C25.171 8.87796 25.25 8.68719 25.25 8.48828V5.48828C25.25 5.28937 25.171 5.0986 25.0303 4.95795C24.8897 4.8173 24.6989 4.73828 24.5 4.73828C24.3011 4.73828 24.1103 4.8173 23.9697 4.95795C23.829 5.0986 23.75 5.28937 23.75 5.48828V8.48828C23.75 8.68719 23.829 8.87796 23.9697 9.01861C24.1103 9.15926 24.3011 9.23828 24.5 9.23828Z" fill="white"/>
<path id="Vector_3" d="M24.5 3.23828C24.6989 3.23828 24.8897 3.15926 25.0303 3.01861C25.171 2.87796 25.25 2.68719 25.25 2.48828V0.988281C25.25 0.789369 25.171 0.598603 25.0303 0.457951C24.8897 0.317298 24.6989 0.238281 24.5 0.238281C24.3011 0.238281 24.1103 0.317298 23.9697 0.457951C23.829 0.598603 23.75 0.789369 23.75 0.988281V2.48828C23.75 2.68719 23.829 2.87796 23.9697 3.01861C24.1103 3.15926 24.3011 3.23828 24.5 3.23828Z" fill="white"/>
<path id="Vector_4" d="M24.5 39.2383C24.3011 39.2383 24.1103 39.3173 23.9697 39.458C23.829 39.5986 23.75 39.7894 23.75 39.9883V42.9883C23.75 43.1872 23.829 43.378 23.9697 43.5186C24.1103 43.6593 24.3011 43.7383 24.5 43.7383C24.6989 43.7383 24.8897 43.6593 25.0303 43.5186C25.171 43.378 25.25 43.1872 25.25 42.9883V39.9883C25.25 39.7894 25.171 39.5986 25.0303 39.458C24.8897 39.3173 24.6989 39.2383 24.5 39.2383Z" fill="white"/>
<path id="Vector_5" d="M24.5 45.2383C24.3011 45.2383 24.1103 45.3173 23.9697 45.458C23.829 45.5986 23.75 45.7894 23.75 45.9883V47.4883C23.75 47.6872 23.829 47.878 23.9697 48.0186C24.1103 48.1593 24.3011 48.2383 24.5 48.2383C24.6989 48.2383 24.8897 48.1593 25.0303 48.0186C25.171 47.878 25.25 47.6872 25.25 47.4883V45.9883C25.25 45.7894 25.171 45.5986 25.0303 45.458C24.8897 45.3173 24.6989 45.2383 24.5 45.2383Z" fill="white"/>
<path id="Vector_6" d="M40.25 23.4883C40.0511 23.4883 39.8603 23.5673 39.7197 23.708C39.579 23.8486 39.5 24.0394 39.5 24.2383C39.5 24.4372 39.579 24.628 39.7197 24.7686C39.8603 24.9093 40.0511 24.9883 40.25 24.9883H43.25C43.4489 24.9883 43.6397 24.9093 43.7803 24.7686C43.921 24.628 44 24.4372 44 24.2383C44 24.0394 43.921 23.8486 43.7803 23.708C43.6397 23.5673 43.4489 23.4883 43.25 23.4883H40.25Z" fill="white"/>
<path id="Vector_7" d="M47.75 23.4883H46.25C46.0511 23.4883 45.8603 23.5673 45.7197 23.708C45.579 23.8486 45.5 24.0394 45.5 24.2383C45.5 24.4372 45.579 24.628 45.7197 24.7686C45.8603 24.9093 46.0511 24.9883 46.25 24.9883H47.75C47.9489 24.9883 48.1397 24.9093 48.2803 24.7686C48.421 24.628 48.5 24.4372 48.5 24.2383C48.5 24.0394 48.421 23.8486 48.2803 23.708C48.1397 23.5673 47.9489 23.4883 47.75 23.4883Z" fill="white"/>
<path id="Vector_8" d="M42.1549 7.33401C42.3516 7.33318 42.5402 7.25506 42.6799 7.1165L43.7449 6.059C43.8861 5.91777 43.9655 5.72623 43.9655 5.5265C43.9655 5.32678 43.8861 5.13523 43.7449 4.994C43.6037 4.85277 43.4121 4.77344 43.2124 4.77344C43.0127 4.77344 42.8211 4.85277 42.6799 4.994L41.6224 6.059C41.4827 6.19952 41.4043 6.38961 41.4043 6.58775C41.4043 6.78589 41.4827 6.97598 41.6224 7.1165C41.6925 7.18601 41.7756 7.24101 41.867 7.27833C41.9583 7.31565 42.0562 7.33458 42.1549 7.33401Z" fill="white"/>
<path id="Vector_9" d="M38.9672 10.5203C39.0664 10.5199 39.1646 10.4998 39.256 10.4612C39.3474 10.4226 39.4303 10.3662 39.4997 10.2953L40.5572 9.23784C40.6801 9.09436 40.7443 8.9098 40.737 8.72105C40.7297 8.53229 40.6515 8.35324 40.5179 8.21967C40.3843 8.0861 40.2053 8.00785 40.0165 8.00056C39.8277 7.99327 39.6432 8.05746 39.4997 8.18033L38.4422 9.23784C38.3025 9.37836 38.2241 9.56845 38.2241 9.76659C38.2241 9.96473 38.3025 10.1548 38.4422 10.2953C38.5807 10.4367 38.7694 10.5175 38.9672 10.5203Z" fill="white"/>
<path id="Vector_10" d="M35.7876 13.7391C35.8863 13.7397 35.9841 13.7207 36.0755 13.6834C36.1669 13.6461 36.25 13.5911 36.32 13.5216L37.3775 12.4566C37.5004 12.3131 37.5646 12.1286 37.5573 11.9398C37.55 11.751 37.4718 11.572 37.3382 11.4384C37.2047 11.3048 37.0256 11.2266 36.8368 11.2193C36.6481 11.212 36.4635 11.2762 36.32 11.3991L35.255 12.4566C35.1848 12.5263 35.129 12.6093 35.0909 12.7007C35.0528 12.7921 35.0332 12.8901 35.0332 12.9891C35.0332 13.0881 35.0528 13.1861 35.0909 13.2775C35.129 13.3689 35.1848 13.4519 35.255 13.5216C35.3251 13.5911 35.4082 13.6461 35.4996 13.6834C35.591 13.7207 35.6888 13.7397 35.7876 13.7391Z" fill="white"/>
<path id="Vector_11" d="M42.6802 41.36C42.5368 41.2372 42.3522 41.173 42.1634 41.1802C41.9747 41.1875 41.7956 41.2658 41.6621 41.3994C41.5285 41.5329 41.4502 41.712 41.4429 41.9007C41.4357 42.0895 41.4999 42.2741 41.6227 42.4175L42.6802 43.4825C42.75 43.5528 42.8329 43.6086 42.9243 43.6467C43.0157 43.6848 43.1137 43.7044 43.2127 43.7044C43.3117 43.7044 43.4098 43.6848 43.5012 43.6467C43.5926 43.6086 43.6755 43.5528 43.7452 43.4825C43.8155 43.4128 43.8713 43.3299 43.9094 43.2385C43.9475 43.1471 43.9671 43.049 43.9671 42.95C43.9671 42.851 43.9475 42.753 43.9094 42.6616C43.8713 42.5702 43.8155 42.4873 43.7452 42.4175L42.6802 41.36Z" fill="white"/>
<path id="Vector_12" d="M39.5 38.1803C39.3566 38.0575 39.172 37.9933 38.9833 38.0006C38.7945 38.0079 38.6154 38.0861 38.4819 38.2197C38.3483 38.3532 38.2701 38.5323 38.2628 38.721C38.2555 38.9098 38.3197 39.0944 38.4425 39.2378L39.5 40.2953C39.5695 40.3662 39.6523 40.4226 39.7437 40.4612C39.8352 40.4998 39.9333 40.5199 40.0325 40.5203C40.2304 40.5175 40.4191 40.4367 40.5575 40.2953C40.6972 40.1548 40.7756 39.9647 40.7756 39.7666C40.7756 39.5684 40.6972 39.3784 40.5575 39.2378L39.5 38.1803Z" fill="white"/>
<path id="Vector_13" d="M36.3197 34.994C36.1785 34.8528 35.987 34.7734 35.7872 34.7734C35.5875 34.7734 35.396 34.8528 35.2547 34.994C35.1135 35.1352 35.0342 35.3268 35.0342 35.5265C35.0342 35.7262 35.1135 35.9178 35.2547 36.059L36.3197 37.1165C36.4603 37.2562 36.6504 37.3346 36.8485 37.3346C37.0466 37.3346 37.2367 37.2562 37.3772 37.1165C37.5169 36.976 37.5953 36.7859 37.5953 36.5877C37.5953 36.3896 37.5169 36.1995 37.3772 36.059L36.3197 34.994Z" fill="white"/>
<g id="01">
<path id="Vector_14" d="M5.75049 23.4883C5.55158 23.4883 5.36081 23.5673 5.22016 23.708C5.07951 23.8486 5.00049 24.0394 5.00049 24.2383C5.00049 24.4372 5.07951 24.628 5.22016 24.7686C5.36081 24.9093 5.55158 24.9883 5.75049 24.9883H8.75049C8.9494 24.9883 9.14017 24.9093 9.28082 24.7686C9.42147 24.628 9.50049 24.4372 9.50049 24.2383C9.50049 24.0394 9.42147 23.8486 9.28082 23.708C9.14017 23.5673 8.9494 23.4883 8.75049 23.4883H5.75049Z" fill="white"/>
<path id="Vector_15" d="M3.5 24.2383C3.5 24.0394 3.42098 23.8486 3.28033 23.708C3.13968 23.5673 2.94891 23.4883 2.75 23.4883H1.25C1.05109 23.4883 0.860322 23.5673 0.719669 23.708C0.579017 23.8486 0.5 24.0394 0.5 24.2383C0.5 24.4372 0.579017 24.628 0.719669 24.7686C0.860322 24.9093 1.05109 24.9883 1.25 24.9883H2.75C2.94891 24.9883 3.13968 24.9093 3.28033 24.7686C3.42098 24.628 3.5 24.4372 3.5 24.2383Z" fill="white"/>
<path id="Vector_16" d="M6.32023 7.1165C6.46075 7.25619 6.65084 7.3346 6.84898 7.3346C7.04712 7.3346 7.23721 7.25619 7.37773 7.1165C7.51742 6.97598 7.59583 6.78589 7.59583 6.58775C7.59583 6.38961 7.51742 6.19952 7.37773 6.059L6.32023 4.994C6.179 4.85277 5.98746 4.77344 5.78773 4.77344C5.58801 4.77344 5.39646 4.85277 5.25523 4.994C5.114 5.13523 5.03467 5.32678 5.03467 5.5265C5.03467 5.72623 5.114 5.91777 5.25523 6.059L6.32023 7.1165Z" fill="white"/>
<path id="Vector_17" d="M9.49956 8.18033C9.35608 8.05746 9.17152 7.99327 8.98276 8.00056C8.79401 8.00785 8.61496 8.0861 8.48139 8.21967C8.34782 8.35324 8.26957 8.53229 8.26228 8.72105C8.25499 8.9098 8.31918 9.09436 8.44205 9.23784L9.49956 10.2953C9.56902 10.3662 9.65185 10.4226 9.74326 10.4612C9.83466 10.4998 9.93283 10.5199 10.0321 10.5203C10.2299 10.5175 10.4186 10.4367 10.5571 10.2953C10.6967 10.1548 10.7751 9.96473 10.7751 9.76659C10.7751 9.56845 10.6967 9.37836 10.5571 9.23784L9.49956 8.18033Z" fill="white"/>
<path id="Vector_18" d="M12.6802 13.4825C12.75 13.5528 12.8329 13.6086 12.9243 13.6467C13.0157 13.6848 13.1137 13.7044 13.2127 13.7044C13.3117 13.7044 13.4098 13.6848 13.5012 13.6467C13.5926 13.6086 13.6755 13.5528 13.7452 13.4825C13.8155 13.4128 13.8713 13.3299 13.9094 13.2385C13.9475 13.1471 13.9671 13.049 13.9671 12.95C13.9671 12.851 13.9475 12.753 13.9094 12.6616C13.8713 12.5702 13.8155 12.4873 13.7452 12.4175L12.6802 11.36C12.5368 11.2372 12.3522 11.173 12.1634 11.1802C11.9747 11.1875 11.7956 11.2658 11.6621 11.3994C11.5285 11.5329 11.4502 11.712 11.4429 11.9007C11.4357 12.0895 11.4999 12.2741 11.6227 12.4175L12.6802 13.4825Z" fill="white"/>
<path id="Vector_19" d="M6.32053 41.36L5.25554 42.4175C5.18524 42.4873 5.12945 42.5702 5.09137 42.6616C5.05329 42.753 5.03369 42.851 5.03369 42.95C5.03369 43.049 5.05329 43.1471 5.09137 43.2385C5.12945 43.3299 5.18524 43.4128 5.25554 43.4825C5.32526 43.5528 5.40821 43.6086 5.4996 43.6467C5.591 43.6848 5.68903 43.7044 5.78804 43.7044C5.88705 43.7044 5.98507 43.6848 6.07647 43.6467C6.16786 43.6086 6.25081 43.5528 6.32053 43.4825L7.37804 42.4175C7.50091 42.2741 7.56511 42.0895 7.55782 41.9007C7.55053 41.712 7.47229 41.5329 7.33871 41.3994C7.20514 41.2658 7.02608 41.1875 6.83733 41.1802C6.64857 41.173 6.46401 41.2372 6.32053 41.36Z" fill="white"/>
<path id="Vector_20" d="M9.49923 38.1803L8.44172 39.2378C8.30203 39.3784 8.22363 39.5684 8.22363 39.7666C8.22363 39.9647 8.30203 40.1548 8.44172 40.2953C8.5802 40.4367 8.76889 40.5175 8.96672 40.5203C9.06595 40.5199 9.16412 40.4998 9.25552 40.4612C9.34693 40.4226 9.42976 40.3662 9.49923 40.2953L10.5567 39.2378C10.6796 39.0944 10.7438 38.9098 10.7365 38.721C10.7292 38.5323 10.651 38.3532 10.5174 38.2197C10.3838 38.0861 10.2048 38.0079 10.016 38.0006C9.82726 37.9933 9.6427 38.0575 9.49923 38.1803Z" fill="white"/>
<path id="Vector_21" d="M12.6799 34.994L11.6224 36.059C11.4827 36.1995 11.4043 36.3896 11.4043 36.5877C11.4043 36.7859 11.4827 36.976 11.6224 37.1165C11.7629 37.2562 11.953 37.3346 12.1511 37.3346C12.3493 37.3346 12.5394 37.2562 12.6799 37.1165L13.7449 36.059C13.8861 35.9178 13.9655 35.7262 13.9655 35.5265C13.9655 35.3268 13.8861 35.1352 13.7449 34.994C13.6037 34.8528 13.4121 34.7734 13.2124 34.7734C13.0127 34.7734 12.8211 34.8528 12.6799 34.994Z" fill="white"/>
<path id="Vector_22" d="M17.0825 9.57613C17.1448 9.69982 17.2402 9.80383 17.358 9.87664C17.4758 9.94945 17.6115 9.98822 17.75 9.98864C17.8676 9.99004 17.9837 9.96166 18.0875 9.90614C18.2641 9.81622 18.398 9.66004 18.4598 9.47172C18.5216 9.2834 18.5064 9.07826 18.4175 8.90114L15.4175 2.90114C15.3778 2.80593 15.319 2.71992 15.2446 2.64849C15.1702 2.57705 15.0819 2.52172 14.9851 2.48597C14.8884 2.45021 14.7853 2.43479 14.6823 2.44067C14.5794 2.44655 14.4787 2.4736 14.3867 2.52014C14.2946 2.56668 14.2132 2.63169 14.1474 2.71113C14.0816 2.79057 14.033 2.88273 14.0044 2.98183C13.9759 3.08093 13.9681 3.18487 13.9815 3.28712C13.9949 3.38938 14.0293 3.48776 14.0825 3.57613L17.0825 9.57613Z" fill="white"/>
<path id="Vector_23" d="M2.51818 16.9936L8.88568 19.1161C8.96013 19.1431 9.03902 19.1559 9.11819 19.1536C9.29705 19.155 9.47053 19.0925 9.60732 18.9772C9.74411 18.862 9.8352 18.7016 9.86417 18.5251C9.89314 18.3486 9.85806 18.1675 9.76528 18.0146C9.6725 17.8617 9.52811 17.747 9.35818 17.6911L2.99818 15.5686C2.90462 15.5371 2.80576 15.5243 2.70725 15.531C2.60875 15.5377 2.51253 15.5637 2.42408 15.6076C2.33563 15.6515 2.25669 15.7123 2.19176 15.7867C2.12684 15.8611 2.0772 15.9476 2.04568 16.0411C2.01416 16.1347 2.00139 16.2335 2.00807 16.3321C2.01476 16.4306 2.04078 16.5268 2.08466 16.6152C2.12853 16.7037 2.18941 16.7826 2.26379 16.8476C2.33818 16.9125 2.42462 16.9621 2.51818 16.9936Z" fill="white"/>
<path id="Vector_24" d="M10.1682 30.65C10.0783 30.4734 9.92209 30.3395 9.73378 30.2777C9.54546 30.2158 9.34032 30.2311 9.1632 30.32L3.1632 33.32C2.98655 33.4099 2.85269 33.5661 2.79085 33.7544C2.72902 33.9427 2.74424 34.1479 2.83319 34.325C2.89552 34.4487 2.99088 34.5527 3.1087 34.6255C3.22652 34.6983 3.36219 34.7371 3.50069 34.7375C3.61835 34.7389 3.73445 34.7105 3.83819 34.655L9.83819 31.655C10.0148 31.5651 10.1487 31.4089 10.2105 31.2206C10.2724 31.0323 10.2572 30.8271 10.1682 30.65Z" fill="white"/>
<path id="Vector_25" d="M18.9046 38.909C18.811 38.8772 18.7121 38.8642 18.6136 38.8708C18.515 38.8774 18.4187 38.9034 18.3301 38.9473C18.2416 38.9912 18.1627 39.0521 18.0978 39.1266C18.0329 39.2012 17.9834 39.2878 17.9521 39.3815L15.8296 45.7415C15.798 45.8355 15.7854 45.9349 15.7924 46.0338C15.7995 46.1328 15.8261 46.2293 15.8708 46.3179C15.9154 46.4065 15.9772 46.4854 16.0525 46.5499C16.1278 46.6145 16.2152 46.6634 16.3096 46.694C16.385 46.7173 16.4632 46.73 16.5421 46.7315C16.7056 46.74 16.8675 46.6948 17.0029 46.6027C17.1384 46.5106 17.2399 46.3767 17.2921 46.2215L19.4146 39.854C19.4445 39.7585 19.4549 39.6579 19.4453 39.5583C19.4357 39.4587 19.4063 39.362 19.3588 39.274C19.3113 39.1859 19.2466 39.1083 19.1686 39.0456C19.0906 38.9829 19.0008 38.9364 18.9046 38.909Z" fill="white"/>
</g>
<path id="Vector_26" d="M31.9175 38.9011C31.8778 38.8059 31.819 38.7199 31.7446 38.6485C31.6702 38.5771 31.5819 38.5217 31.4851 38.486C31.3884 38.4502 31.2853 38.4348 31.1823 38.4407C31.0794 38.4466 30.9787 38.4736 30.8867 38.5201C30.7946 38.5667 30.7132 38.6317 30.6474 38.7111C30.5816 38.7906 30.533 38.8827 30.5044 38.9818C30.4759 39.0809 30.4681 39.1849 30.4815 39.2871C30.4949 39.3894 30.5293 39.4878 30.5825 39.5761L33.5825 45.5761C33.6448 45.6998 33.7402 45.8038 33.858 45.8766C33.9758 45.9495 34.1115 45.9882 34.25 45.9886C34.3676 45.99 34.4837 45.9617 34.5875 45.9061C34.7641 45.8162 34.898 45.66 34.9598 45.4717C35.0216 45.2834 35.0064 45.0783 34.9175 44.9011L31.9175 38.9011Z" fill="white"/>
<path id="Vector_27" d="M46.4823 31.4829L40.1148 29.3604C39.9259 29.2978 39.7197 29.3127 39.5418 29.402C39.3639 29.4914 39.2287 29.6477 39.1661 29.8367C39.1034 30.0256 39.1184 30.2318 39.2077 30.4097C39.297 30.5876 39.4534 30.7228 39.6423 30.7854L46.0023 32.9004C46.0793 32.9284 46.1604 32.9436 46.2423 32.9454C46.4412 32.9772 46.6447 32.9287 46.8078 32.8106C46.971 32.6924 47.0805 32.5143 47.1123 32.3154C47.1442 32.1165 47.0957 31.9131 46.9775 31.7499C46.8594 31.5868 46.6812 31.4772 46.4823 31.4454V31.4829Z" fill="white"/>
<path id="Vector_28" d="M38.8327 17.8253C38.895 17.9489 38.9904 18.053 39.1082 18.1258C39.226 18.1986 39.3617 18.2373 39.5002 18.2378C39.6179 18.2392 39.734 18.2108 39.8377 18.1553L45.8377 15.1553C45.9329 15.1156 46.0189 15.0568 46.0904 14.9824C46.1618 14.908 46.2171 14.8197 46.2529 14.7229C46.2886 14.6262 46.304 14.5231 46.2982 14.4201C46.2923 14.3172 46.2652 14.2165 46.2187 14.1245C46.1722 14.0324 46.1071 13.951 46.0277 13.8852C45.9483 13.8194 45.8561 13.7708 45.757 13.7422C45.6579 13.7136 45.554 13.7058 45.4517 13.7193C45.3495 13.7327 45.2511 13.7671 45.1627 13.8203L39.1627 16.8203C38.9861 16.9102 38.8522 17.0664 38.7904 17.2547C38.7285 17.443 38.7437 17.6481 38.8327 17.8253Z" fill="white"/>
<path id="Vector_29" d="M30.0946 9.56867C30.1716 9.59574 30.2529 9.60846 30.3345 9.60617C30.4918 9.60658 30.6452 9.55756 30.773 9.46604C30.9009 9.37452 30.9967 9.24513 31.047 9.09617L33.1695 2.73617C33.2012 2.64214 33.2138 2.54277 33.2067 2.44382C33.1997 2.34487 33.173 2.24831 33.1284 2.15972C33.0838 2.07113 33.022 1.99227 32.9466 1.92772C32.8713 1.86318 32.7839 1.81421 32.6895 1.78367C32.5016 1.72181 32.2967 1.73677 32.1197 1.82528C31.9427 1.91378 31.8079 2.06866 31.7446 2.25617L29.622 8.62366C29.5602 8.81165 29.5751 9.01647 29.6636 9.19349C29.7522 9.3705 29.907 9.50536 30.0946 9.56867Z" fill="white"/>
</g>
</svg>
