<svg width="43" height="30" viewBox="0 0 43 30" fill="none" xmlns="http://www.w3.org/2000/svg">
<g id="Group">
<path id="Vector" d="M41.75 17.1773C39.0057 17.127 38.9757 15.5198 35.9668 15.5573C32.954 15.5198 32.9307 17.127 30.1842 17.1773C27.4377 17.127 27.4107 15.5198 24.3988 15.5573C21.386 15.5205 21.3612 17.127 18.6125 17.1773C15.8645 17.1278 15.8398 15.5205 12.827 15.5573C9.81425 15.5205 9.78725 17.127 7.03925 17.1773C4.2875 17.1278 4.26575 15.5198 1.25 15.5573C1.05109 15.5573 0.860322 15.6363 0.71967 15.777C0.579018 15.9176 0.5 16.1084 0.5 16.3073C0.5 16.5062 0.579018 16.697 0.71967 16.8376C0.860322 16.9783 1.05109 17.0573 1.25 17.0573C3.99725 17.1075 4.0265 18.7148 7.03925 18.6773C10.0542 18.7148 10.0767 17.1075 12.8278 17.0573C15.5728 17.1075 15.6012 18.7148 18.6125 18.6773C19.7642 18.7015 20.8977 18.3867 21.872 17.772C22.6319 17.3049 23.5064 17.0576 24.3984 17.0576C25.2904 17.0576 26.1649 17.3049 26.9248 17.772C27.9118 18.3549 29.0372 18.6623 30.1835 18.6623C31.3298 18.6623 32.4552 18.3549 33.4422 17.772C34.2015 17.305 35.0754 17.0577 35.9668 17.0577C36.8581 17.0577 37.732 17.305 38.4912 17.772C39.4653 18.3866 40.5985 18.7014 41.75 18.6773C41.9489 18.6773 42.1397 18.5983 42.2803 18.4576C42.421 18.317 42.5 18.1262 42.5 17.9273C42.5 17.7284 42.421 17.5376 42.2803 17.397C42.1397 17.2563 41.9489 17.1773 41.75 17.1773ZM39.3995 22.7453C36.989 22.6928 36.9575 21.276 34.2882 21.3135C31.6152 21.276 31.5898 22.692 29.1755 22.746C26.7635 22.6928 26.7335 21.276 24.0627 21.3135C21.389 21.276 21.3628 22.692 18.9478 22.746C16.5343 22.6928 16.5065 21.276 13.8342 21.3135C11.162 21.276 11.132 22.6928 8.717 22.746C6.3005 22.6928 6.27575 21.276 3.6005 21.3135C3.40159 21.3135 3.21082 21.3926 3.07017 21.5332C2.92952 21.6739 2.8505 21.8646 2.8505 22.0635C2.8505 22.2625 2.92952 22.4532 3.07017 22.5939C3.21082 22.7345 3.40159 22.8135 3.6005 22.8135C4.37713 22.794 5.14145 23.0103 5.79275 23.4338C6.67929 23.9554 7.68916 24.2304 8.71775 24.2304C9.74634 24.2304 10.7562 23.9554 11.6427 23.4338C12.2939 23.0105 13.0579 22.7943 13.8342 22.8135C14.6102 22.7941 15.3737 23.0104 16.0243 23.4338C16.9101 23.9558 17.9195 24.2311 18.9478 24.2311C19.976 24.2311 20.9854 23.9558 21.8713 23.4338C22.53 23.0282 23.2884 22.8134 24.062 22.8134C24.8356 22.8134 25.594 23.0282 26.2528 23.4338C27.1386 23.9549 28.1477 24.2297 29.1755 24.2297C30.2033 24.2297 31.2124 23.9549 32.0983 23.4338C32.7488 23.0105 33.5123 22.7942 34.2882 22.8135C36.7018 22.8668 36.728 24.2828 39.3995 24.2453C39.5984 24.2453 39.7892 24.1663 39.9298 24.0256C40.0705 23.885 40.1495 23.6942 40.1495 23.4953C40.1495 23.2964 40.0705 23.1056 39.9298 22.965C39.7892 22.8243 39.5984 22.7453 39.3995 22.7453Z" fill="white"/>
<path id="Vector_2" d="M10.959 27.0158C13.7628 26.0808 14.2223 28.3397 16.8157 28.3397C19.4091 28.3397 19.8532 27.0155 22.168 27.0155C24.4827 27.0155 24.9821 28.3397 26.803 28.3397C28.6238 28.3397 30.7318 26.1066 32.7126 27.0158" stroke="white" stroke-width="1.5" stroke-linecap="round" stroke-linejoin="round"/>
<g id="Vector_3">
<path d="M20.9695 0.354436C21.1101 0.213784 21.3009 0.134766 21.4998 0.134766C21.6987 0.134766 21.8895 0.213784 22.0301 0.354436C22.1708 0.495089 22.2498 0.685853 22.2498 0.884766V3.28477C22.2498 3.48368 22.1708 3.67444 22.0301 3.8151C21.8895 3.95575 21.6987 4.03477 21.4998 4.03477C21.3009 4.03477 21.1101 3.95575 20.9695 3.8151C20.8288 3.67444 20.7498 3.48368 20.7498 3.28477V0.884766C20.7498 0.685853 20.8288 0.495089 20.9695 0.354436Z" fill="white"/>
<path d="M11.508 7.33306C11.3863 7.41588 11.243 7.46131 11.0958 7.46377C10.9973 7.46387 10.8997 7.44451 10.8087 7.4068C10.7177 7.36908 10.6351 7.31377 10.5655 7.24402L8.86678 5.54602C8.73017 5.40456 8.65457 5.21511 8.65628 5.01846C8.65799 4.82182 8.73686 4.63371 8.87592 4.49465C9.01498 4.3556 9.20309 4.27672 9.39973 4.27501C9.59638 4.2733 9.78583 4.3489 9.92728 4.48552L11.626 6.18352C11.7284 6.28934 11.7976 6.42278 11.8251 6.56742C11.8527 6.71206 11.8373 6.86159 11.781 6.99762C11.7246 7.13365 11.6298 7.25025 11.508 7.33306Z" fill="white"/>
<path d="M31.3735 6.18352L33.0723 4.48552C33.2137 4.3489 33.4032 4.2733 33.5998 4.27501C33.7965 4.27672 33.9846 4.3556 34.1236 4.49465C34.2627 4.63371 34.3416 4.82182 34.3433 5.01846C34.345 5.21511 34.2694 5.40456 34.1328 5.54602L32.434 7.24402C32.3648 7.31565 32.2821 7.37278 32.1906 7.41209C32.0991 7.4514 32.0007 7.47209 31.9011 7.47295C31.8015 7.47382 31.7027 7.45484 31.6106 7.41713C31.5184 7.37942 31.4347 7.32373 31.3642 7.25331C31.2938 7.18289 31.2381 7.09915 31.2004 7.00698C31.1627 6.91481 31.1437 6.81605 31.1446 6.71646C31.1455 6.61688 31.1662 6.51847 31.2055 6.42696C31.2448 6.33546 31.3019 6.2527 31.3735 6.18352Z" fill="white"/>
</g>
<path id="Vector_4" d="M9.33181 14.3419C9.52564 14.3863 9.72918 14.3521 9.89777 14.2466C10.0664 14.1411 10.1862 13.9731 10.2311 13.7794C15.6048 5.4289 28.5431 5.60218 33.7196 13.7794C33.7642 13.9733 33.8841 14.1416 34.0528 14.2471C34.2215 14.3527 34.4252 14.3869 34.6192 14.3422C34.8131 14.2976 34.9814 14.1777 35.0869 14.009C35.1925 13.8403 35.2267 13.6366 35.1821 13.4426C29.1784 2.71412 12.6013 4.73581 8.76931 13.4426C8.74709 13.5386 8.74401 13.6381 8.76026 13.7353C8.77651 13.8326 8.81176 13.9256 8.864 14.0092C8.91624 14.0928 8.98445 14.1653 9.06472 14.2225C9.14499 14.2797 9.23575 14.3198 9.33181 14.3419Z" fill="white"/>
<path id="Vector 3" d="M21.2176 8.51816C15.5402 8.80563 11.7803 13.0619 10.8521 14.7688C15.4281 14.0581 15.5024 16.0746 18.4932 16.0746C21.484 16.0746 21.06 14.5591 25.1259 14.559C28.0668 14.5763 27.4363 15.8503 30.7209 16.0746C31.8669 16.0189 32.5877 15.5373 33.4553 14.76C32.5568 13.2331 28.3145 8.15883 21.2176 8.51816Z" fill="white"/>
</g>
</svg>
