<svg width="40" height="35" viewBox="0 0 40 35" fill="none" xmlns="http://www.w3.org/2000/svg">
<g clip-path="url(#clip0_18574_69663)">
<path d="M17.8581 19.2984C17.3408 19.8115 16.6267 20.1283 15.8374 20.1283C14.2593 20.1283 12.9805 18.8599 12.9805 17.2946C12.9805 15.7293 14.2593 14.4602 15.8374 14.4602C16.6267 14.4602 17.3408 14.7777 17.8581 15.2902L19.8789 13.2858C18.8448 12.2595 17.416 11.6253 15.8374 11.6253C12.6812 11.6253 10.1218 14.1634 10.1218 17.2946C10.1218 20.4252 12.6812 22.9639 15.8374 22.9639C17.416 22.9639 18.8448 22.329 19.8795 21.3033L17.8581 19.2984Z" fill="#000062"/>
<path d="M39.9287 11.674H31.6443V14.5083H35.9969L34.3578 15.4376V22.9473H37.2152V14.5083H39.9287V11.674Z" fill="#000062"/>
<path d="M2.43558 10.3956L2.24121 10.3069C2.19736 10.3968 2.15291 10.4862 2.11084 10.5761L2.28862 10.666C2.33662 10.5749 2.3858 10.485 2.43558 10.3956Z" fill="#00D2FF"/>
<path d="M2.35164 7.79899L2.05594 7.60855C2.0115 7.67438 1.96646 7.74021 1.92261 7.80663L2.20231 7.99414C2.2509 7.92831 2.30246 7.86424 2.35164 7.79899Z" fill="#00D2FF"/>
<path d="M2.29542 9.14421L2.11705 9.04664C2.0726 9.12188 2.02875 9.19712 1.98608 9.27294L2.14905 9.36816C2.19705 9.29293 2.24623 9.21886 2.29542 9.14421Z" fill="#00D2FF"/>
<path d="M2.96925 9.51173L2.7411 9.38711C2.6931 9.46823 2.64569 9.54934 2.59888 9.63105L2.81399 9.75684C2.86554 9.67513 2.91651 9.59225 2.96925 9.51173Z" fill="#00D2FF"/>
<path d="M2.62914 11.6559L2.50884 11.6107C2.47506 11.6971 2.44128 11.7835 2.40869 11.8711L2.50884 11.9146C2.54854 11.8281 2.58825 11.7417 2.62914 11.6559Z" fill="#00D2FF"/>
<path d="M2.60522 8.26449L2.81678 8.40674C2.86893 8.33797 2.92285 8.27037 2.97678 8.20219L2.75041 8.05641C2.70241 8.12577 2.65204 8.19454 2.60522 8.26449Z" fill="#00D2FF"/>
<path d="M1.39956 8.65525C1.35986 8.72403 1.32134 8.7928 1.28223 8.86216L1.52104 9.00146C1.56489 8.93211 1.60934 8.86275 1.65378 8.79397L1.39956 8.65525Z" fill="#00D2FF"/>
<path d="M3.12109 6.86182L2.78864 6.61025C2.72227 6.69371 2.65649 6.77836 2.59131 6.863L2.90835 7.10693C2.94331 7.0652 2.97649 7.02288 3.01205 6.98173C3.0476 6.94118 3.08494 6.90238 3.12109 6.86182Z" fill="#00D2FF"/>
<path d="M1.929 11.3936L1.78145 11.3384C1.75182 11.4124 1.72219 11.4865 1.69434 11.5611L1.82589 11.6182C1.85967 11.5429 1.89463 11.4683 1.929 11.3936Z" fill="#00D2FF"/>
<path d="M4.85552 5.18221L4.46974 4.78486C4.35063 4.89713 4.23152 5.00822 4.11597 5.12284L4.48871 5.49609C4.6096 5.3897 4.73167 5.28508 4.85552 5.18221Z" fill="#00D2FF"/>
<path d="M4.09873 8.02246C4.17221 7.93782 4.24747 7.85494 4.32273 7.77206L4.03591 7.55458C3.9648 7.63981 3.89369 7.72504 3.82495 7.81203L4.09873 8.02246Z" fill="#00D2FF"/>
<path d="M4.24957 6.78076C4.34557 6.6873 4.44275 6.59561 4.54112 6.5045L4.23238 6.23176C4.14053 6.32875 4.05164 6.42867 3.96216 6.52801L4.24957 6.78076Z" fill="#00D2FF"/>
<path d="M3.80908 9.07324L4.08345 9.25781C4.14093 9.18081 4.19901 9.10499 4.25827 9.02975L3.96493 8.84048C3.91219 8.91748 3.86004 8.99507 3.80908 9.07324Z" fill="#00D2FF"/>
<path d="M3.61344 8.61318L3.3527 8.44507C3.30114 8.51737 3.249 8.58967 3.19922 8.66314L3.44752 8.83008C3.50203 8.7566 3.55774 8.68489 3.61344 8.61318Z" fill="#00D2FF"/>
<path d="M3.45727 7.11635C3.41994 7.1622 3.38083 7.20688 3.34408 7.25331C3.31268 7.29211 3.28423 7.33266 3.25342 7.37205L3.50468 7.56543C3.57757 7.48255 3.65223 7.40144 3.7269 7.32032L3.45727 7.11635Z" fill="#00D2FF"/>
<path d="M1.72814 10.0733L1.5948 10.0121C1.5551 10.0932 1.51777 10.1755 1.47925 10.2578L1.59421 10.3154C1.63806 10.2343 1.6831 10.1538 1.72814 10.0733Z" fill="#00D2FF"/>
<path d="M3.32666 5.97014L3.67155 6.27344C3.76636 6.17704 3.85999 6.08064 3.95659 5.98718L3.59392 5.66683C3.50266 5.76617 3.41555 5.86845 3.32666 5.97014Z" fill="#00D2FF"/>
<path d="M3.64244 9.87906L3.3971 9.74504C3.34673 9.83321 3.29873 9.92255 3.25073 10.0119L3.47118 10.1406C3.52688 10.0525 3.58436 9.96546 3.64244 9.87906Z" fill="#00D2FF"/>
<path d="M3.12601 10.7102L2.93697 10.6244C2.88956 10.7231 2.84275 10.8225 2.79712 10.923L2.96067 11.0059C3.0146 10.9065 3.06971 10.8078 3.12601 10.7102Z" fill="#00D2FF"/>
<path d="M6.07404 6.43589C5.96026 6.53758 5.84826 6.64103 5.73804 6.74625L6.05981 7.06836C6.16826 6.96432 6.27848 6.86204 6.39048 6.76153L6.07404 6.43589Z" fill="#00D2FF"/>
<path d="M6.47679 5.24572C6.33338 5.35211 6.19175 5.46085 6.05249 5.57312L6.79205 6.41602C6.92242 6.30727 7.05456 6.20147 7.18908 6.09743L6.47679 5.24572Z" fill="#00D2FF"/>
<path d="M1.19635 11.1188L1.11575 11.0889C1.09086 11.1518 1.06775 11.2158 1.04346 11.2787L1.11042 11.3081C1.13827 11.2446 1.16731 11.1817 1.19635 11.1188Z" fill="#00D2FF"/>
<path d="M6.40171 3.21408C6.22097 3.34046 6.04259 3.47036 5.86719 3.6032L6.27785 4.13574C6.45622 4.01936 6.63697 3.9065 6.82008 3.79658L6.40171 3.21408Z" fill="#00D2FF"/>
<path d="M5.30541 7.17998C5.21415 7.27579 5.12467 7.37278 5.03638 7.47153L5.37297 7.7666C5.38245 7.75661 5.39252 7.74603 5.4026 7.73604C5.48201 7.64963 5.5626 7.5644 5.64438 7.47976L5.30541 7.17998Z" fill="#00D2FF"/>
<path d="M7.45411 2.54042C7.23959 2.66738 7.02744 2.79964 6.81885 2.93601L8.39218 5.26367C8.57055 5.15317 8.75188 5.04678 8.935 4.94391L7.45411 2.54042Z" fill="#00D2FF"/>
<path d="M15.9237 0.302602C13.4052 0.302602 11.0141 0.844548 8.86182 1.81558L10.1602 4.33252C11.922 3.55781 13.8722 3.12637 15.9237 3.12637C17.6553 3.12637 19.3151 3.43319 20.85 3.99513L21.8354 1.34476C19.9931 0.670561 18.002 0.302602 15.9237 0.302602Z" fill="#00D2FF"/>
<path d="M8.56053 1.95458C8.30868 2.07449 8.05979 2.19969 7.81445 2.33136L9.25623 4.76953C9.46068 4.66138 9.66808 4.55851 9.87786 4.46035L8.56053 1.95458Z" fill="#00D2FF"/>
<path d="M6.94364 3.96849C6.76764 4.08429 6.59401 4.20302 6.42334 4.32528L7.56941 5.81299C7.72349 5.70248 7.87993 5.5955 8.03815 5.49088L6.94364 3.96849Z" fill="#00D2FF"/>
<path d="M0.457643 11.0254C0.480754 10.9731 0.502087 10.9196 0.525791 10.8679L0.357495 10.805C0.337347 10.8549 0.318384 10.9061 0.298828 10.9566L0.457643 11.0254Z" fill="#00D2FF"/>
<path d="M4.78654 6.72141C4.6935 6.81663 4.60165 6.91244 4.51099 7.01002L4.80847 7.271C4.90328 7.17812 4.99928 7.08584 5.09647 6.99591L4.78654 6.72141Z" fill="#00D2FF"/>
<path d="M4.3916 8.24748L4.70331 8.4873C4.77797 8.40149 4.85323 8.31626 4.92968 8.23161L4.60079 7.98239C4.53027 8.06997 4.46034 8.15814 4.3916 8.24748Z" fill="#00D2FF"/>
<path d="M0.754639 9.89109L0.954935 9.99219C0.993453 9.9193 1.03019 9.84524 1.0699 9.77294L0.857157 9.67595C0.822194 9.74708 0.788416 9.81938 0.754639 9.89109Z" fill="#00D2FF"/>
<path d="M5.98166 4.65371C5.83529 4.76657 5.6907 4.88119 5.54907 4.99933L5.89633 5.39551C6.04329 5.2897 6.19263 5.18684 6.34315 5.08633L5.98166 4.65371Z" fill="#00D2FF"/>
<path d="M5.07598 5.40899C4.95806 5.51538 4.84191 5.62471 4.72754 5.73522L5.04872 6.05615C5.16902 5.95446 5.29169 5.85571 5.41554 5.75814L5.07598 5.40899Z" fill="#00D2FF"/>
<path d="M5.92901 6.28658L5.6019 5.94977C5.48456 6.05264 5.36842 6.15609 5.25464 6.26248L5.57049 6.57812C5.68782 6.47938 5.80753 6.3818 5.92901 6.28658Z" fill="#00D2FF"/>
<path d="M5.81232 4.4512L5.40699 3.96627C5.25825 4.08677 5.11188 4.21079 4.96729 4.33599L5.35899 4.78271C5.50773 4.66927 5.65943 4.55935 5.81232 4.4512Z" fill="#00D2FF"/>
<path d="M25.9992 30.8079L25.7183 30.4394C25.6057 30.5164 25.4943 30.5945 25.3811 30.668L25.6727 31.0542C25.7829 30.9731 25.8913 30.8908 25.9992 30.8079Z" fill="#7F92FF"/>
<path d="M25.4809 30.129L25.248 29.824C25.1349 29.898 25.0205 29.9703 24.9055 30.0414L25.155 30.3706C25.2652 30.2924 25.3725 30.2101 25.4809 30.129Z" fill="#7F92FF"/>
<path d="M26.14 27.649L25.8965 27.4033C25.826 27.4668 25.7525 27.5267 25.6802 27.5884L25.9433 27.8447C26.0097 27.7795 26.0754 27.7148 26.14 27.649Z" fill="#7F92FF"/>
<path d="M24.7052 29.7764C24.816 29.7 24.9256 29.6224 25.0341 29.543L24.7964 29.2315C24.6844 29.3055 24.5707 29.3778 24.4563 29.4484L24.7052 29.7764Z" fill="#7F92FF"/>
<path d="M25.0484 31.4909L24.7562 31.0513C24.6152 31.1336 24.4724 31.2141 24.3284 31.2923L24.6306 31.7607C24.771 31.6726 24.9103 31.5832 25.0484 31.4909Z" fill="#7F92FF"/>
<path d="M26.8978 30.0638L26.6353 29.7628C26.5831 29.8046 26.5328 29.8475 26.48 29.8886C26.4468 29.9139 26.4125 29.9374 26.3799 29.9627L26.6537 30.2725C26.7348 30.2031 26.8178 30.1349 26.8978 30.0638Z" fill="#7F92FF"/>
<path d="M26.2052 29.5549C26.2532 29.5143 26.2989 29.472 26.3457 29.4309L26.1377 29.1922C26.05 29.2592 25.9617 29.3251 25.8728 29.3903L26.0968 29.6431C26.1324 29.6131 26.1697 29.5849 26.2052 29.5549Z" fill="#7F92FF"/>
<path d="M26.8759 26.836L26.6673 26.6508C26.5968 26.7249 26.5269 26.7996 26.4546 26.8719L26.6833 27.0635C26.7485 26.9888 26.8119 26.9124 26.8759 26.836Z" fill="#7F92FF"/>
<path d="M26.6519 28.1649L26.4486 27.9603C26.3817 28.0203 26.3135 28.079 26.2454 28.1378L26.4617 28.3477C26.5257 28.2871 26.5897 28.2266 26.6519 28.1649Z" fill="#7F92FF"/>
<path d="M27.16 28.6772L26.9798 28.4956C26.9164 28.5526 26.8518 28.6078 26.7866 28.6637L26.9792 28.8506C27.0391 28.7924 27.1013 28.736 27.16 28.6772Z" fill="#7F92FF"/>
<path d="M24.8628 28.2482L25.1449 28.5674C25.2314 28.4951 25.3173 28.4222 25.4021 28.3475L25.1324 28.0384C25.0429 28.1089 24.9541 28.18 24.8628 28.2482Z" fill="#7F92FF"/>
<path d="M23.6063 31.3386L23.342 30.8784C23.1737 30.9554 23.0043 31.0289 22.833 31.0994L23.1044 31.5996C23.2733 31.5156 23.4404 31.4291 23.6063 31.3386Z" fill="#7F92FF"/>
<path d="M22.093 32.2858L22.3905 32.9453C22.5979 32.8542 22.8029 32.7596 23.0062 32.6608L22.7075 32.0542C22.5043 32.1359 22.2992 32.2129 22.093 32.2858Z" fill="#7F92FF"/>
<path d="M19.8644 30.8465C19.6351 30.9141 19.404 30.9776 19.1699 31.034L19.9711 33.7749C20.2514 33.705 20.5281 33.6285 20.8025 33.5451L19.8644 30.8465Z" fill="#7F92FF"/>
<path d="M24.1508 30.1399L23.9043 29.769C23.7668 29.8442 23.6281 29.9177 23.4883 29.9882L23.7431 30.3838C23.8806 30.3044 24.0163 30.2233 24.1508 30.1399Z" fill="#7F92FF"/>
<path d="M25.8688 28.8834L25.6466 28.6283C25.5577 28.6965 25.4676 28.7635 25.377 28.8299L25.6128 29.0962C25.6987 29.0257 25.7841 28.9557 25.8688 28.8834Z" fill="#7F92FF"/>
<path d="M24.5677 30.7676L24.3147 30.3868C24.1748 30.4643 24.0332 30.5396 23.8904 30.6125L24.1559 31.0239C24.2939 30.941 24.4314 30.8552 24.5677 30.7676Z" fill="#7F92FF"/>
<path d="M24.0493 32.1099L23.7513 31.5903C23.5794 31.675 23.4058 31.7549 23.231 31.8331L23.535 32.3921C23.708 32.301 23.8798 32.2069 24.0493 32.1099Z" fill="#7F92FF"/>
<path d="M23.3754 29.8125C23.5093 29.7337 23.6415 29.6532 23.7724 29.5697L23.5141 29.1806C23.3855 29.2629 23.2551 29.3429 23.1235 29.4216L23.3754 29.8125Z" fill="#7F92FF"/>
<path d="M29.7217 26.523L29.8734 26.6177C29.9006 26.5759 29.9255 26.5336 29.9522 26.4919L29.8106 26.3937C29.7803 26.4366 29.7519 26.4807 29.7217 26.523Z" fill="#7F92FF"/>
<path d="M29.1592 27.625C29.2054 27.5645 29.2522 27.5039 29.2973 27.4428L29.1219 27.3052C29.0721 27.367 29.0229 27.4287 28.9719 27.4898L29.1592 27.625Z" fill="#7F92FF"/>
<path d="M24.2874 29.2251C24.3965 29.1481 24.5043 29.0693 24.6116 28.9888L24.3325 28.6238C24.307 28.6408 24.2821 28.6602 24.256 28.6773C24.1737 28.7372 24.0889 28.7942 24.0054 28.853L24.2874 29.2251Z" fill="#7F92FF"/>
<path d="M29.282 26.027L29.2216 25.9847C29.1843 26.0376 29.1463 26.0899 29.1084 26.1422L29.1813 26.1875C29.2157 26.1346 29.2483 26.0805 29.282 26.027Z" fill="#7F92FF"/>
<path d="M22.7322 30.9136C22.8976 30.8354 23.0605 30.7543 23.2223 30.6696L22.6576 29.6863C22.5059 29.7691 22.3524 29.8497 22.1965 29.9273L22.7322 30.9136Z" fill="#7F92FF"/>
<path d="M27.4307 27.3291L27.2565 27.174C27.1913 27.2427 27.1267 27.3115 27.0603 27.3785L27.2487 27.5366C27.3098 27.4678 27.3708 27.3991 27.4307 27.3291Z" fill="#7F92FF"/>
<path d="M21.2025 33.4131C21.4449 33.3279 21.6855 33.2373 21.9231 33.1415L20.8322 30.5241C20.6295 30.6005 20.4239 30.6704 20.217 30.7374L21.2025 33.4131Z" fill="#7F92FF"/>
<path d="M22.006 32.0928C22.2063 32.0122 22.4048 31.927 22.6015 31.8383L21.7636 30.1354C21.5864 30.2159 21.4074 30.2935 21.2273 30.367L22.006 32.0928Z" fill="#7F92FF"/>
<path d="M18.8645 31.103C17.8612 31.3228 16.8195 31.4416 15.7492 31.4416C12.9872 31.4416 10.4064 30.668 8.2156 29.3285L6.70923 31.7566C9.33797 33.3648 12.4343 34.293 15.7492 34.293C17.0897 34.293 18.3934 34.1396 19.6455 33.8527L18.8645 31.103Z" fill="#7F92FF"/>
<path d="M27.9661 27.8051L27.8245 27.6793C27.7647 27.7422 27.7036 27.8045 27.6426 27.8668L27.7972 27.9961C27.8535 27.9326 27.911 27.8697 27.9661 27.8051Z" fill="#7F92FF"/>
<path d="M27.9189 26.7295C27.9781 26.6531 28.0362 26.5761 28.0937 26.4985L27.9526 26.388C27.8898 26.4644 27.8258 26.5402 27.7612 26.6155L27.9189 26.7295Z" fill="#7F92FF"/>
<path d="M27.7395 29.2618L27.5054 29.0255C27.4456 29.0801 27.3833 29.1319 27.3235 29.1854L27.5736 29.4287C27.6293 29.3735 27.6844 29.3176 27.7395 29.2618Z" fill="#7F92FF"/>
<path d="M27.5008 26.0336L27.3391 25.9066C27.2685 25.9907 27.1945 26.0718 27.1216 26.1546L27.3106 26.291C27.3746 26.2058 27.4386 26.12 27.5008 26.0336Z" fill="#7F92FF"/>
<path d="M28.6942 25.6192L28.594 25.5493C28.549 25.6128 28.5028 25.6745 28.4565 25.7374L28.5721 25.8091C28.6136 25.7462 28.6539 25.6827 28.6942 25.6192Z" fill="#7F92FF"/>
<path d="M28.2061 28.3387L28.4283 28.5244C28.4786 28.4668 28.5278 28.4074 28.5776 28.3487L28.372 28.1659C28.3175 28.2241 28.2618 28.2811 28.2061 28.3387Z" fill="#7F92FF"/>
<path d="M28.4993 27.1489C28.5526 27.0796 28.603 27.009 28.6551 26.9391L28.5532 26.8591C28.4969 26.9279 28.4394 26.9961 28.3813 27.0637L28.4993 27.1489Z" fill="#7F92FF"/>
<path d="M27.9553 25.1068C27.902 25.1802 27.8516 25.2555 27.7971 25.3278L27.9263 25.4077C27.9737 25.3337 28.0217 25.2602 28.0679 25.1849L27.9553 25.1068Z" fill="#7F92FF"/>
<path d="M10.0665 23.7322C9.96818 23.654 9.87099 23.5741 9.77558 23.4918L9.48877 23.7763C9.57884 23.8715 9.67247 23.9638 9.76729 24.0537L10.0665 23.7322Z" fill="#5E1AD5"/>
<path d="M9.18322 22.9284L8.93848 23.1288C9.02025 23.2358 9.10381 23.3392 9.18974 23.4409L9.46055 23.2052C9.36633 23.1153 9.27388 23.023 9.18322 22.9284Z" fill="#5E1AD5"/>
<path d="M10.3088 24.8358C10.1926 24.7664 10.0788 24.6935 9.96683 24.6189L9.70728 24.931C9.81691 25.0215 9.92772 25.1097 10.0409 25.1943L10.3088 24.8358Z" fill="#5E1AD5"/>
<path d="M8.21644 23.0258C8.14059 22.9335 8.06533 22.84 7.99244 22.7436L7.87451 22.8241C7.9391 22.927 8.00488 23.0281 8.07303 23.1274L8.21644 23.0258Z" fill="#5E1AD5"/>
<path d="M9.53267 24.3058C9.42482 24.2224 9.31874 24.1365 9.21445 24.0472L8.99341 24.2664C9.09119 24.3681 9.19015 24.4681 9.29207 24.5645L9.53267 24.3058Z" fill="#5E1AD5"/>
<path d="M8.66319 23.8994L8.86289 23.7254C8.76393 23.6302 8.66615 23.532 8.57133 23.4309L8.39771 23.5732C8.48363 23.6849 8.57252 23.793 8.66319 23.8994Z" fill="#5E1AD5"/>
<path d="M20.451 24.5951C19.0755 25.4598 17.4364 25.9447 15.6865 25.9042C15.1591 25.8924 14.6441 25.8319 14.1452 25.7296L13.5312 28.4863C14.2074 28.6268 14.9049 28.7109 15.6201 28.7273C17.9538 28.7814 20.1392 28.1348 21.9733 26.9816L20.451 24.5951Z" fill="#5E1AD5"/>
<path d="M6.81883 23.545L6.65112 23.6596C6.72105 23.7678 6.79335 23.8742 6.86742 23.98L7.05172 23.8495C6.97231 23.7496 6.89468 23.6485 6.81883 23.545Z" fill="#5E1AD5"/>
<path d="M13.3258 25.5185L12.479 28.1942C12.671 28.26 12.8642 28.3211 13.0597 28.3764C13.1303 28.3946 13.2008 28.4123 13.2719 28.4287L13.9077 25.6772C13.711 25.6308 13.5166 25.5779 13.3258 25.5185Z" fill="#5E1AD5"/>
<path d="M7.46313 24.3408L7.25928 24.5083C7.35468 24.6294 7.45306 24.7482 7.5538 24.8657L7.77483 24.6729C7.66876 24.5648 7.56446 24.4537 7.46313 24.3408Z" fill="#5E1AD5"/>
<path d="M10.1526 24.3953C10.2527 24.4782 10.3541 24.5582 10.4584 24.6357L10.7624 24.2284C10.6604 24.1632 10.5591 24.0956 10.4596 24.0256L10.1526 24.3953Z" fill="#5E1AD5"/>
<path d="M10.8625 25.7349L11.1386 25.2664C10.9982 25.2035 10.8601 25.1365 10.7244 25.066L10.4453 25.4786C10.5822 25.5679 10.7209 25.6532 10.8625 25.7349Z" fill="#5E1AD5"/>
<path d="M7.63413 23.4379C7.5559 23.3415 7.48005 23.2439 7.40598 23.1446L7.29102 23.2227C7.35798 23.328 7.4279 23.4314 7.49902 23.5337L7.63413 23.4379Z" fill="#5E1AD5"/>
<path d="M8.85958 22.5708C8.78432 22.4826 8.71084 22.3933 8.63854 22.3022L8.45898 22.425C8.52002 22.5256 8.58343 22.6237 8.64802 22.7207L8.85958 22.5708Z" fill="#5E1AD5"/>
<path d="M11.3499 27.0503C11.1567 26.9738 10.9653 26.8921 10.7774 26.804L10.5066 27.3042C10.6986 27.4141 10.893 27.5199 11.0915 27.6187L11.3499 27.0503Z" fill="#5E1AD5"/>
<path d="M12.387 27.3963C12.1636 27.3346 11.942 27.267 11.7233 27.1905L11.4685 27.7954C11.6949 27.8977 11.9242 27.9935 12.1571 28.0811L12.387 27.3963Z" fill="#5E1AD5"/>
<path d="M11.6853 26.3114C11.5028 26.2496 11.325 26.1832 11.152 26.1109L10.896 26.5835C11.0738 26.6805 11.2539 26.7716 11.437 26.8574L11.6853 26.3114Z" fill="#5E1AD5"/>
<path d="M13.048 25.4269C12.8792 25.3681 12.712 25.3047 12.5485 25.2359L11.7959 27.0187C12.0045 27.1068 12.2172 27.1862 12.4323 27.2603L13.048 25.4269Z" fill="#5E1AD5"/>
<path d="M10.8374 24.8991C10.9618 24.9802 11.0881 25.0578 11.2184 25.1318L11.4774 24.6928C11.3583 24.6216 11.2416 24.5476 11.1272 24.4706L10.8374 24.8991Z" fill="#5E1AD5"/>
<path d="M8.32208 24.1963C8.21897 24.094 8.11823 23.99 8.01986 23.883L7.85571 24.0182C7.94697 24.1334 8.0406 24.2468 8.1366 24.3579L8.32208 24.1963Z" fill="#5E1AD5"/>
<path d="M11.2432 25.9423C11.4079 26.0264 11.5762 26.104 11.7469 26.1763L12.2369 25.0971C12.0941 25.0301 11.9537 24.9589 11.8156 24.8843L11.2432 25.9423Z" fill="#5E1AD5"/>
<path d="M9.41601 26.0322C9.35201 25.9893 9.28682 25.9475 9.22342 25.9029C9.15527 25.8552 9.08949 25.8047 9.02253 25.7553L8.76001 26.0716C8.88682 26.1809 9.0166 26.2873 9.14875 26.3901L9.41601 26.0322Z" fill="#5E1AD5"/>
<path d="M9.03832 24.8373C8.92395 24.7457 8.81254 24.651 8.70291 24.554L8.50024 24.7551C8.60454 24.8626 8.71121 24.9684 8.82024 25.0713L9.03832 24.8373Z" fill="#5E1AD5"/>
<path d="M10.7481 25.929C10.597 25.8561 10.4477 25.7791 10.2995 25.6951L10.05 26.0636C10.197 26.1641 10.3458 26.2617 10.4975 26.354L10.7481 25.929Z" fill="#5E1AD5"/>
<path d="M8.53752 25.3761C8.41723 25.2762 8.29989 25.1733 8.18434 25.0681L7.94849 25.3015C8.0593 25.4178 8.17308 25.5319 8.28863 25.6436L8.53752 25.3761Z" fill="#5E1AD5"/>
<path d="M10.3554 26.5944C10.1925 26.5085 10.0325 26.4174 9.87426 26.3228L9.60107 26.7278C9.7593 26.8395 9.92107 26.9482 10.0852 27.0522L10.3554 26.5944Z" fill="#5E1AD5"/>
<path d="M9.62362 25.7534L9.86421 25.4307C9.74273 25.3525 9.62066 25.2691 9.49858 25.1821L9.26392 25.4648C9.32318 25.5148 9.38184 25.5659 9.44288 25.6153C9.50214 25.6629 9.56318 25.707 9.62362 25.7534Z" fill="#5E1AD5"/>
<path d="M14.4181 7.98924L14.3891 7.76235C14.238 7.77763 14.0881 7.79644 13.9387 7.81996L13.9814 8.0874C14.126 8.05096 14.2718 8.01804 14.4181 7.98924Z" fill="#0000FF"/>
<path d="M14.518 8.7625L14.4783 8.45391C14.3343 8.46801 14.1909 8.48565 14.0481 8.5074L14.1032 8.85596C14.2407 8.82186 14.3788 8.79071 14.518 8.7625Z" fill="#0000FF"/>
<path d="M8.55298 8.51991L9.01461 9.08008C9.17876 8.93195 9.34765 8.7903 9.52068 8.65334L9.1349 8.10669C8.93639 8.23777 8.7432 8.37649 8.55298 8.51991Z" fill="#0000FF"/>
<path d="M10.7254 8.75532L10.454 8.2792C10.2834 8.37501 10.1157 8.47553 9.95093 8.58133L10.2834 9.08154C10.428 8.96869 10.5749 8.85936 10.7254 8.75532Z" fill="#0000FF"/>
<path d="M13.7073 6.36205L13.7541 6.65771C13.9135 6.62362 14.0735 6.59247 14.2347 6.56543L14.2003 6.30034C14.0356 6.31679 13.8714 6.33795 13.7073 6.36205Z" fill="#0000FF"/>
<path d="M11.2141 7.56265L11.0115 7.10711C10.8343 7.18117 10.6589 7.25994 10.4858 7.3434L10.7365 7.82422C10.8935 7.73311 11.0524 7.64553 11.2141 7.56265Z" fill="#0000FF"/>
<path d="M10.335 8.07001L10.047 7.56451C9.85733 7.66561 9.67125 7.77376 9.48755 7.88545L9.83777 8.41211C10.0007 8.29337 10.1661 8.17876 10.335 8.07001Z" fill="#0000FF"/>
<path d="M14.8594 6.25299L14.8724 6.48047C15.0158 6.46519 15.1604 6.45284 15.305 6.44344L15.2973 6.24182C15.1515 6.24241 15.0052 6.24653 14.8594 6.25299Z" fill="#0000FF"/>
<path d="M15.3332 7.14919L15.3278 7.01106C15.1856 7.01106 15.044 7.014 14.9023 7.02047L14.9118 7.18799C15.0517 7.17212 15.1921 7.15919 15.3332 7.14919Z" fill="#0000FF"/>
<path d="M8.28268 8.72691C8.14934 8.8333 8.01956 8.94321 7.89097 9.05607C7.82519 9.1172 7.75942 9.17951 7.69482 9.2424L9.69897 11.2456C9.8329 11.1163 9.97038 10.9911 10.1126 10.8706L8.28268 8.72691Z" fill="#0000FF"/>
<path d="M15.3916 8.63246L15.3833 8.41674C15.2494 8.41439 15.1155 8.41674 14.981 8.42145L14.9958 8.68066C15.1273 8.66127 15.2589 8.6454 15.3916 8.63246Z" fill="#0000FF"/>
<path d="M14.3263 7.27744L14.2984 7.06348C14.1414 7.07935 13.9843 7.09992 13.8279 7.12402L13.8676 7.37207C14.0193 7.33621 14.1722 7.30506 14.3263 7.27744Z" fill="#0000FF"/>
<path d="M15.3609 7.85611L15.3555 7.71504C15.2174 7.71386 15.0794 7.71562 14.9419 7.72091L14.952 7.90137C15.0877 7.88373 15.224 7.86728 15.3609 7.85611Z" fill="#0000FF"/>
<path d="M13.1998 6.79468L13.1245 6.46257C12.961 6.49549 12.7986 6.53193 12.6362 6.57249L12.734 6.93457C12.8881 6.88402 13.0433 6.83758 13.1998 6.79468Z" fill="#0000FF"/>
<path d="M13.5214 8.21666L13.4514 7.90866C13.3086 7.93863 13.1664 7.97331 13.0242 8.01093L13.1172 8.35303C13.2505 8.30424 13.3851 8.25898 13.5214 8.21666Z" fill="#0000FF"/>
<path d="M13.6918 8.9707L13.6053 8.58687C13.4708 8.6145 13.3375 8.64565 13.2053 8.67974L13.3173 9.09473C13.4406 9.05064 13.5656 9.00891 13.6918 8.9707Z" fill="#0000FF"/>
<path d="M10.8201 8.92176C10.6661 9.01111 10.515 9.10692 10.3662 9.20567L11.024 10.1943C11.1508 10.1132 11.2806 10.0356 11.4121 9.96039L10.8201 8.92176Z" fill="#0000FF"/>
<path d="M11.5265 8.26386L11.338 7.84065C11.1768 7.9106 11.0186 7.98583 10.8616 8.06401L11.0962 8.51367C11.2373 8.42668 11.3807 8.34321 11.5265 8.26386Z" fill="#0000FF"/>
<path d="M11.9133 9.13234C11.78 9.1923 11.6478 9.25519 11.5181 9.32279L11.7545 9.77539C11.8754 9.71367 11.9969 9.6543 12.1207 9.59788L11.9133 9.13234Z" fill="#0000FF"/>
<path d="M7.50753 9.42882C5.50931 11.4638 4.27612 14.2423 4.27612 17.3076H7.12294C7.12294 15.0176 8.03968 12.9415 9.52768 11.4167L7.50753 9.42882Z" fill="#0000FF"/>
<path d="M9.62329 8.79922C9.4461 8.92206 9.27188 9.05079 9.10181 9.18598L10.338 10.686C10.4695 10.582 10.604 10.4815 10.7415 10.3851L9.62329 8.79922Z" fill="#0000FF"/>
<path d="M12.0405 7.18499C12.0778 7.16971 12.1158 7.15678 12.1531 7.14208L12.0204 6.7418C11.8586 6.79176 11.698 6.84584 11.5386 6.90344L11.7051 7.32959C11.8159 7.28022 11.9273 7.23084 12.0405 7.18499Z" fill="#0000FF"/>
<path d="M11.8324 8.95043L11.6339 8.50429C11.4875 8.57071 11.3429 8.64007 11.2007 8.71355L11.4466 9.18555C11.5728 9.10326 11.7014 9.02567 11.8324 8.95043Z" fill="#0000FF"/>
<path d="M12.3873 7.84962L12.2688 7.49165C12.235 7.50282 12.2012 7.51164 12.1674 7.5234C12.0531 7.56101 11.9405 7.60275 11.8279 7.64448L11.979 8.03125C12.1135 7.96777 12.2498 7.90723 12.3873 7.84962Z" fill="#0000FF"/>
<path d="M12.8581 9.27169L12.71 8.82496C12.5855 8.86552 12.4617 8.90843 12.3396 8.95487L12.5221 9.42334C12.6329 9.37044 12.7449 9.31989 12.8581 9.27169Z" fill="#0000FF"/>
<path d="M12.6204 8.55385L12.493 8.16885C12.3567 8.21352 12.2222 8.26172 12.0889 8.31344L12.2501 8.72607C12.3715 8.66553 12.4954 8.60852 12.6204 8.55385Z" fill="#0000FF"/>
<path d="M13.3604 7.50464L13.2964 7.22073C13.1435 7.25247 12.9912 7.28774 12.8401 7.32712L12.9254 7.64453C13.0694 7.59457 13.214 7.54755 13.3604 7.50464Z" fill="#0000FF"/>
<path d="M26.3726 16.1247C25.2502 15.8708 24.2807 15.6516 24.2807 15.0455C24.2807 14.2191 25.3794 14.0957 26.0348 14.0957C26.7323 14.0957 27.4446 14.2491 28.1504 14.5524L28.2067 14.5765L30.0336 12.7643L29.8321 12.6344C28.8567 12.0243 27.4784 11.674 26.0502 11.674C23.2099 11.674 21.3741 13.0447 21.3741 15.1649C21.3741 17.623 23.5999 18.1362 25.3948 18.5506C26.5184 18.8092 27.489 19.0326 27.489 19.6503C27.489 20.4121 26.372 20.5256 25.7059 20.5256C24.7679 20.5256 23.7527 20.2687 22.9213 19.8208L22.8621 19.789L21.0825 21.5542L21.2597 21.6906C22.2511 22.4541 23.9904 22.9473 25.6899 22.9473C29.1631 22.9473 30.3951 21.0757 30.3951 19.4728C30.3951 17.0388 28.1676 16.5327 26.3726 16.1247Z" fill="#000062"/>
</g>
<defs>
<clipPath id="clip0_18574_69663">
<rect width="40" height="34.386" fill="white"/>
</clipPath>
</defs>
</svg>
