<svg width="20" height="21" viewBox="0 0 20 21" fill="none" xmlns="http://www.w3.org/2000/svg">
<path d="M8.33333 5.1582H4.16667C3.24619 5.1582 2.5 5.9044 2.5 6.82487V14.3249C2.5 15.2453 3.24619 15.9915 4.16667 15.9915H15.8333C16.7538 15.9915 17.5 15.2453 17.5 14.3249V6.82487C17.5 5.9044 16.7538 5.1582 15.8333 5.1582H11.6667M8.33333 5.1582V4.32487C8.33333 3.4044 9.07953 2.6582 10 2.6582C10.9205 2.6582 11.6667 3.4044 11.6667 4.32487V5.1582M8.33333 5.1582C8.33333 6.07868 9.07953 6.82487 10 6.82487C10.9205 6.82487 11.6667 6.07868 11.6667 5.1582M7.5 11.8249C8.42047 11.8249 9.16667 11.0787 9.16667 10.1582C9.16667 9.23773 8.42047 8.49154 7.5 8.49154C6.57953 8.49154 5.83333 9.23773 5.83333 10.1582C5.83333 11.0787 6.57953 11.8249 7.5 11.8249ZM7.5 11.8249C8.58852 11.8249 9.5145 12.5205 9.8577 13.4915M7.5 11.8249C6.41148 11.8249 5.48541 12.5205 5.14221 13.4915M12.5 9.32487H15M12.5 12.6582H14.1667" stroke="#7F92FF" stroke-width="1.5" stroke-linecap="round" stroke-linejoin="round"/>
</svg>
