<svg width="49" height="48" viewBox="0 0 49 48" fill="none" xmlns="http://www.w3.org/2000/svg">
<g id="Group">
<path id="Vector" d="M15.7699 19.5382C15.7688 17.546 16.2186 15.5787 17.0863 13.7801C17.9541 11.9815 19.2179 10.3971 20.7853 9.14258C17.8952 9.56246 15.1736 10.7455 12.9083 12.5667C10.643 14.3878 8.91801 16.7794 7.91576 19.4887C6.91352 22.198 6.67123 25.1244 7.21447 27.9584C7.75771 30.7925 9.06629 33.429 11.0019 35.5893C12.9376 37.7496 15.4284 39.3534 18.2111 40.2312C20.9938 41.109 23.965 41.2282 26.8106 40.5763C29.6563 39.9243 32.2707 38.5253 34.3775 36.5273C36.4843 34.5292 38.0053 32.0063 38.7797 29.2251C36.858 31.0406 34.4387 32.259 31.822 32.7292C29.2053 33.1994 26.5063 32.9007 24.06 31.8702C21.6137 30.8396 19.5277 29.1225 18.0607 26.9319C16.5938 24.7414 15.8106 22.1738 15.8082 19.5477L15.7699 19.5382Z" fill="white"/>
<path id="Vector_2" d="M36.3374 15.6748C36.4851 15.6751 36.6295 15.6312 36.7521 15.5489L40.7813 12.8307L44.8104 15.5489C44.9406 15.638 45.0958 15.6833 45.2534 15.6781C45.4111 15.6729 45.5629 15.6175 45.6869 15.5199C45.8109 15.4224 45.9005 15.2878 45.9427 15.1358C45.9849 14.9838 45.9774 14.8224 45.9214 14.6749L44.2179 10.1717L47.9212 7.37947C48.0478 7.28476 48.1408 7.152 48.1866 7.00063C48.2323 6.84925 48.2284 6.6872 48.1755 6.5382C48.1225 6.38919 48.0232 6.26106 47.8922 6.17254C47.7611 6.08403 47.6052 6.03979 47.4471 6.0463H42.8181L41.5219 1.40241C41.4771 1.24857 41.3835 1.11342 41.2553 1.01727C41.1271 0.921118 40.9712 0.869141 40.8109 0.869141C40.6507 0.869141 40.4947 0.921118 40.3665 1.01727C40.2383 1.11342 40.1447 1.24857 40.0999 1.40241L38.7445 6.0463H34.1154C33.96 6.0463 33.8085 6.09521 33.6823 6.1861C33.5562 6.27699 33.4619 6.40526 33.4128 6.55273C33.3636 6.70021 33.3621 6.85941 33.4085 7.00779C33.4548 7.15616 33.5467 7.2862 33.671 7.37947L37.3743 10.1717L35.6708 14.6749C35.617 14.8216 35.6109 14.9815 35.6535 15.1318C35.696 15.2821 35.7851 15.4151 35.9078 15.5118C36.0301 15.6103 36.1805 15.6674 36.3374 15.6748ZM40.7813 11.2309C40.6336 11.2305 40.4891 11.2744 40.3665 11.3568L37.8187 13.0158L38.8926 10.1717C38.9492 10.0224 38.9559 9.85876 38.9118 9.70527C38.8678 9.55177 38.7753 9.41663 38.6482 9.31998L36.3374 7.5276H39.3C39.4662 7.53375 39.6297 7.48375 39.764 7.38567C39.8984 7.28759 39.9958 7.14713 40.0406 6.98692L40.7813 4.29836L41.5219 6.98692C41.5667 7.14713 41.6642 7.28759 41.7985 7.38567C41.9329 7.48375 42.0964 7.53375 42.2626 7.5276H45.2252L42.8551 9.31998C42.728 9.41663 42.6355 9.55177 42.5915 9.70527C42.5474 9.85876 42.5542 10.0224 42.6107 10.1717L43.6846 13.0158L41.1738 11.3197C41.0537 11.2544 40.9178 11.2237 40.7813 11.2309Z" fill="white"/>
<path id="Vector_3" d="M22.2649 23.9033C22.4127 23.9036 22.5571 23.8598 22.6797 23.7774L26.7089 21.0592L30.738 23.7774C30.8649 23.8701 31.0179 23.92 31.175 23.92C31.3321 23.92 31.4851 23.8701 31.612 23.7774C31.7347 23.6807 31.8237 23.5477 31.8663 23.3974C31.9088 23.247 31.9028 23.0871 31.849 22.9404L30.1455 18.4373L33.8488 15.645C33.9947 15.5577 34.1061 15.4227 34.1643 15.2629C34.2225 15.1031 34.2239 14.9281 34.1683 14.7674C34.1127 14.6066 34.0034 14.4699 33.8589 14.3802C33.7144 14.2905 33.5434 14.2533 33.3747 14.2748H28.7456L27.4495 9.63092C27.4046 9.47708 27.3111 9.34194 27.1829 9.24579C27.0547 9.14963 26.8987 9.09766 26.7385 9.09766C26.5782 9.09766 26.4223 9.14963 26.2941 9.24579C26.1659 9.34194 26.0723 9.47708 26.0274 9.63092L24.6721 14.2748H20.043C19.8875 14.2748 19.736 14.3237 19.6099 14.4146C19.4838 14.5055 19.3895 14.6338 19.3404 14.7812C19.2912 14.9287 19.2897 15.0879 19.336 15.2363C19.3824 15.3847 19.4742 15.5147 19.5986 15.608L23.3019 18.4002L21.5984 22.9034C21.5445 23.0501 21.5385 23.21 21.581 23.3603C21.6236 23.5107 21.7126 23.6437 21.8354 23.7403C21.9577 23.8388 22.1081 23.8959 22.2649 23.9033ZM26.7089 19.4594C26.5611 19.459 26.4167 19.5029 26.2941 19.5853L23.7462 21.2443L24.8202 18.4002C24.8767 18.2509 24.8835 18.0873 24.8394 17.9338C24.7954 17.7803 24.7029 17.6451 24.5758 17.5485L22.2649 15.7561H25.2276C25.3938 15.7623 25.5573 15.7123 25.6916 15.6142C25.826 15.5161 25.9234 15.3756 25.9682 15.2154L26.7089 12.5269L27.4495 15.2154C27.4943 15.3756 27.5917 15.5161 27.7261 15.6142C27.8605 15.7123 28.0239 15.7623 28.1902 15.7561H31.1528L28.7827 17.5485C28.6556 17.6451 28.5631 17.7803 28.5191 17.9338C28.475 18.0873 28.4817 18.2509 28.5383 18.4002L29.6122 21.2443L27.1014 19.5483C26.9813 19.483 26.8454 19.4522 26.7089 19.4594Z" fill="white"/>
<path id="Vector_4" d="M3.0079 47.603C3.16816 47.603 3.32409 47.5511 3.4523 47.4549L5.97051 45.5662L8.48872 47.4549C8.61515 47.5506 8.76894 47.6032 8.92749 47.6049C9.08603 47.6067 9.24095 47.5575 9.36947 47.4647C9.49798 47.3718 9.59331 47.2401 9.64142 47.0891C9.68953 46.938 9.6879 46.7755 9.63674 46.6254L8.53316 43.4184L10.881 41.5149C11.0009 41.4187 11.0879 41.2877 11.1299 41.1399C11.172 40.9921 11.167 40.8349 11.1158 40.69C11.0645 40.5452 10.9694 40.4199 10.8438 40.3315C10.7181 40.243 10.5681 40.1959 10.4144 40.1965H7.54069L6.66672 37.7301C6.61483 37.5872 6.52016 37.4636 6.3956 37.3763C6.27104 37.289 6.12262 37.2422 5.97051 37.2422C5.8184 37.2422 5.66998 37.289 5.54542 37.3763C5.42085 37.4636 5.32619 37.5872 5.27429 37.7301L4.40033 40.1965H1.5266C1.37294 40.1959 1.22289 40.243 1.09723 40.3315C0.971572 40.4199 0.87652 40.5452 0.825253 40.69C0.773985 40.8349 0.769046 40.9921 0.811103 41.1399C0.853161 41.2877 0.940131 41.4187 1.05998 41.5149L3.40786 43.4184L2.26725 46.6254C2.21659 46.7751 2.21514 46.9371 2.26311 47.0876C2.31109 47.2382 2.40595 47.3695 2.53387 47.4623C2.67109 47.5621 2.83844 47.6118 3.0079 47.603ZM5.97051 43.8998C5.81025 43.8998 5.65432 43.9518 5.52611 44.0479L4.48921 44.7886L4.97062 43.3739C5.02017 43.2309 5.02474 43.0762 4.98369 42.9305C4.94264 42.7849 4.85794 42.6553 4.74102 42.5592L3.60783 41.6778H4.91877C5.07314 41.6788 5.22395 41.6314 5.3501 41.5424C5.47626 41.4535 5.57146 41.3273 5.6224 41.1816L5.97051 40.1965L6.31862 41.1816C6.36956 41.3273 6.46476 41.4535 6.59091 41.5424C6.71707 41.6314 6.86788 41.6788 7.02224 41.6778H8.33319L7.19999 42.5962C7.08307 42.6923 6.99838 42.8219 6.95733 42.9676C6.91628 43.1132 6.92085 43.268 6.97039 43.4109L7.45181 44.8256L6.4149 44.0849C6.29153 43.9755 6.13513 43.9103 5.97051 43.8998Z" fill="white"/>
</g>
</svg>
