<svg width="90" height="78" viewBox="0 0 90 78" fill="none" xmlns="http://www.w3.org/2000/svg">
<g clip-path="url(#clip0_5495_54178)">
<g clip-path="url(#clip1_5495_54178)">
<path d="M39.4355 44.0093C38.5381 44.9068 37.3947 45.518 36.15 45.7656C34.9052 46.0132 33.6149 45.8862 32.4424 45.4005C31.2698 44.9148 30.2676 44.0923 29.5625 43.037C28.8573 41.9818 28.481 40.7411 28.481 39.4719C28.481 38.2028 28.8573 36.9621 29.5625 35.9068C30.2676 34.8516 31.2698 34.0291 32.4424 33.5434C33.6149 33.0577 34.9052 32.9307 36.15 33.1783C37.3947 33.4259 38.5381 34.0371 39.4355 34.9345L43.9746 30.3955C42.1794 28.6003 39.8923 27.3777 37.4023 26.8824C34.9123 26.3871 32.3313 26.6413 29.9858 27.6128C27.6403 28.5843 25.6355 30.2296 24.225 32.3405C22.8146 34.4514 22.0618 36.9331 22.0618 39.4719C22.0618 42.0107 22.8146 44.4924 24.225 46.6033C25.6355 48.7142 27.6403 50.3595 29.9858 51.331C32.3313 52.3025 34.9123 52.5567 37.4023 52.0614C39.8923 51.566 42.1794 50.3435 43.9746 48.5483L39.4355 44.0093Z" fill="white"/>
<path d="M89.0016 26.7471H70.3965V33.1642H80.1713L76.4902 35.2678V52.271H82.9079V33.1642H89.0016V26.7471Z" fill="white"/>
<path d="M4.79973 23.8518L4.36372 23.6514C4.26425 23.8538 4.16509 24.0564 4.06982 24.2609L4.46904 24.4641C4.57722 24.2583 4.68745 24.0542 4.79973 23.8518Z" fill="white"/>
<path d="M4.61122 17.9728L3.9477 17.541C3.84723 17.6902 3.74678 17.8392 3.64844 17.9897L4.27594 18.4146C4.38482 18.2654 4.49995 18.1204 4.61122 17.9728Z" fill="white"/>
<path d="M4.48466 21.0183L4.08391 20.7979C3.98481 20.9682 3.88569 21.1384 3.78955 21.3103L4.15573 21.5259C4.26349 21.3556 4.3737 21.1868 4.48466 21.0183Z" fill="white"/>
<path d="M5.99775 21.851L5.48562 21.5693C5.37774 21.7527 5.27062 21.9363 5.1665 22.1219L5.64928 22.4062C5.76476 22.2203 5.87894 22.0337 5.99775 21.851Z" fill="white"/>
<path d="M5.23414 26.7056L4.96409 26.6035C4.88817 26.799 4.81198 26.9944 4.73926 27.1923L4.96485 27.291C5.05289 27.095 5.14208 26.8996 5.23414 26.7056Z" fill="white"/>
<path d="M5.18018 19.0271L5.65551 19.349C5.77275 19.193 5.89415 19.04 6.01403 18.886L5.5065 18.5557C5.39805 18.713 5.28586 18.8682 5.18018 19.0271Z" fill="white"/>
<path d="M2.47306 19.9121C2.38422 20.0675 2.29657 20.2236 2.21021 20.3805L2.74641 20.6962C2.84387 20.5384 2.94415 20.3822 3.04406 20.2262L2.47306 19.9121Z" fill="white"/>
<path d="M6.33895 15.8513L5.59263 15.2812C5.4433 15.4712 5.29556 15.6624 5.14941 15.8546L5.86062 16.406C5.93974 16.3125 6.01444 16.2159 6.09457 16.1234C6.1747 16.0309 6.25838 15.9426 6.33895 15.8513Z" fill="white"/>
<path d="M3.66182 26.1119L3.33013 25.9863C3.26382 26.1542 3.19783 26.3221 3.13428 26.4913L3.43017 26.6206C3.50552 26.4496 3.5842 26.2811 3.66182 26.1119Z" fill="white"/>
<path d="M10.2344 12.0483L9.36777 11.1494C9.10076 11.4023 8.83253 11.6538 8.57324 11.9142L9.41077 12.7593C9.68214 12.5182 9.95667 12.2812 10.2344 12.0483Z" fill="white"/>
<path d="M8.53437 18.479C8.69974 18.2879 8.86751 18.0991 9.03777 17.9126L8.39279 17.4199C8.23361 17.6128 8.07441 17.8056 7.91968 18.0024L8.53437 18.479Z" fill="white"/>
<path d="M8.87368 15.6668C9.08882 15.4547 9.30795 15.2472 9.52862 15.0414L8.83589 14.4238C8.6291 14.6436 8.42904 14.8697 8.22778 15.0949L8.87368 15.6668Z" fill="white"/>
<path d="M7.88379 20.8574L8.50048 21.275C8.62963 21.1015 8.76022 20.9294 8.89226 20.7584L8.23395 20.3301C8.11589 20.5047 7.99852 20.6799 7.88379 20.8574Z" fill="white"/>
<path d="M7.44475 19.8168L6.85865 19.4355C6.74335 19.6002 6.62631 19.7638 6.51416 19.9304L7.0716 20.3078C7.19405 20.1423 7.31929 19.9795 7.44475 19.8168Z" fill="white"/>
<path d="M7.09431 16.4277C7.01029 16.5318 6.92247 16.6321 6.83958 16.7373C6.76963 16.8258 6.70494 16.9175 6.63599 17.0066L7.2004 17.4443C7.36411 17.2567 7.5316 17.0733 7.69927 16.8898L7.09431 16.4277Z" fill="white"/>
<path d="M3.21082 23.1222L2.91095 22.9844C2.82134 23.1679 2.73807 23.3544 2.65186 23.5395L2.91026 23.671C3.00803 23.4868 3.10947 23.3045 3.21082 23.1222Z" fill="white"/>
<path d="M6.80054 13.8317L7.57567 14.5178C7.78736 14.3005 7.99783 14.0816 8.21467 13.8701L7.4009 13.1445C7.19587 13.3694 7.0001 13.602 6.80054 13.8317Z" fill="white"/>
<path d="M7.51011 22.6829L6.95927 22.3799C6.84655 22.5788 6.73852 22.7813 6.62988 22.9833L7.12507 23.275C7.25117 23.076 7.3795 22.8786 7.51011 22.6829Z" fill="white"/>
<path d="M6.35025 24.5648L5.92604 24.3701C5.81933 24.5942 5.71467 24.8198 5.61206 25.0469L5.97954 25.2341C6.10053 25.0094 6.22407 24.7863 6.35025 24.5648Z" fill="white"/>
<path d="M12.9706 14.8867C12.7148 15.117 12.4634 15.3514 12.2166 15.59L12.9387 16.3185C13.1829 16.0836 13.4305 15.8523 13.6817 15.6245L12.9706 14.8867Z" fill="white"/>
<path d="M13.8755 12.1924C13.5528 12.4333 13.2351 12.6801 12.9224 12.9329L14.5834 14.8415C14.8764 14.5963 15.1736 14.3562 15.4751 14.1213L13.8755 12.1924Z" fill="white"/>
<path d="M2.01624 25.4901L1.83564 25.4219C1.77912 25.5646 1.727 25.7091 1.67236 25.8526L1.82353 25.9187C1.88632 25.7752 1.9515 25.6327 2.01624 25.4901Z" fill="white"/>
<path d="M13.7064 7.5918C13.3004 7.87735 12.9002 8.17091 12.5059 8.47241L13.4277 9.67888C13.8285 9.41464 14.2348 9.15859 14.6468 8.91076L13.7064 7.5918Z" fill="white"/>
<path d="M11.2447 16.5713C11.0398 16.7882 10.8385 17.0082 10.6409 17.2313L11.3958 17.8996C11.4183 17.8767 11.4403 17.8531 11.4628 17.8305C11.6413 17.6347 11.8223 17.4412 12.0057 17.25L11.2447 16.5713Z" fill="white"/>
<path d="M16.0701 6.06738C15.588 6.35553 15.1127 6.65403 14.644 6.9629L18.1765 12.2334C18.577 11.983 18.9835 11.7416 19.396 11.5092L16.0701 6.06738Z" fill="white"/>
<path d="M35.0915 1.00003C29.6206 0.993385 24.2121 2.1616 19.2317 4.42566L22.1474 10.1249C29.7485 6.76906 38.3555 6.4947 46.1549 9.35964L48.3676 3.35978C44.1167 1.79382 39.6216 0.994835 35.0915 1.00003Z" fill="white"/>
<path d="M18.5548 4.74121C17.9885 5.01232 17.4299 5.29673 16.8792 5.59442L20.1167 11.1142C20.5759 10.8701 21.0417 10.6371 21.5139 10.4151L18.5548 4.74121Z" fill="white"/>
<path d="M14.9239 9.2998C14.5285 9.56158 14.1391 9.83103 13.7559 10.1082L16.3299 13.4765C16.6749 13.226 17.0263 12.9838 17.3816 12.747L14.9239 9.2998Z" fill="white"/>
<path d="M0.357289 25.278C0.408656 25.1592 0.457056 25.039 0.509679 24.9208L0.132613 24.7783C0.0875258 24.8925 0.0440826 25.0073 0 25.1219L0.357289 25.278Z" fill="white"/>
<path d="M10.0795 15.5332C9.87087 15.7487 9.66364 15.9657 9.46094 16.1873L10.1281 16.778C10.3411 16.5671 10.5572 16.3592 10.7762 16.1543L10.0795 15.5332Z" fill="white"/>
<path d="M9.19238 18.9888L9.89278 19.5318C10.06 19.3369 10.2295 19.1441 10.4014 18.9534L9.66205 18.3887C9.50334 18.5869 9.34678 18.7869 9.19238 18.9888Z" fill="white"/>
<path d="M1.02417 22.7104L1.47375 22.9393C1.5601 22.7737 1.64332 22.6064 1.73262 22.4424L1.25467 22.2227C1.1763 22.3847 1.10028 22.5475 1.02417 22.7104Z" fill="white"/>
<path d="M12.7635 10.8516C12.4353 11.1073 12.1104 11.3665 11.7917 11.6338L12.5724 12.5308C12.9022 12.2911 13.2366 12.0578 13.5755 11.8308L12.7635 10.8516Z" fill="white"/>
<path d="M10.7293 12.5615C10.4644 12.803 10.2035 13.049 9.94653 13.2994L10.6675 14.0267C10.9382 13.797 11.2128 13.5722 11.4914 13.3522L10.7293 12.5615Z" fill="white"/>
<path d="M12.645 14.5492L11.9104 13.7871C11.6469 14.019 11.387 14.2548 11.1309 14.4947L11.8392 15.2094C12.1036 14.9851 12.3722 14.765 12.645 14.5492Z" fill="white"/>
<path d="M12.3835 10.3931L11.4729 9.29492C11.1387 9.56842 10.8095 9.84757 10.4854 10.1324L11.365 11.1434C11.699 10.8863 12.0398 10.6377 12.3835 10.3931Z" fill="white"/>
<path d="M57.7187 70.0695L57.0874 69.2354C56.8355 69.4094 56.585 69.5862 56.3298 69.7532L56.9858 70.626C57.2325 70.4437 57.4768 70.2581 57.7187 70.0695Z" fill="white"/>
<path d="M56.5549 68.5316L56.0322 67.8408C55.7779 68.0089 55.5215 68.173 55.2629 68.3331L55.8234 69.079C56.0705 68.9019 56.3119 68.7156 56.5549 68.5316Z" fill="white"/>
<path d="M58.0352 62.9163L57.4882 62.3604C57.3297 62.504 57.1642 62.6391 57.0029 62.7795L57.5939 63.3586C57.742 63.2122 57.8896 63.0657 58.0352 62.9163Z" fill="white"/>
<path d="M54.8125 67.733C55.0611 67.5603 55.3074 67.3843 55.5515 67.2051L55.0178 66.5C54.7652 66.667 54.5106 66.8303 54.2539 66.9898L54.8125 67.733Z" fill="white"/>
<path d="M55.5836 71.6157L54.9278 70.6201C54.6101 70.8073 54.2898 70.9891 53.967 71.1654L54.6447 72.2261C54.9605 72.0266 55.2741 71.8241 55.5836 71.6157Z" fill="white"/>
<path d="M59.7369 68.3844L59.1479 67.7031C59.0305 67.797 58.9169 67.8951 58.7983 67.9876C58.7241 68.0455 58.6476 68.0987 58.573 68.1559L59.1884 68.8569C59.3712 68.6996 59.5569 68.5451 59.7369 68.3844Z" fill="white"/>
<path d="M58.1818 67.2317C58.2893 67.14 58.3915 67.0436 58.4977 66.9508L58.0303 66.4102C57.8335 66.5624 57.6346 66.7112 57.4351 66.8587L57.9375 67.4315C58.0183 67.3639 58.1016 67.3002 58.1818 67.2317Z" fill="white"/>
<path d="M59.6876 61.0756L59.2196 60.6562C59.0607 60.8234 58.9042 60.9929 58.7419 61.1564L59.2556 61.5901C59.4021 61.4211 59.5445 61.248 59.6876 61.0756Z" fill="white"/>
<path d="M59.1846 64.0838L58.7283 63.6201C58.5776 63.7563 58.4251 63.8894 58.2722 64.0225L58.7578 64.4984C58.9009 64.3609 59.0442 64.2238 59.1846 64.0838Z" fill="white"/>
<path d="M60.3259 65.2441L59.9214 64.833C59.7784 64.9616 59.6332 65.0876 59.4878 65.2138L59.9197 65.6369C60.0544 65.5054 60.1934 65.3779 60.3259 65.2441Z" fill="white"/>
<path d="M55.1665 64.2733L55.8001 64.9955C55.9943 64.8322 56.1873 64.6674 56.3778 64.4989L55.7725 63.7988C55.571 63.9579 55.3717 64.1197 55.1665 64.2733Z" fill="white"/>
<path d="M52.3452 71.2699L51.7513 70.2275C51.3735 70.4021 50.9925 70.5693 50.6084 70.7291L51.2179 71.8609C51.5967 71.6703 51.973 71.4748 52.3452 71.2699Z" fill="white"/>
<path d="M48.9468 73.4147L49.6152 74.9076C50.0804 74.7022 50.5412 74.4877 50.9977 74.2643L50.3268 72.8896C49.8704 73.0746 49.4104 73.2496 48.9468 73.4147Z" fill="white"/>
<path d="M43.9415 70.1562C43.4266 70.3099 42.907 70.453 42.3816 70.5813L44.1816 76.7864C44.8102 76.6283 45.4325 76.4549 46.0484 76.2662L43.9415 70.1562Z" fill="white"/>
<path d="M53.568 68.5558L53.0145 67.7158C52.7059 67.887 52.3945 68.0525 52.0803 68.2124L52.6526 69.108C52.9606 68.929 53.2658 68.7449 53.568 68.5558Z" fill="white"/>
<path d="M57.4261 65.7119L56.9264 65.1338C56.7269 65.289 56.525 65.4406 56.322 65.5905L56.8506 66.1934C57.0438 66.0346 57.2364 65.8752 57.4261 65.7119Z" fill="white"/>
<path d="M54.5042 69.9772L53.9364 69.1152C53.6214 69.2911 53.3036 69.4612 52.9832 69.6256L53.5788 70.5578C53.8899 70.3693 54.1984 70.1757 54.5042 69.9772Z" fill="white"/>
<path d="M53.3401 73.0168L52.6702 71.8408C52.2842 72.0317 51.8943 72.2131 51.5022 72.3892L52.1844 73.6563C52.5728 73.4491 52.9588 73.237 53.3401 73.0168Z" fill="white"/>
<path d="M51.8261 67.8148C52.1266 67.6372 52.4238 67.454 52.7179 67.2652L52.1379 66.3848C51.8484 66.5709 51.556 66.7524 51.2605 66.9293L51.8261 67.8148Z" fill="white"/>
<path d="M66.0789 60.3675L66.4201 60.581C66.4808 60.4872 66.5368 60.3908 66.5968 60.2966L66.2788 60.0742C66.2113 60.1716 66.1471 60.2712 66.0789 60.3675Z" fill="white"/>
<path d="M64.8155 62.8627C64.9193 62.7255 65.024 62.589 65.1258 62.4505L64.7316 62.1387C64.6194 62.278 64.509 62.4189 64.3948 62.5565L64.8155 62.8627Z" fill="white"/>
<path d="M53.8746 66.4849C54.1197 66.3107 54.3622 66.1325 54.6021 65.9504L53.976 65.123C53.9181 65.1626 53.8621 65.2056 53.8039 65.2449C53.6191 65.3808 53.4291 65.5099 53.2415 65.6419L53.8746 66.4849Z" fill="white"/>
<path d="M65.0913 59.2438L64.955 59.1484C64.8713 59.2677 64.7861 59.386 64.7009 59.5042L64.8647 59.6067C64.942 59.4871 65.0153 59.3645 65.0913 59.2438Z" fill="white"/>
<path d="M50.3818 70.3086C50.7526 70.1316 51.1196 69.9475 51.4827 69.7564L50.2146 67.5303C49.8731 67.7178 49.5279 67.8994 49.1792 68.0751L50.3818 70.3086Z" fill="white"/>
<path d="M60.9339 62.1928L60.5421 61.8418C60.3958 61.9968 60.2506 62.1532 60.1016 62.3051L60.5248 62.6624C60.6627 62.5072 60.799 62.3506 60.9339 62.1928Z" fill="white"/>
<path d="M46.9466 75.9676C47.4908 75.7747 48.0303 75.5696 48.5649 75.3522L46.1149 69.4268C45.6598 69.5988 45.1985 69.758 44.7334 69.9098L46.9466 75.9676Z" fill="white"/>
<path d="M48.7511 72.978C49.201 72.7954 49.6467 72.6033 50.0883 72.4016L48.2061 68.5459C47.809 68.7291 47.4076 68.9041 47.002 69.0712L48.7511 72.978Z" fill="white"/>
<path d="M41.6954 70.7371C33.5044 72.5538 24.928 71.1127 17.7806 66.7188L14.3965 72.2174C23.0817 77.5528 33.5173 79.2574 43.4489 76.9631L41.6954 70.7371Z" fill="white"/>
<path d="M62.1365 63.27L61.8188 62.9854C61.6835 63.1277 61.5471 63.269 61.4097 63.4093L61.7577 63.7031C61.884 63.5591 62.0119 63.4161 62.1365 63.27Z" fill="white"/>
<path d="M62.0298 60.8345C62.1624 60.6612 62.2939 60.4874 62.4229 60.3114L62.106 60.0605C61.9642 60.2344 61.8207 60.4064 61.6758 60.5767L62.0298 60.8345Z" fill="white"/>
<path d="M61.6274 66.568L61.1013 66.0332C60.9678 66.1565 60.8281 66.2738 60.6926 66.3951L61.2547 66.9458C61.3801 66.821 61.5037 66.6945 61.6274 66.568Z" fill="white"/>
<path d="M61.0916 59.2585L60.7279 58.9707C60.5696 59.1619 60.4029 59.3452 60.2405 59.5326L60.6642 59.8409C60.8085 59.6485 60.9509 59.4544 61.0916 59.2585Z" fill="white"/>
<path d="M63.7712 58.3208L63.5457 58.1631C63.4448 58.3064 63.3408 58.4467 63.238 58.5882L63.4972 58.7506C63.5895 58.6079 63.6813 58.4651 63.7712 58.3208Z" fill="white"/>
<path d="M62.6753 64.4779L63.1739 64.8986C63.2878 64.7674 63.3975 64.6328 63.5097 64.5L63.0485 64.0869C62.9258 64.2189 62.7999 64.3478 62.6753 64.4779Z" fill="white"/>
<path d="M63.3337 61.7834C63.453 61.627 63.5672 61.467 63.6835 61.3085L63.4551 61.1279C63.3279 61.2835 63.1985 61.4372 63.0686 61.5905L63.3337 61.7834Z" fill="white"/>
<path d="M62.1119 57.1602C61.9926 57.3264 61.8785 57.4963 61.7563 57.6601L62.0463 57.8417C62.1531 57.6741 62.2606 57.507 62.3648 57.337L62.1119 57.1602Z" fill="white"/>
<path d="M21.9371 54.0482C21.7158 53.8718 21.4982 53.6903 21.284 53.5039L20.6389 54.148C20.8421 54.364 21.0518 54.5724 21.2648 54.7765L21.9371 54.0482Z" fill="white"/>
<path d="M19.9535 52.2285L19.4043 52.683C19.5867 52.9249 19.7757 53.1589 19.9684 53.3889L20.5763 52.8551C20.3642 52.6513 20.1565 52.4424 19.9535 52.2285Z" fill="white"/>
<path d="M22.4813 56.5471C22.2209 56.3901 21.9654 56.2258 21.7134 56.0557L21.1309 56.7625C21.3758 56.9677 21.6252 57.1675 21.8799 57.3594L22.4813 56.5471Z" fill="white"/>
<path d="M17.7824 52.4485C17.6117 52.2397 17.4433 52.0278 17.2793 51.8096L17.0146 51.9917C17.1592 52.2245 17.3076 52.4535 17.4598 52.6786L17.7824 52.4485Z" fill="white"/>
<path d="M20.7382 55.3469C20.496 55.1581 20.2572 54.9639 20.0239 54.7617L19.5273 55.2574C19.7463 55.4882 19.9699 55.7131 20.1982 55.9322L20.7382 55.3469Z" fill="white"/>
<path d="M18.7854 54.4264L19.2337 54.0329C19.0115 53.8162 18.7924 53.595 18.5792 53.3652L18.1892 53.688C18.3827 53.9399 18.5815 54.186 18.7854 54.4264Z" fill="white"/>
<path d="M45.2588 56.0029C41.0499 58.6631 35.9721 59.584 31.0971 58.5713L29.7183 64.8125C36.2404 66.1919 43.0434 64.9696 48.6774 61.4061L45.2588 56.0029Z" fill="white"/>
<path d="M14.6436 53.625L14.2673 53.884C14.4246 54.129 14.5863 54.371 14.7525 54.6102L15.167 54.315C14.9888 54.088 14.8136 53.8588 14.6436 53.625Z" fill="white"/>
<path d="M29.2567 58.0928L27.354 64.1515C27.7852 64.2996 28.2198 64.438 28.6585 64.5636C28.8171 64.6041 28.9755 64.6453 29.1352 64.6825L30.5632 58.4517C30.1216 58.3472 29.6862 58.2275 29.2567 58.0928Z" fill="white"/>
<path d="M16.0901 55.4258L15.6321 55.8048C15.847 56.079 16.0676 56.3487 16.294 56.6138L16.7903 56.178C16.5516 55.9325 16.3182 55.6817 16.0901 55.4258Z" fill="white"/>
<path d="M22.1301 55.55C22.3544 55.737 22.5833 55.9182 22.8167 56.0939L23.4996 55.1719C23.2701 55.0237 23.0436 54.8707 22.8202 54.7129L22.1301 55.55Z" fill="white"/>
<path d="M23.7245 58.5827L24.3451 57.5214C24.0293 57.3796 23.7195 57.2276 23.4143 57.0684L22.7883 58.0015C23.0943 58.2049 23.4064 58.3986 23.7245 58.5827Z" fill="white"/>
<path d="M16.4743 53.3814C16.2993 53.1635 16.1283 52.9419 15.9613 52.7168L15.7039 52.8944C15.855 53.1324 16.0106 53.367 16.1708 53.5981L16.4743 53.3814Z" fill="white"/>
<path d="M19.2263 51.4187C19.0572 51.2195 18.8918 51.0167 18.7302 50.8105L18.3264 51.0887C18.4641 51.3162 18.6059 51.5392 18.7516 51.7576L19.2263 51.4187Z" fill="white"/>
<path d="M24.8191 61.5607C24.3851 61.3876 23.9563 61.2017 23.5329 61.0029L22.9253 62.1354C23.3568 62.3842 23.7934 62.6241 24.2393 62.8475L24.8191 61.5607Z" fill="white"/>
<path d="M27.1485 62.3442C26.6461 62.2047 26.1485 62.052 25.6586 61.8789L25.0859 63.2475C25.5942 63.479 26.1089 63.6968 26.6321 63.8946L27.1485 62.3442Z" fill="white"/>
<path d="M25.5726 59.8883C25.1634 59.7484 24.7639 59.5981 24.3745 59.4346L23.8003 60.505C24.1985 60.7246 24.6035 60.9314 25.0153 61.1254L25.5726 59.8883Z" fill="white"/>
<path d="M28.6331 57.8857C28.2536 57.7522 27.8786 57.6094 27.5108 57.4531L25.8215 61.4897C26.2899 61.6891 26.7676 61.8692 27.251 62.0366L28.6331 57.8857Z" fill="white"/>
<path d="M23.6685 56.6892C23.9477 56.8724 24.232 57.049 24.5235 57.2166L25.1053 56.2221C24.8386 56.061 24.5764 55.8935 24.3187 55.7197L23.6685 56.6892Z" fill="white"/>
<path d="M18.0193 55.0993C17.7877 54.8683 17.5615 54.6321 17.3408 54.3906L16.9722 54.6957C17.1766 54.9568 17.3869 55.2132 17.603 55.4648L18.0193 55.0993Z" fill="white"/>
<path d="M24.5801 59.052C24.9498 59.2416 25.3274 59.4173 25.7104 59.5824L26.8116 57.1384C26.4907 56.9867 26.1759 56.8249 25.8652 56.6562L24.5801 59.052Z" fill="white"/>
<path d="M20.476 59.2549C20.3319 59.1575 20.1859 59.0635 20.0436 58.9626C19.8906 58.8542 19.7429 58.7397 19.5927 58.6279L19.002 59.3447C19.2874 59.5917 19.5786 59.8321 19.8754 60.0661L20.476 59.2549Z" fill="white"/>
<path d="M19.6283 56.5504C19.3717 56.3428 19.1206 56.129 18.8748 55.9092L18.4197 56.3636C18.6534 56.6079 18.8931 56.847 19.1386 57.0809L19.6283 56.5504Z" fill="white"/>
<path d="M23.4675 59.0217C23.1284 58.8562 22.7921 58.6816 22.4593 58.4922L21.9001 59.326C22.23 59.5538 22.5643 59.7743 22.9049 59.9835L23.4675 59.0217Z" fill="white"/>
<path d="M18.5035 57.7701C18.2337 57.5433 17.9694 57.3107 17.7105 57.0723L17.1804 57.6016C17.4296 57.8649 17.6845 58.1227 17.9451 58.3752L18.5035 57.7701Z" fill="white"/>
<path d="M22.5863 60.5283C22.221 60.3345 21.8616 60.1283 21.5058 59.9141L20.8916 60.8298C21.248 61.0836 21.6108 61.3285 21.98 61.5645L22.5863 60.5283Z" fill="white"/>
<path d="M20.9426 58.6252L21.4833 57.8949C21.2102 57.7174 20.9361 57.5297 20.6613 57.332L20.1338 57.9717C20.2679 58.0852 20.3993 58.2011 20.5362 58.3117C20.6697 58.4195 20.8071 58.521 20.9426 58.6252Z" fill="white"/>
<path d="M31.7103 18.4034L31.6445 17.8896C31.3063 17.9248 30.9693 17.9672 30.6335 18.0196L30.7291 18.6257C31.0541 18.5432 31.3812 18.4691 31.7103 18.4034Z" fill="white"/>
<path d="M31.9344 20.1543L31.8451 19.4561C31.5223 19.4876 31.2002 19.5279 30.8789 19.5769L31.0034 20.3664C31.3115 20.2882 31.6218 20.2176 31.9344 20.1543Z" fill="white"/>
<path d="M18.5383 19.6046L19.5752 20.8731C19.9439 20.5375 20.3225 20.2155 20.711 19.9071L19.8449 18.6689C19.3991 18.9655 18.9654 19.2803 18.5383 19.6046Z" fill="white"/>
<path d="M23.4166 20.1391L22.8075 19.0615C22.4237 19.2774 22.0477 19.5065 21.6763 19.7451L22.4239 20.8776C22.7484 20.6219 23.0782 20.3742 23.4166 20.1391Z" fill="white"/>
<path d="M30.1133 14.7202L30.2189 15.3898C30.5766 15.312 30.9361 15.2422 31.2977 15.1806L31.2207 14.5801C30.8508 14.6184 30.4816 14.6651 30.1133 14.7202Z" fill="white"/>
<path d="M24.5144 17.4387L24.0587 16.4072C23.6609 16.5746 23.2675 16.7539 22.8782 16.9417L23.4417 18.0308C23.7941 17.8248 24.1509 17.626 24.5144 17.4387Z" fill="white"/>
<path d="M22.5397 18.5864L21.8929 17.4414C21.4669 17.6703 21.0495 17.9153 20.6365 18.1684L21.4237 19.361C21.7886 19.0922 22.1598 18.8329 22.5397 18.5864Z" fill="white"/>
<path d="M32.7009 14.472L32.7296 14.9869C33.0525 14.9527 33.3767 14.9247 33.7021 14.9032L33.6844 14.4463C33.3565 14.4482 33.0287 14.4574 32.7009 14.472Z" fill="white"/>
<path d="M33.7649 16.5026L33.7527 16.1895C33.4336 16.1895 33.1153 16.1966 32.7979 16.2108L32.819 16.5912C33.1328 16.5542 33.4484 16.5256 33.7649 16.5026Z" fill="white"/>
<path d="M17.9314 20.0742C17.6327 20.3154 17.3397 20.5637 17.0522 20.8192C16.9038 20.9581 16.7568 21.0987 16.6113 21.2408L21.1127 25.7777C21.4129 25.4846 21.7223 25.2015 22.0409 24.9283L17.9314 20.0742Z" fill="white"/>
<path d="M33.8962 19.8609L33.8773 19.3721C33.5768 19.3671 33.2758 19.3721 32.9746 19.3827L33.0073 19.9696C33.3023 19.9268 33.5986 19.8905 33.8962 19.8609Z" fill="white"/>
<path d="M31.5038 16.7915L31.4417 16.3066C31.0882 16.3435 30.7359 16.3901 30.385 16.4438L30.4734 17.0053C30.8148 16.9251 31.1582 16.8539 31.5038 16.7915Z" fill="white"/>
<path d="M33.8274 18.1019L33.8148 17.7817C33.5047 17.7799 33.1949 17.7834 32.8862 17.7959L32.9089 18.2041C33.2144 18.1638 33.5206 18.1278 33.8274 18.1019Z" fill="white"/>
<path d="M28.9742 15.6994L28.8055 14.9473C28.4381 15.0217 28.0724 15.1046 27.7083 15.1962L27.928 16.0157C28.2743 15.9021 28.623 15.7967 28.9742 15.6994Z" fill="white"/>
<path d="M29.6964 18.9188L29.5398 18.2207C29.2184 18.2898 28.8988 18.3681 28.5806 18.453L28.7881 19.228C29.0877 19.1173 29.3905 19.0142 29.6964 18.9188Z" fill="white"/>
<path d="M30.0789 20.6259L29.8842 19.7568C29.5832 19.8196 29.2837 19.8897 28.9858 19.967L29.2374 20.9064C29.5153 20.8068 29.7959 20.7133 30.0789 20.6259Z" fill="white"/>
<path d="M23.6298 20.5156C23.2837 20.7186 22.9449 20.9348 22.6104 21.159L24.088 23.3974C24.3728 23.2128 24.6638 23.0373 24.9588 22.8676L23.6298 20.5156Z" fill="white"/>
<path d="M25.2159 19.0267L24.7924 18.0684C24.4309 18.2267 24.075 18.397 23.7227 18.5741L24.2497 19.5928C24.5663 19.3951 24.8884 19.2063 25.2159 19.0267Z" fill="white"/>
<path d="M26.0844 20.9922C25.7843 21.1278 25.4886 21.2714 25.197 21.4229L25.7276 22.4486C25.9986 22.3088 26.2722 22.1738 26.5503 22.0467L26.0844 20.9922Z" fill="white"/>
<path d="M16.19 21.6631C11.5307 26.4308 8.92537 32.8347 8.93288 39.501H15.3261C15.3201 34.5217 17.2577 29.7367 20.7265 26.1645L16.19 21.6631Z" fill="white"/>
<path d="M20.9418 20.2373C20.5435 20.5161 20.1524 20.8066 19.7705 21.1123L22.5469 24.5087C22.8421 24.2731 23.1443 24.046 23.4533 23.8276L20.9418 20.2373Z" fill="white"/>
<path d="M26.3706 16.5835C26.4542 16.5494 26.5392 16.52 26.6231 16.4868L26.3252 15.5801C25.962 15.6931 25.6015 15.815 25.2437 15.9459L25.6173 16.9108C25.8667 16.7986 26.1166 16.6872 26.3706 16.5835Z" fill="white"/>
<path d="M25.9025 20.5808L25.4566 19.5713C25.1282 19.7206 24.804 19.8785 24.4839 20.0451L25.0365 21.1126C25.3191 20.9275 25.6078 20.7502 25.9025 20.5808Z" fill="white"/>
<path d="M27.149 18.0874L26.8828 17.2773C26.8074 17.302 26.7308 17.323 26.6553 17.3484C26.3988 17.4345 26.1457 17.5283 25.8933 17.6233L26.2324 18.499C26.5337 18.3542 26.8397 18.2178 27.149 18.0874Z" fill="white"/>
<path d="M28.2065 21.3076L27.8743 20.2959C27.5945 20.3881 27.3163 20.4846 27.0417 20.5901L27.4522 21.6503C27.7011 21.5312 27.9521 21.4159 28.2065 21.3076Z" fill="white"/>
<path d="M27.6726 19.6818L27.3861 18.8096C27.0808 18.9116 26.7784 19.0206 26.479 19.1367L26.8411 20.0718C27.1142 19.9345 27.3922 19.806 27.6726 19.6818Z" fill="white"/>
<path d="M29.3347 17.306L29.1902 16.6631C28.8469 16.7351 28.5053 16.8154 28.1655 16.9039L28.3581 17.6233C28.6814 17.51 29.0064 17.4031 29.3347 17.306Z" fill="white"/>
<path d="M58.5573 36.8235C56.0363 36.2484 53.8591 35.7519 53.8591 34.3801C53.8591 32.5088 56.3269 32.2297 57.798 32.2297C59.4359 32.2447 61.0532 32.5965 62.5494 33.2632L62.6756 33.3176L66.7788 29.2148L66.3267 28.9208C63.7462 27.4371 60.8099 26.6853 57.8339 26.7466C51.4541 26.7466 47.3318 29.8488 47.3318 34.65C47.3318 40.216 52.3303 41.3782 56.361 42.3155C58.8848 42.9017 61.0643 43.4077 61.0643 44.8056C61.0643 46.5306 58.5551 46.788 57.0593 46.788C54.8765 46.7685 52.7309 46.221 50.8057 45.192L50.6728 45.1198L46.6765 49.1159L47.0737 49.4252C49.301 51.1537 53.2065 52.2707 57.0233 52.2707C64.8236 52.2707 67.5914 48.0325 67.5914 44.4035C67.5921 38.8933 62.5892 37.7471 58.5573 36.8235Z" fill="white"/>
</g>
</g>
<defs>
<clipPath id="clip0_5495_54178">
<rect width="90" height="78" fill="white"/>
</clipPath>
<clipPath id="clip1_5495_54178">
<rect width="89.17" height="77.239" fill="white" transform="translate(0 1)"/>
</clipPath>
</defs>
</svg>
