<svg id="ebjPrIuRVK01" xmlns="http://www.w3.org/2000/svg" xmlns:xlink="http://www.w3.org/1999/xlink" viewBox="0 0 274 174" shape-rendering="geometricPrecision" text-rendering="geometricPrecision"><g transform="translate(-160.632461-98.421089)"><g id="ebjPrIuRVK03" transform="translate(.000001 0.000001)"><path id="ebjPrIuRVK04" d="M295.32,233.89c.1.09.26.08.36-.02l1.8-2.05c.09-.1.08-.25-.01-.35l-.99-.97c-.09-.09-.25-.1-.34,0l-2.05,1.84c0,0-.01.01-.02.02-.1.1-.09.26.01.36l1.24,1.18c0,0,0,0,0,0v-.01Z" opacity="0" fill="#5e1ad5" stroke-width="0"/><path id="ebjPrIuRVK05" d="M301.29,235.08l-.58-.54c-.11-.1-.28-.1-.39,0l-2.02,1.87c0,0,0,0,0,0-.11.11-.12.29,0,.41l.72.74c0,0,0,0,.01.01.12.11.3.1.41-.02l1.89-2.07c.1-.12.1-.3-.02-.4h-.02Z" opacity="0" fill="#5e1ad5" stroke-width="0"/><path id="ebjPrIuRVK06" d="M304.87,238.37v0c-.26-.26-.8-.16-1.2.24l-1.57,1.56c-.11.11-.11.29,0,.4l.7.71c0,0,0,0,0,0c.11.11.29.11.41,0l1.57-1.56c0,0,0,0,0,0c.4-.4.51-.94.25-1.2l-.15-.15h-.01Z" opacity="0" fill="#5e1ad5" stroke-width="0"/><path id="ebjPrIuRVK07" d="M309.36,242.77l-.92-.93c-.1-.1-.27-.11-.37,0l-2.17,2.09c0,0,0,0,0,0-.1.1-.1.27,0,.38l1.03,1.03c0,0,0,0,0,0c.11.1.28.09.38-.02l2.06-2.18c.1-.1.1-.27,0-.37h-.01Z" opacity="0" fill="#5e1ad5" stroke-width="0"/><path id="ebjPrIuRVK08" d="M292.84,236.38l-1.41-1.62c-.08-.09-.22-.11-.32-.04l-2.41,1.75c0,0,0,0-.01.01-.1.09-.11.24-.03.34l1.56,1.84c.09.1.24.11.34.02l2.26-1.97c.1-.09.11-.24.02-.34v.01Z" opacity="0" fill="#5e1ad5" stroke-width="0"/><path id="ebjPrIuRVK09" d="M293.57,242.77c0,0,.11.06.16.02l2.67-2.13c0,0,.06-.11.02-.16l-1.2-1.51c-.04-.05-.11-.06-.16-.02l-2.67,2.13c0,0-.06.11-.02.16l1.2,1.51Z" opacity="0" fill="#5e1ad5" stroke-width="0"/><rect id="ebjPrIuRVK010" width="3.81" height="2.05" rx="0.25" ry="0.25" transform="matrix(.776926-.629592 0.629592 0.776926 295.768685 245.332624)" opacity="0" fill="#5e1ad5" stroke-width="0"/><rect id="ebjPrIuRVK011" width="3.96" height="2.43" rx="0.19" ry="0.19" transform="matrix(.763571-.645724 0.645724 0.763571 299.240757 249.541351)" opacity="0" fill="#5e1ad5" stroke-width="0"/><path id="ebjPrIuRVK012" d="M285.13,242.59c.06.09.18.11.27.04l2.38-1.71c.09-.06.11-.18.05-.27l-1.64-2.3c-.06-.08-.16-.1-.25-.06l-2.51,1.38c0,0,0,0-.01,0-.09.06-.11.18-.06.27l1.76,2.63c0,0,0,0,0,0l.01.02Z" opacity="0" fill="#5e1ad5" stroke-width="0"/><path id="ebjPrIuRVK013" d="M287.93,246.77c0,0,0,0,0,0c.11.15.32.19.47.09l2.36-1.62c0,0,0,0,.01,0c.15-.11.18-.32.07-.47l-1.21-1.62c-.1-.14-.29-.18-.44-.09l-2.4,1.39c0,0-.01,0-.02.01-.16.1-.2.31-.09.47l1.25,1.85v-.01Z" opacity="0" fill="#5e1ad5" stroke-width="0"/><path id="ebjPrIuRVK014" d="M294.06,249.33l-1.31-1.99c-.03-.05-.1-.07-.15-.03l-2.9,1.9c-.05.03-.07.1-.03.15l1.31,1.99c.03.05.1.07.15.03l2.9-1.9c.05-.03.07-.1.03-.15Z" opacity="0" fill="#5e1ad5" stroke-width="0"/><path id="ebjPrIuRVK015" d="M296.08,251.95c-.08-.11-.22-.14-.33-.07l-2.93,1.77c0,0,0,0,0,0-.12.08-.15.24-.07.35l1.44,2.14c0,0,0,0,0,0c.08.12.24.14.35.07l2.86-2.01c.11-.08.14-.24.06-.35l-1.37-1.91-.01.01Z" opacity="0" fill="#5e1ad5" stroke-width="0"/><path id="ebjPrIuRVK016" d="M279.28,246.03c.06.11.19.14.3.09l2.41-1.34c0,0,0,0,0,0c.1-.06.14-.2.08-.3l-1.71-2.95c-.06-.1-.18-.14-.28-.09l-2.34,1.14c0,0,0,0,0,0-.11.06-.15.19-.09.29l1.64,3.15c0,0,0,0,0,0l-.01.01Z" opacity="0" fill="#5e1ad5" stroke-width="0"/><path id="ebjPrIuRVK017" d="M281.64,250.53c0,0,0,0,0,0c.09.16.29.21.45.12l2.44-1.36c0,0,0,0,0,0c.16-.09.21-.29.12-.45l-1.37-2.32c-.08-.14-.26-.2-.41-.14l-2.48,1.05c0,0-.02,0-.03.01-.16.09-.22.29-.13.45l1.4,2.64h.01Z" opacity="0" fill="#5e1ad5" stroke-width="0"/><rect id="ebjPrIuRVK018" width="3.69" height="3.26" rx="0.27" ry="0.27" transform="matrix(.881962-.47132 0.47132 0.881962 282.730537 252.682592)" opacity="0" fill="#5e1ad5" stroke-width="0"/><path id="ebjPrIuRVK019" d="M288.91,256.06c-.04-.07-.12-.09-.19-.06l-3.29,1.51c0,0,0,0,0,0-.07.04-.1.13-.06.2l1.63,3.03c0,0,0,0,0,0c.04.07.13.1.2.06l3.24-1.85c.07-.04.1-.13.06-.2l-1.58-2.7-.01.01Z" opacity="0" fill="#5e1ad5" stroke-width="0"/><path id="ebjPrIuRVK020" d="M273.15,248.68c.08.19.3.28.49.19l2.55-1.1v0c.19-.09.27-.31.18-.5l-1.43-3.08c-.08-.18-.3-.27-.48-.19l-2.41,1.03c-.19.08-.28.29-.2.48l1.29,3.15c0,0,0,0,0,0l.01.02Z" opacity="0" fill="#5e1ad5" stroke-width="0"/><path id="ebjPrIuRVK021" d="M275.02,253.58c.05.12.18.17.3.13l3.16-1.32c0,0,0,0,0,0c.12-.05.17-.19.11-.31l-1.46-3.18c-.05-.11-.17-.16-.28-.13l-3.08.99c0,0,0,0-.01,0-.12.05-.18.18-.13.3l1.38,3.51c0,0,0,0,0,0l.01.01Z" opacity="0" fill="#5e1ad5" stroke-width="0"/><path id="ebjPrIuRVK022" d="M280.76,257.38c.12-.05.17-.19.12-.31l-1.35-3.03c-.05-.11-.17-.17-.29-.13l-3.37,1.11c0,0,0,0-.01,0-.12.05-.18.18-.13.31l1.3,3.36c0,0,0,0,0,0c.05.12.19.18.31.13l3.42-1.44c0,0,0,0,0,0Z" opacity="0" fill="#5e1ad5" stroke-width="0"/><path id="ebjPrIuRVK023" d="M281.94,259.28c-.05-.12-.19-.17-.31-.13l-3.64,1.33c0,0,0,0,0,0-.12.05-.19.19-.13.32l1.4,3.56c0,0,0,0,0,0c.05.12.2.18.32.13l3.73-1.62c0,0,0,0,0,0c.12-.06.18-.2.12-.32l-1.49-3.27Z" opacity="0" fill="#5e1ad5" stroke-width="0"/><path id="ebjPrIuRVK024" d="M269.06,246.16l-3.05.93c-.13.04-.21.18-.17.31l2.3,8.39c0,0,0,0,0,0c.04.13.18.21.31.17l3.61-1.05c0,0,0,0,.01,0c.13-.05.2-.19.15-.32l-2.87-8.27c-.04-.13-.18-.2-.31-.16h.02Z" opacity="0" fill="#5e1ad5" stroke-width="0"/><path id="ebjPrIuRVK025" d="M273.87,260.14c.14-.05.21-.2.17-.34l-1.23-3.67c-.04-.13-.18-.21-.31-.18l-3.8.85v0c-.14.04-.23.19-.19.33l1.13,4.08c0,0,0,0,0,.01.05.14.19.22.33.17l3.9-1.25c0,0,0,0,0,0Z" opacity="0" fill="#5e1ad5" stroke-width="0"/><path id="ebjPrIuRVK026" d="M274.44,261.57l-4.12,1.06v0c-.15.04-.24.19-.2.34l1.14,4.26c0,0,0,0,0,.01.05.15.21.22.35.18l4.28-1.4c.14-.05.22-.2.18-.35l-1.29-3.92c-.04-.14-.19-.22-.34-.19v.01Z" opacity="0" fill="#5e1ad5" stroke-width="0"/><path id="ebjPrIuRVK027" d="M266.85,262.22c0,0,0,0,0,0c.14-.03.22-.17.19-.31l-3.38-13.93c-.03-.13-.17-.22-.3-.19l-3.49.74c-.14.03-.23.16-.2.3l2.4,14.12c0,0,0,0,0,0c.03.14.16.23.3.2l4.48-.93Z" opacity="0" fill="#5e1ad5" stroke-width="0"/><path id="ebjPrIuRVK028" d="M267.16,263.24l-4.7.7c0,0,0,0,0,0-.14.02-.23.16-.21.3l.86,5.1c0,0,0,.01,0,.02.03.14.17.22.31.19l4.93-1.14c0,0,0,0,0,0c.14-.03.22-.17.19-.31l-1.1-4.66c-.03-.13-.15-.21-.28-.2Z" opacity="0" fill="#5e1ad5" stroke-width="0"/><path id="ebjPrIuRVK029" d="M257.48,248.91l-3.83.39c-.17.02-.3.17-.28.34l1.44,20.87c0,0,0,.01,0,.02.02.17.18.3.36.27l5.39-.67c0,0,0,0,0,0c.17-.02.29-.19.27-.36l-3.01-20.58c-.02-.17-.17-.29-.34-.27v-.01Z" opacity="0" fill="#5e1ad5" stroke-width="0"/></g><g id="ebjPrIuRVK030" mask="url(#ebjPrIuRVK032)"><path d="M251.47,249.45c-9.83.44-19.23-1.27-28.21-5.15-23.05-9.96-38.02-32.49-38.86-57.47-.47-22.87,10.92-43.89,30.23-55.87c17.29-10.74,39.23-12.78,58.12-4.84c7.27,3.06,13.76,7.28,19.27,12.42l15.81-14.68c-8.38-8.07-18.53-14.53-30.04-18.83-29.81-11.14-64.08-4.16-87.39,17.43-15.27,14.14-24.89,33.28-27.08,54.19-2.62,26.79,7.65,54.08,27.59,71.9c17.45,15.6,37.99,23.09,61.62,22.47.01,0,.02,0,.02-.01.3-.01.52-.27.5-.56l-1.24-20.68c-.01-.22-.12-.33-.34-.32Zm-79.36-67.97v-.02c0,0,.02-.01.02-.01c0,.01-.02.02-.02.03Z" fill="#5e1ad5" stroke-width="0"/><mask id="ebjPrIuRVK032" mask-type="luminance" x="-150%" y="-150%" height="400%" width="400%"><path id="ebjPrIuRVK033" d="M120.612222,213.903792c0-65.84431,52.322685-130.035069,118.166995-130.035069s126.635773,63.266977,126.635773,129.111287h-42.82445c0-42.19304-38.389408-56.906679-80.582438-56.906679-67.813181,20.635022-47.963773,38.456885-31.122855,57.404537c11.096652,31.131924,17.18064,49.750135,30.683573,75.761732v42.87406c-63.70103-2.42958-134.049535-37.311691-120.956599-118.209867l.000001-.000001Z" transform="matrix(-.891615-.732697 0.732697-.891615 288.301069 592.352031)" fill="#d2dbed" stroke-width="0"/></mask></g><g id="ebjPrIuRVK034" transform="translate(.000001-9.999999)" opacity="0"><path d="M419.32,143.86l3.88-.02c.68,0,1.24-.56,1.23-1.24l-.02-3.7c0-.68-.56-1.23-1.24-1.23l-3.88.02c-.68,0-1.24.56-1.23,1.24l.02,3.7c0,.68.56,1.23,1.24,1.23Z" fill="#000062" stroke-width="0"/><path d="M294.52,164.09h3.31c.65,0,1.18-.53,1.18-1.17v-3.3c0-.65-.53-1.17-1.18-1.17h-3.31c-.65,0-1.18.53-1.18,1.17v3.3c0,.65.53,1.17,1.18,1.17Z" fill="#000062" stroke-width="0"/><rect width="5.68" height="5.65" rx="1.2" ry="1.2" transform="matrix(.999986-.005236 0.005236 0.999986 293.333794 167.641774)" fill="#000062" stroke-width="0"/><path d="M385.42,149.53c0,0-.05,0-.08-.01-.1-.04-.16-.15-.12-.26.42-1.19,1.17-2.8,2.23-4.84c1.38-2.64,2.77-5.28,4.17-7.91.2-.38.23-.72.08-1.01-.09-.16-.25-.26-.44-.27-1.46,0-2.9,0-4.32,0-1,0-1.44.3-1.89,1.12-1.01,1.82-2,3.65-2.97,5.49-2.56,4.84-4.07,7.31-3.95,11.94.02.77.06,1.7.94,1.7c3.96-.01,7.92.01,11.88.07c1.33.02,2.49.15,3.49.39c5.49,1.33,5.82,5.58,5.38,10.39-.02.24-.15.35-.39.35-29.19,0-58.22,0-87.07,0-1.18,0-2.11-.26-2.08-1.6.13-4.88.13-9.26-.02-13.16-.12-3.12-2.22-3.61-5.01-3.63-5.51-.04-11.01.16-16.5.59-1.07.08-2.83.37-3.87.98-2.89,1.69-3.07,4.01-3.07,7.41c0,3.35-.05,6.71-.17,10.07c0,.11-.06.18-.18.19-6.97.87-13.8.39-14.3-8.46-.21-3.61-.19-6.58.04-8.9.06-.58-.12-1.1-.76-1.12-.58-.02-1.87-.02-3.85,0-.63,0-1.03.21-1.15.83-.56,3.01-.77,6.02-.63,9.04.13,2.83.46,5.05.98,6.66c1.86,5.7,7.05,8.22,13.04,8.48c3.89.17,7.88-.04,11.96-.63.82-.12,1.24-.63,1.26-1.53.14-6.34.22-10.51.25-12.49.02-1.42.33-3.38,1.7-3.73c1.36-.34,3.17-.59,5.43-.75s4.53-.27,6.79-.34c1.08-.03,1.62.51,1.61,1.62-.01,3.71,0,7.43.06,11.14.05,4.09,2.15,5.82,6.21,5.82c28.92,0,57.83-.02,86.75-.06c2.72,0,5.43-.08,8.14-.23.7-.04,1.08-.39,1.15-1.05.35-3.31.43-6.63.24-9.95-.73-12.67-11.22-12.96-20.98-12.37l.02.02Z" fill="#000062" stroke-width="0"/><path d="M413.13,173.2c5.83,0,11.7,0,17.62,0c.67,0,1.39-.19,1.44-.92.23-3.06.21-6.86-.07-11.4-.42-6.76-4.23-11.66-11.36-12-2.39-.11-4.53-.04-6.42.23-.63.09-1.15.44-1.17,1.08-.04,1.2-.04,2.45-.02,3.73c0,.02,0,.03,0,.05.03.41.4.72.81.69c4.65-.38,10.7-.31,11.74,5.55.27,1.56.37,3.68.28,6.36c0,.09-.05.14-.14.14h-12.79c-.61,0-1.1.49-1.1,1.1v4.23v0c0,.64.53,1.17,1.17,1.17l.01-.01Z" fill="#000062" stroke-width="0"/></g><g id="ebjPrIuRVK040" transform="translate(0 10.000001)" opacity="0"><path d="M308.61,193.66c-3.06-.38-6,.15-8.81,1.59-.08.04-.12.02-.12-.07v-9.68c0-.9-.45-1.35-1.36-1.35h-4.32c-.56,0-1.02.45-1.02,1.01v35.77c0,.65.53,1.18,1.19,1.18h4.24c.7,0,1.27-.57,1.27-1.27v-19.73c0-.1.04-.17.13-.22c2.39-1.4,8.81-3.45,9.46,1.05.11.75.17,1.51.17,2.27.05,5.68.09,11.28.09,16.79c0,.61.49,1.1,1.1,1.1h4.31c.68,0,1.24-.55,1.25-1.23.06-5.48.05-11.01-.03-16.58-.07-5.31-1.53-9.89-7.55-10.64v.01Z" fill="#000062" stroke-width="0"/><path d="M287.22,184.99h-24.17c-.56,0-1.02.45-1.02,1.01v3.88c0,.56.46,1.01,1.02,1.01h8.56c.11,0,.17.06.17.17v29.95c0,.61.49,1.1,1.1,1.1h4.71c.68,0,1.23-.55,1.23-1.22v-29.82c0-.11.06-.17.17-.17h8.4c.66,0,1.19-.53,1.19-1.18v-3.37c0-.9-.45-1.35-1.36-1.35v-.01Z" fill="#000062" stroke-width="0"/><path d="M378.84,186.2c.1-.12.15-.27.15-.43c0-.39-.32-.7-.7-.7h-6.25c-.44,0-.86.21-1.13.56l-11.86,15.84c-.12.16-.18.14-.18-.06v-15.25v0c0-.61-.5-1.1-1.1-1.1h-4.96c-.54,0-.97.44-.97.97v34.76c0,.87.44,1.31,1.31,1.31h4.58c.63,0,1.14-.51,1.14-1.14v-15.98c0-.16.05-.17.14-.04c3.71,5.4,7.37,10.83,11,16.28.38.58.75.88,1.42.89c2.34.01,4.63,0,6.87-.02.13,0,.25-.04.36-.12.28-.2.35-.59.14-.86l-12.88-17.98c-.08-.11-.08-.21,0-.31l12.92-16.63v.01Z" fill="#000062" stroke-width="0"/><path d="M336.85,193.88c-5.06-1.1-10.82.47-13.41,5.03-.84,1.49-1.39,3.58-1.64,6.28-.24,2.5-.22,4.82.04,6.95.6,4.84,2.97,8,7.11,9.48c1.7.61,3.93.89,6.68.85c2.69-.04,5.37-.31,8.02-.82.74-.14,1.04-.39,1.05-1.15.01-1.06.01-2.11,0-3.18-.01-.71-.37-1.2-1.11-1.12-3.29.34-6.37.51-9.24.5-3.8-.01-6.07-2.38-5.87-6.29c0-.08.05-.11.12-.11h16.44c.11,0,.22-.04.29-.12.21-.23.33-.55.35-.97.3-6.88-1.08-13.64-8.84-15.32l.01-.01Zm2.16,11.59c0,.07-.05.12-.12.12l-10.26-.02c-.07,0-.12-.05-.12-.12v-.7c0-3,2.3-5.43,5.13-5.42h.27c2.82,0,5.11,2.44,5.1,5.44v.7Z" fill="#000062" stroke-width="0"/><path d="M384.88,195.6c-3.05,2.07-4.6,5.99-4.7,9.47-.07,2.39-.22,6.07.33,8.5.91,4.06,3.24,6.76,6.98,8.09c1.7.6,3.93.88,6.68.82c2.69-.05,5.36-.33,8.01-.84.62-.12.93-.44.95-1.06.04-1.17,0-2.35-.09-3.53-.05-.61-.36-.89-.92-.84-3.35.28-6.21.45-8.56.51-4.08.09-6.84-1.75-6.66-6.27c0-.09.05-.14.15-.14h16.27c.41,0,.75-.33.75-.74.07-4.15.22-7.71-2.21-11.47-3.38-5.2-12.08-5.81-16.97-2.49l-.01-.01Zm12.38,9.96l-10.21.02c-.07,0-.14-.06-.14-.14v-.72c0,0,0,0,0,0c0-2.98,2.29-5.4,5.13-5.41h.2c2.84,0,5.15,2.41,5.15,5.39v.72c0,.07-.06.14-.13.14Z" fill="#000062" stroke-width="0"/><path d="M431.38,193.93h-4.9c-.69,0-1.11.33-1.28,1l-5.28,20.94c-.04.17-.18.31-.35.35-.26.07-.53-.09-.59-.35l-5.25-21.01c-.13-.54-.62-.92-1.18-.92h-5.15c-.07,0-.14,0-.2.03-.41.11-.64.53-.53.94c2.04,7.16,4.09,14.29,6.15,21.39c1.01,3.48,1.45,5.85,5.32,5.87.11,0,.16.06.14.17-.43,2.35-1.29,4.54-4.2,4.36-1.99-.12-3.92-.22-5.77-.3-.01,0-.02,0-.04,0-.53,0-.96.42-.97.94c0,.94,0,1.86,0,2.76.01,1.08.44,1.18,1.36,1.37c2.89.61,5.61.72,8.17.34c4.67-.7,5.99-3.69,7.15-7.74c2.78-9.67,5.55-19.31,8.31-28.92.02-.08.04-.17.04-.26c0-.52-.42-.94-.94-.94l-.01-.02Z" fill="#000062" stroke-width="0"/></g></g>
<script><![CDATA[
!function(t,n){"object"==typeof exports&&"undefined"!=typeof module?module.exports=n():"function"==typeof __SVGATOR_DEFINE__&&__SVGATOR_DEFINE__.amd?__SVGATOR_DEFINE__(n):((t="undefined"!=typeof globalThis?globalThis:t||self).__SVGATOR_PLAYER__=t.__SVGATOR_PLAYER__||{},t.__SVGATOR_PLAYER__["5c7f360c"]=n())}(this,(function(){"use strict";function t(t,n){var e=Object.keys(t);if(Object.getOwnPropertySymbols){var r=Object.getOwnPropertySymbols(t);n&&(r=r.filter((function(n){return Object.getOwnPropertyDescriptor(t,n).enumerable}))),e.push.apply(e,r)}return e}function n(n){for(var e=1;e<arguments.length;e++){var r=null!=arguments[e]?arguments[e]:{};e%2?t(Object(r),!0).forEach((function(t){u(n,t,r[t])})):Object.getOwnPropertyDescriptors?Object.defineProperties(n,Object.getOwnPropertyDescriptors(r)):t(Object(r)).forEach((function(t){Object.defineProperty(n,t,Object.getOwnPropertyDescriptor(r,t))}))}return n}function e(t){return(e="function"==typeof Symbol&&"symbol"==typeof Symbol.iterator?function(t){return typeof t}:function(t){return t&&"function"==typeof Symbol&&t.constructor===Symbol&&t!==Symbol.prototype?"symbol":typeof t})(t)}function r(t,n){if(!(t instanceof n))throw new TypeError("Cannot call a class as a function")}function i(t,n){for(var e=0;e<n.length;e++){var r=n[e];r.enumerable=r.enumerable||!1,r.configurable=!0,"value"in r&&(r.writable=!0),Object.defineProperty(t,r.key,r)}}function o(t,n,e){return n&&i(t.prototype,n),e&&i(t,e),t}function u(t,n,e){return n in t?Object.defineProperty(t,n,{value:e,enumerable:!0,configurable:!0,writable:!0}):t[n]=e,t}function a(t){return(a=Object.setPrototypeOf?Object.getPrototypeOf:function(t){return t.__proto__||Object.getPrototypeOf(t)})(t)}function l(t,n){return(l=Object.setPrototypeOf||function(t,n){return t.__proto__=n,t})(t,n)}function s(){if("undefined"==typeof Reflect||!Reflect.construct)return!1;if(Reflect.construct.sham)return!1;if("function"==typeof Proxy)return!0;try{return Boolean.prototype.valueOf.call(Reflect.construct(Boolean,[],(function(){}))),!0}catch(t){return!1}}function f(t,n,e){return(f=s()?Reflect.construct:function(t,n,e){var r=[null];r.push.apply(r,n);var i=new(Function.bind.apply(t,r));return e&&l(i,e.prototype),i}).apply(null,arguments)}function c(t,n){if(n&&("object"==typeof n||"function"==typeof n))return n;if(void 0!==n)throw new TypeError("Derived constructors may only return object or undefined");return function(t){if(void 0===t)throw new ReferenceError("this hasn't been initialised - super() hasn't been called");return t}(t)}function h(t,n,e){return(h="undefined"!=typeof Reflect&&Reflect.get?Reflect.get:function(t,n,e){var r=function(t,n){for(;!Object.prototype.hasOwnProperty.call(t,n)&&null!==(t=a(t)););return t}(t,n);if(r){var i=Object.getOwnPropertyDescriptor(r,n);return i.get?i.get.call(e):i.value}})(t,n,e||t)}function v(t){return function(t){if(Array.isArray(t))return y(t)}(t)||function(t){if("undefined"!=typeof Symbol&&null!=t[Symbol.iterator]||null!=t["@@iterator"])return Array.from(t)}(t)||function(t,n){if(!t)return;if("string"==typeof t)return y(t,n);var e=Object.prototype.toString.call(t).slice(8,-1);"Object"===e&&t.constructor&&(e=t.constructor.name);if("Map"===e||"Set"===e)return Array.from(t);if("Arguments"===e||/^(?:Ui|I)nt(?:8|16|32)(?:Clamped)?Array$/.test(e))return y(t,n)}(t)||function(){throw new TypeError("Invalid attempt to spread non-iterable instance.\nIn order to be iterable, non-array objects must have a [Symbol.iterator]() method.")}()}function y(t,n){(null==n||n>t.length)&&(n=t.length);for(var e=0,r=new Array(n);e<n;e++)r[e]=t[e];return r}function g(t,n,e){if(Number.isInteger(t))return t;var r=Math.pow(10,n);return Math[e]((+t+Number.EPSILON)*r)/r}Number.isInteger||(Number.isInteger=function(t){return"number"==typeof t&&isFinite(t)&&Math.floor(t)===t}),Number.EPSILON||(Number.EPSILON=2220446049250313e-31);var d=p(Math.pow(10,-6));function p(t){var n=arguments.length>1&&void 0!==arguments[1]?arguments[1]:6;return g(t,n,"round")}function m(t,n){var e=arguments.length>2&&void 0!==arguments[2]?arguments[2]:d;return Math.abs(t-n)<e}p(Math.pow(10,-2)),p(Math.pow(10,-4));var b=Math.PI/180;function w(t){return t}function A(t,n,e){var r=1-e;return 3*e*r*(t*r+n*e)+e*e*e}function _(){var t=arguments.length>0&&void 0!==arguments[0]?arguments[0]:0,n=arguments.length>1&&void 0!==arguments[1]?arguments[1]:0,e=arguments.length>2&&void 0!==arguments[2]?arguments[2]:1,r=arguments.length>3&&void 0!==arguments[3]?arguments[3]:1;return t<0||t>1||e<0||e>1?null:m(t,n)&&m(e,r)?w:function(i){if(i<=0)return t>0?i*n/t:0===n&&e>0?i*r/e:0;if(i>=1)return e<1?1+(i-1)*(r-1)/(e-1):1===e&&t<1?1+(i-1)*(n-1)/(t-1):1;for(var o,u=0,a=1;u<a;){var l=A(t,e,o=(u+a)/2);if(m(i,l))break;l<i?u=o:a=o}return A(n,r,o)}}function x(){return 1}function k(t){return 1===t?1:0}function S(){var t=arguments.length>0&&void 0!==arguments[0]?arguments[0]:1,n=arguments.length>1&&void 0!==arguments[1]?arguments[1]:0;if(1===t){if(0===n)return k;if(1===n)return x}var e=1/t;return function(t){return t>=1?1:(t+=n*e)-t%e}}var O=Math.sin,j=Math.cos,M=Math.acos,E=Math.asin,P=Math.tan,I=Math.atan2,R=Math.PI/180,F=180/Math.PI,N=Math.sqrt,T=function(){function t(){var n=arguments.length>0&&void 0!==arguments[0]?arguments[0]:1,e=arguments.length>1&&void 0!==arguments[1]?arguments[1]:0,i=arguments.length>2&&void 0!==arguments[2]?arguments[2]:0,o=arguments.length>3&&void 0!==arguments[3]?arguments[3]:1,u=arguments.length>4&&void 0!==arguments[4]?arguments[4]:0,a=arguments.length>5&&void 0!==arguments[5]?arguments[5]:0;r(this,t),this.m=[n,e,i,o,u,a],this.i=null,this.w=null,this.s=null}return o(t,[{key:"determinant",get:function(){var t=this.m;return t[0]*t[3]-t[1]*t[2]}},{key:"isIdentity",get:function(){if(null===this.i){var t=this.m;this.i=1===t[0]&&0===t[1]&&0===t[2]&&1===t[3]&&0===t[4]&&0===t[5]}return this.i}},{key:"point",value:function(t,n){var e=this.m;return{x:e[0]*t+e[2]*n+e[4],y:e[1]*t+e[3]*n+e[5]}}},{key:"translateSelf",value:function(){var t=arguments.length>0&&void 0!==arguments[0]?arguments[0]:0,n=arguments.length>1&&void 0!==arguments[1]?arguments[1]:0;if(!t&&!n)return this;var e=this.m;return e[4]+=e[0]*t+e[2]*n,e[5]+=e[1]*t+e[3]*n,this.w=this.s=this.i=null,this}},{key:"rotateSelf",value:function(){var t=arguments.length>0&&void 0!==arguments[0]?arguments[0]:0;if(t%=360){var n=O(t*=R),e=j(t),r=this.m,i=r[0],o=r[1];r[0]=i*e+r[2]*n,r[1]=o*e+r[3]*n,r[2]=r[2]*e-i*n,r[3]=r[3]*e-o*n,this.w=this.s=this.i=null}return this}},{key:"scaleSelf",value:function(){var t=arguments.length>0&&void 0!==arguments[0]?arguments[0]:1,n=arguments.length>1&&void 0!==arguments[1]?arguments[1]:1;if(1!==t||1!==n){var e=this.m;e[0]*=t,e[1]*=t,e[2]*=n,e[3]*=n,this.w=this.s=this.i=null}return this}},{key:"skewSelf",value:function(t,n){if(n%=360,(t%=360)||n){var e=this.m,r=e[0],i=e[1],o=e[2],u=e[3];t&&(t=P(t*R),e[2]+=r*t,e[3]+=i*t),n&&(n=P(n*R),e[0]+=o*n,e[1]+=u*n),this.w=this.s=this.i=null}return this}},{key:"resetSelf",value:function(){var t=arguments.length>0&&void 0!==arguments[0]?arguments[0]:1,n=arguments.length>1&&void 0!==arguments[1]?arguments[1]:0,e=arguments.length>2&&void 0!==arguments[2]?arguments[2]:0,r=arguments.length>3&&void 0!==arguments[3]?arguments[3]:1,i=arguments.length>4&&void 0!==arguments[4]?arguments[4]:0,o=arguments.length>5&&void 0!==arguments[5]?arguments[5]:0,u=this.m;return u[0]=t,u[1]=n,u[2]=e,u[3]=r,u[4]=i,u[5]=o,this.w=this.s=this.i=null,this}},{key:"recomposeSelf",value:function(){var t=arguments.length>0&&void 0!==arguments[0]?arguments[0]:null,n=arguments.length>1&&void 0!==arguments[1]?arguments[1]:null,e=arguments.length>2&&void 0!==arguments[2]?arguments[2]:null,r=arguments.length>3&&void 0!==arguments[3]?arguments[3]:null,i=arguments.length>4&&void 0!==arguments[4]?arguments[4]:null;return this.isIdentity||this.resetSelf(),t&&(t.x||t.y)&&this.translateSelf(t.x,t.y),n&&this.rotateSelf(n),e&&(e.x&&this.skewSelf(e.x,0),e.y&&this.skewSelf(0,e.y)),!r||1===r.x&&1===r.y||this.scaleSelf(r.x,r.y),i&&(i.x||i.y)&&this.translateSelf(i.x,i.y),this}},{key:"decompose",value:function(){var t=arguments.length>0&&void 0!==arguments[0]?arguments[0]:0,n=arguments.length>1&&void 0!==arguments[1]?arguments[1]:0,e=this.m,r=e[0]*e[0]+e[1]*e[1],i=[[e[0],e[1]],[e[2],e[3]]],o=N(r);if(0===o)return{origin:{x:p(e[4]),y:p(e[5])},translate:{x:p(t),y:p(n)},scale:{x:0,y:0},skew:{x:0,y:0},rotate:0};i[0][0]/=o,i[0][1]/=o;var u=e[0]*e[3]-e[1]*e[2]<0;u&&(o=-o);var a=i[0][0]*i[1][0]+i[0][1]*i[1][1];i[1][0]-=i[0][0]*a,i[1][1]-=i[0][1]*a;var l=N(i[1][0]*i[1][0]+i[1][1]*i[1][1]);if(0===l)return{origin:{x:p(e[4]),y:p(e[5])},translate:{x:p(t),y:p(n)},scale:{x:p(o),y:0},skew:{x:0,y:0},rotate:0};i[1][0]/=l,i[1][1]/=l,a/=l;var s=0;return i[1][1]<0?(s=M(i[1][1])*F,i[0][1]<0&&(s=360-s)):s=E(i[0][1])*F,u&&(s=-s),a=I(a,N(i[0][0]*i[0][0]+i[0][1]*i[0][1]))*F,u&&(a=-a),{origin:{x:p(e[4]),y:p(e[5])},translate:{x:p(t),y:p(n)},scale:{x:p(o),y:p(l)},skew:{x:p(a),y:0},rotate:p(s)}}},{key:"clone",value:function(){var t=this.m;return new this.constructor(t[0],t[1],t[2],t[3],t[4],t[5])}},{key:"toString",value:function(){var t=arguments.length>0&&void 0!==arguments[0]?arguments[0]:" ";if(null===this.s){var n=this.m.map((function(t){return p(t)}));1===n[0]&&0===n[1]&&0===n[2]&&1===n[3]?this.s="translate("+n[4]+t+n[5]+")":this.s="matrix("+n.join(t)+")"}return this.s}}],[{key:"create",value:function(t){return t?Array.isArray(t)?f(this,v(t)):t instanceof this?t.clone():(new this).recomposeSelf(t.origin,t.rotate,t.skew,t.scale,t.translate):new this}}]),t}();function q(t,n,e){return t>=.5?e:n}function B(t,n,e){return 0===t||n===e?n:t*(e-n)+n}function D(t,n,e){var r=B(t,n,e);return r<=0?0:r}function L(t,n,e){var r=B(t,n,e);return r<=0?0:r>=1?1:r}function C(t,n,e){return 0===t?n:1===t?e:{x:B(t,n.x,e.x),y:B(t,n.y,e.y)}}function V(t,n,e){var r=function(t,n,e){return Math.round(B(t,n,e))}(t,n,e);return r<=0?0:r>=255?255:r}function G(t,n,e){return 0===t?n:1===t?e:{r:V(t,n.r,e.r),g:V(t,n.g,e.g),b:V(t,n.b,e.b),a:B(t,null==n.a?1:n.a,null==e.a?1:e.a)}}function z(t,n){for(var e=[],r=0;r<t;r++)e.push(n);return e}function Y(t,n){if(--n<=0)return t;var e=(t=Object.assign([],t)).length;do{for(var r=0;r<e;r++)t.push(t[r])}while(--n>0);return t}var $,U=function(){function t(n){r(this,t),this.list=n,this.length=n.length}return o(t,[{key:"setAttribute",value:function(t,n){for(var e=this.list,r=0;r<this.length;r++)e[r].setAttribute(t,n)}},{key:"removeAttribute",value:function(t){for(var n=this.list,e=0;e<this.length;e++)n[e].removeAttribute(t)}},{key:"style",value:function(t,n){for(var e=this.list,r=0;r<this.length;r++)e[r].style[t]=n}}]),t}(),Q=/-./g,H=function(t,n){return n.toUpperCase()};function J(t){return"function"==typeof t?t:q}function Z(t){return t?"function"==typeof t?t:Array.isArray(t)?function(t){var n=arguments.length>1&&void 0!==arguments[1]?arguments[1]:w;if(!Array.isArray(t))return n;switch(t.length){case 1:return S(t[0])||n;case 2:return S(t[0],t[1])||n;case 4:return _(t[0],t[1],t[2],t[3])||n}return n}(t,null):function(t,n){var e=arguments.length>2&&void 0!==arguments[2]?arguments[2]:w;switch(t){case"linear":return w;case"steps":return S(n.steps||1,n.jump||0)||e;case"bezier":case"cubic-bezier":return _(n.x1||0,n.y1||0,n.x2||0,n.y2||0)||e}return e}(t.type,t.value,null):null}function K(t,n,e){var r=arguments.length>3&&void 0!==arguments[3]&&arguments[3],i=n.length-1;if(t<=n[0].t)return r?[0,0,n[0].v]:n[0].v;if(t>=n[i].t)return r?[i,1,n[i].v]:n[i].v;var o,u=n[0],a=null;for(o=1;o<=i;o++){if(!(t>n[o].t)){a=n[o];break}u=n[o]}return null==a?r?[i,1,n[i].v]:n[i].v:u.t===a.t?r?[o,1,a.v]:a.v:(t=(t-u.t)/(a.t-u.t),u.e&&(t=u.e(t)),r?[o,t,e(t,u.v,a.v)]:e(t,u.v,a.v))}function W(t,n){var e=arguments.length>2&&void 0!==arguments[2]?arguments[2]:null;return t&&t.length?"function"!=typeof n?null:("function"!=typeof e&&(e=null),function(r){var i=K(r,t,n);return null!=i&&e&&(i=e(i)),i}):null}function X(t,n){return t.t-n.t}function tt(t,n,r,i,o){var u,a="@"===r[0],l="#"===r[0],s=$[r],f=q;switch(a?(u=r.substr(1),r=u.replace(Q,H)):l&&(r=r.substr(1)),e(s)){case"function":if(f=s(i,o,K,Z,r,a,n,t),l)return f;break;case"string":f=W(i,J(s));break;case"object":if((f=W(i,J(s.i),s.f))&&"function"==typeof s.u)return s.u(n,f,r,a,t)}return f?function(t,n,e){if(arguments.length>3&&void 0!==arguments[3]&&arguments[3])return t instanceof U?function(r){return t.style(n,e(r))}:function(r){return t.style[n]=e(r)};if(Array.isArray(n)){var r=n.length;return function(i){var o=e(i);if(null==o)for(var u=0;u<r;u++)t[u].removeAttribute(n);else for(var a=0;a<r;a++)t[a].setAttribute(n,o)}}return function(r){var i=e(r);null==i?t.removeAttribute(n):t.setAttribute(n,i)}}(n,r,f,a):null}function nt(t,n,r,i){if(!i||"object"!==e(i))return null;var o=null,u=null;return Array.isArray(i)?u=function(t){if(!t||!t.length)return null;for(var n=0;n<t.length;n++)t[n].e&&(t[n].e=Z(t[n].e));return t.sort(X)}(i):(u=i.keys,o=i.data||null),u?tt(t,n,r,u,o):null}function et(t,n,e){if(!e)return null;var r=[];for(var i in e)if(e.hasOwnProperty(i)){var o=nt(t,n,i,e[i]);o&&r.push(o)}return r.length?r:null}function rt(t,n){if(!n.settings.duration||n.settings.duration<0)return null;var e,r,i,o,u,a=function(t,n){if(!n)return null;var e=[];if(Array.isArray(n))for(var r=n.length,i=0;i<r;i++){var o=n[i];if(2===o.length){var u=null;if("string"==typeof o[0])u=t.getElementById(o[0]);else if(Array.isArray(o[0])){u=[];for(var a=0;a<o[0].length;a++)if("string"==typeof o[0][a]){var l=t.getElementById(o[0][a]);l&&u.push(l)}u=u.length?1===u.length?u[0]:new U(u):null}if(u){var s=et(t,u,o[1]);s&&(e=e.concat(s))}}}else for(var f in n)if(n.hasOwnProperty(f)){var c=t.getElementById(f);if(c){var h=et(t,c,n[f]);h&&(e=e.concat(h))}}return e.length?e:null}(t,n.elements);return a?(e=a,r=n.settings,i=r.duration,o=e.length,u=null,function(t,n){var a=r.iterations||1/0,l=(r.alternate&&a%2==0)^r.direction>0?i:0,s=t%i,f=1+(t-s)/i;n*=r.direction,r.alternate&&f%2==0&&(n=-n);var c=!1;if(f>a)s=l,c=!0,-1===r.fill&&(s=r.direction>0?0:i);else if(n<0&&(s=i-s),s===u)return!1;u=s;for(var h=0;h<o;h++)e[h](s);return c}):null}function it(t,n){for(var e=n.querySelectorAll("svg"),r=0;r<e.length;r++)if(e[r].id===t.root&&!e[r].svgatorAnimation)return e[r].svgatorAnimation=!0,e[r];return null}function ot(t){var n=function(t){return t.shadowRoot};return document?Array.from(t.querySelectorAll(":not("+["a","area","audio","br","canvas","circle","datalist","embed","g","head","hr","iframe","img","input","link","object","path","polygon","rect","script","source","style","svg","title","track","video"].join()+")")).filter(n).map(n):[]}function ut(t){var n=arguments.length>1&&void 0!==arguments[1]?arguments[1]:document,e=arguments.length>2&&void 0!==arguments[2]?arguments[2]:0,r=it(t,n);if(r)return r;if(e>=20)return null;for(var i=ot(n),o=0;o<i.length;o++){var u=ut(t,i[o],e+1);if(u)return u}return null}function at(t,n){if($=n,!t||!t.root||!Array.isArray(t.animations))return null;var e=ut(t);if(!e)return null;var r=t.animations.map((function(t){return rt(e,t)})).filter((function(t){return!!t}));return r.length?{svg:e,animations:r,animationSettings:t.animationSettings,options:t.options||void 0}:null}function lt(t){var n=arguments.length>1&&void 0!==arguments[1]?arguments[1]:null,e=arguments.length>2&&void 0!==arguments[2]?arguments[2]:Number,r=arguments.length>3&&void 0!==arguments[3]?arguments[3]:"undefined"!=typeof BigInt&&BigInt,i="0x"+(t.replace(/[^0-9a-fA-F]+/g,"")||27);return n&&r&&e.isSafeInteger&&!e.isSafeInteger(+i)?e(r(i))%n+n:+i}function st(t,n,e){return!t||!e||n>t.length?t:t.substring(0,n)+st(t.substring(n+1),e,e)}function ft(t){var n=arguments.length>1&&void 0!==arguments[1]?arguments[1]:27;return!t||t%n?t%n:[0,1].includes(n)?n:ft(t/n,n)}function ct(t,n,e){if(t&&t.length){var r=lt(e),i=ft(r)+5,o=st(t,ft(r,5),i);return o=o.replace(/\x7c$/g,"==").replace(/\x2f$/g,"="),o=function(t,n,e){var r=+("0x"+t.substring(0,4));t=t.substring(4);for(var i=lt(n,r)%r+e%27,o=[],u=0;u<t.length;u+=2)if("|"!==t[u]){var a=+("0x"+t[u]+t[u+1])-i;o.push(a)}else{var l=+("0x"+t.substring(u+1,u+1+4))-i;u+=3,o.push(l)}return String.fromCharCode.apply(String,o)}(o=(o=atob(o)).replace(/[\x41-\x5A]/g,""),n,r),o=JSON.parse(o)}}var ht=[{key:"alternate",def:!1},{key:"fill",def:1},{key:"iterations",def:0},{key:"direction",def:1},{key:"speed",def:1},{key:"fps",def:100}],vt=function(){function t(n,e){var i=this,o=arguments.length>2&&void 0!==arguments[2]?arguments[2]:null;r(this,t),this._id=0,this._running=!1,this._rollingBack=!1,this._animations=n,this._settings=e,(!o||o<"2022-05-02")&&delete this._settings.speed,ht.forEach((function(t){i._settings[t.key]=i._settings[t.key]||t.def})),this.duration=e.duration,this.offset=e.offset||0,this.rollbackStartOffset=0}return o(t,[{key:"alternate",get:function(){return this._settings.alternate}},{key:"fill",get:function(){return this._settings.fill}},{key:"iterations",get:function(){return this._settings.iterations}},{key:"direction",get:function(){return this._settings.direction}},{key:"speed",get:function(){return this._settings.speed}},{key:"fps",get:function(){return this._settings.fps}},{key:"maxFiniteDuration",get:function(){return this.iterations>0?this.iterations*this.duration:this.duration}},{key:"_apply",value:function(t){for(var n=arguments.length>1&&void 0!==arguments[1]?arguments[1]:{},e=this._animations,r=e.length,i=0,o=0;o<r;o++)n[o]?i++:(n[o]=e[o](t,1),n[o]&&i++);return i}},{key:"_rollback",value:function(t){var n=this,e=1/0,r=null;this.rollbackStartOffset=t,this._rollingBack=!0,this._running=!0;this._id=window.requestAnimationFrame((function i(o){if(n._rollingBack){null==r&&(r=o);var u=Math.round(t-(o-r)*n.speed);if(u>n.duration&&e!==1/0){var a=!!n.alternate&&u/n.duration%2>1,l=u%n.duration;u=(l+=a?n.duration:0)||n.duration}var s=(n.fps?1e3/n.fps:0)*n.speed,f=Math.max(0,u);f<=e-s&&(n.offset=f,e=f,n._apply(f));var c=n.iterations>0&&-1===n.fill&&u>=n.maxFiniteDuration;(u<=0||n.offset<u||c)&&n.stop(),n._id=window.requestAnimationFrame(i)}}))}},{key:"_start",value:function(){var t=this,n=arguments.length>0&&void 0!==arguments[0]?arguments[0]:0,e=-1/0,r=null,i={};this._running=!0;var o=function o(u){null==r&&(r=u);var a=Math.round((u-r)*t.speed+n),l=(t.fps?1e3/t.fps:0)*t.speed;if(a>=e+l&&!t._rollingBack&&(t.offset=a,e=a,t._apply(a,i)===t._animations.length))return void t.pause(!0);t._id=window.requestAnimationFrame(o)};this._id=window.requestAnimationFrame(o)}},{key:"_pause",value:function(){this._id&&window.cancelAnimationFrame(this._id),this._running=!1}},{key:"play",value:function(){if(!this._running)return this._rollingBack?this._rollback(this.offset):this._start(this.offset)}},{key:"stop",value:function(){this._pause(),this.offset=0,this.rollbackStartOffset=0,this._rollingBack=!1,this._apply(0)}},{key:"reachedToEnd",value:function(){return this.iterations>0&&this.offset>=this.iterations*this.duration}},{key:"restart",value:function(){var t=arguments.length>0&&void 0!==arguments[0]&&arguments[0];this.stop(t),this.play(t)}},{key:"pause",value:function(){this._pause()}},{key:"reverse",value:function(){this.direction=-this.direction}}],[{key:"build",value:function(t,n){delete t.animationSettings,t.options=ct(t.options,t.root,"5c7f360c"),t.animations.map((function(n){n.settings=ct(n.s,t.root,"5c7f360c"),delete n.s,t.animationSettings||(t.animationSettings=n.settings)}));var e=t.version;if(!(t=at(t,n)))return null;var r=t.options||{},i=new this(t.animations,t.animationSettings,e);return{el:t.svg,options:r,player:i}}},{key:"push",value:function(t){return this.build(t)}},{key:"init",value:function(){var t=this,n=window.__SVGATOR_PLAYER__&&window.__SVGATOR_PLAYER__["5c7f360c"];Array.isArray(n)&&n.splice(0).forEach((function(n){return t.build(n)}))}}]),t}();function yt(t){return p(t)+""}function gt(t){var n=arguments.length>1&&void 0!==arguments[1]?arguments[1]:" ";return t&&t.length?t.map(yt).join(n):""}function dt(t){if(!t)return"transparent";if(null==t.a||t.a>=1){var n=function(t){return 1===(t=parseInt(t).toString(16)).length?"0"+t:t},e=function(t){return t.charAt(0)===t.charAt(1)},r=n(t.r),i=n(t.g),o=n(t.b);return e(r)&&e(i)&&e(o)&&(r=r.charAt(0),i=i.charAt(0),o=o.charAt(0)),"#"+r+i+o}return"rgba("+t.r+","+t.g+","+t.b+","+t.a+")"}function pt(t){return t?"url(#"+t+")":"none"}!function(){for(var t=0,n=["ms","moz","webkit","o"],e=0;e<n.length&&!window.requestAnimationFrame;++e)window.requestAnimationFrame=window[n[e]+"RequestAnimationFrame"],window.cancelAnimationFrame=window[n[e]+"CancelAnimationFrame"]||window[n[e]+"CancelRequestAnimationFrame"];window.requestAnimationFrame||(window.requestAnimationFrame=function(n){var e=Date.now(),r=Math.max(0,16-(e-t)),i=window.setTimeout((function(){n(e+r)}),r);return t=e+r,i},window.cancelAnimationFrame=window.clearTimeout)}();var mt={f:null,i:function(t,n,e){return 0===t?n:1===t?e:{x:D(t,n.x,e.x),y:D(t,n.y,e.y)}},u:function(t,n){return function(e){var r=n(e);t.setAttribute("rx",yt(r.x)),t.setAttribute("ry",yt(r.y))}}},bt={f:null,i:function(t,n,e){return 0===t?n:1===t?e:{width:D(t,n.width,e.width),height:D(t,n.height,e.height)}},u:function(t,n){return function(e){var r=n(e);t.setAttribute("width",yt(r.width)),t.setAttribute("height",yt(r.height))}}};Object.freeze({M:2,L:2,Z:0,H:1,V:1,C:6,Q:4,T:2,S:4,A:7});var wt={},At=null;function _t(t){var n=function(){if(At)return At;if("object"!==("undefined"==typeof document?"undefined":e(document))||!document.createElementNS)return{};var t=document.createElementNS("http://www.w3.org/2000/svg","svg");return t&&t.style?(t.style.position="absolute",t.style.opacity="0.01",t.style.zIndex="-9999",t.style.left="-9999px",t.style.width="1px",t.style.height="1px",At={svg:t}):{}}().svg;if(!n)return function(t){return null};var r=document.createElementNS(n.namespaceURI,"path");r.setAttributeNS(null,"d",t),r.setAttributeNS(null,"fill","none"),r.setAttributeNS(null,"stroke","none"),n.appendChild(r);var i=r.getTotalLength();return function(t){var n=r.getPointAtLength(i*t);return{x:n.x,y:n.y}}}function xt(t){return wt[t]?wt[t]:wt[t]=_t(t)}function kt(t,n,e,r){if(!t||!r)return!1;var i=["M",t.x,t.y];if(n&&e&&(i.push("C"),i.push(n.x),i.push(n.y),i.push(e.x),i.push(e.y)),n?!e:e){var o=n||e;i.push("Q"),i.push(o.x),i.push(o.y)}return n||e||i.push("L"),i.push(r.x),i.push(r.y),i.join(" ")}function St(t,n,e,r){var i=arguments.length>4&&void 0!==arguments[4]?arguments[4]:1,o=kt(t,n,e,r),u=xt(o);try{return u(i)}catch(t){return null}}function Ot(t,n,e){return t+(n-t)*e}function jt(t,n,e){var r=arguments.length>3&&void 0!==arguments[3]&&arguments[3],i={x:Ot(t.x,n.x,e),y:Ot(t.y,n.y,e)};return r&&(i.a=Mt(t,n)),i}function Mt(t,n){return Math.atan2(n.y-t.y,n.x-t.x)}function Et(t,n,e,r){var i=1-r;return i*i*t+2*i*r*n+r*r*e}function Pt(t,n,e,r){return 2*(1-r)*(n-t)+2*r*(e-n)}function It(t,n,e,r){var i=arguments.length>4&&void 0!==arguments[4]&&arguments[4],o=St(t,n,null,e,r);return o||(o={x:Et(t.x,n.x,e.x,r),y:Et(t.y,n.y,e.y,r)}),i&&(o.a=Rt(t,n,e,r)),o}function Rt(t,n,e,r){return Math.atan2(Pt(t.y,n.y,e.y,r),Pt(t.x,n.x,e.x,r))}function Ft(t,n,e,r,i){var o=i*i;return i*o*(r-t+3*(n-e))+3*o*(t+e-2*n)+3*i*(n-t)+t}function Nt(t,n,e,r,i){var o=1-i;return 3*(o*o*(n-t)+2*o*i*(e-n)+i*i*(r-e))}function Tt(t,n,e,r,i){var o=arguments.length>5&&void 0!==arguments[5]&&arguments[5],u=St(t,n,e,r,i);return u||(u={x:Ft(t.x,n.x,e.x,r.x,i),y:Ft(t.y,n.y,e.y,r.y,i)}),o&&(u.a=qt(t,n,e,r,i)),u}function qt(t,n,e,r,i){return Math.atan2(Nt(t.y,n.y,e.y,r.y,i),Nt(t.x,n.x,e.x,r.x,i))}function Bt(t,n,e){var r=arguments.length>3&&void 0!==arguments[3]&&arguments[3];if(Lt(n)){if(Ct(e))return It(n,e.start,e,t,r)}else if(Lt(e)){if(Vt(n))return It(n,n.end,e,t,r)}else{if(Vt(n))return Ct(e)?Tt(n,n.end,e.start,e,t,r):It(n,n.end,e,t,r);if(Ct(e))return It(n,e.start,e,t,r)}return jt(n,e,t,r)}function Dt(t,n,e){var r=Bt(t,n,e,!0);return r.a=function(t){return arguments.length>1&&void 0!==arguments[1]&&arguments[1]?t+Math.PI:t}(r.a)/b,r}function Lt(t){return!t.type||"corner"===t.type}function Ct(t){return null!=t.start&&!Lt(t)}function Vt(t){return null!=t.end&&!Lt(t)}var Gt=new T;var zt={f:yt,i:B},Yt={f:yt,i:L};function $t(t,n,e){return t.map((function(t){return function(t,n,e){var r=t.v;if(!r||"g"!==r.t||r.s||!r.v||!r.r)return t;var i=e.getElementById(r.r),o=i&&i.querySelectorAll("stop")||[];return r.s=r.v.map((function(t,n){var e=o[n]&&o[n].getAttribute("offset");return{c:t,o:e=p(parseInt(e)/100)}})),delete r.v,t}(t,0,e)}))}var Ut={gt:"gradientTransform",c:{x:"cx",y:"cy"},rd:"r",f:{x:"x1",y:"y1"},to:{x:"x2",y:"y2"}};function Qt(t,n,r,i,o,u,a,l){return $t(t,0,l),n=function(t,n,e){for(var r,i,o,u=t.length-1,a={},l=0;l<=u;l++)(r=t[l]).e&&(r.e=n(r.e)),r.v&&"g"===(i=r.v).t&&i.r&&(o=e.getElementById(i.r))&&(a[i.r]={e:o,s:o.querySelectorAll("stop")});return a}(t,i,l),function(i){var o=r(i,t,Ht);if(!o)return"none";if("c"===o.t)return dt(o.v);if("g"===o.t){if(!n[o.r])return pt(o.r);var u=n[o.r];return function(t,n){for(var e=t.s,r=e.length;r<n.length;r++){var i=e[e.length-1].cloneNode();i.id=Kt(i.id),t.e.appendChild(i),e=t.s=t.e.querySelectorAll("stop")}for(var o=0,u=e.length,a=n.length-1;o<u;o++)e[o].setAttribute("stop-color",dt(n[Math.min(o,a)].c)),e[o].setAttribute("offset",n[Math.min(o,a)].o)}(u,o.s),Object.keys(Ut).forEach((function(t){if(void 0!==o[t])if("object"!==e(Ut[t])){var n,r="gt"===t?(n=o[t],Array.isArray(n)?"matrix("+n.join(" ")+")":""):o[t],i=Ut[t];u.e.setAttribute(i,r)}else Object.keys(Ut[t]).forEach((function(n){if(void 0!==o[t][n]){var e=o[t][n],r=Ut[t][n];u.e.setAttribute(r,e)}}))})),pt(o.r)}return"none"}}function Ht(t,e,r){if(0===t)return e;if(1===t)return r;if(e&&r){var i=e.t;if(i===r.t)switch(e.t){case"c":return{t:i,v:G(t,e.v,r.v)};case"g":if(e.r===r.r){var o={t:i,s:Jt(t,e.s,r.s),r:e.r};return e.gt&&r.gt&&(o.gt=function(t,n,e){var r=n.length;if(r!==e.length)return q(t,n,e);for(var i=new Array(r),o=0;o<r;o++)i[o]=B(t,n[o],e[o]);return i}(t,e.gt,r.gt)),e.c?(o.c=C(t,e.c,r.c),o.rd=D(t,e.rd,r.rd)):e.f&&(o.f=C(t,e.f,r.f),o.to=C(t,e.to,r.to)),o}}if("c"===e.t&&"g"===r.t||"c"===r.t&&"g"===e.t){var u="c"===e.t?e:r,a="g"===e.t?n({},e):n({},r),l=a.s.map((function(t){return{c:u.v,o:t.o}}));return a.s="c"===e.t?Jt(t,l,a.s):Jt(t,a.s,l),a}}return q(t,e,r)}function Jt(t,n,e){if(n.length===e.length)return n.map((function(n,r){return Zt(t,n,e[r])}));for(var r=Math.max(n.length,e.length),i=[],o=0;o<r;o++){var u=Zt(t,n[Math.min(o,n.length-1)],e[Math.min(o,e.length-1)]);i.push(u)}return i}function Zt(t,n,e){return{o:L(t,n.o,e.o||0),c:G(t,n.c,e.c||{})}}function Kt(t){return t.replace(/-fill-([0-9]+)$/,(function(t,n){return"-fill-"+(+n+1)}))}var Wt={fill:Qt,"fill-opacity":Yt,stroke:Qt,"stroke-opacity":Yt,"stroke-width":zt,"stroke-dashoffset":{f:yt,i:B},"stroke-dasharray":{f:function(t){var n=arguments.length>1&&void 0!==arguments[1]?arguments[1]:" ";return t&&t.length>0&&(t=t.map((function(t){return p(t,4)}))),gt(t,n)},i:function(t,n,e){var r,i,o,u=n.length,a=e.length;if(u!==a)if(0===u)n=z(u=a,0);else if(0===a)a=u,e=z(u,0);else{var l=(o=(r=u)*(i=a)/function(t,n){for(var e;n;)e=n,n=t%n,t=e;return t||1}(r,i))<0?-o:o;n=Y(n,Math.floor(l/u)),e=Y(e,Math.floor(l/a)),u=a=l}for(var s=[],f=0;f<u;f++)s.push(p(D(t,n[f],e[f])));return s}},opacity:Yt,transform:function(t,n,r,i){if(!(t=function(t,n){if(!t||"object"!==e(t))return null;var r=!1;for(var i in t)t.hasOwnProperty(i)&&(t[i]&&t[i].length?(t[i].forEach((function(t){t.e&&(t.e=n(t.e))})),r=!0):delete t[i]);return r?t:null}(t,i)))return null;var o=function(e,i,o){var u=arguments.length>3&&void 0!==arguments[3]?arguments[3]:null;return t[e]?r(i,t[e],o):n&&n[e]?n[e]:u};return n&&n.a&&t.o?function(n){var e=r(n,t.o,Dt);return Gt.recomposeSelf(e,o("r",n,B,0)+e.a,o("k",n,C),o("s",n,C),o("t",n,C)).toString()}:function(t){return Gt.recomposeSelf(o("o",t,Bt,null),o("r",t,B,0),o("k",t,C),o("s",t,C),o("t",t,C)).toString()}},r:zt,"#size":bt,"#radius":mt,_:function(t,n){if(Array.isArray(t))for(var e=0;e<t.length;e++)this[t[e]]=n;else this[t]=n}},Xt=function(t){!function(t,n){if("function"!=typeof n&&null!==n)throw new TypeError("Super expression must either be null or a function");t.prototype=Object.create(n&&n.prototype,{constructor:{value:t,writable:!0,configurable:!0}}),n&&l(t,n)}(u,t);var n,e,i=(n=u,e=s(),function(){var t,r=a(n);if(e){var i=a(this).constructor;t=Reflect.construct(r,arguments,i)}else t=r.apply(this,arguments);return c(this,t)});function u(){return r(this,u),i.apply(this,arguments)}return o(u,null,[{key:"build",value:function(t){var n=h(a(u),"build",this).call(this,t,Wt);if(!n)return null;n.el,n.options,function(t,n,e){t.play()}(n.player)}}]),u}(vt);return Xt.init(),Xt}));
(function(s,i,o,w,d,a,b){w[o]=w[o]||{};w[o][s]=w[o][s]||[];w[o][s].push(i);})('5c7f360c',{"root":"ebjPrIuRVK01","version":"2022-05-04","animations":[{"elements":{"ebjPrIuRVK03":{"opacity":[{"t":2600,"v":1},{"t":3000,"v":0}]},"ebjPrIuRVK04":{"opacity":[{"t":2150,"v":0},{"t":2550,"v":1}]},"ebjPrIuRVK05":{"opacity":[{"t":2070,"v":0},{"t":2500,"v":1}]},"ebjPrIuRVK06":{"opacity":[{"t":2010,"v":0},{"t":2450,"v":1}]},"ebjPrIuRVK07":{"opacity":[{"t":1940,"v":0},{"t":2400,"v":1}]},"ebjPrIuRVK08":{"opacity":[{"t":1870,"v":0},{"t":2350,"v":1}]},"ebjPrIuRVK09":{"opacity":[{"t":1810,"v":0},{"t":2300,"v":1}]},"ebjPrIuRVK010":{"opacity":[{"t":1760,"v":0},{"t":2250,"v":1}]},"ebjPrIuRVK011":{"opacity":[{"t":1710,"v":0},{"t":2200,"v":1}]},"ebjPrIuRVK012":{"opacity":[{"t":1650,"v":0},{"t":2150,"v":1}]},"ebjPrIuRVK013":{"opacity":[{"t":1610,"v":0},{"t":2100,"v":1}]},"ebjPrIuRVK014":{"opacity":[{"t":1560,"v":0},{"t":2050,"v":1}]},"ebjPrIuRVK015":{"opacity":[{"t":1520,"v":0},{"t":2000,"v":1}]},"ebjPrIuRVK016":{"opacity":[{"t":1480,"v":0},{"t":1950,"v":1}]},"ebjPrIuRVK017":{"opacity":[{"t":1460,"v":0},{"t":1900,"v":1}]},"ebjPrIuRVK018":{"opacity":[{"t":1440,"v":0},{"t":1850,"v":1}]},"ebjPrIuRVK019":{"opacity":[{"t":1420,"v":0},{"t":1800,"v":1}]},"ebjPrIuRVK020":{"opacity":[{"t":1400,"v":0},{"t":1750,"v":1}]},"ebjPrIuRVK021":{"opacity":[{"t":1380,"v":0},{"t":1700,"v":1}]},"ebjPrIuRVK022":{"opacity":[{"t":1350,"v":0},{"t":1650,"v":1}]},"ebjPrIuRVK023":{"opacity":[{"t":1330,"v":0},{"t":1600,"v":1}]},"ebjPrIuRVK024":{"opacity":[{"t":1310,"v":0},{"t":1550,"v":1}]},"ebjPrIuRVK025":{"opacity":[{"t":1290,"v":0},{"t":1500,"v":1}]},"ebjPrIuRVK026":{"opacity":[{"t":1270,"v":0},{"t":1450,"v":1}]},"ebjPrIuRVK027":{"opacity":[{"t":1260,"v":0},{"t":1400,"v":1}]},"ebjPrIuRVK028":{"opacity":[{"t":1250,"v":0},{"t":1350,"v":1}]},"ebjPrIuRVK029":{"opacity":[{"t":1250,"v":0},{"t":1300,"v":1}]},"ebjPrIuRVK030":{"opacity":[{"t":2600,"v":1},{"t":3000,"v":0}]},"ebjPrIuRVK033":{"transform":{"data":{"t":{"x":-246.193305,"y":-212.935995}},"keys":{"o":[{"t":0,"v":{"x":224.809061,"y":222.11,"type":"corner"}},{"t":300,"v":{"x":264.809061,"y":222.11,"type":"corner"}},{"t":600,"v":{"x":284.809061,"y":222.11,"type":"corner"}},{"t":900,"v":{"x":284.809061,"y":222.11,"type":"corner"}},{"t":1200,"v":{"x":284.809061,"y":222.11,"type":"corner"}}],"r":[{"t":0,"v":219.412141},{"t":300,"v":129.412141},{"t":600,"v":84.412141},{"t":900,"v":39.412141},{"t":1200,"v":-5.587859}],"s":[{"t":300,"v":{"x":1.154046,"y":1.154046}},{"t":600,"v":{"x":1.154046,"y":1.154046}},{"t":900,"v":{"x":1.154046,"y":1.154046}},{"t":1200,"v":{"x":1.154046,"y":1.154046}}]}}},"ebjPrIuRVK034":{"transform":{"data":{"t":{"x":-346.557876,"y":-154.673515}},"keys":{"o":[{"t":1500,"v":{"x":346.557877,"y":144.673516,"type":"corner"}},{"t":1800,"v":{"x":346.557877,"y":154.673516,"type":"corner"}}]}},"opacity":[{"t":1500,"v":0},{"t":1800,"v":1},{"t":2600,"v":1},{"t":3000,"v":0}]},"ebjPrIuRVK040":{"transform":{"data":{"t":{"x":-347.179993,"y":-208.090217}},"keys":{"o":[{"t":1500,"v":{"x":347.179993,"y":218.090218,"type":"corner"}},{"t":1800,"v":{"x":347.179993,"y":208.090218,"type":"corner"}}]}},"opacity":[{"t":1500,"v":0},{"t":1800,"v":1},{"t":2600,"v":1},{"t":3000,"v":0}]}},"s":"MLDA1ZGRhODFjM1VkNGOQxYzBVZDNjOGNlY2QM4MTk5OTI4ZjhmOGY4WYjgxYzNjOGQxYzRLYEzJkM0ZjOGNlY2Q4MTEk5OTA4YjgxYzhkM2MQ0ZDFjMGQzYzhjZWNkNZDI4MTk5VzhmOGI4MIWM1YzhjYmNiODE5OTYkwUDhiODFjMGNiZDNLjNEtkMWNkYzBkM1RjBNDgxQzk5VGM1YzBGYV2JkMmM0OGI4MWQyTGTNmYzRjNExjMzgxOTkE5MDhiODFjNVFjZmQyQODE5OTkwQThmOGZkYHw|"}],"options":"MCDAxMDg4RjJmODA4MTPZlN2Y4MTJmNDcyZjcM5N2M2ZTcxMmY4YQ|"},'__SVGATOR_PLAYER__',window,document)
]]></script>
</svg>
