<svg width="45" height="39" viewBox="0 0 45 39" fill="none" xmlns="http://www.w3.org/2000/svg">
<g id="Group">
<path id="Vector" d="M14.7699 12.5388C14.77 12.6368 14.7843 12.7322 14.8111 12.8226C14.8661 15.5516 15.7043 18.2103 17.2298 20.4883C18.8063 22.8424 21.0467 24.6858 23.6718 25.7917C26.2967 26.8975 29.192 27.2179 31.9988 26.7135C33.6024 26.4253 35.1374 25.8751 36.5436 25.0928C35.797 26.4617 34.8359 27.7143 33.6894 28.8017C31.7131 30.6759 29.2595 31.9893 26.5873 32.6015C23.915 33.2138 21.1248 33.1018 18.512 32.2775C15.8992 31.4533 13.562 29.9479 11.7467 27.9219C9.93153 25.8961 8.70547 23.425 8.19659 20.7702C7.68772 18.1154 7.9146 15.3741 8.85365 12.8357C9.79273 10.2971 11.4096 8.0546 13.5348 6.34603C14.7659 5.35633 16.141 4.5672 17.6078 4.0017C17.0612 4.73424 16.5846 5.51875 16.1857 6.34555C15.2526 8.2795 14.7688 10.3955 14.7699 12.5388Z" stroke="white" stroke-width="2" stroke-linejoin="round"/>
<path id="Vector_2" d="M4.74396 3.89968C4.95254 3.89968 5.15256 3.81681 5.30005 3.66932C5.44754 3.52183 5.5304 3.32181 5.5304 3.11323V1.54035C5.5304 1.33177 5.44754 1.13175 5.30005 0.984261C5.15256 0.836775 4.95254 0.753906 4.74396 0.753906C4.53538 0.753906 4.33536 0.836775 4.18787 0.984261C4.04039 1.13175 3.95752 1.33177 3.95752 1.54035V3.11323C3.95752 3.32181 4.04039 3.52183 4.18787 3.66932C4.33536 3.81681 4.53538 3.89968 4.74396 3.89968Z" fill="white"/>
<path id="Vector_3" d="M4.74396 5.47266C4.53538 5.47266 4.33536 5.55552 4.18787 5.70301C4.04039 5.8505 3.95752 6.05052 3.95752 6.2591V7.83198C3.95752 8.04056 4.04039 8.24058 4.18787 8.38807C4.33536 8.53556 4.53538 8.61843 4.74396 8.61843C4.95254 8.61843 5.15256 8.53556 5.30005 8.38807C5.44754 8.24058 5.5304 8.04056 5.5304 7.83198V6.2591C5.5304 6.05052 5.44754 5.8505 5.30005 5.70301C5.15256 5.55552 4.95254 5.47266 4.74396 5.47266Z" fill="white"/>
<path id="Vector_4" d="M6.3172 5.47328H7.89009C8.09867 5.47328 8.29869 5.39041 8.44618 5.24292C8.59366 5.09543 8.67653 4.89541 8.67653 4.68683C8.67653 4.47826 8.59366 4.27823 8.44618 4.13075C8.29869 3.98326 8.09867 3.90039 7.89009 3.90039H6.3172C6.10863 3.90039 5.9086 3.98326 5.76112 4.13075C5.61363 4.27823 5.53076 4.47826 5.53076 4.68683C5.53076 4.89541 5.61363 5.09543 5.76112 5.24292C5.9086 5.39041 6.10863 5.47328 6.3172 5.47328Z" fill="white"/>
<path id="Vector_5" d="M1.59797 5.47328H3.17085C3.37943 5.47328 3.57945 5.39041 3.72694 5.24292C3.87442 5.09543 3.95729 4.89541 3.95729 4.68683C3.95729 4.47826 3.87442 4.27823 3.72694 4.13075C3.57945 3.98326 3.37943 3.90039 3.17085 3.90039H1.59797C1.38939 3.90039 1.18936 3.98326 1.04188 4.13075C0.894392 4.27823 0.811523 4.47826 0.811523 4.68683C0.811523 4.89541 0.894392 5.09543 1.04188 5.24292C1.18936 5.39041 1.38939 5.47328 1.59797 5.47328Z" fill="white"/>
<path id="Vector_6" d="M40.1343 31.4251V32.998C40.1343 33.2066 40.2171 33.4066 40.3646 33.5541C40.5121 33.7016 40.7121 33.7844 40.9207 33.7844C41.1293 33.7844 41.3293 33.7016 41.4768 33.5541C41.6243 33.4066 41.7072 33.2066 41.7072 32.998V31.4251C41.7072 31.2165 41.6243 31.0165 41.4768 30.869C41.3293 30.7215 41.1293 30.6387 40.9207 30.6387C40.7121 30.6387 40.5121 30.7215 40.3646 30.869C40.2171 31.0165 40.1343 31.2165 40.1343 31.4251Z" fill="white"/>
<path id="Vector_7" d="M40.9207 35.3574C40.7121 35.3574 40.5121 35.4403 40.3646 35.5878C40.2171 35.7353 40.1343 35.9353 40.1343 36.1439V37.7167C40.1343 37.9253 40.2171 38.1253 40.3646 38.2728C40.5121 38.4203 40.7121 38.5032 40.9207 38.5032C41.1293 38.5032 41.3293 38.4203 41.4768 38.2728C41.6243 38.1253 41.7072 37.9253 41.7072 37.7167V36.1439C41.7072 35.9353 41.6243 35.7353 41.4768 35.5878C41.3293 35.4403 41.1293 35.3574 40.9207 35.3574Z" fill="white"/>
<path id="Vector_8" d="M44.0664 33.7852H42.4935C42.2849 33.7852 42.0849 33.868 41.9374 34.0155C41.7899 34.163 41.707 34.363 41.707 34.5716C41.707 34.7802 41.7899 34.9802 41.9374 35.1277C42.0849 35.2752 42.2849 35.358 42.4935 35.358H44.0664C44.2749 35.358 44.475 35.2752 44.6224 35.1277C44.7699 34.9802 44.8528 34.7802 44.8528 34.5716C44.8528 34.363 44.7699 34.163 44.6224 34.0155C44.475 33.868 44.2749 33.7852 44.0664 33.7852Z" fill="white"/>
<path id="Vector_9" d="M39.3476 33.7852H37.7747C37.5661 33.7852 37.3661 33.868 37.2186 34.0155C37.0711 34.163 36.9883 34.363 36.9883 34.5716C36.9883 34.7802 37.0711 34.9802 37.2186 35.1277C37.3661 35.2752 37.5661 35.358 37.7747 35.358H39.3476C39.5562 35.358 39.7562 35.2752 39.9037 35.1277C40.0512 34.9802 40.1341 34.7802 40.1341 34.5716C40.1341 34.363 40.0512 34.163 39.9037 34.0155C39.7562 33.868 39.5562 33.7852 39.3476 33.7852Z" fill="white"/>
</g>
</svg>
