<svg width="56" height="56" viewBox="0 0 56 56" fill="none" xmlns="http://www.w3.org/2000/svg">
<path d="M45.0206 17.9106C45.018 14.9846 44.0225 12.1462 42.1969 9.85961C40.3713 7.57304 37.8238 5.97372 34.971 5.32331C32.1183 4.67291 29.1293 5.00991 26.493 6.2792C23.8567 7.54849 21.7292 9.6749 20.4586 12.3106C19.2598 11.5887 17.9187 11.1356 16.5278 10.9825C15.1368 10.8294 13.7292 10.9801 12.4022 11.424C11.0751 11.868 9.86025 12.5947 8.84141 13.5539C7.82258 14.5131 7.02406 15.682 6.501 16.9799C5.97794 18.2778 5.7428 19.6738 5.81182 21.0714C5.88084 22.469 6.25236 23.8351 6.90075 25.0751C7.54914 26.3152 8.45893 27.3997 9.56732 28.2539C10.6757 29.1081 11.9563 29.7115 13.3206 30.0226C12.5255 32.5099 12.3671 35.1569 12.8599 37.7213C13.3526 40.2856 14.4808 42.6854 16.1412 44.7009C17.8015 46.7163 19.941 48.2831 22.3636 49.2576C24.7862 50.2322 27.4146 50.5835 30.0081 50.2792C32.6016 49.975 35.0773 49.025 37.2086 47.5162C39.3399 46.0075 41.0587 43.9882 42.2075 41.6432C43.3564 39.2982 43.8986 36.7024 43.7845 34.0936C43.6704 31.4848 42.9037 28.9463 41.5546 26.7106C43.785 24.3235 45.024 21.1775 45.0206 17.9106Z" fill="#DFE4FF"/>
<path d="M13.1232 16.1726H46.9512C47.2718 16.1726 47.5894 16.2358 47.8857 16.3585C48.1819 16.4812 48.4512 16.6611 48.6779 16.8879C48.9047 17.1146 49.0845 17.3838 49.2073 17.6801C49.33 17.9764 49.3932 18.2939 49.3932 18.6146V41.3426C49.3932 41.6948 49.2532 42.0326 49.0042 42.2816C48.7551 42.5307 48.4174 42.6706 48.0652 42.6706H13.1232C12.8023 42.6706 12.4846 42.6074 12.1882 42.4845C11.8918 42.3617 11.6225 42.1816 11.3957 41.9547C11.1689 41.7277 10.9891 41.4582 10.8665 41.1617C10.7439 40.8652 10.6809 40.5475 10.6812 40.2266V18.6146C10.6812 17.9669 10.9384 17.3458 11.3964 16.8879C11.8544 16.4299 12.4755 16.1726 13.1232 16.1726Z" fill="white"/>
<path d="M50.0202 31.9084L43.6602 25.6224C43.1776 25.1454 42.5402 24.857 41.8633 24.8093C41.1865 24.7616 40.5149 24.9578 39.9702 25.3624L31.4602 31.6844C30.8887 32.1093 30.1785 32.304 29.4702 32.2299C28.7619 32.1559 28.1074 31.8184 27.6362 31.2844L25.0862 28.3904C24.8237 28.0927 24.5018 27.8533 24.1411 27.6876C23.7804 27.522 23.389 27.4338 22.9922 27.4287C22.5953 27.4236 22.2018 27.5017 21.837 27.6581C21.4722 27.8144 21.1442 28.0455 20.8742 28.3364L12.9922 36.8284H50.0202V31.9084Z" fill="white" stroke="#000062"/>
<path d="M19.2672 16.1726H13.2452C12.565 16.1731 11.9128 16.4437 11.432 16.9249C10.9512 17.406 10.6812 18.0584 10.6812 18.7386V40.1066C10.6812 40.7866 10.9513 41.4388 11.4321 41.9196C11.913 42.4005 12.5651 42.6706 13.2452 42.6706H47.4592C48.1388 42.6701 48.7905 42.3997 49.2709 41.9189C49.7513 41.4381 50.0211 40.7863 50.0211 40.1066V18.7386C50.0211 18.0584 49.7511 17.406 49.2703 16.9249C48.7895 16.4437 48.1373 16.1731 47.4571 16.1726H24.7592" stroke="#000062" stroke-miterlimit="10"/>
<path d="M33.2205 42.6707H27.4765L24.8965 49.0027C24.8145 49.2034 24.7831 49.4213 24.8052 49.6371C24.8272 49.8528 24.902 50.0598 25.023 50.2399C25.1439 50.4199 25.3073 50.5674 25.4987 50.6694C25.6901 50.7714 25.9037 50.8247 26.1205 50.8247H34.5805C34.7974 50.8247 35.011 50.7714 35.2024 50.6694C35.3938 50.5674 35.5572 50.4199 35.6781 50.2399C35.7991 50.0598 35.8738 49.8528 35.8959 49.6371C35.9179 49.4213 35.8866 49.2034 35.8045 49.0027L33.2205 42.6707Z" fill="white" stroke="#000062" stroke-miterlimit="10"/>
<path d="M22.7795 16.7336C23.0896 16.4235 23.0896 15.9208 22.7795 15.6107C22.4695 15.3006 21.9667 15.3006 21.6567 15.6107C21.3466 15.9208 21.3466 16.4235 21.6567 16.7336C21.9667 17.0436 22.4695 17.0436 22.7795 16.7336Z" fill="#000062"/>
<path d="M10.6812 20.8845H50.0231" stroke="#000062" stroke-miterlimit="10"/>
<path d="M10.6812 36.9104H50.0231" stroke="#000062" stroke-miterlimit="10"/>
<path d="M30.3503 40.6825C30.896 40.6825 31.3383 40.2402 31.3383 39.6945C31.3383 39.1489 30.896 38.7065 30.3503 38.7065C29.8046 38.7065 29.3623 39.1489 29.3623 39.6945C29.3623 40.2402 29.8046 40.6825 30.3503 40.6825Z" fill="#000062"/>
<path d="M15.3918 26.0245C16.1837 26.0245 16.8258 25.3825 16.8258 24.5905C16.8258 23.7985 16.1837 23.1565 15.3918 23.1565C14.5998 23.1565 13.9578 23.7985 13.9578 24.5905C13.9578 25.3825 14.5998 26.0245 15.3918 26.0245Z" fill="white" stroke="#000062" stroke-miterlimit="10"/>
<path d="M39.9702 25.4446V31.6586" stroke="#000062" stroke-miterlimit="10"/>
<path d="M39.9702 32.7246V34.1246" stroke="#000062" stroke-miterlimit="10"/>
<path d="M15.3918 26.0245C16.1837 26.0245 16.8258 25.3825 16.8258 24.5905C16.8258 23.7985 16.1837 23.1565 15.3918 23.1565C14.5998 23.1565 13.9578 23.7985 13.9578 24.5905C13.9578 25.3825 14.5998 26.0245 15.3918 26.0245Z" fill="white" stroke="#7F92FF" stroke-miterlimit="10"/>
<path d="M39.9702 25.4446V31.6586" stroke="#7F92FF" stroke-miterlimit="10"/>
<path d="M39.9702 32.7246V34.1246" stroke="#7F92FF" stroke-miterlimit="10"/>
</svg>
