<svg width="84" height="113" viewBox="0 0 84 113" fill="none" xmlns="http://www.w3.org/2000/svg">
<g id="layer1">
<path id="path13165-2" d="M40.7657 0.109989C32.6479 1.72822 28.8748 9.01736 28.8748 14.751C28.8749 21.7166 33.6734 27.5736 40.1285 29.2456V32.9297C35.9786 39.3981 26.7245 43.819 17.9618 49.1784C8.22605 55.1328 0.834785 62.5653 0.749815 74.7474C0.693123 82.8341 2.97126 88.817 5.52889 92.9555C6.82028 95.1728 10.1231 93.1325 8.71857 90.9851C6.49472 87.3867 4.41019 82.1535 4.49984 74.7474C4.63874 63.2609 12.1564 57.2562 19.9503 52.3573C27.7563 47.4508 36.7108 43.6361 41.9999 36.7293C47.2889 43.6361 55.7229 46.9544 64.0494 52.3573C72.5383 57.8655 79.6865 63.8361 79.4998 74.7474C79.3467 83.6762 76.7133 91.7153 69.5829 97.2436H6.36752C3.28371 97.2436 0.749815 99.7959 0.749815 102.88V110.365C0.746066 111.401 1.582 112.243 2.61749 112.247H81.3749C82.416 112.251 83.2612 111.406 83.2571 110.365V102.88C83.2571 99.7959 80.7086 97.2436 77.6248 97.2436H75.1932C81.8671 89.8278 83.3298 81.2181 83.2498 74.7474C83.0897 61.7999 74.9897 54.8046 66.0379 49.1784C57.3461 43.7157 48.0318 39.4031 43.8785 32.9407V29.74C50.6591 29.7329 56.575 25.2077 58.3292 18.6916C59.084 16.455 56.7823 15.2061 55.4361 16.3698C53.7626 17.7412 51.6635 18.5025 49.4998 18.5047C44.3 18.5047 40.1285 14.3187 40.1285 9.11878C40.1299 6.95545 40.8747 4.86744 42.2452 3.19351C43.2874 1.95761 42.382 0.0703745 40.7657 0.109989ZM36.7374 6.10835C36.5064 7.08942 36.3753 8.09731 36.3746 9.11878C36.3746 16.3454 42.273 22.2548 49.4995 22.2548C50.5251 22.2537 51.5362 22.1193 52.5208 21.8848C50.4409 24.4077 47.326 25.9859 43.8782 25.9899C37.6428 25.9899 32.6246 20.9864 32.6246 14.751C32.6283 11.3022 34.2123 8.18841 36.7374 6.10835ZM6.36752 100.994H77.6248C78.696 100.994 79.5072 101.809 79.5072 102.88V108.497H4.49984V102.88C4.49984 101.809 5.29644 100.994 6.36752 100.994Z" fill="white"/>
</g>
</svg>
