  <svg xmlns="http://www.w3.org/2000/svg" class="prayer-icon" viewBox="0 0 20 20" fill="none">
              <path
                d="M16.8483 16.3984H16.5623V16.1314C16.613 16.1313 16.6627 16.1187 16.7065 16.0948C16.7502 16.0709 16.7863 16.0365 16.8111 15.9953C17.8923 14.2255 18.2097 12.7413 17.7893 11.4573C17.1343 9.50066 14.9378 8.48362 12.9872 7.58937C11.8003 7.05549 10.6763 6.52162 10.2702 5.91566V5.42983C10.6545 5.37432 11.0134 5.21627 11.3037 4.97472C11.5939 4.73318 11.8032 4.41844 11.9061 4.06845C11.9191 4.0145 11.9138 3.95813 11.891 3.90713C11.8681 3.85612 11.8289 3.81299 11.7786 3.78369C11.7284 3.75439 11.6697 3.74037 11.6105 3.74356C11.5514 3.74675 11.4948 3.767 11.4485 3.80151C11.3057 3.91351 11.1402 3.99748 10.9618 4.04839C10.7834 4.0993 10.5958 4.11611 10.4103 4.09781C10.0361 4.05301 9.69456 3.87616 9.45573 3.60361C9.2169 3.33106 9.09897 2.98349 9.12616 2.63231C9.13099 2.52832 9.14923 2.42525 9.1805 2.32533C9.19346 2.27139 9.18815 2.21502 9.16531 2.16401C9.14248 2.11301 9.10323 2.06987 9.05301 2.04058C9.00278 2.01128 8.94404 1.99725 8.88491 2.00045C8.82578 2.00364 8.76917 2.02389 8.72289 2.05839C8.47458 2.25329 8.27834 2.49951 8.14976 2.77752C8.02118 3.05554 7.96379 3.3577 7.98214 3.66003C8.0094 4.09362 8.1943 4.50557 8.5063 4.82783C8.8183 5.15009 9.23874 5.36339 9.69817 5.4325V5.91566C9.29204 6.52162 8.16804 7.05549 6.98111 7.58937C5.03055 8.48362 2.83402 9.50066 2.17907 11.4573C1.75864 12.7413 2.07611 14.2255 3.15721 15.9953C3.18204 16.0365 3.21817 16.0709 3.26189 16.0948C3.30561 16.1187 3.35536 16.1313 3.40604 16.1314V16.3984H3.12003C3.04418 16.3984 2.97143 16.4265 2.91779 16.4765C2.86416 16.5266 2.83402 16.5945 2.83402 16.6653V17.7331C2.83402 17.8039 2.86416 17.8718 2.91779 17.9218C2.97143 17.9719 3.04418 18 3.12003 18H16.8483C16.9242 18 16.9969 17.9719 17.0506 17.9218C17.1042 17.8718 17.1343 17.8039 17.1343 17.7331V16.6653C17.1343 16.5945 17.1042 16.5266 17.0506 16.4765C16.9969 16.4265 16.9242 16.3984 16.8483 16.3984ZM8.55415 3.628C8.54327 3.46788 8.56164 3.30721 8.60849 3.15284C8.70157 3.53489 8.91888 3.88075 9.23067 4.14309C9.54247 4.40542 9.93351 4.57141 10.3503 4.61834C10.5305 4.63496 10.7124 4.62868 10.8908 4.59965C10.751 4.71393 10.5882 4.8011 10.4119 4.85609C10.2356 4.91108 10.0494 4.9328 9.86406 4.91998C9.51776 4.88287 9.19657 4.73297 8.95698 4.49666C8.71739 4.26035 8.57475 3.95277 8.55415 3.628ZM2.72534 11.6148C3.29735 9.87704 5.38806 8.91606 7.2328 8.06719C8.39398 7.53332 9.41217 7.05549 9.98418 6.44954C10.5562 7.06083 11.5744 7.53332 12.7356 8.06719C14.5803 8.92407 16.671 9.87704 17.243 11.6148C17.6062 12.7173 17.3288 14.0173 16.385 15.5975H3.57478C2.63954 14.0226 2.36211 12.7173 2.72534 11.6148ZM3.97805 16.1314H15.9903V16.3984H3.97805V16.1314ZM16.5623 17.4661H3.40604V16.9322H16.5623V17.4661Z"
                fill="white" stroke="#7f92ff" />
            </svg>