<svg width="18" height="21" viewBox="0 0 18 21" fill="none" xmlns="http://www.w3.org/2000/svg">
<path d="M9.57777 6.60277C9.43594 6.41619 9.21505 6.30664 8.98069 6.30664C8.74633 6.30664 8.52544 6.41619 8.38362 6.60277C8.1498 6.91035 7.73308 7.20143 7.1274 7.51565C6.8329 7.66843 6.51535 7.81623 6.17783 7.97136C6.13921 7.9891 6.10031 8.00696 6.06117 8.02493C5.76333 8.16163 5.45162 8.3047 5.14823 8.45469C3.84647 9.09829 2.25 10.0709 2.25 12.002C2.25 13.2957 2.77195 14.2015 3.30352 14.7768C3.56548 15.0603 3.82755 15.2619 4.02702 15.3943C4.12718 15.4608 4.2129 15.5107 4.27687 15.5455C4.3089 15.563 4.33563 15.5767 4.35615 15.5869L4.38224 15.5995L4.39162 15.604L4.39537 15.6057L4.397 15.6064L4.39776 15.6068C4.39812 15.6069 4.39847 15.6071 4.70877 14.9243L4.39847 15.6071C4.49592 15.6514 4.60173 15.6743 4.70877 15.6743H13.2526C13.3597 15.6743 13.4655 15.6514 13.5629 15.6071L13.2526 14.9243C13.5629 15.6071 13.5633 15.6069 13.5636 15.6068L13.5644 15.6064L13.566 15.6057L13.5698 15.604L13.5791 15.5995L13.6052 15.5869C13.6258 15.5767 13.6525 15.563 13.6845 15.5455C13.7485 15.5107 13.8342 15.4608 13.9344 15.3943C14.1338 15.2619 14.3959 15.0603 14.6579 14.7768C15.1894 14.2015 15.7114 13.2957 15.7114 12.002C15.7114 10.0709 14.1149 9.09829 12.8132 8.45469C12.5098 8.3047 12.1981 8.16163 11.9002 8.02492C11.8611 8.00696 11.8222 7.9891 11.7836 7.97136C11.446 7.81623 11.1285 7.66843 10.834 7.51565C10.2283 7.20143 9.81158 6.91035 9.57777 6.60277Z" stroke="white" stroke-width="1.5" stroke-linejoin="round"/>
<path d="M15 18.7427C15.4142 18.7427 15.75 18.4069 15.75 17.9927V16.9403C15.75 16.1775 15.1 15.6641 14.4286 15.6641H3.57142C2.90004 15.6641 2.25 16.1775 2.25 16.9403V17.9927C2.25 18.4069 2.58579 18.7427 3 18.7427H15Z" stroke="white" stroke-width="1.5" stroke-linejoin="round"/>
<path d="M9.37734 2.49832C9.5935 2.25519 9.62826 1.90042 9.46341 1.61995C9.29855 1.33948 8.97167 1.19727 8.65408 1.26787C8.06741 1.39828 7.53395 1.70885 7.14564 2.1625C6.75622 2.61745 6.53685 3.1894 6.53613 3.78737V3.78828C6.53614 4.49654 6.84224 5.1619 7.36388 5.64226C7.88344 6.12069 8.57582 6.37998 9.28614 6.37999L9.28695 6.37999C9.88834 6.37934 10.4786 6.19293 10.9628 5.84137C11.4479 5.48913 11.8024 4.98775 11.9536 4.40988C12.0346 4.10089 11.9109 3.77455 11.6455 3.5968C11.3801 3.41904 11.0313 3.42886 10.7763 3.62128C10.6048 3.75072 10.3812 3.82725 10.1429 3.82756C10.0082 3.82752 9.87604 3.80301 9.75454 3.75666C9.63298 3.7103 9.52628 3.64372 9.43915 3.56349C9.35216 3.48338 9.28679 3.39169 9.24348 3.2954C9.2003 3.19941 9.17904 3.09899 9.179 2.99927C9.17918 2.82565 9.24405 2.64825 9.37734 2.49832Z" stroke="white" stroke-width="1.5" stroke-linejoin="round"/>
</svg>
