<svg width="42" height="42" viewBox="0 0 42 42" fill="none" xmlns="http://www.w3.org/2000/svg">
<path d="M20.759 9.36926C21.0218 9.52132 21.3609 9.45022 21.5265 9.19577L22.16 8.22232C22.3632 7.90997 22.2765 7.4909 21.954 7.30424C21.6315 7.11759 21.2231 7.25032 21.0536 7.58222L20.5255 8.61661C20.3875 8.887 20.4962 9.2172 20.759 9.36926Z" fill="#FFD400"/>
<path d="M15.5086 7.96398C15.8123 7.96398 16.0708 7.7323 16.0865 7.42906L16.1464 6.26726C16.1655 5.89622 15.8802 5.57812 15.5086 5.57812C15.1371 5.57812 14.8517 5.89622 14.8708 6.26726L14.9308 7.42906C14.9464 7.7323 15.205 7.96398 15.5086 7.96398Z" fill="#FFD400"/>
<path d="M10.2582 9.36926C10.521 9.2172 10.6298 8.887 10.4917 8.61661L9.96364 7.58222C9.79419 7.25032 9.38579 7.11759 9.06324 7.30424C8.7407 7.4909 8.65402 7.90997 8.85727 8.22232L9.49072 9.19577C9.6563 9.45022 9.99548 9.52132 10.2582 9.36926Z" fill="#FFD400"/>
<path d="M6.41613 13.2114C6.56819 12.9486 6.4971 12.6094 6.24264 12.4438L5.26919 11.8104C4.95684 11.6071 4.53777 11.6938 4.35112 12.0164C4.16447 12.3389 4.29719 12.7473 4.6291 12.9168L5.66349 13.4449C5.93387 13.5829 6.26408 13.4741 6.41613 13.2114Z" fill="#FFD400"/>
<path d="M4.47593 17.8839C4.77917 17.8995 5.01086 18.1581 5.01086 18.4617C5.01086 18.7654 4.77917 19.024 4.47593 19.0396L3.31414 19.0995C2.94309 19.1187 2.625 18.8333 2.625 18.4617C2.625 18.0902 2.94309 17.8048 3.31413 17.824L4.47593 17.8839Z" fill="#FFD400"/>
<path d="M21.491 11.9703C19.9181 10.52 17.8168 9.63409 15.5086 9.63409C10.6332 9.63409 6.68096 13.5864 6.68096 18.4618C6.68096 18.818 6.70207 19.1694 6.7431 19.5146C8.16981 18.5817 9.87501 18.0393 11.7069 18.0393C12.4498 18.0393 13.1729 18.1287 13.8656 18.2977C15.3989 15.2528 18.1554 12.928 21.491 11.9703Z" fill="#FFD400"/>
<path d="M11.707 35.148C7.27445 35.148 3.68115 31.5547 3.68115 27.1221C3.68115 22.6895 7.27445 19.0962 11.707 19.0962C12.6681 19.0962 13.5898 19.2652 14.4439 19.575C16.1291 15.4531 20.1791 12.5488 24.9074 12.5488C31.148 12.5488 36.207 17.6078 36.207 23.8484C36.207 24.1233 36.1972 24.3959 36.1779 24.6659C38.0651 25.5349 39.3751 27.4427 39.3751 29.6566C39.3751 32.6894 36.9165 35.148 33.8837 35.148H11.707Z" fill="white"/>
</svg>
