<svg width="57" height="56" viewBox="0 0 57 56" fill="none" xmlns="http://www.w3.org/2000/svg">
<path d="M40.2747 0H8.94971C7.02471 0 5.44971 1.575 5.44971 3.5V52.5C5.44971 54.425 7.02471 56 8.94971 56H47.4497C49.3747 56 50.9497 54.425 50.9497 52.5V9.7125L40.2747 0ZM41.3247 5.6875L44.6497 8.75H41.3247V5.6875ZM8.94971 52.5V3.5H37.8247V12.25H47.4497V52.5H8.94971Z" fill="#8080FF"/>
<path d="M19.0121 31.0641C19.3621 31.0641 19.7996 30.9766 20.1496 30.8016C21.0246 30.4516 22.4246 29.4016 24.9621 24.4141C25.7496 24.1516 26.7121 23.9766 27.6746 23.7141C28.8996 23.4516 30.1246 23.2766 31.2621 23.1891C33.6246 25.6391 34.5871 26.2516 35.8996 26.6016C36.3371 26.6891 36.6871 26.7766 37.0371 26.7766C38.6996 26.7766 39.5746 25.7266 39.7496 25.1141C40.0996 24.3266 40.1871 22.6641 38.5246 21.6141C37.3871 20.9141 35.3746 20.4766 33.0996 20.4766C32.8371 20.4766 32.5746 20.4766 32.3121 20.4766C32.0496 20.1266 31.6996 19.7766 31.3496 19.4266C30.2121 18.2016 29.3371 17.1516 28.6371 16.1016C29.5996 13.4766 29.7746 12.1641 29.6871 11.0266C29.5996 7.96406 27.6746 7.35156 26.8871 7.35156C25.8371 7.35156 24.1746 8.22656 24.0871 10.5891C23.9996 12.5141 24.2621 14.1766 25.5746 16.4516C25.2246 17.3266 24.7871 18.2891 24.3496 19.3391C23.9121 20.3891 23.4746 21.2641 23.0371 22.1391C19.6246 23.2766 18.3121 24.6766 17.6121 25.4641C15.9496 27.2141 16.2121 28.7891 16.6496 29.5766C17.0871 30.2766 17.7871 31.0641 19.0121 31.0641ZM37.2121 23.8891C37.3871 23.9766 37.3871 24.0641 37.3871 24.1516C37.2996 24.2391 36.9496 24.2391 36.5996 24.1516C36.2496 24.0641 35.8996 23.9766 35.1121 23.2766C36.3371 23.4516 36.9496 23.8016 37.2121 23.8891ZM26.7996 10.7641C26.7996 10.5891 26.7996 10.3266 26.8871 10.2391C26.9746 10.4141 27.0621 10.7641 27.1496 11.2891C27.1496 11.6391 27.1496 12.0766 26.9746 12.7766C26.7996 12.0766 26.7996 11.3766 26.7996 10.7641ZM26.5371 21.1766C26.6246 21.0016 26.7121 20.7391 26.7996 20.5641C26.9746 20.1266 27.2371 19.6891 27.4121 19.2516V19.3391L27.4996 19.1641C27.9371 19.6891 28.3746 20.2141 28.8996 20.8266H28.8121L28.8996 20.9141C28.2871 21.0016 27.6746 21.0891 27.0621 21.2641C26.7996 21.2641 26.6246 21.3516 26.4496 21.4391L26.5371 21.1766ZM19.5371 27.3891C19.7996 27.1266 20.2371 26.6891 20.9371 26.1641C19.7121 28.0891 19.1871 28.3516 19.0996 28.3516H19.0121L18.8371 28.0891C18.9246 28.1766 19.2746 27.7391 19.5371 27.3891Z" fill="#8080FF"/>
<path d="M22.5123 37.45C22.1623 37.1875 21.7248 37.0125 21.2873 36.925C20.8498 36.8375 20.3248 36.75 19.7998 36.75H15.8623V47.3375H18.1373V43.1375H19.7998C21.0248 43.1375 21.9873 42.875 22.5998 42.35C23.2998 41.825 23.6498 41.0375 23.6498 39.9875C23.6498 39.375 23.5623 38.9375 23.3873 38.5C23.2123 38.0625 22.8623 37.7125 22.5123 37.45ZM21.1998 40.6C21.1123 40.775 20.9373 40.8625 20.8498 40.95C20.6748 41.0375 20.4998 41.125 20.3248 41.125C20.1498 41.125 19.8873 41.2125 19.7123 41.2125H18.2248V38.675H19.7123C20.3248 38.675 20.7623 38.7625 21.0248 38.9375C21.1123 39.025 21.2873 39.2 21.2873 39.2875C21.3748 39.4625 21.3748 39.6375 21.3748 39.9C21.3748 40.1625 21.2873 40.5125 21.1998 40.6Z" fill="#8080FF"/>
<path d="M31.9621 38.4875C31.5246 38.05 31.0871 37.7 30.4746 37.4375C29.8621 37.0875 29.0746 37 28.2871 37H24.7871V47.5875H28.2871C29.8621 47.5875 31.0871 47.15 31.8746 46.1875C32.3121 45.75 32.5746 45.1375 32.8371 44.525C33.0121 43.9125 33.0996 43.125 33.0996 42.25C33.0996 41.4625 33.0121 40.675 32.8371 40.0625C32.6621 39.45 32.3996 38.925 31.9621 38.4875ZM30.7371 43.5625C30.6496 44 30.5621 44.35 30.2996 44.6125C30.1246 44.9625 29.8621 45.1375 29.5121 45.3125C29.1621 45.4875 28.7246 45.575 28.1996 45.575H27.0621V38.8375H28.2871C29.1621 38.8375 29.8621 39.1 30.2121 39.7125C30.3871 39.975 30.5621 40.325 30.6496 40.7625C30.7371 41.2 30.8246 41.6375 30.8246 42.25C30.8246 42.775 30.8246 43.2125 30.7371 43.5625Z" fill="#8080FF"/>
<path d="M41.2372 38.675V36.75H34.3247V47.3375H36.5997V42.7875H40.0997L40.0122 40.8625H36.5997V38.675H41.2372Z" fill="#8080FF"/>
</svg>
