<svg width="20" height="20" viewBox="0 0 20 20" fill="none" xmlns="http://www.w3.org/2000/svg">
<g id="Icon Start">
<path id="Icon (Stroke)" fill-rule="evenodd" clip-rule="evenodd" d="M9.99984 3.33464C6.31794 3.33464 3.33317 6.3194 3.33317 10.0013C3.33317 13.6832 6.31794 16.668 9.99984 16.668C13.6817 16.668 16.6665 13.6832 16.6665 10.0013C16.6665 6.3194 13.6817 3.33464 9.99984 3.33464ZM1.6665 10.0013C1.6665 5.39893 5.39746 1.66797 9.99984 1.66797C14.6022 1.66797 18.3332 5.39893 18.3332 10.0013C18.3332 14.6037 14.6022 18.3346 9.99984 18.3346C5.39746 18.3346 1.6665 14.6037 1.6665 10.0013ZM9.99984 6.66797C10.4601 6.66797 10.8332 7.04107 10.8332 7.5013V9.16797H12.4998C12.9601 9.16797 13.3332 9.54106 13.3332 10.0013C13.3332 10.4615 12.9601 10.8346 12.4998 10.8346H10.8332V12.5013C10.8332 12.9615 10.4601 13.3346 9.99984 13.3346C9.5396 13.3346 9.1665 12.9615 9.1665 12.5013V10.8346H7.49984C7.0396 10.8346 6.6665 10.4615 6.6665 10.0013C6.6665 9.54106 7.0396 9.16797 7.49984 9.16797H9.1665V7.5013C9.1665 7.04107 9.5396 6.66797 9.99984 6.66797Z" fill="#5E1AD5"/>
</g>
</svg>
