<svg width="24" height="25" viewBox="0 0 24 25" fill="none" xmlns="http://www.w3.org/2000/svg">
<path fill-rule="evenodd" clip-rule="evenodd" d="M11.9999 21.6102C17.3018 21.6102 21.5999 17.3121 21.5999 12.0102C21.5999 6.70822 17.3018 2.41016 11.9999 2.41016C6.69797 2.41016 2.3999 6.70822 2.3999 12.0102C2.3999 17.3121 6.69797 21.6102 11.9999 21.6102ZM13.1999 8.41016C13.1999 7.74741 12.6626 7.21016 11.9999 7.21016C11.3372 7.21016 10.7999 7.74741 10.7999 8.41016V10.8102H8.3999C7.73716 10.8102 7.1999 11.3474 7.1999 12.0102C7.1999 12.6729 7.73716 13.2102 8.3999 13.2102H10.7999V15.6102C10.7999 16.2729 11.3372 16.8102 11.9999 16.8102C12.6626 16.8102 13.1999 16.2729 13.1999 15.6102V13.2102H15.5999C16.2626 13.2102 16.7999 12.6729 16.7999 12.0102C16.7999 11.3474 16.2626 10.8102 15.5999 10.8102H13.1999V8.41016Z" fill="white"/>
</svg>
