<svg width="20" height="21" viewBox="0 0 20 21" fill="none" xmlns="http://www.w3.org/2000/svg">
<path d="M3.33333 3.49121V2.74121H2.58333V3.49121H3.33333ZM16.6667 3.49121H17.4167V2.74121H16.6667V3.49121ZM5.303 9.62755C5.01011 9.92044 5.01011 10.3953 5.303 10.6882C5.5959 10.9811 6.07077 10.9811 6.36366 10.6882L5.303 9.62755ZM8.33333 7.65788L8.86366 7.12755C8.72301 6.9869 8.53225 6.90788 8.33333 6.90788C8.13442 6.90788 7.94366 6.9869 7.803 7.12755L8.33333 7.65788ZM10.8333 10.1579L10.303 10.6882C10.4437 10.8289 10.6344 10.9079 10.8333 10.9079C11.0322 10.9079 11.223 10.8289 11.3637 10.6882L10.8333 10.1579ZM14.697 7.35487C14.9899 7.06198 14.9899 6.58711 14.697 6.29421C14.4041 6.00132 13.9292 6.00132 13.6363 6.29421L14.697 7.35487ZM6.13634 17.1275C5.84344 17.4204 5.84344 17.8953 6.13634 18.1882C6.42923 18.4811 6.9041 18.4811 7.197 18.1882L6.13634 17.1275ZM10 14.3245L10.5303 13.7942C10.3897 13.6536 10.1989 13.5745 10 13.5745C9.80109 13.5745 9.61032 13.6536 9.46967 13.7942L10 14.3245ZM12.803 18.1882C13.0959 18.4811 13.5708 18.4811 13.8637 18.1882C14.1566 17.8953 14.1566 17.4204 13.8637 17.1275L12.803 18.1882ZM2.5 2.74121C2.08579 2.74121 1.75 3.077 1.75 3.49121C1.75 3.90542 2.08579 4.24121 2.5 4.24121V2.74121ZM17.5 4.24121C17.9142 4.24121 18.25 3.90542 18.25 3.49121C18.25 3.077 17.9142 2.74121 17.5 2.74121V4.24121ZM3.33333 4.24121H16.6667V2.74121H3.33333V4.24121ZM15.9167 3.49121V13.4912H17.4167V3.49121H15.9167ZM15.8333 13.5745H4.16667V15.0745H15.8333V13.5745ZM4.08333 13.4912V3.49121H2.58333V13.4912H4.08333ZM4.16667 13.5745C4.12064 13.5745 4.08333 13.5372 4.08333 13.4912H2.58333C2.58333 14.3657 3.29222 15.0745 4.16667 15.0745V13.5745ZM15.9167 13.4912C15.9167 13.5372 15.8794 13.5745 15.8333 13.5745V15.0745C16.7078 15.0745 17.4167 14.3657 17.4167 13.4912H15.9167ZM6.36366 10.6882L8.86366 8.18821L7.803 7.12755L5.303 9.62755L6.36366 10.6882ZM7.803 8.18821L10.303 10.6882L11.3637 9.62755L8.86366 7.12755L7.803 8.18821ZM11.3637 10.6882L14.697 7.35487L13.6363 6.29421L10.303 9.62755L11.3637 10.6882ZM7.197 18.1882L10.5303 14.8549L9.46967 13.7942L6.13634 17.1275L7.197 18.1882ZM9.46967 14.8549L12.803 18.1882L13.8637 17.1275L10.5303 13.7942L9.46967 14.8549ZM2.5 4.24121H17.5V2.74121H2.5V4.24121Z" fill="#7F92FF"/>
</svg>
