<svg width="151" height="150" viewBox="0 0 151 150" fill="none" xmlns="http://www.w3.org/2000/svg">
<g clip-path="url(#clip0_3783_108714)">
<g clip-path="url(#clip1_3783_108714)">
<path d="M150.5 0H0.5V150H150.5V0Z" fill="white"/>
<path d="M48.725 10.4258H45.575V13.5758H48.725V10.4258Z" fill="black"/>
<path d="M58.1749 10.4258H55.0249V13.5758H58.1749V10.4258Z" fill="black"/>
<path d="M61.325 10.4258H58.175V13.5758H61.325V10.4258Z" fill="black"/>
<path d="M73.9249 10.4258H70.7749V13.5758H73.9249V10.4258Z" fill="black"/>
<path d="M77.075 10.4258H73.925V13.5758H77.075V10.4258Z" fill="black"/>
<path d="M80.225 10.4258H77.075V13.5758H80.225V10.4258Z" fill="black"/>
<path d="M86.525 10.4258H83.375V13.5758H86.525V10.4258Z" fill="black"/>
<path d="M89.6749 10.4258H86.5249V13.5758H89.6749V10.4258Z" fill="black"/>
<path d="M95.975 10.4258H92.825V13.5758H95.975V10.4258Z" fill="black"/>
<path d="M102.275 10.4258H99.125V13.5758H102.275V10.4258Z" fill="black"/>
<path d="M39.275 13.5742H36.125V16.7242H39.275V13.5742Z" fill="black"/>
<path d="M48.725 13.5742H45.575V16.7242H48.725V13.5742Z" fill="black"/>
<path d="M51.8751 13.5742H48.7251V16.7242H51.8751V13.5742Z" fill="black"/>
<path d="M61.325 13.5742H58.175V16.7242H61.325V13.5742Z" fill="black"/>
<path d="M70.775 13.5742H67.625V16.7242H70.775V13.5742Z" fill="black"/>
<path d="M73.9249 13.5742H70.7749V16.7242H73.9249V13.5742Z" fill="black"/>
<path d="M86.525 13.5742H83.375V16.7242H86.525V13.5742Z" fill="black"/>
<path d="M92.825 13.5742H89.675V16.7242H92.825V13.5742Z" fill="black"/>
<path d="M95.975 13.5742H92.825V16.7242H95.975V13.5742Z" fill="black"/>
<path d="M105.425 13.5742H102.275V16.7242H105.425V13.5742Z" fill="black"/>
<path d="M42.4249 16.7246H39.2749V19.8746H42.4249V16.7246Z" fill="black"/>
<path d="M58.1749 16.7246H55.0249V19.8746H58.1749V16.7246Z" fill="black"/>
<path d="M64.475 16.7246H61.325V19.8746H64.475V16.7246Z" fill="black"/>
<path d="M77.075 16.7246H73.925V19.8746H77.075V16.7246Z" fill="black"/>
<path d="M80.225 16.7246H77.075V19.8746H80.225V16.7246Z" fill="black"/>
<path d="M83.3751 16.7246H80.2251V19.8746H83.3751V16.7246Z" fill="black"/>
<path d="M86.525 16.7246H83.375V19.8746H86.525V16.7246Z" fill="black"/>
<path d="M102.275 16.7246H99.125V19.8746H102.275V16.7246Z" fill="black"/>
<path d="M105.425 16.7246H102.275V19.8746H105.425V16.7246Z" fill="black"/>
<path d="M108.575 16.7246H105.425V19.8746H108.575V16.7246Z" fill="black"/>
<path d="M111.725 16.7246H108.575V19.8746H111.725V16.7246Z" fill="black"/>
<path d="M114.875 16.7246H111.725V19.8746H114.875V16.7246Z" fill="black"/>
<path d="M39.275 19.875H36.125V23.025H39.275V19.875Z" fill="black"/>
<path d="M48.725 19.875H45.575V23.025H48.725V19.875Z" fill="black"/>
<path d="M61.325 19.875H58.175V23.025H61.325V19.875Z" fill="black"/>
<path d="M70.775 19.875H67.625V23.025H70.775V19.875Z" fill="black"/>
<path d="M80.225 19.875H77.075V23.025H80.225V19.875Z" fill="black"/>
<path d="M83.3751 19.875H80.2251V23.025H83.3751V19.875Z" fill="black"/>
<path d="M95.975 19.875H92.825V23.025H95.975V19.875Z" fill="black"/>
<path d="M99.1251 19.875H95.9751V23.025H99.1251V19.875Z" fill="black"/>
<path d="M102.275 19.875H99.125V23.025H102.275V19.875Z" fill="black"/>
<path d="M108.575 19.875H105.425V23.025H108.575V19.875Z" fill="black"/>
<path d="M114.875 19.875H111.725V23.025H114.875V19.875Z" fill="black"/>
<path d="M45.575 23.0254H42.425V26.1754H45.575V23.0254Z" fill="black"/>
<path d="M58.1749 23.0254H55.0249V26.1754H58.1749V23.0254Z" fill="black"/>
<path d="M61.325 23.0254H58.175V26.1754H61.325V23.0254Z" fill="black"/>
<path d="M64.475 23.0254H61.325V26.1754H64.475V23.0254Z" fill="black"/>
<path d="M77.075 23.0254H73.925V26.1754H77.075V23.0254Z" fill="black"/>
<path d="M80.225 23.0254H77.075V26.1754H80.225V23.0254Z" fill="black"/>
<path d="M83.3751 23.0254H80.2251V26.1754H83.3751V23.0254Z" fill="black"/>
<path d="M86.525 23.0254H83.375V26.1754H86.525V23.0254Z" fill="black"/>
<path d="M99.1251 23.0254H95.9751V26.1754H99.1251V23.0254Z" fill="black"/>
<path d="M111.725 23.0254H108.575V26.1754H111.725V23.0254Z" fill="black"/>
<path d="M39.275 26.1758H36.125V29.3258H39.275V26.1758Z" fill="black"/>
<path d="M42.4249 26.1758H39.2749V29.3258H42.4249V26.1758Z" fill="black"/>
<path d="M45.575 26.1758H42.425V29.3258H45.575V26.1758Z" fill="black"/>
<path d="M51.8751 26.1758H48.7251V29.3258H51.8751V26.1758Z" fill="black"/>
<path d="M55.025 26.1758H51.875V29.3258H55.025V26.1758Z" fill="black"/>
<path d="M58.1749 26.1758H55.0249V29.3258H58.1749V26.1758Z" fill="black"/>
<path d="M67.6251 26.1758H64.4751V29.3258H67.6251V26.1758Z" fill="black"/>
<path d="M70.775 26.1758H67.625V29.3258H70.775V26.1758Z" fill="black"/>
<path d="M73.9249 26.1758H70.7749V29.3258H73.9249V26.1758Z" fill="black"/>
<path d="M80.225 26.1758H77.075V29.3258H80.225V26.1758Z" fill="black"/>
<path d="M83.3751 26.1758H80.2251V29.3258H83.3751V26.1758Z" fill="black"/>
<path d="M92.825 26.1758H89.675V29.3258H92.825V26.1758Z" fill="black"/>
<path d="M105.425 26.1758H102.275V29.3258H105.425V26.1758Z" fill="black"/>
<path d="M108.575 26.1758H105.425V29.3258H108.575V26.1758Z" fill="black"/>
<path d="M114.875 26.1758H111.725V29.3258H114.875V26.1758Z" fill="black"/>
<path d="M39.275 29.3242H36.125V32.4742H39.275V29.3242Z" fill="black"/>
<path d="M45.575 29.3242H42.425V32.4742H45.575V29.3242Z" fill="black"/>
<path d="M51.8751 29.3242H48.7251V32.4742H51.8751V29.3242Z" fill="black"/>
<path d="M58.1749 29.3242H55.0249V32.4742H58.1749V29.3242Z" fill="black"/>
<path d="M64.475 29.3242H61.325V32.4742H64.475V29.3242Z" fill="black"/>
<path d="M70.775 29.3242H67.625V32.4742H70.775V29.3242Z" fill="black"/>
<path d="M77.075 29.3242H73.925V32.4742H77.075V29.3242Z" fill="black"/>
<path d="M83.3751 29.3242H80.2251V32.4742H83.3751V29.3242Z" fill="black"/>
<path d="M89.6749 29.3242H86.5249V32.4742H89.6749V29.3242Z" fill="black"/>
<path d="M95.975 29.3242H92.825V32.4742H95.975V29.3242Z" fill="black"/>
<path d="M102.275 29.3242H99.125V32.4742H102.275V29.3242Z" fill="black"/>
<path d="M108.575 29.3242H105.425V32.4742H108.575V29.3242Z" fill="black"/>
<path d="M114.875 29.3242H111.725V32.4742H114.875V29.3242Z" fill="black"/>
<path d="M42.4249 32.4746H39.2749V35.6246H42.4249V32.4746Z" fill="black"/>
<path d="M64.475 32.4746H61.325V35.6246H64.475V32.4746Z" fill="black"/>
<path d="M73.9249 32.4746H70.7749V35.6246H73.9249V32.4746Z" fill="black"/>
<path d="M77.075 32.4746H73.925V35.6246H77.075V32.4746Z" fill="black"/>
<path d="M80.225 32.4746H77.075V35.6246H80.225V32.4746Z" fill="black"/>
<path d="M86.525 32.4746H83.375V35.6246H86.525V32.4746Z" fill="black"/>
<path d="M89.6749 32.4746H86.5249V35.6246H89.6749V32.4746Z" fill="black"/>
<path d="M92.825 32.4746H89.675V35.6246H92.825V32.4746Z" fill="black"/>
<path d="M102.275 32.4746H99.125V35.6246H102.275V32.4746Z" fill="black"/>
<path d="M105.425 32.4746H102.275V35.6246H105.425V32.4746Z" fill="black"/>
<path d="M108.575 32.4746H105.425V35.6246H108.575V32.4746Z" fill="black"/>
<path d="M111.725 32.4746H108.575V35.6246H111.725V32.4746Z" fill="black"/>
<path d="M114.875 32.4746H111.725V35.6246H114.875V32.4746Z" fill="black"/>
<path d="M14.075 35.625H10.925V38.775H14.075V35.625Z" fill="black"/>
<path d="M17.225 35.625H14.075V38.775H17.225V35.625Z" fill="black"/>
<path d="M20.3751 35.625H17.2251V38.775H20.3751V35.625Z" fill="black"/>
<path d="M23.525 35.625H20.375V38.775H23.525V35.625Z" fill="black"/>
<path d="M26.6749 35.625H23.5249V38.775H26.6749V35.625Z" fill="black"/>
<path d="M32.975 35.625H29.825V38.775H32.975V35.625Z" fill="black"/>
<path d="M36.1251 35.625H32.9751V38.775H36.1251V35.625Z" fill="black"/>
<path d="M39.275 35.625H36.125V38.775H39.275V35.625Z" fill="black"/>
<path d="M42.4249 35.625H39.2749V38.775H42.4249V35.625Z" fill="black"/>
<path d="M45.575 35.625H42.425V38.775H45.575V35.625Z" fill="black"/>
<path d="M51.8751 35.625H48.7251V38.775H51.8751V35.625Z" fill="black"/>
<path d="M55.025 35.625H51.875V38.775H55.025V35.625Z" fill="black"/>
<path d="M58.1749 35.625H55.0249V38.775H58.1749V35.625Z" fill="black"/>
<path d="M70.775 35.625H67.625V38.775H70.775V35.625Z" fill="black"/>
<path d="M73.9249 35.625H70.7749V38.775H73.9249V35.625Z" fill="black"/>
<path d="M80.225 35.625H77.075V38.775H80.225V35.625Z" fill="black"/>
<path d="M83.3751 35.625H80.2251V38.775H83.3751V35.625Z" fill="black"/>
<path d="M92.825 35.625H89.675V38.775H92.825V35.625Z" fill="black"/>
<path d="M95.975 35.625H92.825V38.775H95.975V35.625Z" fill="black"/>
<path d="M99.1251 35.625H95.9751V38.775H99.1251V35.625Z" fill="black"/>
<path d="M105.425 35.625H102.275V38.775H105.425V35.625Z" fill="black"/>
<path d="M114.875 35.625H111.725V38.775H114.875V35.625Z" fill="black"/>
<path d="M118.025 35.625H114.875V38.775H118.025V35.625Z" fill="black"/>
<path d="M124.325 35.625H121.175V38.775H124.325V35.625Z" fill="black"/>
<path d="M130.625 35.625H127.475V38.775H130.625V35.625Z" fill="black"/>
<path d="M136.925 35.625H133.775V38.775H136.925V35.625Z" fill="black"/>
<path d="M14.075 38.7754H10.925V41.9254H14.075V38.7754Z" fill="black"/>
<path d="M17.225 38.7754H14.075V41.9254H17.225V38.7754Z" fill="black"/>
<path d="M20.3751 38.7754H17.2251V41.9254H20.3751V38.7754Z" fill="black"/>
<path d="M23.525 38.7754H20.375V41.9254H23.525V38.7754Z" fill="black"/>
<path d="M29.825 38.7754H26.675V41.9254H29.825V38.7754Z" fill="black"/>
<path d="M42.4249 38.7754H39.2749V41.9254H42.4249V38.7754Z" fill="black"/>
<path d="M45.575 38.7754H42.425V41.9254H45.575V38.7754Z" fill="black"/>
<path d="M48.725 38.7754H45.575V41.9254H48.725V38.7754Z" fill="black"/>
<path d="M51.8751 38.7754H48.7251V41.9254H51.8751V38.7754Z" fill="black"/>
<path d="M55.025 38.7754H51.875V41.9254H55.025V38.7754Z" fill="black"/>
<path d="M58.1749 38.7754H55.0249V41.9254H58.1749V38.7754Z" fill="black"/>
<path d="M61.325 38.7754H58.175V41.9254H61.325V38.7754Z" fill="black"/>
<path d="M67.6251 38.7754H64.4751V41.9254H67.6251V38.7754Z" fill="black"/>
<path d="M73.9249 38.7754H70.7749V41.9254H73.9249V38.7754Z" fill="black"/>
<path d="M80.225 38.7754H77.075V41.9254H80.225V38.7754Z" fill="black"/>
<path d="M83.3751 38.7754H80.2251V41.9254H83.3751V38.7754Z" fill="black"/>
<path d="M86.525 38.7754H83.375V41.9254H86.525V38.7754Z" fill="black"/>
<path d="M89.6749 38.7754H86.5249V41.9254H89.6749V38.7754Z" fill="black"/>
<path d="M95.975 38.7754H92.825V41.9254H95.975V38.7754Z" fill="black"/>
<path d="M99.1251 38.7754H95.9751V41.9254H99.1251V38.7754Z" fill="black"/>
<path d="M102.275 38.7754H99.125V41.9254H102.275V38.7754Z" fill="black"/>
<path d="M108.575 38.7754H105.425V41.9254H108.575V38.7754Z" fill="black"/>
<path d="M114.875 38.7754H111.725V41.9254H114.875V38.7754Z" fill="black"/>
<path d="M121.175 38.7754H118.025V41.9254H121.175V38.7754Z" fill="black"/>
<path d="M124.325 38.7754H121.175V41.9254H124.325V38.7754Z" fill="black"/>
<path d="M127.475 38.7754H124.325V41.9254H127.475V38.7754Z" fill="black"/>
<path d="M130.625 38.7754H127.475V41.9254H130.625V38.7754Z" fill="black"/>
<path d="M140.075 38.7754H136.925V41.9254H140.075V38.7754Z" fill="black"/>
<path d="M14.075 41.9258H10.925V45.0758H14.075V41.9258Z" fill="black"/>
<path d="M20.3751 41.9258H17.2251V45.0758H20.3751V41.9258Z" fill="black"/>
<path d="M23.525 41.9258H20.375V45.0758H23.525V41.9258Z" fill="black"/>
<path d="M32.975 41.9258H29.825V45.0758H32.975V41.9258Z" fill="black"/>
<path d="M36.1251 41.9258H32.9751V45.0758H36.1251V41.9258Z" fill="black"/>
<path d="M42.4249 41.9258H39.2749V45.0758H42.4249V41.9258Z" fill="black"/>
<path d="M45.575 41.9258H42.425V45.0758H45.575V41.9258Z" fill="black"/>
<path d="M55.025 41.9258H51.875V45.0758H55.025V41.9258Z" fill="black"/>
<path d="M58.1749 41.9258H55.0249V45.0758H58.1749V41.9258Z" fill="black"/>
<path d="M61.325 41.9258H58.175V45.0758H61.325V41.9258Z" fill="black"/>
<path d="M64.475 41.9258H61.325V45.0758H64.475V41.9258Z" fill="black"/>
<path d="M67.6251 41.9258H64.4751V45.0758H67.6251V41.9258Z" fill="black"/>
<path d="M73.9249 41.9258H70.7749V45.0758H73.9249V41.9258Z" fill="black"/>
<path d="M77.075 41.9258H73.925V45.0758H77.075V41.9258Z" fill="black"/>
<path d="M86.525 41.9258H83.375V45.0758H86.525V41.9258Z" fill="black"/>
<path d="M89.6749 41.9258H86.5249V45.0758H89.6749V41.9258Z" fill="black"/>
<path d="M92.825 41.9258H89.675V45.0758H92.825V41.9258Z" fill="black"/>
<path d="M99.1251 41.9258H95.9751V45.0758H99.1251V41.9258Z" fill="black"/>
<path d="M102.275 41.9258H99.125V45.0758H102.275V41.9258Z" fill="black"/>
<path d="M105.425 41.9258H102.275V45.0758H105.425V41.9258Z" fill="black"/>
<path d="M111.725 41.9258H108.575V45.0758H111.725V41.9258Z" fill="black"/>
<path d="M124.325 41.9258H121.175V45.0758H124.325V41.9258Z" fill="black"/>
<path d="M130.625 41.9258H127.475V45.0758H130.625V41.9258Z" fill="black"/>
<path d="M133.775 41.9258H130.625V45.0758H133.775V41.9258Z" fill="black"/>
<path d="M136.925 41.9258H133.775V45.0758H136.925V41.9258Z" fill="black"/>
<path d="M17.225 45.0742H14.075V48.2242H17.225V45.0742Z" fill="black"/>
<path d="M20.3751 45.0742H17.2251V48.2242H20.3751V45.0742Z" fill="black"/>
<path d="M42.4249 45.0742H39.2749V48.2242H42.4249V45.0742Z" fill="black"/>
<path d="M45.575 45.0742H42.425V48.2242H45.575V45.0742Z" fill="black"/>
<path d="M48.725 45.0742H45.575V48.2242H48.725V45.0742Z" fill="black"/>
<path d="M51.8751 45.0742H48.7251V48.2242H51.8751V45.0742Z" fill="black"/>
<path d="M55.025 45.0742H51.875V48.2242H55.025V45.0742Z" fill="black"/>
<path d="M64.475 45.0742H61.325V48.2242H64.475V45.0742Z" fill="black"/>
<path d="M67.6251 45.0742H64.4751V48.2242H67.6251V45.0742Z" fill="black"/>
<path d="M70.775 45.0742H67.625V48.2242H70.775V45.0742Z" fill="black"/>
<path d="M77.075 45.0742H73.925V48.2242H77.075V45.0742Z" fill="black"/>
<path d="M83.3751 45.0742H80.2251V48.2242H83.3751V45.0742Z" fill="black"/>
<path d="M92.825 45.0742H89.675V48.2242H92.825V45.0742Z" fill="black"/>
<path d="M95.975 45.0742H92.825V48.2242H95.975V45.0742Z" fill="black"/>
<path d="M102.275 45.0742H99.125V48.2242H102.275V45.0742Z" fill="black"/>
<path d="M108.575 45.0742H105.425V48.2242H108.575V45.0742Z" fill="black"/>
<path d="M111.725 45.0742H108.575V48.2242H111.725V45.0742Z" fill="black"/>
<path d="M114.875 45.0742H111.725V48.2242H114.875V45.0742Z" fill="black"/>
<path d="M121.175 45.0742H118.025V48.2242H121.175V45.0742Z" fill="black"/>
<path d="M124.325 45.0742H121.175V48.2242H124.325V45.0742Z" fill="black"/>
<path d="M127.475 45.0742H124.325V48.2242H127.475V45.0742Z" fill="black"/>
<path d="M130.625 45.0742H127.475V48.2242H130.625V45.0742Z" fill="black"/>
<path d="M140.075 45.0742H136.925V48.2242H140.075V45.0742Z" fill="black"/>
<path d="M23.525 48.2246H20.375V51.3746H23.525V48.2246Z" fill="black"/>
<path d="M26.6749 48.2246H23.5249V51.3746H26.6749V48.2246Z" fill="black"/>
<path d="M32.975 48.2246H29.825V51.3746H32.975V48.2246Z" fill="black"/>
<path d="M36.1251 48.2246H32.9751V51.3746H36.1251V48.2246Z" fill="black"/>
<path d="M45.575 48.2246H42.425V51.3746H45.575V48.2246Z" fill="black"/>
<path d="M58.1749 48.2246H55.0249V51.3746H58.1749V48.2246Z" fill="black"/>
<path d="M61.325 48.2246H58.175V51.3746H61.325V48.2246Z" fill="black"/>
<path d="M64.475 48.2246H61.325V51.3746H64.475V48.2246Z" fill="black"/>
<path d="M77.075 48.2246H73.925V51.3746H77.075V48.2246Z" fill="black"/>
<path d="M80.225 48.2246H77.075V51.3746H80.225V48.2246Z" fill="black"/>
<path d="M89.6749 48.2246H86.5249V51.3746H89.6749V48.2246Z" fill="black"/>
<path d="M95.975 48.2246H92.825V51.3746H95.975V48.2246Z" fill="black"/>
<path d="M99.1251 48.2246H95.9751V51.3746H99.1251V48.2246Z" fill="black"/>
<path d="M102.275 48.2246H99.125V51.3746H102.275V48.2246Z" fill="black"/>
<path d="M105.425 48.2246H102.275V51.3746H105.425V48.2246Z" fill="black"/>
<path d="M114.875 48.2246H111.725V51.3746H114.875V48.2246Z" fill="black"/>
<path d="M136.925 48.2246H133.775V51.3746H136.925V48.2246Z" fill="black"/>
<path d="M23.525 51.375H20.375V54.525H23.525V51.375Z" fill="black"/>
<path d="M26.6749 51.375H23.5249V54.525H26.6749V51.375Z" fill="black"/>
<path d="M39.275 51.375H36.125V54.525H39.275V51.375Z" fill="black"/>
<path d="M51.8751 51.375H48.7251V54.525H51.8751V51.375Z" fill="black"/>
<path d="M61.325 51.375H58.175V54.525H61.325V51.375Z" fill="black"/>
<path d="M70.775 51.375H67.625V54.525H70.775V51.375Z" fill="black"/>
<path d="M80.225 51.375H77.075V54.525H80.225V51.375Z" fill="black"/>
<path d="M89.6749 51.375H86.5249V54.525H89.6749V51.375Z" fill="black"/>
<path d="M95.975 51.375H92.825V54.525H95.975V51.375Z" fill="black"/>
<path d="M99.1251 51.375H95.9751V54.525H99.1251V51.375Z" fill="black"/>
<path d="M102.275 51.375H99.125V54.525H102.275V51.375Z" fill="black"/>
<path d="M114.875 51.375H111.725V54.525H114.875V51.375Z" fill="black"/>
<path d="M118.025 51.375H114.875V54.525H118.025V51.375Z" fill="black"/>
<path d="M124.325 51.375H121.175V54.525H124.325V51.375Z" fill="black"/>
<path d="M127.475 51.375H124.325V54.525H127.475V51.375Z" fill="black"/>
<path d="M130.625 51.375H127.475V54.525H130.625V51.375Z" fill="black"/>
<path d="M136.925 51.375H133.775V54.525H136.925V51.375Z" fill="black"/>
<path d="M20.3751 54.5254H17.2251V57.6754H20.3751V54.5254Z" fill="black"/>
<path d="M32.975 54.5254H29.825V57.6754H32.975V54.5254Z" fill="black"/>
<path d="M39.275 54.5254H36.125V57.6754H39.275V54.5254Z" fill="black"/>
<path d="M42.4249 54.5254H39.2749V57.6754H42.4249V54.5254Z" fill="black"/>
<path d="M45.575 54.5254H42.425V57.6754H45.575V54.5254Z" fill="black"/>
<path d="M55.025 54.5254H51.875V57.6754H55.025V54.5254Z" fill="black"/>
<path d="M58.1749 54.5254H55.0249V57.6754H58.1749V54.5254Z" fill="black"/>
<path d="M61.325 54.5254H58.175V57.6754H61.325V54.5254Z" fill="black"/>
<path d="M64.475 54.5254H61.325V57.6754H64.475V54.5254Z" fill="black"/>
<path d="M67.6251 54.5254H64.4751V57.6754H67.6251V54.5254Z" fill="black"/>
<path d="M77.075 54.5254H73.925V57.6754H77.075V54.5254Z" fill="black"/>
<path d="M95.975 54.5254H92.825V57.6754H95.975V54.5254Z" fill="black"/>
<path d="M105.425 54.5254H102.275V57.6754H105.425V54.5254Z" fill="black"/>
<path d="M136.925 54.5254H133.775V57.6754H136.925V54.5254Z" fill="black"/>
<path d="M140.075 54.5254H136.925V57.6754H140.075V54.5254Z" fill="black"/>
<path d="M20.3751 57.6758H17.2251V60.8258H20.3751V57.6758Z" fill="black"/>
<path d="M23.525 57.6758H20.375V60.8258H23.525V57.6758Z" fill="black"/>
<path d="M29.825 57.6758H26.675V60.8258H29.825V57.6758Z" fill="black"/>
<path d="M36.1251 57.6758H32.9751V60.8258H36.1251V57.6758Z" fill="black"/>
<path d="M39.275 57.6758H36.125V60.8258H39.275V57.6758Z" fill="black"/>
<path d="M45.575 57.6758H42.425V60.8258H45.575V57.6758Z" fill="black"/>
<path d="M51.8751 57.6758H48.7251V60.8258H51.8751V57.6758Z" fill="black"/>
<path d="M61.325 57.6758H58.175V60.8258H61.325V57.6758Z" fill="black"/>
<path d="M67.6251 57.6758H64.4751V60.8258H67.6251V57.6758Z" fill="black"/>
<path d="M83.3751 57.6758H80.2251V60.8258H83.3751V57.6758Z" fill="black"/>
<path d="M86.525 57.6758H83.375V60.8258H86.525V57.6758Z" fill="black"/>
<path d="M89.6749 57.6758H86.5249V60.8258H89.6749V57.6758Z" fill="black"/>
<path d="M95.975 57.6758H92.825V60.8258H95.975V57.6758Z" fill="black"/>
<path d="M108.575 57.6758H105.425V60.8258H108.575V57.6758Z" fill="black"/>
<path d="M111.725 57.6758H108.575V60.8258H111.725V57.6758Z" fill="black"/>
<path d="M114.875 57.6758H111.725V60.8258H114.875V57.6758Z" fill="black"/>
<path d="M121.175 57.6758H118.025V60.8258H121.175V57.6758Z" fill="black"/>
<path d="M127.475 57.6758H124.325V60.8258H127.475V57.6758Z" fill="black"/>
<path d="M136.925 57.6758H133.775V60.8258H136.925V57.6758Z" fill="black"/>
<path d="M140.075 57.6758H136.925V60.8258H140.075V57.6758Z" fill="black"/>
<path d="M14.075 60.8242H10.925V63.9742H14.075V60.8242Z" fill="black"/>
<path d="M26.6749 60.8242H23.5249V63.9742H26.6749V60.8242Z" fill="black"/>
<path d="M29.825 60.8242H26.675V63.9742H29.825V60.8242Z" fill="black"/>
<path d="M32.975 60.8242H29.825V63.9742H32.975V60.8242Z" fill="black"/>
<path d="M36.1251 60.8242H32.9751V63.9742H36.1251V60.8242Z" fill="black"/>
<path d="M39.275 60.8242H36.125V63.9742H39.275V60.8242Z" fill="black"/>
<path d="M58.1749 60.8242H55.0249V63.9742H58.1749V60.8242Z" fill="black"/>
<path d="M61.325 60.8242H58.175V63.9742H61.325V60.8242Z" fill="black"/>
<path d="M64.475 60.8242H61.325V63.9742H64.475V60.8242Z" fill="black"/>
<path d="M70.775 60.8242H67.625V63.9742H70.775V60.8242Z" fill="black"/>
<path d="M80.225 60.8242H77.075V63.9742H80.225V60.8242Z" fill="black"/>
<path d="M92.825 60.8242H89.675V63.9742H92.825V60.8242Z" fill="black"/>
<path d="M95.975 60.8242H92.825V63.9742H95.975V60.8242Z" fill="black"/>
<path d="M99.1251 60.8242H95.9751V63.9742H99.1251V60.8242Z" fill="black"/>
<path d="M102.275 60.8242H99.125V63.9742H102.275V60.8242Z" fill="black"/>
<path d="M105.425 60.8242H102.275V63.9742H105.425V60.8242Z" fill="black"/>
<path d="M108.575 60.8242H105.425V63.9742H108.575V60.8242Z" fill="black"/>
<path d="M114.875 60.8242H111.725V63.9742H114.875V60.8242Z" fill="black"/>
<path d="M124.325 60.8242H121.175V63.9742H124.325V60.8242Z" fill="black"/>
<path d="M130.625 60.8242H127.475V63.9742H130.625V60.8242Z" fill="black"/>
<path d="M17.225 63.9746H14.075V67.1246H17.225V63.9746Z" fill="black"/>
<path d="M20.3751 63.9746H17.2251V67.1246H20.3751V63.9746Z" fill="black"/>
<path d="M26.6749 63.9746H23.5249V67.1246H26.6749V63.9746Z" fill="black"/>
<path d="M36.1251 63.9746H32.9751V67.1246H36.1251V63.9746Z" fill="black"/>
<path d="M39.275 63.9746H36.125V67.1246H39.275V63.9746Z" fill="black"/>
<path d="M42.4249 63.9746H39.2749V67.1246H42.4249V63.9746Z" fill="black"/>
<path d="M51.8751 63.9746H48.7251V67.1246H51.8751V63.9746Z" fill="black"/>
<path d="M58.1749 63.9746H55.0249V67.1246H58.1749V63.9746Z" fill="black"/>
<path d="M64.475 63.9746H61.325V67.1246H64.475V63.9746Z" fill="black"/>
<path d="M73.9249 63.9746H70.7749V67.1246H73.9249V63.9746Z" fill="black"/>
<path d="M77.075 63.9746H73.925V67.1246H77.075V63.9746Z" fill="black"/>
<path d="M80.225 63.9746H77.075V67.1246H80.225V63.9746Z" fill="black"/>
<path d="M89.6749 63.9746H86.5249V67.1246H89.6749V63.9746Z" fill="black"/>
<path d="M102.275 63.9746H99.125V67.1246H102.275V63.9746Z" fill="black"/>
<path d="M111.725 63.9746H108.575V67.1246H111.725V63.9746Z" fill="black"/>
<path d="M114.875 63.9746H111.725V67.1246H114.875V63.9746Z" fill="black"/>
<path d="M121.175 63.9746H118.025V67.1246H121.175V63.9746Z" fill="black"/>
<path d="M124.325 63.9746H121.175V67.1246H124.325V63.9746Z" fill="black"/>
<path d="M130.625 63.9746H127.475V67.1246H130.625V63.9746Z" fill="black"/>
<path d="M14.075 67.125H10.925V70.275H14.075V67.125Z" fill="black"/>
<path d="M20.3751 67.125H17.2251V70.275H20.3751V67.125Z" fill="black"/>
<path d="M26.6749 67.125H23.5249V70.275H26.6749V67.125Z" fill="black"/>
<path d="M29.825 67.125H26.675V70.275H29.825V67.125Z" fill="black"/>
<path d="M32.975 67.125H29.825V70.275H32.975V67.125Z" fill="black"/>
<path d="M36.1251 67.125H32.9751V70.275H36.1251V67.125Z" fill="black"/>
<path d="M39.275 67.125H36.125V70.275H39.275V67.125Z" fill="black"/>
<path d="M42.4249 67.125H39.2749V70.275H42.4249V67.125Z" fill="black"/>
<path d="M48.725 67.125H45.575V70.275H48.725V67.125Z" fill="black"/>
<path d="M64.475 67.125H61.325V70.275H64.475V67.125Z" fill="black"/>
<path d="M70.775 67.125H67.625V70.275H70.775V67.125Z" fill="black"/>
<path d="M73.9249 67.125H70.7749V70.275H73.9249V67.125Z" fill="black"/>
<path d="M80.225 67.125H77.075V70.275H80.225V67.125Z" fill="black"/>
<path d="M89.6749 67.125H86.5249V70.275H89.6749V67.125Z" fill="black"/>
<path d="M92.825 67.125H89.675V70.275H92.825V67.125Z" fill="black"/>
<path d="M105.425 67.125H102.275V70.275H105.425V67.125Z" fill="black"/>
<path d="M130.625 67.125H127.475V70.275H130.625V67.125Z" fill="black"/>
<path d="M133.775 67.125H130.625V70.275H133.775V67.125Z" fill="black"/>
<path d="M20.3751 70.2754H17.2251V73.4254H20.3751V70.2754Z" fill="black"/>
<path d="M29.825 70.2754H26.675V73.4254H29.825V70.2754Z" fill="black"/>
<path d="M36.1251 70.2754H32.9751V73.4254H36.1251V70.2754Z" fill="black"/>
<path d="M39.275 70.2754H36.125V73.4254H39.275V70.2754Z" fill="black"/>
<path d="M42.4249 70.2754H39.2749V73.4254H42.4249V70.2754Z" fill="black"/>
<path d="M45.575 70.2754H42.425V73.4254H45.575V70.2754Z" fill="black"/>
<path d="M48.725 70.2754H45.575V73.4254H48.725V70.2754Z" fill="black"/>
<path d="M51.8751 70.2754H48.7251V73.4254H51.8751V70.2754Z" fill="black"/>
<path d="M58.1749 70.2754H55.0249V73.4254H58.1749V70.2754Z" fill="black"/>
<path d="M77.075 70.2754H73.925V73.4254H77.075V70.2754Z" fill="black"/>
<path d="M80.225 70.2754H77.075V73.4254H80.225V70.2754Z" fill="black"/>
<path d="M86.525 70.2754H83.375V73.4254H86.525V70.2754Z" fill="black"/>
<path d="M95.975 70.2754H92.825V73.4254H95.975V70.2754Z" fill="black"/>
<path d="M102.275 70.2754H99.125V73.4254H102.275V70.2754Z" fill="black"/>
<path d="M105.425 70.2754H102.275V73.4254H105.425V70.2754Z" fill="black"/>
<path d="M108.575 70.2754H105.425V73.4254H108.575V70.2754Z" fill="black"/>
<path d="M111.725 70.2754H108.575V73.4254H111.725V70.2754Z" fill="black"/>
<path d="M114.875 70.2754H111.725V73.4254H114.875V70.2754Z" fill="black"/>
<path d="M121.175 70.2754H118.025V73.4254H121.175V70.2754Z" fill="black"/>
<path d="M127.475 70.2754H124.325V73.4254H127.475V70.2754Z" fill="black"/>
<path d="M130.625 70.2754H127.475V73.4254H130.625V70.2754Z" fill="black"/>
<path d="M136.925 70.2754H133.775V73.4254H136.925V70.2754Z" fill="black"/>
<path d="M140.075 70.2754H136.925V73.4254H140.075V70.2754Z" fill="black"/>
<path d="M14.075 73.4258H10.925V76.5758H14.075V73.4258Z" fill="black"/>
<path d="M17.225 73.4258H14.075V76.5758H17.225V73.4258Z" fill="black"/>
<path d="M23.525 73.4258H20.375V76.5758H23.525V73.4258Z" fill="black"/>
<path d="M32.975 73.4258H29.825V76.5758H32.975V73.4258Z" fill="black"/>
<path d="M51.8751 73.4258H48.7251V76.5758H51.8751V73.4258Z" fill="black"/>
<path d="M61.325 73.4258H58.175V76.5758H61.325V73.4258Z" fill="black"/>
<path d="M70.775 73.4258H67.625V76.5758H70.775V73.4258Z" fill="black"/>
<path d="M80.225 73.4258H77.075V76.5758H80.225V73.4258Z" fill="black"/>
<path d="M99.1251 73.4258H95.9751V76.5758H99.1251V73.4258Z" fill="black"/>
<path d="M102.275 73.4258H99.125V76.5758H102.275V73.4258Z" fill="black"/>
<path d="M105.425 73.4258H102.275V76.5758H105.425V73.4258Z" fill="black"/>
<path d="M118.025 73.4258H114.875V76.5758H118.025V73.4258Z" fill="black"/>
<path d="M121.175 73.4258H118.025V76.5758H121.175V73.4258Z" fill="black"/>
<path d="M127.475 73.4258H124.325V76.5758H127.475V73.4258Z" fill="black"/>
<path d="M136.925 73.4258H133.775V76.5758H136.925V73.4258Z" fill="black"/>
<path d="M17.225 76.5742H14.075V79.7242H17.225V76.5742Z" fill="black"/>
<path d="M23.525 76.5742H20.375V79.7242H23.525V76.5742Z" fill="black"/>
<path d="M39.275 76.5742H36.125V79.7242H39.275V76.5742Z" fill="black"/>
<path d="M42.4249 76.5742H39.2749V79.7242H42.4249V76.5742Z" fill="black"/>
<path d="M58.1749 76.5742H55.0249V79.7242H58.1749V76.5742Z" fill="black"/>
<path d="M61.325 76.5742H58.175V79.7242H61.325V76.5742Z" fill="black"/>
<path d="M64.475 76.5742H61.325V79.7242H64.475V76.5742Z" fill="black"/>
<path d="M77.075 76.5742H73.925V79.7242H77.075V76.5742Z" fill="black"/>
<path d="M80.225 76.5742H77.075V79.7242H80.225V76.5742Z" fill="black"/>
<path d="M86.525 76.5742H83.375V79.7242H86.525V76.5742Z" fill="black"/>
<path d="M89.6749 76.5742H86.5249V79.7242H89.6749V76.5742Z" fill="black"/>
<path d="M95.975 76.5742H92.825V79.7242H95.975V76.5742Z" fill="black"/>
<path d="M99.1251 76.5742H95.9751V79.7242H99.1251V76.5742Z" fill="black"/>
<path d="M102.275 76.5742H99.125V79.7242H102.275V76.5742Z" fill="black"/>
<path d="M108.575 76.5742H105.425V79.7242H108.575V76.5742Z" fill="black"/>
<path d="M114.875 76.5742H111.725V79.7242H114.875V76.5742Z" fill="black"/>
<path d="M124.325 76.5742H121.175V79.7242H124.325V76.5742Z" fill="black"/>
<path d="M127.475 76.5742H124.325V79.7242H127.475V76.5742Z" fill="black"/>
<path d="M136.925 76.5742H133.775V79.7242H136.925V76.5742Z" fill="black"/>
<path d="M140.075 76.5742H136.925V79.7242H140.075V76.5742Z" fill="black"/>
<path d="M17.225 79.7246H14.075V82.8746H17.225V79.7246Z" fill="black"/>
<path d="M29.825 79.7246H26.675V82.8746H29.825V79.7246Z" fill="black"/>
<path d="M32.975 79.7246H29.825V82.8746H32.975V79.7246Z" fill="black"/>
<path d="M39.275 79.7246H36.125V82.8746H39.275V79.7246Z" fill="black"/>
<path d="M42.4249 79.7246H39.2749V82.8746H42.4249V79.7246Z" fill="black"/>
<path d="M48.725 79.7246H45.575V82.8746H48.725V79.7246Z" fill="black"/>
<path d="M51.8751 79.7246H48.7251V82.8746H51.8751V79.7246Z" fill="black"/>
<path d="M55.025 79.7246H51.875V82.8746H55.025V79.7246Z" fill="black"/>
<path d="M67.6251 79.7246H64.4751V82.8746H67.6251V79.7246Z" fill="black"/>
<path d="M73.9249 79.7246H70.7749V82.8746H73.9249V79.7246Z" fill="black"/>
<path d="M92.825 79.7246H89.675V82.8746H92.825V79.7246Z" fill="black"/>
<path d="M95.975 79.7246H92.825V82.8746H95.975V79.7246Z" fill="black"/>
<path d="M99.1251 79.7246H95.9751V82.8746H99.1251V79.7246Z" fill="black"/>
<path d="M105.425 79.7246H102.275V82.8746H105.425V79.7246Z" fill="black"/>
<path d="M124.325 79.7246H121.175V82.8746H124.325V79.7246Z" fill="black"/>
<path d="M130.625 79.7246H127.475V82.8746H130.625V79.7246Z" fill="black"/>
<path d="M133.775 79.7246H130.625V82.8746H133.775V79.7246Z" fill="black"/>
<path d="M136.925 79.7246H133.775V82.8746H136.925V79.7246Z" fill="black"/>
<path d="M140.075 79.7246H136.925V82.8746H140.075V79.7246Z" fill="black"/>
<path d="M26.6749 82.875H23.5249V86.025H26.6749V82.875Z" fill="black"/>
<path d="M29.825 82.875H26.675V86.025H29.825V82.875Z" fill="black"/>
<path d="M42.4249 82.875H39.2749V86.025H42.4249V82.875Z" fill="black"/>
<path d="M48.725 82.875H45.575V86.025H48.725V82.875Z" fill="black"/>
<path d="M55.025 82.875H51.875V86.025H55.025V82.875Z" fill="black"/>
<path d="M64.475 82.875H61.325V86.025H64.475V82.875Z" fill="black"/>
<path d="M70.775 82.875H67.625V86.025H70.775V82.875Z" fill="black"/>
<path d="M73.9249 82.875H70.7749V86.025H73.9249V82.875Z" fill="black"/>
<path d="M77.075 82.875H73.925V86.025H77.075V82.875Z" fill="black"/>
<path d="M80.225 82.875H77.075V86.025H80.225V82.875Z" fill="black"/>
<path d="M83.3751 82.875H80.2251V86.025H83.3751V82.875Z" fill="black"/>
<path d="M86.525 82.875H83.375V86.025H86.525V82.875Z" fill="black"/>
<path d="M89.6749 82.875H86.5249V86.025H89.6749V82.875Z" fill="black"/>
<path d="M102.275 82.875H99.125V86.025H102.275V82.875Z" fill="black"/>
<path d="M105.425 82.875H102.275V86.025H105.425V82.875Z" fill="black"/>
<path d="M108.575 82.875H105.425V86.025H108.575V82.875Z" fill="black"/>
<path d="M111.725 82.875H108.575V86.025H111.725V82.875Z" fill="black"/>
<path d="M114.875 82.875H111.725V86.025H114.875V82.875Z" fill="black"/>
<path d="M121.175 82.875H118.025V86.025H121.175V82.875Z" fill="black"/>
<path d="M127.475 82.875H124.325V86.025H127.475V82.875Z" fill="black"/>
<path d="M136.925 82.875H133.775V86.025H136.925V82.875Z" fill="black"/>
<path d="M140.075 82.875H136.925V86.025H140.075V82.875Z" fill="black"/>
<path d="M14.075 86.0254H10.925V89.1754H14.075V86.0254Z" fill="black"/>
<path d="M32.975 86.0254H29.825V89.1754H32.975V86.0254Z" fill="black"/>
<path d="M45.575 86.0254H42.425V89.1754H45.575V86.0254Z" fill="black"/>
<path d="M48.725 86.0254H45.575V89.1754H48.725V86.0254Z" fill="black"/>
<path d="M58.1749 86.0254H55.0249V89.1754H58.1749V86.0254Z" fill="black"/>
<path d="M73.9249 86.0254H70.7749V89.1754H73.9249V86.0254Z" fill="black"/>
<path d="M77.075 86.0254H73.925V89.1754H77.075V86.0254Z" fill="black"/>
<path d="M83.3751 86.0254H80.2251V89.1754H83.3751V86.0254Z" fill="black"/>
<path d="M89.6749 86.0254H86.5249V89.1754H89.6749V86.0254Z" fill="black"/>
<path d="M92.825 86.0254H89.675V89.1754H92.825V86.0254Z" fill="black"/>
<path d="M95.975 86.0254H92.825V89.1754H95.975V86.0254Z" fill="black"/>
<path d="M99.1251 86.0254H95.9751V89.1754H99.1251V86.0254Z" fill="black"/>
<path d="M105.425 86.0254H102.275V89.1754H105.425V86.0254Z" fill="black"/>
<path d="M114.875 86.0254H111.725V89.1754H114.875V86.0254Z" fill="black"/>
<path d="M124.325 86.0254H121.175V89.1754H124.325V86.0254Z" fill="black"/>
<path d="M130.625 86.0254H127.475V89.1754H130.625V86.0254Z" fill="black"/>
<path d="M133.775 86.0254H130.625V89.1754H133.775V86.0254Z" fill="black"/>
<path d="M14.075 89.1758H10.925V92.3258H14.075V89.1758Z" fill="black"/>
<path d="M23.525 89.1758H20.375V92.3258H23.525V89.1758Z" fill="black"/>
<path d="M29.825 89.1758H26.675V92.3258H29.825V89.1758Z" fill="black"/>
<path d="M39.275 89.1758H36.125V92.3258H39.275V89.1758Z" fill="black"/>
<path d="M45.575 89.1758H42.425V92.3258H45.575V89.1758Z" fill="black"/>
<path d="M51.8751 89.1758H48.7251V92.3258H51.8751V89.1758Z" fill="black"/>
<path d="M55.025 89.1758H51.875V92.3258H55.025V89.1758Z" fill="black"/>
<path d="M58.1749 89.1758H55.0249V92.3258H58.1749V89.1758Z" fill="black"/>
<path d="M61.325 89.1758H58.175V92.3258H61.325V89.1758Z" fill="black"/>
<path d="M64.475 89.1758H61.325V92.3258H64.475V89.1758Z" fill="black"/>
<path d="M67.6251 89.1758H64.4751V92.3258H67.6251V89.1758Z" fill="black"/>
<path d="M70.775 89.1758H67.625V92.3258H70.775V89.1758Z" fill="black"/>
<path d="M83.3751 89.1758H80.2251V92.3258H83.3751V89.1758Z" fill="black"/>
<path d="M89.6749 89.1758H86.5249V92.3258H89.6749V89.1758Z" fill="black"/>
<path d="M95.975 89.1758H92.825V92.3258H95.975V89.1758Z" fill="black"/>
<path d="M121.175 89.1758H118.025V92.3258H121.175V89.1758Z" fill="black"/>
<path d="M124.325 89.1758H121.175V92.3258H124.325V89.1758Z" fill="black"/>
<path d="M130.625 89.1758H127.475V92.3258H130.625V89.1758Z" fill="black"/>
<path d="M136.925 89.1758H133.775V92.3258H136.925V89.1758Z" fill="black"/>
<path d="M140.075 89.1758H136.925V92.3258H140.075V89.1758Z" fill="black"/>
<path d="M20.3751 92.3242H17.2251V95.4742H20.3751V92.3242Z" fill="black"/>
<path d="M23.525 92.3242H20.375V95.4742H23.525V92.3242Z" fill="black"/>
<path d="M29.825 92.3242H26.675V95.4742H29.825V92.3242Z" fill="black"/>
<path d="M32.975 92.3242H29.825V95.4742H32.975V92.3242Z" fill="black"/>
<path d="M39.275 92.3242H36.125V95.4742H39.275V92.3242Z" fill="black"/>
<path d="M42.4249 92.3242H39.2749V95.4742H42.4249V92.3242Z" fill="black"/>
<path d="M45.575 92.3242H42.425V95.4742H45.575V92.3242Z" fill="black"/>
<path d="M55.025 92.3242H51.875V95.4742H55.025V92.3242Z" fill="black"/>
<path d="M58.1749 92.3242H55.0249V95.4742H58.1749V92.3242Z" fill="black"/>
<path d="M61.325 92.3242H58.175V95.4742H61.325V92.3242Z" fill="black"/>
<path d="M64.475 92.3242H61.325V95.4742H64.475V92.3242Z" fill="black"/>
<path d="M67.6251 92.3242H64.4751V95.4742H67.6251V92.3242Z" fill="black"/>
<path d="M77.075 92.3242H73.925V95.4742H77.075V92.3242Z" fill="black"/>
<path d="M83.3751 92.3242H80.2251V95.4742H83.3751V92.3242Z" fill="black"/>
<path d="M92.825 92.3242H89.675V95.4742H92.825V92.3242Z" fill="black"/>
<path d="M99.1251 92.3242H95.9751V95.4742H99.1251V92.3242Z" fill="black"/>
<path d="M102.275 92.3242H99.125V95.4742H102.275V92.3242Z" fill="black"/>
<path d="M105.425 92.3242H102.275V95.4742H105.425V92.3242Z" fill="black"/>
<path d="M108.575 92.3242H105.425V95.4742H108.575V92.3242Z" fill="black"/>
<path d="M111.725 92.3242H108.575V95.4742H111.725V92.3242Z" fill="black"/>
<path d="M130.625 92.3242H127.475V95.4742H130.625V92.3242Z" fill="black"/>
<path d="M133.775 92.3242H130.625V95.4742H133.775V92.3242Z" fill="black"/>
<path d="M17.225 95.4746H14.075V98.6246H17.225V95.4746Z" fill="black"/>
<path d="M20.3751 95.4746H17.2251V98.6246H20.3751V95.4746Z" fill="black"/>
<path d="M23.525 95.4746H20.375V98.6246H23.525V95.4746Z" fill="black"/>
<path d="M29.825 95.4746H26.675V98.6246H29.825V95.4746Z" fill="black"/>
<path d="M36.1251 95.4746H32.9751V98.6246H36.1251V95.4746Z" fill="black"/>
<path d="M39.275 95.4746H36.125V98.6246H39.275V95.4746Z" fill="black"/>
<path d="M48.725 95.4746H45.575V98.6246H48.725V95.4746Z" fill="black"/>
<path d="M51.8751 95.4746H48.7251V98.6246H51.8751V95.4746Z" fill="black"/>
<path d="M55.025 95.4746H51.875V98.6246H55.025V95.4746Z" fill="black"/>
<path d="M61.325 95.4746H58.175V98.6246H61.325V95.4746Z" fill="black"/>
<path d="M64.475 95.4746H61.325V98.6246H64.475V95.4746Z" fill="black"/>
<path d="M67.6251 95.4746H64.4751V98.6246H67.6251V95.4746Z" fill="black"/>
<path d="M70.775 95.4746H67.625V98.6246H70.775V95.4746Z" fill="black"/>
<path d="M73.9249 95.4746H70.7749V98.6246H73.9249V95.4746Z" fill="black"/>
<path d="M77.075 95.4746H73.925V98.6246H77.075V95.4746Z" fill="black"/>
<path d="M86.525 95.4746H83.375V98.6246H86.525V95.4746Z" fill="black"/>
<path d="M92.825 95.4746H89.675V98.6246H92.825V95.4746Z" fill="black"/>
<path d="M95.975 95.4746H92.825V98.6246H95.975V95.4746Z" fill="black"/>
<path d="M102.275 95.4746H99.125V98.6246H102.275V95.4746Z" fill="black"/>
<path d="M108.575 95.4746H105.425V98.6246H108.575V95.4746Z" fill="black"/>
<path d="M111.725 95.4746H108.575V98.6246H111.725V95.4746Z" fill="black"/>
<path d="M114.875 95.4746H111.725V98.6246H114.875V95.4746Z" fill="black"/>
<path d="M121.175 95.4746H118.025V98.6246H121.175V95.4746Z" fill="black"/>
<path d="M127.475 95.4746H124.325V98.6246H127.475V95.4746Z" fill="black"/>
<path d="M140.075 95.4746H136.925V98.6246H140.075V95.4746Z" fill="black"/>
<path d="M14.075 98.625H10.925V101.775H14.075V98.625Z" fill="black"/>
<path d="M17.225 98.625H14.075V101.775H17.225V98.625Z" fill="black"/>
<path d="M23.525 98.625H20.375V101.775H23.525V98.625Z" fill="black"/>
<path d="M29.825 98.625H26.675V101.775H29.825V98.625Z" fill="black"/>
<path d="M32.975 98.625H29.825V101.775H32.975V98.625Z" fill="black"/>
<path d="M36.1251 98.625H32.9751V101.775H36.1251V98.625Z" fill="black"/>
<path d="M42.4249 98.625H39.2749V101.775H42.4249V98.625Z" fill="black"/>
<path d="M45.575 98.625H42.425V101.775H45.575V98.625Z" fill="black"/>
<path d="M58.1749 98.625H55.0249V101.775H58.1749V98.625Z" fill="black"/>
<path d="M61.325 98.625H58.175V101.775H61.325V98.625Z" fill="black"/>
<path d="M64.475 98.625H61.325V101.775H64.475V98.625Z" fill="black"/>
<path d="M77.075 98.625H73.925V101.775H77.075V98.625Z" fill="black"/>
<path d="M80.225 98.625H77.075V101.775H80.225V98.625Z" fill="black"/>
<path d="M83.3751 98.625H80.2251V101.775H83.3751V98.625Z" fill="black"/>
<path d="M99.1251 98.625H95.9751V101.775H99.1251V98.625Z" fill="black"/>
<path d="M105.425 98.625H102.275V101.775H105.425V98.625Z" fill="black"/>
<path d="M114.875 98.625H111.725V101.775H114.875V98.625Z" fill="black"/>
<path d="M118.025 98.625H114.875V101.775H118.025V98.625Z" fill="black"/>
<path d="M127.475 98.625H124.325V101.775H127.475V98.625Z" fill="black"/>
<path d="M136.925 98.625H133.775V101.775H136.925V98.625Z" fill="black"/>
<path d="M14.075 101.775H10.925V104.925H14.075V101.775Z" fill="black"/>
<path d="M20.3751 101.775H17.2251V104.925H20.3751V101.775Z" fill="black"/>
<path d="M39.275 101.775H36.125V104.925H39.275V101.775Z" fill="black"/>
<path d="M42.4249 101.775H39.2749V104.925H42.4249V101.775Z" fill="black"/>
<path d="M51.8751 101.775H48.7251V104.925H51.8751V101.775Z" fill="black"/>
<path d="M61.325 101.775H58.175V104.925H61.325V101.775Z" fill="black"/>
<path d="M70.775 101.775H67.625V104.925H70.775V101.775Z" fill="black"/>
<path d="M80.225 101.775H77.075V104.925H80.225V101.775Z" fill="black"/>
<path d="M95.975 101.775H92.825V104.925H95.975V101.775Z" fill="black"/>
<path d="M99.1251 101.775H95.9751V104.925H99.1251V101.775Z" fill="black"/>
<path d="M102.275 101.775H99.125V104.925H102.275V101.775Z" fill="black"/>
<path d="M108.575 101.775H105.425V104.925H108.575V101.775Z" fill="black"/>
<path d="M114.875 101.775H111.725V104.925H114.875V101.775Z" fill="black"/>
<path d="M118.025 101.775H114.875V104.925H118.025V101.775Z" fill="black"/>
<path d="M127.475 101.775H124.325V104.925H127.475V101.775Z" fill="black"/>
<path d="M136.925 101.775H133.775V104.925H136.925V101.775Z" fill="black"/>
<path d="M14.075 104.926H10.925V108.076H14.075V104.926Z" fill="black"/>
<path d="M20.3751 104.926H17.2251V108.076H20.3751V104.926Z" fill="black"/>
<path d="M26.6749 104.926H23.5249V108.076H26.6749V104.926Z" fill="black"/>
<path d="M29.825 104.926H26.675V108.076H29.825V104.926Z" fill="black"/>
<path d="M32.975 104.926H29.825V108.076H32.975V104.926Z" fill="black"/>
<path d="M55.025 104.926H51.875V108.076H55.025V104.926Z" fill="black"/>
<path d="M58.1749 104.926H55.0249V108.076H58.1749V104.926Z" fill="black"/>
<path d="M61.325 104.926H58.175V108.076H61.325V104.926Z" fill="black"/>
<path d="M64.475 104.926H61.325V108.076H64.475V104.926Z" fill="black"/>
<path d="M67.6251 104.926H64.4751V108.076H67.6251V104.926Z" fill="black"/>
<path d="M70.775 104.926H67.625V108.076H70.775V104.926Z" fill="black"/>
<path d="M77.075 104.926H73.925V108.076H77.075V104.926Z" fill="black"/>
<path d="M80.225 104.926H77.075V108.076H80.225V104.926Z" fill="black"/>
<path d="M83.3751 104.926H80.2251V108.076H83.3751V104.926Z" fill="black"/>
<path d="M86.525 104.926H83.375V108.076H86.525V104.926Z" fill="black"/>
<path d="M89.6749 104.926H86.5249V108.076H89.6749V104.926Z" fill="black"/>
<path d="M92.825 104.926H89.675V108.076H92.825V104.926Z" fill="black"/>
<path d="M95.975 104.926H92.825V108.076H95.975V104.926Z" fill="black"/>
<path d="M99.1251 104.926H95.9751V108.076H99.1251V104.926Z" fill="black"/>
<path d="M105.425 104.926H102.275V108.076H105.425V104.926Z" fill="black"/>
<path d="M111.725 104.926H108.575V108.076H111.725V104.926Z" fill="black"/>
<path d="M114.875 104.926H111.725V108.076H114.875V104.926Z" fill="black"/>
<path d="M118.025 104.926H114.875V108.076H118.025V104.926Z" fill="black"/>
<path d="M124.325 104.926H121.175V108.076H124.325V104.926Z" fill="black"/>
<path d="M130.625 104.926H127.475V108.076H130.625V104.926Z" fill="black"/>
<path d="M133.775 104.926H130.625V108.076H133.775V104.926Z" fill="black"/>
<path d="M14.075 108.074H10.925V111.224H14.075V108.074Z" fill="black"/>
<path d="M23.525 108.074H20.375V111.224H23.525V108.074Z" fill="black"/>
<path d="M36.1251 108.074H32.9751V111.224H36.1251V108.074Z" fill="black"/>
<path d="M39.275 108.074H36.125V111.224H39.275V108.074Z" fill="black"/>
<path d="M51.8751 108.074H48.7251V111.224H51.8751V108.074Z" fill="black"/>
<path d="M55.025 108.074H51.875V111.224H55.025V108.074Z" fill="black"/>
<path d="M61.325 108.074H58.175V111.224H61.325V108.074Z" fill="black"/>
<path d="M67.6251 108.074H64.4751V111.224H67.6251V108.074Z" fill="black"/>
<path d="M70.775 108.074H67.625V111.224H70.775V108.074Z" fill="black"/>
<path d="M80.225 108.074H77.075V111.224H80.225V108.074Z" fill="black"/>
<path d="M83.3751 108.074H80.2251V111.224H83.3751V108.074Z" fill="black"/>
<path d="M86.525 108.074H83.375V111.224H86.525V108.074Z" fill="black"/>
<path d="M89.6749 108.074H86.5249V111.224H89.6749V108.074Z" fill="black"/>
<path d="M92.825 108.074H89.675V111.224H92.825V108.074Z" fill="black"/>
<path d="M102.275 108.074H99.125V111.224H102.275V108.074Z" fill="black"/>
<path d="M105.425 108.074H102.275V111.224H105.425V108.074Z" fill="black"/>
<path d="M108.575 108.074H105.425V111.224H108.575V108.074Z" fill="black"/>
<path d="M111.725 108.074H108.575V111.224H111.725V108.074Z" fill="black"/>
<path d="M118.025 108.074H114.875V111.224H118.025V108.074Z" fill="black"/>
<path d="M121.175 108.074H118.025V111.224H121.175V108.074Z" fill="black"/>
<path d="M127.475 108.074H124.325V111.224H127.475V108.074Z" fill="black"/>
<path d="M136.925 108.074H133.775V111.224H136.925V108.074Z" fill="black"/>
<path d="M140.075 108.074H136.925V111.224H140.075V108.074Z" fill="black"/>
<path d="M14.075 111.225H10.925V114.375H14.075V111.225Z" fill="black"/>
<path d="M23.525 111.225H20.375V114.375H23.525V111.225Z" fill="black"/>
<path d="M26.6749 111.225H23.5249V114.375H26.6749V111.225Z" fill="black"/>
<path d="M32.975 111.225H29.825V114.375H32.975V111.225Z" fill="black"/>
<path d="M42.4249 111.225H39.2749V114.375H42.4249V111.225Z" fill="black"/>
<path d="M45.575 111.225H42.425V114.375H45.575V111.225Z" fill="black"/>
<path d="M61.325 111.225H58.175V114.375H61.325V111.225Z" fill="black"/>
<path d="M64.475 111.225H61.325V114.375H64.475V111.225Z" fill="black"/>
<path d="M67.6251 111.225H64.4751V114.375H67.6251V111.225Z" fill="black"/>
<path d="M77.075 111.225H73.925V114.375H77.075V111.225Z" fill="black"/>
<path d="M80.225 111.225H77.075V114.375H80.225V111.225Z" fill="black"/>
<path d="M99.1251 111.225H95.9751V114.375H99.1251V111.225Z" fill="black"/>
<path d="M114.875 111.225H111.725V114.375H114.875V111.225Z" fill="black"/>
<path d="M118.025 111.225H114.875V114.375H118.025V111.225Z" fill="black"/>
<path d="M121.175 111.225H118.025V114.375H121.175V111.225Z" fill="black"/>
<path d="M124.325 111.225H121.175V114.375H124.325V111.225Z" fill="black"/>
<path d="M127.475 111.225H124.325V114.375H127.475V111.225Z" fill="black"/>
<path d="M136.925 111.225H133.775V114.375H136.925V111.225Z" fill="black"/>
<path d="M140.075 111.225H136.925V114.375H140.075V111.225Z" fill="black"/>
<path d="M39.275 114.375H36.125V117.525H39.275V114.375Z" fill="black"/>
<path d="M42.4249 114.375H39.2749V117.525H42.4249V114.375Z" fill="black"/>
<path d="M45.575 114.375H42.425V117.525H45.575V114.375Z" fill="black"/>
<path d="M58.1749 114.375H55.0249V117.525H58.1749V114.375Z" fill="black"/>
<path d="M80.225 114.375H77.075V117.525H80.225V114.375Z" fill="black"/>
<path d="M83.3751 114.375H80.2251V117.525H83.3751V114.375Z" fill="black"/>
<path d="M86.525 114.375H83.375V117.525H86.525V114.375Z" fill="black"/>
<path d="M89.6749 114.375H86.5249V117.525H89.6749V114.375Z" fill="black"/>
<path d="M99.1251 114.375H95.9751V117.525H99.1251V114.375Z" fill="black"/>
<path d="M114.875 114.375H111.725V117.525H114.875V114.375Z" fill="black"/>
<path d="M127.475 114.375H124.325V117.525H127.475V114.375Z" fill="black"/>
<path d="M130.625 114.375H127.475V117.525H130.625V114.375Z" fill="black"/>
<path d="M136.925 114.375H133.775V117.525H136.925V114.375Z" fill="black"/>
<path d="M140.075 114.375H136.925V117.525H140.075V114.375Z" fill="black"/>
<path d="M39.275 117.525H36.125V120.675H39.275V117.525Z" fill="black"/>
<path d="M48.725 117.525H45.575V120.675H48.725V117.525Z" fill="black"/>
<path d="M61.325 117.525H58.175V120.675H61.325V117.525Z" fill="black"/>
<path d="M64.475 117.525H61.325V120.675H64.475V117.525Z" fill="black"/>
<path d="M70.775 117.525H67.625V120.675H70.775V117.525Z" fill="black"/>
<path d="M80.225 117.525H77.075V120.675H80.225V117.525Z" fill="black"/>
<path d="M86.525 117.525H83.375V120.675H86.525V117.525Z" fill="black"/>
<path d="M89.6749 117.525H86.5249V120.675H89.6749V117.525Z" fill="black"/>
<path d="M92.825 117.525H89.675V120.675H92.825V117.525Z" fill="black"/>
<path d="M99.1251 117.525H95.9751V120.675H99.1251V117.525Z" fill="black"/>
<path d="M102.275 117.525H99.125V120.675H102.275V117.525Z" fill="black"/>
<path d="M105.425 117.525H102.275V120.675H105.425V117.525Z" fill="black"/>
<path d="M111.725 117.525H108.575V120.675H111.725V117.525Z" fill="black"/>
<path d="M114.875 117.525H111.725V120.675H114.875V117.525Z" fill="black"/>
<path d="M121.175 117.525H118.025V120.675H121.175V117.525Z" fill="black"/>
<path d="M127.475 117.525H124.325V120.675H127.475V117.525Z" fill="black"/>
<path d="M130.625 117.525H127.475V120.675H130.625V117.525Z" fill="black"/>
<path d="M133.775 117.525H130.625V120.675H133.775V117.525Z" fill="black"/>
<path d="M136.925 117.525H133.775V120.675H136.925V117.525Z" fill="black"/>
<path d="M45.575 120.676H42.425V123.826H45.575V120.676Z" fill="black"/>
<path d="M48.725 120.676H45.575V123.826H48.725V120.676Z" fill="black"/>
<path d="M51.8751 120.676H48.7251V123.826H51.8751V120.676Z" fill="black"/>
<path d="M58.1749 120.676H55.0249V123.826H58.1749V120.676Z" fill="black"/>
<path d="M61.325 120.676H58.175V123.826H61.325V120.676Z" fill="black"/>
<path d="M64.475 120.676H61.325V123.826H64.475V120.676Z" fill="black"/>
<path d="M73.9249 120.676H70.7749V123.826H73.9249V120.676Z" fill="black"/>
<path d="M77.075 120.676H73.925V123.826H77.075V120.676Z" fill="black"/>
<path d="M80.225 120.676H77.075V123.826H80.225V120.676Z" fill="black"/>
<path d="M83.3751 120.676H80.2251V123.826H83.3751V120.676Z" fill="black"/>
<path d="M95.975 120.676H92.825V123.826H95.975V120.676Z" fill="black"/>
<path d="M102.275 120.676H99.125V123.826H102.275V120.676Z" fill="black"/>
<path d="M105.425 120.676H102.275V123.826H105.425V120.676Z" fill="black"/>
<path d="M108.575 120.676H105.425V123.826H108.575V120.676Z" fill="black"/>
<path d="M111.725 120.676H108.575V123.826H111.725V120.676Z" fill="black"/>
<path d="M114.875 120.676H111.725V123.826H114.875V120.676Z" fill="black"/>
<path d="M127.475 120.676H124.325V123.826H127.475V120.676Z" fill="black"/>
<path d="M140.075 120.676H136.925V123.826H140.075V120.676Z" fill="black"/>
<path d="M39.275 123.824H36.125V126.974H39.275V123.824Z" fill="black"/>
<path d="M51.8751 123.824H48.7251V126.974H51.8751V123.824Z" fill="black"/>
<path d="M61.325 123.824H58.175V126.974H61.325V123.824Z" fill="black"/>
<path d="M70.775 123.824H67.625V126.974H70.775V123.824Z" fill="black"/>
<path d="M80.225 123.824H77.075V126.974H80.225V123.824Z" fill="black"/>
<path d="M89.6749 123.824H86.5249V126.974H89.6749V123.824Z" fill="black"/>
<path d="M92.825 123.824H89.675V126.974H92.825V123.824Z" fill="black"/>
<path d="M99.1251 123.824H95.9751V126.974H99.1251V123.824Z" fill="black"/>
<path d="M102.275 123.824H99.125V126.974H102.275V123.824Z" fill="black"/>
<path d="M105.425 123.824H102.275V126.974H105.425V123.824Z" fill="black"/>
<path d="M114.875 123.824H111.725V126.974H114.875V123.824Z" fill="black"/>
<path d="M118.025 123.824H114.875V126.974H118.025V123.824Z" fill="black"/>
<path d="M121.175 123.824H118.025V126.974H121.175V123.824Z" fill="black"/>
<path d="M124.325 123.824H121.175V126.974H124.325V123.824Z" fill="black"/>
<path d="M127.475 123.824H124.325V126.974H127.475V123.824Z" fill="black"/>
<path d="M130.625 123.824H127.475V126.974H130.625V123.824Z" fill="black"/>
<path d="M133.775 123.824H130.625V126.974H133.775V123.824Z" fill="black"/>
<path d="M136.925 123.824H133.775V126.974H136.925V123.824Z" fill="black"/>
<path d="M39.275 126.975H36.125V130.125H39.275V126.975Z" fill="black"/>
<path d="M45.575 126.975H42.425V130.125H45.575V126.975Z" fill="black"/>
<path d="M58.1749 126.975H55.0249V130.125H58.1749V126.975Z" fill="black"/>
<path d="M61.325 126.975H58.175V130.125H61.325V126.975Z" fill="black"/>
<path d="M64.475 126.975H61.325V130.125H64.475V126.975Z" fill="black"/>
<path d="M77.075 126.975H73.925V130.125H77.075V126.975Z" fill="black"/>
<path d="M80.225 126.975H77.075V130.125H80.225V126.975Z" fill="black"/>
<path d="M83.3751 126.975H80.2251V130.125H83.3751V126.975Z" fill="black"/>
<path d="M86.525 126.975H83.375V130.125H86.525V126.975Z" fill="black"/>
<path d="M102.275 126.975H99.125V130.125H102.275V126.975Z" fill="black"/>
<path d="M108.575 126.975H105.425V130.125H108.575V126.975Z" fill="black"/>
<path d="M114.875 126.975H111.725V130.125H114.875V126.975Z" fill="black"/>
<path d="M121.175 126.975H118.025V130.125H121.175V126.975Z" fill="black"/>
<path d="M39.275 130.125H36.125V133.275H39.275V130.125Z" fill="black"/>
<path d="M42.4249 130.125H39.2749V133.275H42.4249V130.125Z" fill="black"/>
<path d="M45.575 130.125H42.425V133.275H45.575V130.125Z" fill="black"/>
<path d="M48.725 130.125H45.575V133.275H48.725V130.125Z" fill="black"/>
<path d="M51.8751 130.125H48.7251V133.275H51.8751V130.125Z" fill="black"/>
<path d="M55.025 130.125H51.875V133.275H55.025V130.125Z" fill="black"/>
<path d="M58.1749 130.125H55.0249V133.275H58.1749V130.125Z" fill="black"/>
<path d="M73.9249 130.125H70.7749V133.275H73.9249V130.125Z" fill="black"/>
<path d="M80.225 130.125H77.075V133.275H80.225V130.125Z" fill="black"/>
<path d="M83.3751 130.125H80.2251V133.275H83.3751V130.125Z" fill="black"/>
<path d="M92.825 130.125H89.675V133.275H92.825V130.125Z" fill="black"/>
<path d="M95.975 130.125H92.825V133.275H95.975V130.125Z" fill="black"/>
<path d="M105.425 130.125H102.275V133.275H105.425V130.125Z" fill="black"/>
<path d="M108.575 130.125H105.425V133.275H108.575V130.125Z" fill="black"/>
<path d="M111.725 130.125H108.575V133.275H111.725V130.125Z" fill="black"/>
<path d="M118.025 130.125H114.875V133.275H118.025V130.125Z" fill="black"/>
<path d="M121.175 130.125H118.025V133.275H121.175V130.125Z" fill="black"/>
<path d="M130.625 130.125H127.475V133.275H130.625V130.125Z" fill="black"/>
<path d="M133.775 130.125H130.625V133.275H133.775V130.125Z" fill="black"/>
<path d="M136.925 130.125H133.775V133.275H136.925V130.125Z" fill="black"/>
<path d="M39.275 133.275H36.125V136.425H39.275V133.275Z" fill="black"/>
<path d="M42.4249 133.275H39.2749V136.425H42.4249V133.275Z" fill="black"/>
<path d="M48.725 133.275H45.575V136.425H48.725V133.275Z" fill="black"/>
<path d="M64.475 133.275H61.325V136.425H64.475V133.275Z" fill="black"/>
<path d="M70.775 133.275H67.625V136.425H70.775V133.275Z" fill="black"/>
<path d="M73.9249 133.275H70.7749V136.425H73.9249V133.275Z" fill="black"/>
<path d="M77.075 133.275H73.925V136.425H77.075V133.275Z" fill="black"/>
<path d="M80.225 133.275H77.075V136.425H80.225V133.275Z" fill="black"/>
<path d="M86.525 133.275H83.375V136.425H86.525V133.275Z" fill="black"/>
<path d="M89.6749 133.275H86.5249V136.425H89.6749V133.275Z" fill="black"/>
<path d="M92.825 133.275H89.675V136.425H92.825V133.275Z" fill="black"/>
<path d="M102.275 133.275H99.125V136.425H102.275V133.275Z" fill="black"/>
<path d="M105.425 133.275H102.275V136.425H105.425V133.275Z" fill="black"/>
<path d="M108.575 133.275H105.425V136.425H108.575V133.275Z" fill="black"/>
<path d="M111.725 133.275H108.575V136.425H111.725V133.275Z" fill="black"/>
<path d="M124.325 133.275H121.175V136.425H124.325V133.275Z" fill="black"/>
<path d="M140.075 133.275H136.925V136.425H140.075V133.275Z" fill="black"/>
<path d="M39.275 136.426H36.125V139.576H39.275V136.426Z" fill="black"/>
<path d="M45.575 136.426H42.425V139.576H45.575V136.426Z" fill="black"/>
<path d="M48.725 136.426H45.575V139.576H48.725V136.426Z" fill="black"/>
<path d="M51.8751 136.426H48.7251V139.576H51.8751V136.426Z" fill="black"/>
<path d="M58.1749 136.426H55.0249V139.576H58.1749V136.426Z" fill="black"/>
<path d="M64.475 136.426H61.325V139.576H64.475V136.426Z" fill="black"/>
<path d="M67.6251 136.426H64.4751V139.576H67.6251V136.426Z" fill="black"/>
<path d="M70.775 136.426H67.625V139.576H70.775V136.426Z" fill="black"/>
<path d="M73.9249 136.426H70.7749V139.576H73.9249V136.426Z" fill="black"/>
<path d="M77.075 136.426H73.925V139.576H77.075V136.426Z" fill="black"/>
<path d="M80.225 136.426H77.075V139.576H80.225V136.426Z" fill="black"/>
<path d="M92.825 136.426H89.675V139.576H92.825V136.426Z" fill="black"/>
<path d="M99.1251 136.426H95.9751V139.576H99.1251V136.426Z" fill="black"/>
<path d="M102.275 136.426H99.125V139.576H102.275V136.426Z" fill="black"/>
<path d="M105.425 136.426H102.275V139.576H105.425V136.426Z" fill="black"/>
<path d="M111.725 136.426H108.575V139.576H111.725V136.426Z" fill="black"/>
<path d="M118.025 136.426H114.875V139.576H118.025V136.426Z" fill="black"/>
<path d="M121.175 136.426H118.025V139.576H121.175V136.426Z" fill="black"/>
<path d="M127.475 136.426H124.325V139.576H127.475V136.426Z" fill="black"/>
<path d="M130.625 136.426H127.475V139.576H130.625V136.426Z" fill="black"/>
<g clip-path="url(#clip2_3783_108714)">
<path d="M29.8566 10.4258H26.7065H23.5565H23.5565H20.4065H17.2566H14.1066H10.9565V13.5758V16.7258V19.8758V23.0258V26.1757V29.3257V32.4757H14.1066H17.2566H20.4065H23.5565H23.5565H26.7065H29.8566H33.0065V29.3257V26.1757V23.0258V19.8758V16.7258V13.5758V10.4258H29.8566ZM29.8566 16.7258V19.8758V23.0258V26.1757V29.3257H26.7065H23.5565H23.5565H20.4065H17.2566H14.1066V26.1757V23.0258V19.8758V16.7258V13.5758H17.2566H20.4065H23.5565H23.5565H26.7065H29.8566V16.7258Z" fill="black"/>
</g>
<path d="M23.5251 16.7266H23.525H20.3751H17.2251V19.8765V23.0266V26.1765H20.3751H23.525H23.5251H26.675V23.0266V19.8765V16.7266H23.5251Z" fill="black"/>
<g clip-path="url(#clip3_3783_108714)">
<path d="M136.956 10.4258H133.806H130.656H130.656H127.506H124.356H121.206H118.056V13.5758V16.7258V19.8758V23.0258V26.1757V29.3257V32.4757H121.206H124.356H127.506H130.656H130.656H133.806H136.956H140.106V29.3257V26.1757V23.0258V19.8758V16.7258V13.5758V10.4258H136.956ZM136.956 16.7258V19.8758V23.0258V26.1757V29.3257H133.806H130.656H130.656H127.506H124.356H121.206V26.1757V23.0258V19.8758V16.7258V13.5758H124.356H127.506H130.656H130.656H133.806H136.956V16.7258Z" fill="black"/>
</g>
<path d="M130.625 16.7266H130.625H127.475H124.325V19.8765V23.0266V26.1765H127.475H130.625H130.625H133.775V23.0266V19.8765V16.7266H130.625Z" fill="black"/>
<g clip-path="url(#clip4_3783_108714)">
<path d="M29.8566 117.525H26.7065H23.5565H23.5565H20.4065H17.2566H14.1066H10.9565V120.675V123.825V126.975V130.125V133.275V136.425V139.575H14.1066H17.2566H20.4065H23.5565H23.5565H26.7065H29.8566H33.0065V136.425V133.275V130.125V126.975V123.825V120.675V117.525H29.8566ZM29.8566 123.825V126.975V130.125V133.275V136.425H26.7065H23.5565H23.5565H20.4065H17.2566H14.1066V133.275V130.125V126.975V123.825V120.675H17.2566H20.4065H23.5565H23.5565H26.7065H29.8566V123.825Z" fill="black"/>
</g>
<path d="M23.5251 123.826H23.525H20.3751H17.2251V126.976V130.126V133.276H20.3751H23.525H23.5251H26.675V130.126V126.976V123.826H23.5251Z" fill="black"/>
</g>
</g>
<defs>
<clipPath id="clip0_3783_108714">
<rect width="150" height="150" fill="white" transform="translate(0.5)"/>
</clipPath>
<clipPath id="clip1_3783_108714">
<rect width="150" height="150" fill="white" transform="translate(0.5)"/>
</clipPath>
<clipPath id="clip2_3783_108714">
<rect width="22.05" height="22.05" fill="white" transform="translate(10.925 10.4258)"/>
</clipPath>
<clipPath id="clip3_3783_108714">
<rect width="22.05" height="22.05" fill="white" transform="translate(118.025 10.4258)"/>
</clipPath>
<clipPath id="clip4_3783_108714">
<rect width="22.05" height="22.05" fill="white" transform="translate(10.925 117.525)"/>
</clipPath>
</defs>
</svg>
