<svg width="43" height="42" viewBox="0 0 43 42" fill="none" xmlns="http://www.w3.org/2000/svg">
<path d="M29.7988 19.1602H27.496C27.0681 19.1602 26.6892 19.4366 26.5586 19.844L24.4127 26.5382C24.209 27.1735 24.683 27.8231 25.3501 27.8231H26.5254C26.9011 27.8231 27.2001 28.1379 27.1808 28.5131L26.8169 35.5798C26.8078 35.7562 27.0456 35.8204 27.1266 35.6635L32.1754 25.8819C32.5135 25.2267 32.0379 24.446 31.3006 24.446H30.3179C29.8703 24.446 29.5541 24.0079 29.695 23.5831L30.7331 20.4545C30.9445 19.8174 30.4701 19.1602 29.7988 19.1602Z" fill="#FFD400"/>
<path d="M32.7154 27.2052L33.3914 25.8955C33.9891 24.7376 33.1486 23.358 31.8456 23.358H30.915L31.9098 20.3596C32.2835 19.2336 31.4451 18.0721 30.2587 18.0721H27.2537C26.4975 18.0721 25.8279 18.5606 25.5971 19.2807L23.2383 26.6389C23.1774 26.8288 23.1508 27.0195 23.1543 27.2052L11.3883 27.2052C6.82461 27.2052 3.125 23.5056 3.125 18.9419C3.125 14.3782 6.82461 10.6786 11.3883 10.6786C12.3779 10.6786 13.3268 10.8526 14.2062 11.1715C15.9412 6.92765 20.1111 3.9375 24.9793 3.9375C31.4045 3.9375 36.6132 9.14616 36.6132 15.5714C36.6132 15.8544 36.6031 16.1351 36.5832 16.4131C38.5262 17.3077 39.875 19.2721 39.875 21.5514C39.875 24.6739 37.3437 27.2052 34.2211 27.2052H32.7154Z" fill="white"/>
<path d="M22.9546 36.0807L21.8261 33.728L20.6975 36.0811C20.5856 36.2771 20.5214 36.5051 20.5214 36.7482C20.5214 37.4821 21.1056 38.0771 21.8262 38.0771C22.5467 38.0771 23.1309 37.4821 23.1309 36.7482C23.1309 36.5049 23.0667 36.2769 22.9546 36.0807Z" fill="#64D2FF"/>
<path d="M19.0406 31.732L17.912 29.3789L16.7835 31.7317C16.6714 31.9278 16.6072 32.1558 16.6072 32.3991C16.6072 33.133 17.1914 33.728 17.9119 33.728C18.6325 33.728 19.2167 33.133 19.2167 32.3991C19.2167 32.156 19.1526 31.9281 19.0406 31.732Z" fill="#64D2FF"/>
<path d="M15.1264 36.081L13.9978 33.728L12.8693 36.0808C12.7572 36.277 12.693 36.505 12.693 36.7482C12.693 37.4821 13.2772 38.0771 13.9978 38.0771C14.7183 38.0771 15.3025 37.4821 15.3025 36.7482C15.3025 36.505 15.2384 36.2771 15.1264 36.081Z" fill="#64D2FF"/>
<path d="M11.2121 31.7318L10.0835 29.3789L8.95494 31.7319C8.84295 31.928 8.77881 32.1559 8.77881 32.3991C8.77881 33.133 9.36296 33.728 10.0835 33.728C10.8041 33.728 11.3883 33.133 11.3883 32.3991C11.3883 32.1559 11.3241 31.9279 11.2121 31.7318Z" fill="#64D2FF"/>
</svg>
