<svg width="42" height="42" viewBox="0 0 42 42" fill="none" xmlns="http://www.w3.org/2000/svg">
<path d="M10.8883 26.8771C6.32461 26.8771 2.625 23.1775 2.625 18.6138C2.625 14.0501 6.32461 10.3505 10.8883 10.3505C11.8779 10.3505 12.8268 10.5244 13.7062 10.8434C15.4412 6.59952 19.6111 3.60938 24.4793 3.60938C30.9045 3.60938 36.1132 8.81804 36.1132 15.2432C36.1132 15.5263 36.1031 15.807 36.0832 16.085C38.0262 16.9796 39.375 18.9439 39.375 21.2233C39.375 24.3458 36.8437 26.8771 33.7212 26.8771H10.8883Z" fill="white"/>
<path d="M30.5007 31.4037L29.3721 29.0508L28.2435 31.4038C28.1316 31.5999 28.0674 31.8278 28.0674 32.071C28.0674 32.8049 28.6516 33.3999 29.3722 33.3999C30.0927 33.3999 30.6769 32.8049 30.6769 32.071C30.6769 31.8278 30.6127 31.5998 30.5007 31.4037Z" fill="#64D2FF"/>
<path d="M26.5866 36.1879L25.458 33.8348L24.3294 36.1877C24.2174 36.3838 24.1532 36.6118 24.1532 36.855C24.1532 37.5889 24.7374 38.1839 25.458 38.1839C26.1785 38.1839 26.7627 37.5889 26.7627 36.855C26.7627 36.6119 26.6986 36.3839 26.5866 36.1879Z" fill="#64D2FF"/>
<path d="M22.6724 31.4038L21.5438 29.0508L20.4152 31.4037C20.3032 31.5998 20.239 31.8278 20.239 32.071C20.239 32.8049 20.8232 33.3999 21.5437 33.3999C22.2643 33.3999 22.8485 32.8049 22.8485 32.071C22.8485 31.8278 22.7843 31.5999 22.6724 31.4038Z" fill="#64D2FF"/>
<path d="M18.9756 36.1877L17.847 33.8348L16.7184 36.1878C16.6064 36.3839 16.5423 36.6118 16.5423 36.855C16.5423 37.5889 17.1264 38.1839 17.847 38.1839C18.5676 38.1839 19.1517 37.5889 19.1517 36.855C19.1517 36.6118 19.0876 36.3838 18.9756 36.1877Z" fill="#64D2FF"/>
<path d="M15.0614 31.4038L13.9328 29.0508L12.8042 31.4037C12.6922 31.5998 12.6281 31.8278 12.6281 32.071C12.6281 32.8049 13.2122 33.3999 13.9328 33.3999C14.6534 33.3999 15.2375 32.8049 15.2375 32.071C15.2375 31.8278 15.1734 31.5999 15.0614 31.4038Z" fill="#64D2FF"/>
<path d="M11.1472 36.1878L10.0186 33.8348L8.89002 36.1878C8.77801 36.3839 8.71387 36.6118 8.71387 36.855C8.71387 37.5889 9.29802 38.1839 10.0186 38.1839C10.7392 38.1839 11.3233 37.5889 11.3233 36.855C11.3233 36.6118 11.2592 36.3839 11.1472 36.1878Z" fill="#64D2FF"/>
</svg>
