<svg width="20" height="21" viewBox="0 0 20 21" fill="none" xmlns="http://www.w3.org/2000/svg">
<path d="M8.60386 3.75596C8.95919 2.29228 11.0408 2.29228 11.3961 3.75596C11.6257 4.70148 12.709 5.15018 13.5398 4.64391C14.8261 3.86019 16.298 5.33212 15.5143 6.61836C15.008 7.44925 15.4567 8.53252 16.4022 8.76206C17.8659 9.11739 17.8659 11.199 16.4022 11.5543C15.4567 11.7839 15.008 12.8672 15.5143 13.698C16.298 14.9843 14.8261 16.4562 13.5398 15.6725C12.709 15.1662 11.6257 15.6149 11.3961 16.5604C11.0408 18.0241 8.95919 18.0241 8.60386 16.5604C8.37431 15.6149 7.29105 15.1662 6.46016 15.6725C5.17392 16.4562 3.70199 14.9843 4.48571 13.698C4.99198 12.8672 4.54327 11.7839 3.59776 11.5543C2.13408 11.199 2.13408 9.11739 3.59776 8.76206C4.54327 8.53252 4.99198 7.44925 4.48571 6.61836C3.70199 5.33212 5.17392 3.86019 6.46015 4.64391C7.29105 5.15018 8.37431 4.70148 8.60386 3.75596Z" stroke="#7F92FF" stroke-width="1.5" stroke-linecap="round" stroke-linejoin="round"/>
<path d="M12.5 10.1582C12.5 11.5389 11.3807 12.6582 10 12.6582C8.61929 12.6582 7.5 11.5389 7.5 10.1582C7.5 8.77749 8.61929 7.6582 10 7.6582C11.3807 7.6582 12.5 8.77749 12.5 10.1582Z" stroke="#7F92FF" stroke-width="1.5" stroke-linecap="round" stroke-linejoin="round"/>
</svg>
