<svg width="18" height="18" viewBox="0 0 18 18" fill="none" xmlns="http://www.w3.org/2000/svg">
<path d="M1.01592 8.05539L0.575083 8.66215L1.01592 8.05538C0.663252 7.79916 0.844499 7.24133 1.28043 7.24133H5.43387C6.27866 7.24133 7.02737 6.69736 7.28842 5.89391L8.57191 1.94376C8.70662 1.52916 9.29315 1.52917 9.42786 1.94376L10.7113 5.89391C10.9724 6.69736 11.7211 7.24133 12.5659 7.24133H16.7193C17.1553 7.24133 17.3365 7.79915 16.9838 8.05539L13.6236 10.4967C12.9402 10.9933 12.6542 11.8734 12.9153 12.6769L14.1987 16.627C14.3335 17.0416 13.8589 17.3864 13.5063 17.1302L13.0654 17.7369L13.5063 17.1302L10.1461 14.6888C9.46262 14.1923 8.53715 14.1923 7.8537 14.6888L8.29454 15.2956L7.8537 14.6888L4.4935 17.1302C4.14083 17.3864 3.66631 17.0416 3.80102 16.627L5.0845 12.6769C5.34556 11.8734 5.05958 10.9933 4.37612 10.4967L1.01592 8.05539Z" fill="#8080FF" stroke="#8080FF" stroke-width="1.5"/>
</svg>
