<svg width="24" height="24" viewBox="0 0 24 24" fill="none" xmlns="http://www.w3.org/2000/svg">
<path d="M11.5719 4.94376C11.7066 4.52916 12.2932 4.52917 12.4279 4.94375L13.1044 4.72394L12.4279 4.94376L13.7113 8.89391C13.9724 9.69736 14.7211 10.2413 15.5659 10.2413H19.7193C20.1553 10.2413 20.3365 10.7992 19.9838 11.0554L16.6236 13.4967C15.9402 13.9933 15.6542 14.8734 15.9153 15.6769L17.1987 19.627C17.3335 20.0416 16.8589 20.3864 16.5063 20.1302L13.1461 17.6888C12.4626 17.1923 11.5372 17.1923 10.8537 17.6888L7.4935 20.1302C7.14083 20.3864 6.66631 20.0416 6.80102 19.627L8.0845 15.6769C8.34556 14.8734 8.05958 13.9933 7.37612 13.4967L4.01592 11.0554L3.57508 11.6621L4.01592 11.0554C3.66325 10.7992 3.8445 10.2413 4.28043 10.2413H8.43387C9.27866 10.2413 10.0274 9.69736 10.2884 8.89391L11.5719 4.94376Z" stroke="#8080FF" stroke-width="1.5"/>
<path d="M13.1461 17.6888C13.0212 17.5981 12.8882 17.5239 12.75 17.4664V5.9352L13.7113 8.89391C13.9724 9.69736 14.7211 10.2413 15.5659 10.2413H19.7193C20.1553 10.2413 20.3365 10.7992 19.9838 11.0554L16.6236 13.4967C15.9402 13.9933 15.6542 14.8734 15.9153 15.6769L17.1987 19.627C17.3335 20.0416 16.8589 20.3864 16.5063 20.1302L13.1461 17.6888L12.7117 18.2867L13.1461 17.6888Z" fill="#8080FF" stroke="#8080FF" stroke-width="1.5"/>
</svg>
