<svg width="42" height="43" viewBox="0 0 42 43" fill="none" xmlns="http://www.w3.org/2000/svg">
<g id="Group">
<path id="Vector" d="M41.25 35.0523C38.5057 35.002 38.4757 33.3948 35.4668 33.4323C32.454 33.3948 32.4307 35.002 29.6842 35.0523C26.9377 35.002 26.9107 33.3948 23.8988 33.4323C20.886 33.3955 20.8612 35.002 18.1125 35.0523C15.3645 35.0028 15.3398 33.3955 12.327 33.4323C9.31425 33.3955 9.28725 35.002 6.53925 35.0523C3.7875 35.0028 3.76575 33.3948 0.75 33.4323C0.551088 33.4323 0.360322 33.5113 0.21967 33.652C0.0790178 33.7926 0 33.9834 0 34.1823C0 34.3812 0.0790178 34.572 0.21967 34.7126C0.360322 34.8533 0.551088 34.9323 0.75 34.9323C3.49725 34.9825 3.5265 36.5898 6.53925 36.5523C9.55425 36.5898 9.57675 34.9825 12.3278 34.9323C15.0728 34.9825 15.1012 36.5898 18.1125 36.5523C19.2642 36.5765 20.3977 36.2617 21.372 35.647C22.1319 35.1799 23.0064 34.9326 23.8984 34.9326C24.7904 34.9326 25.6649 35.1799 26.4248 35.647C27.4118 36.2299 28.5372 36.5373 29.6835 36.5373C30.8298 36.5373 31.9552 36.2299 32.9422 35.647C33.7015 35.18 34.5754 34.9327 35.4668 34.9327C36.3581 34.9327 37.232 35.18 37.9912 35.647C38.9653 36.2616 40.0985 36.5764 41.25 36.5523C41.4489 36.5523 41.6397 36.4733 41.7803 36.3326C41.921 36.192 42 36.0012 42 35.8023C42 35.6034 41.921 35.4126 41.7803 35.272C41.6397 35.1313 41.4489 35.0523 41.25 35.0523ZM38.8995 40.6203C36.489 40.5678 36.4575 39.151 33.7882 39.1885C31.1152 39.151 31.0898 40.567 28.6755 40.621C26.2635 40.5678 26.2335 39.151 23.5627 39.1885C20.889 39.151 20.8628 40.567 18.4478 40.621C16.0343 40.5678 16.0065 39.151 13.3342 39.1885C10.662 39.151 10.632 40.5678 8.217 40.621C5.8005 40.5678 5.77575 39.151 3.1005 39.1885C2.90159 39.1885 2.71082 39.2676 2.57017 39.4082C2.42952 39.5489 2.3505 39.7396 2.3505 39.9385C2.3505 40.1374 2.42952 40.3282 2.57017 40.4689C2.71082 40.6095 2.90159 40.6885 3.1005 40.6885C3.87713 40.669 4.64145 40.8853 5.29275 41.3088C6.17929 41.8304 7.18916 42.1054 8.21775 42.1054C9.24634 42.1054 10.2562 41.8304 11.1427 41.3088C11.7939 40.8855 12.5579 40.6693 13.3342 40.6885C14.1102 40.6691 14.8737 40.8854 15.5243 41.3088C16.4101 41.8308 17.4195 42.1061 18.4478 42.1061C19.476 42.1061 20.4854 41.8308 21.3713 41.3088C22.03 40.9032 22.7884 40.6884 23.562 40.6884C24.3356 40.6884 25.094 40.9032 25.7528 41.3088C26.6386 41.8299 27.6477 42.1047 28.6755 42.1047C29.7033 42.1047 30.7124 41.8299 31.5983 41.3088C32.2488 40.8855 33.0123 40.6692 33.7882 40.6885C36.2018 40.7418 36.228 42.1578 38.8995 42.1203C39.0984 42.1203 39.2892 42.0413 39.4298 41.9006C39.5705 41.76 39.6495 41.5692 39.6495 41.3703C39.6495 41.1714 39.5705 40.9806 39.4298 40.84C39.2892 40.6993 39.0984 40.6203 38.8995 40.6203Z" fill="white"/>
<g id="Vector_2">
<path d="M20.4701 15.2282C20.6108 15.0875 20.8015 15.0085 21.0004 15.0085C21.1994 15.0085 21.3901 15.0875 21.5308 15.2282C21.6714 15.3688 21.7504 15.5596 21.7504 15.7585V18.1585C21.7504 18.3574 21.6714 18.5482 21.5308 18.6888C21.3901 18.8295 21.1994 18.9085 21.0004 18.9085C20.8015 18.9085 20.6108 18.8295 20.4701 18.6888C20.3295 18.5482 20.2504 18.3574 20.2504 18.1585V15.7585C20.2504 15.5596 20.3295 15.3688 20.4701 15.2282Z" fill="white"/>
<path d="M14.2725 20.1356C14.0887 20.0595 13.9426 19.9135 13.8664 19.7297L12.2194 15.7518C12.1434 15.568 12.1434 15.3615 12.2196 15.1777C12.2957 14.9939 12.4418 14.848 12.6256 14.7719C12.8094 14.6958 13.0159 14.6958 13.1996 14.772C13.3834 14.8482 13.5294 14.9942 13.6054 15.178L15.2524 19.1553C15.3286 19.339 15.3287 19.5456 15.2526 19.7294C15.1765 19.9132 15.0305 20.0593 14.8467 20.1355C14.6629 20.2117 14.4564 20.2117 14.2725 20.1356Z" fill="white"/>
<path d="M9.50868 23.7068C9.38695 23.7896 9.24366 23.835 9.09644 23.8375C8.99794 23.8376 8.90039 23.8182 8.80939 23.7805C8.7184 23.7428 8.63575 23.6875 8.56619 23.6177L6.86744 21.9197C6.73082 21.7783 6.65523 21.5888 6.65694 21.3922C6.65865 21.1955 6.73752 21.0074 6.87658 20.8684C7.01564 20.7293 7.20374 20.6505 7.40039 20.6487C7.59704 20.647 7.78649 20.7226 7.92794 20.8592L9.62669 22.5572C9.72906 22.6631 9.79827 22.7965 9.82579 22.9412C9.85332 23.0858 9.83797 23.2353 9.78163 23.3714C9.72529 23.5074 9.63041 23.624 9.50868 23.7068Z" fill="white"/>
<path d="M5.16419 29.2435L1.18619 27.5957C1.00668 27.5167 0.865247 27.3706 0.792215 27.1885C0.719184 27.0065 0.720362 26.8031 0.795497 26.622C0.870632 26.4408 1.01375 26.2963 1.19417 26.2194C1.37459 26.1424 1.57796 26.1393 1.76069 26.2105L5.73794 27.8582C5.91599 27.9381 6.0559 28.0842 6.12796 28.2656C6.20002 28.447 6.19856 28.6493 6.12388 28.8295C6.04921 29.0098 5.9072 29.1539 5.72802 29.2312C5.54883 29.3085 5.34658 29.3129 5.16419 29.2435Z" fill="white"/>
<path d="M36.2631 29.2431C36.0795 29.167 35.9335 29.0213 35.8572 28.8377C35.7812 28.654 35.7812 28.4477 35.8573 28.264C35.9334 28.0803 36.0793 27.9344 36.2629 27.8582L40.2402 26.2105C40.3316 26.1703 40.4301 26.1487 40.5299 26.1471C40.6297 26.1454 40.7289 26.1637 40.8216 26.2009C40.9142 26.2381 40.9985 26.2934 41.0695 26.3636C41.1405 26.4338 41.1968 26.5174 41.2351 26.6097C41.2733 26.7019 41.2928 26.8008 41.2923 26.9007C41.2918 27.0005 41.2714 27.0992 41.2322 27.1911C41.1931 27.2829 41.136 27.366 41.0643 27.4355C40.9926 27.505 40.9077 27.5595 40.8147 27.5957L36.8367 29.2435C36.653 29.3193 36.4467 29.3191 36.2631 29.2431Z" fill="white"/>
<path d="M32.3742 22.5572L34.0729 20.8592C34.2144 20.7226 34.4038 20.647 34.6005 20.6487C34.7971 20.6505 34.9852 20.7293 35.1243 20.8684C35.2634 21.0074 35.3422 21.1955 35.3439 21.3922C35.3457 21.5888 35.2701 21.7783 35.1334 21.9197L33.4347 23.6177C33.3655 23.6894 33.2827 23.7465 33.1912 23.7858C33.0997 23.8251 33.0013 23.8458 32.9017 23.8467C32.8022 23.8476 32.7034 23.8286 32.6112 23.7909C32.5191 23.7532 32.4353 23.6975 32.3649 23.627C32.2945 23.5566 32.2388 23.4729 32.2011 23.3807C32.1634 23.2885 32.1444 23.1898 32.1453 23.0902C32.1461 22.9906 32.1668 22.8922 32.2061 22.8007C32.2454 22.7092 32.3026 22.6264 32.3742 22.5572Z" fill="white"/>
<path d="M27.7283 20.1354C27.5445 20.2115 27.338 20.2115 27.1542 20.1355C27.0632 20.0978 26.9805 20.0425 26.9108 19.9729C26.8412 19.9032 26.7859 19.8205 26.7482 19.7294C26.7106 19.6384 26.6912 19.5408 26.6912 19.4423C26.6913 19.3438 26.7107 19.2463 26.7484 19.1553L28.3954 15.178C28.4715 14.9942 28.6175 14.8482 28.8013 14.772C28.985 14.6958 29.1915 14.6958 29.3753 14.7719C29.4663 14.8095 29.549 14.8648 29.6187 14.9344C29.6883 15.004 29.7436 15.0867 29.7813 15.1777C29.8575 15.3615 29.8575 15.568 29.7814 15.7518L28.1344 19.7297C28.0581 19.9134 27.9121 20.0593 27.7283 20.1354Z" fill="white"/>
</g>
<path id="Vector_3" d="M8.3563 32.83C8.55013 32.8744 8.75367 32.8402 8.92226 32.7347C9.09085 32.6293 9.21072 32.4612 9.25555 32.2675C12.2181 19.8835 29.7846 19.8887 32.7441 32.2675C32.7887 32.4614 32.9086 32.6297 33.0773 32.7352C33.246 32.8408 33.4497 32.875 33.6437 32.8304C33.8376 32.7857 34.0059 32.6658 34.1114 32.4971C34.217 32.3284 34.2512 32.1247 34.2066 31.9307C30.8751 18.0032 11.1216 18.0085 7.7938 31.9307C7.77158 32.0268 7.7685 32.1262 7.78475 32.2235C7.80099 32.3207 7.83625 32.4137 7.88849 32.4973C7.94073 32.5809 8.00894 32.6534 8.08921 32.7106C8.16948 32.7678 8.26024 32.8079 8.3563 32.83ZM16.0753 2.73249C16.9129 2.71363 17.744 2.88255 18.5078 3.22686C19.2716 3.57117 19.9485 4.08213 20.4891 4.72224C20.5842 4.82136 20.7045 4.89266 20.8372 4.92846C20.9698 4.96425 21.1097 4.9632 21.2418 4.92539C21.3739 4.88759 21.4931 4.81447 21.5868 4.71392C21.6804 4.61336 21.7448 4.48918 21.7731 4.35474C21.7768 4.33449 22.2193 2.27574 23.6563 1.81299C23.8407 1.74814 23.9925 1.61386 24.0793 1.43876C24.1662 1.26366 24.1813 1.06156 24.1213 0.875514C24.0614 0.689465 23.9312 0.534164 23.7585 0.442683C23.5857 0.351202 23.3841 0.330769 23.1966 0.385737C22.6285 0.600475 22.1122 0.932839 21.6815 1.36105C21.2508 1.78925 20.9155 2.30364 20.6976 2.87049C19.3635 1.73036 17.6415 1.14803 15.8893 1.24449C15.6956 1.27337 15.5209 1.37687 15.4025 1.53287C15.2841 1.68886 15.2314 1.88498 15.2557 2.07931C15.28 2.27364 15.3793 2.45076 15.5325 2.57281C15.6856 2.69486 15.8805 2.75217 16.0753 2.73249ZM30.9681 9.65724C31.8069 9.63563 32.6398 9.80329 33.405 10.1478C34.1701 10.4922 34.8479 11.0047 35.3878 11.647C35.483 11.7454 35.6031 11.8162 35.7354 11.8517C35.8677 11.8872 36.0071 11.8861 36.1388 11.8485C36.2705 11.8109 36.3895 11.7383 36.4831 11.6383C36.5767 11.5384 36.6414 11.4149 36.6703 11.281C36.6748 11.2607 37.1076 9.20274 38.5543 8.73699C38.7387 8.67214 38.8905 8.53786 38.9773 8.36276C39.0642 8.18766 39.0793 7.98556 39.0193 7.79951C38.9594 7.61346 38.8292 7.45816 38.6565 7.36668C38.4837 7.2752 38.2821 7.25477 38.0946 7.30974C37.5265 7.5246 37.0103 7.85701 36.5797 8.2852C36.149 8.71339 35.8137 9.22771 35.5956 9.79449C34.2615 8.65436 32.5395 8.07203 30.7873 8.16849C30.593 8.19614 30.4173 8.29884 30.2979 8.45455C30.1785 8.61027 30.1248 8.80659 30.1485 9.0014C30.1721 9.1962 30.2712 9.37398 30.4244 9.49659C30.5776 9.6192 30.7728 9.67687 30.9681 9.65724ZM2.0473 9.73299C3.4948 10.198 3.9268 12.256 3.93055 12.2755C3.95893 12.4099 4.02342 12.534 4.11707 12.6344C4.21073 12.7349 4.33001 12.8079 4.46208 12.8456C4.59414 12.8834 4.73399 12.8844 4.86658 12.8485C4.99917 12.8127 5.11948 12.7414 5.21455 12.6422C5.75435 12 6.43195 11.4876 7.197 11.1433C7.96204 10.7989 8.79486 10.6314 9.63355 10.6532C9.83107 10.6773 10.0301 10.6219 10.1867 10.4993C10.3434 10.3766 10.445 10.1968 10.4691 9.99924C10.4931 9.80172 10.4377 9.60273 10.3151 9.44604C10.1924 9.28935 10.0126 9.1878 9.81505 9.16374C8.06288 9.06751 6.34095 9.64982 5.0068 10.7897C4.78873 10.2229 4.45339 9.7086 4.02274 9.2804C3.59209 8.8522 3.07584 8.51981 2.5078 8.30499C2.41404 8.2748 2.31525 8.26337 2.21707 8.27137C2.11889 8.27936 2.02324 8.30661 1.9356 8.35157C1.75859 8.44236 1.62489 8.59975 1.56393 8.78911C1.50296 8.97848 1.51971 9.1843 1.6105 9.36131C1.7013 9.53833 1.85794 9.67202 2.0473 9.73299Z" fill="white"/>
<path id="Subtract" d="M21.0002 24.2344C11.8514 24.2344 10.2056 32.9169 10.2056 32.9169C11.3489 32.331 11.9964 31.9348 13.703 32.2488C15.4096 32.5628 15.6654 33.6684 18.4629 33.6684C21.2603 33.6684 21.0515 32.2488 24.3501 32.2488C27.6486 32.2488 29.1934 34.7958 31.8233 32.9169C31.8233 32.9169 30.1489 24.2344 21.0002 24.2344Z" fill="white"/>
</g>
</svg>
