<svg width="42" height="42" viewBox="0 0 42 42" fill="none" xmlns="http://www.w3.org/2000/svg">
<g id="Group">
<path id="Vector" d="M41.25 34.814C38.5057 34.7638 38.4757 33.1565 35.4668 33.194C32.454 33.1565 32.4307 34.7638 29.6842 34.814C26.9377 34.7638 26.9107 33.1565 23.8988 33.194C20.886 33.1573 20.8612 34.7638 18.1125 34.814C15.3645 34.7645 15.3398 33.1573 12.327 33.194C9.31425 33.1573 9.28725 34.7638 6.53925 34.814C3.7875 34.7645 3.76575 33.1565 0.75 33.194C0.551088 33.194 0.360322 33.273 0.21967 33.4137C0.0790178 33.5543 0 33.7451 0 33.944C0 34.1429 0.0790178 34.3337 0.21967 34.4743C0.360322 34.615 0.551088 34.694 0.75 34.694C3.49725 34.7443 3.5265 36.3515 6.53925 36.314C9.55425 36.3515 9.57675 34.7443 12.3278 34.694C15.0728 34.7443 15.1012 36.3515 18.1125 36.314C19.2642 36.3382 20.3977 36.0234 21.372 35.4088C22.1319 34.9416 23.0064 34.6943 23.8984 34.6943C24.7904 34.6943 25.6649 34.9416 26.4248 35.4088C27.4118 35.9916 28.5372 36.299 29.6835 36.299C30.8298 36.299 31.9552 35.9916 32.9422 35.4088C33.7015 34.9417 34.5754 34.6944 35.4668 34.6944C36.3581 34.6944 37.232 34.9417 37.9912 35.4088C38.9653 36.0233 40.0985 36.3381 41.25 36.314C41.4489 36.314 41.6397 36.235 41.7803 36.0943C41.921 35.9537 42 35.7629 42 35.564C42 35.3651 41.921 35.1743 41.7803 35.0337C41.6397 34.893 41.4489 34.814 41.25 34.814ZM38.8995 40.382C36.489 40.3295 36.4575 38.9128 33.7882 38.9503C31.1152 38.9128 31.0898 40.3288 28.6755 40.3828C26.2635 40.3295 26.2335 38.9128 23.5627 38.9503C20.889 38.9128 20.8628 40.3288 18.4478 40.3828C16.0343 40.3295 16.0065 38.9128 13.3342 38.9503C10.662 38.9128 10.632 40.3295 8.217 40.3828C5.8005 40.3295 5.77575 38.9128 3.1005 38.9503C2.90159 38.9503 2.71082 39.0293 2.57017 39.1699C2.42952 39.3106 2.3505 39.5013 2.3505 39.7003C2.3505 39.8992 2.42952 40.0899 2.57017 40.2306C2.71082 40.3712 2.90159 40.4503 3.1005 40.4503C3.87713 40.4308 4.64145 40.647 5.29275 41.0705C6.17929 41.5921 7.18916 41.8671 8.21775 41.8671C9.24634 41.8671 10.2562 41.5921 11.1427 41.0705C11.7939 40.6472 12.5579 40.431 13.3342 40.4503C14.1102 40.4308 14.8737 40.6471 15.5243 41.0705C16.4101 41.5925 17.4195 41.8678 18.4478 41.8678C19.476 41.8678 20.4854 41.5925 21.3713 41.0705C22.03 40.6649 22.7884 40.4501 23.562 40.4501C24.3356 40.4501 25.094 40.6649 25.7528 41.0705C26.6386 41.5916 27.6477 41.8664 28.6755 41.8664C29.7033 41.8664 30.7124 41.5916 31.5983 41.0705C32.2488 40.6472 33.0123 40.4309 33.7882 40.4503C36.2018 40.5035 36.228 41.9195 38.8995 41.882C39.0984 41.882 39.2892 41.803 39.4298 41.6623C39.5705 41.5217 39.6495 41.3309 39.6495 41.132C39.6495 40.9331 39.5705 40.7423 39.4298 40.6017C39.2892 40.461 39.0984 40.382 38.8995 40.382Z" fill="#70C8F7"/>
<g id="Vector_2">
<path d="M20.4701 14.9899C20.6108 14.8492 20.8015 14.7702 21.0004 14.7702C21.1994 14.7702 21.3901 14.8492 21.5308 14.9899C21.6714 15.1305 21.7504 15.3213 21.7504 15.5202V17.9202C21.7504 18.1191 21.6714 18.3099 21.5308 18.4505C21.3901 18.5912 21.1994 18.6702 21.0004 18.6702C20.8015 18.6702 20.6108 18.5912 20.4701 18.4505C20.3295 18.3099 20.2504 18.1191 20.2504 17.9202V15.5202C20.2504 15.3213 20.3295 15.1305 20.4701 14.9899Z" fill="white"/>
<path d="M14.2725 19.8974C14.0887 19.8213 13.9426 19.6753 13.8664 19.4915L12.2194 15.5135C12.1434 15.3297 12.1434 15.1232 12.2196 14.9394C12.2957 14.7557 12.4418 14.6097 12.6256 14.5336C12.8094 14.4575 13.0159 14.4576 13.1996 14.5337C13.3834 14.6099 13.5294 14.7559 13.6054 14.9397L15.2524 18.917C15.3286 19.1008 15.3287 19.3073 15.2526 19.4911C15.1765 19.675 15.0305 19.821 14.8467 19.8972C14.6629 19.9734 14.4564 19.9735 14.2725 19.8974Z" fill="white"/>
<path d="M9.50868 23.4685C9.38695 23.5513 9.24366 23.5968 9.09644 23.5992C8.99794 23.5993 8.90039 23.58 8.80939 23.5422C8.7184 23.5045 8.63575 23.4492 8.56619 23.3795L6.86744 21.6815C6.73082 21.54 6.65523 21.3506 6.65694 21.1539C6.65865 20.9573 6.73752 20.7692 6.87658 20.6301C7.01564 20.491 7.20374 20.4122 7.40039 20.4105C7.59704 20.4088 7.78649 20.4843 7.92794 20.621L9.62669 22.319C9.72906 22.4248 9.79827 22.5582 9.82579 22.7029C9.85332 22.8475 9.83797 22.997 9.78163 23.1331C9.72529 23.2691 9.63041 23.3857 9.50868 23.4685Z" fill="white"/>
<path d="M5.16419 29.0052L1.18619 27.3575C1.00668 27.2785 0.865247 27.1323 0.792215 26.9503C0.719184 26.7682 0.720362 26.5648 0.795497 26.3837C0.870632 26.2025 1.01375 26.058 1.19417 25.9811C1.37459 25.9042 1.57796 25.901 1.76069 25.9722L5.73794 27.62C5.91599 27.6998 6.0559 27.846 6.12796 28.0273C6.20002 28.2087 6.19856 28.411 6.12388 28.5913C6.04921 28.7716 5.9072 28.9156 5.72802 28.9929C5.54883 29.0702 5.34658 29.0746 5.16419 29.0052Z" fill="white"/>
<path d="M36.2631 29.0048C36.0795 28.9287 35.9335 28.783 35.8572 28.5995C35.7812 28.4158 35.7812 28.2094 35.8573 28.0257C35.9334 27.8421 36.0793 27.6961 36.2629 27.62L40.2402 25.9722C40.3316 25.932 40.4301 25.9104 40.5299 25.9088C40.6297 25.9071 40.7289 25.9254 40.8216 25.9626C40.9142 25.9998 40.9985 26.0551 41.0695 26.1253C41.1405 26.1955 41.1968 26.2791 41.2351 26.3714C41.2733 26.4636 41.2928 26.5625 41.2923 26.6624C41.2918 26.7622 41.2714 26.861 41.2322 26.9528C41.1931 27.0446 41.136 27.1278 41.0643 27.1972C40.9926 27.2667 40.9077 27.3212 40.8147 27.3575L36.8367 29.0052C36.653 29.081 36.4467 29.0809 36.2631 29.0048Z" fill="white"/>
<path d="M32.3742 22.319L34.0729 20.621C34.2144 20.4843 34.4038 20.4088 34.6005 20.4105C34.7971 20.4122 34.9852 20.491 35.1243 20.6301C35.2634 20.7692 35.3422 20.9573 35.3439 21.1539C35.3457 21.3506 35.2701 21.54 35.1334 21.6815L33.4347 23.3795C33.3655 23.4511 33.2827 23.5082 33.1912 23.5475C33.0997 23.5868 33.0013 23.6075 32.9017 23.6084C32.8022 23.6093 32.7034 23.5903 32.6112 23.5526C32.5191 23.5149 32.4353 23.4592 32.3649 23.3888C32.2945 23.3183 32.2388 23.2346 32.2011 23.1424C32.1634 23.0503 32.1444 22.9515 32.1453 22.8519C32.1461 22.7523 32.1668 22.6539 32.2061 22.5624C32.2454 22.4709 32.3026 22.3882 32.3742 22.319Z" fill="white"/>
<path d="M27.7283 19.8971C27.5445 19.9732 27.338 19.9732 27.1542 19.8972C27.0632 19.8595 26.9805 19.8042 26.9108 19.7346C26.8412 19.6649 26.7859 19.5822 26.7482 19.4912C26.7106 19.4001 26.6912 19.3026 26.6912 19.204C26.6913 19.1055 26.7107 19.008 26.7484 18.917L28.3954 14.9397C28.4715 14.7559 28.6175 14.6099 28.8013 14.5337C28.985 14.4576 29.1915 14.4575 29.3753 14.5336C29.4663 14.5713 29.549 14.6265 29.6187 14.6961C29.6883 14.7658 29.7436 14.8484 29.7813 14.9394C29.8575 15.1232 29.8575 15.3297 29.7814 15.5135L28.1344 19.4915C28.0581 19.6752 27.9121 19.8211 27.7283 19.8971Z" fill="white"/>
</g>
<path id="Vector_3" d="M8.3563 32.5917C8.55013 32.6362 8.75367 32.6019 8.92226 32.4964C9.09085 32.391 9.21072 32.2229 9.25555 32.0292C12.2181 19.6452 29.7846 19.6505 32.7441 32.0292C32.7887 32.2231 32.9086 32.3914 33.0773 32.497C33.246 32.6025 33.4497 32.6367 33.6437 32.5921C33.8376 32.5474 34.0059 32.4276 34.1114 32.2588C34.217 32.0901 34.2512 31.8864 34.2066 31.6925C30.8751 17.765 11.1216 17.7702 7.7938 31.6925C7.77158 31.7885 7.7685 31.888 7.78475 31.9852C7.80099 32.0824 7.83625 32.1755 7.88849 32.2591C7.94073 32.3426 8.00894 32.4151 8.08921 32.4723C8.16948 32.5295 8.26024 32.5696 8.3563 32.5917ZM16.0753 2.49421C16.9129 2.47535 17.744 2.64427 18.5078 2.98858C19.2716 3.33289 19.9485 3.84385 20.4891 4.48395C20.5842 4.58308 20.7045 4.65438 20.8372 4.69018C20.9698 4.72597 21.1097 4.72491 21.2418 4.68711C21.3739 4.64931 21.4931 4.57619 21.5868 4.47564C21.6804 4.37508 21.7448 4.2509 21.7731 4.11646C21.7768 4.09621 22.2193 2.03746 23.6563 1.57471C23.8407 1.50985 23.9925 1.37558 24.0793 1.20048C24.1662 1.02538 24.1813 0.823281 24.1213 0.637232C24.0614 0.451184 23.9312 0.295883 23.7585 0.204402C23.5857 0.11292 23.3841 0.0924881 23.1966 0.147456C22.6285 0.362193 22.1122 0.694558 21.6815 1.12277C21.2508 1.55097 20.9155 2.06536 20.6976 2.63221C19.3635 1.49208 17.6415 0.909751 15.8893 1.00621C15.6956 1.03509 15.5209 1.13859 15.4025 1.29459C15.2841 1.45058 15.2314 1.6467 15.2557 1.84103C15.28 2.03536 15.3793 2.21247 15.5325 2.33453C15.6856 2.45658 15.8805 2.51389 16.0753 2.49421ZM30.9681 9.41895C31.8069 9.39735 32.6398 9.56501 33.405 9.90948C34.1701 10.254 34.8479 10.7664 35.3878 11.4087C35.483 11.5072 35.6031 11.5779 35.7354 11.6134C35.8677 11.6489 36.0071 11.6478 36.1388 11.6102C36.2705 11.5726 36.3895 11.5 36.4831 11.4C36.5767 11.3001 36.6414 11.1766 36.6703 11.0427C36.6748 11.0225 37.1076 8.96446 38.5543 8.4987C38.7387 8.43385 38.8905 8.29958 38.9773 8.12448C39.0642 7.94937 39.0793 7.74728 39.0193 7.56123C38.9594 7.37518 38.8292 7.21988 38.6565 7.1284C38.4837 7.03692 38.2821 7.01649 38.0946 7.07145C37.5265 7.28632 37.0103 7.61873 36.5797 8.04692C36.149 8.47511 35.8137 8.98943 35.5956 9.5562C34.2615 8.41608 32.5395 7.83375 30.7873 7.9302C30.593 7.95786 30.4173 8.06056 30.2979 8.21627C30.1785 8.37199 30.1248 8.56831 30.1485 8.76311C30.1721 8.95792 30.2712 9.1357 30.4244 9.25831C30.5776 9.38092 30.7728 9.43859 30.9681 9.41895ZM2.0473 9.4947C3.4948 9.9597 3.9268 12.0177 3.93055 12.0372C3.95893 12.1716 4.02342 12.2957 4.11707 12.3962C4.21073 12.4966 4.33001 12.5696 4.46208 12.6074C4.59414 12.6451 4.73399 12.6461 4.86658 12.6102C4.99917 12.5744 5.11948 12.5031 5.21455 12.404C5.75435 11.7617 6.43195 11.2494 7.197 10.905C7.96204 10.5607 8.79486 10.3932 9.63355 10.415C9.83107 10.439 10.0301 10.3836 10.1867 10.261C10.3434 10.1383 10.445 9.95847 10.4691 9.76095C10.4931 9.56343 10.4377 9.36444 10.3151 9.20776C10.1924 9.05107 10.0126 8.94952 9.81505 8.92546C8.06288 8.82923 6.34095 9.41153 5.0068 10.5515C4.78873 9.98465 4.45339 9.47031 4.02274 9.04212C3.59209 8.61392 3.07584 8.28153 2.5078 8.06671C2.41404 8.03652 2.31525 8.02509 2.21707 8.03309C2.11889 8.04108 2.02324 8.06833 1.9356 8.11328C1.75859 8.20408 1.62489 8.36147 1.56393 8.55083C1.50296 8.74019 1.51971 8.94602 1.6105 9.12303C1.7013 9.30004 1.85794 9.43374 2.0473 9.4947Z" fill="#FFF1BF"/>
<path id="Subtract" d="M21.0004 23.9961C11.8517 23.9961 10.2058 32.6786 10.2058 32.6786C11.3491 32.0927 11.9966 31.6965 13.7032 32.0105C15.4098 32.3245 15.6656 33.4301 18.4631 33.4301C21.2606 33.4301 21.0518 32.0105 24.3503 32.0105C27.6488 32.0105 29.1937 34.5575 31.8236 32.6786C31.8236 32.6786 30.1492 23.9961 21.0004 23.9961Z" fill="#F5C150"/>
</g>
</svg>
