<svg width="42" height="42" viewBox="0 0 42 42" fill="none" xmlns="http://www.w3.org/2000/svg">
<path fill-rule="evenodd" clip-rule="evenodd" d="M36.7351 21.8242C36.3027 21.8019 35.9722 21.4331 35.9722 21C35.9722 20.5669 36.3027 20.1981 36.7351 20.1758L38.3921 20.0904C38.9213 20.0631 39.375 20.4701 39.375 21C39.375 21.5299 38.9213 21.9369 38.3921 21.9096L36.7351 21.8242ZM33.968 13.5118C34.1848 13.8865 34.6558 14.0417 35.0414 13.8448L36.5167 13.0916C36.9901 12.8499 37.1794 12.2674 36.9132 11.8074C36.6469 11.3474 36.0493 11.2238 35.6038 11.5136L34.2154 12.4171C33.8525 12.6532 33.7511 13.137 33.968 13.5118ZM28.4882 8.03203C28.863 8.2489 29.3468 8.1475 29.5829 7.78458L30.4864 6.39623C30.7762 5.95074 30.6526 5.35305 30.1926 5.08684C29.7326 4.82063 29.1501 5.00993 28.9084 5.4833L28.1552 6.95858C27.9583 7.34421 28.1135 7.81516 28.4882 8.03203ZM21 6.02778C21.4331 6.02778 21.8019 5.69734 21.8242 5.26486L21.9096 3.60786C21.9369 3.07867 21.5299 2.625 21 2.625C20.4701 2.625 20.0631 3.07867 20.0904 3.60787L20.1758 5.26485C20.1981 5.69734 20.5669 6.02778 21 6.02778ZM13.5118 8.03203C13.8865 7.81516 14.0417 7.34421 13.8448 6.95858L13.0916 5.4833C12.8499 5.00993 12.2674 4.82063 11.8074 5.08684C11.3474 5.35305 11.2238 5.95075 11.5136 6.39623L12.4171 7.78459C12.6532 8.1475 13.137 8.2489 13.5118 8.03203ZM8.03203 13.5118C8.2489 13.137 8.1475 12.6532 7.78458 12.4171L6.39623 11.5136C5.95074 11.2238 5.35305 11.3474 5.08684 11.8074C4.82063 12.2674 5.00993 12.8499 5.4833 13.0916L6.95858 13.8448C7.34421 14.0417 7.81516 13.8865 8.03203 13.5118ZM5.26486 20.1758C5.69734 20.1981 6.02778 20.5669 6.02778 21C6.02778 21.4331 5.69734 21.8019 5.26485 21.8242L3.60787 21.9096C3.07867 21.9369 2.625 21.5299 2.625 21C2.625 20.4701 3.07867 20.0631 3.60786 20.0904L5.26486 20.1758ZM8.03203 28.4882C7.81516 28.1135 7.34421 27.9583 6.95858 28.1552L5.4833 28.9084C5.00993 29.1501 4.82063 29.7326 5.08684 30.1926C5.35305 30.6526 5.95075 30.7762 6.39623 30.4864L7.78459 29.5829C8.1475 29.3468 8.2489 28.863 8.03203 28.4882ZM13.5118 33.968C13.137 33.7511 12.6532 33.8525 12.4171 34.2154L11.5136 35.6038C11.2238 36.0493 11.3474 36.6469 11.8074 36.9132C12.2674 37.1794 12.8499 36.9901 13.0916 36.5167L13.8448 35.0414C14.0417 34.6558 13.8865 34.1848 13.5118 33.968ZM21 35.9722C20.5669 35.9722 20.1981 36.3027 20.1758 36.7351L20.0904 38.3921C20.0631 38.9213 20.4701 39.375 21 39.375C21.5299 39.375 21.9369 38.9213 21.9096 38.3921L21.8242 36.7351C21.8019 36.3027 21.4331 35.9722 21 35.9722ZM28.4882 33.968C28.1135 34.1848 27.9583 34.6558 28.1552 35.0414L28.9084 36.5167C29.1501 36.9901 29.7326 37.1794 30.1926 36.9132C30.6526 36.6469 30.7762 36.0493 30.4864 35.6038L29.5829 34.2154C29.3468 33.8525 28.863 33.7511 28.4882 33.968ZM33.968 28.4882C33.7511 28.863 33.8525 29.3468 34.2154 29.5829L35.6038 30.4864C36.0493 30.7762 36.6469 30.6526 36.9132 30.1926C37.1794 29.7326 36.9901 29.1501 36.5167 28.9084L35.0414 28.1552C34.6558 27.9583 34.1848 28.1135 33.968 28.4882Z" fill="#FFD400"/>
<path d="M33.5902 21.0004C33.5902 27.9539 27.9534 33.5907 20.9999 33.5907C14.0465 33.5907 8.40967 27.9539 8.40967 21.0004C8.40967 14.047 14.0465 8.41016 20.9999 8.41016C27.9534 8.41016 33.5902 14.047 33.5902 21.0004Z" fill="#FFD400"/>
</svg>
