<svg width="20" height="21" viewBox="0 0 20 21" fill="none" xmlns="http://www.w3.org/2000/svg">
<path d="M2.5 4.35954C2.5 3.43906 3.24619 2.69287 4.16667 2.69287H6.89937C7.25806 2.69287 7.57651 2.9224 7.68994 3.26268L8.93811 7.00721C9.06926 7.40064 8.89115 7.83063 8.52022 8.01609L6.63917 8.95662C7.55771 10.9939 9.19898 12.6352 11.2363 13.5537L12.1768 11.6726C12.3622 11.3017 12.7922 11.1236 13.1857 11.2548L16.9302 12.5029C17.2705 12.6164 17.5 12.9348 17.5 13.2935V16.0262C17.5 16.9467 16.7538 17.6929 15.8333 17.6929H15C8.09644 17.6929 2.5 12.0964 2.5 5.19287V4.35954Z" stroke="#1E293B" stroke-linecap="round" stroke-linejoin="round"/>
</svg>
