<svg width="20" height="20" viewBox="0 0 20 20" fill="none" xmlns="http://www.w3.org/2000/svg">
<g id="Icon/Outline/user-group">
<path id="Icon" d="M14.1667 16.6663H18.3334V14.9997C18.3334 13.619 17.2141 12.4997 15.8334 12.4997C15.0371 12.4997 14.3277 12.872 13.8699 13.4521M14.1667 16.6663H5.83341M14.1667 16.6663V14.9997C14.1667 14.4528 14.0614 13.9305 13.8699 13.4521M5.83341 16.6663H1.66675V14.9997C1.66675 13.619 2.78604 12.4997 4.16675 12.4997C4.96309 12.4997 5.67246 12.872 6.13029 13.4521M5.83341 16.6663V14.9997C5.83341 14.4528 5.93877 13.9305 6.13029 13.4521M6.13029 13.4521C6.74467 11.9172 8.24576 10.833 10.0001 10.833C11.7544 10.833 13.2555 11.9172 13.8699 13.4521M12.5001 5.83301C12.5001 7.21372 11.3808 8.33301 10.0001 8.33301C8.61937 8.33301 7.50008 7.21372 7.50008 5.83301C7.50008 4.4523 8.61937 3.33301 10.0001 3.33301C11.3808 3.33301 12.5001 4.4523 12.5001 5.83301ZM17.5001 8.33301C17.5001 9.25348 16.7539 9.99967 15.8334 9.99967C14.9129 9.99967 14.1667 9.25348 14.1667 8.33301C14.1667 7.41253 14.9129 6.66634 15.8334 6.66634C16.7539 6.66634 17.5001 7.41253 17.5001 8.33301ZM5.83341 8.33301C5.83341 9.25348 5.08722 9.99967 4.16675 9.99967C3.24627 9.99967 2.50008 9.25348 2.50008 8.33301C2.50008 7.41253 3.24627 6.66634 4.16675 6.66634C5.08722 6.66634 5.83341 7.41253 5.83341 8.33301Z" stroke="white" stroke-width="1.5" stroke-linecap="round" stroke-linejoin="round"/>
</g>
</svg>
