<svg width="57" height="56" viewBox="0 0 57 56" fill="none" xmlns="http://www.w3.org/2000/svg">
<path d="M41.2249 0H9.8999C7.9749 0 6.3999 1.575 6.3999 3.5V52.5C6.3999 54.425 7.9749 56 9.8999 56H48.3999C50.3249 56 51.8999 54.425 51.8999 52.5V9.7125L41.2249 0ZM42.2749 5.6875L45.5999 8.75H42.2749V5.6875ZM9.8999 52.5V3.5H38.7749V12.25H48.3999V52.5H9.8999Z" fill="#8080FF"/>
<path d="M27.3999 11C27.2878 11.0007 27.176 11.0127 27.0662 11.0358L27.0646 11.0342L18.7834 12.6911L18.7573 12.696L18.7557 12.6976C18.3747 12.7699 18.0309 12.9729 17.7834 13.2714C17.5359 13.57 17.4003 13.9455 17.3999 14.3333V27.6667C17.4 28.055 17.5357 28.4311 17.7835 28.73C18.0313 29.029 18.3758 29.232 18.7573 29.304L27.0581 30.9642L27.0646 30.9658C27.1749 30.9885 27.2873 31 27.3999 31C27.8419 31 28.2659 30.8244 28.5784 30.5118C28.891 30.1993 29.0666 29.7754 29.0666 29.3333V12.6667C29.0666 12.2246 28.891 11.8007 28.5784 11.4882C28.2659 11.1756 27.8419 11 27.3999 11ZM30.7332 12.6667V15.1667H34.0666C34.5266 15.1667 34.8999 15.54 34.8999 16C34.8999 16.46 34.5266 16.8333 34.0666 16.8333H30.7332V18.5H34.0666C34.5266 18.5 34.8999 18.8733 34.8999 19.3333C34.8999 19.7933 34.5266 20.1667 34.0666 20.1667H30.7332V21.8333H34.0666C34.5266 21.8333 34.8999 22.2067 34.8999 22.6667C34.8999 23.1267 34.5266 23.5 34.0666 23.5H30.7332V25.1667H34.0666C34.5266 25.1667 34.8999 25.54 34.8999 26C34.8999 26.46 34.5266 26.8333 34.0666 26.8333H30.7332V29.3333H35.7332C36.6541 29.3333 37.3999 28.5875 37.3999 27.6667V14.3333C37.3999 13.4125 36.6541 12.6667 35.7332 12.6667H30.7332ZM19.2863 16.8333H20.8358L21.6187 22.3607H21.6919L22.631 16.8333H23.8273L24.8006 22.3607H24.8739L25.6421 16.8333H27.1802L25.647 25.1667H24.2472L23.2658 20.0609H23.1925L22.229 25.1667H20.8195L19.2863 16.8333Z" fill="#8080FF"/>
<path d="M14.3056 47L12.2266 39.74H14.6466L15.6696 45.218L16.8136 39.74H18.7936L19.9926 45.185L20.9936 39.74H23.3256L21.2466 47H18.8266L18.1226 43.898L17.8256 42.083H17.7926L17.4956 43.898L16.7916 47H14.3056ZM27.1776 39.63C27.933 39.63 28.5783 39.7803 29.1136 40.081C29.6563 40.3743 30.0706 40.7997 30.3566 41.357C30.65 41.9143 30.7966 42.5853 30.7966 43.37C30.7966 44.1547 30.65 44.8257 30.3566 45.383C30.0706 45.9403 29.6563 46.3693 29.1136 46.67C28.5783 46.9633 27.933 47.11 27.1776 47.11C26.4296 47.11 25.7806 46.9633 25.2306 46.67C24.688 46.3693 24.27 45.9403 23.9766 45.383C23.6833 44.8257 23.5366 44.1547 23.5366 43.37C23.5366 42.5853 23.6833 41.9143 23.9766 41.357C24.27 40.7997 24.688 40.3743 25.2306 40.081C25.7806 39.7803 26.4296 39.63 27.1776 39.63ZM27.1776 41.346C26.877 41.346 26.6276 41.423 26.4296 41.577C26.239 41.7237 26.0923 41.9437 25.9896 42.237C25.8943 42.5303 25.8466 42.908 25.8466 43.37C25.8466 43.8247 25.8943 44.2023 25.9896 44.503C26.0923 44.7963 26.239 45.02 26.4296 45.174C26.6276 45.3207 26.877 45.394 27.1776 45.394C27.471 45.394 27.7166 45.3207 27.9146 45.174C28.1126 45.02 28.2593 44.7963 28.3546 44.503C28.45 44.2023 28.4976 43.8247 28.4976 43.37C28.4976 42.908 28.45 42.5303 28.3546 42.237C28.2593 41.9437 28.1126 41.7237 27.9146 41.577C27.7166 41.423 27.471 41.346 27.1776 41.346ZM35.597 39.74C36.499 39.74 37.1957 39.949 37.687 40.367C38.1857 40.7777 38.435 41.3277 38.435 42.017C38.435 42.787 38.193 43.37 37.709 43.766C37.225 44.162 36.5283 44.36 35.619 44.36L35.399 44.481H34.079V47H31.879V39.74H35.597ZM35.234 42.952C35.5493 42.952 35.784 42.8933 35.938 42.776C36.0993 42.6513 36.18 42.4497 36.18 42.171C36.18 41.8923 36.0993 41.6907 35.938 41.566C35.784 41.4413 35.5493 41.379 35.234 41.379H34.079V42.952H35.234ZM36.565 43.425L38.853 47H36.4L34.629 43.821L36.565 43.425ZM42.8927 39.74C44.0293 39.74 44.8947 40.0553 45.4887 40.686C46.0827 41.3167 46.3797 42.2113 46.3797 43.37C46.3797 44.5213 46.0827 45.416 45.4887 46.054C44.8947 46.6847 44.0293 47 42.8927 47H39.5597V39.74H42.8927ZM42.6177 45.361C43.1603 45.361 43.538 45.1997 43.7507 44.877C43.9633 44.547 44.0697 44.0447 44.0697 43.37C44.0697 42.6953 43.9633 42.1967 43.7507 41.874C43.538 41.544 43.1603 41.379 42.6177 41.379H41.8037V45.361H42.6177Z" fill="#8080FF"/>
</svg>
