<svg width="50" height="32" viewBox="0 0 50 32" fill="none" xmlns="http://www.w3.org/2000/svg">
<g clip-path="url(#clip0_19065_209023)">
<g clip-path="url(#clip1_19065_209023)">
<path d="M24.5976 24.9508C24.616 24.9674 24.6456 24.9656 24.664 24.9471L24.9961 24.5679C25.0127 24.5494 25.0109 24.5217 24.9943 24.5032L24.8116 24.3237C24.795 24.3071 24.7655 24.3052 24.7489 24.3237L24.3706 24.6641C24.3706 24.6641 24.3688 24.6659 24.367 24.6678C24.3485 24.6863 24.3503 24.7159 24.3688 24.7344L24.5976 24.9526V24.9508Z" fill="#5E1AD5"/>
<path d="M25.6994 25.1704L25.5924 25.0705C25.5721 25.052 25.5407 25.052 25.5205 25.0705L25.1478 25.4164C25.1275 25.4368 25.1256 25.4701 25.1478 25.4923L25.2806 25.6291C25.2806 25.6291 25.2806 25.6291 25.2824 25.631C25.3046 25.6513 25.3378 25.6495 25.3581 25.6273L25.7068 25.2444C25.7252 25.2222 25.7252 25.1889 25.7031 25.1704H25.6994Z" fill="#5E1AD5"/>
<path d="M26.3598 25.7786C26.3118 25.7305 26.2122 25.749 26.1384 25.8229L25.8487 26.1115C25.8284 26.1318 25.8284 26.1651 25.8487 26.1855L25.9779 26.3168C25.9982 26.3372 26.0314 26.3372 26.0535 26.3168L26.3432 26.0283C26.417 25.9543 26.4373 25.8544 26.3893 25.8063L26.3616 25.7786H26.3598Z" fill="#5E1AD5"/>
<path d="M24.1404 25.4105L23.8803 25.1109C23.8655 25.0942 23.8397 25.0905 23.8212 25.1035L23.3766 25.4272C23.3766 25.4272 23.3766 25.4272 23.3748 25.429C23.3563 25.4457 23.3545 25.4734 23.3692 25.4919L23.657 25.8323C23.6736 25.8508 23.7013 25.8526 23.7198 25.836L24.1367 25.4716C24.1552 25.4549 24.157 25.4272 24.1404 25.4087V25.4105Z" fill="#5E1AD5"/>
<path d="M27.1883 26.5928L27.0186 26.4208C27.0002 26.4023 26.9688 26.4005 26.9503 26.4208L26.55 26.8074C26.5315 26.8259 26.5315 26.8574 26.55 26.8777L26.74 27.0682C26.7603 27.0867 26.7917 27.0849 26.8101 27.0645L27.1902 26.6613C27.2086 26.6428 27.2086 26.6113 27.1902 26.5928H27.1883Z" fill="#5E1AD5"/>
<path d="M24.2747 26.5942C24.2747 26.5942 24.295 26.6053 24.3042 26.5979L24.7969 26.2039C24.7969 26.2039 24.8079 26.1835 24.8006 26.1743L24.5791 25.895C24.5718 25.8857 24.5589 25.8839 24.5496 25.8913L24.057 26.2853C24.057 26.2853 24.0459 26.3056 24.0533 26.3149L24.2747 26.5942Z" fill="#5E1AD5"/>
<path d="M25.191 26.6518L24.7165 27.0373C24.6967 27.0534 24.6937 27.0825 24.7097 27.1023L24.8898 27.3251C24.9058 27.3449 24.9348 27.348 24.9546 27.3319L25.4291 26.9464C25.4489 26.9303 25.4519 26.9012 25.4359 26.8814L25.2558 26.6586C25.2398 26.6388 25.2108 26.6357 25.191 26.6518Z" fill="#5E1AD5"/>
<path d="M22.7177 26.5608C22.7288 26.5774 22.751 26.5811 22.7676 26.5682L23.2067 26.2519C23.2233 26.2408 23.227 26.2186 23.2159 26.2019L22.9133 25.7765C22.9022 25.7617 22.8838 25.758 22.8672 25.7654L22.4041 26.0207C22.4041 26.0207 22.4041 26.0207 22.4022 26.0207C22.3856 26.0318 22.3819 26.054 22.3912 26.0706L22.7159 26.5571L22.7177 26.5608Z" fill="#5E1AD5"/>
<path d="M25.8524 27.3954L25.3481 27.823C25.3333 27.8355 25.3314 27.8577 25.3439 27.8725L25.5882 28.1621C25.6007 28.1769 25.6228 28.1788 25.6376 28.1662L26.1419 27.7386C26.1567 27.7261 26.1585 27.7039 26.146 27.6891L25.9018 27.3996C25.8893 27.3847 25.8672 27.3829 25.8524 27.3954Z" fill="#5E1AD5"/>
<path d="M23.2343 27.3338C23.2546 27.3616 23.2933 27.3689 23.321 27.3505L23.7564 27.0508C23.7564 27.0508 23.7564 27.0508 23.7583 27.0508C23.7859 27.0305 23.7915 26.9916 23.7712 26.9639L23.5479 26.6642C23.5295 26.6383 23.4944 26.6309 23.4667 26.6476L23.0239 26.9047C23.0239 26.9047 23.0221 26.9047 23.0202 26.9065C22.9907 26.925 22.9833 26.9639 23.0036 26.9935L23.2343 27.3357V27.3338Z" fill="#5E1AD5"/>
<path d="M21.6384 27.1967C21.6495 27.2171 21.6735 27.2226 21.6937 27.2134L22.1384 26.9655C22.1568 26.9544 22.1642 26.9285 22.1532 26.91L21.8377 26.3644C21.8266 26.3459 21.8045 26.3385 21.786 26.3477L21.3543 26.5586C21.334 26.5697 21.3266 26.5937 21.3377 26.6122L21.6402 27.1949L21.6384 27.1967Z" fill="#5E1AD5"/>
<path d="M24.3652 27.8073L24.1235 27.4392C24.1179 27.4299 24.105 27.4262 24.0958 27.4336L23.5607 27.7851C23.5515 27.7906 23.5478 27.8036 23.5552 27.8128L23.7969 28.1809C23.8024 28.1902 23.8153 28.1939 23.8246 28.1865L24.3596 27.835C24.3688 27.8295 24.3725 27.8165 24.3652 27.8073Z" fill="#5E1AD5"/>
<path d="M22.074 28.0278C22.0906 28.0574 22.1275 28.0666 22.1571 28.05L22.6073 27.7984C22.6368 27.7818 22.646 27.7448 22.6294 27.7152L22.3766 27.286C22.3619 27.2601 22.3287 27.249 22.301 27.2601L21.8434 27.4544C21.8434 27.4544 21.8397 27.4544 21.8379 27.4562C21.8084 27.4729 21.7973 27.5099 21.8139 27.5395L22.0722 28.0278H22.074Z" fill="#5E1AD5"/>
<path d="M24.7379 28.2914C24.7231 28.271 24.6973 28.2655 24.677 28.2785L24.1364 28.6058C24.1142 28.6206 24.1087 28.6502 24.1235 28.6706L24.3892 29.0664C24.4039 29.0886 24.4334 29.0923 24.4537 29.0794L24.9814 28.7076C25.0017 28.6928 25.0072 28.6632 24.9925 28.6428L24.7397 28.2895L24.7379 28.2914Z" fill="#5E1AD5"/>
<path d="M20.5074 27.6855C20.5222 27.7207 20.5628 27.7373 20.5979 27.7207L21.0683 27.5172C21.1034 27.5006 21.1182 27.4599 21.1015 27.4247L20.8377 26.855C20.8229 26.8217 20.7824 26.8051 20.7491 26.8199L20.3045 27.0104C20.2694 27.0252 20.2528 27.064 20.2676 27.0992L20.5056 27.6819L20.5074 27.6855Z" fill="#5E1AD5"/>
<path d="M22.8314 28.1296L22.3188 28.4042C22.2946 28.4172 22.2854 28.4475 22.2984 28.4718L22.5349 28.9155C22.5479 28.9398 22.5781 28.949 22.6023 28.936L23.1149 28.6614C23.1392 28.6484 23.1483 28.6181 23.1354 28.5938L22.8988 28.1501C22.8859 28.1258 22.8557 28.1166 22.8314 28.1296Z" fill="#5E1AD5"/>
<path d="M20.8525 28.5925C20.8617 28.6147 20.8857 28.6239 20.9078 28.6165L21.4909 28.3724C21.513 28.3631 21.5222 28.3372 21.5112 28.315L21.2418 27.7268C21.2326 27.7065 21.2104 27.6972 21.1901 27.7028L20.6219 27.8859C20.6219 27.8859 20.6219 27.8859 20.62 27.8859C20.5979 27.8951 20.5868 27.9192 20.596 27.9414L20.8506 28.5906L20.8525 28.5925Z" fill="#5E1AD5"/>
<path d="M19.7527 27.2208L19.19 27.3928C19.166 27.4002 19.1513 27.4261 19.1586 27.4502L19.583 29.0021C19.5904 29.0261 19.6162 29.0409 19.6402 29.0335L20.3062 28.8393C20.3062 28.8393 20.3063 28.8393 20.3081 28.8393C20.3321 28.8301 20.345 28.8042 20.3358 28.7801L19.8063 27.2504C19.7989 27.2264 19.773 27.2134 19.7491 27.2208H19.7527Z" fill="#5E1AD5"/>
<path d="M23.4152 29.0507C23.4079 29.0378 23.3931 29.0341 23.3802 29.0396L22.7732 29.3189C22.7602 29.3263 22.7547 29.343 22.7621 29.3559L23.0628 29.9164C23.0702 29.9293 23.0868 29.9349 23.0997 29.9275L23.6975 29.5853C23.7104 29.5779 23.716 29.5612 23.7086 29.5483L23.4171 29.0489L23.4152 29.0507Z" fill="#5E1AD5"/>
<path d="M21.9113 29.2965C21.9334 29.2872 21.9427 29.2613 21.9334 29.2392L21.6843 28.6787C21.6751 28.6583 21.653 28.6472 21.6308 28.6546L21.0091 28.86C21.0091 28.86 21.0091 28.86 21.0072 28.86C20.9851 28.8692 20.974 28.8933 20.9832 28.9173L21.2231 29.5388C21.2323 29.561 21.2581 29.5721 21.2803 29.5629L21.9113 29.2965Z" fill="#5E1AD5"/>
<path d="M19.3448 30.1917C19.3707 30.1861 19.3854 30.1602 19.3799 30.1343L18.7563 27.5577C18.7507 27.5337 18.7249 27.517 18.7009 27.5226L18.057 27.6594C18.0312 27.665 18.0146 27.689 18.0201 27.7149L18.4629 30.3267C18.4684 30.3526 18.4924 30.3693 18.5183 30.3637L19.3448 30.1917Z" fill="#5E1AD5"/>
<path d="M17.6161 27.7285L16.9095 27.8007C16.8781 27.8044 16.8541 27.8321 16.8578 27.8635L17.1235 31.7239C17.1235 31.7239 17.1235 31.7257 17.1235 31.7276C17.1272 31.759 17.1567 31.7831 17.1899 31.7775L18.1844 31.6536C18.2157 31.6499 18.2379 31.6185 18.2342 31.587L17.6788 27.7803C17.6751 27.7489 17.6475 27.7267 17.6161 27.7304V27.7285Z" fill="#5E1AD5"/>
<path d="M22.1294 29.6476C22.1201 29.6255 22.0943 29.6162 22.0722 29.6236L21.4006 29.8696C21.3784 29.8789 21.3655 29.9048 21.3766 29.9288L21.6349 30.5873C21.6441 30.6095 21.6718 30.6206 21.6939 30.6113L22.3821 30.3117C22.4043 30.3006 22.4153 30.2747 22.4043 30.2525L22.1294 29.6476Z" fill="#5E1AD5"/>
<path d="M20.6401 29.8055C20.6659 29.7962 20.6789 29.7685 20.6715 29.7426L20.4445 29.0638C20.4372 29.0397 20.4113 29.0249 20.3873 29.0305L19.6862 29.1877C19.6604 29.1951 19.6438 29.2228 19.6512 29.2487L19.8597 30.0034C19.8597 30.0034 19.8597 30.0034 19.8597 30.0053C19.8689 30.0312 19.8947 30.046 19.9205 30.0367L20.6401 29.8055Z" fill="#5E1AD5"/>
<path d="M20.7456 30.0714L19.9854 30.2674C19.9578 30.2748 19.9412 30.3026 19.9485 30.3303L20.1589 31.1183C20.1589 31.1183 20.1589 31.1183 20.1589 31.1202C20.1681 31.1479 20.1976 31.1609 20.2234 31.1535L21.0131 30.8945C21.0389 30.8852 21.0537 30.8575 21.0463 30.8298L20.8083 30.1047C20.8009 30.0788 20.7733 30.064 20.7456 30.0695V30.0714Z" fill="#5E1AD5"/>
<path d="M19.402 30.3791L18.5349 30.5085C18.509 30.5122 18.4924 30.5381 18.4961 30.564L18.6548 31.5074C18.6548 31.5074 18.6548 31.5092 18.6548 31.5111C18.6603 31.537 18.6862 31.5518 18.712 31.5462L19.6216 31.3354C19.6474 31.3298 19.6622 31.3039 19.6566 31.278L19.4537 30.4161C19.4481 30.392 19.426 30.3772 19.402 30.3791Z" fill="#5E1AD5"/>
<path d="M16.5076 27.8279C14.6939 27.9093 12.9596 27.593 11.3028 26.8753C7.05003 25.033 4.28804 20.8656 4.13306 16.245C4.04634 12.0148 6.14782 8.12666 9.71055 5.91071C12.9006 3.92412 16.9486 3.54677 20.4338 5.01544C21.7751 5.58146 22.9725 6.36203 23.9891 7.31278L26.9061 4.59741C25.36 3.10469 23.4873 1.90978 21.3637 1.1144C15.8637 -0.946175 9.54081 0.344923 5.24007 4.33845C2.42272 6.95394 0.647819 10.4943 0.24376 14.362C-0.239635 19.3174 1.6552 24.3653 5.33417 27.6615C8.55372 30.547 12.3434 31.9324 16.7032 31.8178C16.705 31.8178 16.7069 31.8178 16.7069 31.8159C16.7622 31.8141 16.8028 31.766 16.7991 31.7123L16.5703 27.8871C16.5685 27.8464 16.5482 27.8261 16.5076 27.8279ZM1.86553 15.2554V15.2517L1.86922 15.2499C1.86922 15.2517 1.86553 15.2536 1.86553 15.2554Z" fill="#5E1AD5"/>
<path d="M47.4762 8.29732L48.192 8.29362C48.3175 8.29362 48.4208 8.19003 48.419 8.06425L48.4153 7.37986C48.4153 7.25408 48.3119 7.15234 48.1865 7.15234L47.4706 7.15604C47.3452 7.15604 47.2418 7.25963 47.2437 7.38541L47.2474 8.0698C47.2474 8.19558 47.3507 8.29732 47.4762 8.29732Z" fill="#000062"/>
<path d="M24.4501 12.0393H25.0608C25.1808 12.0393 25.2785 11.9413 25.2785 11.8229V11.2125C25.2785 11.0923 25.1808 10.9961 25.0608 10.9961H24.4501C24.3302 10.9961 24.2324 11.0941 24.2324 11.2125V11.8229C24.2324 11.9431 24.3302 12.0393 24.4501 12.0393Z" fill="#000062"/>
<path d="M25.058 12.6929L24.4528 12.6961C24.3306 12.6967 24.232 12.7966 24.2326 12.9192L24.2357 13.5204C24.2364 13.643 24.336 13.7418 24.4583 13.7412L25.0635 13.738C25.1857 13.7374 25.2843 13.6375 25.2837 13.5149L25.2806 12.9137C25.2799 12.7911 25.1803 12.6923 25.058 12.6929Z" fill="#000062"/>
<path d="M27.0498 17.5091C26.4852 17.4388 25.9428 17.5368 25.4243 17.8032C25.4096 17.8106 25.4022 17.8069 25.4022 17.7902V15.9997C25.4022 15.8332 25.3192 15.75 25.1513 15.75H24.3542C24.2509 15.75 24.166 15.8332 24.166 15.9368V22.5532C24.166 22.6735 24.2638 22.7715 24.3856 22.7715H25.1679C25.297 22.7715 25.4022 22.6661 25.4022 22.5366V18.8871C25.4022 18.8686 25.4096 18.8557 25.4262 18.8464C25.8671 18.5875 27.0516 18.2083 27.1715 19.0406C27.1918 19.1794 27.2029 19.3199 27.2029 19.4605C27.2121 20.5112 27.2195 21.547 27.2195 22.5662C27.2195 22.679 27.3099 22.7697 27.4225 22.7697H28.2177C28.3431 22.7697 28.4465 22.6679 28.4483 22.5421C28.4594 21.5285 28.4575 20.5056 28.4428 19.4753C28.4299 18.4931 28.1605 17.646 27.0498 17.5072V17.5091Z" fill="#000062"/>
<path d="M23.1032 15.9062H18.6438C18.5404 15.9062 18.4556 15.9895 18.4556 16.0931V16.8108C18.4556 16.9143 18.5404 16.9976 18.6438 16.9976H20.2231C20.2434 16.9976 20.2545 17.0087 20.2545 17.029V22.5689C20.2545 22.6817 20.3449 22.7724 20.4574 22.7724H21.3264C21.4519 22.7724 21.5534 22.6706 21.5534 22.5467V17.0309C21.5534 17.0105 21.5644 16.9994 21.5847 16.9994H23.1345C23.2563 16.9994 23.3541 16.9014 23.3541 16.7812V16.1578C23.3541 15.9913 23.2711 15.9081 23.1032 15.9081V15.9062Z" fill="#000062"/>
<path d="M40.0074 16.1288C40.0259 16.1066 40.0351 16.0789 40.0351 16.0493C40.0351 15.9772 39.9761 15.9198 39.906 15.9198H38.7528C38.6716 15.9198 38.5941 15.9587 38.5443 16.0234L36.3561 18.9533C36.334 18.9829 36.3229 18.9792 36.3229 18.9422V16.1214C36.3229 16.0086 36.2307 15.918 36.12 15.918H35.2048C35.1052 15.918 35.0259 15.9994 35.0259 16.0974V22.527C35.0259 22.6879 35.1071 22.7693 35.2676 22.7693H36.1126C36.2288 22.7693 36.3229 22.675 36.3229 22.5584V19.6026C36.3229 19.573 36.3322 19.5711 36.3488 19.5952C37.0333 20.594 37.7085 21.5984 38.3783 22.6065C38.4484 22.7138 38.5167 22.7693 38.6403 22.7711C39.072 22.773 39.4945 22.7711 39.9078 22.7674C39.9318 22.7674 39.9539 22.7601 39.9742 22.7453C40.0259 22.7083 40.0388 22.6361 40 22.5862L37.6237 19.2604C37.6089 19.2401 37.6089 19.2216 37.6237 19.2031L40.0074 16.127V16.1288Z" fill="#000062"/>
<path d="M32.2599 17.5506C31.3264 17.3472 30.2636 17.6376 29.7858 18.481C29.6308 18.7567 29.5293 19.1432 29.4832 19.6427C29.4389 20.1051 29.4426 20.5342 29.4906 20.9282C29.6013 21.8235 30.0385 22.408 30.8024 22.6817C31.116 22.7946 31.5275 22.8464 32.0348 22.839C32.5312 22.8316 33.0256 22.7816 33.5145 22.6873C33.6511 22.6614 33.7064 22.6151 33.7083 22.4746C33.7101 22.2785 33.7101 22.0843 33.7083 21.8864C33.7064 21.755 33.64 21.6644 33.5035 21.6792C32.8965 21.7421 32.3282 21.7735 31.7987 21.7717C31.0976 21.7698 30.6788 21.3315 30.7157 20.6082C30.7157 20.5934 30.7249 20.5879 30.7378 20.5879H33.771C33.7913 20.5879 33.8116 20.5805 33.8245 20.5657C33.8633 20.5231 33.8854 20.4639 33.8891 20.3862C33.9444 19.1136 33.6898 17.8632 32.2581 17.5525L32.2599 17.5506ZM32.6585 19.6945C32.6585 19.7074 32.6492 19.7167 32.6363 19.7167L30.7433 19.713C30.7304 19.713 30.7212 19.7037 30.7212 19.6908V19.5613C30.7212 19.0064 31.1455 18.5569 31.6677 18.5587H31.7175C32.2378 18.5587 32.6603 19.0101 32.6585 19.565V19.6945Z" fill="#000062"/>
<path d="M41.1218 17.8687C40.5591 18.2516 40.2731 18.9767 40.2546 19.6204C40.2417 20.0625 40.214 20.7432 40.3155 21.1927C40.4834 21.9436 40.9133 22.4431 41.6033 22.6891C41.917 22.8001 42.3284 22.8519 42.8358 22.8408C43.3321 22.8315 43.8247 22.7797 44.3137 22.6854C44.4281 22.6632 44.4853 22.604 44.489 22.4893C44.4963 22.2729 44.489 22.0546 44.4723 21.8364C44.4631 21.7235 44.4059 21.6717 44.3026 21.681C43.6845 21.7328 43.1568 21.7642 42.7233 21.7753C41.9705 21.792 41.4613 21.4516 41.4945 20.6156C41.4945 20.5989 41.5037 20.5897 41.5222 20.5897H44.524C44.5997 20.5897 44.6624 20.5286 44.6624 20.4528C44.6753 19.6851 44.703 19.0267 44.2546 18.3312C43.631 17.3693 42.0259 17.2565 41.1236 17.8706L41.1218 17.8687ZM43.4059 19.711L41.5222 19.7147C41.5092 19.7147 41.4963 19.7036 41.4963 19.6888V19.5557C41.4963 19.0045 41.9188 18.5568 42.4428 18.555H42.4797C43.0037 18.555 43.4299 19.0008 43.4299 19.552V19.6851C43.4299 19.6981 43.4188 19.711 43.4059 19.711Z" fill="#000062"/>
<path d="M49.7013 17.5586H48.7972C48.6699 17.5586 48.5924 17.6196 48.5611 17.7436L47.5869 21.6169C47.5795 21.6483 47.5537 21.6742 47.5223 21.6816C47.4744 21.6945 47.4246 21.665 47.4135 21.6169L46.4448 17.7306C46.4209 17.6307 46.3305 17.5604 46.2271 17.5604H45.2769C45.264 17.5604 45.2511 17.5604 45.2401 17.566C45.1644 17.5863 45.122 17.664 45.1423 17.7399C45.5186 19.0643 45.8969 20.3831 46.2769 21.6964C46.4633 22.3401 46.5445 22.7785 47.2585 22.7822C47.2788 22.7822 47.288 22.7933 47.2843 22.8136C47.205 23.2483 47.0463 23.6534 46.5094 23.6201C46.1423 23.5979 45.7862 23.5794 45.4448 23.5646C45.443 23.5646 45.4412 23.5646 45.4375 23.5646C45.3397 23.5646 45.2603 23.6423 45.2585 23.7385C45.2585 23.9124 45.2585 24.0825 45.2585 24.249C45.2603 24.4488 45.3397 24.4673 45.5094 24.5024C46.0426 24.6152 46.5445 24.6356 47.0168 24.5653C47.8784 24.4358 48.122 23.8828 48.336 23.1336C48.8489 21.345 49.36 19.5618 49.8692 17.7843C49.8729 17.7695 49.8766 17.7528 49.8766 17.7362C49.8766 17.64 49.7991 17.5623 49.7032 17.5623L49.7013 17.5586Z" fill="#000062"/>
<path d="M41.2212 9.34626C41.2212 9.34626 41.212 9.34626 41.2064 9.34441C41.188 9.33701 41.1769 9.31666 41.1843 9.29632C41.2618 9.0762 41.4002 8.7784 41.5957 8.40106C41.8503 7.91273 42.1068 7.42441 42.3651 6.93793C42.402 6.86765 42.4075 6.80476 42.3799 6.75111C42.3632 6.72152 42.3337 6.70302 42.2987 6.70117C42.0293 6.70117 41.7636 6.70117 41.5016 6.70117C41.3171 6.70117 41.2359 6.75667 41.1529 6.90834C40.9666 7.24499 40.7839 7.58348 40.6049 7.92383C40.1326 8.81909 39.854 9.27597 39.8762 10.1324C39.8799 10.2748 39.8872 10.4468 40.0496 10.4468C40.7802 10.445 41.5109 10.4487 42.2415 10.4598C42.4869 10.4635 42.7009 10.4875 42.8854 10.5319C43.8983 10.7779 43.9592 11.5641 43.878 12.4538C43.8743 12.4982 43.8503 12.5185 43.8061 12.5185C38.4204 12.5185 33.0644 12.5185 27.7415 12.5185C27.5238 12.5185 27.3522 12.4704 27.3577 12.2226C27.3817 11.3199 27.3817 10.5097 27.354 9.78834C27.3319 9.21123 26.9444 9.12059 26.4297 9.11689C25.4131 9.1095 24.3983 9.14649 23.3854 9.22603C23.188 9.24083 22.8632 9.29447 22.6714 9.4073C22.1382 9.7199 22.1049 10.149 22.1049 10.7779C22.1049 11.3976 22.0957 12.0191 22.0736 12.6406C22.0736 12.6609 22.0625 12.6739 22.0404 12.6757C20.7544 12.8367 19.4942 12.7479 19.402 11.1109C19.3632 10.4431 19.3669 9.89377 19.4094 9.46464C19.4204 9.35736 19.3872 9.26117 19.2692 9.25747C19.1621 9.25377 18.9241 9.25377 18.5588 9.25747C18.4426 9.25747 18.3688 9.29632 18.3466 9.411C18.2433 9.96776 18.2046 10.5245 18.2304 11.0831C18.2544 11.6066 18.3153 12.0172 18.4112 12.315C18.7544 13.3694 19.712 13.8355 20.8171 13.8836C21.5348 13.915 22.271 13.8762 23.0238 13.7671C23.1751 13.7449 23.2525 13.6505 23.2562 13.4841C23.2821 12.3113 23.2968 11.54 23.3024 11.1738C23.306 10.9111 23.3632 10.5486 23.616 10.4838C23.8669 10.4209 24.2009 10.3747 24.6179 10.3451C25.0348 10.3155 25.4537 10.2952 25.8706 10.2822C26.0699 10.2767 26.1695 10.3765 26.1677 10.5819C26.1658 11.2681 26.1677 11.9562 26.1787 12.6424C26.188 13.399 26.5754 13.719 27.3245 13.719C32.6603 13.719 37.9942 13.7153 43.33 13.7079C43.8319 13.7079 44.3319 13.6931 44.8319 13.6653C44.961 13.6579 45.0311 13.5932 45.0441 13.4711C45.1086 12.8589 45.1234 12.2448 45.0883 11.6307C44.9537 9.28707 43.0182 9.23343 41.2175 9.34256L41.2212 9.34626Z" fill="#000062"/>
<path d="M46.3339 13.7245C47.4096 13.7245 48.4926 13.7245 49.5848 13.7245C49.7085 13.7245 49.8413 13.6894 49.8505 13.5543C49.893 12.9883 49.8893 12.2854 49.8376 11.4457C49.7601 10.1953 49.0572 9.28891 47.7417 9.22602C47.3007 9.20567 46.9059 9.21862 46.5572 9.26856C46.4409 9.28521 46.345 9.34995 46.3413 9.46833C46.3339 9.6903 46.3339 9.92151 46.3376 10.1583C46.3376 10.162 46.3376 10.1638 46.3376 10.1675C46.3431 10.2434 46.4114 10.3007 46.4871 10.2952C47.345 10.2249 48.4612 10.2378 48.6531 11.3217C48.7029 11.6103 48.7214 12.0024 48.7048 12.4982C48.7048 12.5148 48.6955 12.5241 48.6789 12.5241H46.3192C46.2066 12.5241 46.1162 12.6147 46.1162 12.7275V13.5099C46.1162 13.6283 46.214 13.7264 46.3321 13.7264L46.3339 13.7245Z" fill="#000062"/>
</g>
</g>
<defs>
<clipPath id="clip0_19065_209023">
<rect width="50" height="32" fill="white"/>
</clipPath>
<clipPath id="clip1_19065_209023">
<rect width="50" height="32" fill="white"/>
</clipPath>
</defs>
</svg>
