<svg width="56" height="56" viewBox="0 0 56 56" fill="none" xmlns="http://www.w3.org/2000/svg">
<path d="M35.6361 19.5405C34.4002 19.9546 33.2452 20.5791 32.222 21.3865C32.5859 18.8152 32.2047 16.1934 31.1237 13.8322C30.0426 11.4709 28.3071 9.46922 26.123 8.0644C23.9388 6.65959 21.3976 5.91061 18.8006 5.90627C16.2037 5.90193 13.66 6.64242 11.4711 8.03993C9.28229 9.43744 7.54012 11.4333 6.45122 13.791C5.36231 16.1486 4.97236 18.769 5.32759 21.3416C5.68282 23.9141 6.76834 26.3308 8.45542 28.3051C10.1425 30.2794 12.3604 31.7285 14.8461 32.4805C13.6954 33.8445 12.883 35.4609 12.4748 37.1982C12.0667 38.9354 12.0745 40.7445 12.4974 42.4782C12.9203 44.2119 13.7465 45.8213 14.9088 47.1755C16.0711 48.5297 17.5366 49.5903 19.1861 50.2713C20.8357 50.9522 22.6226 51.2341 24.4017 51.0942C26.1808 50.9542 27.9017 50.3962 29.4244 49.4657C30.9471 48.5352 32.2287 47.2584 33.1649 45.7391C34.1011 44.2198 34.6655 42.501 34.8121 40.7225C36.5015 41.4402 38.34 41.7369 40.1694 41.5871C41.9989 41.4373 43.7646 40.8455 45.3148 39.8625C46.865 38.8796 48.1533 37.5349 49.069 35.944C49.9847 34.3532 50.5004 32.5638 50.5718 30.7296C50.6431 28.8954 50.268 27.0713 49.4787 25.4141C48.6893 23.757 47.5094 22.3162 46.0402 21.2158C44.5711 20.1154 42.8567 19.3882 41.0444 19.0967C39.2321 18.8052 37.3762 18.9582 35.6361 19.5425V19.5405Z" fill="#DFE4FF"/>
<path d="M41.5747 11.8633H17.0387C16.3572 11.8633 15.8047 12.4158 15.8047 13.0973V45.8553C15.8047 46.5368 16.3572 47.0893 17.0387 47.0893H41.5747C42.2562 47.0893 42.8087 46.5368 42.8087 45.8553V13.0973C42.8087 12.4158 42.2562 11.8633 41.5747 11.8633Z" fill="white"/>
<path d="M38.1699 8.80078H13.6339C12.9524 8.80078 12.3999 9.35326 12.3999 10.0348V42.7928C12.3999 43.4743 12.9524 44.0268 13.6339 44.0268H38.1699C38.8514 44.0268 39.4039 43.4743 39.4039 42.7928V10.0348C39.4039 9.35326 38.8514 8.80078 38.1699 8.80078Z" fill="white" stroke="#000062" stroke-miterlimit="10"/>
<path d="M42.8087 26.0078V45.1258C42.8087 45.3828 42.758 45.6374 42.6596 45.8748C42.5612 46.1122 42.4169 46.328 42.2351 46.5096C42.0532 46.6913 41.8374 46.8353 41.5998 46.9335C41.3623 47.0317 41.1077 47.0821 40.8507 47.0818H17.0367C16.7099 47.0818 16.3966 46.952 16.1655 46.721C15.9345 46.4899 15.8047 46.1766 15.8047 45.8498V44.0198" stroke="#000062" stroke-miterlimit="10"/>
<path d="M39.4045 11.8633H41.5745C41.9018 11.8633 42.2157 11.9933 42.4471 12.2247C42.6785 12.4561 42.8085 12.77 42.8085 13.0973V21.5473" stroke="#000062" stroke-miterlimit="10"/>
<path d="M17.1826 15.4375H34.6246" stroke="#000062" stroke-miterlimit="10"/>
<path d="M17.1826 20.7969H34.6246" stroke="#000062" stroke-miterlimit="10"/>
<path d="M17.1826 26.1562H26.2586" stroke="#000062" stroke-miterlimit="10"/>
<path d="M17.1826 31.5156H29.8326" stroke="#000062" stroke-miterlimit="10"/>
<path d="M27.9187 26.1562H34.6247" stroke="#000062" stroke-miterlimit="10"/>
<path d="M31.5562 31.5156H34.6242" stroke="#000062" stroke-miterlimit="10"/>
<path d="M27.9827 38.0812L30.7047 36.7812C31.0089 36.6362 31.3485 36.582 31.6827 36.6253C32.0169 36.6686 32.3315 36.8075 32.5887 37.0252C32.9271 37.3118 33.3616 37.4592 33.8045 37.4376C34.2474 37.4161 34.6657 37.2272 34.9747 36.9092L36.1507 35.6992" stroke="#000062" stroke-miterlimit="10"/>
<path d="M27.9187 40.6211H36.5127" stroke="#000062" stroke-miterlimit="10"/>
<path d="M42.8092 24.4578C43.1406 24.4578 43.4092 24.1892 43.4092 23.8578C43.4092 23.5264 43.1406 23.2578 42.8092 23.2578C42.4779 23.2578 42.2092 23.5264 42.2092 23.8578C42.2092 24.1892 42.4779 24.4578 42.8092 24.4578Z" fill="#000062"/>
<path d="M12.3999 11.8633H24.1339" stroke="#000062" stroke-miterlimit="10"/>
<path d="M25.5342 11.8633H27.2662" stroke="#000062" stroke-miterlimit="10"/>
<path d="M17.1826 15.4375H34.6246" stroke="#7F92FF" stroke-miterlimit="10"/>
<path d="M17.1826 20.7969H34.6246" stroke="#7F92FF" stroke-miterlimit="10"/>
<path d="M17.1826 26.1562H26.2586" stroke="#7F92FF" stroke-miterlimit="10"/>
<path d="M17.1826 31.5156H29.8326" stroke="#7F92FF" stroke-miterlimit="10"/>
<path d="M27.9185 26.1562H34.6245" stroke="#7F92FF" stroke-miterlimit="10"/>
<path d="M31.5562 31.5156H34.6242" stroke="#7F92FF" stroke-miterlimit="10"/>
<path d="M27.9827 38.0812L30.7047 36.7812C31.0089 36.6362 31.3485 36.582 31.6827 36.6253C32.0169 36.6686 32.3315 36.8075 32.5887 37.0252C32.9271 37.3118 33.3616 37.4592 33.8045 37.4376C34.2474 37.4161 34.6657 37.2272 34.9747 36.9092L36.1507 35.6992" stroke="#7F92FF" stroke-miterlimit="10"/>
<path d="M27.9185 40.6211H36.5125" stroke="#7F92FF" stroke-miterlimit="10"/>
</svg>
