<svg width="56" height="56" viewBox="0 0 56 56" fill="none" xmlns="http://www.w3.org/2000/svg">
<path d="M36.5037 17.713C36.907 16.1926 36.9719 14.6022 36.6939 13.054C36.4158 11.5058 35.8016 10.0374 34.8945 8.75236C33.9874 7.4673 32.8094 6.39683 31.4437 5.61641C30.078 4.83599 28.5577 4.36461 26.99 4.23551C25.4223 4.10641 23.8454 4.32271 22.3704 4.86919C20.8954 5.41566 19.5582 6.279 18.4531 7.39835C17.348 8.5177 16.5018 9.86582 15.9742 11.3477C15.4467 12.8296 15.2505 14.4091 15.3997 15.975C13.0115 16.0477 10.6846 16.7476 8.65267 18.0044C6.62072 19.2612 4.95529 21.0306 3.82371 23.1348C2.69213 25.2391 2.13425 27.6041 2.20611 29.9922C2.27798 32.3803 2.97706 34.7075 4.23313 36.7399C5.4892 38.7723 7.25801 40.4383 9.36186 41.5707C11.4657 42.703 13.8305 43.2617 16.2187 43.1907C18.6068 43.1196 20.9342 42.4214 22.9671 41.166C24.9999 39.9107 26.6666 38.1424 27.7997 36.039C28.8157 38.4641 30.5122 40.5432 32.6841 42.0253C34.856 43.5073 37.4105 44.3289 40.0391 44.3908C42.6678 44.4527 45.2581 43.7523 47.4974 42.3742C49.7367 40.996 51.5291 38.9991 52.6582 36.6245C53.7874 34.2499 54.2049 31.5992 53.8604 28.9925C53.5159 26.3858 52.4242 23.9345 50.717 21.9347C49.0098 19.9349 46.7602 18.4722 44.2398 17.723C41.7194 16.9739 39.036 16.9704 36.5137 17.713H36.5037Z" fill="#DFE4FF"/>
<path d="M45.4663 44.7026H48.3027C49.0363 44.7026 49.7399 44.4112 50.2586 43.8925C50.7774 43.3737 51.0688 42.6702 51.0688 41.9366V17.2934C51.0688 16.5598 50.7774 15.8562 50.2586 15.3375C49.7399 14.8188 49.0363 14.5273 48.3027 14.5273H7.56612C6.83251 14.5273 6.12895 14.8188 5.61021 15.3375C5.09147 15.8562 4.80005 16.5598 4.80005 17.2934V41.9366C4.80005 42.6702 5.09147 43.3737 5.61021 43.8925C6.12895 44.4112 6.83251 44.7026 7.56612 44.7026H39.2501" fill="white"/>
<path d="M45.4663 44.7026H48.3027C49.0363 44.7026 49.7399 44.4112 50.2586 43.8925C50.7774 43.3737 51.0688 42.6702 51.0688 41.9366V17.2934C51.0688 16.5598 50.7774 15.8562 50.2586 15.3375C49.7399 14.8188 49.0363 14.5273 48.3027 14.5273H7.56612C6.83251 14.5273 6.12895 14.8188 5.61021 15.3375C5.09147 15.8562 4.80005 16.5598 4.80005 17.2934V41.9366C4.80005 42.6702 5.09147 43.3737 5.61021 43.8925C6.12895 44.4112 6.83251 44.7026 7.56612 44.7026H39.2501" stroke="#000062" stroke-miterlimit="10"/>
<path d="M27.9348 39.8383C33.5801 39.8383 38.1566 35.2618 38.1566 29.6164C38.1566 23.971 33.5801 19.3945 27.9348 19.3945C22.2894 19.3945 17.7129 23.971 17.7129 29.6164C17.7129 35.2618 22.2894 39.8383 27.9348 39.8383Z" fill="white" stroke="#000062" stroke-miterlimit="10"/>
<path d="M27.9344 33.9723C30.3398 33.9723 32.2897 32.0224 32.2897 29.617C32.2897 27.2117 30.3398 25.2617 27.9344 25.2617C25.529 25.2617 23.5791 27.2117 23.5791 29.617C23.5791 32.0224 25.529 33.9723 27.9344 33.9723Z" fill="white" stroke="#000062" stroke-miterlimit="10"/>
<path d="M51.0697 21.1484H33.6611" stroke="#000062" stroke-miterlimit="10"/>
<path d="M22.2087 21.1484H4.80005" stroke="#000062" stroke-miterlimit="10"/>
<path d="M15 17.8008H8.80005" stroke="#000062" stroke-miterlimit="10" stroke-linecap="round"/>
<path d="M35.8898 11.3151C35.5336 10.9027 35.0928 10.5717 34.5972 10.3448C34.1017 10.1179 33.5632 10.0003 33.0182 10H22.8516C22.3066 10.0003 21.7681 10.1179 21.2725 10.3448C20.777 10.5717 20.3362 10.9027 19.9799 11.3151L17.2139 14.5263H38.671L35.8898 11.3151Z" fill="white" stroke="#000062" stroke-miterlimit="10"/>
<path d="M43.0471 10.0039H46.7109C46.889 10.0039 47.0598 10.0746 47.1857 10.2006C47.3116 10.3265 47.3823 10.4972 47.3823 10.6753V14.2335H42.3757V10.6728C42.3764 10.4952 42.4474 10.325 42.5733 10.1997C42.6991 10.0743 42.8695 10.0039 43.0471 10.0039Z" fill="white" stroke="#000062" stroke-miterlimit="10"/>
<path d="M43.2774 45.2879C43.6672 44.8981 43.6672 44.266 43.2774 43.8761C42.8875 43.4863 42.2554 43.4863 41.8656 43.8761C41.4757 44.266 41.4757 44.8981 41.8656 45.2879C42.2554 45.6778 42.8875 45.6778 43.2774 45.2879Z" fill="#000062"/>
<path d="M10.1001 33.3984C10.1001 33.1223 9.87624 32.8984 9.6001 32.8984C9.32396 32.8984 9.1001 33.1223 9.1001 33.3984L10.1001 33.3984ZM9.1001 44.3984L9.1001 44.8984L10.1001 44.8984L10.1001 44.3984L9.1001 44.3984ZM9.1001 33.3984L9.1001 44.3984L10.1001 44.3984L10.1001 33.3984L9.1001 33.3984Z" fill="#000062"/>
<path d="M9.57812 29.3242V30.7073" stroke="#000062" stroke-miterlimit="10" stroke-linecap="round"/>
<path d="M26.1743 28.8281V29.2883C26.1743 29.8218 26.3863 30.3335 26.7635 30.7108C27.1408 31.088 27.6525 31.3 28.186 31.3" stroke="#000062" stroke-miterlimit="10"/>
<path d="M27.9345 39.8383C33.5799 39.8383 38.1564 35.2618 38.1564 29.6164C38.1564 23.971 33.5799 19.3945 27.9345 19.3945C22.2891 19.3945 17.7126 23.971 17.7126 29.6164C17.7126 35.2618 22.2891 39.8383 27.9345 39.8383Z" fill="white" stroke="#7F92FF" stroke-miterlimit="10"/>
<path d="M27.9342 33.9723C30.3395 33.9723 32.2895 32.0224 32.2895 29.617C32.2895 27.2117 30.3395 25.2617 27.9342 25.2617C25.5288 25.2617 23.5789 27.2117 23.5789 29.617C23.5789 32.0224 25.5288 33.9723 27.9342 33.9723Z" fill="white" stroke="#7F92FF" stroke-miterlimit="10"/>
<path d="M26.1738 28.8281V29.2883C26.1738 29.8218 26.3858 30.3335 26.763 30.7108C27.1403 31.088 27.652 31.3 28.1855 31.3" stroke="#7F92FF" stroke-miterlimit="10"/>
</svg>
