<svg width="56" height="56" viewBox="0 0 56 56" fill="none" xmlns="http://www.w3.org/2000/svg">
<path d="M42.5906 11.2539H16.9626C15.7554 11.2539 14.7766 12.2326 14.7766 13.4399V46.8419C14.7766 48.0492 15.7554 49.0279 16.9626 49.0279H42.5906C43.7979 49.0279 44.7766 48.0492 44.7766 46.8419V13.4399C44.7766 12.2326 43.7979 11.2539 42.5906 11.2539Z" fill="white"/>
<path d="M30.1343 26V33.76C30.1342 33.9121 30.0885 34.0606 30.0031 34.1864C29.9177 34.3122 29.7966 34.4095 29.6553 34.4658C29.514 34.522 29.359 34.5345 29.2105 34.5018C29.0621 34.469 28.9268 34.3924 28.8223 34.282L27.2223 32.594C27.1513 32.519 27.0657 32.4592 26.9708 32.4183C26.8758 32.3775 26.7736 32.3564 26.6703 32.3564C26.567 32.3564 26.4647 32.3775 26.3698 32.4183C26.2749 32.4592 26.1893 32.519 26.1183 32.594L24.5183 34.282C24.4138 34.3924 24.2785 34.469 24.13 34.5018C23.9815 34.5345 23.8266 34.522 23.6854 34.4658C23.5441 34.4095 23.4229 34.3122 23.3375 34.1864C23.2521 34.0606 23.2064 33.9121 23.2063 33.76V26" fill="white"/>
<path d="M30.1343 26V33.76C30.1342 33.9121 30.0885 34.0606 30.0031 34.1864C29.9177 34.3122 29.7966 34.4095 29.6553 34.4658C29.514 34.522 29.359 34.5345 29.2105 34.5018C29.0621 34.469 28.9268 34.3924 28.8223 34.282L27.2223 32.594C27.1513 32.519 27.0657 32.4592 26.9708 32.4183C26.8758 32.3775 26.7736 32.3564 26.6703 32.3564C26.567 32.3564 26.4647 32.3775 26.3698 32.4183C26.2749 32.4592 26.1893 32.519 26.1183 32.594L24.5183 34.282C24.4138 34.3924 24.2785 34.469 24.13 34.5018C23.9815 34.5345 23.8266 34.522 23.6854 34.4658C23.5441 34.4095 23.4229 34.3122 23.3375 34.1864C23.2521 34.0606 23.2064 33.9121 23.2063 33.76V26" stroke="#000062" stroke-miterlimit="10"/>
<path d="M26.6753 26.8092C31.4692 26.8092 35.3554 22.9231 35.3554 18.1292C35.3554 13.3354 31.4692 9.44922 26.6753 9.44922C21.8815 9.44922 17.9954 13.3354 17.9954 18.1292C17.9954 22.9231 21.8815 26.8092 26.6753 26.8092Z" fill="white" stroke="#000062" stroke-miterlimit="10"/>
<path d="M26.6752 22.5224C29.102 22.5224 31.0693 20.5551 31.0693 18.1284C31.0693 15.7016 29.102 13.7344 26.6752 13.7344C24.2485 13.7344 22.2812 15.7016 22.2812 18.1284C22.2812 20.5551 24.2485 22.5224 26.6752 22.5224Z" fill="white" stroke="#000062" stroke-miterlimit="10"/>
<path d="M14.7766 36.4799V13.1479C14.7766 12.6456 14.9762 12.1638 15.3314 11.8086C15.6866 11.4535 16.1683 11.2539 16.6707 11.2539H21.3766" stroke="#000062" stroke-miterlimit="10"/>
<path d="M31.9766 11.2539H42.8826C43.3849 11.2539 43.8667 11.4535 44.2219 11.8086C44.5771 12.1638 44.7766 12.6456 44.7766 13.1479V47.1339C44.7766 47.6362 44.5771 48.118 44.2219 48.4732C43.8667 48.8284 43.3849 49.0279 42.8826 49.0279H16.6707C16.1683 49.0279 15.6866 48.8284 15.3314 48.4732C14.9762 48.118 14.7766 47.6362 14.7766 47.1339V42.4299" stroke="#000062" stroke-miterlimit="10"/>
<path d="M25.4797 26.8086V33.3446" stroke="#000062" stroke-miterlimit="10"/>
<path d="M27.8718 26.8086V33.3446" stroke="#000062" stroke-miterlimit="10"/>
<path d="M41.3863 44.2773H30.1343" stroke="#000062" stroke-miterlimit="10"/>
<path d="M41.3858 40.8359H33.7358" stroke="#000062" stroke-miterlimit="10"/>
<path d="M41.3855 37.3984H36.6016" stroke="#000062" stroke-miterlimit="10"/>
<path d="M31.9443 40.8359H30.1343" stroke="#000062" stroke-miterlimit="10"/>
<path d="M35.3263 37.3984H30.1343" stroke="#000062" stroke-miterlimit="10"/>
<path d="M14.7764 40.1568C15.1508 40.1568 15.4544 39.8532 15.4544 39.4788C15.4544 39.1043 15.1508 38.8008 14.7764 38.8008C14.4019 38.8008 14.0984 39.1043 14.0984 39.4788C14.0984 39.8532 14.4019 40.1568 14.7764 40.1568Z" fill="#000062"/>
<path d="M39.7717 11.2539V26.8059" stroke="#000062" stroke-miterlimit="10"/>
<path d="M39.7717 28V29.8" stroke="#000062" stroke-miterlimit="10"/>
<path d="M28.7719 17.6172V18.3172C28.7719 18.7946 28.5822 19.2524 28.2447 19.59C27.9071 19.9275 27.4493 20.1172 26.9719 20.1172" stroke="#000062" stroke-miterlimit="10"/>
</svg>
