<svg width="40" height="39" viewBox="0 0 40 39" fill="none" xmlns="http://www.w3.org/2000/svg">
<g id="main-shape">
<g id="vectors">
<path id="Vector" d="M30.7076 0.5625H9.75358C8.7429 0.5625 7.92358 1.38182 7.92358 2.3925V36.5065C7.92358 37.5172 8.7429 38.3365 9.75358 38.3365H30.7076C31.7183 38.3365 32.5376 37.5172 32.5376 36.5065V2.3925C32.5376 1.38182 31.7183 0.5625 30.7076 0.5625Z" fill="white"/>
<path id="Vector_2" d="M8.02344 14.3565V3.39851C8.02344 2.6467 8.32195 1.92565 8.85338 1.39386C9.3848 0.862063 10.1056 0.563037 10.8574 0.562506H29.6994C30.0723 0.561717 30.4416 0.634504 30.7863 0.776698C31.1309 0.918891 31.4441 1.1277 31.708 1.39115C31.9718 1.6546 32.181 1.96752 32.3237 2.31198C32.4664 2.65644 32.5397 3.02567 32.5394 3.39851V8.35851" stroke="#000062" stroke-miterlimit="10"/>
<path id="Vector_3" d="M32.5394 32.7652V35.5032C32.5394 35.8759 32.4659 36.2449 32.3231 36.5891C32.1803 36.9334 31.9711 37.246 31.7073 37.5093C31.4435 37.7725 31.1303 37.9811 30.7858 38.1232C30.4413 38.2653 30.0721 38.338 29.6994 38.3372H10.8574C10.106 38.3367 9.38545 38.0379 8.85408 37.5066C8.32272 36.9752 8.02397 36.2547 8.02344 35.5032V25.1992" stroke="#000062" stroke-miterlimit="10"/>
<path id="Vector_4" d="M32.5408 26.8151V19.2031" stroke="#000062" stroke-miterlimit="10"/>
<path id="Vector_5" d="M20.9503 0.5625H13.5703L15.1943 2.9205C15.3571 3.15731 15.5751 3.35097 15.8295 3.48476C16.0838 3.61856 16.3669 3.68848 16.6543 3.6885H23.9003C24.1877 3.68848 24.4708 3.61856 24.7251 3.48476C24.9795 3.35097 25.1975 3.15731 25.3603 2.9205L26.9843 0.5625H20.9503Z" stroke="#000062" stroke-miterlimit="10"/>
<path id="Vector_6" d="M25.4723 8.35947H37.9783C38.2555 8.35946 38.5216 8.46892 38.7186 8.66405C38.9156 8.85918 39.0276 9.1242 39.0303 9.40147V18.1455C39.0303 18.4245 38.9194 18.6921 38.7221 18.8893C38.5248 19.0866 38.2573 19.1975 37.9783 19.1975H31.3783C31.2401 19.1974 31.1033 19.2246 30.9756 19.2775C30.848 19.3303 30.732 19.4078 30.6343 19.5055L28.3103 21.8295C28.1633 21.978 27.9755 22.0795 27.7707 22.1209C27.566 22.1623 27.3535 22.1418 27.1604 22.062C26.9673 21.9822 26.8024 21.8467 26.6866 21.6728C26.5708 21.4988 26.5094 21.2944 26.5103 21.0855V20.2475C26.5103 19.9685 26.3994 19.7009 26.2021 19.5036C26.0048 19.3063 25.7373 19.1955 25.4582 19.1955C25.3201 19.1955 25.1833 19.1683 25.0557 19.1154C24.928 19.0625 24.8121 18.985 24.7144 18.8873C24.6167 18.7897 24.5392 18.6737 24.4863 18.5461C24.4335 18.4184 24.4063 18.2816 24.4062 18.1435V9.40147C24.4076 9.26298 24.4362 9.1261 24.4905 8.99871C24.5449 8.87131 24.6238 8.75589 24.7228 8.65908C24.8219 8.56227 24.9391 8.48596 25.0677 8.43455C25.1963 8.38313 25.3338 8.35762 25.4723 8.35947Z" fill="white" stroke="#000062" stroke-miterlimit="10"/>
<path id="Vector_7" d="M14.1784 14.3595H1.67237C1.39509 14.3595 1.12901 14.4689 0.932006 14.664C0.735003 14.8592 0.623005 15.1242 0.620369 15.4015V24.1455C0.619842 24.284 0.646665 24.4212 0.699297 24.5493C0.751929 24.6774 0.829335 24.7938 0.927075 24.8919C1.02481 24.99 1.14096 25.0679 1.26886 25.121C1.39676 25.1741 1.53388 25.2015 1.67237 25.2015H8.27237C8.41053 25.2014 8.54735 25.2286 8.675 25.2815C8.80266 25.3343 8.91866 25.4118 9.01637 25.5095L11.3404 27.8335C11.4873 27.982 11.6751 28.0835 11.8799 28.1249C12.0847 28.1663 12.2971 28.1458 12.4902 28.066C12.6833 27.9862 12.8483 27.8507 12.9641 27.6768C13.0798 27.5028 13.1412 27.2984 13.1404 27.0895V26.2515C13.1404 25.9725 13.2512 25.7049 13.4485 25.5076C13.6458 25.3103 13.9134 25.1995 14.1924 25.1995C14.4714 25.1995 14.739 25.0886 14.9362 24.8913C15.1335 24.6941 15.2444 24.4265 15.2444 24.1475V15.4015C15.2431 15.263 15.2144 15.1261 15.1601 14.9987C15.1058 14.8713 15.0268 14.7559 14.9278 14.6591C14.8287 14.5623 14.7115 14.486 14.5829 14.4345C14.4543 14.3831 14.3169 14.3576 14.1784 14.3595Z" fill="white" stroke="#000062" stroke-miterlimit="10"/>
<path id="Vector_8" d="M33.9794 16.746V12.612C33.9794 11.63 33.2754 10.832 32.4054 10.832H31.0694C30.2014 10.832 29.4954 11.632 29.4954 12.612V16.746" stroke="#000062" stroke-miterlimit="10"/>
<path id="Vector_9" d="M34.2743 14.3828H29.2063" stroke="#000062" stroke-miterlimit="10"/>
<path id="Vector_10" d="M7.92339 22.6461C9.55263 22.6461 10.8734 21.3253 10.8734 19.6961C10.8734 18.0669 9.55263 16.7461 7.92339 16.7461C6.29415 16.7461 4.97339 18.0669 4.97339 19.6961C4.97339 21.3253 6.29415 22.6461 7.92339 22.6461Z" stroke="#000062" stroke-miterlimit="10"/>
<path id="Vector_11" d="M8.02344 20.4141L10.0614 23.0801" stroke="#000062" stroke-miterlimit="10"/>
<path id="Vector_12" d="M32.5405 30.5279C32.915 30.5279 33.2185 30.2243 33.2185 29.8499C33.2185 29.4754 32.915 29.1719 32.5405 29.1719C32.1661 29.1719 31.8625 29.4754 31.8625 29.8499C31.8625 30.2243 32.1661 30.5279 32.5405 30.5279Z" fill="#000062"/>
<path id="Vector_13" d="M11.3796 0.507812V9.35781" stroke="#000062" stroke-miterlimit="10"/>
<path id="Vector_14" d="M11.3796 10.2656V12.1156" stroke="#000062" stroke-miterlimit="10"/>
<path id="Vector_15" d="M20.2821 36.0423C21.2862 36.0423 22.1001 35.2283 22.1001 34.2243C22.1001 33.2202 21.2862 32.4062 20.2821 32.4062C19.2781 32.4062 18.4641 33.2202 18.4641 34.2243C18.4641 35.2283 19.2781 36.0423 20.2821 36.0423Z" stroke="#000062" stroke-miterlimit="10"/>
</g>
</g>
</svg>
