<svg width="20" height="21" viewBox="0 0 20 21" fill="none" xmlns="http://www.w3.org/2000/svg">
<path d="M7.49984 4.32487H5.83317C4.9127 4.32487 4.1665 5.07106 4.1665 5.99154V15.9915C4.1665 16.912 4.9127 17.6582 5.83317 17.6582H14.1665C15.087 17.6582 15.8332 16.912 15.8332 15.9915V5.99154C15.8332 5.07106 15.087 4.32487 14.1665 4.32487H12.4998M7.49984 4.32487C7.49984 5.24534 8.24603 5.99154 9.1665 5.99154H10.8332C11.7536 5.99154 12.4998 5.24534 12.4998 4.32487M7.49984 4.32487C7.49984 3.4044 8.24603 2.6582 9.1665 2.6582H10.8332C11.7536 2.6582 12.4998 3.4044 12.4998 4.32487M9.99984 10.1582H12.4998M9.99984 13.4915H12.4998M7.49984 10.1582H7.50817M7.49984 13.4915H7.50817" stroke="#7F92FF" stroke-width="1.5" stroke-linecap="round"/>
</svg>
