<svg width="41" height="40" viewBox="0 0 41 40" fill="none" xmlns="http://www.w3.org/2000/svg">
<g id="main-shape">
<g id="vectors">
<path id="Vector" d="M37.825 31.9963C39.4237 29.4325 40.2423 26.4591 40.181 23.4383C40.029 15.1583 33.323 8.35235 25.049 8.09035C22.9096 8.02057 20.7786 8.39044 18.7877 9.17708C16.7969 9.96372 14.9887 11.1504 13.4748 12.6638C11.9608 14.1771 10.7735 15.9849 9.9861 17.9755C9.19872 19.966 8.82806 22.0969 8.89704 24.2363C9.16104 32.6103 16.113 39.3583 24.497 39.3823C27.1086 39.3928 29.6808 38.7463 31.977 37.5023C32.4408 37.2559 32.9598 37.1321 33.4848 37.1426C34.0099 37.1531 34.5235 37.2976 34.977 37.5624L37.053 38.7624C37.2008 38.8478 37.3704 38.8876 37.5407 38.8769C37.711 38.8662 37.8744 38.8055 38.0102 38.7023C38.1461 38.5991 38.2485 38.4581 38.3045 38.2969C38.3605 38.1357 38.3677 37.9616 38.325 37.7964L37.463 34.3964C37.3584 33.9926 37.3365 33.5718 37.3987 33.1593C37.4609 32.7469 37.6059 32.3513 37.825 31.9963Z" fill="white"/>
<path id="Vector_2" d="M3.75906 24.5159C2.16079 21.9526 1.34224 18.98 1.40306 15.9599C1.55306 7.67788 8.26106 0.873879 16.5391 0.609879C18.6785 0.540104 20.8095 0.909973 22.8004 1.69661C24.7912 2.48325 26.5994 3.66994 28.1134 5.18329C29.6273 6.69663 30.8146 8.50447 31.602 10.495C32.3894 12.4855 32.76 14.6164 32.6911 16.7559C32.4271 25.1299 25.4751 31.8779 17.0911 31.9019C14.476 31.9134 11.9001 31.2662 9.60106 30.0199C9.13732 29.7735 8.61831 29.6496 8.09327 29.6601C7.56823 29.6706 7.05458 29.8151 6.60106 30.0799L4.52506 31.2799C4.37652 31.3643 4.20633 31.4028 4.03592 31.3907C3.86551 31.3786 3.70249 31.3164 3.56737 31.2118C3.43226 31.1073 3.33108 30.9651 3.27657 30.8032C3.22207 30.6413 3.21667 30.4669 3.26106 30.3019L4.12306 26.9019C4.22547 26.5001 4.24602 26.0818 4.18349 25.6719C4.12095 25.262 3.97662 24.8689 3.75906 24.5159Z" fill="white" stroke="#000062" stroke-miterlimit="10"/>
<path id="Vector_3" d="M10.625 30.5231C11.5575 32.4051 12.8595 34.0799 14.4535 35.4476C16.0475 36.8154 17.9007 37.8479 19.9024 38.4837C21.9042 39.1195 24.0136 39.3454 26.1046 39.1481C28.1957 38.9508 30.2255 38.3342 32.073 37.3351C32.5367 37.0887 33.0558 36.9649 33.5808 36.9754C34.1058 36.9859 34.6195 37.1304 35.073 37.3951L37.149 38.5851C37.2967 38.6699 37.4661 38.7093 37.636 38.6986C37.806 38.6878 37.969 38.6272 38.1048 38.5245C38.2406 38.4217 38.3432 38.2813 38.3998 38.1207C38.4564 37.96 38.4644 37.7863 38.423 37.6211L37.559 34.2211C37.455 33.8172 37.4336 33.3964 37.4961 32.984C37.5587 32.5716 37.7039 32.1761 37.923 31.8211C39.2657 29.6729 40.0641 27.2297 40.249 24.7031" stroke="#000062" stroke-miterlimit="10"/>
<path id="Vector_4" d="M40.1828 21.8004C39.8661 19.1131 38.8624 16.5527 37.2685 14.366C35.6746 12.1794 33.5442 10.4403 31.0828 9.31641" stroke="#000062" stroke-miterlimit="10"/>
<path id="Vector_5" d="M14.249 6.14453C12.5452 6.14453 10.9112 6.82134 9.7065 8.02608C8.50176 9.23081 7.82495 10.8648 7.82495 12.5685V13.5005" stroke="#000062" stroke-miterlimit="10"/>
<path id="Vector_6" d="M40.2424 23.7334C40.5075 23.7334 40.7224 23.5185 40.7224 23.2534C40.7224 22.9883 40.5075 22.7734 40.2424 22.7734C39.9774 22.7734 39.7625 22.9883 39.7625 23.2534C39.7625 23.5185 39.9774 23.7334 40.2424 23.7334Z" fill="#000062"/>
</g>
</g>
</svg>
