<svg width="56" height="56" viewBox="0 0 56 56" fill="none" xmlns="http://www.w3.org/2000/svg">
<path d="M45.466 44.7026H48.3025C49.0361 44.7026 49.7397 44.4112 50.2584 43.8925C50.7771 43.3737 51.0686 42.6702 51.0686 41.9366V17.2934C51.0686 16.5598 50.7771 15.8562 50.2584 15.3375C49.7397 14.8188 49.0361 14.5273 48.3025 14.5273H7.56587C6.83226 14.5273 6.12871 14.8188 5.60997 15.3375C5.09123 15.8562 4.7998 16.5598 4.7998 17.2934V41.9366C4.7998 42.6702 5.09123 43.3737 5.60997 43.8925C6.12871 44.4112 6.83226 44.7026 7.56587 44.7026H39.2499" fill="white"/>
<path d="M45.466 44.7026H48.3025C49.0361 44.7026 49.7396 44.4112 50.2584 43.8925C50.7771 43.3737 51.0686 42.6702 51.0686 41.9366V17.2934C51.0686 16.5598 50.7771 15.8562 50.2584 15.3375C49.7396 14.8188 49.0361 14.5273 48.3025 14.5273H7.56587C6.83226 14.5273 6.12871 14.8188 5.60997 15.3375C5.09123 15.8562 4.7998 16.5598 4.7998 17.2934V41.9366C4.7998 42.6702 5.09123 43.3737 5.60997 43.8925C6.12871 44.4112 6.83226 44.7026 7.56587 44.7026H39.2499" stroke="#000062" stroke-miterlimit="10"/>
<path d="M27.9348 39.8383C33.5801 39.8383 38.1566 35.2618 38.1566 29.6164C38.1566 23.971 33.5801 19.3945 27.9348 19.3945C22.2894 19.3945 17.7129 23.971 17.7129 29.6164C17.7129 35.2618 22.2894 39.8383 27.9348 39.8383Z" fill="white" stroke="#000062" stroke-miterlimit="10"/>
<path d="M27.9339 33.9723C30.3393 33.9723 32.2892 32.0224 32.2892 29.617C32.2892 27.2117 30.3393 25.2617 27.9339 25.2617C25.5285 25.2617 23.5786 27.2117 23.5786 29.617C23.5786 32.0224 25.5285 33.9723 27.9339 33.9723Z" fill="white" stroke="#000062" stroke-miterlimit="10"/>
<path d="M51.0693 21.1484H33.6606" stroke="#000062" stroke-miterlimit="10"/>
<path d="M22.2084 21.1484H4.7998" stroke="#000062" stroke-miterlimit="10"/>
<path d="M14.9998 17.8008H8.7998" stroke="#000062" stroke-miterlimit="10" stroke-linecap="round"/>
<path d="M35.8898 11.3151C35.5336 10.9027 35.0928 10.5717 34.5972 10.3448C34.1017 10.1179 33.5632 10.0003 33.0182 10H22.8516C22.3066 10.0003 21.7681 10.1179 21.2725 10.3448C20.777 10.5717 20.3362 10.9027 19.9799 11.3151L17.2139 14.5263H38.671L35.8898 11.3151Z" fill="white" stroke="#000062" stroke-miterlimit="10"/>
<path d="M43.0469 10.0039H46.7107C46.8887 10.0039 47.0595 10.0746 47.1854 10.2006C47.3113 10.3265 47.3821 10.4972 47.3821 10.6753V14.2335H42.3755V10.6728C42.3762 10.4952 42.4472 10.325 42.573 10.1997C42.6989 10.0743 42.8693 10.0039 43.0469 10.0039Z" fill="white" stroke="#000062" stroke-miterlimit="10"/>
<path d="M43.2774 45.2879C43.6672 44.8981 43.6672 44.266 43.2774 43.8761C42.8875 43.4863 42.2554 43.4863 41.8656 43.8761C41.4757 44.266 41.4757 44.8981 41.8656 45.2879C42.2554 45.6778 42.8875 45.6778 43.2774 45.2879Z" fill="#000062"/>
<path d="M10.0996 33.3984C10.0996 33.1223 9.87575 32.8984 9.59961 32.8984C9.32347 32.8984 9.09961 33.1223 9.09961 33.3984L10.0996 33.3984ZM9.09961 44.3984L9.09961 44.8984L10.0996 44.8984L10.0996 44.3984L9.09961 44.3984ZM9.09961 33.3984L9.09961 44.3984L10.0996 44.3984L10.0996 33.3984L9.09961 33.3984Z" fill="#000062"/>
<path d="M9.57812 29.3242V30.7073" stroke="#000062" stroke-miterlimit="10" stroke-linecap="round"/>
<path d="M26.1738 28.8281V29.2883C26.1738 29.8218 26.3858 30.3335 26.763 30.7108C27.1403 31.088 27.652 31.3 28.1855 31.3" stroke="#000062" stroke-miterlimit="10"/>
</svg>
