<svg width="46" height="44" viewBox="0 0 46 44" fill="none" xmlns="http://www.w3.org/2000/svg">
<g id="Group">
<g id="Layer 2">
<g id="Layer 1">
<path id="BG" d="M42.1943 21.4064C41.9347 21.1254 41.6603 20.8583 41.3723 20.6064L41.4623 20.4924C41.7246 20.1603 41.9689 19.8145 42.1943 19.4564C43.7757 16.9328 44.3376 13.9021 43.766 10.9793C43.1944 8.05653 41.5321 5.46077 39.1165 3.71887C36.7009 1.97698 33.713 1.21948 30.7593 1.60011C27.8056 1.98075 25.1074 3.47101 23.2123 5.7684C23.0483 5.9684 22.8923 6.1684 22.7423 6.3784C22.3367 6.94526 21.9832 7.54773 21.6863 8.1784C21.5623 8.4364 21.4483 8.7004 21.3423 8.9784C21.0744 9.67092 20.8735 10.3875 20.7423 11.1184C20.7414 11.1311 20.7414 11.1438 20.7423 11.1564C20.6347 11.7507 20.5739 12.3526 20.5603 12.9564C20.4143 12.8164 20.2663 12.6804 20.1123 12.5564C19.7251 12.2213 19.3162 11.9119 18.8883 11.6304C18.6463 11.4684 18.3963 11.3184 18.1383 11.1744L18.0683 11.1364C17.6221 10.8915 17.1604 10.6757 16.6863 10.4904C14.9911 9.80788 13.1592 9.53316 11.3383 9.6884C10.9062 9.73079 10.4769 9.79756 10.0523 9.8884C7.6924 10.3716 5.53858 11.57 3.88384 13.3206C2.2291 15.0712 1.15377 17.289 0.804111 19.6723C0.454451 22.0557 0.847436 24.489 1.92961 26.6411C3.01179 28.7932 4.73063 30.5597 6.85233 31.7004C7.27286 31.9257 7.70627 32.126 8.15033 32.3004C8.7673 32.5412 9.40358 32.7292 10.0523 32.8624C13.0951 33.4818 16.2592 32.8705 18.8523 31.1624C19.9368 30.4503 20.8946 29.5621 21.6863 28.5344C21.7643 28.4344 21.8403 28.3344 21.9163 28.2264C21.9023 28.3704 21.8903 28.5144 21.8843 28.6584C21.7521 30.776 22.1973 32.8897 23.1723 34.7742C24.1472 36.6586 25.6155 38.243 27.4203 39.3584C28.0261 39.7306 28.664 40.0479 29.3263 40.3064C31.798 41.2701 34.5234 41.367 37.0572 40.5813C39.591 39.7957 41.7835 38.1739 43.2764 35.981C44.7693 33.7881 45.4744 31.1537 45.2764 28.5082C45.0784 25.8627 43.989 23.3627 42.1863 21.4164L42.1943 21.4064ZM24.0783 22.5204C24.1043 22.2784 24.1223 22.0344 24.1283 21.7924C24.1283 21.7457 24.1283 21.6997 24.1283 21.6544C24.2023 21.7264 24.2803 21.7984 24.3563 21.8684L24.4843 21.9844C24.3423 22.1684 24.2043 22.3364 24.0783 22.5204Z" fill="#DFE4FF"/>
<g id="Group 219">
<path id="Vector" d="M25.931 15.8711C27.2092 16.1912 28.3263 16.9677 29.0717 18.0543C29.8172 19.1408 30.1397 20.4625 29.9784 21.7703C29.8171 23.078 29.1832 24.2817 28.1961 25.1546C27.2089 26.0275 25.9367 26.5093 24.619 26.5093C23.3013 26.5093 22.0291 26.0275 21.0419 25.1546C20.0548 24.2817 19.4209 23.078 19.2596 21.7703C19.0983 20.4625 19.4208 19.1408 20.1663 18.0543C20.9117 16.9677 22.0288 16.1912 23.307 15.8711" stroke="#000062" stroke-miterlimit="10"/>
<path id="Vector_2" d="M30.3976 30.9278C30.0577 29.6595 29.3088 28.5389 28.2669 27.7397C27.2251 26.9405 25.9487 26.5075 24.6356 26.5078H24.6016C23.2883 26.5071 22.0114 26.9399 20.9692 27.7391C19.9269 28.5383 19.1777 29.6592 18.8376 30.9278" stroke="#000062" stroke-miterlimit="10"/>
<path id="Vector_3" d="M24.935 15.9379C25.1099 15.7629 25.1099 15.4793 24.935 15.3043C24.76 15.1294 24.4764 15.1294 24.3014 15.3043C24.1264 15.4793 24.1264 15.7629 24.3014 15.9379C24.4764 16.1128 24.76 16.1128 24.935 15.9379Z" fill="#000062"/>
<path id="Vector_4" d="M27.4157 19.8516V20.6516C27.4157 21.3942 27.1207 22.1064 26.5956 22.6315C26.0705 23.1566 25.3583 23.4516 24.6157 23.4516" stroke="#000062" stroke-miterlimit="10"/>
</g>
<path id="Vector_5" d="M24.6185 32.674C30.3965 32.674 35.0805 27.99 35.0805 22.212C35.0805 16.434 30.3965 11.75 24.6185 11.75C18.8405 11.75 14.1565 16.434 14.1565 22.212C14.1565 27.99 18.8405 32.674 24.6185 32.674Z" fill="white" stroke="#000062" stroke-miterlimit="10"/>
<g id="Group 218">
<path id="Vector_6" d="M25.931 15.8711C27.2092 16.1912 28.3263 16.9677 29.0717 18.0543C29.8172 19.1408 30.1397 20.4625 29.9784 21.7703C29.8171 23.078 29.1832 24.2817 28.1961 25.1546C27.2089 26.0275 25.9367 26.5093 24.619 26.5093C23.3013 26.5093 22.0291 26.0275 21.0419 25.1546C20.0548 24.2817 19.4209 23.078 19.2596 21.7703C19.0983 20.4625 19.4208 19.1408 20.1663 18.0543C20.9117 16.9677 22.0288 16.1912 23.307 15.8711" stroke="#7F92FF" stroke-miterlimit="10"/>
<path id="Vector_7" d="M30.3976 30.9278C30.0577 29.6595 29.3088 28.5389 28.2669 27.7397C27.2251 26.9405 25.9487 26.5075 24.6356 26.5078H24.6016C23.2883 26.5071 22.0114 26.9399 20.9692 27.7391C19.9269 28.5383 19.1777 29.6592 18.8376 30.9278" stroke="#7F92FF" stroke-miterlimit="10"/>
<path id="Vector_8" d="M24.935 15.9379C25.1099 15.7629 25.1099 15.4793 24.935 15.3043C24.76 15.1294 24.4764 15.1294 24.3014 15.3043C24.1264 15.4793 24.1264 15.7629 24.3014 15.9379C24.4764 16.1128 24.76 16.1128 24.935 15.9379Z" fill="#7F92FF"/>
<path id="Vector_9" d="M27.4157 19.8516V20.6516C27.4157 21.3942 27.1207 22.1064 26.5956 22.6315C26.0705 23.1566 25.3583 23.4516 24.6157 23.4516" stroke="#7F92FF" stroke-miterlimit="10"/>
</g>
<path id="Vector_10" d="M24.6185 32.674C30.3965 32.674 35.0805 27.99 35.0805 22.212C35.0805 16.434 30.3965 11.75 24.6185 11.75C18.8405 11.75 14.1565 16.434 14.1565 22.212C14.1565 27.99 18.8405 32.674 24.6185 32.674Z" stroke="#000062" stroke-miterlimit="10"/>
<path id="Vector_11" d="M24.6184 7.0625V11.7485" stroke="#000062" stroke-miterlimit="10"/>
<path id="Vector_12" d="M24.6184 7.0625V11.7485" stroke="#000062" stroke-miterlimit="10"/>
<path id="Vector_13" d="M24.6183 7.06075C26.1625 7.06075 27.4143 5.80894 27.4143 4.26475C27.4143 2.72056 26.1625 1.46875 24.6183 1.46875C23.0741 1.46875 21.8223 2.72056 21.8223 4.26475C21.8223 5.80894 23.0741 7.06075 24.6183 7.06075Z" fill="white" stroke="#000062" stroke-miterlimit="10"/>
<path id="Vector_14" d="M24.6184 37.3579V32.6719" stroke="#000062" stroke-miterlimit="10"/>
<path id="Vector_15" d="M24.6184 37.3579V32.6719" stroke="#000062" stroke-miterlimit="10"/>
<path id="Vector_16" d="M24.6183 42.9514C26.1625 42.9514 27.4143 41.6996 27.4143 40.1554C27.4143 38.6112 26.1625 37.3594 24.6183 37.3594C23.0741 37.3594 21.8223 38.6112 21.8223 40.1554C21.8223 41.6996 23.0741 42.9514 24.6183 42.9514Z" fill="white" stroke="#000062" stroke-miterlimit="10"/>
<path id="Vector_17" d="M39.7663 22.2109H35.0803" stroke="#000062" stroke-miterlimit="10"/>
<path id="Vector_18" d="M39.7663 22.2109H35.0803" stroke="#000062" stroke-miterlimit="10"/>
<path id="Vector_19" d="M42.5624 25.0061C44.1065 25.0061 45.3584 23.7543 45.3584 22.2101C45.3584 20.6659 44.1065 19.4141 42.5624 19.4141C41.0182 19.4141 39.7664 20.6659 39.7664 22.2101C39.7664 23.7543 41.0182 25.0061 42.5624 25.0061Z" fill="white" stroke="#000062" stroke-miterlimit="10"/>
<path id="Vector_20" d="M9.47241 22.2109H14.1584" stroke="#000062" stroke-miterlimit="10"/>
<path id="Vector_21" d="M9.47241 22.2109H14.1584" stroke="#000062" stroke-miterlimit="10"/>
<path id="Vector_22" d="M6.67442 25.0061C8.21861 25.0061 9.47042 23.7543 9.47042 22.2101C9.47042 20.6659 8.21861 19.4141 6.67442 19.4141C5.13023 19.4141 3.87842 20.6659 3.87842 22.2101C3.87842 23.7543 5.13023 25.0061 6.67442 25.0061Z" fill="white" stroke="#000062" stroke-miterlimit="10"/>
<path id="Vector_23" d="M35.3304 32.9195L32.0164 29.6055" stroke="#000062" stroke-miterlimit="10"/>
<path id="Vector_24" d="M35.3304 32.9195L32.0164 29.6055" stroke="#000062" stroke-miterlimit="10"/>
<path id="Vector_25" d="M39.285 36.8755C40.3769 35.7836 40.3769 34.0133 39.285 32.9214C38.1931 31.8295 36.4227 31.8295 35.3308 32.9214C34.2389 34.0133 34.2389 35.7836 35.3308 36.8755C36.4227 37.9674 38.1931 37.9674 39.285 36.8755Z" fill="white" stroke="#000062" stroke-miterlimit="10"/>
<path id="Vector_26" d="M13.9084 11.5L17.2224 14.814" stroke="#000062" stroke-miterlimit="10"/>
<path id="Vector_27" d="M13.9084 11.5L17.2224 14.814" stroke="#000062" stroke-miterlimit="10"/>
<path id="Vector_28" d="M13.907 11.5005C14.9989 10.4086 14.9989 8.63827 13.907 7.54637C12.8151 6.45446 11.0448 6.45446 9.9529 7.54637C8.86099 8.63827 8.86099 10.4086 9.9529 11.5005C11.0448 12.5924 12.8151 12.5924 13.907 11.5005Z" fill="white" stroke="#000062" stroke-miterlimit="10"/>
<path id="Vector_29" d="M13.9084 32.9195L17.2224 29.6055" stroke="#000062" stroke-miterlimit="10"/>
<path id="Vector_30" d="M13.9084 32.9195L17.2224 29.6055" stroke="#000062" stroke-miterlimit="10"/>
<path id="Vector_31" d="M13.908 36.8755C14.9999 35.7836 14.9999 34.0133 13.908 32.9214C12.8161 31.8295 11.0458 31.8295 9.95388 32.9214C8.86197 34.0133 8.86197 35.7836 9.95388 36.8755C11.0458 37.9674 12.8161 37.9674 13.908 36.8755Z" fill="white" stroke="#000062" stroke-miterlimit="10"/>
<path id="Vector_32" d="M35.3304 11.5L32.0164 14.814" stroke="#000062" stroke-miterlimit="10"/>
<path id="Vector_33" d="M35.3304 11.5L32.0164 14.814" stroke="#000062" stroke-miterlimit="10"/>
<path id="Vector_34" d="M39.284 11.4966C40.3759 10.4047 40.3759 8.63437 39.284 7.54246C38.1921 6.45055 36.4218 6.45056 35.3299 7.54246C34.2379 8.63437 34.2379 10.4047 35.3299 11.4966C36.4218 12.5885 38.1921 12.5885 39.284 11.4966Z" fill="white" stroke="#000062" stroke-miterlimit="10"/>
</g>
</g>
</g>
</svg>
