<svg width="20" height="21" viewBox="0 0 20 21" fill="none" xmlns="http://www.w3.org/2000/svg">
<path d="M16.6668 10.9912V5.15788C16.6668 4.2374 15.9206 3.49121 15.0002 3.49121H5.00016C4.07969 3.49121 3.3335 4.2374 3.3335 5.15788V10.9912M16.6668 10.9912V15.1579C16.6668 16.0784 15.9206 16.8245 15.0002 16.8245H5.00016C4.07969 16.8245 3.3335 16.0784 3.3335 15.1579V10.9912M16.6668 10.9912H14.512C14.291 10.9912 14.079 11.079 13.9228 11.2353L11.9109 13.2471C11.7546 13.4034 11.5427 13.4912 11.3217 13.4912H8.67867C8.45766 13.4912 8.2457 13.4034 8.08942 13.2471L6.07757 11.2353C5.92129 11.079 5.70933 10.9912 5.48832 10.9912H3.3335" stroke="#7F92FF" stroke-width="1.5" stroke-linecap="round" stroke-linejoin="round"/>
</svg>
