<svg width="41" height="36" viewBox="0 0 41 36" fill="none" xmlns="http://www.w3.org/2000/svg">
<g id="main-shape">
<g id="vectors">
<g id="Vector">
<path d="M4.22801 31.1992L3.70599 33.4852C3.65271 33.7167 3.65236 33.9571 3.70497 34.1887C3.75757 34.4203 3.86181 34.6371 4.00985 34.8228C4.15789 35.0085 4.34591 35.1584 4.55995 35.2614C4.77399 35.3643 5.00853 35.4175 5.24603 35.4172H7.73002C8.05955 35.4172 8.38081 35.3142 8.64901 35.1228C8.91721 34.9313 9.11895 34.6609 9.22601 34.3492L10.306 31.1992" fill="white"/>
<path d="M4.22801 31.1992L3.70599 33.4852C3.65271 33.7167 3.65236 33.9571 3.70497 34.1887C3.75757 34.4203 3.86181 34.6371 4.00985 34.8228C4.15789 35.0085 4.34591 35.1584 4.55995 35.2614C4.77399 35.3643 5.00853 35.4175 5.24603 35.4172H7.73002C8.05955 35.4172 8.38081 35.3142 8.64901 35.1228C8.91721 34.9313 9.11895 34.6609 9.22601 34.3492L10.306 31.1992" stroke="#000062" stroke-miterlimit="10"/>
</g>
<g id="Vector_2">
<path d="M37.0968 31.1992L37.6188 33.4852C37.6717 33.7168 37.6718 33.9573 37.6189 34.1889C37.566 34.4205 37.4616 34.6372 37.3134 34.8228C37.1652 35.0085 36.9771 35.1584 36.763 35.2613C36.5489 35.3642 36.3144 35.4175 36.0768 35.4172H33.5948C33.2652 35.4178 32.9436 35.3151 32.6752 35.1235C32.4069 34.932 32.2053 34.6612 32.0988 34.3492L31.0188 31.1992" fill="white"/>
<path d="M37.0968 31.1992L37.6188 33.4852C37.6717 33.7168 37.6718 33.9573 37.6189 34.1889C37.566 34.4205 37.4616 34.6372 37.3134 34.8228C37.1652 35.0085 36.9771 35.1584 36.763 35.2613C36.5489 35.3642 36.3144 35.4175 36.0768 35.4172H33.5948C33.2652 35.4178 32.9436 35.3151 32.6752 35.1235C32.4069 34.932 32.2053 34.6612 32.0988 34.3492L31.0188 31.1992" stroke="#000062" stroke-miterlimit="10"/>
</g>
<path id="Vector_3" d="M13.8607 1.64453H7.91475C7.43205 1.64453 7.04077 2.03585 7.04077 2.51854V25.9505C7.04077 26.4332 7.43205 26.8245 7.91475 26.8245H13.8607C14.3434 26.8245 14.7348 26.4332 14.7348 25.9505V2.51854C14.7348 2.03585 14.3434 1.64453 13.8607 1.64453Z" fill="white" stroke="#000062" stroke-miterlimit="10"/>
<path id="Vector_4" d="M10.8881 7.51741C11.7375 7.51741 12.4261 6.82882 12.4261 5.97941C12.4261 5.12999 11.7375 4.44141 10.8881 4.44141C10.0387 4.44141 9.3501 5.12999 9.3501 5.97941C9.3501 6.82882 10.0387 7.51741 10.8881 7.51741Z" stroke="#000062" stroke-miterlimit="10"/>
<path id="Vector_5" d="M10.8892 10.1055V24.0255" stroke="#000062" stroke-miterlimit="10"/>
<path id="Vector_6" d="M21.5543 1.64453H15.6083C15.1257 1.64453 14.7344 2.03585 14.7344 2.51854V25.9505C14.7344 26.4332 15.1257 26.8245 15.6083 26.8245H21.5543C22.037 26.8245 22.4284 26.4332 22.4284 25.9505V2.51854C22.4284 2.03585 22.037 1.64453 21.5543 1.64453Z" fill="white" stroke="#000062" stroke-miterlimit="10"/>
<path id="Vector_7" d="M18.5819 7.51741C19.4313 7.51741 20.1199 6.82882 20.1199 5.97941C20.1199 5.12999 19.4313 4.44141 18.5819 4.44141C17.7325 4.44141 17.0439 5.12999 17.0439 5.97941C17.0439 6.82882 17.7325 7.51741 18.5819 7.51741Z" stroke="#000062" stroke-miterlimit="10"/>
<path id="Vector_8" d="M18.583 10.1055V24.0255" stroke="#000062" stroke-miterlimit="10"/>
<path id="Vector_9" d="M28.7801 0.945305L23.0924 2.67878C22.6307 2.81951 22.3704 3.3079 22.5112 3.76963L29.3424 26.1837C29.4832 26.6455 29.9716 26.9057 30.4333 26.7649L36.121 25.0315C36.5827 24.8907 36.8429 24.4024 36.7022 23.9406L29.8709 1.52654C29.7302 1.06481 29.2418 0.804582 28.7801 0.945305Z" fill="white" stroke="#000062" stroke-miterlimit="10"/>
<path id="Vector_10" d="M27.6509 7.79087C28.4634 7.54324 28.9214 6.6838 28.6737 5.87129C28.4261 5.05877 27.5667 4.60086 26.7541 4.84849C25.9416 5.09613 25.4837 5.95555 25.7313 6.76806C25.979 7.58058 26.8384 8.03851 27.6509 7.79087Z" stroke="#000062" stroke-miterlimit="10"/>
<path id="Vector_11" d="M28.4016 10.2852L32.4596 23.5992" stroke="#000062" stroke-miterlimit="10"/>
<g id="Vector_12">
<path d="M23.6363 31.1983H39.2363C39.7863 31.1983 40.2363 30.6703 40.2363 30.0203V27.9983C40.2363 27.3483 39.7903 26.8203 39.2363 26.8203H2.09229C1.54029 26.8203 1.09229 27.3483 1.09229 27.9983V30.0263C1.09229 30.6763 1.53829 31.2043 2.09229 31.2043H17.6923" fill="white"/>
<path d="M23.6363 31.1983H39.2363C39.7863 31.1983 40.2363 30.6703 40.2363 30.0203V27.9983C40.2363 27.3483 39.7903 26.8203 39.2363 26.8203H2.09229C1.54029 26.8203 1.09229 27.3483 1.09229 27.9983V30.0263C1.09229 30.6763 1.53829 31.2043 2.09229 31.2043H17.6923" stroke="#000062" stroke-miterlimit="10"/>
</g>
<path id="Vector_13" d="M20.6624 31.8873C21.0368 31.8873 21.3404 31.5837 21.3404 31.2093C21.3404 30.8348 21.0368 30.5312 20.6624 30.5312C20.2879 30.5312 19.9844 30.8348 19.9844 31.2093C19.9844 31.5837 20.2879 31.8873 20.6624 31.8873Z" fill="#000062"/>
<path id="Vector_14" d="M1.19385 29.0156H10.9878" stroke="#000062" stroke-miterlimit="10"/>
<path id="Vector_15" d="M12.1282 29.0156H14.1282" stroke="#000062" stroke-miterlimit="10"/>
</g>
</g>
</svg>
