<svg width="46" height="39" viewBox="0 0 46 39" fill="none" xmlns="http://www.w3.org/2000/svg">
<g id="main-shape">
<g id="vectors">
<g id="Vector">
<path d="M18.7246 36.4755H42.6948C43.0407 36.4739 43.38 36.3805 43.678 36.2048C43.9759 36.0291 44.2219 35.7775 44.3908 35.4757C44.5597 35.1738 44.6455 34.8326 44.6393 34.4867C44.6331 34.1409 44.5352 33.8029 44.3557 33.5072L24.5836 1.52879C24.4089 1.24537 24.1645 1.01137 23.8738 0.849068C23.5831 0.686767 23.2557 0.601563 22.9227 0.601563C22.5898 0.601562 22.2624 0.686767 21.9717 0.849068C21.681 1.01137 21.4366 1.24537 21.2619 1.52879L1.49266 33.5072C1.30942 33.8032 1.20854 34.1427 1.20048 34.4906C1.19241 34.8386 1.27744 35.1824 1.44677 35.4865C1.61611 35.7906 1.8636 36.044 2.16366 36.2204C2.46371 36.3968 2.80544 36.4898 3.15351 36.4899H6.7999" fill="white"/>
<path d="M18.7246 36.4755H42.6948C43.0407 36.4739 43.38 36.3805 43.678 36.2048C43.9759 36.0291 44.2219 35.7775 44.3908 35.4757C44.5597 35.1738 44.6455 34.8325 44.6393 34.4867C44.6331 34.1409 44.5352 33.8029 44.3557 33.5072L24.5836 1.52879C24.4089 1.24537 24.1645 1.01137 23.8738 0.849068C23.5831 0.686767 23.2557 0.601563 22.9227 0.601563C22.5898 0.601562 22.2624 0.686767 21.9717 0.849068C21.681 1.01137 21.4366 1.24537 21.2619 1.52879L1.49266 33.5072C1.30942 33.8032 1.20854 34.1427 1.20048 34.4906C1.19241 34.8386 1.27744 35.1824 1.44677 35.4865C1.61611 35.7906 1.8636 36.044 2.16366 36.2204C2.46371 36.3968 2.80544 36.4898 3.15351 36.4899H6.7999" stroke="#000062" stroke-miterlimit="10"/>
</g>
<path id="Vector_2" d="M24.1364 11.9079C24.1364 11.2382 23.5942 10.6953 22.9253 10.6953C22.2564 10.6953 21.7141 11.2382 21.7141 11.9079V25.0654C21.7141 25.7351 22.2564 26.2779 22.9253 26.2779C23.5942 26.2779 24.1364 25.7351 24.1364 25.0654V11.9079Z" fill="#000062"/>
<path id="Vector_3" d="M22.9267 31.0814C23.5964 31.0814 24.1393 30.5385 24.1393 29.8688C24.1393 29.1991 23.5964 28.6562 22.9267 28.6562C22.257 28.6562 21.7141 29.1991 21.7141 29.8688C21.7141 30.5385 22.257 31.0814 22.9267 31.0814Z" fill="#000062"/>
<path id="Vector_4" d="M12.8343 38.0797C13.7214 38.0797 14.4406 37.3606 14.4406 36.4735C14.4406 35.5863 13.7214 34.8672 12.8343 34.8672C11.9472 34.8672 11.228 35.5863 11.228 36.4735C11.228 37.3606 11.9472 38.0797 12.8343 38.0797Z" stroke="#000062"/>
<path id="Vector_5" d="M43.0262 32.2969H32.9031" stroke="#000062" stroke-miterlimit="10"/>
<path id="Vector_6" d="M28.9983 32.2969H31.6562" stroke="#000062" stroke-miterlimit="10"/>
</g>
</g>
</svg>
