<svg width="56" height="56" viewBox="0 0 56 56" fill="none" xmlns="http://www.w3.org/2000/svg">
<g clip-path="url(#clip0_12840_3101)">
<path d="M39.6507 38.769C41.213 39.4453 42.9121 39.7461 44.6117 39.6475C46.3113 39.5488 47.9641 39.0534 49.4377 38.2009C50.9113 37.3483 52.1647 36.1625 53.0975 34.7383C54.0302 33.3141 54.6163 31.6912 54.8089 29.9997C55.0014 28.3082 54.795 26.5951 54.2062 24.9977C53.6174 23.4003 52.6625 21.9631 51.4182 20.8012C50.1739 19.6393 48.6747 18.7851 47.0407 18.307C45.4068 17.8289 43.6836 17.7402 42.0092 18.0481C41.3892 14.2172 39.3466 10.7613 36.2896 8.37073C33.2325 5.98018 29.3861 4.83103 25.5187 5.15285C21.6513 5.47467 18.0477 7.24377 15.4279 10.1067C12.808 12.9697 11.3647 16.7157 11.3864 20.5964C11.1995 20.6398 11.0133 20.6887 10.8279 20.7428C9.3913 21.1569 8.05523 21.8621 6.90283 22.8147C5.75042 23.7672 4.80634 24.9467 4.12928 26.2798C3.45223 27.6128 3.05669 29.0709 2.96727 30.5633C2.87786 32.0558 3.09647 33.5507 3.60952 34.955C4.12257 36.3593 4.91907 37.6431 5.9495 38.7264C6.97993 39.8098 8.22223 40.6695 9.59914 41.2522C10.9761 41.8348 12.4581 42.1279 13.9532 42.1133C15.4482 42.0987 16.9243 41.7766 18.2895 41.167L18.317 41.2612C19.0401 43.7317 20.6142 45.8665 22.7606 47.2874C24.9069 48.7084 27.4869 49.3238 30.0436 49.0246C32.6002 48.7255 34.9685 47.531 36.7288 45.6529C38.4891 43.7748 39.5278 41.3343 39.661 38.7636L39.6507 38.769Z" fill="#DFE4FF"/>
<path d="M45.2798 7.80078H13.9438C13.6959 7.80025 13.4579 7.89808 13.2821 8.07281C13.1062 8.24754 13.0069 8.48489 13.0058 8.73278L12.9838 12.6908H10.5838C10.4097 12.69 10.2372 12.7237 10.0762 12.7899C9.9152 12.8562 9.76893 12.9537 9.64582 13.0768C9.52272 13.1999 9.42523 13.3462 9.35897 13.5072C9.29271 13.6682 9.25901 13.8407 9.2598 14.0148V17.5808H7.1178C6.76825 17.5808 6.43301 17.7196 6.18584 17.9668C5.93866 18.214 5.7998 18.5492 5.7998 18.8988V44.0288C5.80179 45.0807 6.19601 46.0941 6.90541 46.8708C7.61481 47.6475 8.58838 48.1317 9.6358 48.2288H9.5538C9.6378 48.2288 9.7238 48.2388 9.8098 48.2388H45.2798C45.4029 48.239 45.5248 48.215 45.6386 48.1681C45.7524 48.1212 45.8558 48.0523 45.943 47.9653C46.0301 47.8784 46.0992 47.7751 46.1464 47.6614C46.1935 47.5477 46.2178 47.4259 46.2178 47.3028V8.73878C46.2178 8.49001 46.119 8.25143 45.9431 8.07552C45.7672 7.89961 45.5286 7.80078 45.2798 7.80078Z" fill="white"/>
<path d="M50.1885 34.7148V35.5588H50.1205C50.0138 35.5497 49.9145 35.5004 49.8428 35.4208C49.7712 35.3413 49.7324 35.2374 49.7345 35.1304C49.7365 35.0233 49.7792 34.921 49.8538 34.8442C49.9284 34.7674 50.0295 34.7219 50.1365 34.7168L50.1885 34.7148Z" fill="white"/>
<path d="M9.40381 17.6808H6.73581C6.48807 17.6813 6.2506 17.7798 6.07524 17.9548C5.89988 18.1298 5.80086 18.3671 5.79981 18.6148V44.7488C5.79928 45.2093 5.88961 45.6655 6.06561 46.0911C6.24162 46.5167 6.49985 46.9034 6.82552 47.2291C7.15118 47.5547 7.53789 47.813 7.9635 47.989C8.3891 48.165 8.84524 48.2553 9.30581 48.2548C9.38981 48.2548 9.47181 48.2548 9.55381 48.2448C10.4354 48.1828 11.2609 47.7899 11.8651 47.1449C12.4693 46.5 12.8074 45.6505 12.8118 44.7668L13.0118 8.73278C13.0129 8.48489 13.1122 8.24754 13.2881 8.07281C13.4639 7.89808 13.7019 7.80025 13.9498 7.80078H45.2798C45.5286 7.80078 45.7672 7.89961 45.9431 8.07552C46.119 8.25143 46.2178 8.49001 46.2178 8.73878V47.3188C46.2178 47.4419 46.1935 47.5638 46.1464 47.6774C46.0992 47.7911 46.0301 47.8944 45.943 47.9813C45.8558 48.0683 45.7524 48.1372 45.6386 48.1841C45.5248 48.231 45.4029 48.255 45.2798 48.2548H9.11581" stroke="#000062" stroke-miterlimit="10"/>
<path d="M9.26074 44.1468V13.5708C9.26074 13.322 9.35957 13.0835 9.53548 12.9075C9.71139 12.7316 9.94997 12.6328 10.1987 12.6328H12.9827" stroke="#000062" stroke-miterlimit="10"/>
<path d="M31.026 11.9102H42C42.0572 11.9099 42.1138 11.9209 42.1667 11.9426C42.2196 11.9643 42.2677 11.9962 42.3082 12.0366C42.3487 12.0769 42.3809 12.1248 42.4028 12.1776C42.4247 12.2304 42.436 12.287 42.436 12.3442V16.9582C42.436 17.0727 42.3905 17.1826 42.3095 17.2636C42.2285 17.3446 42.1186 17.3902 42.004 17.3902H17.204C17.0893 17.3902 16.9792 17.3447 16.8978 17.2638C16.8165 17.1828 16.7705 17.0729 16.77 16.9582V12.3442C16.77 12.2291 16.8157 12.1187 16.8971 12.0373C16.9785 11.9559 17.0889 11.9102 17.204 11.9102H28.178" fill="white"/>
<path d="M31.026 11.9102H42C42.0572 11.9099 42.1138 11.9209 42.1667 11.9426C42.2196 11.9643 42.2677 11.9962 42.3082 12.0366C42.3487 12.0769 42.3809 12.1248 42.4028 12.1776C42.4247 12.2304 42.436 12.287 42.436 12.3442V16.9582C42.436 17.0727 42.3905 17.1826 42.3095 17.2636C42.2285 17.3446 42.1186 17.3902 42.004 17.3902H17.204C17.0893 17.3902 16.9792 17.3447 16.8978 17.2638C16.8165 17.1828 16.7705 17.0729 16.77 16.9582V12.3442C16.77 12.2291 16.8157 12.1187 16.8971 12.0373C16.9785 11.9559 17.0889 11.9102 17.204 11.9102H28.178" stroke="#000062" stroke-miterlimit="10"/>
<path d="M26.0078 22.0938H43.1878" stroke="#000062" stroke-miterlimit="10"/>
<path d="M33.6343 26.4453H43.1883" stroke="#000062" stroke-miterlimit="10"/>
<path d="M26.0078 30.7969H43.1878" stroke="#000062" stroke-miterlimit="10"/>
<path d="M36.6436 35.1523H43.1876" stroke="#000062" stroke-miterlimit="10"/>
<path d="M25.4141 39.5039H43.1881" stroke="#000062" stroke-miterlimit="10"/>
<path d="M17.9141 43.8555H43.1881" stroke="#000062" stroke-miterlimit="10"/>
<path d="M31.8318 26.4447L18.8125 26.4805" stroke="#000062" stroke-miterlimit="10"/>
<path d="M33.6341 35.1523H17.9141" stroke="#000062" stroke-miterlimit="10"/>
<path d="M23.5381 39.5039H17.9141" stroke="#000062" stroke-miterlimit="10"/>
<path d="M29.5958 12.4143C29.8741 12.4143 30.0998 12.1886 30.0998 11.9103C30.0998 11.6319 29.8741 11.4062 29.5958 11.4062C29.3174 11.4062 29.0918 11.6319 29.0918 11.9103C29.0918 12.1886 29.3174 12.4143 29.5958 12.4143Z" fill="#000062"/>
<path d="M31.026 11.9102H42C42.0572 11.9099 42.1138 11.9209 42.1667 11.9426C42.2196 11.9643 42.2677 11.9962 42.3082 12.0366C42.3487 12.0769 42.3809 12.1248 42.4028 12.1776C42.4247 12.2304 42.436 12.287 42.436 12.3442V16.9582C42.436 17.0727 42.3905 17.1826 42.3095 17.2636C42.2285 17.3446 42.1186 17.3902 42.004 17.3902H17.204C17.0893 17.3902 16.9792 17.3447 16.8978 17.2638C16.8165 17.1828 16.7705 17.0729 16.77 16.9582V12.3442C16.77 12.2291 16.8157 12.1187 16.8971 12.0373C16.9785 11.9559 17.0889 11.9102 17.204 11.9102H28.178" fill="white"/>
<path d="M31.026 11.9102H42C42.0572 11.9099 42.1138 11.9209 42.1667 11.9426C42.2196 11.9643 42.2677 11.9962 42.3082 12.0366C42.3487 12.0769 42.3809 12.1248 42.4028 12.1776C42.4247 12.2304 42.436 12.287 42.436 12.3442V16.9582C42.436 17.0727 42.3905 17.1826 42.3095 17.2636C42.2285 17.3446 42.1186 17.3902 42.004 17.3902H17.204C17.0893 17.3902 16.9792 17.3447 16.8978 17.2638C16.8165 17.1828 16.7705 17.0729 16.77 16.9582V12.3442C16.77 12.2291 16.8157 12.1187 16.8971 12.0373C16.9785 11.9559 17.0889 11.9102 17.204 11.9102H28.178" stroke="#7F92FF" stroke-miterlimit="10"/>
<path d="M26.0073 22.0938H43.1873" stroke="#7F92FF" stroke-miterlimit="10"/>
<path d="M33.6343 26.4453H43.1883" stroke="#7F92FF" stroke-miterlimit="10"/>
<path d="M26.0073 30.7969H43.1873" stroke="#7F92FF" stroke-miterlimit="10"/>
<path d="M36.6436 35.1484H43.1876" stroke="#7F92FF" stroke-miterlimit="10"/>
<path d="M25.4136 39.5039H43.1876" stroke="#7F92FF" stroke-miterlimit="10"/>
<path d="M17.9136 43.8555H43.1876" stroke="#7F92FF" stroke-miterlimit="10"/>
<path d="M31.8313 26.4447L18.812 26.4805" stroke="#7F92FF" stroke-miterlimit="10"/>
<path d="M33.6336 35.1484H17.9136" stroke="#7F92FF" stroke-miterlimit="10"/>
<path d="M23.5376 39.5039H17.9136" stroke="#7F92FF" stroke-miterlimit="10"/>
<path d="M29.5958 12.4143C29.8741 12.4143 30.0998 12.1886 30.0998 11.9103C30.0998 11.6319 29.8741 11.4062 29.5958 11.4062C29.3174 11.4062 29.0918 11.6319 29.0918 11.9103C29.0918 12.1886 29.3174 12.4143 29.5958 12.4143Z" fill="#7F92FF"/>
</g>
<defs>
<clipPath id="clip0_12840_3101">
<rect width="56" height="56" fill="white"/>
</clipPath>
</defs>
</svg>
