<svg width="30" height="34" viewBox="0 0 30 34" fill="none" xmlns="http://www.w3.org/2000/svg">
<g id="main-shape">
<g id="vectors">
<path id="Vector" d="M18.5242 29.9391L18.7579 29.2734H18.0524H9.14844H8.44294L8.67668 29.9391C9.3891 31.968 11.3315 33.4234 13.6004 33.4234C15.8694 33.4234 17.8118 31.968 18.5242 29.9391Z" fill="white" stroke="#000062"/>
<path id="Vector_2" d="M23.0251 18.9258V18.4258H22.5251H4.67505H4.17505V18.9258V22.0758V22.5758H4.67505H22.5251H23.0251V22.0758V18.9258Z" fill="white" stroke="#000062"/>
<path id="Vector_3" d="M23.0251 17.1672V16.6801L22.5381 16.6674C19.3219 16.5834 16.7251 13.9409 16.7251 10.6992C16.7251 9.58807 17.0282 8.55594 17.5579 7.66463L17.8487 7.17526L17.3259 6.95002C17.1025 6.85377 16.8763 6.76726 16.6474 6.6897C17.1308 6.05435 17.4251 5.26284 17.4251 4.39922C17.4251 2.28908 15.7102 0.574219 13.6 0.574219C11.4899 0.574219 9.77505 2.28908 9.77505 4.39922C9.77505 5.26318 10.0695 6.05498 10.5532 6.69046C6.84909 7.95646 4.17505 11.4641 4.17505 15.5992V17.8742V18.3742H4.67505H22.5251H23.0251V17.8742V17.1672ZM13.6 6.17422C12.6232 6.17422 11.825 5.37606 11.825 4.39922C11.825 3.42234 12.6232 2.62422 13.6 2.62422C14.5769 2.62422 15.3751 3.42234 15.3751 4.39922C15.3751 5.37606 14.5769 6.17422 13.6 6.17422Z" fill="white" stroke="#000062"/>
<path id="Vector_4" d="M24.8559 23.4607L24.8555 23.4603L23.8777 22.7253L23.7442 22.625H23.5773H3.62274H3.45577L3.3223 22.7253L2.34455 23.4603L2.34455 23.4603L2.34406 23.4607C1.73638 23.9187 1.375 24.6402 1.375 25.4V26.8C1.375 28.1401 2.45984 29.225 3.8 29.225H23.4C24.7402 29.225 25.825 28.1401 25.825 26.8V25.4C25.825 24.6402 25.4636 23.9187 24.8559 23.4607Z" fill="white" stroke="#000062"/>
<path id="Vector_5" d="M25.1675 8.96607L25.5195 9.31806L25.1675 8.96611L25.1674 8.96623L25.1669 8.96671L25.1661 8.9675L25.165 8.96861L25.1575 8.97611L25.1283 9.00535L25.0173 9.11636L24.621 9.51258L23.4185 10.7151L21.6675 12.4661C21.664 12.4696 21.6588 12.4726 21.65 12.4726C21.641 12.4725 21.6355 12.4693 21.6323 12.4661C21.6323 12.4661 21.6323 12.4661 21.6323 12.4661L20.2323 11.0661C20.2224 11.0563 20.2224 11.0406 20.2323 11.0308C20.2421 11.021 20.2577 11.021 20.2675 11.0308L21.2963 12.0596L21.6499 12.4132L22.0035 12.0596L25.1323 8.9308C25.1421 8.92098 25.1577 8.92098 25.1675 8.93079C25.1774 8.9406 25.1774 8.95625 25.1675 8.96607ZM22.6999 4.77344C19.4324 4.77344 16.7749 7.43089 16.7749 10.6984C16.7749 13.966 19.4324 16.6234 22.6999 16.6234C25.9675 16.6234 28.6249 13.966 28.6249 10.6984C28.6249 7.43089 25.9675 4.77344 22.6999 4.77344Z" fill="white" stroke="#000062"/>
</g>
</g>
</svg>
