<svg width="56" height="56" viewBox="0 0 56 56" fill="none" xmlns="http://www.w3.org/2000/svg">
<path d="M20.9896 39.7481C22.1656 39.1878 23.2359 38.4286 24.1536 37.5041C24.1028 40.1006 24.7976 42.6571 26.1557 44.8706C27.5138 47.0842 29.4782 48.8618 31.8159 49.9927C34.1537 51.1237 36.7667 51.5605 39.3452 51.2514C41.9237 50.9422 44.3594 49.9002 46.3636 48.2487C48.3678 46.5972 49.8563 44.4056 50.6527 41.9338C51.4491 39.462 51.52 36.8137 50.8569 34.3028C50.1937 31.792 48.8245 29.5239 46.9114 27.7677C44.9984 26.0114 42.6219 24.8406 40.0636 24.3941C41.0414 22.9012 41.6531 21.1985 41.8487 19.4246C42.0443 17.6507 41.8185 15.8557 41.1894 14.1855C40.5604 12.5154 39.546 11.0174 38.2288 9.81325C36.9115 8.60914 35.3286 7.73299 33.6089 7.25608C31.8891 6.77916 30.0811 6.71496 28.3318 7.06869C26.5825 7.42241 24.9415 8.18408 23.5422 9.29172C22.1428 10.3994 21.0247 11.8217 20.2788 13.443C19.5329 15.0643 19.1803 16.8388 19.2496 18.6221C17.4858 18.1134 15.6249 18.0406 13.8268 18.41C12.0287 18.7794 10.3472 19.5799 8.92689 20.7427C7.50653 21.9056 6.38981 23.3959 5.67272 25.0857C4.95564 26.7755 4.65963 28.6142 4.81015 30.4436C4.96067 32.2731 5.55322 34.0386 6.53685 35.5885C7.52049 37.1384 8.86578 38.4262 10.4571 39.3412C12.0484 40.2563 13.8381 40.7712 15.6724 40.8417C17.5067 40.9122 19.3307 40.5363 20.9876 39.7461L20.9896 39.7481Z" fill="#DFE4FF"/>
<path d="M44.8253 39.9924C46.4239 37.4286 47.2425 34.4552 47.1813 31.4344C47.0293 23.1544 40.3233 16.3484 32.0493 16.0864C29.9098 16.0167 27.7788 16.3865 25.788 17.1732C23.7972 17.9598 21.9889 19.1465 20.475 20.6598C18.9611 22.1732 17.7737 23.981 16.9863 25.9715C16.199 27.9621 15.8283 30.093 15.8973 32.2324C16.1613 40.6064 23.1133 47.3544 31.4973 47.3784C34.1088 47.3889 36.681 46.7424 38.9773 45.4984C39.441 45.252 39.96 45.1282 40.4851 45.1387C41.0101 45.1492 41.5238 45.2937 41.9773 45.5584L44.0533 46.7584C44.201 46.8438 44.3707 46.8837 44.541 46.873C44.7113 46.8623 44.8746 46.8016 45.0105 46.6984C45.1464 46.5952 45.2487 46.4541 45.3048 46.293C45.3608 46.1318 45.3679 45.9577 45.3253 45.7924L44.4633 42.3924C44.3586 41.9887 44.3367 41.5679 44.399 41.1554C44.4612 40.743 44.6062 40.3474 44.8253 39.9924Z" fill="white"/>
<path d="M10.7591 32.5159C9.16079 29.9526 8.34224 26.98 8.40306 23.9599C8.55306 15.6779 15.2611 8.87388 23.5391 8.60988C25.6785 8.5401 27.8095 8.90997 29.8004 9.69661C31.7912 10.4833 33.5994 11.6699 35.1134 13.1833C36.6273 14.6966 37.8146 16.5045 38.602 18.495C39.3894 20.4855 39.76 22.6164 39.6911 24.7559C39.4271 33.1299 32.4751 39.8779 24.0911 39.9019C21.476 39.9134 18.9001 39.2662 16.6011 38.0199C16.1373 37.7735 15.6183 37.6496 15.0933 37.6601C14.5682 37.6706 14.0546 37.8151 13.6011 38.0799L11.5251 39.2799C11.3765 39.3643 11.2063 39.4028 11.0359 39.3907C10.8655 39.3786 10.7025 39.3164 10.5674 39.2118C10.4323 39.1073 10.3311 38.9651 10.2766 38.8032C10.2221 38.6413 10.2167 38.4669 10.2611 38.3019L11.1231 34.9019C11.2255 34.5001 11.246 34.0818 11.1835 33.6719C11.121 33.262 10.9766 32.8689 10.7591 32.5159Z" fill="white" stroke="#000062" stroke-miterlimit="10"/>
<path d="M17.625 38.5231C18.5575 40.4051 19.8595 42.0799 21.4535 43.4476C23.0475 44.8154 24.9007 45.8479 26.9024 46.4837C28.9042 47.1195 31.0136 47.3454 33.1046 47.1481C35.1957 46.9508 37.2255 46.3342 39.073 45.3351C39.5367 45.0887 40.0558 44.9649 40.5808 44.9754C41.1058 44.9859 41.6195 45.1304 42.073 45.3951L44.149 46.5851C44.2967 46.6699 44.4661 46.7093 44.636 46.6986C44.806 46.6878 44.969 46.6272 45.1048 46.5245C45.2406 46.4217 45.3432 46.2813 45.3998 46.1207C45.4564 45.96 45.4644 45.7863 45.423 45.6211L44.559 42.2211C44.455 41.8172 44.4336 41.3964 44.4961 40.984C44.5587 40.5716 44.7039 40.1761 44.923 39.8211C46.2657 37.6729 47.0641 35.2297 47.249 32.7031" stroke="#000062" stroke-miterlimit="10"/>
<path d="M47.1825 29.8043C46.8659 27.117 45.8622 24.5566 44.2683 22.37C42.6744 20.1833 40.544 18.4442 38.0825 17.3203" stroke="#000062" stroke-miterlimit="10"/>
<path d="M21.2487 14.1484C19.545 14.1484 17.911 14.8253 16.7063 16.03C15.5015 17.2347 14.8247 18.8687 14.8247 20.5724V21.5044" stroke="#000062" stroke-miterlimit="10"/>
<path d="M47.2422 31.7334C47.5073 31.7334 47.7222 31.5185 47.7222 31.2534C47.7222 30.9883 47.5073 30.7734 47.2422 30.7734C46.9771 30.7734 46.7622 30.9883 46.7622 31.2534C46.7622 31.5185 46.9771 31.7334 47.2422 31.7334Z" fill="#000062"/>
<path d="M26.4488 22.5754L26.8008 22.9274L26.4487 22.5755L26.4486 22.5756L26.4482 22.5761L26.4474 22.5769L26.4463 22.578L26.4388 22.5855L26.4095 22.6147L26.2985 22.7257L25.9023 23.122L24.6998 24.3245L22.9488 26.0754C22.9453 26.079 22.9401 26.0819 22.9313 26.0819C22.9222 26.0819 22.9168 26.0787 22.9135 26.0754C22.9135 26.0754 22.9135 26.0754 22.9135 26.0754L21.5135 24.6754C21.5037 24.6656 21.5037 24.65 21.5135 24.6402C21.5233 24.6304 21.539 24.6304 21.5488 24.6402L22.5776 25.669L22.9312 26.0225L23.2847 25.669L26.4135 22.5402C26.4233 22.5304 26.439 22.5304 26.4488 22.5402C26.4586 22.55 26.4586 22.5656 26.4488 22.5754ZM23.9812 18.3828C20.7136 18.3828 18.0562 21.0403 18.0562 24.3078C18.0562 27.5754 20.7136 30.2328 23.9812 30.2328C27.2487 30.2328 29.9062 27.5754 29.9062 24.3078C29.9062 21.0403 27.2487 18.3828 23.9812 18.3828Z" fill="white" stroke="#7F92FF"/>
<path d="M26.4488 22.5754L26.8008 22.9274L26.4487 22.5755L26.4486 22.5756L26.4482 22.5761L26.4474 22.5769L26.4463 22.578L26.4388 22.5855L26.4095 22.6147L26.2985 22.7257L25.9023 23.122L24.6998 24.3245L22.9488 26.0754C22.9453 26.079 22.9401 26.0819 22.9313 26.0819C22.9222 26.0819 22.9168 26.0787 22.9135 26.0754C22.9135 26.0754 22.9135 26.0754 22.9135 26.0754L21.5135 24.6754C21.5037 24.6656 21.5037 24.65 21.5135 24.6402C21.5233 24.6304 21.539 24.6304 21.5488 24.6402L22.5776 25.669L22.9312 26.0225L23.2847 25.669L26.4135 22.5402C26.4233 22.5304 26.439 22.5304 26.4488 22.5402C26.4586 22.55 26.4586 22.5656 26.4488 22.5754ZM23.9812 18.3828C20.7136 18.3828 18.0562 21.0403 18.0562 24.3078C18.0562 27.5754 20.7136 30.2328 23.9812 30.2328C27.2487 30.2328 29.9062 27.5754 29.9062 24.3078C29.9062 21.0403 27.2487 18.3828 23.9812 18.3828Z" fill="white" stroke="#1E293B"/>
<path d="M26.4488 22.5754L26.8008 22.9274L26.4487 22.5755L26.4486 22.5756L26.4482 22.5761L26.4474 22.5769L26.4463 22.578L26.4388 22.5855L26.4095 22.6147L26.2985 22.7257L25.9023 23.122L24.6998 24.3245L22.9488 26.0754C22.9453 26.079 22.9401 26.0819 22.9313 26.0819C22.9222 26.0819 22.9168 26.0787 22.9135 26.0754C22.9135 26.0754 22.9135 26.0754 22.9135 26.0754L21.5135 24.6754C21.5037 24.6656 21.5037 24.65 21.5135 24.6402C21.5233 24.6304 21.539 24.6304 21.5488 24.6402L22.5776 25.669L22.9312 26.0225L23.2847 25.669L26.4135 22.5402C26.4233 22.5304 26.439 22.5304 26.4488 22.5402C26.4586 22.55 26.4586 22.5656 26.4488 22.5754ZM23.9812 18.3828C20.7136 18.3828 18.0562 21.0403 18.0562 24.3078C18.0562 27.5754 20.7136 30.2328 23.9812 30.2328C27.2487 30.2328 29.9062 27.5754 29.9062 24.3078C29.9062 21.0403 27.2487 18.3828 23.9812 18.3828Z" fill="white" stroke="#7F92FF"/>
<path d="M21.2487 14.1484C19.545 14.1484 17.911 14.8253 16.7063 16.03C15.5015 17.2347 14.8247 18.8687 14.8247 20.5724V21.5044" stroke="#7F92FF" stroke-miterlimit="10"/>
</svg>
