<svg width="46" height="33" viewBox="0 0 46 33" fill="none" xmlns="http://www.w3.org/2000/svg">
<g id="main-shape">
<g id="vectors">
<path id="Vector" d="M42.9868 3.99609H3.38998C2.27794 3.99609 1.37646 4.89757 1.37646 6.00961V30.1762C1.37646 31.2882 2.27794 32.1897 3.38998 32.1897H42.9868C44.0988 32.1897 45.0003 31.2882 45.0003 30.1762V6.00961C45.0003 4.89757 44.0988 3.99609 42.9868 3.99609Z" fill="white"/>
<path id="Vector_2" d="M35.8915 3.99609H33.4932" stroke="#000062" stroke-miterlimit="10"/>
<path id="Vector_3" d="M30.1368 3.99609H27.7407" stroke="#000062" stroke-miterlimit="10"/>
<path id="Vector_4" d="M12.8812 3.99609H10.4829" stroke="#000062" stroke-miterlimit="10"/>
<path id="Vector_5" d="M24.3868 3.99609H21.9907" stroke="#000062" stroke-miterlimit="10"/>
<path id="Vector_6" d="M7.1284 3.99609H3.21994C2.7312 3.99669 2.26266 4.1911 1.91707 4.5367C1.57147 4.88229 1.37706 5.35084 1.37646 5.83958V30.3485C1.37646 30.5905 1.42417 30.8301 1.51684 31.0536C1.60951 31.2772 1.74534 31.4802 1.91655 31.6512C2.08776 31.8222 2.291 31.9578 2.51465 32.0502C2.7383 32.1426 2.97796 32.19 3.21994 32.1897H7.73916" stroke="#000062" stroke-miterlimit="10"/>
<path id="Vector_7" d="M39.247 3.99609H43.1555C43.6443 3.99669 44.1128 4.1911 44.4584 4.5367C44.804 4.88229 44.9984 5.35084 44.999 5.83958V30.3485C44.999 30.5905 44.9513 30.8301 44.8586 31.0536C44.7659 31.2772 44.6301 31.4802 44.4589 31.6512C44.2877 31.8222 44.0844 31.9578 43.8608 32.0502C43.6371 32.1426 43.3975 32.19 43.1555 32.1897H14.4048" stroke="#000062" stroke-miterlimit="10"/>
<path id="Vector_8" d="M18.6332 3.99609H16.2349" stroke="#000062" stroke-miterlimit="10"/>
<path id="Vector_9" d="M9.60134 1.11719H8.00842C7.5216 1.11719 7.12695 1.51184 7.12695 1.99866V5.99436C7.12695 6.48118 7.5216 6.87583 8.00842 6.87583H9.60134C10.0882 6.87583 10.4828 6.48118 10.4828 5.99436V1.99866C10.4828 1.51184 10.0882 1.11719 9.60134 1.11719Z" stroke="#000062" stroke-miterlimit="10"/>
<path id="Vector_10" d="M15.3533 1.11719H13.7604C13.2736 1.11719 12.8789 1.51184 12.8789 1.99866V5.99436C12.8789 6.48118 13.2736 6.87583 13.7604 6.87583H15.3533C15.8401 6.87583 16.2348 6.48118 16.2348 5.99436V1.99866C16.2348 1.51184 15.8401 1.11719 15.3533 1.11719Z" fill="white" stroke="#000062" stroke-miterlimit="10"/>
<path id="Vector_11" d="M21.1091 1.11719H19.5162C19.0294 1.11719 18.6348 1.51184 18.6348 1.99866V5.99436C18.6348 6.48118 19.0294 6.87583 19.5162 6.87583H21.1091C21.596 6.87583 21.9906 6.48118 21.9906 5.99436V1.99866C21.9906 1.51184 21.596 1.11719 21.1091 1.11719Z" fill="white" stroke="#000062" stroke-miterlimit="10"/>
<path id="Vector_12" d="M26.8596 1.11719H25.2667C24.7799 1.11719 24.3853 1.51184 24.3853 1.99866V5.99436C24.3853 6.48118 24.7799 6.87583 25.2667 6.87583H26.8596C27.3465 6.87583 27.7411 6.48118 27.7411 5.99436V1.99866C27.7411 1.51184 27.3465 1.11719 26.8596 1.11719Z" fill="white" stroke="#000062" stroke-miterlimit="10"/>
<path id="Vector_13" d="M32.6116 1.11719H31.0187C30.5319 1.11719 30.1372 1.51184 30.1372 1.99866V5.99436C30.1372 6.48118 30.5319 6.87583 31.0187 6.87583H32.6116C33.0984 6.87583 33.4931 6.48118 33.4931 5.99436V1.99866C33.4931 1.51184 33.0984 1.11719 32.6116 1.11719Z" fill="white" stroke="#000062" stroke-miterlimit="10"/>
<path id="Vector_14" d="M38.3635 1.11719H36.7706C36.2838 1.11719 35.8892 1.51184 35.8892 1.99866V5.99436C35.8892 6.48118 36.2838 6.87583 36.7706 6.87583H38.3635C38.8504 6.87583 39.245 6.48118 39.245 5.99436V1.99866C39.245 1.51184 38.8504 1.11719 38.3635 1.11719Z" fill="white" stroke="#000062" stroke-miterlimit="10"/>
<path id="Vector_15" d="M11.1417 32.9465C11.5606 32.9465 11.9001 32.607 11.9001 32.1881C11.9001 31.7692 11.5606 31.4297 11.1417 31.4297C10.7229 31.4297 10.3833 31.7692 10.3833 32.1881C10.3833 32.607 10.7229 32.9465 11.1417 32.9465Z" fill="#000062"/>
<path id="Vector_16" d="M39.2017 26.4008V12.6008C39.2017 12.159 38.8435 11.8008 38.4017 11.8008H8.00166C7.55983 11.8008 7.20166 12.159 7.20166 12.6008V26.4008C7.20166 26.8426 7.55983 27.2008 8.00166 27.2008H38.4017C38.8435 27.2008 39.2017 26.8426 39.2017 26.4008Z" fill="white" stroke="#000062" stroke-miterlimit="10" stroke-linejoin="round"/>
<path id="Vector_17" d="M28.8013 11.582V27.4396" stroke="#000062" stroke-miterlimit="10"/>
<path id="Vector_18" d="M34.2017 11.582V27.4396" stroke="#000062" stroke-miterlimit="10"/>
<path id="Vector_19" d="M7.20166 15.3984H39.4017" stroke="#000062" stroke-miterlimit="10"/>
<path id="Vector_20" d="M7.20166 19.1992H39.4017" stroke="#000062" stroke-miterlimit="10"/>
<path id="Vector_21" d="M7.20166 23H39.4017" stroke="#000062" stroke-miterlimit="10"/>
</g>
</g>
</svg>
