<svg width="48" height="49" viewBox="0 0 48 49" fill="none" xmlns="http://www.w3.org/2000/svg">
<g style="mix-blend-mode:multiply" opacity="0.4">
<path d="M17.5339 37.1111C18.7106 36.5509 19.7816 35.7918 20.6999 34.8671C20.6491 37.4635 21.3439 40.0201 22.702 42.2336C24.0601 44.4471 26.0245 46.2248 28.3622 47.3557C30.7 48.4866 33.313 48.9234 35.8915 48.6143C38.47 48.3052 40.9057 47.2631 42.9099 45.6116C44.9141 43.9602 46.4027 41.7686 47.1991 39.2968C47.9955 36.825 48.0663 34.1766 47.4032 31.6658C46.74 29.1549 45.3708 26.8869 43.4578 25.1306C41.5447 23.3744 39.1682 22.2036 36.6099 21.7571C37.5902 20.2644 38.204 18.5612 38.4013 16.7864C38.5987 15.0115 38.374 13.2151 37.7456 11.5435C37.1172 9.87195 36.1028 8.37245 34.7851 7.16716C33.4674 5.96188 31.8836 5.0849 30.1627 4.60767C28.4419 4.13043 26.6326 4.06644 24.8824 4.4209C23.1321 4.77535 21.4903 5.53824 20.0907 6.64741C18.6911 7.75658 17.5733 9.18066 16.8284 10.8037C16.0835 12.4267 15.7324 14.2027 15.8039 15.9871C14.0403 15.4775 12.1793 15.4039 10.381 15.7725C8.58267 16.1411 6.90076 16.941 5.47986 18.1032C4.05896 19.2655 2.94159 20.7555 2.2238 22.4451C1.50601 24.1347 1.20928 25.9733 1.35912 27.8029C1.50896 29.6325 2.10088 31.3983 3.08401 32.9486C4.06713 34.4989 5.41204 35.7872 7.00312 36.7028C8.59419 37.6185 10.3838 38.134 12.2182 38.2051C14.0525 38.2762 15.8767 37.9008 17.5339 37.1111Z" fill="#DFE4FF"/>
</g>
<path d="M26.808 16.4688H41.008C41.1236 16.4688 41.238 16.4915 41.3448 16.5357C41.4515 16.58 41.5485 16.6448 41.6303 16.7265C41.712 16.8082 41.7768 16.9052 41.821 17.012C41.8652 17.1188 41.888 17.2332 41.888 17.3488V38.5028H3.25V17.3488C3.25 17.1154 3.34271 16.8915 3.50775 16.7265C3.67278 16.5615 3.89661 16.4688 4.13 16.4688H18.334" fill="white"/>
<path d="M42.4919 39.1012H2.6499V17.3472C2.65043 16.9548 2.80653 16.5787 3.08397 16.3013C3.36141 16.0238 3.73754 15.8677 4.1299 15.8672H18.3339V17.0672H4.1339C4.09713 17.0672 4.06072 17.0744 4.02675 17.0885C3.99278 17.1026 3.96191 17.1232 3.93591 17.1492C3.90991 17.1752 3.88929 17.2061 3.87522 17.24C3.86114 17.274 3.8539 17.3104 3.8539 17.3472V37.9012H41.2919V17.3472C41.2919 17.3104 41.2847 17.274 41.2706 17.24C41.2565 17.2061 41.2359 17.1752 41.2099 17.1492C41.1839 17.1232 41.153 17.1026 41.119 17.0885C41.0851 17.0744 41.0487 17.0672 41.0119 17.0672H26.8119V15.8672H41.0119C41.4043 15.8677 41.7804 16.0238 42.0578 16.3013C42.3353 16.5787 42.4914 16.9548 42.4919 17.3472V39.1012Z" fill="#000062"/>
<path d="M26.808 12.2305H18.334V20.7045H26.808V12.2305Z" fill="white"/>
<path d="M27.4079 21.3068H17.7339V11.6328H27.4079V21.3068ZM18.9339 20.1068H26.2079V12.8328H18.9339V20.1068Z" fill="#000062"/>
<path d="M11.3559 43.0839H41.4959C42.2261 43.0834 42.9263 42.7931 43.4427 42.2767C43.959 41.7603 44.2494 41.0602 44.2499 40.3299V39.3779C44.2499 39.263 44.2272 39.1491 44.1832 39.043C44.1391 38.9368 44.0746 38.8404 43.9932 38.7592C43.9118 38.678 43.8152 38.6137 43.709 38.5699C43.6027 38.5261 43.4888 38.5036 43.3739 38.5039H1.7739C1.5421 38.5039 1.3198 38.596 1.15589 38.7599C0.991984 38.9238 0.899902 39.1461 0.899902 39.3779V40.3299C0.899902 41.0603 1.19005 41.7608 1.70653 42.2773C2.22301 42.7938 2.9235 43.0839 3.6539 43.0839H8.6539" fill="white"/>
<path d="M41.496 43.6823H11.356V42.4823H41.496C42.0671 42.4818 42.6147 42.2547 43.0185 41.8509C43.4224 41.447 43.6495 40.8995 43.65 40.3283V39.3763C43.6495 39.3035 43.6202 39.2338 43.5685 39.1825C43.5168 39.1311 43.4468 39.1023 43.374 39.1023H1.77399C1.70132 39.1023 1.63163 39.1312 1.58025 39.1826C1.52886 39.234 1.49999 39.3037 1.49999 39.3763V40.3283C1.50052 40.8995 1.72763 41.447 2.13147 41.8509C2.53531 42.2547 3.08288 42.4818 3.65399 42.4823H8.63599V43.6823H3.64599C2.75678 43.6813 1.90429 43.3276 1.27553 42.6988C0.646758 42.07 0.293051 41.2176 0.291992 40.3283V39.3763C0.292521 38.9856 0.447987 38.611 0.724301 38.3347C1.00062 38.0583 1.37523 37.9029 1.76599 37.9023H43.366C43.7571 37.9023 44.1322 38.0576 44.409 38.3339C44.6857 38.6103 44.8415 38.9852 44.842 39.3763V40.3283C44.8409 41.2162 44.4883 42.0675 43.8613 42.696C43.2343 43.3245 42.3838 43.6792 41.496 43.6823Z" fill="#000062"/>
<path d="M18.334 13.8028H12.814V4.71484H14.014V12.6028H18.334V13.8028Z" fill="#000062"/>
<path d="M32.3261 13.8028H26.8081V12.6028H31.1261V4.71484H32.3261V13.8028Z" fill="#000062"/>
<path d="M32.3261 28.4493H31.1261V20.5633H26.8081V19.3633H32.3261V28.4493Z" fill="#000062"/>
<path d="M14.014 28.4493H12.814V19.3633H18.334V20.5633H14.014V28.4493Z" fill="#000062"/>
<path d="M13.4139 5.316C12.8882 5.316 12.3744 5.16016 11.9374 4.86819C11.5003 4.57621 11.1596 4.1612 10.9584 3.67563C10.7571 3.19007 10.7044 2.65573 10.8068 2.14019C10.9092 1.62464 11.1621 1.15103 11.5337 0.779218C11.9052 0.407411 12.3786 0.154103 12.8941 0.051318C13.4096 -0.0514673 13.9439 0.000884747 14.4296 0.201756C14.9154 0.402627 15.3306 0.742998 15.6229 1.17984C15.9152 1.61668 16.0715 2.13038 16.0719 2.656C16.0713 3.36097 15.7912 4.03694 15.2929 4.53561C14.7946 5.03429 14.1188 5.31494 13.4139 5.316ZM13.4139 1.198C13.1255 1.198 12.8436 1.28351 12.6038 1.44372C12.3641 1.60393 12.1772 1.83163 12.0668 2.09805C11.9565 2.36446 11.9276 2.65762 11.9839 2.94044C12.0401 3.22327 12.179 3.48306 12.3829 3.68696C12.5868 3.89087 12.8466 4.02973 13.1294 4.08599C13.4122 4.14224 13.7054 4.11337 13.9718 4.00302C14.2382 3.89266 14.4659 3.70579 14.6261 3.46602C14.7863 3.22626 14.8719 2.94437 14.8719 2.656C14.8713 2.26948 14.7176 1.89894 14.4442 1.62562C14.1709 1.35231 13.8004 1.19853 13.4139 1.198Z" fill="#000062"/>
<path d="M31.7342 5.316C31.2085 5.316 30.6946 5.16011 30.2575 4.86805C29.8204 4.57598 29.4797 4.16086 29.2785 3.67517C29.0773 3.18949 29.0247 2.65505 29.1272 2.13945C29.2298 1.62385 29.483 1.15024 29.8547 0.778511C30.2264 0.406783 30.7 0.153633 31.2156 0.0510739C31.7312 -0.0514856 32.2657 0.00115166 32.7513 0.202329C33.237 0.403507 33.6522 0.74419 33.9442 1.1813C34.2363 1.6184 34.3922 2.1323 34.3922 2.658C34.3911 3.36262 34.1107 4.03808 33.6125 4.53632C33.1142 5.03456 32.4388 5.31494 31.7342 5.316ZM31.7342 1.198C31.4458 1.198 31.1639 1.28351 30.9242 1.44372C30.6844 1.60393 30.4975 1.83163 30.3872 2.09805C30.2768 2.36446 30.2479 2.65762 30.3042 2.94044C30.3604 3.22327 30.4993 3.48306 30.7032 3.68696C30.9071 3.89087 31.1669 4.02973 31.4497 4.08599C31.7326 4.14224 32.0257 4.11337 32.2921 4.00302C32.5585 3.89266 32.7862 3.70579 32.9465 3.46602C33.1067 3.22626 33.1922 2.94437 33.1922 2.656C33.1916 2.26948 33.0379 1.89894 32.7645 1.62562C32.4912 1.35231 32.1207 1.19853 31.7342 1.198Z" fill="#000062"/>
<path d="M13.4139 33.1676C12.8882 33.1676 12.3743 33.0117 11.9372 32.7196C11.5 32.4275 11.1594 32.0124 10.9582 31.5267C10.757 31.0411 10.7044 30.5066 10.8069 29.991C10.9095 29.4754 11.1626 29.0018 11.5344 28.6301C11.9061 28.2583 12.3797 28.0052 12.8953 27.9026C13.4109 27.8001 13.9453 27.8527 14.431 28.0539C14.9167 28.2551 15.3318 28.5958 15.6239 29.0329C15.916 29.47 16.0719 29.9839 16.0719 30.5096C16.0708 31.2142 15.7904 31.8896 15.2922 32.3879C14.7939 32.8861 14.1185 33.1665 13.4139 33.1676ZM13.4139 29.0496C13.1255 29.0496 12.8436 29.1351 12.6038 29.2953C12.3641 29.4555 12.1772 29.6832 12.0668 29.9496C11.9565 30.216 11.9276 30.5092 11.9839 30.792C12.0401 31.0748 12.179 31.3346 12.3829 31.5385C12.5868 31.7424 12.8466 31.8813 13.1294 31.9375C13.4122 31.9938 13.7054 31.9649 13.9718 31.8546C14.2382 31.7442 14.4659 31.5574 14.6261 31.3176C14.7864 31.0778 14.8719 30.7959 14.8719 30.5076C14.8713 30.121 14.7176 29.7505 14.4442 29.4772C14.1709 29.2039 13.8004 29.0501 13.4139 29.0496Z" fill="#000062"/>
<path d="M31.7342 33.1676C31.2085 33.1676 30.6946 33.0117 30.2575 32.7196C29.8204 32.4275 29.4797 32.0124 29.2785 31.5267C29.0773 31.0411 29.0247 30.5066 29.1272 29.991C29.2298 29.4754 29.483 29.0018 29.8547 28.6301C30.2264 28.2583 30.7 28.0052 31.2156 27.9026C31.7312 27.8001 32.2657 27.8527 32.7513 28.0539C33.237 28.2551 33.6522 28.5958 33.9442 29.0329C34.2363 29.47 34.3922 29.9839 34.3922 30.5096C34.3911 31.2142 34.1107 31.8896 33.6125 32.3879C33.1142 32.8861 32.4388 33.1665 31.7342 33.1676ZM31.7342 29.0496C31.4458 29.0496 31.1639 29.1351 30.9242 29.2953C30.6844 29.4555 30.4975 29.6832 30.3872 29.9496C30.2768 30.216 30.2479 30.5092 30.3042 30.792C30.3604 31.0748 30.4993 31.3346 30.7032 31.5385C30.9071 31.7424 31.1669 31.8813 31.4497 31.9375C31.7326 31.9938 32.0257 31.9649 32.2921 31.8546C32.5585 31.7442 32.7862 31.5574 32.9465 31.3176C33.1067 31.0778 33.1922 30.7959 33.1922 30.5076C33.1916 30.121 33.0379 29.7505 32.7645 29.4772C32.4912 29.2039 32.1207 29.0501 31.7342 29.0496Z" fill="#000062"/>
<path d="M22.5701 31.109C22.0444 31.109 21.5305 30.9531 21.0934 30.661C20.6563 30.369 20.3156 29.9538 20.1144 29.4681C19.9133 28.9825 19.8606 28.448 19.9632 27.9324C20.0657 27.4168 20.3189 26.9432 20.6906 26.5715C21.0623 26.1998 21.536 25.9466 22.0516 25.844C22.5672 25.7415 23.1016 25.7941 23.5873 25.9953C24.073 26.1965 24.4881 26.5372 24.7802 26.9743C25.0722 27.4114 25.2281 27.9253 25.2281 28.451C25.2271 29.1556 24.9467 29.8311 24.4484 30.3293C23.9502 30.8275 23.2747 31.1079 22.5701 31.109ZM22.5701 26.991C22.2817 26.991 21.9999 27.0765 21.7601 27.2367C21.5203 27.3969 21.3334 27.6246 21.2231 27.891C21.1127 28.1574 21.0839 28.4506 21.1401 28.7334C21.1964 29.0162 21.3352 29.276 21.5391 29.4799C21.7431 29.6838 22.0028 29.8227 22.2857 29.879C22.5685 29.9352 22.8616 29.9063 23.1281 29.796C23.3945 29.6856 23.6222 29.4988 23.7824 29.259C23.9426 29.0192 24.0281 28.7373 24.0281 28.449C24.0255 28.0638 23.8708 27.6953 23.5977 27.4238C23.3246 27.1522 22.9553 26.9995 22.5701 26.999V26.991Z" fill="#000062"/>
<path d="M22.5701 7.51522C22.0444 7.51522 21.5305 7.35933 21.0934 7.06727C20.6563 6.7752 20.3156 6.36008 20.1144 5.87439C19.9133 5.38871 19.8606 4.85427 19.9632 4.33867C20.0657 3.82307 20.3189 3.34946 20.6906 2.97773C21.0623 2.606 21.536 2.35285 22.0516 2.25029C22.5672 2.14773 23.1016 2.20037 23.5873 2.40155C24.073 2.60273 24.4881 2.94341 24.7802 3.38051C25.0722 3.81762 25.2281 4.33152 25.2281 4.85722C25.2271 5.56184 24.9467 6.2373 24.4484 6.73554C23.9502 7.23378 23.2747 7.51416 22.5701 7.51522ZM22.5701 3.39722C22.2817 3.39722 21.9999 3.48273 21.7601 3.64294C21.5203 3.80314 21.3334 4.03085 21.2231 4.29727C21.1127 4.56368 21.0839 4.85684 21.1401 5.13966C21.1964 5.42249 21.3352 5.68228 21.5391 5.88618C21.7431 6.09009 22.0028 6.22895 22.2857 6.2852C22.5685 6.34146 22.8616 6.31259 23.1281 6.20224C23.3945 6.09188 23.6222 5.90501 23.7824 5.66524C23.9426 5.42547 24.0281 5.14359 24.0281 4.85522C24.0276 4.4687 23.8738 4.09816 23.6005 3.82484C23.3272 3.55153 22.9566 3.39775 22.5701 3.39722Z" fill="#000062"/>
<path d="M23.1702 20.707H21.9702V26.383H23.1702V20.707Z" fill="#000062"/>
<path d="M23.1702 6.91406H21.9702V12.2301H23.1702V6.91406Z" fill="#000062"/>
<path d="M10.034 43.6189C10.3301 43.6189 10.57 43.3789 10.57 43.0829C10.57 42.7868 10.3301 42.5469 10.034 42.5469C9.73802 42.5469 9.49805 42.7868 9.49805 43.0829C9.49805 43.3789 9.73802 43.6189 10.034 43.6189Z" fill="#000062"/>
<path d="M8.05791 16.4688H6.85791V24.8488H8.05791V16.4688Z" fill="#000062"/>
<path d="M24.2578 14.7812H20.8838V18.1553H24.2578V14.7812Z" fill="white"/>
<path d="M24.8582 18.7576H20.2842V14.1836H24.8582V18.7576ZM21.4842 17.5576H23.6582V15.3836H21.4842V17.5576Z" fill="#000062"/>
<path d="M27.4084 21.3068H17.7344V11.6328H27.4084V21.3068ZM18.9344 20.1068H26.2084V12.8328H18.9344V20.1068Z" fill="#7F92FF"/>
<path d="M24.8582 18.7576H20.2842V14.1836H24.8582V18.7576ZM21.4842 17.5576H23.6582V15.3836H21.4842V17.5576Z" fill="#7F92FF"/>
<path d="M8.05791 26.9375H6.85791V30.5075H8.05791V26.9375Z" fill="#000062"/>
</svg>
