<svg width="64" height="64" viewBox="0 0 64 64" fill="none" xmlns="http://www.w3.org/2000/svg">
<path d="M23.1 43.7894C24.4447 43.1493 25.6688 42.2816 26.7183 41.2248C26.6602 44.1922 27.4542 47.114 29.0064 49.6437C30.5585 52.1735 32.8035 54.205 35.4752 55.4975C38.1469 56.79 41.1333 57.2893 44.0801 56.936C47.0269 56.5827 49.8106 55.3917 52.1011 53.5043C54.3916 51.617 56.0928 49.1123 57.003 46.2874C57.9132 43.4624 57.9941 40.4357 57.2363 37.5662C56.4784 34.6966 54.9136 32.1046 52.7272 30.0975C50.5409 28.0903 47.8248 26.7523 44.9011 26.242C46.0214 24.536 46.7229 22.5896 46.9485 20.5612C47.1741 18.5327 46.9173 16.4797 46.1991 14.5694C45.4809 12.659 44.3216 10.9453 42.8157 9.56779C41.3097 8.19032 39.4996 7.18806 37.533 6.64265C35.5663 6.09724 33.4985 6.0241 31.4982 6.4292C29.4979 6.83429 27.6216 7.70616 26.0221 8.97378C24.4225 10.2414 23.1451 11.8689 22.2937 13.7238C21.4423 15.5787 21.0411 17.6084 21.1228 19.6477C19.1073 19.0653 16.9805 18.9812 14.9253 19.4025C12.87 19.8237 10.9478 20.7378 9.32394 22.0662C7.70006 23.3945 6.42306 25.0973 5.60273 27.0283C4.7824 28.9592 4.44328 31.0605 4.61452 33.1515C4.78577 35.2425 5.46225 37.2606 6.58582 39.0323C7.7094 40.804 9.24644 42.2764 11.0648 43.3228C12.8832 44.3693 14.9285 44.9584 17.0249 45.0397C19.1213 45.121 21.206 44.6919 23.1 43.7894Z" fill="#DFE4FF"/>
<path d="M14.0573 42.3829H10.055C9.72503 42.3831 9.39828 42.3183 9.09342 42.1922C8.78855 42.066 8.51154 41.881 8.27824 41.6477C8.04494 41.4144 7.85993 41.1374 7.73376 40.8325C7.6076 40.5276 7.54276 40.2009 7.54297 39.8709V13.3247C7.543 12.9949 7.60799 12.6684 7.73426 12.3637C7.86054 12.0591 8.04562 11.7824 8.27891 11.5493C8.51219 11.3162 8.78912 11.1314 9.09386 11.0054C9.3986 10.8794 9.7252 10.8147 10.055 10.8149H54.0024C54.6679 10.8153 55.3061 11.0798 55.7767 11.5504C56.2473 12.021 56.5118 12.6591 56.5121 13.3247V39.8709C56.5123 40.5368 56.248 41.1755 55.7773 41.6466C55.3067 42.1176 54.6683 42.3825 54.0024 42.3829H17.4858" fill="white"/>
<path d="M14.0573 42.3829H10.055C9.72503 42.3831 9.39828 42.3183 9.09342 42.1921C8.78855 42.066 8.51154 41.881 8.27824 41.6477C8.04494 41.4144 7.85993 41.1374 7.73376 40.8325C7.6076 40.5276 7.54276 40.2009 7.54297 39.8709V13.3247C7.543 12.9949 7.60799 12.6684 7.73426 12.3637C7.86054 12.0591 8.04562 11.7824 8.27891 11.5493C8.51219 11.3162 8.78912 11.1314 9.09386 11.0054C9.3986 10.8794 9.7252 10.8147 10.055 10.8149H54.0024C54.6679 10.8153 55.3061 11.0798 55.7767 11.5504C56.2473 12.021 56.5118 12.6591 56.5121 13.3247V39.8709C56.5123 40.5368 56.248 41.1755 55.7773 41.6466C55.3067 42.1176 54.6683 42.3825 54.0024 42.3829H17.4858" stroke="#000062" stroke-miterlimit="10" stroke-linecap="round"/>
<path d="M7.54297 17.1841H56.5123" stroke="#000062" stroke-miterlimit="10" stroke-linecap="round"/>
<path d="M12.445 15.0546C12.9836 15.0546 13.4203 14.6179 13.4203 14.0793C13.4203 13.5407 12.9836 13.104 12.445 13.104C11.9064 13.104 11.4697 13.5407 11.4697 14.0793C11.4697 14.6179 11.9064 15.0546 12.445 15.0546Z" fill="#000062"/>
<path d="M17.74 15.0546C18.2786 15.0546 18.7153 14.6179 18.7153 14.0793C18.7153 13.5407 18.2786 13.104 17.74 13.104C17.2013 13.104 16.7646 13.5407 16.7646 14.0793C16.7646 14.6179 17.2013 15.0546 17.74 15.0546Z" fill="#000062"/>
<path d="M23.0339 15.0546C23.5725 15.0546 24.0092 14.6179 24.0092 14.0793C24.0092 13.5407 23.5725 13.104 23.0339 13.104C22.4952 13.104 22.0586 13.5407 22.0586 14.0793C22.0586 14.6179 22.4952 15.0546 23.0339 15.0546Z" fill="#000062"/>
<path d="M15.755 42.9035C16.0425 42.9035 16.2755 42.6704 16.2755 42.3829C16.2755 42.0954 16.0425 41.8623 15.755 41.8623C15.4675 41.8623 15.2344 42.0954 15.2344 42.3829C15.2344 42.6704 15.4675 42.9035 15.755 42.9035Z" fill="#000062"/>
<path d="M43.4285 38.321V35.9627C43.4285 35.6022 43.2856 35.2563 43.0311 35.0008C42.7766 34.7454 42.4313 34.6012 42.0707 34.5999H41.2501C40.9658 34.5999 40.6887 34.5109 40.4576 34.3454C40.2264 34.18 40.0528 33.9463 39.9612 33.6772C39.8176 33.2513 39.6471 32.8349 39.4507 32.4305C39.3248 32.1757 39.2817 31.8879 39.3275 31.6073C39.3733 31.3268 39.5056 31.0676 39.706 30.866L40.2841 30.2867C40.5395 30.0311 40.683 29.6845 40.683 29.3232C40.683 28.9619 40.5395 28.6153 40.2841 28.3597L38.611 26.6919C38.3554 26.4364 38.0089 26.293 37.6475 26.293C37.2862 26.293 36.9396 26.4364 36.684 26.6919L36.1047 27.2712C35.903 27.4716 35.6438 27.6039 35.3633 27.6497C35.0828 27.6955 34.7949 27.6524 34.5401 27.5265C34.1357 27.3301 33.7193 27.1596 33.2933 27.016C33.025 26.9244 32.7921 26.7513 32.6269 26.5209C32.4618 26.2906 32.3726 26.0144 32.3719 25.731V24.9054C32.3719 24.7264 32.3366 24.5492 32.2681 24.3838C32.1997 24.2185 32.0993 24.0682 31.9727 23.9417C31.8461 23.8151 31.6959 23.7147 31.5305 23.6462C31.3652 23.5777 31.1879 23.5425 31.009 23.5425H28.6493C28.2879 23.5425 27.9412 23.6861 27.6856 23.9417C27.43 24.1972 27.2864 24.5439 27.2864 24.9054V25.731C27.2864 26.0152 27.1974 26.2924 27.032 26.5235C26.8665 26.7546 26.6328 26.9282 26.3637 27.0198C25.9378 27.1635 25.5213 27.334 25.1169 27.5303C24.8621 27.6562 24.5743 27.6993 24.2937 27.6535C24.0132 27.6078 23.754 27.4754 23.5524 27.2751L22.973 26.6957C22.7174 26.4403 22.3709 26.2968 22.0095 26.2968C21.6482 26.2968 21.3016 26.4403 21.046 26.6957L19.3781 28.3597C19.1226 28.6153 18.9791 28.9619 18.9791 29.3232C18.9791 29.6845 19.1226 30.0311 19.3781 30.2867L19.9574 30.866C20.1578 31.0676 20.2902 31.3268 20.3359 31.6073C20.3817 31.8879 20.3386 32.1757 20.2127 32.4305C20.0163 32.8349 19.8458 33.2513 19.7022 33.6772C19.6106 33.9463 19.437 34.18 19.2059 34.3454C18.9747 34.5109 18.6976 34.5999 18.4133 34.5999H17.5915C17.4125 34.5999 17.2352 34.6351 17.0699 34.7036C16.9045 34.7721 16.7543 34.8725 16.6277 34.999C16.5011 35.1256 16.4008 35.2758 16.3323 35.4412C16.2638 35.6065 16.2285 35.7838 16.2285 35.9627V38.3222C16.2285 38.6837 16.3721 39.0303 16.6277 39.2859C16.8833 39.5415 17.23 39.6851 17.5915 39.6851H18.412C18.6963 39.6851 18.9734 39.7741 19.2046 39.9395C19.4357 40.105 19.6093 40.3386 19.7009 40.6077C19.8446 41.0337 20.0151 41.4501 20.2114 41.8545C20.3373 42.1093 20.3804 42.3971 20.3346 42.6776C20.2889 42.9582 20.1565 43.2174 19.9562 43.419L19.3768 43.9983C19.1213 44.2539 18.9778 44.6004 18.9778 44.9618C18.9778 45.3231 19.1213 45.6696 19.3768 45.9252L21.0447 47.5931C21.3003 47.8485 21.6469 47.992 22.0082 47.992C22.3696 47.992 22.7161 47.8485 22.9717 47.5931L23.5511 47.0137C23.7527 46.8134 24.0119 46.681 24.2925 46.6353C24.573 46.5895 24.8608 46.6326 25.1157 46.7585C25.5201 46.9548 25.9365 47.1253 26.3625 47.2689C26.6316 47.3606 26.8652 47.5341 27.0307 47.7653C27.1962 47.9964 27.2851 48.2735 27.2851 48.5578V49.3783C27.285 49.5575 27.3201 49.735 27.3886 49.9006C27.4571 50.0661 27.5576 50.2166 27.6843 50.3433C27.811 50.47 27.9615 50.5705 28.1271 50.639C28.2927 50.7075 28.4701 50.7426 28.6493 50.7425H31.009C31.1881 50.7425 31.3654 50.7072 31.5308 50.6386C31.6963 50.57 31.8466 50.4695 31.9732 50.3429C32.0997 50.2162 32.2001 50.0658 32.2685 49.9003C32.3369 49.7348 32.3721 49.5574 32.3719 49.3783V48.5578C32.3719 48.2735 32.4609 47.9964 32.6263 47.7653C32.7918 47.5341 33.0255 47.3606 33.2946 47.2689C33.7205 47.1253 34.137 46.9548 34.5414 46.7585C34.7962 46.6326 35.084 46.5895 35.3646 46.6353C35.6451 46.681 35.9043 46.8134 36.1059 47.0137L36.6853 47.5931C36.9409 47.8485 37.2874 47.992 37.6488 47.992C38.0102 47.992 38.3567 47.8485 38.6123 47.5931L40.2841 45.9239C40.5395 45.6684 40.683 45.3218 40.683 44.9605C40.683 44.5991 40.5395 44.2526 40.2841 43.997L39.7047 43.4177C39.5043 43.2161 39.372 42.9569 39.3262 42.6764C39.2804 42.3958 39.3235 42.108 39.4495 41.8532C39.6458 41.4488 39.8163 41.0324 39.9599 40.6064C40.0516 40.3374 40.2251 40.1037 40.4563 39.9383C40.6874 39.7728 40.9646 39.6838 41.2488 39.6838H42.0707C42.4313 39.6825 42.7766 39.5383 43.0311 39.2829C43.2856 39.0274 43.4285 38.6815 43.4285 38.321Z" fill="white" stroke="#000062" stroke-miterlimit="10"/>
<path d="M29.8288 44.1142C33.6791 44.1142 36.8003 40.993 36.8003 37.1428C36.8003 33.2926 33.6791 30.1714 29.8288 30.1714C25.9786 30.1714 22.8574 33.2926 22.8574 37.1428C22.8574 40.993 25.9786 44.1142 29.8288 44.1142Z" fill="white" stroke="#000062" stroke-miterlimit="10"/>
<path d="M43.4285 38.321V35.9627C43.4285 35.6022 43.2856 35.2563 43.0311 35.0008C42.7766 34.7454 42.4313 34.6012 42.0707 34.5999H41.2501C40.9658 34.5999 40.6887 34.5109 40.4576 34.3454C40.2264 34.18 40.0528 33.9463 39.9612 33.6772C39.8176 33.2513 39.6471 32.8349 39.4507 32.4305C39.3248 32.1757 39.2817 31.8879 39.3275 31.6073C39.3733 31.3268 39.5056 31.0676 39.706 30.866L40.2841 30.2867C40.5395 30.0311 40.683 29.6845 40.683 29.3232C40.683 28.9619 40.5395 28.6153 40.2841 28.3597L38.611 26.6919C38.3554 26.4364 38.0089 26.293 37.6475 26.293C37.2862 26.293 36.9396 26.4364 36.684 26.6919L36.1047 27.2712C35.903 27.4716 35.6438 27.6039 35.3633 27.6497C35.0828 27.6955 34.7949 27.6524 34.5401 27.5265C34.1357 27.3301 33.7193 27.1596 33.2933 27.016C33.025 26.9244 32.7921 26.7513 32.6269 26.5209C32.4618 26.2906 32.3726 26.0144 32.3719 25.731V24.9054C32.3719 24.7264 32.3366 24.5492 32.2681 24.3838C32.1997 24.2185 32.0993 24.0682 31.9727 23.9417C31.8461 23.8151 31.6959 23.7147 31.5305 23.6462C31.3652 23.5777 31.1879 23.5425 31.009 23.5425H28.6493C28.2879 23.5425 27.9412 23.6861 27.6856 23.9417C27.43 24.1972 27.2864 24.5439 27.2864 24.9054V25.731C27.2864 26.0152 27.1974 26.2924 27.032 26.5235C26.8665 26.7546 26.6328 26.9282 26.3637 27.0198C25.9378 27.1635 25.5213 27.334 25.1169 27.5303C24.8621 27.6562 24.5743 27.6993 24.2937 27.6535C24.0132 27.6078 23.754 27.4754 23.5524 27.2751L22.973 26.6957C22.7174 26.4403 22.3709 26.2968 22.0095 26.2968C21.6482 26.2968 21.3016 26.4403 21.046 26.6957L19.3781 28.3597C19.1226 28.6153 18.9791 28.9619 18.9791 29.3232C18.9791 29.6845 19.1226 30.0311 19.3781 30.2867L19.9574 30.866C20.1578 31.0676 20.2902 31.3268 20.3359 31.6073C20.3817 31.8879 20.3386 32.1757 20.2127 32.4305C20.0163 32.8349 19.8458 33.2513 19.7022 33.6772C19.6106 33.9463 19.437 34.18 19.2059 34.3454C18.9747 34.5109 18.6976 34.5999 18.4133 34.5999H17.5915C17.4125 34.5999 17.2352 34.6351 17.0699 34.7036C16.9045 34.7721 16.7543 34.8725 16.6277 34.999C16.5011 35.1256 16.4008 35.2758 16.3323 35.4412C16.2638 35.6065 16.2285 35.7838 16.2285 35.9627V38.3222C16.2285 38.6837 16.3721 39.0303 16.6277 39.2859C16.8833 39.5415 17.23 39.6851 17.5915 39.6851H18.412C18.6963 39.6851 18.9734 39.7741 19.2046 39.9395C19.4357 40.105 19.6093 40.3386 19.7009 40.6077C19.8446 41.0337 20.0151 41.4501 20.2114 41.8545C20.3373 42.1093 20.3804 42.3971 20.3346 42.6776C20.2889 42.9582 20.1565 43.2174 19.9562 43.419L19.3768 43.9983C19.1213 44.2539 18.9778 44.6004 18.9778 44.9618C18.9778 45.3231 19.1213 45.6696 19.3768 45.9252L21.0447 47.5931C21.3003 47.8485 21.6469 47.992 22.0082 47.992C22.3696 47.992 22.7161 47.8485 22.9717 47.5931L23.5511 47.0137C23.7527 46.8134 24.0119 46.681 24.2925 46.6353C24.573 46.5895 24.8608 46.6326 25.1157 46.7585C25.5201 46.9548 25.9365 47.1253 26.3625 47.2689C26.6316 47.3606 26.8652 47.5341 27.0307 47.7653C27.1962 47.9964 27.2851 48.2735 27.2851 48.5578V49.3783C27.285 49.5575 27.3201 49.735 27.3886 49.9006C27.4571 50.0661 27.5576 50.2166 27.6843 50.3433C27.811 50.47 27.9615 50.5705 28.1271 50.639C28.2927 50.7075 28.4701 50.7426 28.6493 50.7425H31.009C31.1881 50.7425 31.3654 50.7072 31.5308 50.6386C31.6963 50.57 31.8466 50.4695 31.9732 50.3429C32.0997 50.2162 32.2001 50.0658 32.2685 49.9003C32.3369 49.7348 32.3721 49.5574 32.3719 49.3783V48.5578C32.3719 48.2735 32.4609 47.9964 32.6263 47.7653C32.7918 47.5341 33.0255 47.3606 33.2946 47.2689C33.7205 47.1253 34.137 46.9548 34.5414 46.7585C34.7962 46.6326 35.084 46.5895 35.3646 46.6353C35.6451 46.681 35.9043 46.8134 36.1059 47.0137L36.6853 47.5931C36.9409 47.8485 37.2874 47.992 37.6488 47.992C38.0102 47.992 38.3567 47.8485 38.6123 47.5931L40.2841 45.9239C40.5395 45.6684 40.683 45.3218 40.683 44.9605C40.683 44.5991 40.5395 44.2526 40.2841 43.997L39.7047 43.4177C39.5043 43.2161 39.372 42.9569 39.3262 42.6764C39.2804 42.3958 39.3235 42.108 39.4495 41.8532C39.6458 41.4488 39.8163 41.0324 39.9599 40.6064C40.0516 40.3374 40.2251 40.1037 40.4563 39.9383C40.6874 39.7728 40.9646 39.6838 41.2488 39.6838H42.0707C42.4313 39.6825 42.7766 39.5383 43.0311 39.2829C43.2856 39.0274 43.4285 38.6815 43.4285 38.321Z" fill="white" stroke="#7F92FF" stroke-miterlimit="10"/>
<path d="M29.8288 44.1138C33.6791 44.1138 36.8003 40.9925 36.8003 37.1423C36.8003 33.2921 33.6791 30.1709 29.8288 30.1709C25.9786 30.1709 22.8574 33.2921 22.8574 37.1423C22.8574 40.9925 25.9786 44.1138 29.8288 44.1138Z" fill="white" stroke="#7F92FF" stroke-miterlimit="10"/>
</svg>
