<svg width="50" height="42" viewBox="0 0 50 42" fill="none" xmlns="http://www.w3.org/2000/svg">
<g id="all">
<path id="BG" d="M16.4912 33.1944C17.1656 34.0105 18.0174 34.662 18.9816 35.0992C19.9459 35.5364 20.9972 35.7477 22.0555 35.7172C23.1137 35.6867 24.1511 35.4151 25.0886 34.923C26.026 34.431 26.8388 33.7315 27.465 32.8779C29.2231 33.7834 31.172 34.2558 33.1495 34.2556C35.1271 34.2555 37.076 33.7829 38.8339 32.8771C40.5918 31.9713 42.1078 30.6586 43.2557 29.0483C44.4035 27.438 45.15 25.5768 45.433 23.6196C45.716 21.6624 45.5272 19.6659 44.8823 17.7965C44.2375 15.927 43.1554 14.2387 41.726 12.8721C40.2966 11.5056 38.5614 10.5003 36.6649 9.9401C34.7683 9.37989 32.7654 9.28095 30.8229 9.65151C29.4081 6.923 27.0312 4.81646 24.1524 3.73972C21.2737 2.66297 18.0978 2.6926 15.2397 3.82288C12.3816 4.95315 10.0444 7.10367 8.68074 9.8581C7.31706 12.6125 7.02385 15.775 7.85786 18.7332C6.44551 19.0061 5.11966 19.6151 3.9925 20.5088C2.86535 21.4026 1.97005 22.5546 1.38237 23.8676C0.794677 25.1805 0.531892 26.6157 0.616242 28.0517C0.700593 29.4877 1.1296 30.8823 1.86696 32.1174C2.60432 33.3525 3.62834 34.3918 4.85238 35.1474C6.07642 35.9031 7.46445 36.3527 8.89904 36.4584C10.3336 36.564 11.7726 36.3225 13.0941 35.7544C14.4156 35.1863 15.5809 34.3082 16.4912 33.1944Z" fill="#DFE4FF"/>
<g id="group">
<g id="icon colored">
<g id="icon">
<path id="Vector" d="M37.4061 28.1403L35.7104 29.8359L41.7449 35.8704L43.4405 34.1747L37.4061 28.1403Z" fill="white"/>
<path id="Vector_2" d="M26.8184 15.5312H33.9644C34.4852 15.5312 34.9848 15.7382 35.3531 16.1065C35.7214 16.4748 35.9284 16.9744 35.9284 17.4952V31.0112H26.8184V15.5312Z" fill="white"/>
<path id="Vector_3" d="M27.3325 0.476563H33.2085C33.6939 0.476562 34.1593 0.669366 34.5025 1.01256C34.8457 1.35575 35.0385 1.82122 35.0385 2.30656V15.9586H27.3325V0.476563Z" fill="white"/>
<path id="Vector_4" d="M6.09577 27.4453H12.7818V38.2453H5.36377V28.1773C5.36377 27.9832 5.44089 27.797 5.57817 27.6597C5.71544 27.5224 5.90163 27.4453 6.09577 27.4453Z" fill="white"/>
<path id="Vector_5" d="M13.3817 38.8476H4.76367V28.1836C4.76367 27.8303 4.90401 27.4915 5.15381 27.2417C5.4036 26.9919 5.7424 26.8516 6.09567 26.8516H13.3817V38.8476ZM5.96367 37.6476H12.1817V28.0476H6.09567C6.07834 28.0476 6.06117 28.051 6.04516 28.0576C6.02914 28.0642 6.01459 28.074 6.00233 28.0862C5.99008 28.0985 5.98035 28.113 5.97372 28.129C5.96709 28.1451 5.96367 28.1622 5.96367 28.1796V37.6476Z" fill="#000062"/>
<path id="Vector_6" d="M13.5145 19.4297H20.2005V38.2477H12.7825V20.1617C12.7825 19.9675 12.8596 19.7814 12.9969 19.6441C13.1341 19.5068 13.3203 19.4297 13.5145 19.4297Z" fill="white"/>
<path id="Vector_7" d="M20.8004 38.8461H12.1824V20.1601C12.1824 19.8069 12.3227 19.4681 12.5725 19.2183C12.8223 18.9685 13.1611 18.8281 13.5144 18.8281H20.8004V38.8461ZM13.3824 37.6461H19.6004V20.0281H13.5144C13.4794 20.0281 13.4458 20.042 13.421 20.0668C13.3963 20.0915 13.3824 20.1251 13.3824 20.1601V37.6461Z" fill="#000062"/>
<path id="Vector_8" d="M27.6177 30.9519V38.2459H20.1997V12.5659C20.1997 12.4699 20.2187 12.3748 20.2555 12.2861C20.2923 12.1974 20.3462 12.1169 20.4142 12.049C20.4822 11.9812 20.5629 11.9275 20.6517 11.8909C20.7405 11.8544 20.8357 11.8357 20.9317 11.8359H27.6177V15.9299" fill="white"/>
<path id="Vector_9" d="M28.2176 38.8424H19.5996V12.5644C19.6001 12.2115 19.7407 11.8732 19.9904 11.6238C20.2402 11.3744 20.5787 11.2344 20.9316 11.2344H28.2176V15.9284H27.0176V12.4324H20.9316C20.8969 12.4324 20.8637 12.446 20.839 12.4703C20.8143 12.4947 20.8001 12.5277 20.7996 12.5624V37.6424H27.0176V30.9484H28.2176V38.8424Z" fill="#000062"/>
<path id="Vector_10" d="M35.6387 10.1406H34.4387V16.2446H35.6387V10.1406Z" fill="#000062"/>
<path id="Vector_11" d="M28.2183 15.93H27.0183V1.33C27.0194 0.977241 27.1601 0.639261 27.4097 0.390009C27.6594 0.140757 27.9976 0.000527292 28.3503 0H34.3063C34.6594 0.000528998 34.9979 0.141034 35.2476 0.390718C35.4973 0.640402 35.6378 0.978894 35.6383 1.332V7.132H34.4383V1.332C34.4383 1.29699 34.4244 1.26342 34.3997 1.23866C34.3749 1.21391 34.3413 1.2 34.3063 1.2H28.3503C28.3153 1.2 28.2817 1.21391 28.257 1.23866C28.2322 1.26342 28.2183 1.29699 28.2183 1.332V15.93Z" fill="#000062"/>
<path id="Vector_12" d="M35.0384 30.6328V38.2448H27.6184V30.9508" fill="white"/>
<path id="Vector_13" d="M35.6383 38.8448H27.0183V30.9508H28.2183V37.6448H34.4383V30.6328H35.6383V38.8448Z" fill="#000062"/>
<path id="Vector_14" d="M31.0118 32.2781C29.9539 32.2781 28.9046 32.0884 27.9138 31.7181C26.7294 31.2769 25.6548 30.5843 24.7638 29.6881C23.5248 28.4513 22.6806 26.8747 22.3379 25.158C21.9952 23.4412 22.1696 21.6614 22.8388 20.0437C23.508 18.4261 24.6421 17.0433 26.0975 16.0704C27.5528 15.0974 29.2641 14.5781 31.0148 14.5781C32.7654 14.5781 34.4767 15.0974 35.932 16.0704C37.3874 17.0433 38.5215 18.4261 39.1907 20.0437C39.8599 21.6614 40.0343 23.4412 39.6916 25.158C39.3489 26.8747 38.5047 28.4513 37.2658 29.6881C36.9616 29.9922 36.6361 30.2743 36.2918 30.5321C35.6251 31.029 34.8911 31.4283 34.1118 31.7181C33.1203 32.0888 32.0703 32.2784 31.0118 32.2781ZM31.0118 15.8021C29.8027 15.8014 28.6107 16.0877 27.5339 16.6375C26.4571 17.1873 25.5262 17.9849 24.8177 18.9647C24.1093 19.9444 23.6436 21.0784 23.4589 22.2733C23.2742 23.4681 23.3757 24.6898 23.7553 25.8377C24.1348 26.9857 24.7815 28.0271 25.642 28.8764C26.5026 29.7257 27.5524 30.3586 28.7053 30.7229C29.8581 31.0873 31.081 31.1728 32.2733 30.9724C33.4657 30.772 34.5934 30.2914 35.5638 29.5701C35.8621 29.3471 36.1441 29.1031 36.4078 28.8401C36.6712 28.5775 36.9151 28.2961 37.1378 27.9981C37.9847 26.862 38.4989 25.5126 38.6226 24.1009C38.7464 22.6892 38.4749 21.271 37.8385 20.0048C37.2021 18.7387 36.2259 17.6746 35.0192 16.9317C33.8125 16.1887 32.4228 15.7962 31.0058 15.7981L31.0118 15.8021Z" fill="#000062"/>
<path id="Vector_15" d="M36.3529 29.628L35.5044 30.4766L38.4177 33.3898L39.2662 32.5413L36.3529 29.628Z" fill="#000062"/>
<path id="Vector_16" d="M38.0482 27.9327L37.1997 28.7812L40.113 31.6945L40.9615 30.846L38.0482 27.9327Z" fill="#000062"/>
<path id="Vector_17" d="M46.3448 35.7553L44.9448 34.3553L42.8648 32.2753L42.3648 31.7713C42.1789 31.5838 41.9577 31.435 41.714 31.3335C41.4703 31.232 41.2088 31.1797 40.9448 31.1797C40.6808 31.1797 40.4194 31.232 40.1757 31.3335C39.9319 31.435 39.7107 31.5838 39.5248 31.7713L39.3428 31.9533C39.1554 32.1392 39.0066 32.3604 38.905 32.6041C38.8035 32.8478 38.7512 33.1093 38.7512 33.3733C38.7512 33.6373 38.8035 33.8987 38.905 34.1424C39.0066 34.3862 39.1554 34.6074 39.3428 34.7933L39.8408 35.2913L41.9208 37.3713L45.1928 40.6433C45.3787 40.8307 45.5999 40.9795 45.8437 41.0811C46.0874 41.1826 46.3488 41.2349 46.6128 41.2349C46.8768 41.2349 47.1383 41.1826 47.382 41.0811C47.6257 40.9795 47.8469 40.8307 48.0328 40.6433L48.2148 40.4613C48.4023 40.2754 48.5511 40.0542 48.6526 39.8104C48.7541 39.5667 48.8064 39.3053 48.8064 39.0413C48.8064 38.7773 48.7541 38.5159 48.6526 38.2721C48.5511 38.0284 48.4023 37.8072 48.2148 37.6213L47.9548 37.3613L46.3448 35.7553Z" fill="white"/>
<path id="Vector_18" d="M46.6106 41.8244C46.2677 41.825 45.9281 41.7579 45.6112 41.6268C45.2944 41.4956 45.0067 41.3032 44.7646 41.0604L38.9146 35.2104C38.6712 34.9687 38.478 34.6813 38.3462 34.3646C38.2143 34.048 38.1465 33.7084 38.1465 33.3654C38.1465 33.0224 38.2143 32.6828 38.3462 32.3661C38.478 32.0495 38.6712 31.762 38.9146 31.5204L39.0966 31.3384C39.3382 31.095 39.6257 30.9018 39.9423 30.77C40.259 30.6382 40.5986 30.5703 40.9416 30.5703C41.2845 30.5703 41.6241 30.6382 41.9408 30.77C42.2574 30.9018 42.5449 31.095 42.7866 31.3384L48.6346 37.1984C48.8776 37.44 49.0706 37.7273 49.2022 38.0438C49.3338 38.3603 49.4016 38.6996 49.4016 39.0424C49.4016 39.3851 49.3338 39.7245 49.2022 40.041C49.0706 40.3574 48.8776 40.6447 48.6346 40.8864L48.4526 41.0684C48.2102 41.3092 47.9228 41.5 47.6068 41.6297C47.2907 41.7594 46.9522 41.8256 46.6106 41.8244ZM40.9446 31.7764C40.8389 31.7767 40.7336 31.7888 40.6306 31.8124C40.3697 31.8728 40.1316 32.0068 39.9446 32.1984L39.7626 32.3804C39.6295 32.5107 39.5238 32.6663 39.4517 32.838C39.3795 33.0097 39.3423 33.1941 39.3423 33.3804C39.3423 33.5666 39.3795 33.751 39.4517 33.9227C39.5238 34.0944 39.6295 34.25 39.7626 34.3804L45.6126 40.2304C45.7434 40.3623 45.8992 40.4668 46.0709 40.5379C46.2426 40.609 46.4267 40.6452 46.6126 40.6444C46.7982 40.6455 46.9823 40.6096 47.1539 40.5388C47.3256 40.4681 47.4815 40.3639 47.6126 40.2324L47.7945 40.0504C47.9276 39.92 48.0333 39.7644 48.1054 39.5927C48.1776 39.421 48.2148 39.2366 48.2148 39.0504C48.2148 38.8641 48.1776 38.6797 48.1054 38.508C48.0333 38.3363 47.9276 38.1807 47.7945 38.0504L41.9366 32.1984C41.8071 32.0657 41.6525 31.9601 41.4819 31.8877C41.3112 31.8152 41.1279 31.7774 40.9426 31.7764H40.9446Z" fill="#000062"/>
<path id="Vector_19" d="M43.2407 32.6511L40.22 35.6719L41.0685 36.5204L44.0893 33.4996L43.2407 32.6511Z" fill="#000062"/>
<path id="Vector_20" d="M26.6185 16.8828H25.4185V29.8108H26.6185V16.8828Z" fill="#000062"/>
<path id="Vector_21" d="M36.5276 16.8828H35.3276V29.8108H36.5276V16.8828Z" fill="#000062"/>
<path id="Vector_22" d="M35.3592 8.99432C35.5372 8.81624 35.5372 8.52751 35.3592 8.34944C35.1811 8.17136 34.8924 8.17136 34.7143 8.34943C34.5362 8.52751 34.5362 8.81624 34.7143 8.99432C34.8924 9.1724 35.1811 9.1724 35.3592 8.99432Z" fill="#000062"/>
<path id="Vector_23" d="M31.6106 0.609375H30.4106V7.93537H31.6106V0.609375Z" fill="#000062"/>
<path id="Vector_24" d="M31.6106 9.32812H30.4106V10.7281H31.6106V9.32812Z" fill="#000062"/>
</g>
<g id="color - outline">
<path id="Vector_25" d="M31.0118 32.2781C29.9539 32.2781 28.9046 32.0884 27.9138 31.7181C26.7294 31.2769 25.6548 30.5843 24.7638 29.6881C23.5248 28.4513 22.6806 26.8747 22.3379 25.158C21.9952 23.4412 22.1696 21.6614 22.8388 20.0437C23.508 18.4261 24.6421 17.0433 26.0975 16.0704C27.5528 15.0974 29.2641 14.5781 31.0148 14.5781C32.7654 14.5781 34.4767 15.0974 35.932 16.0704C37.3874 17.0433 38.5215 18.4261 39.1907 20.0437C39.8599 21.6614 40.0343 23.4412 39.6916 25.158C39.3489 26.8747 38.5047 28.4513 37.2658 29.6881C36.9616 29.9922 36.6361 30.2743 36.2918 30.5321C35.6251 31.029 34.8911 31.4283 34.1118 31.7181C33.1203 32.0888 32.0703 32.2784 31.0118 32.2781ZM31.0118 15.8021C29.8027 15.8014 28.6107 16.0877 27.5339 16.6375C26.4571 17.1873 25.5262 17.9849 24.8177 18.9647C24.1093 19.9444 23.6436 21.0784 23.4589 22.2733C23.2742 23.4681 23.3757 24.6898 23.7553 25.8377C24.1348 26.9857 24.7815 28.0271 25.642 28.8764C26.5026 29.7257 27.5524 30.3586 28.7053 30.7229C29.8581 31.0873 31.081 31.1728 32.2733 30.9724C33.4657 30.772 34.5934 30.2914 35.5638 29.5701C35.8621 29.3471 36.1441 29.1031 36.4078 28.8401C36.6712 28.5775 36.9151 28.2961 37.1378 27.9981C37.9847 26.862 38.4989 25.5126 38.6226 24.1009C38.7464 22.6892 38.4749 21.271 37.8385 20.0048C37.2021 18.7387 36.2259 17.6746 35.0192 16.9317C33.8125 16.1887 32.4228 15.7962 31.0058 15.7981L31.0118 15.8021Z" fill="#7F92FF"/>
<path id="Vector_26" d="M36.3527 29.628L35.5042 30.4766L38.4174 33.3898L39.266 32.5413L36.3527 29.628Z" fill="#7F92FF"/>
<path id="Vector_27" d="M38.048 27.9327L37.1995 28.7812L40.1127 31.6945L40.9613 30.846L38.048 27.9327Z" fill="#7F92FF"/>
<path id="Vector_28" d="M46.6106 41.8244C46.2677 41.825 45.9281 41.7579 45.6112 41.6268C45.2944 41.4956 45.0067 41.3032 44.7646 41.0604L38.9146 35.2104C38.6712 34.9687 38.478 34.6813 38.3462 34.3646C38.2143 34.048 38.1465 33.7084 38.1465 33.3654C38.1465 33.0224 38.2143 32.6828 38.3462 32.3661C38.478 32.0495 38.6712 31.762 38.9146 31.5204L39.0966 31.3384C39.3382 31.095 39.6257 30.9018 39.9423 30.77C40.259 30.6382 40.5986 30.5703 40.9416 30.5703C41.2845 30.5703 41.6241 30.6382 41.9408 30.77C42.2574 30.9018 42.5449 31.095 42.7866 31.3384L48.6346 37.1984C48.8776 37.44 49.0706 37.7273 49.2022 38.0438C49.3338 38.3603 49.4016 38.6996 49.4016 39.0424C49.4016 39.3851 49.3338 39.7245 49.2022 40.041C49.0706 40.3574 48.8776 40.6447 48.6346 40.8864L48.4526 41.0684C48.2102 41.3092 47.9228 41.5 47.6068 41.6297C47.2907 41.7594 46.9522 41.8256 46.6106 41.8244ZM40.9446 31.7764C40.8389 31.7767 40.7336 31.7888 40.6306 31.8124C40.3697 31.8728 40.1316 32.0068 39.9446 32.1984L39.7626 32.3804C39.6295 32.5107 39.5238 32.6663 39.4517 32.838C39.3795 33.0097 39.3423 33.1941 39.3423 33.3804C39.3423 33.5666 39.3795 33.751 39.4517 33.9227C39.5238 34.0944 39.6295 34.25 39.7626 34.3804L45.6126 40.2304C45.7434 40.3623 45.8992 40.4668 46.0709 40.5379C46.2426 40.609 46.4267 40.6452 46.6126 40.6444C46.7982 40.6455 46.9823 40.6096 47.1539 40.5388C47.3256 40.4681 47.4815 40.3639 47.6126 40.2324L47.7945 40.0504C47.9276 39.92 48.0333 39.7644 48.1054 39.5927C48.1776 39.421 48.2148 39.2366 48.2148 39.0504C48.2148 38.8641 48.1776 38.6797 48.1054 38.508C48.0333 38.3363 47.9276 38.1807 47.7945 38.0504L41.9366 32.1984C41.8071 32.0657 41.6525 31.9601 41.4819 31.8877C41.3112 31.8152 41.1279 31.7774 40.9426 31.7764H40.9446Z" fill="#7F92FF"/>
<path id="Vector_29" d="M43.2407 32.6433L40.22 35.6641L41.0685 36.5126L44.0893 33.4918L43.2407 32.6433Z" fill="#7F92FF"/>
</g>
</g>
</g>
</g>
</svg>
