<svg width="56" height="56" viewBox="0 0 56 56" fill="none" xmlns="http://www.w3.org/2000/svg">
<path d="M45.7161 28.1291C45.4564 27.848 45.182 27.581 44.8941 27.3291L44.9841 27.2151C45.2463 26.883 45.4906 26.5372 45.7161 26.1791C47.2974 23.6555 47.8593 20.6247 47.2877 17.7019C46.7161 14.7792 45.0538 12.1834 42.6382 10.4415C40.2226 8.69964 37.2347 7.94213 34.281 8.32277C31.3273 8.7034 28.6291 10.1937 26.7341 12.4911C26.5701 12.6911 26.4141 12.8911 26.2641 13.0911C25.8584 13.6579 25.505 14.2604 25.2081 14.8911C25.0841 15.1491 24.9701 15.4131 24.8641 15.6911C24.5961 16.3836 24.3952 17.1002 24.2641 17.8311C24.2631 17.8437 24.2631 17.8564 24.2641 17.8691C24.1564 18.4634 24.0956 19.0652 24.0821 19.6691C23.9361 19.5291 23.7881 19.3931 23.6341 19.2691C23.2468 18.9339 22.8379 18.6246 22.4101 18.3431C22.1681 18.1811 21.9181 18.0311 21.6601 17.8871L21.5661 17.8011C21.1198 17.5561 20.6582 17.3404 20.1841 17.1551C18.4923 16.4926 16.6692 16.2344 14.8601 16.4011C14.428 16.4434 13.9986 16.5102 13.5741 16.6011C11.2141 17.0842 9.06031 18.2826 7.40557 20.0332C5.75083 21.7838 4.6755 24.0016 4.32584 26.385C3.97618 28.7684 4.36916 31.2016 5.45134 33.3537C6.53352 35.5059 8.25236 37.2724 10.3741 38.4131C10.7946 38.6383 11.228 38.8387 11.6721 39.0131C12.289 39.2538 12.9253 39.4418 13.5741 39.5751C16.6168 40.1945 19.781 39.5832 22.3741 37.8751C23.4585 37.163 24.4163 36.2748 25.2081 35.2471C25.2861 35.1471 25.3621 35.0471 25.4381 34.9391C25.4241 35.0831 25.4121 35.2271 25.4061 35.3711C25.2739 37.4886 25.719 39.6024 26.694 41.4868C27.669 43.3713 29.1372 44.9557 30.9421 46.0711C31.5478 46.4433 32.1857 46.7605 32.8481 47.0191C35.3197 47.9827 38.0451 48.0796 40.5789 47.294C43.1128 46.5083 45.3053 44.8865 46.7982 42.6936C48.2911 40.5007 48.9961 37.8663 48.7981 35.2209C48.6001 32.5754 47.5108 30.0753 45.7081 28.1291H45.7161ZM27.6001 29.2431C27.6261 29.0011 27.6441 28.7571 27.6501 28.5151C27.6501 28.4684 27.6501 28.4224 27.6501 28.3771C27.7241 28.4491 27.8021 28.5211 27.8781 28.5911L28.0061 28.7071C27.8641 28.8811 27.7261 29.0591 27.6001 29.2431Z" fill="#DFE4FF"/>
<path d="M16.478 37.7593L16.982 39.0233C17.0527 39.2003 17.1666 39.3567 17.3134 39.4783C17.4601 39.5999 17.635 39.6828 17.822 39.7193C17.987 39.7515 18.1571 39.7467 18.3201 39.7054C18.483 39.6641 18.6348 39.5873 18.7646 39.4805C18.8944 39.3736 18.9989 39.2394 19.0707 39.0874C19.1426 38.9354 19.1799 38.7694 19.18 38.6013V33.9453H16.478V37.7593Z" fill="white"/>
<path d="M18.5999 21.5378L28.3199 14.9038C29.1439 14.3438 30.1719 15.0458 30.1719 16.1678V40.5078C30.1719 41.6318 29.1439 42.3338 28.3199 41.7698L18.5999 35.1378" fill="white"/>
<path d="M18.5999 21.5378L28.3199 14.9038C29.1439 14.3438 30.1719 15.0458 30.1719 16.1678V40.5078C30.1719 41.6318 29.1439 42.3338 28.3199 41.7698L18.5999 35.1378" stroke="#000062" stroke-miterlimit="10"/>
<path d="M12.497 35.2169L9.18099 41.0329C9.08731 41.1976 9.02845 41.3798 9.00805 41.5682C8.98764 41.7566 9.00614 41.9471 9.06239 42.1281C9.11864 42.309 9.21145 42.4765 9.33505 42.6201C9.45866 42.7637 9.61044 42.8804 9.78099 42.9629L11.595 43.8429C11.9134 43.9981 12.2792 44.0252 12.617 43.9188C12.9548 43.8124 13.239 43.5805 13.411 43.2709L17.889 35.2109" fill="white"/>
<path d="M12.497 35.2169L9.18099 41.0329C9.08731 41.1976 9.02845 41.3798 9.00805 41.5682C8.98764 41.7566 9.00614 41.9471 9.06239 42.1281C9.11864 42.309 9.21145 42.4765 9.33505 42.6201C9.45866 42.7637 9.61044 42.8804 9.78099 42.9629L11.595 43.8429C11.9134 43.9981 12.2792 44.0252 12.617 43.9188C12.9548 43.8124 13.239 43.5805 13.411 43.2709L17.889 35.2109" stroke="#000062" stroke-miterlimit="10"/>
<path d="M16.478 37.7592L16.982 39.0232C17.0527 39.2001 17.1666 39.3566 17.3134 39.4782C17.4601 39.5997 17.635 39.6826 17.822 39.7192C17.987 39.7513 18.1571 39.7466 18.3201 39.7053C18.483 39.664 18.6348 39.5872 18.7646 39.4803C18.8944 39.3735 18.9989 39.2392 19.0707 39.0872C19.1426 38.9353 19.1799 38.7693 19.18 38.6012V35.5352" stroke="#000062" stroke-miterlimit="10"/>
<path d="M12.2659 21.4609H18.5999V35.2169H12.2659C12.0209 35.2169 11.7782 35.1687 11.5518 35.0749C11.3254 34.9811 11.1197 34.8437 10.9464 34.6704C10.7732 34.4971 10.6357 34.2914 10.5419 34.065C10.4482 33.8386 10.3999 33.596 10.3999 33.3509V23.3269C10.3999 22.832 10.5965 22.3574 10.9464 22.0075C11.2964 21.6575 11.771 21.4609 12.2659 21.4609Z" fill="white" stroke="#000062" stroke-miterlimit="10"/>
<path d="M7.06595 23.9844H10.39V32.6924H7.06595C6.57106 32.6924 6.09643 32.4958 5.74649 32.1458C5.39655 31.7959 5.19995 31.3213 5.19995 30.8264V25.8424C5.20207 25.3489 5.3996 24.8763 5.74931 24.5281C6.09902 24.1799 6.57244 23.9844 7.06595 23.9844Z" fill="white" stroke="#000062" stroke-miterlimit="10"/>
<path d="M13.1077 21.4609V35.2169" stroke="#000062" stroke-miterlimit="10"/>
<path d="M26.842 40.484V29.668" stroke="#000062" stroke-miterlimit="10"/>
<path d="M26.842 26.7282V15.9122V15.9102" stroke="#000062" stroke-miterlimit="10"/>
<path d="M48.2402 12.1992H35.9182C34.8622 12.1992 34.0062 13.1992 34.0062 14.4432V19.6292C34.0066 19.8839 33.9695 20.1373 33.8962 20.3812L32.8122 23.9532C32.5102 24.9532 33.3622 25.8912 34.1922 25.4772L36.0362 24.5552C36.2688 24.4376 36.5256 24.3759 36.7862 24.3752H48.2422C49.2982 24.3752 50.1542 23.3752 50.1542 22.1312V14.4412C50.1522 13.2032 49.2962 12.1992 48.2402 12.1992Z" fill="white" stroke="#000062" stroke-miterlimit="10"/>
<path d="M37.553 14.7617H43.261" stroke="#000062" stroke-miterlimit="10"/>
<path d="M37.553 18.2227H47.731" stroke="#000062" stroke-miterlimit="10"/>
<path d="M37.553 21.6836H43.261" stroke="#000062" stroke-miterlimit="10"/>
<path d="M44.3 14.7617H46.954" stroke="#000062" stroke-miterlimit="10"/>
<path d="M22.9578 18.8867V27.0867" stroke="#000062" stroke-miterlimit="10"/>
<path d="M22.9578 28.3359V29.6859" stroke="#000062" stroke-miterlimit="10"/>
<path d="M26.842 28.724C27.1336 28.724 27.37 28.4876 27.37 28.196C27.37 27.9044 27.1336 27.668 26.842 27.668C26.5504 27.668 26.314 27.9044 26.314 28.196C26.314 28.4876 26.5504 28.724 26.842 28.724Z" fill="#000062"/>
<path d="M48.2402 12.1992H35.9182C34.8622 12.1992 34.0062 13.1992 34.0062 14.4432V19.6292C34.0066 19.8839 33.9695 20.1373 33.8962 20.3812L32.8122 23.9532C32.5102 24.9532 33.3622 25.8912 34.1922 25.4772L36.0362 24.5552C36.2688 24.4376 36.5256 24.3759 36.7862 24.3752H48.2422C49.2982 24.3752 50.1542 23.3752 50.1542 22.1312V14.4412C50.1522 13.2032 49.2962 12.1992 48.2402 12.1992Z" fill="white" stroke="#7F92FF" stroke-miterlimit="10"/>
<path d="M37.5532 14.7617H43.2612" stroke="#7F92FF" stroke-miterlimit="10"/>
<path d="M37.5532 18.2227H47.7312" stroke="#7F92FF" stroke-miterlimit="10"/>
<path d="M37.5532 21.6836H43.2612" stroke="#7F92FF" stroke-miterlimit="10"/>
<path d="M44.3 14.7617H46.954" stroke="#7F92FF" stroke-miterlimit="10"/>
</svg>
