<svg width="36" height="36" viewBox="0 0 36 36" fill="none" xmlns="http://www.w3.org/2000/svg">
<g id="Icon/Solid/star">
<path id="Icon" d="M17.0015 7.30073C17.3158 6.33335 18.6844 6.33335 18.9987 7.30073L20.9239 13.226C21.2653 14.2766 22.2444 14.988 23.3491 14.988H29.5793C30.5964 14.988 31.0193 16.2896 30.1964 16.8874L25.1561 20.5494C24.2624 21.1988 23.8884 22.3498 24.2298 23.4004L26.155 29.3257C26.4693 30.293 25.3621 31.0975 24.5392 30.4996L19.4989 26.8376C18.6052 26.1882 17.395 26.1883 16.5012 26.8376L11.4609 30.4996C10.638 31.0975 9.53081 30.293 9.84513 29.3257L11.7704 23.4004C12.1117 22.3498 11.7378 21.1988 10.844 20.5494L5.80371 16.8874C4.98081 16.2896 5.40372 14.988 6.42088 14.988H12.651C13.7558 14.988 14.7349 14.2766 15.0762 13.226L17.0015 7.30073Z" stroke="#94A3B8" stroke-width="1.5"/>
</g>
</svg>
